<?xml version="1.0" encoding="utf-8"?>
<!-- Generator: Adobe Illustrator 22.0.1, SVG Export Plug-In . SVG Version: 6.00 Build 0)  -->
<svg version="1.1" id="Layer_1" xmlns="http://www.w3.org/2000/svg" xmlns:xlink="http://www.w3.org/1999/xlink" x="0px" y="0px"
	 viewBox="0 0 300 159" style="enable-background:new 0 0 300 159;" xml:space="preserve">
<style type="text/css">
	.st0{opacity:0.75;fill:#7BC35E;enable-background:new    ;}
	.st1{fill:#FFFFFF;}
</style>
<rect x="-2" y="-2.667" class="st0" width="304.333" height="164.333"/>
<g>
	<polygon class="st1" points="50.414,71.078 45.336,55.25 38.133,55.25 38.133,78 43.617,78 43.617,72.688 43.086,61.797 48.602,78 
		52.227,78 57.727,61.813 57.195,72.688 57.195,78 62.695,78 62.695,55.25 55.477,55.25 	"/>
	<path class="st1" d="M72.755,60.782c-1.688,0-3.146,0.362-4.375,1.086c-1.229,0.724-2.164,1.748-2.805,3.07
		c-0.641,1.323-0.961,2.849-0.961,4.578v0.438c0,2.479,0.802,4.492,2.406,6.039c1.604,1.547,3.703,2.32,6.297,2.32
		c1.385,0,2.68-0.269,3.883-0.805s2.133-1.258,2.789-2.164L77.583,72.5c-0.938,1.167-2.24,1.75-3.906,1.75
		c-1.011,0-1.833-0.271-2.469-0.812c-0.636-0.542-1.047-1.286-1.234-2.234h10.469v-2.047c0-2.635-0.688-4.69-2.062-6.164
		C77.005,61.519,75.13,60.782,72.755,60.782z M75.286,67.907h-5.312c0.292-2.042,1.208-3.062,2.75-3.062
		c0.833,0,1.474,0.232,1.922,0.695c0.448,0.464,0.661,1.117,0.641,1.961V67.907z"/>
	<path class="st1" d="M89.376,60.782c-1.688,0-3.146,0.362-4.375,1.086c-1.229,0.724-2.164,1.748-2.805,3.07
		c-0.641,1.323-0.961,2.849-0.961,4.578v0.438c0,2.479,0.802,4.492,2.406,6.039c1.604,1.547,3.703,2.32,6.297,2.32
		c1.385,0,2.68-0.269,3.883-0.805s2.133-1.258,2.789-2.164L94.205,72.5c-0.938,1.167-2.24,1.75-3.906,1.75
		c-1.011,0-1.833-0.271-2.469-0.812c-0.636-0.542-1.047-1.286-1.234-2.234h10.469v-2.047c0-2.635-0.688-4.69-2.062-6.164
		C93.626,61.519,91.751,60.782,89.376,60.782z M91.908,67.907h-5.312c0.292-2.042,1.208-3.062,2.75-3.062
		c0.833,0,1.474,0.232,1.922,0.695c0.448,0.464,0.661,1.117,0.641,1.961V67.907z"/>
	<path class="st1" d="M104.858,73.813c-0.229-0.25-0.344-0.692-0.344-1.328V64.75h2.781v-3.656h-2.781v-4.203h-5.266v4.203h-2.156
		v3.656h2.156v8.391c0,1.74,0.432,3.036,1.297,3.891c0.864,0.854,2.203,1.281,4.016,1.281c1.031,0,2.021-0.151,2.969-0.453v-3.766
		c-0.354,0.062-0.792,0.094-1.312,0.094C105.54,74.188,105.087,74.063,104.858,73.813z"/>
	<path class="st1" d="M124.883,74.094c-0.354,0.062-0.792,0.094-1.312,0.094c-0.677,0-1.13-0.125-1.359-0.375
		c-0.229-0.25-0.344-0.692-0.344-1.328V64.75h2.781v-3.656h-2.781v-4.203h-5.266v4.203h-2.156v3.656h2.156v8.391
		c0,1.74,0.432,3.036,1.297,3.891c0.864,0.854,2.203,1.281,4.016,1.281c1.031,0,2.021-0.151,2.969-0.453V74.094z"/>
	<path class="st1" d="M131.067,65.875c0.448-0.688,1.213-1.031,2.297-1.031c0.875,0,1.495,0.211,1.859,0.633
		c0.364,0.422,0.547,1.081,0.547,1.977V78h5.281V67.328c-0.021-2.156-0.505-3.786-1.453-4.891c-0.948-1.104-2.354-1.656-4.219-1.656
		c-1.75,0-3.188,0.708-4.312,2.125V54h-5.266v24h5.266V65.875z"/>
	<path class="st1" d="M151.361,78.313c1.385,0,2.68-0.269,3.883-0.805s2.133-1.258,2.789-2.164l-2.406-2.844
		c-0.938,1.167-2.24,1.75-3.906,1.75c-1.012,0-1.834-0.271-2.469-0.812c-0.636-0.542-1.047-1.286-1.234-2.234h10.469v-2.047
		c0-2.635-0.688-4.69-2.062-6.164c-1.375-1.474-3.25-2.211-5.625-2.211c-1.688,0-3.146,0.362-4.375,1.086
		c-1.229,0.724-2.164,1.748-2.805,3.07c-0.641,1.323-0.961,2.849-0.961,4.578v0.438c0,2.479,0.802,4.492,2.406,6.039
		C146.668,77.539,148.767,78.313,151.361,78.313z M150.768,64.844c0.832,0,1.473,0.232,1.922,0.695
		c0.447,0.464,0.66,1.117,0.641,1.961v0.406h-5.313C148.309,65.865,149.225,64.844,150.768,64.844z"/>
	<path class="st1" d="M174.589,60.782c-1.688,0-3.146,0.362-4.375,1.086c-1.229,0.724-2.164,1.748-2.805,3.07
		c-0.641,1.323-0.961,2.849-0.961,4.578v0.438c0,2.479,0.802,4.492,2.406,6.039c1.604,1.547,3.703,2.32,6.297,2.32
		c1.385,0,2.68-0.269,3.883-0.805s2.133-1.258,2.789-2.164l-2.406-2.844c-0.938,1.167-2.24,1.75-3.906,1.75
		c-1.011,0-1.834-0.271-2.469-0.812c-0.636-0.542-1.047-1.286-1.234-2.234h10.469v-2.047c0-2.635-0.688-4.69-2.062-6.164
		C178.839,61.519,176.964,60.782,174.589,60.782z M177.12,67.907h-5.312c0.291-2.042,1.208-3.062,2.75-3.062
		c0.833,0,1.474,0.232,1.922,0.695c0.447,0.464,0.661,1.117,0.641,1.961V67.907z"/>
	<polygon class="st1" points="198.367,61.094 192.898,61.094 190.445,65.75 188.07,61.094 182.539,61.094 186.977,69.328 
		182.289,78 187.82,78 190.43,73 193.086,78 198.586,78 193.914,69.328 	"/>
	<path class="st1" d="M208.364,60.782c-1.646,0-2.975,0.625-3.984,1.875l-0.156-1.562h-4.922V84.5h5.266V76.61
		c1,1.136,2.275,1.703,3.828,1.703c2.01,0,3.606-0.784,4.789-2.352c1.182-1.567,1.773-3.664,1.773-6.289v-0.25
		c0-2.688-0.578-4.799-1.734-6.336C212.067,61.55,210.447,60.782,208.364,60.782z M209.692,69.907
		c-0.053,2.896-0.917,4.344-2.594,4.344c-1.229,0-2.073-0.469-2.531-1.406v-6.656c0.416-0.896,1.25-1.344,2.5-1.344
		c1.75,0,2.625,1.5,2.625,4.5V69.907z"/>
	<path class="st1" d="M224.096,60.782c-1.688,0-3.146,0.362-4.375,1.086c-1.229,0.724-2.164,1.748-2.805,3.07
		c-0.641,1.323-0.961,2.849-0.961,4.578v0.438c0,2.479,0.802,4.492,2.406,6.039c1.604,1.547,3.703,2.32,6.297,2.32
		c1.385,0,2.68-0.269,3.883-0.805s2.133-1.258,2.789-2.164l-2.406-2.844c-0.938,1.167-2.24,1.75-3.906,1.75
		c-1.011,0-1.834-0.271-2.469-0.812c-0.636-0.542-1.047-1.286-1.234-2.234h10.469v-2.047c0-2.635-0.688-4.69-2.062-6.164
		C228.346,61.519,226.471,60.782,224.096,60.782z M226.627,67.907h-5.312c0.291-2.042,1.208-3.062,2.75-3.062
		c0.833,0,1.474,0.232,1.922,0.695c0.447,0.464,0.661,1.117,0.641,1.961V67.907z"/>
	<path class="st1" d="M238.248,63.266l-0.172-2.172h-4.938V78h5.266V67.297c0.469-1.042,1.531-1.562,3.188-1.562l1.734,0.125
		l0.094-4.891c-0.417-0.125-0.906-0.188-1.469-0.188C240.367,60.782,239.133,61.61,238.248,63.266z"/>
	<path class="st1" d="M251.683,73.813c-0.229-0.25-0.344-0.692-0.344-1.328V64.75h2.781v-3.656h-2.781v-4.203h-5.266v4.203h-2.156
		v3.656h2.156v8.391c0,1.74,0.432,3.036,1.297,3.891c0.864,0.854,2.203,1.281,4.016,1.281c1.031,0,2.021-0.151,2.969-0.453v-3.766
		c-0.354,0.062-0.792,0.094-1.312,0.094C252.364,74.188,251.911,74.063,251.683,73.813z"/>
	<path class="st1" d="M260.727,73.633c-0.553-0.495-1.245-0.742-2.078-0.742c-0.844,0-1.539,0.25-2.086,0.75s-0.82,1.13-0.82,1.891
		c0,0.761,0.273,1.391,0.82,1.891s1.242,0.75,2.086,0.75c0.833,0,1.525-0.247,2.078-0.742c0.552-0.495,0.828-1.128,0.828-1.898
		S261.278,74.128,260.727,73.633z"/>
	<path class="st1" d="M122.667,116.017h46V90.784h-46V116.017z M142.348,96.217l10.688,7.184l-10.688,7.184V96.217z"/>
</g>
</svg>
