<?xml version="1.0" encoding="utf-8"?>
<!-- Generator: Adobe Illustrator 22.0.1, SVG Export Plug-In . SVG Version: 6.00 Build 0)  -->
<svg version="1.1" id="Layer_1" xmlns="http://www.w3.org/2000/svg" xmlns:xlink="http://www.w3.org/1999/xlink" x="0px" y="0px"
	 viewBox="0 0 799.2000122 90" style="enable-background:new 0 0 799.2000122 90;" xml:space="preserve">
<style type="text/css">
	.st0{fill:#626971;}
</style>
<g>
	<path class="st0" d="M107.1409988,31.072998c1.1819992,0,2.1389999-0.961998,2.1389999-2.151001V14.519001
		c0-1.1889992-0.9560013-2.151001-2.1389999-2.151001c-1.1819992,0-2.1389999,0.9620018-2.1389999,2.151001v14.4029961
		C105.0029984,30.1110001,105.9599991,31.072998,107.1409988,31.072998z"/>
	<path class="st0" d="M107.1409988-15.5610008c1.1819992,0,2.1389999-0.9619999,2.1389999-2.151001v-27.0779991
		c-0.0009995-1.1889992-0.9570007-2.151001-2.1389999-2.151001s-2.1389999,0.9620018-2.1389999,2.151001v27.0790024
		C105.0029984-16.5230007,105.9589996-15.5610008,107.1409988-15.5610008z"/>
	<path class="st0" d="M107.1409988,4.2029991c1.1819992,0,2.1389999-0.9620018,2.1389999-2.151001V1.5859985v-4.8689995
		c0-0.1230011-0.012001-0.243-0.0319977-0.3600006c-0.0039978-0.0250015-0.0059967-0.0489998-0.0110016-0.0730019
		c-0.0080032-0.0410004-0.0199966-0.0810013-0.0309982-0.1199989c-0.0080032-0.0279999-0.0130005-0.0579987-0.0210037-0.0859985
		c-0.0400009-0.1300011-0.0930023-0.2540016-0.1549988-0.3720016c-0.0019989-0.0050011-0.0049973-0.0089989-0.0070038-0.0139999
		c-0.0279999-0.0519981-0.0599976-0.1030006-0.0920029-0.1520004c-0.0049973-0.0079994-0.0100021-0.0169983-0.0149994-0.0250015
		c-0.0210037-0.0320015-0.0459976-0.0620003-0.0690002-0.0929985c-0.0179977-0.0239983-0.0350037-0.0489998-0.0540009-0.0730019
		c-0.0159988-0.019001-0.0329971-0.0369987-0.0500031-0.0550003c-0.0289993-0.0330009-0.0579987-0.0670013-0.0879974-0.0970001
		c-0.0159988-0.0159988-0.0339966-0.0309982-0.0510025-0.0470009c-0.0329971-0.0309982-0.0660019-0.0629997-0.1009979-0.0929985
		c-0.0009995-0.0009995-0.0009995-0.0009995-0.0019989-0.0019989c-0.2639999-0.2190018-0.5800018-0.3740005-0.9280014-0.4459991
		c-0.0240021-0.0050011-0.0479965-0.007-0.072998-0.012001c-0.1169968-0.0200005-0.2360001-0.0320015-0.3590012-0.0320015
		c-1.1819992,0-2.1389999,0.9620018-2.1389999,2.151001v4.8689995v0.4659996
		C105.0029984,3.2400017,105.9589996,4.2029991,107.1409988,4.2029991z"/>
	<path class="st0" d="M180.4490051,46.310997h-14.3170013c-1.1820068,0-2.1389923,0.961998-2.1389923,2.151001
		s0.9559937,2.151001,2.1390076,2.151001h14.3170013c1.1820068,0,2.1389923-0.961998,2.1389923-2.151001
		C182.5880127,47.2730026,181.631012,46.310997,180.4490051,46.310997z"/>
	<path class="st0" d="M134.0900116,46.310997h-24.8110123v-2.7539978c0-1.189003-0.9560013-2.151001-2.1389999-2.151001
		c-1.1819992,0-2.1389999,0.961998-2.1389999,2.151001v4.8690033c0,0.5979996,0.2429962,1.1380005,0.6330032,1.5279999
		c0.3889999,0.4049988,0.9319992,0.6589966,1.5360031,0.6589966h26.9180069c1.1820068,0,2.1390076-0.961998,2.1390076-2.151001
		C136.2290039,47.2740021,135.2730103,46.310997,134.0900116,46.310997z"/>
	<path class="st0" d="M153.7380066,46.310997h-0.4640045h-4.8410034c-0.1230011,0-0.2420044,0.0130005-0.3589935,0.0319977
		c-0.0240021,0.0039978-0.048996,0.0059967-0.072998,0.0110016c-0.0410004,0.0080032-0.0800018,0.0199966-0.1199951,0.0309982
		c-0.0279999,0.0080032-0.0579987,0.0130005-0.0850067,0.0220032c-0.1289978,0.0410004-0.2519989,0.0930023-0.3699951,0.1559982
		c-0.0050049,0.0019989-0.0090027,0.0049973-0.0140076,0.0070038c-0.052002,0.0279999-0.102005,0.0599976-0.151001,0.0930023
		c-0.0079956,0.0049973-0.0169983,0.0100021-0.0249939,0.0149994c-0.0319977,0.0210037-0.0610046,0.0459976-0.0930023,0.0699997
		c-0.0240021,0.0179977-0.048996,0.0350037-0.0720062,0.0540009c-0.0189972,0.0159988-0.0359955,0.0339966-0.0540009,0.0500031
		c-0.0330048,0.0289993-0.0659943,0.0579987-0.0970001,0.0889969c-0.0160065,0.0159988-0.0310059,0.0350037-0.0460052,0.0510025
		c-0.0310059,0.0339966-0.0630035,0.0670013-0.0919952,0.1019974c0,0.0009995-0.0010071,0.0009995-0.0019989,0.0019989
		c-0.2169952,0.2649994-0.371994,0.5839996-0.4429932,0.9329987c-0.0050049,0.0240021-0.0070038,0.0490036-0.0110016,0.072998
		c-0.0200043,0.1169968-0.0319977,0.237999-0.0319977,0.3600006c0,1.189003,0.9559937,2.151001,2.1390076,2.151001h4.8410034
		h0.4640045c1.1820068,0,2.1389923-0.961998,2.1389923-2.151001
		C155.8760071,47.2740021,154.9190063,46.310997,153.7380066,46.310997z"/>
	<path class="st0" d="M199.8390045,46.310997h-4.8410034c-1.1820068,0-2.1389923,0.961998-2.1389923,2.151001
		s0.9570007,2.151001,2.1390076,2.151001h4.8410034c1.1820068,0,2.1390076-0.961998,2.1390076-2.151001
		C201.9780121,47.2730026,201.0210114,46.310997,199.8390045,46.310997z"/>
	<path class="st0" d="M234.32901,46.4400024h-4.7929993c-0.227005-0.0820007-0.4700012-0.1289978-0.7250061-0.1289978h-14.3170013
		c-0.2550049,0-0.4980011,0.0469971-0.7250061,0.1289978h-0.628006c-1.1820068,0-2.1390076,0.961998-2.1390076,2.151001
		s0.9570007,2.151001,2.1390076,2.151001h21.1880035c1.1820068,0,2.1389923-0.961998,2.1389923-2.151001
		C236.4680023,47.4029999,235.5110016,46.4400024,234.32901,46.4400024z"/>
	<path class="st0" d="M320.28302,46.4400024h-14.3169861c-1.1820068,0-2.1390076,0.961998-2.1390076,2.151001
		s0.9559937,2.151001,2.1390076,2.151001H320.28302c1.1820068,0,2.1390076-0.961998,2.1390076-2.151001
		C322.4219971,47.4029999,321.4660034,46.4400024,320.28302,46.4400024z"/>
	<path class="st0" d="M275.2860107,46.9309998c-0.1059875-0.086998-0.2200012-0.1660004-0.3410034-0.2320023
		c-0.303009-0.1660004-0.6499939-0.2590027-1.019989-0.2590027H247.007019c-0.3699951,0-0.7169952,0.0940018-1.0200043,0.2590027
		c-0.1210022,0.0660019-0.2350006,0.1439972-0.3410034,0.2320023c-0.0780029,0.064003-0.1499939,0.1360016-0.2180023,0.211998
		c-0.0709991,0.0770035-0.1360016,0.1589966-0.1959991,0.2450027c-0.2310028,0.3440018-0.3650055,0.7580032-0.3650055,1.2030029
		c0,0.4459991,0.1340027,0.8600006,0.3650055,1.2030029c0.0769958,0.1139984,0.1640015,0.2210007,0.2610016,0.3180008
		c0.0480042,0.0479965,0.098999,0.0950012,0.1519928,0.1389999c0.3699951,0.3069992,0.8439941,0.4909973,1.3600006,0.4909973l0,0
		h26.92099c1.1820068,0,2.1390076-0.961998,2.1390076-2.151001c0-0.5199966-0.1830139-0.9970016-0.4880066-1.3690033
		C275.4880066,47.1169968,275.3919983,47.0189972,275.2860107,46.9309998z"/>
	<path class="st0" d="M293.572998,46.4400024h-0.4639893h-4.8410034c-0.1229858,0-0.2420044,0.0130005-0.3590088,0.0319977
		c-0.0239868,0.0039978-0.0490112,0.0059967-0.072998,0.0110016c-0.0409851,0.0080032-0.0799866,0.0199966-0.1199951,0.0309982
		c-0.0280151,0.0080032-0.0580139,0.0130005-0.0849915,0.0220032c-0.1289978,0.0410004-0.2520142,0.0940018-0.3699951,0.1559982
		c-0.0050049,0.0019989-0.0090027,0.0049973-0.0140076,0.0070038c-0.052002,0.0279999-0.1019897,0.0599976-0.151001,0.0930023
		c-0.0079956,0.0049973-0.0169983,0.0100021-0.0249939,0.0149994c-0.0320129,0.0210037-0.0610046,0.0459976-0.0929871,0.0699997
		c-0.0239868,0.0179977-0.0490112,0.0350037-0.071991,0.0540009c-0.0190125,0.0159988-0.0360107,0.0339966-0.0539856,0.0500031
		c-0.0329895,0.0289993-0.0660095,0.0579987-0.0969849,0.0889969c-0.0159912,0.0159988-0.0310059,0.0350037-0.04599,0.0510025
		c-0.0310059,0.0339966-0.0629883,0.0670013-0.0920105,0.1019974c0,0.0009995-0.0010071,0.0009995-0.0010071,0.0019989
		c-0.2170105,0.2649994-0.3729858,0.5839996-0.4429932,0.9329987c-0.0050049,0.0240021-0.0069885,0.0490036-0.0119934,0.072998
		c-0.019989,0.1169968-0.0320129,0.237999-0.0320129,0.3600006c0,1.189003,0.9559937,2.151001,2.1390076,2.151001h4.8410034
		h0.4639893c1.1820068,0,2.1390076-0.961998,2.1390076-2.151001
		C295.7109985,47.4029999,294.7539978,46.4400024,293.572998,46.4400024z"/>
	<path class="st0" d="M339.6730042,46.4400024h-4.8410034c-1.1820068,0-2.1390076,0.961998-2.1390076,2.151001
		s0.9570007,2.151001,2.1390076,2.151001h4.8410034c1.1820068,0,2.1390076-0.961998,2.1390076-2.151001
		C341.8120117,47.4029999,340.855011,46.4400024,339.6730042,46.4400024z"/>
	<path class="st0" d="M374.1640015,46.5699997h-4.7929993c-0.2269897-0.0820007-0.4700012-0.1289978-0.7250061-0.1289978h-14.315979
		c-0.2550049,0-0.4979858,0.0469971-0.7250061,0.1289978h-0.6289978c-1.1820068,0-2.1390076,0.961998-2.1390076,2.151001
		s0.9570007,2.151001,2.1390076,2.151001h21.1879883c1.1820068,0,2.1390076-0.961998,2.1390076-2.151001
		C376.302002,47.5319977,375.3460083,46.5699997,374.1640015,46.5699997z"/>
	<path class="st0" d="M414.1910095,46.612999c-0.1400146-0.0279999-0.2839966-0.0439987-0.4309998-0.0439987h-26.9179993
		c-1.1820068,0-2.1390076,0.961998-2.1390076,2.151001c0,0.5019989,0.1719971,0.961998,0.4570007,1.3270035
		c0.0150146,0.0179977,0.0280151,0.038002,0.0440063,0.0559998c0.3919983,0.4690018,0.980011,0.7679977,1.6380005,0.7679977
		h26.9179993c1.1820068,0,2.1390076-0.961998,2.1390076-2.151001
		C415.8980103,47.6800003,415.1660156,46.814003,414.1910095,46.612999z"/>
	<path class="st0" d="M460.1180115,46.5699997h-14.3169861c-1.1820068,0-2.1390076,0.961998-2.1390076,2.151001
		s0.9559937,2.151001,2.1390076,2.151001h14.3169861c1.1820068,0,2.1390076-0.961998,2.1390076-2.151001
		C462.256012,47.5309982,461.3000183,46.5699997,460.1180115,46.5699997z"/>
	<path class="st0" d="M433.4070129,46.5699997h-0.4639893h-4.8410034c-0.1229858,0-0.2420044,0.0130005-0.3580017,0.0319977
		c-0.0239868,0.0039978-0.0490112,0.0059967-0.072998,0.0110016c-0.0409851,0.0080032-0.0799866,0.0199966-0.1199951,0.0309982
		c-0.0280151,0.0080032-0.0580139,0.0130005-0.0849915,0.0220032c-0.1289978,0.0410004-0.2520142,0.0930023-0.3699951,0.1559982
		c-0.0050049,0.0019989-0.0090027,0.0049973-0.0140076,0.0070038c-0.052002,0.0279999-0.1019897,0.0599976-0.151001,0.0930023
		c-0.0079956,0.0049973-0.0169983,0.0100021-0.0249939,0.0149994c-0.0320129,0.0210037-0.0620117,0.0459976-0.0929871,0.0699997
		c-0.0239868,0.0179977-0.0490112,0.0350037-0.071991,0.0540009c-0.0190125,0.0159988-0.0360107,0.0339966-0.0539856,0.0500031
		c-0.0329895,0.0289993-0.0660095,0.0579987-0.0969849,0.0889969c-0.0159912,0.0159988-0.0310059,0.0350037-0.04599,0.0510025
		c-0.0310059,0.0339966-0.0629883,0.0660019-0.0920105,0.1019974c-0.0010071,0.0009995-0.0010071,0.0009995-0.0020142,0.0019989
		c-0.2170105,0.2649994-0.3729858,0.5839996-0.4429932,0.9329987c-0.0050049,0.0240021-0.0069885,0.0490036-0.0119934,0.072998
		c-0.019989,0.1169968-0.0320129,0.237999-0.0320129,0.3600006c0,1.189003,0.9559937,2.151001,2.1390076,2.151001h4.8410034
		h0.4639893c1.1820068,0,2.1390076-0.961998,2.1390076-2.151001
		C435.5450134,47.5319977,434.5890198,46.5699997,433.4070129,46.5699997z"/>
	<path class="st0" d="M479.5079956,46.5699997h-4.8410034c-1.1820068,0-2.1390076,0.961998-2.1390076,2.151001
		s0.9570007,2.151001,2.1390076,2.151001h4.8410034c1.1820068,0,2.1390076-0.961998,2.1390076-2.151001
		C481.6459961,47.5309982,480.6900024,46.5699997,479.5079956,46.5699997z"/>
	<path class="st0" d="M513.9979858,46.6989975h-4.7929688c-0.2269897-0.0820007-0.4700012-0.1289978-0.7250061-0.1289978
		h-14.3169861c-0.2550049,0-0.4979858,0.0469971-0.7250061,0.1289978h-0.6289978
		c-1.1820068,0-2.1390076,0.961998-2.1390076,2.151001s0.9570007,2.151001,2.1390076,2.151001h21.1879883
		c1.1820068,0,2.1389771-0.961998,2.1389771-2.151001C516.1369629,47.6610031,515.1799927,46.6989975,513.9979858,46.6989975z"/>
	<path class="st0" d="M599.9519653,46.6989975h-14.3170166c-1.1820068,0-2.1389771,0.961998-2.1389771,2.151001
		s0.9559937,2.151001,2.1389771,2.151001h14.3170166c1.1820068,0,2.1389771-0.961998,2.1389771-2.151001
		C602.0899658,47.6610031,601.1339722,46.6989975,599.9519653,46.6989975z"/>
	<path class="st0" d="M554.9549561,47.189003c-0.1060181-0.086998-0.2199707-0.1660004-0.3410034-0.2320023
		c-0.3029785-0.1660004-0.6500244-0.2590027-1.0200195-0.2590027h-26.9180298c-0.3699951,0-0.71698,0.0940018-1.0200195,0.2590027
		c-0.1209717,0.0660019-0.2349854,0.1439972-0.3410034,0.2320023c-0.0780029,0.064003-0.1500244,0.1360016-0.2180176,0.211998
		c-0.0709839,0.0770035-0.1370239,0.1589966-0.1959839,0.2450027c-0.2310181,0.3440018-0.3649902,0.7570038-0.3649902,1.2030029
		s0.1339722,0.8600006,0.3649902,1.2030029c0.0770264,0.1139984,0.1640015,0.2210007,0.2609863,0.3180008
		c0.0479736,0.0479965,0.098999,0.0950012,0.1519775,0.1389999c0.3699951,0.3069992,0.8439941,0.4909973,1.3599854,0.4909973
		h26.9179688c1.1820068,0,2.1389771-0.961998,2.1389771-2.151001c0-0.5199966-0.1829834-0.9970016-0.4879761-1.3690033
		C555.157959,47.375,555.0599976,47.2779999,554.9549561,47.189003z"/>
	<path class="st0" d="M573.2409668,46.6989975h-0.4639893h-4.8410034c-0.1229858,0-0.2420044,0.0130005-0.3579712,0.0319977
		c-0.0239868,0.0039978-0.0490112,0.0059967-0.072998,0.012001c-0.0410156,0.0080032-0.0800171,0.0199966-0.1199951,0.0309982
		c-0.0280151,0.0080032-0.0579834,0.0130005-0.085022,0.0220032c-0.1290283,0.0410004-0.2520142,0.0940018-0.3699951,0.1559982
		c-0.0050049,0.0019989-0.0089722,0.0049973-0.0139771,0.0070038c-0.052002,0.0279999-0.1019897,0.0599976-0.151001,0.0930023
		c-0.0079956,0.0049973-0.0170288,0.0100021-0.0250244,0.0149994c-0.0319824,0.0210037-0.0620117,0.0459976-0.0930176,0.0699997
		c-0.0239868,0.0179977-0.0490112,0.0350037-0.0720215,0.0540009c-0.0189819,0.0159988-0.0360107,0.0339966-0.0540161,0.0500031
		c-0.03302,0.0289993-0.065979,0.0579987-0.0969849,0.0889969c-0.0159912,0.0159988-0.0310059,0.0350037-0.0460205,0.0510025
		c-0.0310059,0.0339966-0.0629883,0.0670013-0.09198,0.1019974c-0.0009766,0.0009995-0.0009766,0.0009995-0.0020142,0.0019989
		c-0.21698,0.2649994-0.3729858,0.5839996-0.4429932,0.9329987c-0.0050049,0.0240021-0.007019,0.0490036-0.0109863,0.072998
		c-0.0200195,0.1169968-0.0319824,0.237999-0.0319824,0.3600006c0,1.189003,0.9559937,2.151001,2.1380005,2.151001h4.8410034
		h0.4639893c1.1820068,0,2.1389771-0.961998,2.1389771-2.151001
		C575.3800049,47.6610031,574.4229736,46.6989975,573.2409668,46.6989975z"/>
	<path class="st0" d="M619.3429565,46.6989975h-4.8410034c-1.1820068,0-2.1389771,0.961998-2.1389771,2.151001
		s0.9569702,2.151001,2.1389771,2.151001h4.8410034c1.1820068,0,2.1389771-0.961998,2.1389771-2.151001
		C621.480957,47.6610031,620.5239868,46.6989975,619.3429565,46.6989975z"/>
	<path class="st0" d="M653.8329468,46.8280029h-4.7930298c-0.2260132-0.0820007-0.4699707-0.1289978-0.7249756-0.1289978
		h-14.3170166c-0.2550049,0-0.4979858,0.0469971-0.7249756,0.1289978h-0.6290283
		c-1.1820068,0-2.1380005,0.961998-2.1380005,2.151001s0.9569702,2.151001,2.1380005,2.151001h21.1879883
		c1.1820068,0,2.1389771-0.961998,2.1389771-2.151001C655.9709473,47.7910004,655.0139771,46.8280029,653.8329468,46.8280029z"/>
	<path class="st0" d="M693.4609985,64.7149963c-1.1820068,0-2.1389771,0.961998-2.1389771,2.151001V90.75
		c0,1.189003,0.9569702,2.151001,2.1389771,2.151001s2.1389771-0.961998,2.1389771-2.151001V66.8659973
		C695.598999,65.6760025,694.6430054,64.7149963,693.4609985,64.7149963z"/>
	<path class="st0" d="M695.5669556,48.7009964c-0.0040283-0.0250015-0.0059814-0.0490036-0.0109863-0.072998
		c-0.0079956-0.0410004-0.0200195-0.0810013-0.0310059-0.1200027c-0.0079956-0.0279999-0.0130005-0.0579987-0.0219727-0.0859985
		c-0.0180054-0.0569992-0.0449829-0.1070023-0.0679932-0.1620026c-0.2940063-0.8330002-1.0770264-1.4319992-2.007019-1.4319992
		h-26.9180298c-1.1820068,0-2.1380005,0.961998-2.1380005,2.151001s0.9559937,2.151001,2.1380005,2.151001h24.8120117v2.8010025
		v0.4660034c0,1.189003,0.9559937,2.151001,2.1389771,2.151001c1.1820068,0,2.1389771-0.961998,2.1389771-2.151001v-0.4660034
		v-4.8690033C695.598999,48.939003,695.5869751,48.8190002,695.5669556,48.7009964z"/>
	<path class="st0" d="M693.4609985,97.753006c-1.1820068,0-2.1389771,0.9620056-2.1389771,2.151001v4.8690033
		c0,1.1889954,0.9569702,2.151001,2.1389771,2.151001s2.1389771-0.9620056,2.1389771-2.151001V99.904007
		C695.598999,98.7149963,694.6430054,97.753006,693.4609985,97.753006z"/>
	<path class="st0" d="M695.4709473,114.154007c0-1.1889954-0.9569702-2.151001-2.1380005-2.151001
		c-1.1820068,0-2.1389771,0.9620056-2.1389771,2.151001v21.3139954c0,1.1889954,0.9559937,2.151001,2.1389771,2.151001
		c1.1820068,0,2.1380005-0.9620056,2.1380005-2.151001v-4.8209991c0.0809937-0.2279968,0.1290283-0.4730072,0.1290283-0.7290039
		v-14.4020081c0-0.2559967-0.0469971-0.5019989-0.1290283-0.7290039V114.154007z"/>
</g>
</svg>
