<?xml version="1.0" encoding="utf-8"?>
<!-- Generator: Adobe Illustrator 22.0.1, SVG Export Plug-In . SVG Version: 6.00 Build 0)  -->
<svg version="1.1" id="Layer_1" xmlns="http://www.w3.org/2000/svg" xmlns:xlink="http://www.w3.org/1999/xlink" x="0px" y="0px"
	 viewBox="0 0 800 90" style="enable-background:new 0 0 800 90;" xml:space="preserve">
<style type="text/css">
	.st0{fill:#626971;}
</style>
<g>
	<path class="st0" d="M696,28.9229965V14.5200005c0-1.1889992-0.9569702-2.151001-2.1389771-2.151001
		c-1.1829834,0-2.1389771,0.9620018-2.1389771,2.151001v14.4030037c0,1.189003,0.9569702,2.151001,2.1389771,2.151001
		C695.0419922,31.0739975,695.9990234,30.1119995,696,28.9229965z"/>
	<path class="st0" d="M696-17.7110004v-27.0790005c0-1.1889992-0.9569702-2.151001-2.1389771-2.151001
		s-2.1380005,0.9620018-2.1389771,2.151001v27.0790024c0,1.1889992,0.9569702,2.151001,2.1389771,2.151001
		S695.9990234-16.5219994,696-17.7110004z"/>
	<path class="st0" d="M696,2.0519981V1.5859985v-4.8689995c0-1.1889992-0.9569702-2.151001-2.1389771-2.151001
		c-0.1229858,0-0.2420044,0.012001-0.3590088,0.0320015c-0.0250244,0.0050011-0.0490112,0.007-0.072998,0.012001
		c-0.3480225,0.0719986-0.6640015,0.2270012-0.9279785,0.4459991c-0.0009766,0.0009995-0.0009766,0.0009995-0.0020142,0.0019989
		c-0.0349731,0.0299988-0.0679932,0.0620003-0.1010132,0.0929985c-0.0170288,0.0159988-0.0349731,0.0309982-0.0510254,0.0470009
		c-0.0310059,0.0299988-0.059021,0.0639992-0.0880127,0.0970001c-0.0170288,0.0180016-0.0339966,0.0359993-0.0499878,0.0550003
		c-0.0200195,0.0239983-0.0360107,0.0489998-0.0540161,0.0730019c-0.0230103,0.0309982-0.0479736,0.0610008-0.0689697,0.0929985
		c-0.0050049,0.0079994-0.0100098,0.0169983-0.0150146,0.0250015c-0.0319824,0.0489998-0.0640259,0.0999985-0.09198,0.1520004
		c-0.0020142,0.0050011-0.0050049,0.0089989-0.007019,0.0139999c-0.0620117,0.118-0.1149902,0.2420006-0.1550293,0.3720016
		c-0.0079956,0.0279999-0.0130005,0.0579987-0.0209961,0.0859985c-0.0109863,0.0390015-0.0230103,0.0789986-0.0310059,0.1199989
		c-0.0050049,0.0239983-0.007019,0.0480003-0.0109863,0.0730019c-0.0200195,0.1170006-0.0319824,0.2369995-0.0319824,0.3600006
		v4.8689995v0.4659996c0,1.1889992,0.9569702,2.151001,2.1389771,2.151001S695.9990234,3.2410011,696,2.0519981z"/>
	<path class="st0" d="M618.4140015,48.4629974c0,1.189003,0.9569702,2.151001,2.1389771,2.151001h14.3170166
		c1.1829834,0,2.1389771-0.961998,2.1389771-2.151001s-0.9569702-2.151001-2.1389771-2.151001h-14.3170166
		C619.3709717,46.3119965,618.4140015,47.2740021,618.4140015,48.4629974z"/>
	<path class="st0" d="M664.7750244,48.4629974c0,1.189003,0.9569702,2.151001,2.1389771,2.151001h26.9180298
		c0.6040039,0,1.1469727-0.2539978,1.5360107-0.6589966c0.3900146-0.3899994,0.6329956-0.9300003,0.6329956-1.5279999v-4.8690033
		c0-1.189003-0.9569702-2.151001-2.1389771-2.151001c-1.1829834,0-2.1389771,0.961998-2.1389771,2.151001v2.7539978h-24.8109741
		C665.7290039,46.3119965,664.7730103,47.2750015,664.7750244,48.4629974z"/>
	<path class="st0" d="M645.125,48.4629974c0,1.189003,0.9569702,2.151001,2.1389771,2.151001h0.4639893h4.8410034
		c1.1829834,0,2.1389771-0.961998,2.1389771-2.151001c0-0.1220016-0.0120239-0.2429962-0.0319824-0.3600006
		c-0.0040283-0.0240021-0.0059814-0.0490036-0.0109863-0.072998c-0.0709839-0.348999-0.2260132-0.6679993-0.4429932-0.9329987
		c-0.0009766-0.0009995-0.0020142-0.0009995-0.0020142-0.0019989c-0.0289917-0.0350037-0.0609741-0.0680008-0.09198-0.1019974
		c-0.0150146-0.0159988-0.0300293-0.0350037-0.0460205-0.0510025c-0.0310059-0.0309982-0.0640259-0.0599976-0.0969849-0.0889969
		c-0.0180054-0.0159988-0.0349731-0.0339966-0.0540161-0.0500031c-0.0230103-0.0189972-0.0479736-0.0360031-0.0720215-0.0540009
		c-0.0319824-0.0240021-0.0609741-0.0490036-0.0930176-0.0699997c-0.0079956-0.0049973-0.0170288-0.0100021-0.0250244-0.0149994
		c-0.0490112-0.0329971-0.098999-0.0650024-0.151001-0.0930023c-0.0050049-0.0019989-0.0089722-0.0049973-0.0139771-0.0070038
		c-0.117981-0.0630035-0.2410278-0.1149979-0.3699951-0.1559982c-0.0280151-0.0090027-0.0570068-0.0139999-0.085022-0.0220032
		c-0.039978-0.0110016-0.0789795-0.0230026-0.1199951-0.0309982c-0.0239868-0.0049973-0.0490112-0.0070038-0.072998-0.0110016
		c-0.1170044-0.0189972-0.2360229-0.0319977-0.3590088-0.0319977h-4.8410034h-0.4639893
		C646.0830078,46.3119965,645.1259766,47.2750015,645.125,48.4629974z"/>
	<path class="st0" d="M599.0239868,48.4629974c0,1.189003,0.9569702,2.151001,2.1389771,2.151001h4.8410034
		c1.1820068,0,2.1389771-0.961998,2.1389771-2.151001s-0.9569702-2.151001-2.1389771-2.151001h-4.8410034
		C599.9810181,46.3119965,599.0239868,47.2740021,599.0239868,48.4629974z"/>
	<path class="st0" d="M564.5339966,48.5920029c0,1.189003,0.9569702,2.151001,2.1389771,2.151001h21.1879883
		c1.1820068,0,2.1389771-0.961998,2.1389771-2.151001s-0.9569702-2.151001-2.1389771-2.151001h-0.6279907
		c-0.2269897-0.0820007-0.4699707-0.1289978-0.7249756-0.1289978H572.190979c-0.2550049,0-0.4979858,0.0469971-0.7249756,0.1289978
		h-4.7930298C565.4910278,46.4410019,564.5339966,47.4039993,564.5339966,48.5920029z"/>
	<path class="st0" d="M478.5799866,48.5920029c0,1.189003,0.9570007,2.151001,2.1390076,2.151001h14.3169861
		c1.1830139,0,2.1390076-0.961998,2.1390076-2.151001s-0.9570007-2.151001-2.1390076-2.151001h-14.3169861
		C479.5360107,46.4410019,478.5799866,47.4039993,478.5799866,48.5920029z"/>
	<path class="st0" d="M525.4249878,47.2229996c-0.3049927,0.3720016-0.4879761,0.848999-0.4879761,1.3690033
		c0,1.189003,0.9569702,2.151001,2.1389771,2.151001h26.9210205l0,0c0.5159912,0,0.9899902-0.1839981,1.3599854-0.4909973
		c0.0529785-0.0439987,0.1040039-0.0910034,0.1519775-0.1389999c0.0969849-0.0970001,0.184021-0.2040024,0.2609863-0.3180008
		c0.2310181-0.3430023,0.3649902-0.7570038,0.3649902-1.2030029c0-0.4449997-0.1339722-0.8590012-0.3649902-1.2030029
		c-0.0599976-0.0859985-0.125-0.1679993-0.1959839-0.2450027c-0.0679932-0.0759964-0.1400146-0.1480026-0.2180176-0.211998
		c-0.1060181-0.0879974-0.2199707-0.1660004-0.3410034-0.2320023c-0.3029785-0.1650009-0.6500244-0.2590027-1.0200195-0.2590027
		h-26.9180298c-0.3699951,0-0.71698,0.0930023-1.0200195,0.2590027c-0.1209717,0.0660019-0.2349854,0.1449966-0.3410034,0.2320023
		C525.6099854,47.0199966,525.5139771,47.1179962,525.4249878,47.2229996z"/>
	<path class="st0" d="M505.2890015,48.5920029c0,1.189003,0.9570007,2.151001,2.1390076,2.151001h0.4639893h4.8409729
		c1.1829834,0,2.1389771-0.961998,2.1389771-2.151001c0-0.1220016-0.0120239-0.2429962-0.0319824-0.3600006
		c-0.0040283-0.0240021-0.0059814-0.0490036-0.0109863-0.072998c-0.0700073-0.348999-0.2260132-0.6679993-0.4429932-0.9329987
		c0-0.0009995-0.0009766-0.0009995-0.0009766-0.0019989c-0.0289917-0.0350037-0.0609741-0.0680008-0.09198-0.1019974
		c-0.0150146-0.0159988-0.0300293-0.0350037-0.0460205-0.0510025c-0.0310059-0.0309982-0.0640259-0.0599976-0.0969849-0.0889969
		c-0.0180054-0.0159988-0.0349731-0.0339966-0.0540161-0.0500031c-0.0230103-0.0189972-0.0479736-0.0360031-0.0720215-0.0540009
		c-0.0319824-0.0240021-0.0609741-0.0490036-0.0930176-0.0699997c-0.0079956-0.0049973-0.0170288-0.0100021-0.0250244-0.0149994
		c-0.0490112-0.0329971-0.098999-0.0650024-0.151001-0.0930023c-0.0050049-0.0019989-0.0089722-0.0049973-0.0139771-0.0070038
		c-0.117981-0.0619965-0.2410278-0.1149979-0.3699951-0.1559982c-0.0280151-0.0090027-0.0570068-0.0139999-0.085022-0.0220032
		c-0.039978-0.0110016-0.0789795-0.0230026-0.1199951-0.0309982c-0.0239868-0.0049973-0.0490112-0.0070038-0.072998-0.0110016
		c-0.1170044-0.0189972-0.2360229-0.0319977-0.3590088-0.0319977h-4.8410034h-0.4639893
		C506.2479858,46.4410019,505.2909851,47.4039993,505.2890015,48.5920029z"/>
	<path class="st0" d="M459.1900024,48.5920029c0,1.189003,0.9570007,2.151001,2.1390076,2.151001h4.8410034
		c1.1820068,0,2.1390076-0.961998,2.1390076-2.151001s-0.9570007-2.151001-2.1390076-2.151001H461.32901
		C460.1470032,46.4410019,459.1900024,47.4039993,459.1900024,48.5920029z"/>
	<path class="st0" d="M424.7000122,48.7220001c0,1.189003,0.9570007,2.151001,2.1390076,2.151001h21.1879883
		c1.1820068,0,2.1390076-0.961998,2.1390076-2.151001s-0.9570007-2.151001-2.1390076-2.151001h-0.6289978
		c-0.2269897-0.0820007-0.4700012-0.1289978-0.7250061-0.1289978h-14.3169861c-0.2550049,0-0.4979858,0.0469971-0.7250061,0.1289978
		h-4.7929993C425.6560059,46.5709991,424.7000122,47.5329971,424.7000122,48.7220001z"/>
	<path class="st0" d="M385.1029968,48.7210007c0,1.189003,0.9570007,2.151001,2.1390076,2.151001h26.9179993
		c0.6579895,0,1.2460022-0.2990036,1.6380005-0.7679977c0.0159912-0.0179977,0.0289917-0.038002,0.0440063-0.0559998
		c0.2850037-0.3649979,0.4570007-0.8249969,0.4570007-1.3270035c0-1.189003-0.9570007-2.151001-2.1390076-2.151001h-26.9179993
		c-0.1470032,0-0.2909851,0.0159988-0.4309998,0.0439987C385.8359985,46.8150024,385.1040039,47.6809998,385.1029968,48.7210007z"/>
	<path class="st0" d="M338.7449951,48.7220001c0,1.189003,0.9570007,2.151001,2.1390076,2.151001h14.3169861
		c1.1830139,0,2.1390076-0.961998,2.1390076-2.151001s-0.9570007-2.151001-2.1390076-2.151001h-14.3169861
		C339.7019958,46.5709991,338.7460022,47.5319977,338.7449951,48.7220001z"/>
	<path class="st0" d="M365.4559937,48.7220001c0,1.189003,0.9570007,2.151001,2.1390076,2.151001h0.4639893h4.8410034
		c1.1830139,0,2.1390076-0.961998,2.1390076-2.151001c0-0.1220016-0.0119934-0.2429962-0.0320129-0.3600006
		c-0.0050049-0.0240021-0.0069885-0.0490036-0.0119934-0.072998c-0.0700073-0.348999-0.2260132-0.6679993-0.4429932-0.9329987
		c-0.0010071-0.0009995-0.0010071-0.0009995-0.0020142-0.0019989c-0.0289917-0.0360031-0.0610046-0.0680008-0.0920105-0.1019974
		c-0.0150146-0.0159988-0.0299988-0.0350037-0.04599-0.0510025c-0.0310059-0.0309982-0.0639954-0.0599976-0.0969849-0.0889969
		c-0.0180054-0.0159988-0.0350037-0.0339966-0.0539856-0.0500031c-0.0230103-0.0189972-0.0480042-0.0360031-0.071991-0.0540009
		c-0.0310059-0.0240021-0.0610046-0.0490036-0.0929871-0.0699997c-0.0079956-0.0049973-0.0169983-0.0100021-0.0249939-0.0149994
		c-0.0490112-0.0329971-0.098999-0.0650024-0.151001-0.0930023c-0.0050049-0.0019989-0.0090027-0.0049973-0.0140076-0.0070038
		c-0.1180115-0.0630035-0.2409973-0.1149979-0.3699951-0.1559982c-0.0270081-0.0090027-0.0570068-0.0139999-0.0849915-0.0220032
		c-0.0400085-0.0110016-0.07901-0.0230026-0.1199951-0.0309982c-0.0239868-0.0049973-0.0490112-0.0070038-0.072998-0.0110016
		c-0.1159973-0.0189972-0.2349854-0.0319977-0.3580017-0.0319977h-4.8410034h-0.4639893
		C366.4129944,46.5709991,365.4570007,47.5329971,365.4559937,48.7220001z"/>
	<path class="st0" d="M319.355011,48.7220001c0,1.189003,0.9570007,2.151001,2.1390076,2.151001h4.8410034
		c1.1820068,0,2.1390076-0.961998,2.1390076-2.151001s-0.9570007-2.151001-2.1390076-2.151001h-4.8410034
		C320.3120117,46.5709991,319.3559875,47.5319977,319.355011,48.7220001z"/>
	<path class="st0" d="M284.8659973,48.8509979c0,1.189003,0.9570007,2.151001,2.1390076,2.151001h21.1879883
		c1.1820068,0,2.1390076-0.961998,2.1390076-2.151001s-0.9570007-2.151001-2.1390076-2.151001h-0.6289978
		c-0.2269897-0.0820007-0.4700012-0.1289978-0.7250061-0.1289978h-14.3169861c-0.2550049,0-0.4979858,0.0469971-0.7250061,0.1289978
		h-4.7929993C285.821991,46.6999969,284.8649902,47.6620026,284.8659973,48.8509979z"/>
	<path class="st0" d="M198.9109955,48.8509979c0,1.189003,0.9570007,2.151001,2.1389923,2.151001h14.3170013
		c1.1829987,0,2.1389923-0.961998,2.1389923-2.151001s-0.9570007-2.151001-2.1390076-2.151001h-14.3169708
		C199.8679962,46.6999969,198.9120026,47.6620026,198.9109955,48.8509979z"/>
	<path class="st0" d="M245.7590027,47.4810028c-0.3049927,0.3720016-0.4880066,0.848999-0.4880066,1.3690033
		c0,1.189003,0.9570007,2.151001,2.1390076,2.151001h26.9179993c0.5159912,0,0.9899902-0.1839981,1.3599854-0.4909973
		c0.053009-0.0439987,0.1040039-0.0910034,0.1520081-0.1389999c0.0969849-0.0970001,0.1839905-0.2040024,0.2609863-0.3180008
		c0.2309875-0.3430023,0.3649902-0.7570038,0.3649902-1.2030029s-0.1340027-0.8590012-0.3649902-1.2030029
		c-0.0599976-0.0859985-0.125-0.1679993-0.1960144-0.2450027c-0.0679932-0.0759964-0.1400146-0.1480026-0.2179871-0.211998
		c-0.1059875-0.0879974-0.2200012-0.1660004-0.3410034-0.2320023c-0.303009-0.1650009-0.6499939-0.2590027-1.019989-0.2590027
		h-26.9179993c-0.3699951,0-0.7169952,0.0930023-1.0200043,0.2590027c-0.1210022,0.0660019-0.2350006,0.1449966-0.3410034,0.2320023
		C245.9420013,47.2789993,245.8439941,47.3759995,245.7590027,47.4810028z"/>
	<path class="st0" d="M225.621994,48.8519974c0,1.189003,0.9570007,2.151001,2.1389923,2.151001h0.4640045h4.8410034
		c1.1820068,0,2.1380005-0.961998,2.1380005-2.151001c0-0.1220016-0.0119934-0.2429962-0.0319977-0.3600006
		c-0.0039978-0.0240021-0.0059967-0.0490036-0.0110016-0.072998c-0.0700073-0.348999-0.2259979-0.6679993-0.4429932-0.9329987
		c-0.0010071-0.0009995-0.0010071-0.0009995-0.0019989-0.0019989c-0.029007-0.0350037-0.0610046-0.0680008-0.0919952-0.1019974
		c-0.0149994-0.0159988-0.0299988-0.0350037-0.0460052-0.0510025c-0.0310059-0.0309982-0.0639954-0.0599976-0.0970001-0.0889969
		c-0.0180054-0.0159988-0.0350037-0.0339966-0.0540009-0.0500031c-0.022995-0.0189972-0.0480042-0.0360031-0.0720062-0.0540009
		c-0.0310059-0.0240021-0.0610046-0.0490036-0.0930023-0.0699997c-0.0079956-0.0049973-0.0169983-0.0100021-0.0249939-0.0149994
		c-0.048996-0.0329971-0.098999-0.0650024-0.151001-0.0930023c-0.0050049-0.0019989-0.0090027-0.0049973-0.0140076-0.0070038
		c-0.1179962-0.0619965-0.2409973-0.1149979-0.3699951-0.1559982c-0.0269928-0.0090027-0.0570068-0.0139999-0.0850067-0.0220032
		c-0.0399933-0.0110016-0.0789948-0.0230026-0.1199951-0.0309982c-0.0240021-0.0059967-0.048996-0.0080032-0.072998-0.012001
		c-0.1159973-0.0189972-0.2350006-0.0319977-0.3580017-0.0319977h-4.8410034h-0.4640045
		C226.5789948,46.6999969,225.621994,47.6620026,225.621994,48.8519974z"/>
	<path class="st0" d="M179.5200043,48.8509979c0,1.189003,0.9570007,2.151001,2.1389923,2.151001H186.5
		c1.1820068,0,2.1390076-0.961998,2.1390076-2.151001s-0.9570007-2.151001-2.1390076-2.151001h-4.8410034
		C180.4779968,46.6999969,179.5209961,47.6620026,179.5200043,48.8509979z"/>
	<path class="st0" d="M145.0310059,48.9800034c0,1.189003,0.9570007,2.151001,2.1390076,2.151001h21.1880035
		c1.1809998,0,2.1380005-0.961998,2.1380005-2.151001s-0.9559937-2.151001-2.1380005-2.151001h-0.6289978
		c-0.227005-0.0820007-0.4700012-0.1289978-0.7250061-0.1289978h-14.3170013c-0.2550049,0-0.4989929,0.0469971-0.7250061,0.1289978
		h-4.7929993C145.9880066,46.8290024,145.0310059,47.7919998,145.0310059,48.9800034z"/>
	<path class="st0" d="M105.4020004,66.8669968V92.125c0,1.189003,0.9570007,2.151001,2.1389999,2.151001
		s2.1389999-0.961998,2.1389999-2.151001V66.8669968c0-1.189003-0.9570007-2.151001-2.1389999-2.151001
		S105.4029999,65.677002,105.4020004,66.8669968z"/>
	<path class="st0" d="M105.4020004,49.0630035v4.8690033v0.4660034c0,1.189003,0.9570007,2.151001,2.1389999,2.151001
		c1.1829987,0,2.1389999-0.961998,2.1389999-2.151001v-0.4660034v-2.8010025h24.8120041
		c1.1820068,0,2.1380005-0.961998,2.1380005-2.151001s-0.9559937-2.151001-2.1380005-2.151001h-26.9179993
		c-0.9300003,0-1.7129974,0.598999-2.0070038,1.4319992c-0.0220032,0.0550003-0.0490036,0.1050034-0.0670013,0.1620026
		c-0.0090027,0.0279999-0.0139999,0.0579987-0.0220032,0.0859985c-0.0110016,0.0390015-0.0230026,0.0790024-0.0309982,0.1200027
		c-0.0059967,0.0240021-0.0080032,0.0479965-0.012001,0.072998
		C105.4150009,48.8199997,105.4029999,48.9400024,105.4020004,49.0630035z"/>
	<path class="st0" d="M105.4020004,102.4049988v4.8690033c0,1.1889954,0.9570007,2.151001,2.1389999,2.151001
		s2.1389999-0.9620056,2.1389999-2.151001v-4.8690033c0-1.1889954-0.9570007-2.151001-2.1389999-2.151001
		S105.4029999,101.2160034,105.4020004,102.4049988z"/>
	<path class="st0" d="M105.5309982,114.7879944c-0.0820007,0.227005-0.1289978,0.4730072-0.1289978,0.7290039v14.4020081
		c0,0.2559967,0.0479965,0.5010071,0.1289978,0.7290039v4.8209991c0,1.1889954,0.9560013,2.151001,2.1380005,2.151001
		c1.1829987,0,2.1389999-0.9620056,2.1389999-2.151001V114.155014c0-1.1889954-0.9570007-2.151001-2.1389999-2.151001
		c-1.1809998,0-2.1380005,0.9620056-2.1380005,2.151001V114.7879944z"/>
</g>
</svg>
