<?xml version="1.0" encoding="utf-8"?>
<!-- Generator: Adobe Illustrator 22.0.1, SVG Export Plug-In . SVG Version: 6.00 Build 0)  -->
<svg version="1.1" id="Layer_1" xmlns="http://www.w3.org/2000/svg" xmlns:xlink="http://www.w3.org/1999/xlink" x="0px" y="0px"
	 viewBox="0 0 50 30" style="enable-background:new 0 0 50 30;" xml:space="preserve">
<g>
	<g>
		<path d="M0,16.95V9.671h2.345c0.643,0,1.222,0.146,1.735,0.438c0.514,0.292,0.915,0.703,1.203,1.234
			c0.288,0.532,0.433,1.127,0.437,1.787v0.335c0,0.667-0.141,1.265-0.422,1.792c-0.283,0.528-0.679,0.942-1.19,1.24
			c-0.512,0.298-1.082,0.449-1.713,0.452C2.395,16.95,0,16.95,0,16.95z M1.754,11.026V15.6h0.61c0.504,0,0.89-0.179,1.161-0.537
			c0.269-0.359,0.404-0.89,0.404-1.597v-0.315c0-0.704-0.135-1.233-0.404-1.59c-0.27-0.356-0.664-0.535-1.181-0.535
			C2.344,11.026,1.754,11.026,1.754,11.026z"/>
		<path d="M7.977,16.95h-1.75V9.671h1.75V16.95z"/>
		<path d="M11.389,14.375h-0.951v2.575H8.683V9.671h2.864c0.862,0,1.538,0.191,2.025,0.574c0.486,0.383,0.729,0.924,0.729,1.623
			c0,0.506-0.103,0.926-0.307,1.259c-0.204,0.333-0.525,0.602-0.962,0.809l1.519,2.939v0.075h-1.88L11.389,14.375z M10.439,13.026
			h1.11c0.333,0,0.584-0.088,0.753-0.264c0.168-0.175,0.252-0.42,0.252-0.734s-0.086-0.561-0.255-0.74
			c-0.17-0.179-0.42-0.268-0.75-0.268h-1.11V13.026L10.439,13.026L10.439,13.026z"/>
		<path d="M19.367,13.86h-2.76v1.74h3.26v1.349h-5.014V9.67h5.025v1.355h-3.27v1.535h2.76L19.367,13.86L19.367,13.86L19.367,13.86z"
			/>
		<path d="M25.959,14.486c-0.023,0.506-0.16,0.954-0.41,1.342c-0.25,0.389-0.601,0.689-1.052,0.903
			c-0.451,0.213-0.967,0.319-1.547,0.319c-0.957,0-1.71-0.312-2.26-0.935s-0.824-1.504-0.824-2.64v-0.36
			c0-0.713,0.124-1.337,0.372-1.872s0.605-0.948,1.074-1.24c0.466-0.292,1.007-0.437,1.62-0.437c0.884,0,1.593,0.232,2.13,0.697
			c0.536,0.465,0.841,1.106,0.915,1.923h-1.749c-0.013-0.443-0.125-0.762-0.335-0.955s-0.531-0.289-0.961-0.289
			c-0.437,0-0.757,0.163-0.961,0.49c-0.202,0.326-0.309,0.848-0.319,1.565v0.515c0,0.776,0.097,1.332,0.293,1.664
			c0.195,0.333,0.531,0.5,1.008,0.5c0.402,0,0.712-0.095,0.925-0.285s0.326-0.492,0.34-0.905h1.744l0,0H25.959z"/>
		<path d="M31.846,11.026h-2.185v5.924h-1.755v-5.924h-2.145V9.671h6.085V11.026z"/>
	</g>
	<g>
		<path d="M5.379,24.999H4.761V21.52H0.612v3.479H0v-7.257h0.613v3.26h4.148v-3.26h0.618C5.379,17.742,5.379,24.999,5.379,24.999z"
			/>
		<path d="M10.72,21.521H7.325v2.96h3.903V25H6.711v-7.257h4.491v0.519H7.325v2.741h3.395C10.72,21.004,10.72,21.521,10.72,21.521z"
			/>
		<path d="M12.627,24.482h3.585V25h-4.203v-7.257h0.618V24.482z"/>
		<path d="M17.489,22.044V25h-0.613v-7.257h2.472c0.754,0,1.351,0.193,1.787,0.579c0.437,0.384,0.655,0.915,0.655,1.59
			c0,0.681-0.21,1.206-0.63,1.578c-0.42,0.37-1.03,0.555-1.826,0.555H17.49v-0.001H17.489z M17.489,21.526h1.86
			c0.595,0,1.049-0.142,1.361-0.426c0.312-0.283,0.469-0.676,0.469-1.183c0-0.502-0.156-0.901-0.466-1.2
			c-0.311-0.297-0.753-0.45-1.324-0.456H17.49v3.264h-0.001V21.526z"/>
	</g>
	<g>
		<g>
			<path d="M32.84,22.571c-0.133-0.16-0.229-0.302-0.289-0.428c-0.059-0.125-0.089-0.249-0.089-0.373
				c0-0.232,0.069-0.417,0.208-0.552s0.324-0.203,0.556-0.203c0.212,0,0.383,0.061,0.514,0.184c0.131,0.122,0.197,0.278,0.197,0.466
				c0,0.22-0.127,0.435-0.38,0.646l-0.364,0.283l0.912,1.063c0.139-0.223,0.209-0.477,0.209-0.761h0.252
				c0,0.378-0.096,0.697-0.292,0.957l0.455,0.528H34.4l-0.288-0.333c-0.12,0.118-0.258,0.212-0.417,0.279
				c-0.156,0.067-0.323,0.101-0.498,0.101c-0.316,0-0.567-0.08-0.753-0.244c-0.184-0.162-0.278-0.378-0.278-0.649
				c0-0.161,0.047-0.314,0.142-0.458c0.095-0.143,0.263-0.305,0.5-0.485L32.84,22.571z M33.196,24.199
				c0.139,0,0.273-0.029,0.402-0.088c0.131-0.058,0.248-0.142,0.351-0.249l-0.929-1.077l-0.03-0.035l-0.105,0.08
				c-0.298,0.244-0.448,0.479-0.448,0.707c0,0.199,0.068,0.36,0.206,0.48C32.778,24.139,32.963,24.199,33.196,24.199z
				 M32.735,21.762c0,0.185,0.103,0.406,0.307,0.658l0.299-0.228c0.097-0.07,0.178-0.147,0.24-0.23
				c0.063-0.084,0.093-0.182,0.093-0.295c0-0.118-0.04-0.218-0.123-0.297s-0.192-0.12-0.328-0.12c-0.15,0-0.268,0.047-0.356,0.143
				C32.779,21.488,32.735,21.612,32.735,21.762z"/>
			<path d="M38.338,22.903c0,0.306-0.053,0.574-0.16,0.805c-0.105,0.231-0.256,0.409-0.452,0.534
				c-0.197,0.125-0.423,0.188-0.679,0.188c-0.388,0-0.702-0.139-0.941-0.417s-0.357-0.652-0.357-1.124v-0.343
				c0-0.303,0.054-0.571,0.161-0.804c0.107-0.233,0.258-0.413,0.455-0.54c0.197-0.125,0.422-0.188,0.678-0.188
				s0.481,0.061,0.676,0.184c0.197,0.123,0.347,0.297,0.454,0.523c0.107,0.225,0.162,0.486,0.166,0.782
				C38.338,22.504,38.338,22.903,38.338,22.903z M38.057,22.542c0-0.4-0.089-0.714-0.271-0.939s-0.429-0.34-0.744-0.34
				c-0.308,0-0.554,0.114-0.738,0.341c-0.183,0.228-0.275,0.545-0.275,0.953v0.347c0,0.394,0.09,0.706,0.274,0.936
				c0.183,0.23,0.43,0.346,0.744,0.346c0.318,0,0.566-0.114,0.744-0.342c0.178-0.227,0.266-0.544,0.266-0.951L38.057,22.542
				L38.057,22.542L38.057,22.542z"/>
			<path d="M41.286,24.383h-0.282l-1.909-2.843v2.843h-0.283v-3.322h0.283l1.912,2.845v-2.845h0.279L41.286,24.383L41.286,24.383z"
				/>
			<path d="M43.776,23.567c0-0.184-0.065-0.33-0.193-0.437c-0.13-0.107-0.366-0.209-0.71-0.306
				c-0.344-0.096-0.595-0.202-0.753-0.316c-0.226-0.161-0.337-0.373-0.337-0.635c0-0.254,0.104-0.46,0.314-0.62
				c0.209-0.159,0.476-0.238,0.802-0.238c0.22,0,0.418,0.042,0.592,0.128c0.174,0.085,0.311,0.203,0.406,0.356
				c0.096,0.152,0.144,0.322,0.144,0.508h-0.283c0-0.227-0.077-0.41-0.232-0.548c-0.156-0.139-0.364-0.207-0.626-0.207
				c-0.255,0-0.456,0.057-0.607,0.17c-0.151,0.114-0.227,0.261-0.227,0.445c0,0.17,0.068,0.307,0.203,0.414
				c0.135,0.106,0.352,0.201,0.65,0.283c0.298,0.082,0.524,0.166,0.678,0.254c0.153,0.087,0.269,0.191,0.346,0.314
				c0.078,0.122,0.116,0.265,0.116,0.431c0,0.261-0.104,0.471-0.314,0.63c-0.209,0.159-0.485,0.237-0.827,0.237
				c-0.233,0-0.449-0.041-0.645-0.125c-0.195-0.084-0.344-0.201-0.446-0.352c-0.101-0.15-0.151-0.323-0.151-0.518h0.279
				c0,0.235,0.088,0.42,0.263,0.554c0.174,0.135,0.409,0.203,0.698,0.203c0.259,0,0.466-0.057,0.623-0.171
				C43.698,23.906,43.776,23.756,43.776,23.567z"/>
			<path d="M44.773,24.383h-0.28v-3.322h0.28V24.383z"/>
			<path d="M47.628,21.299H46.49v3.085h-0.28v-3.085h-1.136v-0.237h2.555v0.237H47.628z"/>
			<path d="M49.767,22.792h-1.554v1.355H50v0.237h-2.067v-3.322h2.057v0.237h-1.776v1.256h1.554L49.767,22.792L49.767,22.792
				L49.767,22.792z"/>
		</g>
		<g>
			<path d="M33.579,18.714h-0.965v1.385h-0.283v-3.322h1.08c0.354,0,0.631,0.086,0.831,0.258c0.199,0.171,0.299,0.412,0.299,0.721
				c0,0.212-0.063,0.4-0.188,0.563s-0.292,0.275-0.502,0.337l0.831,1.414v0.03h-0.299L33.579,18.714z M32.614,18.477h0.861
				c0.236,0,0.424-0.067,0.567-0.202c0.142-0.134,0.214-0.307,0.214-0.521c0-0.235-0.075-0.417-0.223-0.546
				c-0.15-0.13-0.359-0.194-0.628-0.194h-0.792L32.614,18.477L32.614,18.477z"/>
			<path d="M36.905,18.507h-1.554v1.355h1.786v0.237H35.07v-3.322h2.057v0.237h-1.775v1.256h1.554L36.905,18.507L36.905,18.507
				L36.905,18.507z"/>
			<path d="M37.868,16.777l1.225,2.932l1.229-2.932h0.374v3.322h-0.279v-1.447l0.022-1.483l-1.238,2.93h-0.217l-1.232-2.919
				l0.023,1.463v1.456h-0.282v-3.322C37.495,16.777,37.868,16.777,37.868,16.777z"/>
			<path d="M43.761,18.619c0,0.306-0.053,0.574-0.159,0.805c-0.105,0.231-0.257,0.409-0.452,0.534
				c-0.197,0.125-0.423,0.188-0.68,0.188c-0.388,0-0.7-0.139-0.939-0.417s-0.359-0.652-0.359-1.124v-0.343
				c0-0.303,0.054-0.571,0.161-0.804c0.107-0.233,0.258-0.413,0.455-0.54c0.197-0.125,0.422-0.188,0.678-0.188
				s0.481,0.061,0.676,0.184s0.346,0.297,0.452,0.523c0.107,0.225,0.163,0.486,0.166,0.782v0.399h0.001V18.619z M43.481,18.258
				c0-0.4-0.09-0.714-0.271-0.939c-0.181-0.227-0.429-0.34-0.744-0.34c-0.308,0-0.555,0.114-0.74,0.341
				c-0.183,0.228-0.275,0.545-0.275,0.953v0.347c0,0.394,0.092,0.706,0.275,0.936c0.182,0.23,0.43,0.346,0.743,0.346
				c0.318,0,0.566-0.114,0.744-0.342c0.178-0.227,0.267-0.544,0.267-0.951v-0.352L43.481,18.258L43.481,18.258z"/>
			<path d="M46.429,17.015H45.29V20.1h-0.28v-3.085h-1.136v-0.237h2.556C46.429,16.778,46.429,17.015,46.429,17.015z"/>
			<path d="M48.566,18.507h-1.554v1.355h1.786v0.237h-2.067v-3.322h2.057v0.237h-1.775v1.256h1.554L48.566,18.507L48.566,18.507
				L48.566,18.507z"/>
		</g>
	</g>
	<polygon points="26.985,24.999 26.714,24.999 32.418,12.817 32.688,12.817 	"/>
</g>
</svg>
