<?xml version="1.0" encoding="utf-8"?>
<!-- Generator: Adobe Illustrator 22.0.1, SVG Export Plug-In . SVG Version: 6.00 Build 0)  -->
<svg version="1.1" id="Layer_1" xmlns="http://www.w3.org/2000/svg" xmlns:xlink="http://www.w3.org/1999/xlink" x="0px" y="0px"
	 viewBox="0 0 50 30" style="enable-background:new 0 0 50 30;" xml:space="preserve">
<g>
	<path d="M3.676,15.675h1.609c1.274,0,1.912-0.624,1.912-1.872c0-0.486-0.152-0.882-0.456-1.189c-0.303-0.307-0.732-0.46-1.285-0.46
		c-0.451,0-0.845,0.131-1.178,0.395c-0.334,0.263-0.5,0.59-0.5,0.981h-3.41c0-0.776,0.216-1.467,0.647-2.074s1.03-1.08,1.797-1.421
		c0.765-0.341,1.607-0.511,2.524-0.511c1.639,0,2.928,0.374,3.865,1.123c0.937,0.749,1.406,1.778,1.406,3.086
		c0,0.634-0.194,1.233-0.582,1.797c-0.388,0.563-0.953,1.021-1.694,1.371c0.783,0.283,1.396,0.713,1.841,1.29
		c0.445,0.577,0.667,1.29,0.667,2.141c0,1.315-0.506,2.367-1.518,3.156c-1.011,0.789-2.341,1.184-3.986,1.184
		c-0.964,0-1.86-0.185-2.686-0.552c-0.827-0.367-1.452-0.877-1.877-1.528c-0.425-0.651-0.638-1.391-0.638-2.221h3.43
		c0,0.453,0.182,0.844,0.546,1.174s0.812,0.496,1.345,0.496c0.601,0,1.079-0.167,1.437-0.5c0.358-0.334,0.536-0.76,0.536-1.279
		c0-0.742-0.186-1.269-0.556-1.579C6.503,18.375,5.99,18.22,5.336,18.22h-1.66V15.675z"/>
</g>
<g>
	<path d="M13.721,22.524h-0.577V21.52H12.29v1.004h-0.58v-2.405h0.58v0.955h0.854v-0.955h0.577V22.524z"/>
	<path d="M15.955,21.371c0,0.234-0.044,0.442-0.13,0.622c-0.087,0.181-0.211,0.32-0.371,0.418c-0.161,0.097-0.343,0.146-0.547,0.146
		s-0.387-0.047-0.545-0.141c-0.158-0.095-0.283-0.229-0.371-0.405c-0.089-0.175-0.136-0.375-0.14-0.603v-0.136
		c0-0.236,0.043-0.443,0.129-0.624c0.087-0.179,0.211-0.319,0.372-0.417c0.162-0.099,0.345-0.147,0.552-0.147
		c0.203,0,0.385,0.049,0.545,0.145c0.16,0.097,0.284,0.235,0.372,0.414c0.089,0.179,0.133,0.385,0.135,0.615L15.955,21.371
		L15.955,21.371z M15.365,21.27c0-0.239-0.04-0.42-0.12-0.544s-0.194-0.187-0.343-0.187c-0.291,0-0.444,0.218-0.461,0.654
		l-0.002,0.177c0,0.236,0.04,0.417,0.118,0.543c0.078,0.127,0.194,0.191,0.348,0.191c0.146,0,0.26-0.063,0.339-0.187
		c0.079-0.124,0.12-0.303,0.121-0.536C15.365,21.381,15.365,21.27,15.365,21.27z"/>
	<path d="M17.971,20.119v1.574c0,0.178-0.038,0.333-0.114,0.463s-0.185,0.229-0.326,0.298c-0.142,0.069-0.311,0.102-0.504,0.102
		c-0.293,0-0.523-0.076-0.692-0.228c-0.169-0.151-0.254-0.36-0.258-0.624v-1.586h0.583v1.597c0.006,0.263,0.129,0.395,0.367,0.395
		c0.12,0,0.211-0.033,0.272-0.1c0.062-0.066,0.093-0.173,0.093-0.321v-1.571C17.392,20.119,17.971,20.119,17.971,20.119z"/>
	<path d="M19.057,21.674h-0.314v0.851h-0.58V20.12h0.947c0.285,0,0.508,0.064,0.669,0.19c0.161,0.127,0.241,0.306,0.241,0.536
		c0,0.167-0.033,0.306-0.102,0.416c-0.068,0.109-0.173,0.198-0.318,0.267l0.502,0.972v0.025h-0.62L19.057,21.674z M18.743,21.227
		h0.367c0.109,0,0.193-0.029,0.248-0.087c0.055-0.058,0.083-0.14,0.083-0.243s-0.028-0.186-0.084-0.244
		c-0.056-0.059-0.139-0.089-0.247-0.089h-0.367C18.743,20.565,18.743,21.227,18.743,21.227z"/>
	<path d="M21.442,21.885c0-0.084-0.029-0.151-0.09-0.198c-0.06-0.048-0.166-0.096-0.316-0.147c-0.151-0.05-0.274-0.1-0.37-0.147
		c-0.312-0.153-0.467-0.363-0.467-0.631c0-0.133,0.039-0.251,0.117-0.352c0.077-0.102,0.188-0.181,0.329-0.238
		c0.142-0.057,0.301-0.084,0.479-0.084c0.173,0,0.328,0.03,0.465,0.093s0.244,0.15,0.32,0.264s0.114,0.244,0.114,0.391h-0.579
		c0-0.098-0.029-0.174-0.09-0.228c-0.06-0.053-0.142-0.08-0.244-0.08c-0.103,0-0.185,0.023-0.245,0.069
		c-0.06,0.046-0.091,0.104-0.091,0.175c0,0.062,0.033,0.118,0.099,0.167c0.066,0.05,0.182,0.102,0.348,0.155
		c0.167,0.053,0.302,0.111,0.41,0.172c0.26,0.15,0.39,0.357,0.39,0.619c0,0.211-0.079,0.375-0.238,0.496
		c-0.158,0.12-0.376,0.179-0.652,0.179c-0.195,0-0.371-0.034-0.53-0.104c-0.157-0.07-0.277-0.166-0.357-0.288s-0.12-0.262-0.12-0.42
		h0.581c0,0.128,0.033,0.223,0.1,0.285c0.067,0.06,0.175,0.092,0.324,0.092c0.096,0,0.171-0.021,0.227-0.062
		C21.415,22.022,21.442,21.96,21.442,21.885z"/>
</g>
<g>
	<path d="M28.234,23.528c0-0.178-0.063-0.32-0.188-0.425c-0.127-0.104-0.356-0.202-0.69-0.296c-0.335-0.094-0.579-0.196-0.732-0.309
		c-0.219-0.156-0.328-0.362-0.328-0.616c0-0.247,0.101-0.448,0.304-0.603c0.203-0.154,0.464-0.231,0.78-0.231
		c0.214,0,0.406,0.042,0.576,0.124c0.17,0.083,0.3,0.198,0.394,0.346s0.14,0.313,0.14,0.495h-0.275c0-0.222-0.076-0.398-0.226-0.533
		c-0.151-0.135-0.355-0.201-0.608-0.201c-0.247,0-0.444,0.054-0.59,0.165c-0.147,0.111-0.221,0.255-0.221,0.433
		c0,0.165,0.066,0.299,0.198,0.402c0.131,0.103,0.343,0.194,0.633,0.273c0.29,0.079,0.509,0.162,0.659,0.247
		c0.148,0.084,0.261,0.187,0.336,0.304c0.076,0.119,0.114,0.258,0.114,0.418c0,0.255-0.102,0.459-0.304,0.613
		c-0.203,0.153-0.471,0.23-0.804,0.23c-0.227,0-0.437-0.042-0.627-0.122c-0.191-0.081-0.334-0.195-0.433-0.342
		c-0.099-0.146-0.147-0.314-0.147-0.504h0.273c0,0.227,0.085,0.407,0.255,0.539c0.17,0.131,0.396,0.198,0.679,0.198
		c0.251,0,0.454-0.056,0.606-0.167C28.158,23.859,28.234,23.711,28.234,23.528z"/>
	<path d="M31.094,21.093v2.205c-0.001,0.218-0.049,0.407-0.143,0.568c-0.096,0.161-0.229,0.285-0.4,0.371
		c-0.173,0.088-0.371,0.13-0.593,0.13c-0.341,0-0.613-0.093-0.818-0.278c-0.205-0.187-0.311-0.442-0.319-0.772v-2.225h0.271v2.185
		c0,0.272,0.078,0.483,0.234,0.633c0.155,0.15,0.366,0.226,0.633,0.226c0.265,0,0.477-0.076,0.631-0.226
		c0.154-0.151,0.23-0.361,0.23-0.631v-2.186L31.094,21.093L31.094,21.093L31.094,21.093z"/>
	<path d="M31.902,23.007v1.315h-0.273v-3.23h1.101c0.336,0,0.601,0.086,0.796,0.258c0.194,0.171,0.292,0.407,0.292,0.708
		c0,0.303-0.094,0.537-0.282,0.702c-0.187,0.165-0.458,0.248-0.812,0.248C32.724,23.007,31.902,23.007,31.902,23.007z
		 M31.902,22.776h0.827c0.265,0,0.466-0.063,0.606-0.189s0.209-0.301,0.209-0.527c0-0.223-0.069-0.401-0.207-0.535
		c-0.139-0.131-0.335-0.2-0.588-0.202h-0.846L31.902,22.776L31.902,22.776z"/>
	<path d="M34.472,23.007v1.315h-0.273v-3.23H35.3c0.336,0,0.6,0.086,0.796,0.258c0.194,0.171,0.292,0.407,0.292,0.708
		c0,0.303-0.093,0.537-0.28,0.702c-0.187,0.165-0.458,0.248-0.812,0.248C35.295,23.007,34.472,23.007,34.472,23.007z M34.472,22.776
		H35.3c0.265,0,0.466-0.063,0.605-0.189c0.14-0.126,0.21-0.301,0.21-0.527c0-0.223-0.069-0.401-0.207-0.535
		c-0.139-0.131-0.335-0.2-0.589-0.202h-0.846L34.472,22.776L34.472,22.776z"/>
	<path d="M39.156,22.882c0,0.298-0.051,0.559-0.153,0.783c-0.103,0.225-0.25,0.398-0.441,0.519
		c-0.191,0.121-0.411,0.182-0.662,0.182c-0.376,0-0.681-0.136-0.913-0.406c-0.233-0.269-0.349-0.634-0.349-1.093v-0.333
		c0-0.293,0.053-0.555,0.156-0.781c0.104-0.227,0.252-0.402,0.443-0.524s0.411-0.182,0.659-0.182s0.467,0.059,0.658,0.179
		c0.19,0.12,0.336,0.289,0.44,0.508s0.158,0.473,0.162,0.761v0.386l0,0V22.882z M38.884,22.533c0-0.389-0.089-0.693-0.265-0.913
		c-0.175-0.221-0.417-0.332-0.723-0.332c-0.3,0-0.54,0.111-0.718,0.332c-0.178,0.222-0.267,0.53-0.267,0.926v0.337
		c0,0.384,0.089,0.687,0.266,0.911c0.177,0.224,0.418,0.336,0.723,0.336c0.31,0,0.551-0.111,0.724-0.332s0.261-0.529,0.261-0.924
		v-0.341H38.884z"/>
	<path d="M40.823,22.976h-0.937v1.346H39.61v-3.23h1.05c0.344,0,0.613,0.083,0.807,0.25c0.193,0.167,0.29,0.4,0.29,0.701
		c0,0.206-0.06,0.389-0.181,0.547c-0.122,0.158-0.285,0.267-0.489,0.328l0.808,1.375v0.029h-0.292L40.823,22.976z M39.886,22.745
		h0.836c0.229,0,0.413-0.066,0.553-0.196c0.139-0.13,0.207-0.299,0.207-0.506c0-0.229-0.073-0.406-0.218-0.532
		s-0.347-0.189-0.61-0.189h-0.769L39.886,22.745L39.886,22.745L39.886,22.745z"/>
	<path d="M44.288,21.323h-1.106v2.999h-0.273v-2.999h-1.104v-0.23h2.484C44.288,21.093,44.288,21.323,44.288,21.323z"/>
</g>
<g>
	<path d="M29.264,17.158h-1.107v3h-0.273v-3h-1.105v-0.23h2.485V17.158L29.264,17.158z"/>
	<path d="M31.342,18.609h-1.511v1.318h1.736v0.23h-2.009v-3.23h1.999v0.23h-1.726v1.221h1.511
		C31.342,18.379,31.342,18.609,31.342,18.609z"/>
	<path d="M34.202,19.15c-0.038,0.341-0.158,0.602-0.365,0.781c-0.206,0.181-0.481,0.271-0.824,0.271c-0.24,0-0.451-0.06-0.635-0.179
		c-0.185-0.12-0.327-0.289-0.427-0.509c-0.1-0.22-0.151-0.47-0.153-0.754v-0.419c0-0.287,0.05-0.541,0.151-0.763
		c0.101-0.222,0.245-0.393,0.434-0.514c0.19-0.12,0.407-0.18,0.652-0.18c0.346,0,0.618,0.094,0.82,0.279
		c0.2,0.187,0.316,0.444,0.349,0.774h-0.275c-0.068-0.548-0.366-0.823-0.894-0.823c-0.293,0-0.527,0.109-0.7,0.328
		c-0.175,0.219-0.261,0.522-0.261,0.908v0.395c0,0.372,0.084,0.669,0.254,0.891c0.169,0.222,0.397,0.334,0.686,0.334
		c0.285,0,0.5-0.069,0.645-0.205c0.145-0.137,0.235-0.343,0.269-0.616h0.273v0.001H34.202z"/>
	<path d="M37.033,20.158h-0.275V18.61h-1.847v1.548h-0.272v-3.23h0.272v1.451h1.847v-1.451h0.275V20.158z"/>
	<path d="M40.031,20.158h-0.273l-1.856-2.764v2.764h-0.275v-3.23h0.275l1.859,2.766v-2.766h0.27
		C40.031,16.928,40.031,20.158,40.031,20.158z"/>
	<path d="M40.958,20.158h-0.273v-3.23h0.273V20.158z"/>
	<path d="M43.894,19.15c-0.036,0.341-0.158,0.602-0.364,0.781c-0.206,0.181-0.481,0.271-0.824,0.271
		c-0.241,0-0.451-0.06-0.636-0.179c-0.185-0.12-0.326-0.289-0.426-0.509c-0.1-0.22-0.151-0.47-0.153-0.754v-0.419
		c0-0.287,0.049-0.541,0.151-0.763c0.1-0.222,0.245-0.393,0.434-0.514c0.189-0.12,0.407-0.18,0.652-0.18
		c0.346,0,0.618,0.094,0.818,0.279c0.201,0.187,0.317,0.444,0.349,0.774H43.62c-0.068-0.548-0.366-0.823-0.894-0.823
		c-0.293,0-0.527,0.109-0.701,0.328s-0.261,0.522-0.261,0.908v0.395c0,0.372,0.084,0.669,0.253,0.891
		c0.17,0.222,0.398,0.334,0.687,0.334c0.285,0,0.5-0.069,0.645-0.205c0.144-0.137,0.235-0.343,0.268-0.616h0.275v0.001H43.894z"/>
	<path d="M46.074,19.25h-1.467l-0.333,0.907H43.99l1.222-3.23h0.26l1.223,3.23H46.41L46.074,19.25z M44.692,19.02h1.296
		l-0.649-1.759L44.692,19.02z"/>
	<path d="M47.216,19.927h1.595v0.23H46.94v-3.23h0.275L47.216,19.927L47.216,19.927z"/>
</g>
<polygon points="21.786,25 21.51,25 27.332,12.562 27.608,12.562 "/>
</svg>
