<?xml version="1.0" encoding="utf-8"?>
<!-- Generator: Adobe Illustrator 22.0.1, SVG Export Plug-In . SVG Version: 6.00 Build 0)  -->
<svg version="1.1" id="Layer_1" xmlns="http://www.w3.org/2000/svg" xmlns:xlink="http://www.w3.org/1999/xlink" x="0px" y="0px"
	 viewBox="0 0 50 30" style="enable-background:new 0 0 50 30;" xml:space="preserve">
<g>
	<g>
		<path d="M6.233,12.608c-0.024,0.518-0.163,0.975-0.419,1.373c-0.255,0.396-0.614,0.704-1.076,0.922s-0.988,0.328-1.582,0.328
			c-0.978,0-1.747-0.319-2.31-0.955c-0.563-0.638-0.844-1.537-0.844-2.698v-0.371c0-0.728,0.127-1.367,0.381-1.913
			c0.254-0.547,0.619-0.97,1.097-1.268c0.478-0.299,1.029-0.448,1.656-0.448c0.903,0,1.629,0.238,2.178,0.714
			c0.548,0.475,0.86,1.13,0.935,1.965h-1.79C4.446,9.804,4.331,9.479,4.117,9.282C3.903,9.085,3.575,8.985,3.135,8.985
			c-0.446,0-0.773,0.167-0.982,0.501c-0.207,0.334-0.317,0.867-0.327,1.6v0.526c0,0.795,0.099,1.361,0.299,1.703
			c0.2,0.341,0.543,0.511,1.03,0.511c0.413,0,0.727-0.097,0.945-0.291c0.217-0.193,0.334-0.502,0.347-0.924h1.784v-0.003H6.233z"/>
		<path d="M12.859,11.56c0,0.726-0.135,1.368-0.404,1.927s-0.652,0.99-1.147,1.291s-1.06,0.452-1.694,0.452
			s-1.196-0.146-1.687-0.438c-0.491-0.291-0.874-0.707-1.147-1.25C6.505,13,6.362,12.378,6.349,11.677v-0.418
			c0-0.729,0.133-1.372,0.402-1.931c0.267-0.557,0.651-0.986,1.151-1.29c0.5-0.303,1.068-0.456,1.704-0.456
			c0.631,0,1.192,0.15,1.687,0.45c0.494,0.299,0.878,0.726,1.153,1.28s0.414,1.188,0.417,1.904v0.343L12.859,11.56L12.859,11.56z
			 M11.036,11.247c0-0.739-0.124-1.301-0.371-1.685c-0.247-0.384-0.6-0.575-1.061-0.575c-0.899,0-1.375,0.674-1.426,2.024
			L8.173,11.56c0,0.729,0.12,1.29,0.363,1.682c0.242,0.393,0.601,0.588,1.079,0.588c0.453,0,0.802-0.192,1.048-0.578
			c0.245-0.385,0.37-0.939,0.373-1.66V11.247z"/>
		<path d="M15.618,7.685l1.661,5.178l1.656-5.178h2.362v7.442h-1.799V13.39l0.173-3.558l-1.799,5.295h-1.186l-1.805-5.301
			l0.174,3.562v1.737h-1.794V7.683h2.356v0.002H15.618z"/>
		<path d="M23.707,12.602v2.525h-1.794V7.685h2.97c0.569,0,1.072,0.105,1.509,0.314c0.438,0.211,0.778,0.509,1.017,0.896
			c0.24,0.386,0.362,0.824,0.362,1.316c0,0.725-0.26,1.305-0.78,1.74c-0.52,0.435-1.232,0.651-2.14,0.651
			C24.851,12.602,23.707,12.602,23.707,12.602z M23.707,11.218h1.176c0.346,0,0.611-0.087,0.795-0.261
			c0.182-0.173,0.272-0.418,0.272-0.736c0-0.347-0.093-0.624-0.281-0.833c-0.189-0.207-0.442-0.313-0.768-0.317h-1.195
			C23.707,9.071,23.707,11.218,23.707,11.218z"/>
		<path d="M29.997,13.748h3.123v1.38h-4.917V7.686h1.794V13.748z"/>
		<path d="M37.969,11.969h-2.822v1.779h3.333v1.38h-5.127V7.686h5.136V9.07h-3.343v1.57h2.822v1.328h0.001V11.969z"/>
		<path d="M44.63,9.07h-2.233v6.057h-1.795V9.07H38.41V7.686h6.22C44.63,7.685,44.63,9.07,44.63,9.07z"/>
		<path d="M49.479,11.969h-2.822v1.779h3.333v1.38h-5.126V7.686H50V9.07h-3.343v1.57h2.822V11.969z"/>
	</g>
	<g>
		<path d="M2.426,19.814H1.73l-1.028-1.806v1.806h-0.7v-2.901h0.699l1.026,1.806v-1.806h0.698v2.901H2.426z"/>
		<path d="M4.463,18.583H3.362v0.694h1.3v0.538H2.664v-2.901h2.002v0.541H3.362v0.612h1.1L4.463,18.583
			C4.462,18.583,4.463,18.583,4.463,18.583z"/>
		<path d="M7.06,17.453H6.19v2.362h-0.7v-2.362H4.635v-0.541H7.06C7.06,16.912,7.06,17.453,7.06,17.453z"/>
		<path d="M9.43,18.732l0.332-1.819h0.694L9.84,19.814H9.114L8.726,18.16l-0.381,1.655H7.622l-0.618-2.901H7.7l0.333,1.819
			l0.398-1.819h0.593L9.43,18.732z"/>
		<path d="M12.982,18.423c0,0.284-0.053,0.534-0.158,0.751s-0.254,0.386-0.448,0.503c-0.193,0.117-0.414,0.177-0.661,0.177
			c-0.247,0-0.467-0.057-0.657-0.17c-0.191-0.114-0.341-0.277-0.447-0.488c-0.107-0.212-0.163-0.454-0.169-0.728v-0.163
			c0-0.285,0.052-0.535,0.157-0.752c0.104-0.216,0.254-0.385,0.448-0.503c0.195-0.118,0.417-0.178,0.665-0.178
			c0.246,0,0.466,0.06,0.657,0.175c0.193,0.117,0.342,0.284,0.449,0.5c0.107,0.215,0.161,0.463,0.163,0.742L12.982,18.423
			L12.982,18.423z M12.27,18.302c0-0.289-0.049-0.507-0.145-0.656c-0.096-0.149-0.234-0.224-0.414-0.224
			c-0.351,0-0.536,0.264-0.556,0.789l-0.002,0.214c0,0.285,0.047,0.503,0.141,0.655c0.094,0.153,0.235,0.229,0.42,0.229
			c0.178,0,0.313-0.075,0.408-0.225c0.096-0.15,0.145-0.366,0.146-0.648v-0.135h0.002V18.302z"/>
		<path d="M14.217,18.788h-0.379v1.026h-0.699v-2.901h1.142c0.344,0,0.613,0.076,0.808,0.229c0.194,0.152,0.291,0.367,0.291,0.646
			c0,0.202-0.041,0.368-0.122,0.501c-0.082,0.133-0.21,0.24-0.384,0.322l0.606,1.173v0.03h-0.749L14.217,18.788z M13.838,18.25
			h0.442c0.133,0,0.233-0.035,0.3-0.105s0.1-0.168,0.1-0.292c0-0.125-0.034-0.223-0.101-0.295c-0.067-0.071-0.168-0.107-0.299-0.107
			h-0.442C13.838,17.451,13.838,18.25,13.838,18.25z"/>
		<path d="M16.584,18.734l-0.287,0.315v0.766h-0.699v-2.901h0.699v1.279l0.243-0.367l0.625-0.911h0.865l-0.981,1.283l0.981,1.618
			h-0.828L16.584,18.734z"/>
		<path d="M19.262,19.814h-0.245v-2.901h0.245V19.814z"/>
		<path d="M22.006,19.814h-0.245l-1.668-2.483v2.483h-0.247v-2.901h0.247l1.67,2.485v-2.485h0.243V19.814z"/>
		<path d="M24.138,18.458h-1.354v1.357h-0.245v-2.901h1.798v0.207h-1.552v1.13h1.354L24.138,18.458
			C24.139,18.458,24.138,18.458,24.138,18.458z"/>
		<path d="M25.714,18.605h-0.843v1.209h-0.247v-2.901h0.943c0.31,0,0.55,0.075,0.725,0.225c0.174,0.15,0.261,0.36,0.261,0.629
			c0,0.186-0.054,0.35-0.163,0.492c-0.11,0.141-0.256,0.24-0.439,0.295l0.725,1.234v0.026h-0.261L25.714,18.605z M24.871,18.398
			h0.751c0.206,0,0.371-0.06,0.495-0.177c0.125-0.116,0.188-0.268,0.188-0.454c0-0.205-0.064-0.364-0.194-0.477
			c-0.131-0.114-0.313-0.17-0.548-0.17h-0.692C24.871,17.121,24.871,18.398,24.871,18.398z"/>
		<path d="M28.585,18.999h-1.317l-0.299,0.815h-0.257l1.098-2.901h0.234l1.099,2.901h-0.256L28.585,18.999z M27.343,18.793h1.164
			l-0.581-1.581L27.343,18.793z"/>
		<path d="M31.004,19.101c0-0.161-0.056-0.288-0.169-0.382c-0.114-0.094-0.319-0.183-0.62-0.267c-0.3-0.084-0.52-0.175-0.657-0.276
			c-0.196-0.14-0.295-0.325-0.295-0.554c0-0.222,0.09-0.402,0.274-0.542c0.183-0.139,0.417-0.208,0.699-0.208
			c0.193,0,0.366,0.038,0.518,0.113s0.269,0.178,0.353,0.311c0.085,0.133,0.126,0.281,0.126,0.443h-0.247
			c0-0.197-0.067-0.357-0.203-0.478c-0.136-0.12-0.317-0.182-0.546-0.182c-0.221,0-0.398,0.05-0.53,0.149s-0.197,0.228-0.197,0.388
			c0,0.148,0.06,0.268,0.178,0.362c0.118,0.093,0.308,0.175,0.568,0.246c0.261,0.072,0.458,0.146,0.592,0.222
			c0.135,0.076,0.236,0.167,0.303,0.274s0.101,0.232,0.101,0.376c0,0.229-0.09,0.413-0.274,0.55
			c-0.183,0.138-0.424,0.207-0.723,0.207c-0.204,0-0.393-0.038-0.563-0.11c-0.171-0.073-0.3-0.175-0.389-0.307
			c-0.088-0.132-0.132-0.282-0.132-0.452h0.245c0,0.204,0.076,0.366,0.229,0.484c0.152,0.118,0.355,0.178,0.609,0.178
			c0.226,0,0.408-0.05,0.545-0.15C30.937,19.399,31.004,19.266,31.004,19.101z"/>
		<path d="M33.544,17.121H32.55v2.695h-0.245v-2.695h-0.993v-0.207h2.232V17.121z"/>
		<path d="M34.892,18.605H34.05v1.209h-0.247v-2.901h0.943c0.31,0,0.55,0.075,0.725,0.225c0.174,0.15,0.261,0.36,0.261,0.629
			c0,0.186-0.054,0.35-0.163,0.492c-0.11,0.141-0.256,0.24-0.439,0.295l0.725,1.234v0.026h-0.261L34.892,18.605z M34.05,18.398
			h0.751c0.206,0,0.371-0.06,0.495-0.177c0.125-0.116,0.188-0.268,0.188-0.454c0-0.205-0.064-0.364-0.194-0.477
			c-0.131-0.114-0.313-0.17-0.548-0.17H34.05V18.398z"/>
		<path d="M38.194,16.913v1.981c-0.002,0.195-0.044,0.366-0.13,0.511c-0.085,0.145-0.205,0.256-0.36,0.333
			c-0.154,0.078-0.333,0.117-0.533,0.117c-0.306,0-0.55-0.084-0.735-0.25c-0.184-0.167-0.279-0.397-0.287-0.693v-1.999h0.243v1.962
			c0,0.244,0.069,0.435,0.21,0.569c0.139,0.136,0.329,0.203,0.569,0.203c0.239,0,0.428-0.067,0.567-0.204
			c0.139-0.136,0.208-0.323,0.208-0.566v-1.965h0.248V16.913z"/>
		<path d="M40.728,18.91c-0.034,0.306-0.142,0.539-0.329,0.702c-0.185,0.162-0.431,0.243-0.74,0.243
			c-0.215,0-0.406-0.054-0.57-0.162c-0.165-0.108-0.293-0.26-0.384-0.458c-0.089-0.196-0.137-0.423-0.138-0.676v-0.376
			c0-0.258,0.045-0.486,0.136-0.686c0.09-0.199,0.22-0.352,0.391-0.461c0.169-0.108,0.364-0.163,0.585-0.163
			c0.311,0,0.556,0.085,0.737,0.252c0.18,0.167,0.285,0.399,0.314,0.696h-0.247c-0.062-0.493-0.329-0.74-0.803-0.74
			c-0.264,0-0.472,0.099-0.629,0.296c-0.156,0.196-0.234,0.469-0.234,0.815v0.355c0,0.335,0.076,0.602,0.228,0.802
			c0.151,0.199,0.357,0.299,0.617,0.299c0.257,0,0.449-0.062,0.58-0.185c0.13-0.122,0.211-0.307,0.24-0.553L40.728,18.91
			C40.728,18.91,40.728,18.91,40.728,18.91z"/>
		<path d="M43.03,17.121h-0.994v2.695h-0.245v-2.695h-0.993v-0.207h2.232C43.03,16.913,43.03,17.121,43.03,17.121z"/>
		<path d="M45.295,16.913v1.981c-0.002,0.195-0.044,0.366-0.13,0.511c-0.085,0.145-0.205,0.256-0.36,0.333
			c-0.154,0.078-0.333,0.117-0.533,0.117c-0.306,0-0.55-0.084-0.735-0.25c-0.184-0.167-0.279-0.397-0.287-0.693v-1.999h0.243v1.962
			c0,0.244,0.069,0.435,0.21,0.569c0.139,0.136,0.329,0.203,0.569,0.203c0.239,0,0.428-0.067,0.567-0.204
			c0.139-0.136,0.208-0.323,0.208-0.566v-1.965h0.248V16.913z"/>
		<path d="M46.857,18.605h-0.843v1.209h-0.247v-2.901h0.943c0.31,0,0.55,0.075,0.725,0.225c0.174,0.15,0.261,0.36,0.261,0.629
			c0,0.186-0.054,0.35-0.163,0.492c-0.11,0.141-0.256,0.24-0.439,0.295l0.725,1.234v0.026h-0.261L46.857,18.605z M46.014,18.398
			h0.751c0.206,0,0.371-0.06,0.495-0.177c0.125-0.116,0.188-0.268,0.188-0.454c0-0.205-0.064-0.364-0.194-0.477
			c-0.131-0.114-0.313-0.17-0.548-0.17h-0.692C46.014,17.12,46.014,18.398,46.014,18.398z"/>
		<path d="M49.763,18.423h-1.357v1.184h1.56v0.207H48.16v-2.901h1.795v0.207h-1.55v1.097h1.357v0.206
			C49.762,18.423,49.763,18.423,49.763,18.423z"/>
	</g>
	<g>
		<path d="M2.217,23.808c0-0.194-0.068-0.347-0.204-0.461c-0.137-0.114-0.386-0.221-0.749-0.322
			c-0.363-0.103-0.628-0.214-0.795-0.334c-0.237-0.17-0.356-0.394-0.356-0.67c0-0.268,0.11-0.486,0.331-0.654
			s0.503-0.252,0.846-0.252c0.233,0,0.441,0.045,0.625,0.135c0.184,0.089,0.327,0.215,0.428,0.376
			c0.101,0.16,0.152,0.34,0.152,0.537H2.196c0-0.239-0.082-0.432-0.246-0.578s-0.384-0.218-0.66-0.218
			c-0.268,0-0.482,0.06-0.641,0.18s-0.238,0.276-0.238,0.469c0,0.178,0.072,0.324,0.214,0.437s0.372,0.212,0.686,0.298
			s0.554,0.175,0.715,0.267c0.162,0.093,0.285,0.203,0.366,0.331c0.082,0.128,0.122,0.28,0.122,0.456
			c0,0.276-0.11,0.498-0.331,0.664c-0.221,0.167-0.512,0.25-0.874,0.25c-0.247,0-0.474-0.044-0.681-0.132
			c-0.206-0.088-0.363-0.212-0.47-0.372C0.053,24.055,0,23.873,0,23.668h0.296c0,0.247,0.093,0.442,0.277,0.585
			c0.185,0.143,0.43,0.214,0.737,0.214c0.274,0,0.492-0.06,0.657-0.181C2.135,24.166,2.217,24.007,2.217,23.808z"/>
		<path d="M5.5,23.107c0,0.322-0.056,0.607-0.168,0.851s-0.27,0.432-0.478,0.564s-0.446,0.197-0.718,0.197
			c-0.409,0-0.74-0.147-0.993-0.44c-0.252-0.292-0.378-0.688-0.378-1.186v-0.362c0-0.319,0.056-0.602,0.17-0.849
			s0.274-0.436,0.481-0.568s0.446-0.199,0.715-0.199s0.507,0.065,0.714,0.195c0.206,0.13,0.366,0.314,0.478,0.552
			c0.113,0.238,0.171,0.513,0.175,0.826v0.419H5.5z M5.204,22.726c0-0.423-0.095-0.752-0.287-0.993
			c-0.191-0.239-0.453-0.359-0.785-0.359c-0.325,0-0.586,0.12-0.779,0.361c-0.193,0.239-0.29,0.576-0.29,1.005v0.366
			c0,0.416,0.096,0.746,0.289,0.988c0.193,0.244,0.454,0.365,0.785,0.365c0.335,0,0.598-0.12,0.785-0.361
			c0.188-0.239,0.281-0.574,0.281-1.003C5.204,23.096,5.204,22.726,5.204,22.726z"/>
		<path d="M6.298,24.419H8.03v0.25H6v-3.507h0.298V24.419z"/>
		<path d="M10.638,21.162v2.394c-0.001,0.236-0.054,0.442-0.157,0.618c-0.103,0.175-0.248,0.309-0.435,0.403
			c-0.188,0.095-0.402,0.141-0.644,0.141c-0.37,0-0.665-0.1-0.888-0.302s-0.338-0.481-0.345-0.837v-2.416h0.295v2.373
			c0,0.296,0.084,0.524,0.253,0.687c0.169,0.163,0.398,0.245,0.686,0.245s0.517-0.082,0.685-0.245
			c0.168-0.164,0.252-0.392,0.252-0.684v-2.375h0.299v-0.002H10.638z"/>
		<path d="M13.597,21.414h-1.201v3.256h-0.297v-3.256H10.9v-0.25h2.697V21.414z"/>
		<path d="M14.278,24.67h-0.297v-3.507h0.297V24.67z"/>
		<path d="M17.574,23.107c0,0.322-0.056,0.607-0.168,0.851c-0.111,0.244-0.27,0.432-0.478,0.564
			c-0.207,0.131-0.446,0.197-0.718,0.197c-0.409,0-0.74-0.147-0.993-0.44c-0.252-0.292-0.378-0.688-0.378-1.186v-0.362
			c0-0.319,0.056-0.602,0.17-0.849s0.274-0.436,0.481-0.568s0.446-0.199,0.715-0.199s0.507,0.065,0.714,0.195
			c0.206,0.13,0.366,0.314,0.478,0.552c0.113,0.238,0.171,0.513,0.175,0.826v0.419H17.574z M17.277,22.726
			c0-0.423-0.095-0.752-0.287-0.993c-0.191-0.239-0.453-0.359-0.785-0.359c-0.325,0-0.586,0.12-0.779,0.361
			c-0.193,0.239-0.29,0.576-0.29,1.005v0.366c0,0.416,0.096,0.746,0.289,0.988c0.193,0.244,0.454,0.365,0.785,0.365
			c0.335,0,0.598-0.12,0.785-0.361c0.188-0.239,0.281-0.574,0.281-1.003C17.277,23.096,17.277,22.726,17.277,22.726z"/>
		<path d="M20.685,24.67h-0.297l-2.017-3.001v3.001h-0.298v-3.507h0.298l2.02,3.004v-3.004h0.293
			C20.685,21.164,20.685,24.67,20.685,24.67z"/>
	</g>
</g>
</svg>
