<?xml version="1.0" encoding="utf-8"?>
<!-- Generator: Adobe Illustrator 22.0.1, SVG Export Plug-In . SVG Version: 6.00 Build 0)  -->
<svg version="1.1" id="Layer_1" xmlns="http://www.w3.org/2000/svg" xmlns:xlink="http://www.w3.org/1999/xlink" x="0px" y="0px"
	 viewBox="0 0 1600 800" style="enable-background:new 0 0 1600 800;" xml:space="preserve">
<style type="text/css">
	.st0{fill:#FFFFFF;}
	.st1{opacity:0.66;}
	.st2{fill:#726BB3;}
</style>
<path class="st0" d="M1600,885.066H0V0h1600V885.066z M277.62,386.903h-35.039v-19.488h41.514v-17.202H220.3v92.422h63.667v-17.139
	H242.58v-22.09h35.039L277.62,386.903L277.62,386.903z M313.852,442.635v-53.828h13.394v-14.854h-13.394v-5.269
	c0-5.586,3.237-8.379,9.712-8.379c2.2,0,3.957,0.19,5.269,0.571l-0.064-15.741c-3.64-0.889-6.982-1.333-10.029-1.333
	c-8.337,0-14.812,2.158-19.424,6.475c-4.613,4.316-6.919,10.389-6.919,18.218v5.459h-9.966v14.854h9.966v53.827H313.852z
	 M357.702,442.635v-53.828h13.394v-14.854h-13.394v-5.269c0-5.586,3.237-8.379,9.712-8.379c2.2,0,3.957,0.19,5.269,0.571
	l-0.064-15.741c-3.64-0.889-6.982-1.333-10.029-1.333c-8.337,0-14.812,2.158-19.424,6.475c-4.613,4.316-6.919,10.389-6.919,18.218
	v5.459h-9.966v14.854h9.966v53.827H357.702z M422.848,440.635c4.888-2.179,8.665-5.11,11.331-8.792l-9.775-11.553
	c-3.809,4.74-9.099,7.109-15.869,7.109c-4.105,0-7.449-1.1-10.029-3.301c-2.582-2.2-4.253-5.226-5.015-9.077h42.529v-8.315
	c0-10.706-2.793-19.053-8.379-25.042c-5.586-5.988-13.203-8.982-22.852-8.982c-6.855,0-12.781,1.471-17.773,4.412
	c-4.994,2.942-8.792,7.1-11.394,12.473c-2.603,5.375-3.904,11.575-3.904,18.599v1.777c0,10.072,3.258,18.25,9.775,24.534
	c6.516,6.284,15.044,9.426,25.581,9.426C412.701,443.905,417.96,442.815,422.848,440.635z M412.469,392.012
	c1.819,1.883,2.687,4.539,2.603,7.966v1.65H393.49c1.184-8.293,4.909-12.441,11.172-12.441
	C408.047,389.188,410.649,390.13,412.469,392.012z M462.54,423.402c-1.65-2.666-2.476-7.448-2.476-14.346
	c0-3.936,0.148-7.024,0.444-9.268c0.93-7.067,4.167-10.601,9.712-10.601c2.92,0,5.247,0.952,6.982,2.856s2.603,4.634,2.603,8.188
	h20.059c0-8.463-2.625-15.171-7.871-20.122c-5.248-4.951-12.336-7.427-21.265-7.427c-6.602,0-12.314,1.428-17.139,4.285
	s-8.517,6.941-11.077,12.251c-2.561,5.311-3.84,11.437-3.84,18.376v0.889c0,11.087,2.877,19.763,8.633,26.025
	c5.754,6.263,13.625,9.395,23.613,9.395c8.506,0,15.457-2.412,20.852-7.236s8.093-11.002,8.093-18.535h-20.059
	c0.042,2.92-0.762,5.195-2.412,6.824s-3.978,2.444-6.982,2.444C466.813,427.401,464.19,426.068,462.54,423.402z M509.182,356.878
	v17.075h-8.76v14.854h8.76v34.087c0,7.068,1.755,12.336,5.269,15.806c3.512,3.47,8.95,5.205,16.313,5.205
	c4.189,0,8.209-0.614,12.061-1.841v-15.298c-1.439,0.254-3.216,0.381-5.332,0.381c-2.751,0-4.592-0.508-5.522-1.523
	c-0.931-1.016-1.396-2.814-1.396-5.396v-31.421h11.299v-14.854h-11.299v-17.075H509.182z M550.175,363.716
	c2.2,1.959,5.056,2.938,8.569,2.938c3.512,0,6.369-0.979,8.569-2.938c2.2-1.958,3.301-4.47,3.301-7.536
	c0-3.065-1.101-5.577-3.301-7.536c-2.201-1.958-5.057-2.938-8.569-2.938c-3.513,0-6.37,0.98-8.569,2.938
	c-2.201,1.958-3.301,4.471-3.301,7.536C546.875,359.246,547.975,361.758,550.175,363.716z M569.599,373.953h-21.455v68.682h21.455
	V373.953z M596.247,373.953h-22.598l22.407,68.682h21.836l22.407-68.682h-22.534l-10.854,43.228L596.247,373.953z M691.607,440.635
	c4.888-2.179,8.665-5.11,11.331-8.792l-9.775-11.553c-3.809,4.74-9.099,7.109-15.869,7.109c-4.105,0-7.449-1.1-10.029-3.301
	c-2.582-2.2-4.253-5.226-5.015-9.077h42.529v-8.315c0-10.706-2.793-19.053-8.379-25.042c-5.586-5.988-13.203-8.982-22.852-8.982
	c-6.855,0-12.781,1.471-17.773,4.412c-4.994,2.942-8.792,7.1-11.394,12.473c-2.603,5.375-3.904,11.575-3.904,18.599v1.777
	c0,10.072,3.258,18.25,9.775,24.534c6.516,6.284,15.044,9.426,25.581,9.426C681.461,443.905,686.72,442.815,691.607,440.635z
	 M681.229,392.012c1.819,1.883,2.687,4.539,2.603,7.966v1.65H662.25c1.184-8.293,4.909-12.441,11.172-12.441
	C676.807,389.188,679.409,390.13,681.229,392.012z M797.556,386.903h-35.039v-19.488h41.514v-17.202h-63.794v92.422h63.667v-17.139
	h-41.387v-22.09h35.039L797.556,386.903L797.556,386.903z M812.017,434.51c4.781,6.263,11.256,9.395,19.424,9.395
	c6.771,0,12.356-2.877,16.758-8.633l1.079,7.363h19.233v-97.5h-21.455v34.785c-4.189-4.824-9.353-7.236-15.488-7.236
	c-8.422,0-14.98,3.132-19.678,9.395c-4.697,6.263-7.046,14.833-7.046,25.708C804.844,419.339,807.234,428.248,812.017,434.51z
	 M826.299,405.184c0.55-10.664,4.126-15.996,10.728-15.996c4.739,0,8.082,2.031,10.029,6.094v26.152
	c-2.031,3.978-5.417,5.967-10.156,5.967c-7.109,0-10.664-6.094-10.664-18.281L826.299,405.184z M918.962,442.635h20.059v-68.682
	h-21.519v48.179c-2.074,3.513-5.565,5.269-10.474,5.269c-5.713,0-8.569-2.941-8.569-8.823v-44.624h-21.392v44.497
	c0,8.21,1.937,14.504,5.808,18.884c3.873,4.38,9.574,6.57,17.107,6.57c7.701,0,13.816-2.898,18.345-8.696L918.962,442.635z
	 M968.651,423.402c-1.65-2.666-2.476-7.448-2.476-14.346c0-3.936,0.147-7.024,0.444-9.268c0.931-7.067,4.168-10.601,9.712-10.601
	c2.92,0,5.247,0.952,6.982,2.856c1.734,1.904,2.603,4.634,2.603,8.188h20.059c0-8.463-2.624-15.171-7.871-20.122
	c-5.248-4.951-12.336-7.427-21.265-7.427c-6.602,0-12.314,1.428-17.139,4.285s-8.517,6.941-11.077,12.251
	c-2.561,5.311-3.84,11.437-3.84,18.376v0.889c0,11.087,2.877,19.763,8.633,26.025c5.755,6.263,13.626,9.395,23.613,9.395
	c8.506,0,15.457-2.412,20.852-7.236c5.396-4.824,8.094-11.002,8.094-18.535h-20.059c0.042,2.92-0.762,5.195-2.412,6.824
	c-1.65,1.629-3.979,2.444-6.982,2.444C972.925,427.401,970.302,426.068,968.651,423.402z M1071.852,442.635v-1.079
	c-1.862-3.342-2.836-8.167-2.92-14.473v-30.405c-0.127-7.448-2.729-13.308-7.808-17.583c-5.078-4.274-11.997-6.411-20.757-6.411
	s-15.964,2.072-21.614,6.214c-5.648,4.142-8.474,9.531-8.474,16.167h21.392c0-5.018,2.539-7.527,7.617-7.527
	c5.459,0,8.188,3.168,8.188,9.503v3.636h-6.602c-10.495,0-18.493,1.904-23.994,5.713c-5.502,3.809-8.252,9.437-8.252,16.885
	c0,5.925,2.264,10.845,6.792,14.758c4.527,3.915,10.029,5.872,16.504,5.872c7.066,0,12.568-2.476,16.504-7.427
	c0.592,2.708,1.27,4.761,2.031,6.157L1071.852,442.635L1071.852,442.635z M1032.052,426.861c-1.312-1.206-1.968-2.782-1.968-4.729
	c0-6.686,3.724-10.029,11.172-10.029h6.221v10.981c-0.762,1.439-2.021,2.729-3.776,3.872c-1.757,1.143-3.968,1.714-6.634,1.714
	C1035.035,428.67,1033.363,428.067,1032.052,426.861z M1081.043,356.878v17.075h-8.76v14.854h8.76v34.087
	c0,7.068,1.756,12.336,5.269,15.806c3.512,3.47,8.95,5.205,16.313,5.205c4.189,0,8.209-0.614,12.061-1.841v-15.298
	c-1.439,0.254-3.217,0.381-5.332,0.381c-2.751,0-4.592-0.508-5.522-1.523c-0.932-1.016-1.396-2.814-1.396-5.396v-31.421h11.299
	v-14.854h-11.299v-17.075H1081.043z M1122.036,363.716c2.2,1.959,5.057,2.938,8.569,2.938s6.368-0.979,8.569-2.938
	c2.2-1.958,3.301-4.47,3.301-7.536c0-3.065-1.101-5.577-3.301-7.536c-2.201-1.958-5.058-2.938-8.569-2.938
	c-3.513,0-6.369,0.98-8.569,2.938c-2.201,1.958-3.301,4.471-3.301,7.536C1118.735,359.246,1119.835,361.758,1122.036,363.716z
	 M1141.46,373.953h-21.455v68.682h21.455V373.953z M1148.747,411.278c0.465,10.029,3.66,17.975,9.585,23.835
	c5.924,5.862,13.774,8.792,23.55,8.792c10.156,0,18.207-3.142,24.153-9.426c5.944-6.284,8.918-14.779,8.918-25.486v-0.762
	c0-10.959-2.963-19.624-8.887-25.994c-5.925-6.369-14.028-9.553-24.312-9.553c-6.729,0-12.59,1.439-17.583,4.316
	c-4.994,2.878-8.823,6.993-11.489,12.346c-2.666,5.354-3.999,11.458-3.999,18.313L1148.747,411.278z M1170.139,405.12
	c0.592-10.622,4.464-15.933,11.616-15.933c7.871,0,11.807,6.157,11.807,18.472v2.158c-0.17,11.722-4.062,17.583-11.68,17.583
	c-3.894,0-6.835-1.481-8.823-4.443c-1.989-2.961-2.983-7.617-2.983-13.965L1170.139,405.12z M1220.717,373.953v68.682h21.392
	v-48.496c2.031-3.301,5.142-4.951,9.331-4.951c3.682,0,6.221,0.815,7.617,2.444s2.095,4.18,2.095,7.649v43.354h21.455v-44.243
	c-0.127-8.59-1.958-15.022-5.491-19.297c-3.533-4.274-8.876-6.411-16.027-6.411c-8.337,0-14.875,3.11-19.614,9.331l-0.698-8.062
	L1220.717,373.953L1220.717,373.953z M1351.275,442.635v-1.079c-1.862-3.342-2.836-8.167-2.92-14.473v-30.405
	c-0.127-7.448-2.729-13.308-7.808-17.583c-5.078-4.274-11.997-6.411-20.757-6.411s-15.964,2.072-21.614,6.214
	c-5.648,4.142-8.474,9.531-8.474,16.167h21.392c0-5.018,2.539-7.527,7.617-7.527c5.459,0,8.188,3.168,8.188,9.503v3.636h-6.602
	c-10.495,0-18.493,1.904-23.994,5.713c-5.502,3.809-8.252,9.437-8.252,16.885c0,5.925,2.264,10.845,6.792,14.758
	c4.527,3.915,10.029,5.872,16.504,5.872c7.066,0,12.568-2.476,16.504-7.427c0.592,2.708,1.27,4.761,2.031,6.157L1351.275,442.635
	L1351.275,442.635z M1311.476,426.861c-1.312-1.206-1.968-2.782-1.968-4.729c0-6.686,3.724-10.029,11.172-10.029h6.221v10.981
	c-0.762,1.439-2.021,2.729-3.776,3.872c-1.757,1.143-3.968,1.714-6.634,1.714C1314.459,428.67,1312.787,428.067,1311.476,426.861z
	 M1379.51,345.135h-21.455v97.5h21.455V345.135z M114.028,470.213h-22.28v92.422h61.064v-17.139h-38.784V470.213z M206.977,560.635
	c4.888-2.179,8.665-5.109,11.331-8.791l-9.775-11.553c-3.809,4.74-9.099,7.109-15.869,7.109c-4.105,0-7.449-1.1-10.029-3.301
	c-2.582-2.199-4.253-5.227-5.015-9.077h42.529v-8.315c0-10.705-2.793-19.053-8.379-25.041s-13.203-8.982-22.852-8.982
	c-6.855,0-12.781,1.471-17.773,4.412c-4.994,2.941-8.792,7.1-11.394,12.473c-2.603,5.375-3.904,11.574-3.904,18.599v1.777
	c0,10.071,3.258,18.249,9.775,24.534c6.516,6.283,15.044,9.426,25.581,9.426C196.83,563.905,202.089,562.815,206.977,560.635z
	 M196.598,512.012c1.819,1.884,2.687,4.539,2.603,7.967v1.65h-21.582c1.184-8.293,4.909-12.441,11.172-12.441
	C192.176,509.188,194.778,510.13,196.598,512.012z M285.58,562.635v-1.079c-1.863-3.343-2.835-8.167-2.92-14.473v-30.405
	c-0.127-7.447-2.729-13.309-7.808-17.583c-5.078-4.274-11.997-6.411-20.757-6.411s-15.964,2.072-21.614,6.214
	c-5.649,4.142-8.474,9.531-8.474,16.167h21.392c0-5.018,2.539-7.527,7.617-7.527c5.459,0,8.188,3.168,8.188,9.504v3.636h-6.602
	c-10.496,0-18.494,1.904-23.994,5.713c-5.501,3.809-8.252,9.437-8.252,16.885c0,5.925,2.263,10.845,6.792,14.759
	c4.528,3.914,10.029,5.871,16.504,5.871c7.067,0,12.568-2.476,16.504-7.427c0.592,2.708,1.27,4.761,2.031,6.157L285.58,562.635
	L285.58,562.635z M245.78,546.862c-1.312-1.207-1.968-2.783-1.968-4.729c0-6.687,3.723-10.029,11.172-10.029h6.221v10.981
	c-0.762,1.439-2.021,2.729-3.777,3.872c-1.756,1.143-3.967,1.714-6.633,1.714C248.763,548.67,247.091,548.067,245.78,546.862z
	 M295.723,554.51c4.782,6.264,11.256,9.395,19.424,9.395c6.77,0,12.356-2.877,16.758-8.633l1.079,7.363h19.233v-97.5h-21.455v34.785
	c-4.189-4.824-9.353-7.236-15.488-7.236c-8.421,0-14.98,3.133-19.678,9.395c-4.697,6.264-7.046,14.832-7.046,25.708
	C288.55,539.339,290.94,548.248,295.723,554.51z M310.005,525.184c0.549-10.664,4.126-15.996,10.728-15.996
	c4.739,0,8.083,2.031,10.029,6.094v26.152c-2.031,3.979-5.417,5.967-10.156,5.967c-7.109,0-10.664-6.094-10.664-18.281
	L310.005,525.184z M410.127,560.635c4.888-2.179,8.665-5.109,11.331-8.791l-9.775-11.553c-3.809,4.74-9.099,7.109-15.869,7.109
	c-4.105,0-7.449-1.1-10.029-3.301c-2.582-2.199-4.253-5.227-5.015-9.077h42.529v-8.315c0-10.705-2.793-19.053-8.379-25.041
	s-13.203-8.982-22.852-8.982c-6.855,0-12.781,1.471-17.773,4.412c-4.994,2.941-8.792,7.1-11.394,12.473
	c-2.603,5.375-3.904,11.574-3.904,18.599v1.777c0,10.071,3.258,18.249,9.775,24.534c6.516,6.283,15.044,9.426,25.581,9.426
	C399.98,563.905,405.239,562.815,410.127,560.635z M399.749,512.012c1.819,1.884,2.687,4.539,2.603,7.967v1.65H380.77
	c1.184-8.293,4.909-12.441,11.172-12.441C395.326,509.188,397.929,510.13,399.749,512.012z M470.576,493.446
	c-1.693-0.508-3.682-0.762-5.967-0.762c-6.433,0-11.448,3.364-15.044,10.093l-0.698-8.823h-20.059v68.681H450.2v-43.481
	c1.904-4.231,6.221-6.348,12.949-6.348l7.046,0.508L470.576,493.446z M508.427,547.972c-1.46,1.185-3.65,1.777-6.57,1.777
	c-3.174,0-5.776-0.729-7.808-2.19c-2.031-1.459-3.089-3.776-3.174-6.95H470.88c0,4.021,1.291,7.851,3.872,11.489
	c2.581,3.641,6.178,6.518,10.791,8.633c4.612,2.115,9.86,3.174,15.742,3.174c8.844,0,16.049-1.968,21.614-5.903
	c5.564-3.936,8.347-9.034,8.347-15.298c0-9.182-5.164-15.552-15.488-19.106c-3.089-1.058-6.676-1.968-10.759-2.729
	c-4.084-0.762-7.057-1.734-8.918-2.92c-1.863-1.184-2.793-2.729-2.793-4.634c0-1.862,0.762-3.417,2.285-4.665
	c1.523-1.248,3.406-1.873,5.649-1.873c5.797,0,8.696,2.752,8.696,8.252h21.455c0-6.686-2.751-12.082-8.252-16.187
	c-5.501-4.104-12.781-6.157-21.836-6.157c-8.421,0-15.234,2.042-20.439,6.125c-5.205,4.085-7.808,9.279-7.808,15.584
	c0,3.555,0.91,6.707,2.729,9.458c1.819,2.751,4.464,5.089,7.935,7.015c3.469,1.926,7.871,3.48,13.203,4.665s8.95,2.327,10.854,3.428
	s2.856,2.562,2.856,4.38C510.617,545.242,509.887,546.787,508.427,547.972z M558.91,465.135h-21.392v97.5h21.392v-49.258
	c1.819-2.793,4.929-4.189,9.331-4.189c3.555,0,6.072,0.857,7.554,2.57c1.481,1.715,2.222,4.391,2.222,8.03v42.847h21.455v-43.354
	c-0.085-8.76-2.053-15.382-5.903-19.868c-3.851-4.485-9.564-6.729-17.139-6.729c-7.109,0-12.949,2.879-17.52,8.633V465.135z
	 M611.265,483.716c2.2,1.959,5.056,2.938,8.569,2.938c3.512,0,6.369-0.979,8.569-2.938c2.2-1.958,3.301-4.47,3.301-7.536
	c0-3.065-1.101-5.577-3.301-7.536c-2.201-1.958-5.057-2.938-8.569-2.938c-3.513,0-6.37,0.98-8.569,2.938
	c-2.201,1.958-3.301,4.471-3.301,7.536C607.964,479.246,609.064,481.758,611.265,483.716z M630.689,493.953h-21.455v68.682h21.455
	V493.953z M704.373,527.786c0-10.918-2.349-19.497-7.046-25.739s-11.278-9.363-19.741-9.363c-6.687,0-12.083,2.539-16.187,7.617
	l-0.635-6.348h-19.995v95.088h21.392v-32.056c4.062,4.612,9.246,6.919,15.552,6.919c8.167,0,14.652-3.184,19.456-9.553
	c4.802-6.369,7.205-14.886,7.205-25.55L704.373,527.786L704.373,527.786z M682.981,529.754
	c-0.212,11.766-3.724,17.646-10.537,17.646c-4.994,0-8.421-1.904-10.283-5.713v-27.041c1.692-3.639,5.078-5.459,10.156-5.459
	c7.109,0,10.664,6.094,10.664,18.281V529.754z M753.224,514.075c-6.306,4.612-10.548,8.655-12.727,12.124
	c-2.18,3.471-3.269,7.342-3.269,11.616c0,7.829,2.75,14.146,8.252,18.948c5.5,4.803,12.822,7.204,21.963,7.204
	c4.655,0,8.833-0.508,12.537-1.523c3.703-1.016,7.332-2.581,10.886-4.697l4.316,4.888h23.867l-14.092-16.187
	c5.756-7.532,8.633-17.54,8.633-30.024h-17.963c0,5.545-1.165,10.643-3.491,15.298l-14.219-16.313l4.824-3.364
	c8.674-6.094,13.013-13.076,13.013-20.947c0-6.305-2.285-11.584-6.855-15.837s-10.347-6.379-17.329-6.379
	c-7.787,0-14.092,2.296-18.916,6.887c-4.824,4.592-7.236,10.611-7.236,18.059c0,3.428,0.708,6.75,2.126,9.966
	c1.417,3.216,3.374,6.602,5.872,10.156L753.224,514.075z M761.603,544.227c-1.947-2.158-2.92-4.781-2.92-7.871
	c0-3.723,1.206-7.066,3.618-10.029l0.571-0.381l16.631,18.916c-3.386,1.736-6.941,2.603-10.664,2.603
	C765.961,547.464,763.549,546.385,761.603,544.227z M765.919,487.637c1.354-1.501,3.215-2.253,5.586-2.253
	c1.989,0,3.66,0.72,5.015,2.158c1.354,1.439,2.031,3.132,2.031,5.078c0,2.074-0.444,3.788-1.333,5.142
	c-0.889,1.355-2.307,2.666-4.253,3.936l-4.253,2.666c-3.216-4.23-4.824-7.828-4.824-10.791
	C763.888,491.119,764.564,489.14,765.919,487.637z M898.592,544.766c-2.137,1.588-5.046,2.381-8.728,2.381
	c-5.756,0-9.913-1.174-12.474-3.523c-2.561-2.348-3.84-5.998-3.84-10.949h-22.344c0,6.094,1.533,11.479,4.602,16.154
	c3.068,4.677,7.639,8.358,13.711,11.045c6.072,2.688,12.854,4.031,20.345,4.031c10.621,0,18.979-2.307,25.073-6.919
	s9.141-10.96,9.141-19.043c0-10.114-4.994-18.048-14.98-23.804c-4.105-2.369-9.353-4.58-15.742-6.633
	c-6.391-2.053-10.854-4.041-13.394-5.967s-3.809-4.072-3.809-6.443c0-2.708,1.152-4.94,3.46-6.697
	c2.306-1.755,5.447-2.634,9.426-2.634c3.936,0,7.056,1.038,9.363,3.11c2.306,2.074,3.459,4.994,3.459,8.76h22.217
	c0-5.627-1.46-10.632-4.38-15.012s-7.015-7.754-12.282-10.125c-5.27-2.37-11.226-3.555-17.869-3.555
	c-6.813,0-12.949,1.09-18.408,3.269c-5.459,2.18-9.68,5.227-12.664,9.141c-2.982,3.915-4.475,8.433-4.475,13.552
	c0,10.283,5.987,18.366,17.964,24.248c3.682,1.819,8.421,3.704,14.219,5.649c5.797,1.947,9.849,3.83,12.155,5.649
	s3.46,4.358,3.46,7.617C901.798,540.947,900.729,543.18,898.592,544.766z M972.815,562.635h20.059v-68.682h-21.519v48.179
	c-2.074,3.513-5.565,5.269-10.474,5.269c-5.713,0-8.569-2.941-8.569-8.823v-44.624H930.92v44.497c0,8.21,1.937,14.505,5.808,18.884
	c3.873,4.381,9.574,6.57,17.107,6.57c7.701,0,13.816-2.898,18.345-8.696L972.815,562.635z M1065.098,527.786
	c0-10.918-2.349-19.497-7.046-25.739s-11.278-9.363-19.741-9.363c-6.687,0-12.082,2.539-16.187,7.617l-0.635-6.348h-19.995v95.088
	h21.392v-32.056c4.062,4.612,9.246,6.919,15.552,6.919c8.167,0,14.652-3.184,19.456-9.553c4.802-6.369,7.204-14.886,7.204-25.55
	V527.786z M1043.706,529.754c-0.212,11.766-3.725,17.646-10.537,17.646c-4.994,0-8.422-1.904-10.283-5.713v-27.041
	c1.692-3.639,5.078-5.459,10.156-5.459c7.109,0,10.664,6.094,10.664,18.281L1043.706,529.754L1043.706,529.754z M1120.277,560.635
	c4.889-2.179,8.665-5.109,11.331-8.791l-9.775-11.553c-3.809,4.74-9.099,7.109-15.869,7.109c-4.105,0-7.448-1.1-10.029-3.301
	c-2.582-2.199-4.253-5.227-5.015-9.077h42.529v-8.315c0-10.705-2.793-19.053-8.379-25.041s-13.203-8.982-22.852-8.982
	c-6.855,0-12.78,1.471-17.773,4.412c-4.994,2.941-8.791,7.1-11.395,12.473c-2.602,5.375-3.903,11.574-3.903,18.599v1.777
	c0,10.071,3.258,18.249,9.775,24.534c6.517,6.283,15.044,9.426,25.581,9.426C1110.132,563.905,1115.391,562.815,1120.277,560.635z
	 M1109.899,512.012c1.819,1.884,2.687,4.539,2.603,7.967v1.65h-21.582c1.185-8.293,4.908-12.441,11.172-12.441
	C1105.477,509.188,1108.079,510.13,1109.899,512.012z M1180.727,493.446c-1.693-0.508-3.682-0.762-5.967-0.762
	c-6.433,0-11.447,3.364-15.044,10.093l-0.698-8.823h-20.059v68.681h21.392v-43.481c1.904-4.231,6.221-6.348,12.949-6.348
	l7.046,0.508L1180.727,493.446z M1202.677,493.953h-22.598l22.407,68.682h21.836l22.407-68.682h-22.534l-10.854,43.228
	L1202.677,493.953z M1253.001,483.716c2.2,1.959,5.057,2.938,8.569,2.938s6.368-0.979,8.569-2.938c2.2-1.958,3.301-4.47,3.301-7.536
	c0-3.065-1.101-5.577-3.301-7.536c-2.201-1.958-5.058-2.938-8.569-2.938c-3.513,0-6.369,0.98-8.569,2.938
	c-2.201,1.958-3.301,4.471-3.301,7.536C1249.7,479.246,1250.8,481.758,1253.001,483.716z M1272.425,493.953h-21.455v68.682h21.455
	V493.953z M1316.115,547.972c-1.459,1.185-3.649,1.777-6.569,1.777c-3.174,0-5.776-0.729-7.808-2.19
	c-2.031-1.459-3.09-3.776-3.174-6.95h-19.995c0,4.021,1.29,7.851,3.872,11.489c2.581,3.641,6.178,6.518,10.791,8.633
	c4.612,2.115,9.859,3.174,15.742,3.174c8.844,0,16.049-1.968,21.613-5.903c5.564-3.935,8.348-9.034,8.348-15.298
	c0-9.182-5.163-15.552-15.488-19.106c-3.09-1.058-6.676-1.968-10.76-2.729s-7.057-1.734-8.918-2.92
	c-1.862-1.184-2.793-2.729-2.793-4.634c0-1.862,0.762-3.417,2.285-4.665c1.523-1.248,3.406-1.873,5.649-1.873
	c5.797,0,8.696,2.752,8.696,8.252h21.455c0-6.686-2.751-12.082-8.252-16.187c-5.502-4.104-12.78-6.157-21.836-6.157
	c-8.422,0-15.234,2.042-20.439,6.125c-5.205,4.085-7.808,9.279-7.808,15.584c0,3.555,0.909,6.707,2.729,9.458
	c1.819,2.751,4.464,5.089,7.935,7.015c3.47,1.926,7.871,3.48,13.203,4.665s8.95,2.327,10.854,3.428s2.856,2.562,2.856,4.38
	C1318.306,545.242,1317.576,546.787,1316.115,547.972z M1348.825,483.716c2.2,1.959,5.057,2.938,8.569,2.938
	s6.368-0.979,8.569-2.938c2.2-1.958,3.301-4.47,3.301-7.536c0-3.065-1.101-5.577-3.301-7.536c-2.201-1.958-5.058-2.938-8.569-2.938
	c-3.513,0-6.369,0.98-8.569,2.938c-2.201,1.958-3.301,4.471-3.301,7.536C1345.524,479.246,1346.624,481.758,1348.825,483.716z
	 M1368.249,493.953h-21.455v68.682h21.455V493.953z M1375.536,531.278c0.465,10.029,3.66,17.975,9.585,23.836
	c5.924,5.861,13.774,8.791,23.55,8.791c10.156,0,18.207-3.143,24.153-9.426c5.944-6.285,8.918-14.779,8.918-25.486v-0.762
	c0-10.959-2.963-19.624-8.887-25.994c-5.925-6.368-14.028-9.553-24.312-9.553c-6.729,0-12.59,1.439-17.583,4.316
	c-4.994,2.879-8.823,6.993-11.489,12.346c-2.666,5.354-3.999,11.458-3.999,18.313L1375.536,531.278z M1396.928,525.12
	c0.592-10.622,4.464-15.933,11.616-15.933c7.871,0,11.807,6.157,11.807,18.472v2.158c-0.17,11.722-4.062,17.583-11.68,17.583
	c-3.894,0-6.835-1.48-8.823-4.443c-1.989-2.961-2.983-7.617-2.983-13.965L1396.928,525.12z M1447.506,493.953v68.682h21.392v-48.496
	c2.031-3.301,5.142-4.951,9.331-4.951c3.682,0,6.221,0.815,7.617,2.443c1.396,1.63,2.095,4.18,2.095,7.649v43.355h21.455v-44.243
	c-0.127-8.591-1.958-15.022-5.491-19.297c-3.533-4.274-8.876-6.411-16.027-6.411c-8.337,0-14.875,3.11-19.614,9.331l-0.698-8.062
	H1447.506L1447.506,493.953z"/>
<g class="st1">
	<polygon class="st2" points="283.967,425.496 242.581,425.496 242.581,403.406 277.62,403.406 277.62,386.903 242.581,386.903 
		242.581,367.415 284.094,367.415 284.094,350.213 220.3,350.213 220.3,442.635 283.967,442.635 	"/>
	<path class="st2" d="M371.095,373.953h-13.394v-5.269c0-5.586,3.237-8.379,9.712-8.379c2.2,0,3.957,0.19,5.269,0.571l-0.063-15.741
		c-3.64-0.889-6.982-1.333-10.029-1.333c-8.337,0-14.812,2.158-19.424,6.475c-4.613,4.316-6.919,10.389-6.919,18.218v5.459h-9.001
		h-0.965h-12.429v-5.269c0-5.586,3.237-8.379,9.712-8.379c2.2,0,3.957,0.19,5.269,0.571l-0.064-15.742
		c-3.64-0.889-6.982-1.333-10.029-1.333c-8.337,0-14.812,2.158-19.424,6.475c-4.613,4.316-6.919,10.389-6.919,18.218v5.459h-9.966
		v14.854h9.966v53.827h21.455v-53.828h12.429h0.965h9.001v53.828h21.455v-53.828h13.394L371.095,373.953L371.095,373.953z"/>
	<path class="st2" d="M371.717,409.945c0,10.072,3.258,18.25,9.775,24.534c6.516,6.284,15.044,9.426,25.581,9.426
		c5.627,0,10.886-1.09,15.774-3.269s8.665-5.11,11.331-8.792l-9.775-11.553c-3.809,4.74-9.099,7.109-15.869,7.109
		c-4.105,0-7.449-1.1-10.029-3.301c-2.582-2.2-4.253-5.226-5.015-9.077h42.529v-8.315c0-10.706-2.793-19.053-8.379-25.042
		c-5.586-5.988-13.203-8.982-22.852-8.982c-6.855,0-12.781,1.471-17.773,4.412c-4.994,2.942-8.792,7.1-11.394,12.473
		c-2.603,5.375-3.904,11.575-3.904,18.599L371.717,409.945L371.717,409.945z M404.662,389.188c3.385,0,5.988,0.942,7.808,2.825
		c1.819,1.883,2.687,4.539,2.603,7.966v1.65H393.49C394.674,393.336,398.398,389.188,404.662,389.188z"/>
	<path class="st2" d="M470.918,443.905c8.506,0,15.457-2.412,20.852-7.236s8.093-11.002,8.093-18.535h-20.059
		c0.042,2.92-0.762,5.195-2.412,6.824s-3.978,2.444-6.982,2.444c-3.597,0-6.221-1.333-7.871-3.999s-2.476-7.448-2.476-14.346
		c0-3.936,0.148-7.024,0.444-9.268c0.93-7.067,4.167-10.601,9.712-10.601c2.92,0,5.247,0.952,6.982,2.856s2.603,4.634,2.603,8.188
		h20.059c0-8.463-2.625-15.171-7.871-20.122c-5.248-4.951-12.336-7.427-21.265-7.427c-6.602,0-12.314,1.428-17.139,4.285
		s-8.517,6.941-11.077,12.251c-2.561,5.311-3.84,11.437-3.84,18.376v0.889c0,11.087,2.877,19.763,8.633,26.025
		C453.06,440.773,460.931,443.905,470.918,443.905z"/>
	<path class="st2" d="M509.182,422.894c0,7.068,1.755,12.336,5.269,15.806c3.512,3.47,8.95,5.205,16.313,5.205
		c4.189,0,8.209-0.614,12.061-1.841v-15.298c-1.439,0.254-3.216,0.381-5.332,0.381c-2.751,0-4.592-0.508-5.522-1.523
		c-0.931-1.016-1.396-2.814-1.396-5.396v-31.421h11.299v-14.854h-11.299v-17.075h-21.392v17.075h-8.76v14.854h8.76v34.087H509.182z"
		/>
	<rect x="548.144" y="373.953" class="st2" width="21.455" height="68.682"/>
	<path class="st2" d="M550.175,363.716c2.2,1.959,5.056,2.938,8.569,2.938c3.512,0,6.369-0.979,8.569-2.938
		c2.2-1.958,3.301-4.47,3.301-7.536c0-3.065-1.101-5.577-3.301-7.536c-2.201-1.958-5.057-2.938-8.569-2.938
		c-3.513,0-6.37,0.98-8.569,2.938c-2.201,1.958-3.301,4.471-3.301,7.536C546.875,359.246,547.975,361.758,550.175,363.716z"/>
	<polygon class="st2" points="606.911,417.181 596.247,373.953 573.649,373.953 596.056,442.635 617.892,442.635 640.299,373.953 
		617.765,373.953 	"/>
	<path class="st2" d="M673.548,372.684c-6.855,0-12.781,1.471-17.773,4.412c-4.994,2.942-8.792,7.1-11.394,12.473
		c-2.603,5.375-3.904,11.575-3.904,18.599v1.777c0,10.072,3.258,18.25,9.775,24.534c6.516,6.284,15.044,9.426,25.581,9.426
		c5.627,0,10.886-1.09,15.774-3.269s8.665-5.11,11.331-8.792l-9.775-11.553c-3.809,4.74-9.099,7.109-15.869,7.109
		c-4.105,0-7.449-1.1-10.029-3.301c-2.582-2.2-4.253-5.226-5.015-9.077h42.529v-8.315c0-10.706-2.793-19.053-8.379-25.042
		C690.814,375.678,683.197,372.684,673.548,372.684z M683.832,401.629H662.25c1.184-8.293,4.909-12.441,11.172-12.441
		c3.385,0,5.988,0.942,7.808,2.825c1.819,1.883,2.687,4.539,2.603,7.966v1.65H683.832z"/>
	<polygon class="st2" points="803.904,425.496 762.517,425.496 762.517,403.406 797.556,403.406 797.556,386.903 762.517,386.903 
		762.517,367.415 804.031,367.415 804.031,350.213 740.237,350.213 740.237,442.635 803.904,442.635 	"/>
	<path class="st2" d="M868.511,345.135h-21.455v34.785c-4.189-4.824-9.353-7.236-15.488-7.236c-8.422,0-14.98,3.132-19.678,9.395
		c-4.697,6.263-7.046,14.833-7.046,25.708c0,11.553,2.391,20.461,7.173,26.724c4.781,6.263,11.256,9.395,19.424,9.395
		c6.771,0,12.356-2.877,16.758-8.633l1.079,7.363h19.233L868.511,345.135L868.511,345.135z M847.056,421.434
		c-2.031,3.978-5.417,5.967-10.156,5.967c-7.109,0-10.664-6.094-10.664-18.281l0.063-3.936c0.55-10.664,4.126-15.996,10.728-15.996
		c4.739,0,8.082,2.031,10.029,6.094V421.434z"/>
	<path class="st2" d="M899.982,443.905c7.701,0,13.816-2.898,18.345-8.696l0.635,7.427h20.059v-68.682h-21.519v48.179
		c-2.074,3.513-5.565,5.269-10.474,5.269c-5.713,0-8.569-2.941-8.569-8.823v-44.624h-21.392v44.497
		c0,8.21,1.937,14.504,5.808,18.884C886.748,441.715,892.449,443.905,899.982,443.905z"/>
	<path class="st2" d="M985.917,418.133c0.042,2.92-0.762,5.195-2.412,6.824c-1.65,1.629-3.979,2.444-6.982,2.444
		c-3.598,0-6.221-1.333-7.871-3.999c-1.65-2.666-2.476-7.448-2.476-14.346c0-3.936,0.147-7.024,0.444-9.268
		c0.931-7.067,4.168-10.601,9.712-10.601c2.92,0,5.247,0.952,6.982,2.856c1.734,1.904,2.603,4.634,2.603,8.188h20.059
		c0-8.463-2.624-15.171-7.871-20.122c-5.248-4.951-12.336-7.427-21.265-7.427c-6.602,0-12.314,1.428-17.139,4.285
		s-8.517,6.941-11.077,12.251c-2.561,5.311-3.84,11.437-3.84,18.376v0.889c0,11.087,2.877,19.763,8.633,26.025
		c5.755,6.263,13.626,9.395,23.613,9.395c8.506,0,15.457-2.412,20.852-7.236c5.396-4.824,8.094-11.002,8.094-18.535h-20.059
		L985.917,418.133L985.917,418.133z"/>
	<path class="st2" d="M1040.875,400.677c-10.495,0-18.493,1.904-23.994,5.713c-5.502,3.809-8.252,9.437-8.252,16.885
		c0,5.925,2.264,10.845,6.792,14.758c4.527,3.915,10.029,5.872,16.504,5.872c7.066,0,12.568-2.476,16.504-7.427
		c0.592,2.708,1.27,4.761,2.031,6.157h21.392v-1.079c-1.862-3.342-2.836-8.167-2.92-14.473v-30.405
		c-0.127-7.448-2.729-13.308-7.808-17.583c-5.078-4.274-11.997-6.411-20.757-6.411s-15.964,2.072-21.614,6.214
		c-5.648,4.142-8.474,9.531-8.474,16.167h21.392c0-5.018,2.539-7.527,7.617-7.527c5.459,0,8.188,3.168,8.188,9.503v3.636
		L1040.875,400.677L1040.875,400.677z M1047.477,423.084c-0.762,1.439-2.021,2.729-3.776,3.872
		c-1.757,1.143-3.968,1.714-6.634,1.714c-2.031,0-3.703-0.603-5.015-1.809s-1.968-2.782-1.968-4.729
		c0-6.686,3.724-10.029,11.172-10.029h6.221L1047.477,423.084L1047.477,423.084z"/>
	<path class="st2" d="M1081.043,422.894c0,7.068,1.756,12.336,5.269,15.806c3.512,3.47,8.95,5.205,16.313,5.205
		c4.189,0,8.209-0.614,12.061-1.841v-15.298c-1.439,0.254-3.217,0.381-5.332,0.381c-2.751,0-4.592-0.508-5.522-1.523
		c-0.932-1.016-1.396-2.814-1.396-5.396v-31.421h11.299v-14.854h-11.299v-17.075h-21.392v17.075h-8.76v14.854h8.76v34.087H1081.043z
		"/>
	<path class="st2" d="M1122.036,363.716c2.2,1.959,5.057,2.938,8.569,2.938s6.368-0.979,8.569-2.938
		c2.2-1.958,3.301-4.47,3.301-7.536c0-3.065-1.101-5.577-3.301-7.536c-2.201-1.958-5.058-2.938-8.569-2.938
		c-3.513,0-6.369,0.98-8.569,2.938c-2.201,1.958-3.301,4.471-3.301,7.536C1118.735,359.246,1119.835,361.758,1122.036,363.716z"/>
	<rect x="1120.005" y="373.953" class="st2" width="21.455" height="68.682"/>
	<path class="st2" d="M1158.332,435.113c5.924,5.862,13.774,8.792,23.55,8.792c10.156,0,18.207-3.142,24.153-9.426
		c5.944-6.284,8.918-14.779,8.918-25.486v-0.762c0-10.959-2.963-19.624-8.887-25.994c-5.925-6.369-14.028-9.553-24.312-9.553
		c-6.729,0-12.59,1.439-17.583,4.316c-4.994,2.878-8.823,6.993-11.489,12.346c-2.666,5.354-3.999,11.458-3.999,18.313l0.063,3.618
		C1149.212,421.307,1152.407,429.252,1158.332,435.113z M1170.139,405.12c0.592-10.622,4.464-15.933,11.616-15.933
		c7.871,0,11.807,6.157,11.807,18.472v2.158c-0.17,11.722-4.062,17.583-11.68,17.583c-3.894,0-6.835-1.481-8.823-4.443
		c-1.989-2.961-2.983-7.617-2.983-13.965L1170.139,405.12z"/>
	<path class="st2" d="M1242.108,394.139c2.031-3.301,5.142-4.951,9.331-4.951c3.682,0,6.221,0.815,7.617,2.444
		s2.095,4.18,2.095,7.649v43.354h21.455v-44.243c-0.127-8.59-1.958-15.022-5.491-19.297c-3.533-4.274-8.876-6.411-16.027-6.411
		c-8.337,0-14.875,3.11-19.614,9.331l-0.698-8.062h-20.059v68.682h21.392L1242.108,394.139L1242.108,394.139z"/>
	<path class="st2" d="M1320.299,400.677c-10.495,0-18.493,1.904-23.994,5.713c-5.502,3.809-8.252,9.437-8.252,16.885
		c0,5.925,2.264,10.845,6.792,14.758c4.527,3.915,10.029,5.872,16.504,5.872c7.066,0,12.568-2.476,16.504-7.427
		c0.592,2.708,1.27,4.761,2.031,6.157h21.392v-1.079c-1.862-3.342-2.836-8.167-2.92-14.473v-30.405
		c-0.127-7.448-2.729-13.308-7.808-17.583c-5.078-4.274-11.997-6.411-20.757-6.411s-15.964,2.072-21.614,6.214
		c-5.648,4.142-8.474,9.531-8.474,16.167h21.392c0-5.018,2.539-7.527,7.617-7.527c5.459,0,8.188,3.168,8.188,9.503v3.636
		L1320.299,400.677L1320.299,400.677z M1326.9,423.084c-0.762,1.439-2.021,2.729-3.776,3.872c-1.757,1.143-3.968,1.714-6.634,1.714
		c-2.031,0-3.703-0.603-5.015-1.809s-1.968-2.782-1.968-4.729c0-6.686,3.724-10.029,11.172-10.029h6.221L1326.9,423.084
		L1326.9,423.084z"/>
	<rect x="1358.055" y="345.135" class="st2" width="21.455" height="97.5"/>
	<polygon class="st2" points="114.028,470.213 91.748,470.213 91.748,562.635 152.812,562.635 152.812,545.496 114.028,545.496 	"/>
	<path class="st2" d="M188.917,492.684c-6.855,0-12.781,1.471-17.773,4.412c-4.994,2.941-8.792,7.1-11.394,12.473
		c-2.603,5.375-3.904,11.574-3.904,18.599v1.777c0,10.071,3.258,18.249,9.775,24.534c6.516,6.283,15.044,9.426,25.581,9.426
		c5.627,0,10.886-1.09,15.774-3.27c4.888-2.179,8.665-5.109,11.331-8.791l-9.775-11.553c-3.809,4.74-9.099,7.109-15.869,7.109
		c-4.105,0-7.449-1.1-10.029-3.301c-2.582-2.199-4.253-5.227-5.015-9.077h42.529v-8.315c0-10.705-2.793-19.053-8.379-25.041
		S198.566,492.684,188.917,492.684z M199.201,521.629h-21.582c1.184-8.293,4.909-12.441,11.172-12.441
		c3.385,0,5.988,0.942,7.808,2.824c1.819,1.884,2.687,4.539,2.603,7.967L199.201,521.629L199.201,521.629z"/>
	<path class="st2" d="M282.66,516.678c-0.127-7.447-2.729-13.309-7.808-17.583c-5.078-4.274-11.997-6.411-20.757-6.411
		s-15.964,2.072-21.614,6.214c-5.649,4.142-8.474,9.531-8.474,16.167h21.392c0-5.018,2.539-7.527,7.617-7.527
		c5.459,0,8.188,3.168,8.188,9.504v3.636h-6.602c-10.496,0-18.494,1.904-23.994,5.713c-5.501,3.809-8.252,9.437-8.252,16.885
		c0,5.925,2.263,10.845,6.792,14.759c4.528,3.914,10.029,5.871,16.504,5.871c7.067,0,12.568-2.476,16.504-7.427
		c0.592,2.708,1.27,4.761,2.031,6.157h21.392v-1.079c-1.863-3.343-2.835-8.167-2.92-14.473v-30.406L282.66,516.678L282.66,516.678z
		 M261.205,543.084c-0.762,1.439-2.021,2.729-3.777,3.872c-1.756,1.143-3.967,1.714-6.633,1.714c-2.031,0-3.704-0.604-5.015-1.809
		c-1.312-1.207-1.968-2.783-1.968-4.729c0-6.687,3.723-10.029,11.172-10.029h6.221V543.084z"/>
	<path class="st2" d="M330.762,499.92c-4.189-4.824-9.353-7.236-15.488-7.236c-8.421,0-14.98,3.133-19.678,9.395
		c-4.697,6.264-7.046,14.832-7.046,25.708c0,11.553,2.39,20.462,7.173,26.724c4.782,6.264,11.256,9.395,19.424,9.395
		c6.77,0,12.356-2.877,16.758-8.633l1.079,7.363h19.233v-97.501h-21.455L330.762,499.92L330.762,499.92z M330.762,541.434
		c-2.031,3.979-5.417,5.967-10.156,5.967c-7.109,0-10.664-6.094-10.664-18.281l0.063-3.936c0.549-10.664,4.126-15.996,10.728-15.996
		c4.739,0,8.083,2.031,10.029,6.094L330.762,541.434L330.762,541.434z"/>
	<path class="st2" d="M392.068,492.684c-6.855,0-12.781,1.471-17.773,4.412c-4.994,2.941-8.792,7.1-11.394,12.473
		c-2.603,5.375-3.904,11.574-3.904,18.599v1.777c0,10.071,3.258,18.249,9.775,24.534c6.516,6.283,15.044,9.426,25.581,9.426
		c5.627,0,10.886-1.09,15.774-3.27c4.888-2.179,8.665-5.109,11.331-8.791l-9.775-11.553c-3.809,4.74-9.099,7.109-15.869,7.109
		c-4.105,0-7.449-1.1-10.029-3.301c-2.582-2.199-4.253-5.227-5.015-9.077h42.529v-8.315c0-10.705-2.793-19.053-8.379-25.041
		S401.716,492.684,392.068,492.684z M402.351,521.629h-21.582c1.184-8.293,4.909-12.441,11.172-12.441
		c3.385,0,5.988,0.942,7.808,2.824c1.819,1.884,2.687,4.539,2.603,7.967v1.65H402.351z"/>
	<path class="st2" d="M449.565,502.777l-0.698-8.823h-20.059v68.681H450.2v-43.481c1.904-4.231,6.221-6.348,12.949-6.348
		l7.046,0.508l0.381-19.868c-1.693-0.508-3.682-0.762-5.967-0.762C458.176,492.684,453.161,496.048,449.565,502.777z"/>
	<path class="st2" d="M495.573,508.649c1.523-1.248,3.406-1.873,5.649-1.873c5.797,0,8.696,2.752,8.696,8.252h21.455
		c0-6.686-2.751-12.082-8.252-16.187c-5.501-4.104-12.781-6.157-21.836-6.157c-8.421,0-15.234,2.042-20.439,6.125
		c-5.205,4.085-7.808,9.279-7.808,15.584c0,3.555,0.91,6.707,2.729,9.458c1.819,2.751,4.464,5.089,7.935,7.015
		c3.469,1.926,7.871,3.48,13.203,4.665s8.95,2.327,10.854,3.428s2.856,2.562,2.856,4.38c0,1.904-0.73,3.449-2.19,4.634
		s-3.65,1.777-6.57,1.777c-3.174,0-5.776-0.729-7.808-2.19c-2.031-1.459-3.089-3.776-3.174-6.95H470.88
		c0,4.021,1.291,7.851,3.872,11.489c2.581,3.641,6.178,6.518,10.791,8.633c4.612,2.115,9.86,3.174,15.742,3.174
		c8.844,0,16.049-1.968,21.614-5.903c5.564-3.936,8.347-9.034,8.347-15.298c0-9.182-5.164-15.552-15.488-19.106
		c-3.089-1.058-6.676-1.968-10.759-2.729c-4.084-0.762-7.057-1.734-8.918-2.92c-1.863-1.184-2.793-2.729-2.793-4.634
		C493.288,511.451,494.049,509.897,495.573,508.649z"/>
	<path class="st2" d="M576.429,492.684c-7.109,0-12.949,2.879-17.52,8.633v-36.182h-21.392v97.5h21.392v-49.258
		c1.819-2.793,4.929-4.189,9.331-4.189c3.555,0,6.072,0.857,7.554,2.57c1.481,1.715,2.222,4.391,2.222,8.03v42.847h21.455v-43.354
		c-0.085-8.76-2.053-15.382-5.903-19.868C589.717,494.927,584.004,492.684,576.429,492.684z"/>
	<path class="st2" d="M628.404,468.644c-2.201-1.958-5.057-2.938-8.569-2.938c-3.513,0-6.37,0.98-8.569,2.938
		c-2.201,1.958-3.301,4.471-3.301,7.536c0,3.066,1.1,5.578,3.301,7.536c2.2,1.959,5.056,2.938,8.569,2.938
		c3.512,0,6.369-0.979,8.569-2.938c2.2-1.958,3.301-4.47,3.301-7.536C631.705,473.115,630.604,470.603,628.404,468.644z"/>
	<rect x="609.234" y="493.953" class="st2" width="21.455" height="68.682"/>
	<path class="st2" d="M677.585,492.684c-6.687,0-12.083,2.539-16.187,7.617l-0.635-6.348h-19.995v95.088h21.392v-32.056
		c4.062,4.612,9.246,6.919,15.552,6.919c8.167,0,14.652-3.184,19.456-9.553c4.802-6.369,7.205-14.886,7.205-25.55v-1.016
		c0-10.918-2.349-19.497-7.046-25.739S686.049,492.684,677.585,492.684z M682.981,529.754c-0.212,11.766-3.724,17.646-10.537,17.646
		c-4.994,0-8.421-1.904-10.283-5.713v-27.041c1.692-3.639,5.078-5.459,10.156-5.459c7.109,0,10.664,6.094,10.664,18.281V529.754z"/>
	<path class="st2" d="M813.59,516.424h-17.963c0,5.545-1.165,10.643-3.491,15.298l-14.219-16.313l4.824-3.364
		c8.674-6.094,13.013-13.076,13.013-20.947c0-6.305-2.285-11.584-6.855-15.837s-10.347-6.379-17.329-6.379
		c-7.787,0-14.092,2.296-18.916,6.887c-4.824,4.592-7.236,10.611-7.236,18.059c0,3.428,0.708,6.75,2.126,9.966
		c1.417,3.216,3.374,6.602,5.872,10.156l-0.19,0.127c-6.306,4.612-10.548,8.655-12.727,12.124c-2.18,3.471-3.269,7.342-3.269,11.616
		c0,7.829,2.75,14.146,8.252,18.948c5.5,4.803,12.822,7.204,21.963,7.204c4.655,0,8.833-0.508,12.537-1.523
		c3.703-1.016,7.332-2.581,10.886-4.697l4.316,4.888h23.867l-14.092-16.187C810.713,538.916,813.59,528.908,813.59,516.424z
		 M765.919,487.637c1.354-1.501,3.215-2.253,5.586-2.253c1.989,0,3.66,0.72,5.015,2.158c1.354,1.439,2.031,3.132,2.031,5.078
		c0,2.074-0.444,3.788-1.333,5.142c-0.889,1.355-2.307,2.666-4.253,3.936l-4.253,2.666c-3.216-4.23-4.824-7.828-4.824-10.791
		C763.888,491.119,764.564,489.14,765.919,487.637z M768.839,547.464c-2.878,0-5.291-1.079-7.236-3.237
		c-1.947-2.158-2.92-4.781-2.92-7.871c0-3.723,1.206-7.066,3.618-10.029l0.571-0.381l16.631,18.916
		C776.117,546.598,772.562,547.464,768.839,547.464z"/>
	<path class="st2" d="M879.613,488.399c2.306-1.755,5.447-2.634,9.426-2.634c3.936,0,7.056,1.038,9.363,3.11
		c2.306,2.074,3.459,4.994,3.459,8.76h22.217c0-5.627-1.46-10.632-4.38-15.012s-7.015-7.754-12.282-10.125
		c-5.27-2.37-11.226-3.555-17.869-3.555c-6.813,0-12.949,1.09-18.408,3.269c-5.459,2.18-9.68,5.227-12.664,9.141
		c-2.982,3.915-4.475,8.433-4.475,13.552c0,10.283,5.987,18.366,17.964,24.248c3.682,1.819,8.421,3.704,14.219,5.649
		c5.797,1.947,9.849,3.83,12.155,5.649s3.46,4.358,3.46,7.617c0,2.878-1.069,5.11-3.206,6.696c-2.137,1.588-5.046,2.381-8.728,2.381
		c-5.756,0-9.913-1.174-12.474-3.523c-2.561-2.348-3.84-5.998-3.84-10.949h-22.344c0,6.094,1.533,11.479,4.602,16.154
		c3.068,4.677,7.639,8.358,13.711,11.045c6.072,2.688,12.854,4.031,20.345,4.031c10.621,0,18.979-2.307,25.073-6.919
		s9.141-10.96,9.141-19.043c0-10.114-4.994-18.048-14.98-23.804c-4.105-2.369-9.353-4.58-15.742-6.633
		c-6.391-2.053-10.854-4.041-13.394-5.967s-3.809-4.072-3.809-6.443C876.153,492.388,877.306,490.156,879.613,488.399z"/>
	<path class="st2" d="M971.355,542.132c-2.074,3.513-5.565,5.269-10.474,5.269c-5.713,0-8.569-2.941-8.569-8.823v-44.624H930.92
		v44.497c0,8.21,1.937,14.505,5.808,18.884c3.873,4.381,9.574,6.57,17.107,6.57c7.701,0,13.816-2.898,18.345-8.696l0.635,7.427
		h20.059v-68.682h-21.519V542.132z"/>
	<path class="st2" d="M1038.311,492.684c-6.687,0-12.082,2.539-16.187,7.617l-0.635-6.348h-19.995v95.088h21.392v-32.056
		c4.062,4.612,9.246,6.919,15.552,6.919c8.167,0,14.652-3.184,19.456-9.553c4.802-6.369,7.204-14.886,7.204-25.55v-1.016
		c0-10.918-2.349-19.497-7.046-25.739S1046.773,492.684,1038.311,492.684z M1043.706,529.754
		c-0.212,11.766-3.725,17.646-10.537,17.646c-4.994,0-8.422-1.904-10.283-5.713v-27.041c1.692-3.639,5.078-5.459,10.156-5.459
		c7.109,0,10.664,6.094,10.664,18.281L1043.706,529.754L1043.706,529.754z"/>
	<path class="st2" d="M1102.219,492.684c-6.855,0-12.78,1.471-17.773,4.412c-4.994,2.941-8.791,7.1-11.395,12.473
		c-2.602,5.375-3.903,11.574-3.903,18.599v1.777c0,10.071,3.258,18.249,9.775,24.534c6.517,6.283,15.044,9.426,25.581,9.426
		c5.628,0,10.887-1.09,15.773-3.27c4.889-2.179,8.665-5.109,11.331-8.791l-9.775-11.553c-3.809,4.74-9.099,7.109-15.869,7.109
		c-4.105,0-7.448-1.1-10.029-3.301c-2.582-2.199-4.253-5.227-5.015-9.077h42.529v-8.315c0-10.705-2.793-19.053-8.379-25.041
		S1111.867,492.684,1102.219,492.684z M1112.502,521.629h-21.582c1.185-8.293,4.908-12.441,11.172-12.441
		c3.385,0,5.987,0.942,7.808,2.824c1.819,1.884,2.687,4.539,2.603,7.967L1112.502,521.629L1112.502,521.629z"/>
	<path class="st2" d="M1213.341,537.181l-10.664-43.228h-21.96l0.01-0.508c-1.693-0.508-3.682-0.762-5.967-0.762
		c-6.433,0-11.447,3.364-15.044,10.093l-0.698-8.823h-20.059v68.682h21.392v-43.481c1.904-4.231,6.221-6.348,12.949-6.348
		l7.046,0.508l0.336-17.514l21.805,66.835h21.836l22.407-68.682h-22.534L1213.341,537.181z"/>
	<path class="st2" d="M1270.14,468.644c-2.201-1.958-5.058-2.938-8.569-2.938c-3.513,0-6.369,0.98-8.569,2.938
		c-2.201,1.958-3.301,4.471-3.301,7.536c0,3.066,1.1,5.578,3.301,7.536c2.2,1.959,5.057,2.938,8.569,2.938s6.368-0.979,8.569-2.938
		c2.2-1.958,3.301-4.47,3.301-7.536C1273.44,473.115,1272.34,470.603,1270.14,468.644z"/>
	<rect x="1250.97" y="493.953" class="st2" width="21.455" height="68.682"/>
	<path class="st2" d="M1303.262,508.649c1.523-1.248,3.406-1.873,5.649-1.873c5.797,0,8.696,2.752,8.696,8.252h21.455
		c0-6.686-2.751-12.082-8.252-16.187c-5.502-4.104-12.78-6.157-21.836-6.157c-8.422,0-15.234,2.042-20.439,6.125
		c-5.205,4.085-7.808,9.279-7.808,15.584c0,3.555,0.909,6.707,2.729,9.458c1.819,2.751,4.464,5.089,7.935,7.015
		c3.47,1.926,7.871,3.48,13.203,4.665s8.95,2.327,10.854,3.428s2.856,2.562,2.856,4.38c0,1.904-0.729,3.449-2.19,4.634
		c-1.459,1.185-3.649,1.777-6.569,1.777c-3.174,0-5.776-0.729-7.808-2.19c-2.031-1.459-3.09-3.776-3.174-6.95h-19.995
		c0,4.021,1.29,7.851,3.872,11.489c2.581,3.641,6.178,6.518,10.791,8.633c4.612,2.115,9.859,3.174,15.742,3.174
		c8.844,0,16.049-1.968,21.613-5.903c5.564-3.935,8.348-9.034,8.348-15.298c0-9.182-5.163-15.552-15.488-19.106
		c-3.09-1.058-6.676-1.968-10.76-2.729s-7.057-1.734-8.918-2.92c-1.862-1.184-2.793-2.729-2.793-4.634
		C1300.977,511.451,1301.738,509.897,1303.262,508.649z"/>
	<path class="st2" d="M1365.964,468.644c-2.201-1.958-5.058-2.938-8.569-2.938c-3.513,0-6.369,0.98-8.569,2.938
		c-2.201,1.958-3.301,4.471-3.301,7.536c0,3.066,1.1,5.578,3.301,7.536c2.2,1.959,5.057,2.938,8.569,2.938s6.368-0.979,8.569-2.938
		c2.2-1.958,3.301-4.47,3.301-7.536C1369.265,473.115,1368.164,470.603,1365.964,468.644z"/>
	<rect x="1346.794" y="493.953" class="st2" width="21.455" height="68.682"/>
	<path class="st2" d="M1408.544,492.684c-6.729,0-12.59,1.439-17.583,4.316c-4.994,2.879-8.823,6.993-11.489,12.346
		c-2.666,5.354-3.999,11.458-3.999,18.313l0.063,3.618c0.465,10.029,3.66,17.975,9.585,23.836c5.924,5.861,13.774,8.791,23.55,8.791
		c10.156,0,18.207-3.143,24.153-9.426c5.944-6.285,8.918-14.779,8.918-25.486v-0.762c0-10.959-2.963-19.624-8.887-25.994
		C1426.931,495.868,1418.827,492.684,1408.544,492.684z M1420.351,529.818c-0.17,11.722-4.062,17.583-11.68,17.583
		c-3.894,0-6.835-1.48-8.823-4.443c-1.989-2.961-2.983-7.617-2.983-13.965l0.063-3.872c0.592-10.622,4.464-15.933,11.616-15.933
		c7.871,0,11.807,6.157,11.807,18.472L1420.351,529.818L1420.351,529.818z"/>
	<path class="st2" d="M1503.904,499.095c-3.533-4.274-8.876-6.411-16.027-6.411c-8.337,0-14.875,3.11-19.614,9.331l-0.698-8.062
		h-20.059v68.682h21.392v-48.496c2.031-3.301,5.142-4.951,9.331-4.951c3.682,0,6.221,0.815,7.617,2.443
		c1.396,1.63,2.095,4.18,2.095,7.649v43.355h21.455v-44.243C1509.269,509.801,1507.438,503.369,1503.904,499.095z"/>
</g>
<path d="M814.779,609.464c-0.653-0.99-1.985-1.262-2.974-0.609l-12.715,8.394l-12.715-8.394c-0.989-0.654-2.321-0.381-2.974,0.609
	s-0.381,2.321,0.609,2.974l13.865,9.154c0.364,0.241,0.775,0.355,1.181,0.355c0.012,0,0.023-0.002,0.035-0.002
	c0.012,0,0.023,0.002,0.035,0.002c0.406,0,0.817-0.115,1.181-0.355l13.865-9.154C815.16,611.786,815.433,610.454,814.779,609.464z"
	/>
</svg>
