<?xml version="1.0" encoding="utf-8"?>
<!-- Generator: Adobe Illustrator 22.0.1, SVG Export Plug-In . SVG Version: 6.00 Build 0)  -->
<svg version="1.1" id="Layer_1" xmlns="http://www.w3.org/2000/svg" xmlns:xlink="http://www.w3.org/1999/xlink" x="0px" y="0px"
	 viewBox="0 0 1600 650" style="enable-background:new 0 0 1600 650;" xml:space="preserve">
<style type="text/css">
	.st0{opacity:0.85;fill:#9A95C9;}
	.st1{fill:#FFFFFF;}
</style>
<path class="st0" d="M1600,721.071H0V-0.392h1600V721.071z M248.539,268.816h-31.836v-16.992h26.953v-12.695h-26.953v-14.99h31.934
	v-13.232h-49.072V282h48.975V268.816z M247.357,240.594h7.666V282h16.504v-41.406h9.561h0.742h6.924V282h16.504v-41.406h10.303
	v-11.426h-10.303v-4.053c0-4.297,2.49-6.445,7.471-6.445c1.692,0,3.043,0.146,4.053,0.439L316.732,207
	c-2.8-0.684-5.371-1.025-7.715-1.025c-6.413,0-11.394,1.66-14.941,4.98c-3.548,3.32-5.322,7.992-5.322,14.014v4.199h-6.924h-0.742
	h-9.561v-4.053c0-4.297,2.49-6.445,7.471-6.445c1.692,0,3.043,0.146,4.053,0.439L283.002,207c-2.8-0.684-5.371-1.025-7.715-1.025
	c-6.413,0-11.394,1.66-14.941,4.98c-3.548,3.32-5.322,7.992-5.322,14.014v4.199h-7.666V240.594z M316.039,256.854
	c0,7.748,2.506,14.038,7.52,18.872c5.013,4.834,11.572,7.251,19.678,7.251c4.329,0,8.374-0.838,12.134-2.515
	s6.665-3.931,8.716-6.763l-7.52-8.887c-2.93,3.646-6.999,5.469-12.207,5.469c-3.158,0-5.729-0.846-7.715-2.539
	c-1.986-1.692-3.271-4.02-3.857-6.982h32.715v-6.396c0-8.235-2.148-14.656-6.445-19.263c-4.297-4.606-10.156-6.909-17.578-6.909
	c-5.273,0-9.831,1.131-13.672,3.394c-3.841,2.263-6.763,5.461-8.765,9.595c-2.002,4.134-3.003,8.903-3.003,14.307V256.854z
	 M341.381,240.887c2.604,0,4.606,0.725,6.006,2.173c1.399,1.449,2.067,3.491,2.002,6.128v1.27h-16.602
	C333.698,244.077,336.563,240.887,341.381,240.887z M392.348,282.977c6.543,0,11.89-1.855,16.04-5.566s6.226-8.463,6.226-14.258
	h-15.43c0.032,2.246-0.586,3.996-1.855,5.249c-1.27,1.253-3.06,1.88-5.371,1.88c-2.767,0-4.785-1.025-6.055-3.076
	s-1.904-5.729-1.904-11.035c0-3.027,0.114-5.403,0.342-7.129c0.716-5.436,3.206-8.154,7.471-8.154c2.246,0,4.036,0.732,5.371,2.197
	c1.334,1.465,2.002,3.564,2.002,6.299h15.43c0-6.51-2.019-11.67-6.055-15.479c-4.037-3.809-9.489-5.713-16.357-5.713
	c-5.078,0-9.473,1.099-13.184,3.296s-6.551,5.339-8.521,9.424c-1.97,4.085-2.954,8.797-2.954,14.136v0.684
	c0,8.529,2.213,15.202,6.641,20.02C378.61,280.568,384.665,282.977,392.348,282.977z M421.781,266.814
	c0,5.437,1.351,9.489,4.053,12.158c2.702,2.669,6.885,4.004,12.549,4.004c3.223,0,6.315-0.472,9.277-1.416v-11.768
	c-1.107,0.195-2.474,0.293-4.102,0.293c-2.116,0-3.532-0.391-4.248-1.172c-0.716-0.781-1.074-2.165-1.074-4.15v-24.17h8.691v-11.426
	h-8.691v-13.135h-16.455v13.135h-6.738v11.426h6.738V266.814z M468.256,229.168h-16.504V282h16.504V229.168z M453.314,221.293
	c1.692,1.507,3.89,2.26,6.592,2.26c2.702,0,4.899-0.753,6.592-2.26c1.692-1.506,2.539-3.438,2.539-5.797
	c0-2.357-0.847-4.29-2.539-5.797c-1.693-1.506-3.89-2.26-6.592-2.26c-2.702,0-4.899,0.754-6.592,2.26
	c-1.693,1.507-2.539,3.439-2.539,5.797C450.775,217.854,451.622,219.787,453.314,221.293z M505.404,282l17.236-52.832h-17.334
	l-8.35,33.252l-8.203-33.252h-17.383L488.607,282H505.404z M549.975,282.977c4.329,0,8.374-0.838,12.134-2.515
	s6.665-3.931,8.716-6.763l-7.52-8.887c-2.93,3.646-6.999,5.469-12.207,5.469c-3.158,0-5.729-0.846-7.715-2.539
	c-1.986-1.692-3.271-4.02-3.857-6.982h32.715v-6.396c0-8.235-2.148-14.656-6.445-19.263c-4.297-4.606-10.156-6.909-17.578-6.909
	c-5.273,0-9.831,1.131-13.672,3.394c-3.841,2.263-6.763,5.461-8.765,9.595c-2.002,4.134-3.003,8.903-3.003,14.307v1.367
	c0,7.748,2.506,14.038,7.52,18.872C535.31,280.56,541.869,282.977,549.975,282.977z M548.119,240.887
	c2.604,0,4.606,0.725,6.006,2.173c1.399,1.449,2.067,3.491,2.002,6.128v1.27h-16.602
	C540.437,244.077,543.301,240.887,548.119,240.887z M617.777,210.906h-17.09V282h17.09V210.906z M642.572,244.695
	c1.562-2.539,3.955-3.809,7.178-3.809c2.832,0,4.785,0.627,5.859,1.88c1.074,1.253,1.611,3.215,1.611,5.884V282h16.504v-34.033
	c-0.098-6.608-1.506-11.556-4.224-14.844c-2.718-3.288-6.828-4.932-12.329-4.932c-6.413,0-11.442,2.393-15.088,7.178l-0.537-6.201
	h-15.43V282h16.455V244.695z M706.308,270.721c-1.123,0.912-2.808,1.367-5.054,1.367c-2.441,0-4.443-0.562-6.006-1.685
	s-2.376-2.905-2.441-5.347h-15.381c0,3.093,0.993,6.039,2.979,8.838c1.985,2.8,4.752,5.013,8.301,6.641
	c3.548,1.627,7.584,2.441,12.109,2.441c6.803,0,12.345-1.514,16.626-4.541c4.28-3.027,6.421-6.95,6.421-11.768
	c0-7.063-3.972-11.963-11.914-14.697c-2.376-0.813-5.135-1.514-8.276-2.1c-3.142-0.586-5.428-1.334-6.86-2.246
	c-1.433-0.911-2.148-2.1-2.148-3.564c0-1.432,0.586-2.628,1.758-3.589c1.172-0.96,2.62-1.44,4.346-1.44
	c4.459,0,6.689,2.116,6.689,6.348h16.504c0-5.143-2.116-9.293-6.348-12.451c-4.232-3.157-9.831-4.736-16.797-4.736
	c-6.478,0-11.719,1.571-15.723,4.712c-4.004,3.142-6.006,7.137-6.006,11.987c0,2.734,0.7,5.16,2.1,7.275
	c1.399,2.116,3.434,3.915,6.104,5.396c2.669,1.481,6.055,2.678,10.156,3.589c4.102,0.912,6.885,1.791,8.35,2.637
	c1.465,0.847,2.197,1.97,2.197,3.369C707.992,268.621,707.431,269.81,706.308,270.721z M731.762,266.814
	c0,5.437,1.351,9.489,4.053,12.158c2.702,2.669,6.885,4.004,12.549,4.004c3.223,0,6.315-0.472,9.277-1.416v-11.768
	c-1.107,0.195-2.474,0.293-4.102,0.293c-2.116,0-3.532-0.391-4.248-1.172c-0.716-0.781-1.074-2.165-1.074-4.15v-24.17h8.691v-11.426
	h-8.691v-13.135h-16.455v13.135h-6.738v11.426h6.738V266.814z M776.967,235.955l-0.537-6.787H761V282h16.455v-33.447
	c1.465-3.255,4.785-4.883,9.961-4.883l5.42,0.391l0.293-15.283c-1.302-0.391-2.832-0.586-4.59-0.586
	C783.591,228.191,779.733,230.779,776.967,235.955z M827.104,266.229c-1.596,2.702-4.281,4.053-8.057,4.053
	c-4.395,0-6.592-2.262-6.592-6.787v-34.326H796v34.229c0,6.315,1.489,11.157,4.468,14.526s7.364,5.054,13.159,5.054
	c5.924,0,10.628-2.229,14.111-6.689l0.488,5.713h15.43v-52.832h-16.553V266.229z M872.357,240.887c2.246,0,4.036,0.732,5.371,2.197
	c1.334,1.465,2.002,3.564,2.002,6.299h15.43c0-6.51-2.019-11.67-6.055-15.479c-4.037-3.809-9.489-5.713-16.357-5.713
	c-5.078,0-9.473,1.099-13.184,3.296s-6.552,5.339-8.521,9.424c-1.97,4.085-2.954,8.797-2.954,14.136v0.684
	c0,8.529,2.213,15.202,6.641,20.02c4.427,4.818,10.481,7.227,18.164,7.227c6.543,0,11.89-1.855,16.04-5.566
	s6.226-8.463,6.226-14.258h-15.43c0.032,2.246-0.586,3.996-1.855,5.249c-1.27,1.253-3.061,1.88-5.371,1.88
	c-2.768,0-4.785-1.025-6.055-3.076s-1.904-5.729-1.904-11.035c0-3.027,0.113-5.403,0.342-7.129
	C865.603,243.605,868.093,240.887,872.357,240.887z M919.857,268.914c-0.717-0.781-1.074-2.165-1.074-4.15v-24.17h8.691v-11.426
	h-8.691v-13.135h-16.455v13.135h-6.738v11.426h6.738v26.221c0,5.437,1.351,9.489,4.053,12.158c2.701,2.669,6.885,4.004,12.549,4.004
	c3.223,0,6.314-0.472,9.277-1.416v-11.768c-1.107,0.195-2.475,0.293-4.102,0.293C921.989,270.086,920.573,269.695,919.857,268.914z
	 M932.299,282h16.504v-52.832h-16.504V282z M947.045,209.699c-1.693-1.506-3.891-2.26-6.592-2.26c-2.702,0-4.899,0.754-6.592,2.26
	c-1.693,1.507-2.539,3.439-2.539,5.797c0,2.358,0.846,4.291,2.539,5.797c1.692,1.507,3.89,2.26,6.592,2.26
	c2.701,0,4.898-0.753,6.592-2.26c1.692-1.506,2.539-3.438,2.539-5.797C949.584,213.139,948.737,211.206,947.045,209.699z
	 M979.799,228.191c-5.176,0-9.685,1.107-13.525,3.32c-3.842,2.214-6.787,5.379-8.838,9.497c-2.051,4.118-3.076,8.813-3.076,14.087
	l0.049,2.783c0.357,7.715,2.815,13.827,7.373,18.335c4.557,4.509,10.596,6.763,18.115,6.763c7.812,0,14.005-2.417,18.579-7.251
	c4.573-4.834,6.86-11.369,6.86-19.604v-0.586c0-8.431-2.279-15.096-6.836-19.995C993.942,230.641,987.709,228.191,979.799,228.191z
	 M988.881,256.756c-0.131,9.017-3.125,13.525-8.984,13.525c-2.995,0-5.258-1.139-6.787-3.418c-1.53-2.278-2.295-5.859-2.295-10.742
	l0.049-2.979c0.455-8.17,3.434-12.256,8.936-12.256c6.055,0,9.082,4.736,9.082,14.209V256.756z M1040.824,228.191
	c-6.413,0-11.442,2.393-15.088,7.178l-0.537-6.201h-15.43V282h16.455v-37.305c1.562-2.539,3.955-3.809,7.178-3.809
	c2.832,0,4.785,0.627,5.859,1.88c1.074,1.253,1.611,3.215,1.611,5.884V282h16.504v-34.033c-0.098-6.608-1.506-11.556-4.224-14.844
	C1050.435,229.835,1046.325,228.191,1040.824,228.191z M1107.953,246.648c-0.098-5.729-2.1-10.237-6.006-13.525
	c-3.906-3.288-9.229-4.932-15.967-4.932s-12.28,1.594-16.626,4.78s-6.519,7.332-6.519,12.436h16.455c0-3.86,1.953-5.79,5.859-5.79
	c4.199,0,6.299,2.437,6.299,7.311v2.797h-5.078c-8.073,0-14.226,1.465-18.457,4.395c-4.232,2.93-6.348,7.259-6.348,12.988
	c0,4.558,1.741,8.342,5.225,11.353c3.482,3.011,7.715,4.517,12.695,4.517c5.436,0,9.668-1.904,12.695-5.713
	c0.455,2.083,0.977,3.662,1.562,4.736h16.455v-0.83c-1.433-2.571-2.182-6.282-2.246-11.133V246.648z M1091.449,266.961
	c-0.586,1.107-1.555,2.1-2.905,2.979c-1.352,0.879-3.052,1.318-5.103,1.318c-1.562,0-2.849-0.464-3.857-1.392
	c-1.01-0.928-1.514-2.14-1.514-3.638c0-5.143,2.864-7.715,8.594-7.715h4.785V266.961z M1115.414,207v75h16.504v-75H1115.414z
	 M246.537,355.816h-29.834v-57.91h-17.139V369h46.973V355.816z M288.202,367.462c3.76-1.677,6.665-3.931,8.716-6.763l-7.52-8.887
	c-2.93,3.646-6.999,5.469-12.207,5.469c-3.158,0-5.729-0.847-7.715-2.539c-1.986-1.692-3.271-4.021-3.857-6.982h32.715v-6.396
	c0-8.235-2.148-14.656-6.445-19.263c-4.297-4.606-10.156-6.909-17.578-6.909c-5.273,0-9.831,1.131-13.672,3.394
	c-3.841,2.263-6.763,5.461-8.765,9.595s-3.003,8.903-3.003,14.307v1.367c0,7.747,2.506,14.038,7.52,18.872
	c5.013,4.834,11.572,7.251,19.678,7.251C280.397,369.977,284.442,369.138,288.202,367.462z M274.213,327.887
	c2.604,0,4.606,0.725,6.006,2.173c1.399,1.448,2.067,3.491,2.002,6.128v1.27h-16.602
	C266.53,331.077,269.395,327.887,274.213,327.887z M324.838,336.725c-8.073,0-14.226,1.465-18.457,4.395
	c-4.232,2.93-6.348,7.259-6.348,12.988c0,4.558,1.741,8.342,5.225,11.353c3.483,3.011,7.715,4.517,12.695,4.517
	c5.436,0,9.668-1.904,12.695-5.713c0.456,2.083,0.977,3.662,1.562,4.736h16.455v-0.83c-1.433-2.571-2.181-6.282-2.246-11.133
	v-23.389c-0.098-5.729-2.1-10.237-6.006-13.525c-3.906-3.288-9.229-4.932-15.967-4.932s-12.28,1.594-16.626,4.78
	s-6.519,7.332-6.519,12.436h16.455c0-3.86,1.953-5.79,5.859-5.79c4.199,0,6.299,2.437,6.299,7.311v2.797H324.838z M329.916,353.961
	c-0.586,1.106-1.555,2.1-2.905,2.979c-1.351,0.879-3.052,1.318-5.103,1.318c-1.562,0-2.849-0.464-3.857-1.392
	c-1.009-0.928-1.514-2.141-1.514-3.638c0-5.144,2.864-7.715,8.594-7.715h4.785V353.961z M383.422,320.758
	c-3.223-3.711-7.194-5.566-11.914-5.566c-6.478,0-11.523,2.409-15.137,7.227s-5.42,11.409-5.42,19.775
	c0,8.887,1.839,15.739,5.518,20.557c3.678,4.817,8.659,7.227,14.941,7.227c5.208,0,9.505-2.214,12.891-6.641l0.83,5.664h14.795v-75
	h-16.504V320.758z M383.422,352.691c-1.562,3.06-4.167,4.59-7.812,4.59c-5.469,0-8.203-4.688-8.203-14.062l0.049-3.027
	c0.423-8.203,3.174-12.305,8.252-12.305c3.646,0,6.217,1.562,7.715,4.688V352.691z M416.908,318.585
	c-3.841,2.263-6.763,5.461-8.765,9.595s-3.003,8.903-3.003,14.307v1.367c0,7.747,2.506,14.038,7.52,18.872
	c5.013,4.834,11.572,7.251,19.678,7.251c4.329,0,8.374-0.839,12.134-2.515c3.76-1.677,6.665-3.931,8.716-6.763l-7.52-8.887
	c-2.93,3.646-6.999,5.469-12.207,5.469c-3.158,0-5.729-0.847-7.715-2.539c-1.986-1.692-3.271-4.021-3.857-6.982h32.715v-6.396
	c0-8.235-2.148-14.656-6.445-19.263c-4.297-4.606-10.156-6.909-17.578-6.909C425.307,315.191,420.749,316.323,416.908,318.585z
	 M438.49,336.188v1.27h-16.602c0.911-6.38,3.776-9.57,8.594-9.57c2.604,0,4.606,0.725,6.006,2.173
	C437.888,331.508,438.555,333.551,438.49,336.188z M475.297,335.553c1.465-3.255,4.785-4.883,9.961-4.883l5.42,0.391l0.293-15.283
	c-1.302-0.391-2.832-0.586-4.59-0.586c-4.948,0-8.806,2.588-11.572,7.764l-0.537-6.787h-15.43V369h16.455V335.553z M531.22,365.436
	c4.28-3.027,6.421-6.95,6.421-11.768c0-7.063-3.972-11.963-11.914-14.697c-2.376-0.813-5.135-1.514-8.276-2.1
	c-3.142-0.586-5.428-1.335-6.86-2.246c-1.433-0.911-2.148-2.1-2.148-3.564c0-1.433,0.586-2.629,1.758-3.589s2.62-1.44,4.346-1.44
	c4.459,0,6.689,2.116,6.689,6.348h16.504c0-5.144-2.116-9.293-6.348-12.451c-4.232-3.157-9.831-4.736-16.797-4.736
	c-6.478,0-11.719,1.571-15.723,4.712c-4.004,3.142-6.006,7.137-6.006,11.987c0,2.734,0.7,5.159,2.1,7.275
	c1.399,2.116,3.434,3.914,6.104,5.396c2.669,1.481,6.055,2.678,10.156,3.589s6.885,1.79,8.35,2.637s2.197,1.97,2.197,3.369
	c0,1.465-0.562,2.653-1.685,3.564s-2.808,1.367-5.054,1.367c-2.441,0-4.443-0.562-6.006-1.685s-2.376-2.905-2.441-5.347h-15.381
	c0,3.093,0.993,6.038,2.979,8.838c1.985,2.8,4.752,5.013,8.301,6.641c3.548,1.627,7.584,2.441,12.109,2.441
	C521.397,369.977,526.939,368.463,531.22,365.436z M590.121,369v-33.35c-0.065-6.738-1.579-11.833-4.541-15.283
	c-2.962-3.45-7.357-5.176-13.184-5.176c-5.469,0-9.961,2.214-13.477,6.641V294h-16.455v75h16.455v-37.891
	c1.399-2.148,3.792-3.223,7.178-3.223c2.734,0,4.671,0.659,5.811,1.978c1.139,1.318,1.709,3.377,1.709,6.177V369H590.121z
	 M614.135,316.168h-16.504V369h16.504V316.168z M599.193,308.293c1.692,1.507,3.89,2.26,6.592,2.26c2.702,0,4.899-0.753,6.592-2.26
	c1.692-1.506,2.539-3.438,2.539-5.797c0-2.357-0.847-4.29-2.539-5.797c-1.693-1.506-3.89-2.26-6.592-2.26
	c-2.702,0-4.899,0.754-6.592,2.26c-1.693,1.507-2.539,3.439-2.539,5.797C596.654,304.854,597.5,306.787,599.193,308.293z
	 M638.344,364.654c3.125,3.548,7.112,5.322,11.963,5.322c6.282,0,11.271-2.449,14.966-7.349c3.694-4.899,5.542-11.45,5.542-19.653
	v-0.781c0-8.398-1.807-14.998-5.42-19.8c-3.613-4.801-8.675-7.202-15.186-7.202c-5.144,0-9.294,1.953-12.451,5.859l-0.488-4.883
	h-15.381v73.145h16.455V364.654z M638.344,332.086c1.302-2.8,3.906-4.199,7.812-4.199c5.469,0,8.203,4.688,8.203,14.062v1.758
	c-0.163,9.05-2.865,13.574-8.105,13.574c-3.841,0-6.478-1.465-7.91-4.395V332.086z M754.828,333.453H741.01
	c0,4.265-0.896,8.187-2.686,11.768l-10.938-12.549l3.711-2.588c6.673-4.688,10.01-10.059,10.01-16.113
	c0-4.85-1.758-8.911-5.273-12.183s-7.959-4.907-13.33-4.907c-5.99,0-10.84,1.766-14.551,5.298
	c-3.711,3.532-5.566,8.163-5.566,13.892c0,2.637,0.545,5.192,1.636,7.666c1.09,2.474,2.596,5.078,4.517,7.812l-0.146,0.098
	c-4.851,3.548-8.114,6.657-9.79,9.326c-1.677,2.669-2.515,5.647-2.515,8.936c0,6.022,2.116,10.881,6.348,14.575
	c4.231,3.694,9.863,5.542,16.895,5.542c3.581,0,6.795-0.391,9.644-1.172c2.848-0.781,5.64-1.985,8.374-3.613l3.32,3.76h18.359
	l-10.84-12.451C752.614,350.755,754.828,343.056,754.828,333.453z M718.158,311.31c1.042-1.155,2.474-1.733,4.297-1.733
	c1.53,0,2.815,0.554,3.857,1.66c1.042,1.107,1.562,2.409,1.562,3.906c0,1.595-0.342,2.914-1.025,3.955
	c-0.684,1.042-1.774,2.051-3.271,3.027l-3.271,2.051c-2.474-3.255-3.711-6.022-3.711-8.301
	C716.596,313.987,717.116,312.465,718.158,311.31z M720.404,357.33c-2.214,0-4.069-0.83-5.566-2.49
	c-1.498-1.66-2.246-3.679-2.246-6.055c0-2.864,0.928-5.437,2.783-7.715l0.439-0.293l12.793,14.551
	C726.003,356.663,723.269,357.33,720.404,357.33z M219.169,398.896c1.774-1.351,4.191-2.026,7.251-2.026
	c3.027,0,5.428,0.798,7.202,2.393c1.774,1.595,2.661,3.841,2.661,6.738h17.09c0-4.329-1.123-8.179-3.369-11.548
	s-5.396-5.965-9.448-7.788s-8.635-2.734-13.745-2.734c-5.241,0-9.961,0.838-14.16,2.515s-7.446,4.021-9.741,7.031
	s-3.442,6.486-3.442,10.425c0,7.91,4.606,14.128,13.818,18.652c2.832,1.399,6.478,2.849,10.938,4.346
	c4.459,1.497,7.576,2.946,9.351,4.346c1.774,1.399,2.661,3.353,2.661,5.859c0,2.214-0.822,3.931-2.466,5.151
	c-1.644,1.221-3.882,1.831-6.714,1.831c-4.427,0-7.625-0.903-9.595-2.71c-1.97-1.807-2.954-4.614-2.954-8.423h-17.188
	c0,4.688,1.18,8.83,3.54,12.427c2.36,3.597,5.875,6.429,10.547,8.496c4.671,2.067,9.888,3.101,15.649,3.101
	c8.17,0,14.6-1.774,19.287-5.322s7.031-8.431,7.031-14.648c0-7.78-3.841-13.884-11.523-18.311
	c-3.158-1.823-7.194-3.523-12.109-5.103c-4.916-1.579-8.35-3.108-10.303-4.59s-2.93-3.133-2.93-4.956
	C216.508,401.964,217.395,400.246,219.169,398.896z M289.74,440.229c-1.595,2.702-4.281,4.053-8.057,4.053
	c-4.395,0-6.592-2.263-6.592-6.787v-34.326h-16.455v34.229c0,6.315,1.489,11.157,4.468,14.526s7.365,5.054,13.159,5.054
	c5.924,0,10.628-2.229,14.111-6.689l0.488,5.713h15.43v-52.832H289.74V440.229z M341.244,402.191c-5.144,0-9.294,1.953-12.451,5.859
	l-0.488-4.883h-15.381v73.145h16.455v-24.658c3.125,3.548,7.112,5.322,11.963,5.322c6.282,0,11.271-2.449,14.966-7.349
	c3.694-4.899,5.542-11.45,5.542-19.653v-0.781c0-8.398-1.807-14.998-5.42-19.8S347.754,402.191,341.244,402.191z M345.395,430.707
	c-0.163,9.05-2.865,13.574-8.105,13.574c-3.841,0-6.478-1.465-7.91-4.395v-20.801c1.302-2.8,3.906-4.199,7.812-4.199
	c5.469,0,8.203,4.688,8.203,14.062V430.707z M390.404,402.191c-5.273,0-9.831,1.131-13.672,3.394
	c-3.841,2.263-6.763,5.461-8.765,9.595s-3.003,8.903-3.003,14.307v1.367c0,7.747,2.506,14.038,7.52,18.872
	c5.013,4.834,11.572,7.251,19.678,7.251c4.329,0,8.374-0.839,12.134-2.515c3.76-1.677,6.665-3.931,8.716-6.763l-7.52-8.887
	c-2.93,3.646-6.999,5.469-12.207,5.469c-3.158,0-5.729-0.847-7.715-2.539c-1.986-1.692-3.271-4.021-3.857-6.982h32.715v-6.396
	c0-8.235-2.148-14.656-6.445-19.263S397.826,402.191,390.404,402.191z M398.314,424.457h-16.602c0.911-6.38,3.776-9.57,8.594-9.57
	c2.604,0,4.606,0.725,6.006,2.173c1.399,1.448,2.067,3.491,2.002,6.128V424.457z M475.883,436.42l-8.203-33.252h-16.892l0.008-0.391
	c-1.302-0.391-2.832-0.586-4.59-0.586c-4.948,0-8.806,2.588-11.572,7.764l-0.537-6.787h-15.43V456h16.455v-33.447
	c1.465-3.255,4.785-4.883,9.961-4.883l5.42,0.391l0.258-13.472L467.533,456h16.797l17.236-52.832h-17.334L475.883,436.42z
	 M519.574,383.699c-1.693-1.506-3.89-2.26-6.592-2.26c-2.702,0-4.899,0.754-6.592,2.26c-1.693,1.507-2.539,3.439-2.539,5.797
	c0,2.358,0.846,4.291,2.539,5.797c1.692,1.507,3.89,2.26,6.592,2.26c2.702,0,4.899-0.753,6.592-2.26
	c1.692-1.506,2.539-3.438,2.539-5.797C522.113,387.139,521.267,385.206,519.574,383.699z M504.828,456h16.504v-52.832h-16.504V456z
	 M545.053,414.472c1.172-0.96,2.62-1.44,4.346-1.44c4.459,0,6.689,2.116,6.689,6.348h16.504c0-5.144-2.116-9.294-6.348-12.451
	c-4.232-3.157-9.831-4.736-16.797-4.736c-6.478,0-11.719,1.57-15.723,4.712s-6.006,7.137-6.006,11.987c0,2.734,0.7,5.159,2.1,7.275
	c1.399,2.116,3.434,3.914,6.104,5.396c2.669,1.481,6.055,2.678,10.156,3.589s6.885,1.79,8.35,2.637s2.197,1.97,2.197,3.369
	c0,1.465-0.562,2.653-1.685,3.564s-2.808,1.367-5.054,1.367c-2.441,0-4.443-0.562-6.006-1.685s-2.376-2.905-2.441-5.347h-15.381
	c0,3.093,0.993,6.038,2.979,8.838c1.985,2.8,4.752,5.013,8.301,6.641c3.548,1.627,7.584,2.441,12.109,2.441
	c6.803,0,12.345-1.514,16.626-4.541c4.28-3.027,6.421-6.95,6.421-11.768c0-7.063-3.972-11.963-11.914-14.697
	c-2.376-0.813-5.135-1.514-8.276-2.1c-3.142-0.586-5.428-1.335-6.86-2.246c-1.433-0.911-2.148-2.1-2.148-3.564
	C543.295,416.628,543.881,415.432,545.053,414.472z M578.539,456h16.504v-52.832h-16.504V456z M593.285,383.699
	c-1.693-1.506-3.89-2.26-6.592-2.26c-2.702,0-4.899,0.754-6.592,2.26c-1.693,1.507-2.539,3.439-2.539,5.797
	c0,2.358,0.846,4.291,2.539,5.797c1.692,1.507,3.89,2.26,6.592,2.26c2.702,0,4.899-0.753,6.592-2.26
	c1.692-1.506,2.539-3.438,2.539-5.797C595.824,387.139,594.978,385.206,593.285,383.699z M626.039,402.191
	c-5.176,0-9.685,1.106-13.525,3.32c-3.841,2.214-6.787,5.379-8.838,9.497s-3.076,8.813-3.076,14.087l0.049,2.783
	c0.358,7.715,2.815,13.826,7.373,18.335c4.557,4.509,10.596,6.763,18.115,6.763c7.812,0,14.005-2.417,18.579-7.251
	c4.573-4.834,6.86-11.369,6.86-19.604v-0.586c0-8.431-2.279-15.096-6.836-19.995C640.183,404.641,633.949,402.191,626.039,402.191z
	 M635.121,430.756c-0.13,9.017-3.125,13.525-8.984,13.525c-2.995,0-5.257-1.14-6.787-3.418c-1.53-2.278-2.295-5.859-2.295-10.742
	l0.049-2.979c0.456-8.171,3.434-12.256,8.936-12.256c6.055,0,9.082,4.736,9.082,14.209V430.756z M687.064,402.191
	c-6.413,0-11.442,2.393-15.088,7.178l-0.537-6.201h-15.43V456h16.455v-37.305c1.562-2.539,3.955-3.809,7.178-3.809
	c2.832,0,4.785,0.627,5.859,1.88s1.611,3.215,1.611,5.884V456h16.504v-34.033c-0.098-6.608-1.506-11.556-4.224-14.844
	C696.675,403.835,692.565,402.191,687.064,402.191z"/>
<g>
	<path class="st1" d="M206.871,512.384h-9.976v8.701h11.47v1.523h-13.271V501.28h13.198v1.523h-11.396v8.057h9.976V512.384z"/>
	<path class="st1" d="M215.979,513.189l4.277-6.431h2.08l-5.376,7.778l5.61,8.071h-2.065l-4.512-6.709l-4.512,6.709h-2.065
		l5.596-8.071l-5.376-7.778h2.065L215.979,513.189z"/>
	<path class="st1" d="M227.563,502.701v4.058h3.281v1.436h-3.281v10.573c0,0.88,0.159,1.535,0.476,1.965
		c0.317,0.431,0.847,0.646,1.589,0.646c0.293,0,0.767-0.049,1.421-0.146l0.073,1.423c-0.459,0.164-1.084,0.247-1.875,0.247
		c-1.201,0-2.075-0.35-2.622-1.048s-0.82-1.726-0.82-3.083v-10.576h-2.915v-1.436h2.915v-4.058H227.563z"/>
	<path class="st1" d="M239.865,522.901c-1.348,0-2.566-0.332-3.655-0.996s-1.936-1.59-2.542-2.776s-0.908-2.517-0.908-3.991v-0.63
		c0-1.523,0.295-2.896,0.886-4.116s1.414-2.181,2.468-2.879s2.197-1.047,3.428-1.047c1.924,0,3.45,0.656,4.578,1.97
		s1.692,3.108,1.692,5.384v0.981h-11.309v0.337c0,1.797,0.515,3.293,1.545,4.489s2.327,1.795,3.889,1.795
		c0.938,0,1.765-0.171,2.483-0.513s1.37-0.889,1.956-1.641l1.099,0.835C244.187,521.969,242.316,522.901,239.865,522.901z
		 M239.543,507.96c-1.318,0-2.429,0.483-3.333,1.45s-1.453,2.266-1.648,3.896h9.507v-0.19c-0.049-1.523-0.483-2.764-1.304-3.721
		S240.871,507.96,239.543,507.96z"/>
	<path class="st1" d="M255.8,508.253c-0.371-0.068-0.767-0.103-1.187-0.103c-1.094,0-2.019,0.305-2.776,0.915
		s-1.296,1.497-1.619,2.659v10.884h-1.743v-15.85h1.714l0.029,2.52c0.928-1.875,2.417-2.812,4.468-2.812
		c0.488,0,0.874,0.063,1.157,0.19L255.8,508.253z"/>
	<path class="st1" d="M259.488,506.759l0.059,2.71c0.596-0.977,1.338-1.722,2.227-2.234s1.87-0.769,2.944-0.769
		c1.699,0,2.964,0.479,3.794,1.436s1.25,2.393,1.26,4.307v10.4h-1.743v-10.415c-0.01-1.416-0.31-2.471-0.901-3.164
		s-1.536-1.04-2.834-1.04c-1.084,0-2.043,0.339-2.878,1.018s-1.453,1.595-1.853,2.747v10.854h-1.743v-15.85H259.488z"/>
	<path class="st1" d="M283.553,522.608c-0.176-0.498-0.288-1.235-0.337-2.212c-0.615,0.801-1.399,1.418-2.351,1.853
		s-1.96,0.652-3.025,0.652c-1.523,0-2.756-0.425-3.699-1.274s-1.414-1.924-1.414-3.223c0-1.543,0.642-2.764,1.926-3.662
		s3.074-1.348,5.369-1.348h3.179v-1.802c0-1.133-0.349-2.024-1.047-2.674s-1.716-0.974-3.054-0.974
		c-1.221,0-2.231,0.312-3.032,0.938s-1.201,1.377-1.201,2.256l-1.758-0.015c0-1.26,0.586-2.352,1.758-3.274s2.612-1.384,4.321-1.384
		c1.768,0,3.162,0.441,4.182,1.325s1.545,2.117,1.575,3.699v7.5c0,1.533,0.161,2.681,0.483,3.442v0.176H283.553z M278.045,521.349
		c1.172,0,2.219-0.283,3.142-0.85s1.594-1.323,2.014-2.271v-3.486h-3.135c-1.748,0.02-3.115,0.339-4.102,0.959
		s-1.479,1.473-1.479,2.557c0,0.889,0.33,1.626,0.989,2.212S276.99,521.349,278.045,521.349z"/>
	<path class="st1" d="M290.83,522.608h-1.758v-22.5h1.758V522.608z"/>
	<path class="st1" d="M311.391,522.608c-0.176-0.498-0.288-1.235-0.337-2.212c-0.615,0.801-1.399,1.418-2.351,1.853
		s-1.96,0.652-3.025,0.652c-1.523,0-2.756-0.425-3.699-1.274s-1.414-1.924-1.414-3.223c0-1.543,0.642-2.764,1.926-3.662
		s3.074-1.348,5.369-1.348h3.179v-1.802c0-1.133-0.349-2.024-1.047-2.674s-1.716-0.974-3.054-0.974
		c-1.221,0-2.231,0.312-3.032,0.938s-1.201,1.377-1.201,2.256l-1.758-0.015c0-1.26,0.586-2.352,1.758-3.274s2.612-1.384,4.321-1.384
		c1.768,0,3.162,0.441,4.182,1.325s1.545,2.117,1.575,3.699v7.5c0,1.533,0.161,2.681,0.483,3.442v0.176H311.391z M305.883,521.349
		c1.172,0,2.219-0.283,3.142-0.85s1.594-1.323,2.014-2.271v-3.486h-3.135c-1.748,0.02-3.115,0.339-4.102,0.959
		s-1.479,1.473-1.479,2.557c0,0.889,0.33,1.626,0.989,2.212S304.828,521.349,305.883,521.349z"/>
	<path class="st1" d="M322.564,521.422c1.221,0,2.244-0.345,3.069-1.033s1.272-1.579,1.34-2.673h1.685
		c-0.049,0.967-0.352,1.848-0.908,2.644s-1.296,1.419-2.219,1.868s-1.912,0.674-2.966,0.674c-2.08,0-3.728-0.723-4.944-2.168
		s-1.824-3.389-1.824-5.83v-0.527c0-1.562,0.273-2.944,0.82-4.146s1.331-2.129,2.351-2.783s2.214-0.981,3.582-0.981
		c1.738,0,3.171,0.518,4.299,1.553s1.731,2.397,1.809,4.087h-1.685c-0.078-1.24-0.525-2.241-1.34-3.003s-1.843-1.143-3.083-1.143
		c-1.582,0-2.81,0.571-3.684,1.714s-1.311,2.744-1.311,4.805v0.513c0,2.021,0.437,3.599,1.311,4.731
		S320.973,521.422,322.564,521.422z"/>
	<path class="st1" d="M337.269,521.422c1.221,0,2.244-0.345,3.069-1.033s1.272-1.579,1.34-2.673h1.685
		c-0.049,0.967-0.352,1.848-0.908,2.644s-1.296,1.419-2.219,1.868s-1.912,0.674-2.966,0.674c-2.08,0-3.728-0.723-4.944-2.168
		s-1.824-3.389-1.824-5.83v-0.527c0-1.562,0.273-2.944,0.82-4.146s1.331-2.129,2.351-2.783s2.214-0.981,3.582-0.981
		c1.738,0,3.171,0.518,4.299,1.553s1.731,2.397,1.809,4.087h-1.685c-0.078-1.24-0.525-2.241-1.34-3.003s-1.843-1.143-3.083-1.143
		c-1.582,0-2.81,0.571-3.684,1.714s-1.311,2.744-1.311,4.805v0.513c0,2.021,0.437,3.599,1.311,4.731
		S335.677,521.422,337.269,521.422z"/>
	<path class="st1" d="M345.146,514.449c0-1.523,0.295-2.896,0.886-4.116s1.426-2.171,2.505-2.85s2.302-1.018,3.669-1.018
		c2.109,0,3.818,0.739,5.127,2.219s1.963,3.44,1.963,5.882v0.366c0,1.533-0.295,2.912-0.886,4.138s-1.423,2.171-2.498,2.835
		s-2.3,0.996-3.677,0.996c-2.1,0-3.806-0.74-5.12-2.22s-1.97-3.439-1.97-5.881V514.449z M346.904,514.933
		c0,1.895,0.491,3.449,1.472,4.665s2.268,1.824,3.86,1.824c1.582,0,2.864-0.608,3.845-1.824s1.472-2.819,1.472-4.812v-0.337
		c0-1.211-0.225-2.319-0.674-3.325s-1.079-1.785-1.89-2.337s-1.738-0.827-2.783-0.827c-1.562,0-2.837,0.612-3.823,1.838
		s-1.479,2.83-1.479,4.812V514.933z"/>
	<path class="st1" d="M372.36,520.602c-1.055,1.533-2.739,2.3-5.054,2.3c-1.689,0-2.974-0.491-3.853-1.473s-1.328-2.434-1.348-4.357
		v-10.312h1.743v10.093c0,3.018,1.221,4.526,3.662,4.526c2.539,0,4.146-1.05,4.819-3.149v-11.47h1.758v15.85h-1.699L372.36,520.602z
		"/>
	<path class="st1" d="M379.564,506.759l0.059,2.71c0.596-0.977,1.338-1.722,2.227-2.234s1.87-0.769,2.944-0.769
		c1.699,0,2.964,0.479,3.794,1.436s1.25,2.393,1.26,4.307v10.4h-1.743v-10.415c-0.01-1.416-0.31-2.471-0.901-3.164
		s-1.536-1.04-2.834-1.04c-1.084,0-2.043,0.339-2.878,1.018s-1.453,1.595-1.853,2.747v10.854h-1.743v-15.85H379.564z"/>
	<path class="st1" d="M396.349,502.701v4.058h3.281v1.436h-3.281v10.573c0,0.88,0.159,1.535,0.476,1.965
		c0.317,0.431,0.847,0.646,1.589,0.646c0.293,0,0.767-0.049,1.421-0.146l0.073,1.423c-0.459,0.164-1.084,0.247-1.875,0.247
		c-1.201,0-2.075-0.35-2.622-1.048s-0.82-1.726-0.82-3.083v-10.576h-2.915v-1.436h2.915v-4.058H396.349z"/>
	<path class="st1" d="M412.518,522.608c-0.176-0.498-0.288-1.235-0.337-2.212c-0.615,0.801-1.399,1.418-2.351,1.853
		s-1.96,0.652-3.025,0.652c-1.523,0-2.756-0.425-3.699-1.274s-1.414-1.924-1.414-3.223c0-1.543,0.642-2.764,1.926-3.662
		s3.074-1.348,5.369-1.348h3.179v-1.802c0-1.133-0.349-2.024-1.047-2.674s-1.716-0.974-3.054-0.974
		c-1.221,0-2.231,0.312-3.032,0.938s-1.201,1.377-1.201,2.256l-1.758-0.015c0-1.26,0.586-2.352,1.758-3.274s2.612-1.384,4.321-1.384
		c1.768,0,3.162,0.441,4.182,1.325s1.545,2.117,1.575,3.699v7.5c0,1.533,0.161,2.681,0.483,3.442v0.176H412.518z M407.01,521.349
		c1.172,0,2.219-0.283,3.142-0.85s1.594-1.323,2.014-2.271v-3.486h-3.135c-1.748,0.02-3.115,0.339-4.102,0.959
		s-1.479,1.473-1.479,2.557c0,0.889,0.33,1.626,0.989,2.212S405.955,521.349,407.01,521.349z"/>
	<path class="st1" d="M430.591,514.845c0,2.471-0.547,4.431-1.641,5.881s-2.563,2.176-4.409,2.176c-2.207,0-3.877-0.82-5.01-2.461
		l-0.073,2.168h-1.641v-22.5h1.743v8.95c1.113-1.729,2.764-2.593,4.951-2.593c1.875,0,3.357,0.715,4.446,2.146
		s1.633,3.421,1.633,5.97V514.845z M428.833,514.537c0-2.09-0.405-3.704-1.216-4.842s-1.953-1.706-3.428-1.706
		c-1.123,0-2.075,0.275-2.856,0.827s-1.372,1.36-1.772,2.425v7.148c0.879,1.992,2.432,2.988,4.658,2.988
		c1.445,0,2.576-0.571,3.391-1.714S428.833,516.812,428.833,514.537z"/>
	<path class="st1" d="M433.605,502.181c0-0.33,0.107-0.608,0.322-0.837c0.215-0.228,0.508-0.342,0.879-0.342
		s0.667,0.114,0.886,0.342c0.22,0.229,0.33,0.507,0.33,0.837s-0.11,0.606-0.33,0.83s-0.515,0.335-0.886,0.335
		s-0.664-0.111-0.879-0.335S433.605,502.511,433.605,502.181z M435.671,522.608h-1.758v-15.85h1.758V522.608z"/>
	<path class="st1" d="M441.645,522.608h-1.758v-22.5h1.758V522.608z"/>
	<path class="st1" d="M445.553,502.181c0-0.33,0.107-0.608,0.322-0.837c0.215-0.228,0.508-0.342,0.879-0.342
		s0.667,0.114,0.886,0.342c0.22,0.229,0.33,0.507,0.33,0.837s-0.11,0.606-0.33,0.83s-0.515,0.335-0.886,0.335
		s-0.664-0.111-0.879-0.335S445.553,502.511,445.553,502.181z M447.618,522.608h-1.758v-15.85h1.758V522.608z"/>
	<path class="st1" d="M454.354,502.701v4.058h3.281v1.436h-3.281v10.573c0,0.88,0.159,1.535,0.476,1.965
		c0.317,0.431,0.847,0.646,1.589,0.646c0.293,0,0.767-0.049,1.421-0.146l0.073,1.423c-0.459,0.164-1.084,0.247-1.875,0.247
		c-1.201,0-2.075-0.35-2.622-1.048s-0.82-1.726-0.82-3.083v-10.576h-2.915v-1.436h2.915v-4.058H454.354z"/>
	<path class="st1" d="M465.542,520.089l4.629-13.33h1.89l-6.768,18.545l-0.352,0.82c-0.869,1.924-2.212,2.886-4.028,2.886
		c-0.42,0-0.869-0.068-1.348-0.205l-0.015-1.45l0.908,0.088c0.859,0,1.555-0.213,2.087-0.638s0.984-1.154,1.355-2.189l0.776-2.139
		l-5.977-15.718h1.919L465.542,520.089z"/>
	<path class="st1" d="M472.087,526.593l-1.04-0.762c0.889-1.191,1.348-2.427,1.377-3.706v-2.271h1.714v1.831
		C474.138,523.717,473.454,525.353,472.087,526.593z"/>
	<path class="st1" d="M485.953,522.608h-1.758v-22.5h1.758V522.608z"/>
	<path class="st1" d="M496.102,522.901c-1.348,0-2.566-0.332-3.655-0.996s-1.936-1.59-2.542-2.776s-0.908-2.517-0.908-3.991v-0.63
		c0-1.523,0.295-2.896,0.886-4.116s1.414-2.181,2.468-2.879s2.197-1.047,3.428-1.047c1.924,0,3.45,0.656,4.578,1.97
		s1.692,3.108,1.692,5.384v0.981H490.74v0.337c0,1.797,0.515,3.293,1.545,4.489s2.327,1.795,3.889,1.795
		c0.938,0,1.765-0.171,2.483-0.513s1.37-0.889,1.956-1.641l1.099,0.835C500.423,521.969,498.553,522.901,496.102,522.901z
		 M495.779,507.96c-1.318,0-2.429,0.483-3.333,1.45s-1.453,2.266-1.648,3.896h9.507v-0.19c-0.049-1.523-0.483-2.764-1.304-3.721
		S497.107,507.96,495.779,507.96z"/>
	<path class="st1" d="M504.009,514.537c0-2.48,0.549-4.446,1.648-5.896s2.59-2.175,4.475-2.175c2.158,0,3.799,0.859,4.922,2.578
		l0.088-2.285h1.641v15.527c0,2.041-0.571,3.657-1.714,4.849s-2.69,1.787-4.644,1.787c-1.104,0-2.156-0.247-3.157-0.74
		s-1.79-1.149-2.366-1.97l0.981-1.055c1.24,1.523,2.715,2.285,4.424,2.285c1.465,0,2.607-0.433,3.428-1.297s1.245-2.062,1.274-3.596
		v-1.992c-1.123,1.562-2.759,2.344-4.907,2.344c-1.836,0-3.311-0.732-4.424-2.197s-1.67-3.442-1.67-5.933V514.537z M505.781,514.845
		c0,2.021,0.405,3.615,1.216,4.782s1.953,1.751,3.428,1.751c2.158,0,3.687-0.967,4.585-2.9v-7.368
		c-0.41-1.016-1.001-1.79-1.772-2.322s-1.699-0.798-2.783-0.798c-1.475,0-2.622,0.578-3.442,1.735S505.781,512.589,505.781,514.845z
		"/>
	<path class="st1" d="M520.5,502.181c0-0.33,0.107-0.608,0.322-0.837c0.215-0.228,0.508-0.342,0.879-0.342s0.667,0.114,0.886,0.342
		c0.22,0.229,0.33,0.507,0.33,0.837s-0.11,0.606-0.33,0.83s-0.515,0.335-0.886,0.335s-0.664-0.111-0.879-0.335
		S520.5,502.511,520.5,502.181z M522.565,522.608h-1.758v-15.85h1.758V522.608z"/>
	<path class="st1" d="M536.068,518.58c0-0.869-0.349-1.567-1.047-2.095s-1.75-0.94-3.157-1.238s-2.498-0.64-3.274-1.025
		s-1.353-0.856-1.729-1.413s-0.564-1.23-0.564-2.021c0-1.25,0.522-2.283,1.567-3.099s2.383-1.223,4.014-1.223
		c1.768,0,3.186,0.437,4.255,1.311s1.604,2.015,1.604,3.421h-1.758c0-0.928-0.388-1.699-1.165-2.314s-1.755-0.923-2.937-0.923
		c-1.152,0-2.078,0.256-2.776,0.769s-1.047,1.18-1.047,2c0,0.791,0.291,1.403,0.872,1.838s1.641,0.833,3.179,1.194
		s2.69,0.747,3.457,1.157s1.335,0.903,1.707,1.479s0.557,1.274,0.557,2.095c0,1.338-0.54,2.407-1.619,3.208
		s-2.488,1.201-4.226,1.201c-1.846,0-3.342-0.447-4.49-1.341s-1.721-2.023-1.721-3.391h1.758c0.068,1.025,0.5,1.823,1.296,2.395
		s1.848,0.857,3.157,0.857c1.221,0,2.207-0.269,2.959-0.806S536.068,519.4,536.068,518.58z"/>
	<path class="st1" d="M542.979,522.608h-1.758v-22.5h1.758V522.608z"/>
	<path class="st1" d="M556.995,522.608c-0.176-0.498-0.288-1.235-0.337-2.212c-0.615,0.801-1.399,1.418-2.351,1.853
		s-1.96,0.652-3.025,0.652c-1.523,0-2.756-0.425-3.699-1.274s-1.414-1.924-1.414-3.223c0-1.543,0.642-2.764,1.926-3.662
		s3.074-1.348,5.369-1.348h3.179v-1.802c0-1.133-0.349-2.024-1.047-2.674s-1.716-0.974-3.054-0.974
		c-1.221,0-2.231,0.312-3.032,0.938s-1.201,1.377-1.201,2.256l-1.758-0.015c0-1.26,0.586-2.352,1.758-3.274s2.612-1.384,4.321-1.384
		c1.768,0,3.162,0.441,4.182,1.325s1.545,2.117,1.575,3.699v7.5c0,1.533,0.161,2.681,0.483,3.442v0.176H556.995z M551.487,521.349
		c1.172,0,2.219-0.283,3.142-0.85s1.594-1.323,2.014-2.271v-3.486h-3.135c-1.748,0.02-3.115,0.339-4.102,0.959
		s-1.479,1.473-1.479,2.557c0,0.889,0.33,1.626,0.989,2.212S550.433,521.349,551.487,521.349z"/>
	<path class="st1" d="M565.034,502.701v4.058h3.281v1.436h-3.281v10.573c0,0.88,0.159,1.535,0.476,1.965
		c0.317,0.431,0.847,0.646,1.589,0.646c0.293,0,0.767-0.049,1.421-0.146l0.073,1.423c-0.459,0.164-1.084,0.247-1.875,0.247
		c-1.201,0-2.075-0.35-2.622-1.048s-0.82-1.726-0.82-3.083v-10.576h-2.915v-1.436h2.915v-4.058H565.034z"/>
	<path class="st1" d="M571.096,502.181c0-0.33,0.107-0.608,0.322-0.837c0.215-0.228,0.508-0.342,0.879-0.342
		s0.667,0.114,0.886,0.342c0.22,0.229,0.33,0.507,0.33,0.837s-0.11,0.606-0.33,0.83s-0.515,0.335-0.886,0.335
		s-0.664-0.111-0.879-0.335S571.096,502.511,571.096,502.181z M573.161,522.608h-1.758v-15.85h1.758V522.608z"/>
	<path class="st1" d="M582.108,520.191l4.819-13.433h1.802l-5.918,15.85h-1.421l-5.947-15.85h1.802L582.108,520.191z"/>
	<path class="st1" d="M596.798,522.901c-1.348,0-2.566-0.332-3.655-0.996s-1.936-1.59-2.542-2.776s-0.908-2.517-0.908-3.991v-0.63
		c0-1.523,0.295-2.896,0.886-4.116s1.414-2.181,2.468-2.879s2.197-1.047,3.428-1.047c1.924,0,3.45,0.656,4.578,1.97
		s1.692,3.108,1.692,5.384v0.981h-11.309v0.337c0,1.797,0.515,3.293,1.545,4.489s2.327,1.795,3.889,1.795
		c0.938,0,1.765-0.171,2.483-0.513s1.37-0.889,1.956-1.641l1.099,0.835C601.119,521.969,599.249,522.901,596.798,522.901z
		 M596.476,507.96c-1.318,0-2.429,0.483-3.333,1.45s-1.453,2.266-1.648,3.896h9.507v-0.19c-0.049-1.523-0.483-2.764-1.304-3.721
		S597.804,507.96,596.476,507.96z"/>
	<path class="st1" d="M619.277,508.253c-0.371-0.068-0.767-0.103-1.187-0.103c-1.094,0-2.019,0.305-2.776,0.915
		s-1.296,1.497-1.619,2.659v10.884h-1.743v-15.85h1.714l0.029,2.52c0.928-1.875,2.417-2.812,4.468-2.812
		c0.488,0,0.874,0.063,1.157,0.19L619.277,508.253z"/>
	<path class="st1" d="M627.155,522.901c-1.348,0-2.566-0.332-3.655-0.996s-1.936-1.59-2.542-2.776s-0.908-2.517-0.908-3.991v-0.63
		c0-1.523,0.295-2.896,0.886-4.116s1.414-2.181,2.468-2.879s2.197-1.047,3.428-1.047c1.924,0,3.45,0.656,4.578,1.97
		s1.692,3.108,1.692,5.384v0.981h-11.309v0.337c0,1.797,0.515,3.293,1.545,4.489s2.327,1.795,3.889,1.795
		c0.938,0,1.765-0.171,2.483-0.513s1.37-0.889,1.956-1.641l1.099,0.835C631.477,521.969,629.606,522.901,627.155,522.901z
		 M626.833,507.96c-1.318,0-2.429,0.483-3.333,1.45s-1.453,2.266-1.648,3.896h9.507v-0.19c-0.049-1.523-0.483-2.764-1.304-3.721
		S628.161,507.96,626.833,507.96z"/>
	<path class="st1" d="M637.025,522.608v-14.414h-2.622v-1.436h2.622v-1.919c0-1.621,0.413-2.866,1.238-3.735s1.975-1.304,3.45-1.304
		c0.664,0,1.284,0.082,1.86,0.246l-0.132,1.453c-0.488-0.117-1.021-0.176-1.597-0.176c-0.967,0-1.719,0.301-2.256,0.903
		c-0.537,0.602-0.806,1.456-0.806,2.562v1.969h3.779v1.436h-3.779v14.414H637.025z"/>
	<path class="st1" d="M643.98,514.449c0-1.523,0.295-2.896,0.886-4.116s1.426-2.171,2.505-2.85s2.302-1.018,3.669-1.018
		c2.109,0,3.818,0.739,5.127,2.219s1.963,3.44,1.963,5.882v0.366c0,1.533-0.295,2.912-0.886,4.138s-1.423,2.171-2.498,2.835
		s-2.3,0.996-3.677,0.996c-2.1,0-3.806-0.74-5.12-2.22s-1.97-3.439-1.97-5.881V514.449z M645.738,514.933
		c0,1.895,0.491,3.449,1.472,4.665s2.268,1.824,3.86,1.824c1.582,0,2.864-0.608,3.845-1.824s1.472-2.819,1.472-4.812v-0.337
		c0-1.211-0.225-2.319-0.674-3.325s-1.079-1.785-1.89-2.337s-1.738-0.827-2.783-0.827c-1.562,0-2.837,0.612-3.823,1.838
		s-1.479,2.83-1.479,4.812V514.933z"/>
	<path class="st1" d="M668.323,508.253c-0.371-0.068-0.767-0.103-1.187-0.103c-1.094,0-2.019,0.305-2.776,0.915
		s-1.296,1.497-1.619,2.659v10.884h-1.743v-15.85h1.714l0.029,2.52c0.928-1.875,2.417-2.812,4.468-2.812
		c0.488,0,0.874,0.063,1.157,0.19L668.323,508.253z"/>
	<path class="st1" d="M671.938,506.759l0.059,2.578c0.586-0.957,1.318-1.675,2.197-2.153s1.855-0.718,2.93-0.718
		c2.5,0,4.087,1.025,4.761,3.076c0.566-0.986,1.323-1.746,2.271-2.278s1.992-0.798,3.135-0.798c3.398,0,5.132,1.855,5.2,5.566
		v10.576h-1.758v-10.444c-0.01-1.416-0.315-2.466-0.916-3.149s-1.58-1.025-2.937-1.025c-1.26,0.02-2.324,0.427-3.193,1.223
		s-1.353,1.766-1.45,2.908v10.488h-1.758v-10.576c-0.01-1.357-0.33-2.371-0.959-3.04s-1.599-1.003-2.908-1.003
		c-1.104,0-2.051,0.314-2.842,0.944s-1.377,1.565-1.758,2.806v10.869h-1.758v-15.85H671.938z"/>
	<path class="st1" d="M695.812,526.593l-1.04-0.762c0.889-1.191,1.348-2.427,1.377-3.706v-2.271h1.714v1.831
		C697.863,523.717,697.18,525.353,695.812,526.593z"/>
	<path class="st1" d="M709.679,522.608h-1.758v-22.5h1.758V522.608z"/>
	<path class="st1" d="M712.723,514.449c0-1.523,0.295-2.896,0.886-4.116s1.426-2.171,2.505-2.85s2.302-1.018,3.669-1.018
		c2.109,0,3.818,0.739,5.127,2.219s1.963,3.44,1.963,5.882v0.366c0,1.533-0.295,2.912-0.886,4.138s-1.423,2.171-2.498,2.835
		s-2.3,0.996-3.677,0.996c-2.1,0-3.806-0.74-5.12-2.22s-1.97-3.439-1.97-5.881V514.449z M714.48,514.933
		c0,1.895,0.491,3.449,1.472,4.665s2.268,1.824,3.86,1.824c1.582,0,2.864-0.608,3.845-1.824s1.472-2.819,1.472-4.812v-0.337
		c0-1.211-0.225-2.319-0.674-3.325s-1.079-1.785-1.89-2.337s-1.738-0.827-2.783-0.827c-1.562,0-2.837,0.612-3.823,1.838
		s-1.479,2.83-1.479,4.812V514.933z"/>
	<path class="st1" d="M735.601,521.422c1.221,0,2.244-0.345,3.069-1.033s1.272-1.579,1.34-2.673h1.685
		c-0.049,0.967-0.352,1.848-0.908,2.644s-1.296,1.419-2.219,1.868s-1.912,0.674-2.966,0.674c-2.08,0-3.728-0.723-4.944-2.168
		s-1.824-3.389-1.824-5.83v-0.527c0-1.562,0.273-2.944,0.82-4.146s1.331-2.129,2.351-2.783s2.214-0.981,3.582-0.981
		c1.738,0,3.171,0.518,4.299,1.553s1.731,2.397,1.809,4.087h-1.685c-0.078-1.24-0.525-2.241-1.34-3.003s-1.843-1.143-3.083-1.143
		c-1.582,0-2.81,0.571-3.684,1.714s-1.311,2.744-1.311,4.805v0.513c0,2.021,0.437,3.599,1.311,4.731
		S734.009,521.422,735.601,521.422z"/>
	<path class="st1" d="M754.45,522.608c-0.176-0.498-0.288-1.235-0.337-2.212c-0.615,0.801-1.399,1.418-2.351,1.853
		s-1.96,0.652-3.025,0.652c-1.523,0-2.756-0.425-3.699-1.274s-1.414-1.924-1.414-3.223c0-1.543,0.642-2.764,1.926-3.662
		s3.074-1.348,5.369-1.348h3.179v-1.802c0-1.133-0.349-2.024-1.047-2.674s-1.716-0.974-3.054-0.974
		c-1.221,0-2.231,0.312-3.032,0.938s-1.201,1.377-1.201,2.256l-1.758-0.015c0-1.26,0.586-2.352,1.758-3.274s2.612-1.384,4.321-1.384
		c1.768,0,3.162,0.441,4.182,1.325s1.545,2.117,1.575,3.699v7.5c0,1.533,0.161,2.681,0.483,3.442v0.176H754.45z M748.942,521.349
		c1.172,0,2.219-0.283,3.142-0.85s1.594-1.323,2.014-2.271v-3.486h-3.135c-1.748,0.02-3.115,0.339-4.102,0.959
		s-1.479,1.473-1.479,2.557c0,0.889,0.33,1.626,0.989,2.212S747.888,521.349,748.942,521.349z"/>
	<path class="st1" d="M761.728,522.608h-1.758v-22.5h1.758V522.608z"/>
	<path class="st1" d="M773.88,506.759l0.059,2.578c0.586-0.957,1.318-1.675,2.197-2.153s1.855-0.718,2.93-0.718
		c2.5,0,4.087,1.025,4.761,3.076c0.566-0.986,1.323-1.746,2.271-2.278s1.992-0.798,3.135-0.798c3.398,0,5.132,1.855,5.2,5.566
		v10.576h-1.758v-10.444c-0.01-1.416-0.315-2.466-0.916-3.149s-1.58-1.025-2.937-1.025c-1.26,0.02-2.324,0.427-3.193,1.223
		s-1.353,1.766-1.45,2.908v10.488h-1.758v-10.576c-0.01-1.357-0.33-2.371-0.959-3.04s-1.599-1.003-2.908-1.003
		c-1.104,0-2.051,0.314-2.842,0.944s-1.377,1.565-1.758,2.806v10.869h-1.758v-15.85H773.88z"/>
	<path class="st1" d="M808.125,522.608c-0.176-0.498-0.288-1.235-0.337-2.212c-0.615,0.801-1.398,1.418-2.351,1.853
		s-1.961,0.652-3.025,0.652c-1.523,0-2.756-0.425-3.698-1.274s-1.414-1.924-1.414-3.223c0-1.543,0.642-2.764,1.926-3.662
		s3.073-1.348,5.368-1.348h3.179v-1.802c0-1.133-0.349-2.024-1.047-2.674s-1.717-0.974-3.055-0.974
		c-1.221,0-2.231,0.312-3.032,0.938c-0.801,0.625-1.201,1.377-1.201,2.256l-1.758-0.015c0-1.26,0.586-2.352,1.758-3.274
		s2.612-1.384,4.321-1.384c1.768,0,3.162,0.441,4.183,1.325s1.545,2.117,1.574,3.699v7.5c0,1.533,0.161,2.681,0.483,3.442v0.176
		H808.125z M802.617,521.349c1.172,0,2.22-0.283,3.143-0.85s1.594-1.323,2.014-2.271v-3.486h-3.135
		c-1.748,0.02-3.115,0.339-4.101,0.959c-0.986,0.62-1.479,1.473-1.479,2.557c0,0.889,0.33,1.626,0.989,2.212
		S801.562,521.349,802.617,521.349z"/>
	<path class="st1" d="M815.109,506.759l0.059,2.71c0.596-0.977,1.338-1.722,2.227-2.234s1.87-0.769,2.944-0.769
		c1.699,0,2.964,0.479,3.794,1.436s1.25,2.393,1.26,4.307v10.4h-1.743v-10.415c-0.01-1.416-0.31-2.471-0.9-3.164
		s-1.536-1.04-2.835-1.04c-1.084,0-2.043,0.339-2.878,1.018s-1.453,1.595-1.854,2.747v10.854h-1.743v-15.85H815.109z"/>
	<path class="st1" d="M828.466,514.537c0-2.461,0.55-4.422,1.648-5.882s2.59-2.189,4.475-2.189c2.139,0,3.77,0.845,4.893,2.534
		v-8.892h1.743v22.5h-1.641l-0.073-2.109c-1.123,1.602-2.773,2.402-4.951,2.402c-1.826,0-3.298-0.735-4.416-2.205
		s-1.678-3.454-1.678-5.954V514.537z M830.238,514.845c0,2.021,0.405,3.615,1.216,4.782s1.953,1.751,3.428,1.751
		c2.158,0,3.691-0.952,4.6-2.856v-7.441c-0.908-2.061-2.432-3.091-4.57-3.091c-1.475,0-2.622,0.578-3.442,1.735
		S830.238,512.589,830.238,514.845z"/>
	<path class="st1" d="M855.094,522.608c-0.176-0.498-0.288-1.235-0.337-2.212c-0.615,0.801-1.398,1.418-2.352,1.853
		c-0.951,0.435-1.96,0.652-3.024,0.652c-1.523,0-2.757-0.425-3.698-1.274c-0.943-0.85-1.414-1.924-1.414-3.223
		c0-1.543,0.642-2.764,1.926-3.662s3.074-1.348,5.369-1.348h3.179v-1.802c0-1.133-0.35-2.024-1.048-2.674s-1.716-0.974-3.054-0.974
		c-1.221,0-2.231,0.312-3.032,0.938s-1.201,1.377-1.201,2.256l-1.758-0.015c0-1.26,0.586-2.352,1.758-3.274s2.612-1.384,4.321-1.384
		c1.768,0,3.161,0.441,4.183,1.325c1.02,0.884,1.545,2.117,1.574,3.699v7.5c0,1.533,0.161,2.681,0.483,3.442v0.176H855.094z
		 M849.586,521.349c1.172,0,2.22-0.283,3.142-0.85c0.924-0.566,1.595-1.323,2.015-2.271v-3.486h-3.135
		c-1.748,0.02-3.115,0.339-4.102,0.959s-1.479,1.473-1.479,2.557c0,0.889,0.33,1.626,0.988,2.212
		C847.675,521.056,848.531,521.349,849.586,521.349z"/>
	<path class="st1" d="M863.133,502.701v4.058h3.281v1.436h-3.281v10.573c0,0.88,0.158,1.535,0.477,1.965
		c0.316,0.431,0.847,0.646,1.589,0.646c0.293,0,0.767-0.049,1.421-0.146l0.073,1.423c-0.459,0.164-1.084,0.247-1.875,0.247
		c-1.201,0-2.075-0.35-2.622-1.048s-0.82-1.726-0.82-3.083v-10.576h-2.915v-1.436h2.915v-4.058H863.133z"/>
	<path class="st1" d="M875.435,522.901c-1.348,0-2.566-0.332-3.655-0.996s-1.936-1.59-2.541-2.776s-0.908-2.517-0.908-3.991v-0.63
		c0-1.523,0.295-2.896,0.887-4.116c0.59-1.221,1.413-2.181,2.468-2.879s2.197-1.047,3.428-1.047c1.924,0,3.45,0.656,4.577,1.97
		c1.129,1.313,1.692,3.108,1.692,5.384v0.981h-11.309v0.337c0,1.797,0.515,3.293,1.546,4.489c1.029,1.196,2.326,1.795,3.889,1.795
		c0.938,0,1.766-0.171,2.482-0.513c0.719-0.342,1.37-0.889,1.956-1.641l1.099,0.835
		C879.756,521.969,877.886,522.901,875.435,522.901z M875.112,507.96c-1.318,0-2.43,0.483-3.333,1.45s-1.452,2.266-1.647,3.896
		h9.507v-0.19c-0.049-1.523-0.483-2.764-1.304-3.721S876.44,507.96,875.112,507.96z"/>
	<path class="st1" d="M893.537,518.58c0-0.869-0.35-1.567-1.047-2.095c-0.699-0.527-1.751-0.94-3.157-1.238s-2.497-0.64-3.274-1.025
		c-0.775-0.386-1.353-0.856-1.729-1.413s-0.563-1.23-0.563-2.021c0-1.25,0.522-2.283,1.567-3.099s2.383-1.223,4.014-1.223
		c1.768,0,3.186,0.437,4.256,1.311c1.068,0.874,1.604,2.015,1.604,3.421h-1.758c0-0.928-0.389-1.699-1.164-2.314
		c-0.777-0.615-1.756-0.923-2.938-0.923c-1.152,0-2.078,0.256-2.775,0.769c-0.699,0.513-1.048,1.18-1.048,2
		c0,0.791,0.29,1.403,0.872,1.838c0.58,0.435,1.641,0.833,3.178,1.194c1.539,0.361,2.69,0.747,3.457,1.157s1.336,0.903,1.707,1.479
		s0.557,1.274,0.557,2.095c0,1.338-0.54,2.407-1.619,3.208s-2.487,1.201-4.226,1.201c-1.846,0-3.343-0.447-4.489-1.341
		c-1.148-0.894-1.722-2.023-1.722-3.391h1.758c0.068,1.025,0.5,1.823,1.296,2.395s1.849,0.857,3.157,0.857
		c1.221,0,2.207-0.269,2.959-0.806S893.537,519.4,893.537,518.58z"/>
	<path class="st1" d="M898.119,526.593l-1.04-0.762c0.889-1.191,1.348-2.427,1.377-3.706v-2.271h1.714v1.831
		C900.17,523.717,899.486,525.353,898.119,526.593z"/>
	<path class="st1" d="M920.027,522.608c-0.176-0.498-0.288-1.235-0.337-2.212c-0.615,0.801-1.398,1.418-2.352,1.853
		c-0.951,0.435-1.96,0.652-3.024,0.652c-1.523,0-2.757-0.425-3.698-1.274c-0.943-0.85-1.414-1.924-1.414-3.223
		c0-1.543,0.642-2.764,1.926-3.662s3.074-1.348,5.369-1.348h3.179v-1.802c0-1.133-0.35-2.024-1.048-2.674s-1.716-0.974-3.054-0.974
		c-1.221,0-2.231,0.312-3.032,0.938s-1.201,1.377-1.201,2.256l-1.758-0.015c0-1.26,0.586-2.352,1.758-3.274s2.612-1.384,4.321-1.384
		c1.768,0,3.161,0.441,4.183,1.325c1.02,0.884,1.545,2.117,1.574,3.699v7.5c0,1.533,0.161,2.681,0.483,3.442v0.176H920.027z
		 M914.52,521.349c1.172,0,2.22-0.283,3.142-0.85c0.924-0.566,1.595-1.323,2.015-2.271v-3.486h-3.135
		c-1.748,0.02-3.115,0.339-4.102,0.959s-1.479,1.473-1.479,2.557c0,0.889,0.33,1.626,0.988,2.212
		C912.608,521.056,913.465,521.349,914.52,521.349z"/>
	<path class="st1" d="M927.012,506.759l0.059,2.71c0.596-0.977,1.338-1.722,2.227-2.234s1.87-0.769,2.944-0.769
		c1.699,0,2.964,0.479,3.794,1.436s1.25,2.393,1.26,4.307v10.4h-1.743v-10.415c-0.01-1.416-0.311-2.471-0.901-3.164
		s-1.535-1.04-2.834-1.04c-1.084,0-2.043,0.339-2.879,1.018c-0.834,0.679-1.452,1.595-1.853,2.747v10.854h-1.743v-15.85H927.012z"/>
	<path class="st1" d="M940.368,514.537c0-2.461,0.549-4.422,1.648-5.882c1.098-1.46,2.59-2.189,4.475-2.189
		c2.139,0,3.77,0.845,4.893,2.534v-8.892h1.743v22.5h-1.641l-0.073-2.109c-1.123,1.602-2.773,2.402-4.951,2.402
		c-1.826,0-3.299-0.735-4.416-2.205c-1.119-1.47-1.678-3.454-1.678-5.954V514.537z M942.141,514.845
		c0,2.021,0.405,3.615,1.216,4.782s1.953,1.751,3.428,1.751c2.158,0,3.691-0.952,4.6-2.856v-7.441
		c-0.908-2.061-2.432-3.091-4.57-3.091c-1.475,0-2.622,0.578-3.442,1.735S942.141,512.589,942.141,514.845z"/>
	<path class="st1" d="M966.261,502.701v4.058h3.281v1.436h-3.281v10.573c0,0.88,0.158,1.535,0.477,1.965
		c0.316,0.431,0.847,0.646,1.589,0.646c0.293,0,0.767-0.049,1.421-0.146l0.073,1.423c-0.459,0.164-1.084,0.247-1.875,0.247
		c-1.201,0-2.075-0.35-2.622-1.048s-0.82-1.726-0.82-3.083v-10.576h-2.915v-1.436h2.915v-4.058H966.261z"/>
	<path class="st1" d="M974.168,509.439c0.576-0.947,1.313-1.68,2.212-2.197s1.88-0.776,2.944-0.776c1.699,0,2.964,0.479,3.794,1.436
		s1.25,2.393,1.26,4.307v10.4h-1.743v-10.415c-0.01-1.416-0.311-2.471-0.901-3.164s-1.535-1.04-2.834-1.04
		c-1.084,0-2.043,0.339-2.879,1.018c-0.834,0.679-1.452,1.595-1.853,2.747v10.854h-1.743v-22.5h1.743V509.439z"/>
	<path class="st1" d="M994.277,522.901c-1.348,0-2.566-0.332-3.655-0.996s-1.936-1.59-2.541-2.776s-0.908-2.517-0.908-3.991v-0.63
		c0-1.523,0.295-2.896,0.887-4.116c0.59-1.221,1.413-2.181,2.468-2.879s2.197-1.047,3.428-1.047c1.924,0,3.45,0.656,4.577,1.97
		c1.129,1.313,1.692,3.108,1.692,5.384v0.981h-11.309v0.337c0,1.797,0.515,3.293,1.546,4.489c1.029,1.196,2.326,1.795,3.889,1.795
		c0.938,0,1.766-0.171,2.482-0.513c0.719-0.342,1.37-0.889,1.956-1.641l1.099,0.835
		C998.599,521.969,996.729,522.901,994.277,522.901z M993.955,507.96c-1.318,0-2.43,0.483-3.333,1.45s-1.452,2.266-1.647,3.896
		h9.507v-0.19c-0.049-1.523-0.483-2.764-1.304-3.721S995.283,507.96,993.955,507.96z"/>
	<path class="st1" d="M1008.729,514.537c0-2.461,0.549-4.422,1.648-5.882c1.098-1.46,2.59-2.189,4.475-2.189
		c2.139,0,3.77,0.845,4.893,2.534v-8.892h1.743v22.5h-1.641l-0.073-2.109c-1.123,1.602-2.773,2.402-4.951,2.402
		c-1.826,0-3.299-0.735-4.416-2.205c-1.119-1.47-1.678-3.454-1.678-5.954V514.537z M1010.502,514.845
		c0,2.021,0.405,3.615,1.216,4.782s1.953,1.751,3.428,1.751c2.158,0,3.691-0.952,4.6-2.856v-7.441
		c-0.908-2.061-2.432-3.091-4.57-3.091c-1.475,0-2.622,0.578-3.442,1.735S1010.502,512.589,1010.502,514.845z"/>
	<path class="st1" d="M1035.357,522.608c-0.176-0.498-0.288-1.235-0.337-2.212c-0.615,0.801-1.398,1.418-2.352,1.853
		c-0.951,0.435-1.96,0.652-3.024,0.652c-1.523,0-2.757-0.425-3.698-1.274c-0.943-0.85-1.414-1.924-1.414-3.223
		c0-1.543,0.642-2.764,1.926-3.662s3.074-1.348,5.369-1.348h3.179v-1.802c0-1.133-0.35-2.024-1.048-2.674s-1.716-0.974-3.054-0.974
		c-1.221,0-2.231,0.312-3.032,0.938s-1.201,1.377-1.201,2.256l-1.758-0.015c0-1.26,0.586-2.352,1.758-3.274s2.612-1.384,4.321-1.384
		c1.768,0,3.161,0.441,4.183,1.325c1.02,0.884,1.545,2.117,1.574,3.699v7.5c0,1.533,0.161,2.681,0.483,3.442v0.176H1035.357z
		 M1029.85,521.349c1.172,0,2.22-0.283,3.142-0.85c0.924-0.566,1.595-1.323,2.015-2.271v-3.486h-3.135
		c-1.748,0.02-3.115,0.339-4.102,0.959s-1.479,1.473-1.479,2.557c0,0.889,0.33,1.626,0.988,2.212
		C1027.938,521.056,1028.795,521.349,1029.85,521.349z"/>
	<path class="st1" d="M1045.477,520.089l4.629-13.33h1.89l-6.768,18.545l-0.352,0.82c-0.869,1.924-2.212,2.886-4.028,2.886
		c-0.42,0-0.869-0.068-1.348-0.205l-0.015-1.45l0.908,0.088c0.859,0,1.555-0.213,2.088-0.638c0.531-0.425,0.983-1.154,1.354-2.189
		l0.776-2.139l-5.977-15.718h1.919L1045.477,520.089z"/>
	<path class="st1" d="M1059.404,513.937h-7.017v-1.479h7.017V513.937z"/>
	<path class="st1" d="M1064.514,502.701v4.058h3.281v1.436h-3.281v10.573c0,0.88,0.158,1.535,0.477,1.965
		c0.316,0.431,0.847,0.646,1.589,0.646c0.293,0,0.767-0.049,1.421-0.146l0.073,1.423c-0.459,0.164-1.084,0.247-1.875,0.247
		c-1.201,0-2.075-0.35-2.622-1.048s-0.82-1.726-0.82-3.083v-10.576h-2.915v-1.436h2.915v-4.058H1064.514z"/>
	<path class="st1" d="M1069.418,514.449c0-1.523,0.295-2.896,0.887-4.116c0.59-1.221,1.425-2.171,2.504-2.85s2.303-1.018,3.67-1.018
		c2.109,0,3.818,0.739,5.127,2.219s1.963,3.44,1.963,5.882v0.366c0,1.533-0.296,2.912-0.887,4.138s-1.423,2.171-2.497,2.835
		s-2.3,0.996-3.677,0.996c-2.1,0-3.807-0.74-5.119-2.22c-1.314-1.479-1.971-3.439-1.971-5.881V514.449z M1071.176,514.933
		c0,1.895,0.49,3.449,1.473,4.665c0.98,1.216,2.268,1.824,3.859,1.824c1.582,0,2.863-0.608,3.846-1.824
		c0.98-1.216,1.472-2.819,1.472-4.812v-0.337c0-1.211-0.225-2.319-0.674-3.325s-1.079-1.785-1.89-2.337s-1.738-0.827-2.783-0.827
		c-1.562,0-2.837,0.612-3.823,1.838s-1.479,2.83-1.479,4.812V514.933z"/>
	<path class="st1" d="M1091.886,513.937h-7.017v-1.479h7.017V513.937z"/>
	<path class="st1" d="M1093.567,514.537c0-2.461,0.549-4.422,1.648-5.882c1.098-1.46,2.59-2.189,4.475-2.189
		c2.139,0,3.77,0.845,4.893,2.534v-8.892h1.743v22.5h-1.641l-0.073-2.109c-1.123,1.602-2.773,2.402-4.951,2.402
		c-1.826,0-3.299-0.735-4.416-2.205c-1.119-1.47-1.678-3.454-1.678-5.954V514.537z M1095.34,514.845
		c0,2.021,0.405,3.615,1.216,4.782s1.953,1.751,3.428,1.751c2.158,0,3.691-0.952,4.6-2.856v-7.441
		c-0.908-2.061-2.432-3.091-4.57-3.091c-1.475,0-2.622,0.578-3.442,1.735S1095.34,512.589,1095.34,514.845z"/>
	<path class="st1" d="M1120.195,522.608c-0.176-0.498-0.288-1.235-0.337-2.212c-0.615,0.801-1.398,1.418-2.352,1.853
		c-0.951,0.435-1.96,0.652-3.024,0.652c-1.523,0-2.757-0.425-3.698-1.274c-0.943-0.85-1.414-1.924-1.414-3.223
		c0-1.543,0.642-2.764,1.926-3.662s3.074-1.348,5.369-1.348h3.179v-1.802c0-1.133-0.35-2.024-1.048-2.674s-1.716-0.974-3.054-0.974
		c-1.221,0-2.231,0.312-3.032,0.938s-1.201,1.377-1.201,2.256l-1.758-0.015c0-1.26,0.586-2.352,1.758-3.274s2.612-1.384,4.321-1.384
		c1.768,0,3.161,0.441,4.183,1.325c1.02,0.884,1.545,2.117,1.574,3.699v7.5c0,1.533,0.161,2.681,0.483,3.442v0.176H1120.195z
		 M1114.688,521.349c1.172,0,2.22-0.283,3.142-0.85c0.924-0.566,1.595-1.323,2.015-2.271v-3.486h-3.135
		c-1.748,0.02-3.115,0.339-4.102,0.959s-1.479,1.473-1.479,2.557c0,0.889,0.33,1.626,0.988,2.212
		C1112.776,521.056,1113.633,521.349,1114.688,521.349z"/>
	<path class="st1" d="M1130.314,520.089l4.629-13.33h1.89l-6.768,18.545l-0.352,0.82c-0.869,1.924-2.212,2.886-4.028,2.886
		c-0.42,0-0.869-0.068-1.348-0.205l-0.015-1.45l0.908,0.088c0.859,0,1.555-0.213,2.088-0.638c0.531-0.425,0.983-1.154,1.354-2.189
		l0.776-2.139l-5.977-15.718h1.919L1130.314,520.089z"/>
	<path class="st1" d="M1151.197,521.422c1.221,0,2.243-0.345,3.068-1.033s1.272-1.579,1.341-2.673h1.685
		c-0.049,0.967-0.352,1.848-0.908,2.644s-1.297,1.419-2.219,1.868c-0.924,0.449-1.912,0.674-2.967,0.674
		c-2.08,0-3.729-0.723-4.943-2.168c-1.217-1.445-1.824-3.389-1.824-5.83v-0.527c0-1.562,0.273-2.944,0.82-4.146
		s1.33-2.129,2.352-2.783c1.02-0.654,2.214-0.981,3.581-0.981c1.738,0,3.171,0.518,4.3,1.553c1.127,1.035,1.73,2.397,1.809,4.087
		h-1.685c-0.078-1.24-0.525-2.241-1.341-3.003s-1.843-1.143-3.083-1.143c-1.582,0-2.811,0.571-3.685,1.714s-1.311,2.744-1.311,4.805
		v0.513c0,2.021,0.437,3.599,1.311,4.731S1149.605,521.422,1151.197,521.422z"/>
	<path class="st1" d="M1161.785,509.439c0.576-0.947,1.313-1.68,2.212-2.197s1.88-0.776,2.944-0.776
		c1.699,0,2.964,0.479,3.794,1.436s1.25,2.393,1.26,4.307v10.4h-1.743v-10.415c-0.01-1.416-0.311-2.471-0.901-3.164
		s-1.535-1.04-2.834-1.04c-1.084,0-2.043,0.339-2.879,1.018c-0.834,0.679-1.452,1.595-1.853,2.747v10.854h-1.743v-22.5h1.743
		V509.439z"/>
	<path class="st1" d="M1185.762,522.608c-0.176-0.498-0.288-1.235-0.337-2.212c-0.615,0.801-1.398,1.418-2.352,1.853
		c-0.951,0.435-1.96,0.652-3.024,0.652c-1.523,0-2.757-0.425-3.698-1.274c-0.943-0.85-1.414-1.924-1.414-3.223
		c0-1.543,0.642-2.764,1.926-3.662s3.074-1.348,5.369-1.348h3.179v-1.802c0-1.133-0.35-2.024-1.048-2.674s-1.716-0.974-3.054-0.974
		c-1.221,0-2.231,0.312-3.032,0.938s-1.201,1.377-1.201,2.256l-1.758-0.015c0-1.26,0.586-2.352,1.758-3.274s2.612-1.384,4.321-1.384
		c1.768,0,3.161,0.441,4.183,1.325c1.02,0.884,1.545,2.117,1.574,3.699v7.5c0,1.533,0.161,2.681,0.483,3.442v0.176H1185.762z
		 M1180.254,521.349c1.172,0,2.22-0.283,3.142-0.85c0.924-0.566,1.595-1.323,2.015-2.271v-3.486h-3.135
		c-1.748,0.02-3.115,0.339-4.102,0.959s-1.479,1.473-1.479,2.557c0,0.889,0.33,1.626,0.988,2.212
		C1178.343,521.056,1179.199,521.349,1180.254,521.349z"/>
	<path class="st1" d="M1193.039,522.608h-1.758v-22.5h1.758V522.608z"/>
	<path class="st1" d="M1199.013,522.608h-1.758v-22.5h1.758V522.608z"/>
	<path class="st1" d="M1209.161,522.901c-1.348,0-2.566-0.332-3.655-0.996s-1.936-1.59-2.541-2.776s-0.908-2.517-0.908-3.991v-0.63
		c0-1.523,0.295-2.896,0.887-4.116c0.59-1.221,1.413-2.181,2.468-2.879s2.197-1.047,3.428-1.047c1.924,0,3.45,0.656,4.577,1.97
		c1.129,1.313,1.692,3.108,1.692,5.384v0.981H1203.8v0.337c0,1.797,0.515,3.293,1.546,4.489c1.029,1.196,2.326,1.795,3.889,1.795
		c0.938,0,1.766-0.171,2.482-0.513c0.719-0.342,1.37-0.889,1.956-1.641l1.099,0.835
		C1213.482,521.969,1211.612,522.901,1209.161,522.901z M1208.839,507.96c-1.318,0-2.43,0.483-3.333,1.45s-1.452,2.266-1.647,3.896
		h9.507v-0.19c-0.049-1.523-0.483-2.764-1.304-3.721S1210.167,507.96,1208.839,507.96z"/>
	<path class="st1" d="M1219.441,506.759l0.059,2.71c0.596-0.977,1.338-1.722,2.227-2.234s1.87-0.769,2.944-0.769
		c1.699,0,2.964,0.479,3.794,1.436s1.25,2.393,1.26,4.307v10.4h-1.743v-10.415c-0.01-1.416-0.311-2.471-0.901-3.164
		s-1.535-1.04-2.834-1.04c-1.084,0-2.043,0.339-2.879,1.018c-0.834,0.679-1.452,1.595-1.853,2.747v10.854h-1.743v-15.85H1219.441z"
		/>
	<path class="st1" d="M1232.798,514.537c0-2.48,0.549-4.446,1.648-5.896c1.098-1.45,2.59-2.175,4.475-2.175
		c2.158,0,3.799,0.859,4.922,2.578l0.088-2.285h1.641v15.527c0,2.041-0.571,3.657-1.714,4.849s-2.69,1.787-4.644,1.787
		c-1.104,0-2.156-0.247-3.156-0.74c-1.002-0.493-1.79-1.149-2.366-1.97l0.981-1.055c1.24,1.523,2.715,2.285,4.424,2.285
		c1.465,0,2.607-0.433,3.428-1.297s1.245-2.062,1.274-3.596v-1.992c-1.123,1.562-2.759,2.344-4.907,2.344
		c-1.836,0-3.311-0.732-4.424-2.197s-1.67-3.442-1.67-5.933V514.537z M1234.57,514.845c0,2.021,0.405,3.615,1.216,4.782
		s1.953,1.751,3.428,1.751c2.158,0,3.687-0.967,4.585-2.9v-7.368c-0.41-1.016-1.001-1.79-1.772-2.322s-1.699-0.798-2.783-0.798
		c-1.475,0-2.622,0.578-3.442,1.735S1234.57,512.589,1234.57,514.845z"/>
	<path class="st1" d="M1255.529,522.901c-1.348,0-2.566-0.332-3.655-0.996s-1.936-1.59-2.541-2.776s-0.908-2.517-0.908-3.991v-0.63
		c0-1.523,0.295-2.896,0.887-4.116c0.59-1.221,1.413-2.181,2.468-2.879s2.197-1.047,3.428-1.047c1.924,0,3.45,0.656,4.577,1.97
		c1.129,1.313,1.692,3.108,1.692,5.384v0.981h-11.309v0.337c0,1.797,0.515,3.293,1.546,4.489c1.029,1.196,2.326,1.795,3.889,1.795
		c0.938,0,1.766-0.171,2.482-0.513c0.719-0.342,1.37-0.889,1.956-1.641l1.099,0.835
		C1259.851,521.969,1257.98,522.901,1255.529,522.901z M1255.207,507.96c-1.318,0-2.43,0.483-3.333,1.45s-1.452,2.266-1.647,3.896
		h9.507v-0.19c-0.049-1.523-0.483-2.764-1.304-3.721S1256.535,507.96,1255.207,507.96z"/>
	<path class="st1" d="M1273.632,518.58c0-0.869-0.35-1.567-1.047-2.095c-0.699-0.527-1.751-0.94-3.157-1.238
		s-2.497-0.64-3.274-1.025c-0.775-0.386-1.353-0.856-1.729-1.413s-0.563-1.23-0.563-2.021c0-1.25,0.522-2.283,1.567-3.099
		s2.383-1.223,4.014-1.223c1.768,0,3.186,0.437,4.256,1.311c1.068,0.874,1.604,2.015,1.604,3.421h-1.758
		c0-0.928-0.389-1.699-1.164-2.314c-0.777-0.615-1.756-0.923-2.938-0.923c-1.152,0-2.078,0.256-2.775,0.769
		c-0.699,0.513-1.048,1.18-1.048,2c0,0.791,0.29,1.403,0.872,1.838c0.58,0.435,1.641,0.833,3.178,1.194
		c1.539,0.361,2.69,0.747,3.457,1.157s1.336,0.903,1.707,1.479s0.557,1.274,0.557,2.095c0,1.338-0.54,2.407-1.619,3.208
		s-2.487,1.201-4.226,1.201c-1.846,0-3.343-0.447-4.489-1.341c-1.148-0.894-1.722-2.023-1.722-3.391h1.758
		c0.068,1.025,0.5,1.823,1.296,2.395s1.849,0.857,3.157,0.857c1.221,0,2.207-0.269,2.959-0.806S1273.632,519.4,1273.632,518.58z"/>
	<path class="st1" d="M1284.158,514.449c0-1.523,0.295-2.896,0.887-4.116c0.59-1.221,1.425-2.171,2.504-2.85s2.303-1.018,3.67-1.018
		c2.109,0,3.818,0.739,5.127,2.219s1.963,3.44,1.963,5.882v0.366c0,1.533-0.296,2.912-0.887,4.138s-1.423,2.171-2.497,2.835
		s-2.3,0.996-3.677,0.996c-2.1,0-3.807-0.74-5.119-2.22c-1.314-1.479-1.971-3.439-1.971-5.881V514.449z M1285.916,514.933
		c0,1.895,0.49,3.449,1.473,4.665c0.98,1.216,2.268,1.824,3.859,1.824c1.582,0,2.863-0.608,3.846-1.824
		c0.98-1.216,1.472-2.819,1.472-4.812v-0.337c0-1.211-0.225-2.319-0.674-3.325s-1.079-1.785-1.89-2.337s-1.738-0.827-2.783-0.827
		c-1.562,0-2.837,0.612-3.823,1.838s-1.479,2.83-1.479,4.812V514.933z"/>
	<path class="st1" d="M1302.437,522.608v-14.414h-2.622v-1.436h2.622v-1.919c0-1.621,0.412-2.866,1.238-3.735
		c0.824-0.869,1.975-1.304,3.449-1.304c0.664,0,1.284,0.082,1.86,0.246l-0.132,1.453c-0.488-0.117-1.021-0.176-1.597-0.176
		c-0.967,0-1.719,0.301-2.256,0.903c-0.537,0.602-0.806,1.456-0.806,2.562v1.969h3.779v1.436h-3.779v14.414H1302.437z"/>
	<path class="st1" d="M1324.228,508.253c-0.371-0.068-0.767-0.103-1.187-0.103c-1.094,0-2.02,0.305-2.776,0.915
		s-1.296,1.497-1.618,2.659v10.884h-1.743v-15.85h1.714l0.029,2.52c0.928-1.875,2.417-2.812,4.468-2.812
		c0.488,0,0.874,0.063,1.157,0.19L1324.228,508.253z"/>
	<path class="st1" d="M1336.441,520.602c-1.055,1.533-2.739,2.3-5.054,2.3c-1.689,0-2.974-0.491-3.853-1.473
		s-1.328-2.434-1.348-4.357v-10.312h1.743v10.093c0,3.018,1.221,4.526,3.662,4.526c2.539,0,4.146-1.05,4.819-3.149v-11.47h1.758
		v15.85h-1.699L1336.441,520.602z"/>
	<path class="st1" d="M1343.646,506.759l0.059,2.71c0.596-0.977,1.338-1.722,2.227-2.234s1.87-0.769,2.944-0.769
		c1.699,0,2.964,0.479,3.794,1.436s1.25,2.393,1.26,4.307v10.4h-1.743v-10.415c-0.01-1.416-0.311-2.471-0.901-3.164
		s-1.535-1.04-2.834-1.04c-1.084,0-2.043,0.339-2.879,1.018c-0.834,0.679-1.452,1.595-1.853,2.747v10.854h-1.743v-15.85H1343.646z"
		/>
	<path class="st1" d="M1359.375,506.759l0.059,2.71c0.596-0.977,1.338-1.722,2.227-2.234s1.87-0.769,2.944-0.769
		c1.699,0,2.964,0.479,3.794,1.436s1.25,2.393,1.26,4.307v10.4h-1.743v-10.415c-0.01-1.416-0.311-2.471-0.901-3.164
		s-1.535-1.04-2.834-1.04c-1.084,0-2.043,0.339-2.879,1.018c-0.834,0.679-1.452,1.595-1.853,2.747v10.854h-1.743v-15.85H1359.375z"
		/>
	<path class="st1" d="M1373.332,502.181c0-0.33,0.107-0.608,0.322-0.837c0.215-0.228,0.508-0.342,0.879-0.342
		s0.667,0.114,0.886,0.342c0.221,0.229,0.33,0.507,0.33,0.837s-0.109,0.606-0.33,0.83c-0.219,0.224-0.515,0.335-0.886,0.335
		s-0.664-0.111-0.879-0.335S1373.332,502.511,1373.332,502.181z M1375.397,522.608h-1.758v-15.85h1.758V522.608z"/>
	<path class="st1" d="M1381.078,506.759l0.059,2.71c0.596-0.977,1.338-1.722,2.227-2.234s1.87-0.769,2.944-0.769
		c1.699,0,2.964,0.479,3.794,1.436s1.25,2.393,1.26,4.307v10.4h-1.743v-10.415c-0.01-1.416-0.311-2.471-0.901-3.164
		s-1.535-1.04-2.834-1.04c-1.084,0-2.043,0.339-2.879,1.018c-0.834,0.679-1.452,1.595-1.853,2.747v10.854h-1.743v-15.85H1381.078z"
		/>
	<path class="st1" d="M1394.435,514.537c0-2.48,0.549-4.446,1.648-5.896c1.098-1.45,2.59-2.175,4.475-2.175
		c2.158,0,3.799,0.859,4.922,2.578l0.088-2.285h1.641v15.527c0,2.041-0.571,3.657-1.714,4.849s-2.69,1.787-4.644,1.787
		c-1.104,0-2.156-0.247-3.156-0.74c-1.002-0.493-1.79-1.149-2.366-1.97l0.981-1.055c1.24,1.523,2.715,2.285,4.424,2.285
		c1.465,0,2.607-0.433,3.428-1.297s1.245-2.062,1.274-3.596v-1.992c-1.123,1.562-2.759,2.344-4.907,2.344
		c-1.836,0-3.311-0.732-4.424-2.197s-1.67-3.442-1.67-5.933V514.537z M1396.207,514.845c0,2.021,0.405,3.615,1.216,4.782
		s1.953,1.751,3.428,1.751c2.158,0,3.687-0.967,4.585-2.9v-7.368c-0.41-1.016-1.001-1.79-1.772-2.322s-1.699-0.798-2.783-0.798
		c-1.475,0-2.622,0.578-3.442,1.735S1396.207,512.589,1396.207,514.845z"/>
	<path class="st1" d="M1427.578,522.608c-0.176-0.498-0.288-1.235-0.337-2.212c-0.615,0.801-1.398,1.418-2.352,1.853
		c-0.951,0.435-1.96,0.652-3.024,0.652c-1.523,0-2.757-0.425-3.698-1.274c-0.943-0.85-1.414-1.924-1.414-3.223
		c0-1.543,0.642-2.764,1.926-3.662s3.074-1.348,5.369-1.348h3.179v-1.802c0-1.133-0.35-2.024-1.048-2.674s-1.716-0.974-3.054-0.974
		c-1.221,0-2.231,0.312-3.032,0.938s-1.201,1.377-1.201,2.256l-1.758-0.015c0-1.26,0.586-2.352,1.758-3.274s2.612-1.384,4.321-1.384
		c1.768,0,3.161,0.441,4.183,1.325c1.02,0.884,1.545,2.117,1.574,3.699v7.5c0,1.533,0.161,2.681,0.483,3.442v0.176H1427.578z
		 M1422.07,521.349c1.172,0,2.22-0.283,3.142-0.85c0.924-0.566,1.595-1.323,2.015-2.271v-3.486h-3.135
		c-1.748,0.02-3.115,0.339-4.102,0.959s-1.479,1.473-1.479,2.557c0,0.889,0.33,1.626,0.988,2.212
		C1420.159,521.056,1421.016,521.349,1422.07,521.349z"/>
	<path class="st1" d="M1448.93,518.58c0-0.869-0.35-1.567-1.047-2.095c-0.699-0.527-1.751-0.94-3.157-1.238s-2.497-0.64-3.274-1.025
		c-0.775-0.386-1.353-0.856-1.729-1.413s-0.563-1.23-0.563-2.021c0-1.25,0.522-2.283,1.567-3.099s2.383-1.223,4.014-1.223
		c1.768,0,3.186,0.437,4.256,1.311c1.068,0.874,1.604,2.015,1.604,3.421h-1.758c0-0.928-0.389-1.699-1.164-2.314
		c-0.777-0.615-1.756-0.923-2.938-0.923c-1.152,0-2.078,0.256-2.775,0.769c-0.699,0.513-1.048,1.18-1.048,2
		c0,0.791,0.29,1.403,0.872,1.838c0.58,0.435,1.641,0.833,3.178,1.194c1.539,0.361,2.69,0.747,3.457,1.157s1.336,0.903,1.707,1.479
		s0.557,1.274,0.557,2.095c0,1.338-0.54,2.407-1.619,3.208s-2.487,1.201-4.226,1.201c-1.846,0-3.343-0.447-4.489-1.341
		c-1.148-0.894-1.722-2.023-1.722-3.391h1.758c0.068,1.025,0.5,1.823,1.296,2.395s1.849,0.857,3.157,0.857
		c1.221,0,2.207-0.269,2.959-0.806S1448.93,519.4,1448.93,518.58z"/>
	<path class="st1" d="M1459.737,521.422c1.221,0,2.243-0.345,3.068-1.033s1.272-1.579,1.341-2.673h1.685
		c-0.049,0.967-0.352,1.848-0.908,2.644s-1.297,1.419-2.219,1.868c-0.924,0.449-1.912,0.674-2.967,0.674
		c-2.08,0-3.729-0.723-4.943-2.168c-1.217-1.445-1.824-3.389-1.824-5.83v-0.527c0-1.562,0.273-2.944,0.82-4.146
		s1.33-2.129,2.352-2.783c1.02-0.654,2.214-0.981,3.581-0.981c1.738,0,3.171,0.518,4.3,1.553c1.127,1.035,1.73,2.397,1.809,4.087
		h-1.685c-0.078-1.24-0.525-2.241-1.341-3.003s-1.843-1.143-3.083-1.143c-1.582,0-2.811,0.571-3.685,1.714s-1.311,2.744-1.311,4.805
		v0.513c0,2.021,0.437,3.599,1.311,4.731S1458.146,521.422,1459.737,521.422z"/>
	<path class="st1" d="M1470.325,509.439c0.576-0.947,1.313-1.68,2.212-2.197s1.88-0.776,2.944-0.776
		c1.699,0,2.964,0.479,3.794,1.436s1.25,2.393,1.26,4.307v10.4h-1.743v-10.415c-0.01-1.416-0.311-2.471-0.901-3.164
		s-1.535-1.04-2.834-1.04c-1.084,0-2.043,0.339-2.879,1.018c-0.834,0.679-1.452,1.595-1.853,2.747v10.854h-1.743v-22.5h1.743
		V509.439z"/>
	<path class="st1" d="M1483.33,514.449c0-1.523,0.295-2.896,0.887-4.116c0.59-1.221,1.425-2.171,2.504-2.85s2.303-1.018,3.67-1.018
		c2.109,0,3.818,0.739,5.127,2.219s1.963,3.44,1.963,5.882v0.366c0,1.533-0.296,2.912-0.887,4.138s-1.423,2.171-2.497,2.835
		s-2.3,0.996-3.677,0.996c-2.1,0-3.807-0.74-5.119-2.22c-1.314-1.479-1.971-3.439-1.971-5.881V514.449z M1485.088,514.933
		c0,1.895,0.49,3.449,1.473,4.665c0.98,1.216,2.268,1.824,3.859,1.824c1.582,0,2.863-0.608,3.846-1.824
		c0.98-1.216,1.472-2.819,1.472-4.812v-0.337c0-1.211-0.225-2.319-0.674-3.325s-1.079-1.785-1.89-2.337s-1.738-0.827-2.783-0.827
		c-1.562,0-2.837,0.612-3.823,1.838s-1.479,2.83-1.479,4.812V514.933z"/>
	<path class="st1" d="M1499.382,514.449c0-1.523,0.295-2.896,0.887-4.116c0.59-1.221,1.425-2.171,2.504-2.85s2.303-1.018,3.67-1.018
		c2.109,0,3.818,0.739,5.127,2.219s1.963,3.44,1.963,5.882v0.366c0,1.533-0.296,2.912-0.887,4.138s-1.423,2.171-2.497,2.835
		s-2.3,0.996-3.677,0.996c-2.1,0-3.807-0.74-5.119-2.22c-1.314-1.479-1.971-3.439-1.971-5.881V514.449z M1501.14,514.933
		c0,1.895,0.49,3.449,1.473,4.665c0.98,1.216,2.268,1.824,3.859,1.824c1.582,0,2.863-0.608,3.846-1.824
		c0.98-1.216,1.472-2.819,1.472-4.812v-0.337c0-1.211-0.225-2.319-0.674-3.325s-1.079-1.785-1.89-2.337s-1.738-0.827-2.783-0.827
		c-1.562,0-2.837,0.612-3.823,1.838s-1.479,2.83-1.479,4.812V514.933z"/>
	<path class="st1" d="M1518.363,522.608h-1.758v-22.5h1.758V522.608z"/>
	<path class="st1" d="M200.543,557.422c1.221,0,2.244-0.345,3.069-1.033s1.272-1.579,1.34-2.673h1.685
		c-0.049,0.967-0.352,1.848-0.908,2.644s-1.296,1.419-2.219,1.868s-1.912,0.674-2.966,0.674c-2.08,0-3.728-0.723-4.944-2.168
		s-1.824-3.389-1.824-5.83v-0.527c0-1.562,0.273-2.944,0.82-4.146s1.331-2.129,2.351-2.783s2.214-0.981,3.582-0.981
		c1.738,0,3.171,0.518,4.299,1.553s1.731,2.397,1.809,4.087h-1.685c-0.078-1.24-0.525-2.241-1.34-3.003s-1.843-1.143-3.083-1.143
		c-1.582,0-2.81,0.571-3.684,1.714s-1.311,2.744-1.311,4.805v0.513c0,2.021,0.437,3.599,1.311,4.731
		S198.951,557.422,200.543,557.422z"/>
	<path class="st1" d="M208.421,550.449c0-1.523,0.295-2.896,0.886-4.116s1.426-2.171,2.505-2.85s2.302-1.018,3.669-1.018
		c2.109,0,3.818,0.739,5.127,2.219s1.963,3.44,1.963,5.882v0.366c0,1.533-0.295,2.912-0.886,4.138s-1.423,2.171-2.498,2.835
		s-2.3,0.996-3.677,0.996c-2.1,0-3.806-0.74-5.12-2.22s-1.97-3.439-1.97-5.881V550.449z M210.179,550.933
		c0,1.895,0.491,3.449,1.472,4.665s2.268,1.824,3.86,1.824c1.582,0,2.864-0.608,3.845-1.824s1.472-2.819,1.472-4.812v-0.337
		c0-1.211-0.225-2.319-0.674-3.325s-1.079-1.785-1.89-2.337s-1.738-0.827-2.783-0.827c-1.562,0-2.837,0.612-3.823,1.838
		s-1.479,2.83-1.479,4.812V550.933z"/>
	<path class="st1" d="M227.109,542.759l0.059,2.71c0.596-0.977,1.338-1.722,2.227-2.234s1.87-0.769,2.944-0.769
		c1.699,0,2.964,0.479,3.794,1.436s1.25,2.393,1.26,4.307v10.4h-1.743v-10.415c-0.01-1.416-0.31-2.471-0.901-3.164
		s-1.536-1.04-2.834-1.04c-1.084,0-2.043,0.339-2.878,1.018s-1.453,1.595-1.853,2.747v10.854h-1.743v-15.85H227.109z"/>
	<path class="st1" d="M250.661,554.58c0-0.869-0.349-1.567-1.047-2.095s-1.75-0.94-3.157-1.238s-2.498-0.64-3.274-1.025
		s-1.353-0.856-1.729-1.413s-0.564-1.23-0.564-2.021c0-1.25,0.522-2.283,1.567-3.099s2.383-1.223,4.014-1.223
		c1.768,0,3.186,0.437,4.255,1.311s1.604,2.015,1.604,3.421h-1.758c0-0.928-0.388-1.699-1.165-2.314s-1.755-0.923-2.937-0.923
		c-1.152,0-2.078,0.256-2.776,0.769s-1.047,1.18-1.047,2c0,0.791,0.291,1.403,0.872,1.838s1.641,0.833,3.179,1.194
		s2.69,0.747,3.457,1.157s1.335,0.903,1.707,1.479s0.557,1.274,0.557,2.095c0,1.338-0.54,2.407-1.619,3.208
		s-2.488,1.201-4.226,1.201c-1.846,0-3.342-0.447-4.49-1.341s-1.721-2.023-1.721-3.391h1.758c0.068,1.025,0.5,1.823,1.296,2.395
		s1.848,0.857,3.157,0.857c1.221,0,2.207-0.269,2.959-0.806S250.661,555.4,250.661,554.58z"/>
	<path class="st1" d="M258.334,538.701v4.058h3.281v1.436h-3.281v10.573c0,0.88,0.159,1.535,0.476,1.965
		c0.317,0.431,0.847,0.646,1.589,0.646c0.293,0,0.767-0.049,1.421-0.146l0.073,1.423c-0.459,0.164-1.084,0.247-1.875,0.247
		c-1.201,0-2.075-0.35-2.622-1.048s-0.82-1.726-0.82-3.083v-10.576h-2.915v-1.436h2.915v-4.058H258.334z"/>
	<path class="st1" d="M274.503,558.608c-0.176-0.498-0.288-1.235-0.337-2.212c-0.615,0.801-1.399,1.418-2.351,1.853
		s-1.96,0.652-3.025,0.652c-1.523,0-2.756-0.425-3.699-1.274s-1.414-1.924-1.414-3.223c0-1.543,0.642-2.764,1.926-3.662
		s3.074-1.348,5.369-1.348h3.179v-1.802c0-1.133-0.349-2.024-1.047-2.674s-1.716-0.974-3.054-0.974
		c-1.221,0-2.231,0.312-3.032,0.938s-1.201,1.377-1.201,2.256l-1.758-0.015c0-1.26,0.586-2.352,1.758-3.274s2.612-1.384,4.321-1.384
		c1.768,0,3.162,0.441,4.182,1.325s1.545,2.117,1.575,3.699v7.5c0,1.533,0.161,2.681,0.483,3.442v0.176H274.503z M268.995,557.349
		c1.172,0,2.219-0.283,3.142-0.85s1.594-1.323,2.014-2.271v-3.486h-3.135c-1.748,0.02-3.115,0.339-4.102,0.959
		s-1.479,1.473-1.479,2.557c0,0.889,0.33,1.626,0.989,2.212S267.94,557.349,268.995,557.349z"/>
	<path class="st1" d="M281.487,542.759l0.059,2.71c0.596-0.977,1.338-1.722,2.227-2.234s1.87-0.769,2.944-0.769
		c1.699,0,2.964,0.479,3.794,1.436s1.25,2.393,1.26,4.307v10.4h-1.743v-10.415c-0.01-1.416-0.31-2.471-0.901-3.164
		s-1.536-1.04-2.834-1.04c-1.084,0-2.043,0.339-2.878,1.018s-1.453,1.595-1.853,2.747v10.854h-1.743v-15.85H281.487z"/>
	<path class="st1" d="M298.271,538.701v4.058h3.281v1.436h-3.281v10.573c0,0.88,0.159,1.535,0.476,1.965
		c0.317,0.431,0.847,0.646,1.589,0.646c0.293,0,0.767-0.049,1.421-0.146l0.073,1.423c-0.459,0.164-1.084,0.247-1.875,0.247
		c-1.201,0-2.075-0.35-2.622-1.048s-0.82-1.726-0.82-3.083v-10.576h-2.915v-1.436h2.915v-4.058H298.271z"/>
	<path class="st1" d="M306.398,558.608h-1.758v-22.5h1.758V558.608z"/>
	<path class="st1" d="M315.434,556.089l4.629-13.33h1.89l-6.768,18.545l-0.352,0.82c-0.869,1.924-2.212,2.886-4.028,2.886
		c-0.42,0-0.869-0.068-1.348-0.205l-0.015-1.45l0.908,0.088c0.859,0,1.555-0.213,2.087-0.638s0.984-1.154,1.355-2.189l0.776-2.139
		l-5.977-15.718h1.919L315.434,556.089z"/>
	<path class="st1" d="M330.354,538.181c0-0.33,0.107-0.608,0.322-0.837c0.215-0.228,0.508-0.342,0.879-0.342
		s0.667,0.114,0.886,0.342c0.22,0.229,0.33,0.507,0.33,0.837s-0.11,0.606-0.33,0.83s-0.515,0.335-0.886,0.335
		s-0.664-0.111-0.879-0.335S330.354,538.511,330.354,538.181z M332.42,558.608h-1.758v-15.85h1.758V558.608z"/>
	<path class="st1" d="M338.101,542.759l0.059,2.71c0.596-0.977,1.338-1.722,2.227-2.234s1.87-0.769,2.944-0.769
		c1.699,0,2.964,0.479,3.794,1.436s1.25,2.393,1.26,4.307v10.4h-1.743v-10.415c-0.01-1.416-0.31-2.471-0.901-3.164
		s-1.536-1.04-2.834-1.04c-1.084,0-2.043,0.339-2.878,1.018s-1.453,1.595-1.853,2.747v10.854h-1.743v-15.85H338.101z"/>
	<path class="st1" d="M353.42,558.608v-14.414h-2.622v-1.436h2.622v-1.919c0-1.621,0.413-2.866,1.238-3.735s1.975-1.304,3.45-1.304
		c0.664,0,1.284,0.082,1.86,0.246l-0.132,1.453c-0.488-0.117-1.021-0.176-1.597-0.176c-0.967,0-1.719,0.301-2.256,0.903
		c-0.537,0.602-0.806,1.456-0.806,2.562v1.969h3.779v1.436h-3.779v14.414H353.42z"/>
	<path class="st1" d="M363.305,558.608h-1.758v-22.5h1.758V558.608z"/>
	<path class="st1" d="M377.511,556.602c-1.055,1.533-2.739,2.3-5.054,2.3c-1.689,0-2.974-0.491-3.853-1.473
		s-1.328-2.434-1.348-4.357v-10.312H369v10.093c0,3.018,1.221,4.526,3.662,4.526c2.539,0,4.146-1.05,4.819-3.149v-11.47h1.758v15.85
		h-1.699L377.511,556.602z"/>
	<path class="st1" d="M389.183,558.901c-1.348,0-2.566-0.332-3.655-0.996s-1.936-1.59-2.542-2.776s-0.908-2.517-0.908-3.991v-0.63
		c0-1.523,0.295-2.896,0.886-4.116s1.414-2.181,2.468-2.879s2.197-1.047,3.428-1.047c1.924,0,3.45,0.656,4.578,1.97
		s1.692,3.108,1.692,5.384v0.981h-11.309v0.337c0,1.797,0.515,3.293,1.545,4.489s2.327,1.795,3.889,1.795
		c0.938,0,1.765-0.171,2.483-0.513s1.37-0.889,1.956-1.641l1.099,0.835C393.504,557.969,391.634,558.901,389.183,558.901z
		 M388.86,543.96c-1.318,0-2.429,0.483-3.333,1.45s-1.453,2.266-1.648,3.896h9.507v-0.19c-0.049-1.523-0.483-2.764-1.304-3.721
		S390.188,543.96,388.86,543.96z"/>
	<path class="st1" d="M399.463,542.759l0.059,2.71c0.596-0.977,1.338-1.722,2.227-2.234s1.87-0.769,2.944-0.769
		c1.699,0,2.964,0.479,3.794,1.436s1.25,2.393,1.26,4.307v10.4h-1.743v-10.415c-0.01-1.416-0.31-2.471-0.901-3.164
		s-1.536-1.04-2.834-1.04c-1.084,0-2.043,0.339-2.878,1.018s-1.453,1.595-1.853,2.747v10.854h-1.743v-15.85H399.463z"/>
	<path class="st1" d="M419.382,557.422c1.221,0,2.244-0.345,3.069-1.033s1.272-1.579,1.34-2.673h1.685
		c-0.049,0.967-0.352,1.848-0.908,2.644s-1.296,1.419-2.219,1.868s-1.912,0.674-2.966,0.674c-2.08,0-3.728-0.723-4.944-2.168
		s-1.824-3.389-1.824-5.83v-0.527c0-1.562,0.273-2.944,0.82-4.146s1.331-2.129,2.351-2.783s2.214-0.981,3.582-0.981
		c1.738,0,3.171,0.518,4.299,1.553s1.731,2.397,1.809,4.087h-1.685c-0.078-1.24-0.525-2.241-1.34-3.003s-1.843-1.143-3.083-1.143
		c-1.582,0-2.81,0.571-3.684,1.714s-1.311,2.744-1.311,4.805v0.513c0,2.021,0.437,3.599,1.311,4.731S417.79,557.422,419.382,557.422
		z"/>
	<path class="st1" d="M434.364,558.901c-1.348,0-2.566-0.332-3.655-0.996s-1.936-1.59-2.542-2.776s-0.908-2.517-0.908-3.991v-0.63
		c0-1.523,0.295-2.896,0.886-4.116s1.414-2.181,2.468-2.879s2.197-1.047,3.428-1.047c1.924,0,3.45,0.656,4.578,1.97
		s1.692,3.108,1.692,5.384v0.981h-11.309v0.337c0,1.797,0.515,3.293,1.545,4.489s2.327,1.795,3.889,1.795
		c0.938,0,1.765-0.171,2.483-0.513s1.37-0.889,1.956-1.641l1.099,0.835C438.686,557.969,436.815,558.901,434.364,558.901z
		 M434.042,543.96c-1.318,0-2.429,0.483-3.333,1.45s-1.453,2.266-1.648,3.896h9.507v-0.19c-0.049-1.523-0.483-2.764-1.304-3.721
		S435.37,543.96,434.042,543.96z"/>
	<path class="st1" d="M452.244,538.701v4.058h3.281v1.436h-3.281v10.573c0,0.88,0.159,1.535,0.476,1.965
		c0.317,0.431,0.847,0.646,1.589,0.646c0.293,0,0.767-0.049,1.421-0.146l0.073,1.423c-0.459,0.164-1.084,0.247-1.875,0.247
		c-1.201,0-2.075-0.35-2.622-1.048s-0.82-1.726-0.82-3.083v-10.576h-2.915v-1.436h2.915v-4.058H452.244z"/>
	<path class="st1" d="M460.151,545.439c0.576-0.947,1.313-1.68,2.212-2.197s1.88-0.776,2.944-0.776c1.699,0,2.964,0.479,3.794,1.436
		s1.25,2.393,1.26,4.307v10.4h-1.743v-10.415c-0.01-1.416-0.31-2.471-0.901-3.164s-1.536-1.04-2.834-1.04
		c-1.084,0-2.043,0.339-2.878,1.018s-1.453,1.595-1.853,2.747v10.854h-1.743v-22.5h1.743V545.439z"/>
	<path class="st1" d="M480.261,558.901c-1.348,0-2.566-0.332-3.655-0.996s-1.936-1.59-2.542-2.776s-0.908-2.517-0.908-3.991v-0.63
		c0-1.523,0.295-2.896,0.886-4.116s1.414-2.181,2.468-2.879s2.197-1.047,3.428-1.047c1.924,0,3.45,0.656,4.578,1.97
		s1.692,3.108,1.692,5.384v0.981h-11.309v0.337c0,1.797,0.515,3.293,1.545,4.489s2.327,1.795,3.889,1.795
		c0.938,0,1.765-0.171,2.483-0.513s1.37-0.889,1.956-1.641l1.099,0.835C484.582,557.969,482.712,558.901,480.261,558.901z
		 M479.938,543.96c-1.318,0-2.429,0.483-3.333,1.45s-1.453,2.266-1.648,3.896h9.507v-0.19c-0.049-1.523-0.483-2.764-1.304-3.721
		S481.267,543.96,479.938,543.96z"/>
	<path class="st1" d="M496.676,558.608v-14.414h-2.622v-1.436h2.622v-1.919c0-1.621,0.413-2.866,1.238-3.735s1.975-1.304,3.45-1.304
		c0.664,0,1.284,0.082,1.86,0.246l-0.132,1.453c-0.488-0.117-1.021-0.176-1.597-0.176c-0.967,0-1.719,0.301-2.256,0.903
		c-0.537,0.602-0.806,1.456-0.806,2.562v1.969h3.779v1.436h-3.779v14.414H496.676z"/>
	<path class="st1" d="M503.631,550.449c0-1.523,0.295-2.896,0.886-4.116s1.426-2.171,2.505-2.85s2.302-1.018,3.669-1.018
		c2.109,0,3.818,0.739,5.127,2.219s1.963,3.44,1.963,5.882v0.366c0,1.533-0.295,2.912-0.886,4.138s-1.423,2.171-2.498,2.835
		s-2.3,0.996-3.677,0.996c-2.1,0-3.806-0.74-5.12-2.22s-1.97-3.439-1.97-5.881V550.449z M505.389,550.933
		c0,1.895,0.491,3.449,1.472,4.665s2.268,1.824,3.86,1.824c1.582,0,2.864-0.608,3.845-1.824s1.472-2.819,1.472-4.812v-0.337
		c0-1.211-0.225-2.319-0.674-3.325s-1.079-1.785-1.89-2.337s-1.738-0.827-2.783-0.827c-1.562,0-2.837,0.612-3.823,1.838
		s-1.479,2.83-1.479,4.812V550.933z"/>
	<path class="st1" d="M526.509,557.422c1.221,0,2.244-0.345,3.069-1.033s1.272-1.579,1.34-2.673h1.685
		c-0.049,0.967-0.352,1.848-0.908,2.644s-1.296,1.419-2.219,1.868s-1.912,0.674-2.966,0.674c-2.08,0-3.728-0.723-4.944-2.168
		s-1.824-3.389-1.824-5.83v-0.527c0-1.562,0.273-2.944,0.82-4.146s1.331-2.129,2.351-2.783s2.214-0.981,3.582-0.981
		c1.738,0,3.171,0.518,4.299,1.553s1.731,2.397,1.809,4.087h-1.685c-0.078-1.24-0.525-2.241-1.34-3.003s-1.843-1.143-3.083-1.143
		c-1.582,0-2.81,0.571-3.684,1.714s-1.311,2.744-1.311,4.805v0.513c0,2.021,0.437,3.599,1.311,4.731
		S524.917,557.422,526.509,557.422z"/>
	<path class="st1" d="M545.549,556.602c-1.055,1.533-2.739,2.3-5.054,2.3c-1.689,0-2.974-0.491-3.853-1.473
		s-1.328-2.434-1.348-4.357v-10.312h1.743v10.093c0,3.018,1.221,4.526,3.662,4.526c2.539,0,4.146-1.05,4.819-3.149v-11.47h1.758
		v15.85h-1.699L545.549,556.602z"/>
	<path class="st1" d="M560.575,554.58c0-0.869-0.349-1.567-1.047-2.095s-1.75-0.94-3.157-1.238s-2.498-0.64-3.274-1.025
		s-1.353-0.856-1.729-1.413s-0.564-1.23-0.564-2.021c0-1.25,0.522-2.283,1.567-3.099s2.383-1.223,4.014-1.223
		c1.768,0,3.186,0.437,4.255,1.311s1.604,2.015,1.604,3.421h-1.758c0-0.928-0.388-1.699-1.165-2.314s-1.755-0.923-2.937-0.923
		c-1.152,0-2.078,0.256-2.776,0.769s-1.047,1.18-1.047,2c0,0.791,0.291,1.403,0.872,1.838s1.641,0.833,3.179,1.194
		s2.69,0.747,3.457,1.157s1.335,0.903,1.707,1.479s0.557,1.274,0.557,2.095c0,1.338-0.54,2.407-1.619,3.208
		s-2.488,1.201-4.226,1.201c-1.846,0-3.342-0.447-4.49-1.341s-1.721-2.023-1.721-3.391h1.758c0.068,1.025,0.5,1.823,1.296,2.395
		s1.848,0.857,3.157,0.857c1.221,0,2.207-0.269,2.959-0.806S560.575,555.4,560.575,554.58z"/>
	<path class="st1" d="M571.102,550.449c0-1.523,0.295-2.896,0.886-4.116s1.426-2.171,2.505-2.85s2.302-1.018,3.669-1.018
		c2.109,0,3.818,0.739,5.127,2.219s1.963,3.44,1.963,5.882v0.366c0,1.533-0.295,2.912-0.886,4.138s-1.423,2.171-2.498,2.835
		s-2.3,0.996-3.677,0.996c-2.1,0-3.806-0.74-5.12-2.22s-1.97-3.439-1.97-5.881V550.449z M572.859,550.933
		c0,1.895,0.491,3.449,1.472,4.665s2.268,1.824,3.86,1.824c1.582,0,2.864-0.608,3.845-1.824s1.472-2.819,1.472-4.812v-0.337
		c0-1.211-0.225-2.319-0.674-3.325s-1.079-1.785-1.89-2.337s-1.738-0.827-2.783-0.827c-1.562,0-2.837,0.612-3.823,1.838
		s-1.479,2.83-1.479,4.812V550.933z"/>
	<path class="st1" d="M589.38,558.608v-14.414h-2.622v-1.436h2.622v-1.919c0-1.621,0.413-2.866,1.238-3.735s1.975-1.304,3.45-1.304
		c0.664,0,1.284,0.082,1.86,0.246l-0.132,1.453c-0.488-0.117-1.021-0.176-1.597-0.176c-0.967,0-1.719,0.301-2.256,0.903
		c-0.537,0.602-0.806,1.456-0.806,2.562v1.969h3.779v1.436h-3.779v14.414H589.38z"/>
	<path class="st1" d="M616.034,548.384h-9.976v8.701h11.47v1.523h-13.271V537.28h13.198v1.523h-11.396v8.057h9.976V548.384z"/>
	<path class="st1" d="M619.181,550.537c0-2.461,0.549-4.422,1.648-5.882s2.59-2.189,4.475-2.189c2.139,0,3.77,0.845,4.893,2.534
		v-8.892h1.743v22.5h-1.641l-0.073-2.109c-1.123,1.602-2.773,2.402-4.951,2.402c-1.826,0-3.298-0.735-4.417-2.205
		s-1.677-3.454-1.677-5.954V550.537z M620.953,550.845c0,2.021,0.405,3.615,1.216,4.782s1.953,1.751,3.428,1.751
		c2.158,0,3.691-0.952,4.6-2.856v-7.441c-0.908-2.061-2.432-3.091-4.57-3.091c-1.475,0-2.622,0.578-3.442,1.735
		S620.953,548.589,620.953,550.845z"/>
	<path class="st1" d="M645.999,556.602c-1.055,1.533-2.739,2.3-5.054,2.3c-1.689,0-2.974-0.491-3.853-1.473
		s-1.328-2.434-1.348-4.357v-10.312h1.743v10.093c0,3.018,1.221,4.526,3.662,4.526c2.539,0,4.146-1.05,4.819-3.149v-11.47h1.758
		v15.85h-1.699L645.999,556.602z"/>
	<path class="st1" d="M657.393,557.422c1.221,0,2.244-0.345,3.069-1.033s1.272-1.579,1.34-2.673h1.685
		c-0.049,0.967-0.352,1.848-0.908,2.644s-1.296,1.419-2.219,1.868s-1.912,0.674-2.966,0.674c-2.08,0-3.728-0.723-4.944-2.168
		s-1.824-3.389-1.824-5.83v-0.527c0-1.562,0.273-2.944,0.82-4.146s1.331-2.129,2.351-2.783s2.214-0.981,3.582-0.981
		c1.738,0,3.171,0.518,4.299,1.553s1.731,2.397,1.809,4.087h-1.685c-0.078-1.24-0.525-2.241-1.34-3.003s-1.843-1.143-3.083-1.143
		c-1.582,0-2.81,0.571-3.684,1.714s-1.311,2.744-1.311,4.805v0.513c0,2.021,0.437,3.599,1.311,4.731
		S655.801,557.422,657.393,557.422z"/>
	<path class="st1" d="M676.242,558.608c-0.176-0.498-0.288-1.235-0.337-2.212c-0.615,0.801-1.399,1.418-2.351,1.853
		s-1.96,0.652-3.025,0.652c-1.523,0-2.756-0.425-3.699-1.274s-1.414-1.924-1.414-3.223c0-1.543,0.642-2.764,1.926-3.662
		s3.074-1.348,5.369-1.348h3.179v-1.802c0-1.133-0.349-2.024-1.047-2.674s-1.716-0.974-3.054-0.974
		c-1.221,0-2.231,0.312-3.032,0.938s-1.201,1.377-1.201,2.256l-1.758-0.015c0-1.26,0.586-2.352,1.758-3.274s2.612-1.384,4.321-1.384
		c1.768,0,3.162,0.441,4.182,1.325s1.545,2.117,1.575,3.699v7.5c0,1.533,0.161,2.681,0.483,3.442v0.176H676.242z M670.734,557.349
		c1.172,0,2.219-0.283,3.142-0.85s1.594-1.323,2.014-2.271v-3.486h-3.135c-1.748,0.02-3.115,0.339-4.102,0.959
		s-1.479,1.473-1.479,2.557c0,0.889,0.33,1.626,0.989,2.212S669.68,557.349,670.734,557.349z"/>
	<path class="st1" d="M684.281,538.701v4.058h3.281v1.436h-3.281v10.573c0,0.88,0.159,1.535,0.476,1.965
		c0.317,0.431,0.847,0.646,1.589,0.646c0.293,0,0.767-0.049,1.421-0.146l0.073,1.423c-0.459,0.164-1.084,0.247-1.875,0.247
		c-1.201,0-2.075-0.35-2.622-1.048s-0.82-1.726-0.82-3.083v-10.576h-2.915v-1.436h2.915v-4.058H684.281z"/>
	<path class="st1" d="M690.343,538.181c0-0.33,0.107-0.608,0.322-0.837c0.215-0.228,0.508-0.342,0.879-0.342
		s0.667,0.114,0.886,0.342c0.22,0.229,0.33,0.507,0.33,0.837s-0.11,0.606-0.33,0.83s-0.515,0.335-0.886,0.335
		s-0.664-0.111-0.879-0.335S690.343,538.511,690.343,538.181z M692.408,558.608h-1.758v-15.85h1.758V558.608z"/>
	<path class="st1" d="M695.452,550.449c0-1.523,0.295-2.896,0.886-4.116s1.426-2.171,2.505-2.85s2.302-1.018,3.669-1.018
		c2.109,0,3.818,0.739,5.127,2.219s1.963,3.44,1.963,5.882v0.366c0,1.533-0.295,2.912-0.886,4.138s-1.423,2.171-2.498,2.835
		s-2.3,0.996-3.677,0.996c-2.1,0-3.806-0.74-5.12-2.22s-1.97-3.439-1.97-5.881V550.449z M697.21,550.933
		c0,1.895,0.491,3.449,1.472,4.665s2.268,1.824,3.86,1.824c1.582,0,2.864-0.608,3.845-1.824s1.472-2.819,1.472-4.812v-0.337
		c0-1.211-0.225-2.319-0.674-3.325s-1.079-1.785-1.89-2.337s-1.738-0.827-2.783-0.827c-1.562,0-2.837,0.612-3.823,1.838
		s-1.479,2.83-1.479,4.812V550.933z"/>
	<path class="st1" d="M714.141,542.759l0.059,2.71c0.596-0.977,1.338-1.722,2.227-2.234s1.87-0.769,2.944-0.769
		c1.699,0,2.964,0.479,3.794,1.436s1.25,2.393,1.26,4.307v10.4h-1.743v-10.415c-0.01-1.416-0.31-2.471-0.901-3.164
		s-1.536-1.04-2.834-1.04c-1.084,0-2.043,0.339-2.878,1.018s-1.453,1.595-1.853,2.747v10.854h-1.743v-15.85H714.141z"/>
	<path class="st1" d="M738.205,558.608c-0.176-0.498-0.288-1.235-0.337-2.212c-0.615,0.801-1.399,1.418-2.351,1.853
		s-1.96,0.652-3.025,0.652c-1.523,0-2.756-0.425-3.699-1.274s-1.414-1.924-1.414-3.223c0-1.543,0.642-2.764,1.926-3.662
		s3.074-1.348,5.369-1.348h3.179v-1.802c0-1.133-0.349-2.024-1.047-2.674s-1.716-0.974-3.054-0.974
		c-1.221,0-2.231,0.312-3.032,0.938s-1.201,1.377-1.201,2.256l-1.758-0.015c0-1.26,0.586-2.352,1.758-3.274s2.612-1.384,4.321-1.384
		c1.768,0,3.162,0.441,4.182,1.325s1.545,2.117,1.575,3.699v7.5c0,1.533,0.161,2.681,0.483,3.442v0.176H738.205z M732.697,557.349
		c1.172,0,2.219-0.283,3.142-0.85s1.594-1.323,2.014-2.271v-3.486h-3.135c-1.748,0.02-3.115,0.339-4.102,0.959
		s-1.479,1.473-1.479,2.557c0,0.889,0.33,1.626,0.989,2.212S731.643,557.349,732.697,557.349z"/>
	<path class="st1" d="M745.482,558.608h-1.758v-22.5h1.758V558.608z"/>
	<path class="st1" d="M758.265,557.085h10.532v1.523h-12.349V537.28h1.816V557.085z"/>
	<path class="st1" d="M777.231,558.901c-1.348,0-2.566-0.332-3.655-0.996s-1.936-1.59-2.542-2.776s-0.908-2.517-0.908-3.991v-0.63
		c0-1.523,0.295-2.896,0.886-4.116s1.414-2.181,2.468-2.879s2.197-1.047,3.428-1.047c1.924,0,3.45,0.656,4.578,1.97
		s1.692,3.108,1.692,5.384v0.981H771.87v0.337c0,1.797,0.515,3.293,1.545,4.489s2.327,1.795,3.889,1.795
		c0.938,0,1.765-0.171,2.483-0.513s1.37-0.889,1.956-1.641l1.099,0.835C781.553,557.969,779.683,558.901,777.231,558.901z
		 M776.909,543.96c-1.318,0-2.429,0.483-3.333,1.45s-1.453,2.266-1.648,3.896h9.507v-0.19c-0.049-1.523-0.483-2.764-1.304-3.721
		S778.237,543.96,776.909,543.96z"/>
	<path class="st1" d="M795.847,558.608c-0.176-0.498-0.288-1.235-0.337-2.212c-0.615,0.801-1.399,1.418-2.351,1.853
		s-1.96,0.652-3.025,0.652c-1.523,0-2.756-0.425-3.699-1.274s-1.414-1.924-1.414-3.223c0-1.543,0.642-2.764,1.926-3.662
		s3.074-1.348,5.369-1.348h3.179v-1.802c0-1.133-0.349-2.024-1.047-2.674s-1.716-0.974-3.054-0.974
		c-1.221,0-2.231,0.312-3.032,0.938s-1.201,1.377-1.201,2.256l-1.758-0.015c0-1.26,0.586-2.352,1.758-3.274s2.612-1.384,4.321-1.384
		c1.768,0,3.162,0.441,4.182,1.325s1.545,2.117,1.575,3.699v7.5c0,1.533,0.161,2.681,0.483,3.442v0.176H795.847z M790.339,557.349
		c1.172,0,2.219-0.283,3.142-0.85s1.594-1.323,2.014-2.271v-3.486h-3.135c-1.748,0.02-3.115,0.339-4.102,0.959
		s-1.479,1.473-1.479,2.557c0,0.889,0.33,1.626,0.989,2.212S789.284,557.349,790.339,557.349z"/>
	<path class="st1" d="M800.458,550.537c0-2.461,0.549-4.422,1.647-5.882s2.591-2.189,4.476-2.189c2.139,0,3.77,0.845,4.893,2.534
		v-8.892h1.743v22.5h-1.641l-0.073-2.109c-1.123,1.602-2.773,2.402-4.951,2.402c-1.826,0-3.299-0.735-4.417-2.205
		s-1.677-3.454-1.677-5.954V550.537z M802.23,550.845c0,2.021,0.405,3.615,1.216,4.782s1.953,1.751,3.428,1.751
		c2.158,0,3.691-0.952,4.6-2.856v-7.441c-0.908-2.061-2.432-3.091-4.57-3.091c-1.475,0-2.622,0.578-3.442,1.735
		S802.23,548.589,802.23,550.845z"/>
	<path class="st1" d="M823.219,558.901c-1.348,0-2.565-0.332-3.654-0.996s-1.937-1.59-2.542-2.776s-0.908-2.517-0.908-3.991v-0.63
		c0-1.523,0.296-2.896,0.887-4.116s1.413-2.181,2.468-2.879s2.197-1.047,3.428-1.047c1.924,0,3.45,0.656,4.578,1.97
		s1.691,3.108,1.691,5.384v0.981h-11.309v0.337c0,1.797,0.516,3.293,1.546,4.489s2.326,1.795,3.889,1.795
		c0.938,0,1.766-0.171,2.483-0.513s1.369-0.889,1.955-1.641l1.099,0.835C827.54,557.969,825.67,558.901,823.219,558.901z
		 M822.896,543.96c-1.318,0-2.429,0.483-3.332,1.45s-1.453,2.266-1.648,3.896h9.507v-0.19c-0.049-1.523-0.483-2.764-1.304-3.721
		S824.225,543.96,822.896,543.96z"/>
	<path class="st1" d="M839.153,544.253c-0.371-0.068-0.767-0.103-1.187-0.103c-1.094,0-2.019,0.305-2.775,0.915
		s-1.297,1.497-1.619,2.659v10.884h-1.743v-15.85h1.714l0.029,2.52c0.928-1.875,2.417-2.812,4.468-2.812
		c0.488,0,0.874,0.063,1.157,0.19L839.153,544.253z"/>
	<path class="st1" d="M850.664,554.58c0-0.869-0.35-1.567-1.047-2.095c-0.699-0.527-1.751-0.94-3.157-1.238s-2.497-0.64-3.274-1.025
		c-0.775-0.386-1.353-0.856-1.729-1.413s-0.563-1.23-0.563-2.021c0-1.25,0.522-2.283,1.567-3.099s2.383-1.223,4.014-1.223
		c1.768,0,3.186,0.437,4.256,1.311c1.068,0.874,1.604,2.015,1.604,3.421h-1.758c0-0.928-0.389-1.699-1.164-2.314
		c-0.777-0.615-1.756-0.923-2.938-0.923c-1.152,0-2.078,0.256-2.775,0.769c-0.699,0.513-1.048,1.18-1.048,2
		c0,0.791,0.29,1.403,0.872,1.838c0.58,0.435,1.641,0.833,3.178,1.194c1.539,0.361,2.69,0.747,3.457,1.157s1.336,0.903,1.707,1.479
		s0.557,1.274,0.557,2.095c0,1.338-0.54,2.407-1.619,3.208s-2.487,1.201-4.226,1.201c-1.846,0-3.343-0.447-4.489-1.341
		c-1.148-0.894-1.722-2.023-1.722-3.391h1.758c0.068,1.025,0.5,1.823,1.296,2.395s1.849,0.857,3.157,0.857
		c1.221,0,2.207-0.269,2.959-0.806S850.664,555.4,850.664,554.58z"/>
	<path class="st1" d="M857.355,545.439c0.576-0.947,1.313-1.68,2.212-2.197s1.88-0.776,2.944-0.776c1.699,0,2.964,0.479,3.794,1.436
		s1.25,2.393,1.26,4.307v10.4h-1.743v-10.415c-0.01-1.416-0.311-2.471-0.901-3.164s-1.535-1.04-2.834-1.04
		c-1.084,0-2.043,0.339-2.879,1.018c-0.834,0.679-1.452,1.595-1.853,2.747v10.854h-1.743v-22.5h1.743V545.439z"/>
	<path class="st1" d="M871.225,538.181c0-0.33,0.107-0.608,0.322-0.837c0.215-0.228,0.508-0.342,0.879-0.342
		s0.667,0.114,0.886,0.342c0.221,0.229,0.33,0.507,0.33,0.837s-0.109,0.606-0.33,0.83c-0.219,0.224-0.515,0.335-0.886,0.335
		s-0.664-0.111-0.879-0.335S871.225,538.511,871.225,538.181z M873.29,558.608h-1.758v-15.85h1.758V558.608z"/>
	<path class="st1" d="M890.045,550.845c0,2.471-0.547,4.431-1.641,5.881s-2.559,2.176-4.395,2.176c-2.168,0-3.828-0.762-4.98-2.285
		v8.086h-1.743v-21.943h1.626L879,545c1.143-1.689,2.798-2.534,4.966-2.534c1.895,0,3.381,0.718,4.46,2.153s1.619,3.428,1.619,5.977
		V550.845z M888.287,550.537c0-2.021-0.415-3.618-1.245-4.79s-1.987-1.758-3.472-1.758c-1.074,0-1.997,0.259-2.769,0.776
		s-1.362,1.27-1.772,2.256v7.603c0.42,0.908,1.021,1.602,1.802,2.08s1.704,0.718,2.769,0.718c1.475,0,2.624-0.589,3.449-1.766
		S888.287,552.773,888.287,550.537z"/>
	<path class="st1" d="M893.016,557.554c0-0.342,0.11-0.633,0.329-0.872c0.221-0.239,0.525-0.358,0.916-0.358
		s0.698,0.119,0.923,0.358s0.337,0.53,0.337,0.872s-0.112,0.622-0.337,0.842s-0.532,0.33-0.923,0.33s-0.695-0.11-0.916-0.33
		C893.126,558.176,893.016,557.896,893.016,557.554z"/>
</g>
</svg>
