<?xml version="1.0" encoding="utf-8"?>
<!-- Generator: Adobe Illustrator 22.0.1, SVG Export Plug-In . SVG Version: 6.00 Build 0)  -->
<svg version="1.1" id="Layer_1" xmlns="http://www.w3.org/2000/svg" xmlns:xlink="http://www.w3.org/1999/xlink" x="0px" y="0px"
	 viewBox="0 0 1600 650" style="enable-background:new 0 0 1600 650;" xml:space="preserve">
<style type="text/css">
	.st0{opacity:0.66;enable-background:new    ;}
	.st1{fill:#50A8B4;}
	.st2{fill:#FFFFFF;}
</style>
<g class="st0">
	<path class="st1" d="M282.9,329.4c-4.7,0-7.5,3.1-8.4,9.4h16.3v-1.3c0-2.6-0.6-4.6-2-6C287.4,330.1,285.5,329.4,282.9,329.4z"/>
	<path class="st1" d="M450.8,329.4c-4.7,0-7.5,3.1-8.4,9.4h16.3v-1.3c0-2.6-0.6-4.6-2-6C455.3,330.1,453.4,329.4,450.8,329.4z"/>
	<path class="st1" d="M222.9,313h-5.6v43.7h5.8c4.8,0,8.5-1.7,11.1-5.1c2.6-3.4,3.9-8.5,3.9-15.3v-3c0-6.7-1.3-11.8-3.9-15.2
		C231.6,314.7,227.8,313,222.9,313z"/>
	<path class="st1" d="M716.8,354.1c0,1.5,0.5,2.7,1.5,3.6c1,0.9,2.3,1.4,3.8,1.4c2,0,3.7-0.4,5-1.3c1.3-0.8,2.2-1.8,2.8-2.9l0-8.4
		h-4.7C719.6,346.5,716.8,349.1,716.8,354.1z"/>
	<path class="st1" d="M616.2,354.1c0,1.5,0.5,2.7,1.5,3.6c1,0.9,2.3,1.4,3.8,1.4c2,0,3.7-0.4,5-1.3c1.3-0.8,2.2-1.8,2.8-2.9l0-8.4
		h-4.7C619,346.5,616.2,349.1,616.2,354.1z"/>
	<path class="st1" d="M436.4,274.2c5.7,0,8.7-4.5,8.8-13.3v-1.6c0-9.3-3-13.9-8.9-13.9c-5.4,0-8.4,4-8.8,12v2.9
		c0,4.8,0.7,8.3,2.2,10.5C431.2,273.1,433.5,274.2,436.4,274.2z"/>
	<path class="st1" d="M765.9,274.1c3.8,0,6.2-1.8,7.2-5.5c0.5-1.9,0.8-5,0.8-9.5c0-4.9-0.7-8.5-2-10.6s-3.4-3.2-6.1-3.2
		c-3.7,0-6.2,1.4-7.6,4.2l0,20.5C759.6,272.7,762.2,274.1,765.9,274.1z"/>
	<path class="st1" d="M707.1,270.2c0,1.5,0.5,2.7,1.5,3.6c1,0.9,2.3,1.4,3.8,1.4c2,0,3.7-0.4,5-1.3c1.3-0.8,2.2-1.8,2.8-2.9v-8.3
		l0-0.1h-4.7C709.9,262.6,707.1,265.2,707.1,270.2z"/>
	<path class="st1" d="M296.3,253.5c0-2.6-0.6-4.6-2-6c-1.4-1.4-3.3-2.1-5.9-2.1c-4.7,0-7.5,3.1-8.4,9.3h16.3V253.5z"/>
	<path class="st1" d="M889.6,274.2c3.6,0,6.2-1.5,7.7-4.5V250c-1.5-3.1-4-4.6-7.6-4.6c-5,0-7.7,4.1-8.1,12.1l0,2.9
		C881.6,269.6,884.2,274.2,889.6,274.2z"/>
	<path class="st1" d="M775,329.3c-2.8,0-5.1,1.3-6.7,3.9c-1.6,2.6-2.4,6.3-2.4,11.2c0,4.3,0.8,7.6,2.4,10.1c1.6,2.5,3.8,3.7,6.7,3.7
		c3.5,0,6-1.2,7.6-3.5l-0.1-21.9C780.9,330.5,778.4,329.3,775,329.3z"/>
	<path class="st1" d="M959,329.4c-4.7,0-7.5,3.1-8.4,9.4l16.3-0.1v-1.2c0-2.6-0.6-4.6-2-6C963.5,330.1,961.6,329.4,959,329.4z"/>
	<path class="st1" d="M848.6,253.5c0-2.6-0.6-4.6-2-6c-1.4-1.4-3.3-2.1-5.9-2.1c-4.8,0-7.6,3.1-8.4,9.3h16.3V253.5z"/>
	<path class="st1" d="M827.9,329.4c-4.7,0-7.5,3.1-8.4,9.4l16.3-0.1v-1.2c0-2.6-0.6-4.6-2-6C832.4,330.1,830.5,329.4,827.9,329.4z"
		/>
	<path class="st1" d="M0-0.4v721.5h1600V-0.4H0z M870.7,240c3.5-4.7,8.5-7.1,14.8-7.1c4.6,0,8.5,1.9,11.7,5.5v-26.2h16.2v73.5h-14.5
		l-0.8-5.6c-3.3,4.3-7.5,6.5-12.6,6.5c-6.2,0-11.1-2.3-14.7-7.1c-3.6-4.7-5.4-11.4-5.4-20.1C865.4,251.2,867.2,244.7,870.7,240z
		 M794.7,212.2h16.2v73.5h-16.2V212.2z M742.1,212.3h16.1v25.9c3-3.4,6.8-5.1,11.6-5.1c6.4,0,11.4,2.3,14.9,6.9
		c3.5,4.6,5.3,11.1,5.3,19.5v0.8c0,8.5-1.8,15-5.3,19.6c-3.5,4.5-8.4,6.8-14.8,6.8c-5.2,0-9.5-2.1-12.7-6.3l-0.6,5.4h-14.5V212.3z
		 M713.8,244.1c-3.8,0-5.7,1.9-5.7,5.7H692c0-5,2.1-9.1,6.4-12.2c4.3-3.1,9.7-4.7,16.3-4.7s11.8,1.6,15.6,4.8
		c3.8,3.3,5.8,7.7,5.9,13.3v22.9c0.1,4.7,0.8,8.4,2.2,10.9v0.8h-16.1c-0.5-1-1.1-2.6-1.5-4.6c-2.9,3.7-7.1,5.6-12.4,5.6
		c-4.8,0-9-1.4-12.4-4.4c-3.4-2.9-5.1-6.6-5.1-11.1c0-5.6,2.1-9.8,6.2-12.7c4.2-2.9,10.2-4.3,18.1-4.3V254h4.8v-2.7
		C720,246.5,717.9,244.1,713.8,244.1z M641,233.9h15.2l0.5,6.1c3.6-4.7,8.5-7,14.8-7c5.4,0,9.4,1.6,12.1,4.8c2.6,3.2,4,8,4.1,14.5
		v33.4h-16.2V253c0-2.6-0.5-4.6-1.6-5.8c-1-1.2-2.9-1.8-5.7-1.8c-3.1,0-5.5,1.2-7,3.7h-0.1v36.6H641V233.9z M590.6,216h48.1v13
		h-31.3v14.7h26.4v12.4h-26.4v16.7h31.2v12.9h-48V216z M551.9,249.4h28.8v12.4h-28.8V249.4z M411.3,259.3c0-5.2,1-9.8,3-13.8
		s4.9-7.1,8.7-9.3c3.8-2.2,8.2-3.3,13.3-3.3c7.7,0,13.8,2.4,18.3,7.2s6.7,11.3,6.7,19.6v0.6c0,8.1-2.2,14.5-6.7,19.2
		s-10.5,7.1-18.2,7.1c-7.4,0-13.3-2.2-17.8-6.6c-4.5-4.4-6.9-10.4-7.3-18V259.3z M263.5,259.6c0-5.3,0.9-9.9,2.9-14
		c2-4,4.8-7.2,8.6-9.4s8.2-3.3,13.4-3.3c7.2,0,13,2.3,17.2,6.8s6.3,10.8,6.3,18.9v6.3h-32.1c0.6,2.9,1.9,5.1,3.8,6.8
		c2,1.7,4.5,2.5,7.6,2.5c5.1,0,9.1-1.8,12-5.4l7.4,8.7c-2,2.7-4.8,5-8.5,6.6c-3.7,1.7-7.7,2.5-11.9,2.5c-7.9,0-14.3-2.3-19.3-7.2
		c-4.9-4.7-7.4-10.9-7.4-18.5V259.6z M200.5,216h16.8l24.6,43.4V216h16.7v69.7h-16.7l-24.6-43.4v43.4h-16.8V216z M255.2,336.3
		c0,6.4-1.3,12.1-4,17.2c-2.7,5.1-6.5,9-11.4,11.9c-4.9,2.8-10.4,4.3-16.4,4.3h-22.9V300h22.4c6.2,0,11.7,1.4,16.6,4.2
		c4.9,2.8,8.8,6.7,11.5,11.8c2.8,5.1,4.2,10.8,4.2,17.1V336.3z M306.6,348.9h-32.1c0.6,2.9,1.9,5.1,3.8,6.8c2,1.7,4.5,2.5,7.6,2.5
		c5.1,0,9.1-1.8,12-5.4l7.4,8.7c-2,2.7-4.8,5-8.5,6.6c-3.7,1.7-7.7,2.5-11.9,2.5c-8,0-14.4-2.4-19.3-7.1c-4.9-4.7-7.4-10.9-7.4-18.5
		v-1.3c0-5.3,0.9-9.9,2.9-14c2-4,4.8-7.2,8.6-9.4s8.2-3.3,13.4-3.3c7.2,0,13,2.2,17.2,6.7c4.2,4.5,6.3,10.8,6.3,18.9V348.9z
		 M338.1,369.7h-16.5l-16.9-51.8h17l8.1,32.6l8.2-32.6h17L338.1,369.7z M373.5,369.7h-16.2v-51.8h16.2V369.7z M371.7,310.2
		c-1.7,1.5-3.9,2.2-6.5,2.2c-2.7,0-4.8-0.7-6.5-2.2s-2.5-3.4-2.5-5.7c0-2.3,0.8-4.2,2.5-5.7s3.8-2.2,6.5-2.2s4.8,0.7,6.5,2.2
		s2.5,3.4,2.5,5.7C374.2,306.8,373.4,308.7,371.7,310.2z M367.8,285.7h-13.6l-11.7-49.8v9.2H334v23.7c0,2,0.4,3.3,1.1,4.1
		c0.7,0.7,2.1,1.1,4.2,1.1c1.6,0,2.9-0.1,4-0.3v11.5c-2.9,0.9-5.9,1.4-9.1,1.4c-5.6,0-9.7-1.3-12.3-3.9c-2.7-2.6-4-6.6-4-11.9v-25.7
		h-6.6v-11.2h6.6V221H334v12.9h8.1h0.5h15l5.1,31.2l8.2-31.2h11.2l8.1,30.5l5.2-30.5h15.5l-12.2,51.8l-13.7,0l-8.6-30.7L367.8,285.7
		z M396,355.1c1.2,2,3.2,3,5.9,3c2.3,0,4.1-0.6,5.3-1.8s1.8-2.9,1.8-5.1h15.2c0,5.7-2,10.4-6.1,14c-4,3.7-9.3,5.5-15.7,5.5
		c-7.5,0-13.5-2.4-17.8-7.1s-6.5-11.2-6.5-19.6v-0.7c0-5.3,1-9.9,2.9-13.9c2-4,4.8-7.1,8.4-9.2c3.6-2.1,7.9-3.2,12.9-3.2
		c6.7,0,12,1.9,16,5.6c3.9,3.8,5.9,8.8,5.9,15.2h-15.1c0-2.7-0.7-4.8-2-6.2c-1.3-1.5-3.1-2.2-5.3-2.2c-4.2,0-6.6,2.7-7.4,7.9
		c-0.2,1.7-0.3,4-0.3,7C394.1,349.5,394.8,353.1,396,355.1z M474.5,348.9h-32.1c0.6,2.9,1.9,5.1,3.8,6.8c2,1.7,4.5,2.5,7.6,2.5
		c5.1,0,9.1-1.8,12-5.4l7.4,8.7c-2,2.7-4.8,5-8.5,6.6c-3.7,1.7-7.7,2.5-11.9,2.5c-8,0-14.4-2.4-19.3-7.1c-4.9-4.7-7.4-10.9-7.4-18.5
		v-1.3c0-5.3,0.9-9.9,2.9-14c2-4,4.8-7.2,8.6-9.4s8.2-3.3,13.4-3.3c7.2,0,13,2.2,17.2,6.7c4.2,4.5,6.3,10.8,6.3,18.9V348.9z
		 M496.4,248.5l-5.3-0.4c-5.1,0-8.4,1.6-9.8,4.8v32.8h-16.1v-51.8h15.1l0.5,6.7c2.7-5.1,6.5-7.6,11.4-7.7c1.7,0,3.2,0.2,4.5,0.6
		L496.4,248.5z M515.1,270.9v14.8H499v-73.6h16.1v39.1l1.6-2.2l12.2-15.1h19.3l-18.1,21.3l19.3,30.5h-18.5l-11.3-19.3L515.1,270.9z
		 M595.8,369.7h-16.9v-16.3l1.6-33.3l-16.8,49.6h-11.1l-16.9-49.6l1.6,33.3v16.3h-16.8V300h22.1l15.5,48.5l15.6-48.5h22.1V369.7z
		 M647.4,369.5h-16.1c-0.5-1-1.1-2.6-1.5-4.6c-2.9,3.7-7.1,5.6-12.4,5.6c-4.8,0-9-1.4-12.4-4.4c-3.4-2.9-5.1-6.6-5.1-11.1
		c0-5.6,2.1-9.8,6.2-12.7c4.2-2.9,10.2-4.3,18.1-4.3h5v-2.7c0-4.8-2.1-7.2-6.2-7.2c-3.8,0-5.7,1.9-5.7,5.7h-16.1
		c0-5,2.1-9.1,6.4-12.2c4.3-3.1,9.7-4.7,16.3-4.7s11.8,1.6,15.6,4.8c3.8,3.3,5.8,7.7,5.9,13.3h-0.2v22.8c0.1,4.7,0.8,8.4,2.2,10.9
		V369.5z M697.4,369.7h-16.2V337c0-2.6-0.5-4.6-1.6-5.8c-1-1.2-2.9-1.8-5.7-1.8c-3.1,0-5.5,1.2-7,3.7v36.6h-16.1v-51.8h15.1l0.5,6.1
		c3.6-4.7,8.5-7,14.8-7c5.3,0,9.4,1.6,12.1,4.8c2.6,3.2,4,8,4.1,14.5V369.7z M748.1,369.5H732c-0.5-1-1.1-2.6-1.5-4.6
		c-2.9,3.7-7.1,5.6-12.4,5.6c-4.8,0-9-1.4-12.4-4.4c-3.4-2.9-5.1-6.6-5.1-11.1c0-5.6,2.1-9.8,6.2-12.7c4.2-2.9,10.2-4.3,18.1-4.3h5
		v-2.7c0-4.8-2.1-7.2-6.2-7.2c-3.8,0-5.7,1.9-5.7,5.7h-16.1c0-5,2.1-9.1,6.4-12.2c4.3-3.1,9.7-4.7,16.3-4.7s11.8,1.6,15.6,4.8
		c3.8,3.3,5.8,7.7,5.9,13.3h-0.2v22.8c0.1,4.7,0.8,8.4,2.2,10.9V369.5z M798.9,367.7c0,4.6-1.1,8.5-3.2,11.9c-2.1,3.4-5.2,6-9.2,7.8
		c-4,1.8-8.7,2.7-14,2.7c-3.8,0-7.4-0.8-11-2.2c-3.6-1.4-6.3-3.3-8.2-5.6l6.7-9.5c3,3.5,7,5.3,11.9,5.3c7.1,0,10.7-3.7,10.7-11v-1.6
		c-3.1,3.4-7,5.1-11.7,5.1c-6.3,0-11.4-2.4-15.3-7.2c-3.9-4.8-5.8-11.3-5.8-19.4v-0.6c0-5.3,0.9-9.9,2.6-13.9s4.2-7.1,7.4-9.3
		c3.2-2.2,6.9-3.3,11.2-3.3c5.4,0,9.6,1.9,12.6,5.5l0.7-4.5h14.6V367.7z M851.5,348.9h-32.1c0.6,2.9,1.9,5.1,3.8,6.8
		c2,1.7,4.5,2.5,7.6,2.5c5.1,0,9.1-1.8,12-5.4l7.4,8.7c-2,2.7-4.8,5-8.5,6.6c-3.7,1.7-7.7,2.5-11.9,2.5c-8,0-14.4-2.4-19.3-7.1
		s-7.4-10.9-7.4-18.5v-1.3c0-5.3,0.9-9.9,2.9-14c2-4,4.8-7.2,8.6-9.4c3.8-2.2,8.2-3.3,13.4-3.3c7.3,0,13,2.2,17.2,6.7
		c4.2,4.5,6.3,10.8,6.3,18.9V348.9z M842.5,286.5c-8,0-14.4-2.4-19.3-7.1s-7.4-10.9-7.4-18.5v-1.3c0-5.3,0.9-9.9,2.9-14
		c2-4,4.8-7.2,8.6-9.4c3.8-2.2,8.2-3.3,13.4-3.3c7.2,0,13,2.3,17.2,6.8s6.3,10.8,6.3,18.9v6.3h-32.1c0.6,2.9,1.9,5.1,3.8,6.8
		c2,1.7,4.5,2.5,7.6,2.5c5.1,0,9.1-1.8,12-5.4l7.4,8.7c-2,2.8-4.9,5-8.5,6.5C850.7,285.7,846.7,286.5,842.5,286.5z M930,369.6h-16.2
		v-32.7c0-2.7-0.4-4.6-1.3-5.8s-2.5-1.8-4.9-1.8c-3.2,0-5.5,1.5-7.1,4.3v0.7v35.4h-16.2v-32.6c0-2.7-0.4-4.7-1.3-5.9
		c-0.8-1.2-2.5-1.8-4.9-1.8c-3.1,0-5.5,1.5-7.1,4.3v36h-16.2v-51.8h15.1l0.5,6.1c3.7-4.7,8.6-7,14.8-7c6.6,0,11,2.6,13.3,7.8
		c3.5-5.2,8.6-7.8,15.2-7.8c10.5,0,15.9,6.3,16.3,19V369.6z M982.6,348.9h-32.1c0.6,2.9,1.9,5.1,3.8,6.8c2,1.7,4.5,2.5,7.6,2.5
		c5.1,0,9.1-1.8,12-5.4l7.4,8.7c-2,2.7-4.8,5-8.5,6.6c-3.7,1.7-7.7,2.5-11.9,2.5c-8,0-14.4-2.4-19.3-7.1s-7.4-10.9-7.4-18.5v-1.3
		c0-5.3,0.9-9.9,2.9-14c2-4,4.8-7.2,8.6-9.4c3.8-2.2,8.2-3.3,13.4-3.3c7.3,0,13,2.2,17.2,6.7c4.2,4.5,6.3,10.8,6.3,18.9V348.9z
		 M1032.1,369.7h-16.2V337c0-2.6-0.5-4.6-1.6-5.8c-1-1.2-2.9-1.8-5.7-1.8c-3.1,0-5.5,1.2-7,3.7v36.6h-16.1v-51.8h15.1l0.5,6.1
		c3.6-4.7,8.5-7,14.8-7c5.4,0,9.5,1.6,12.1,4.8c2.6,3.2,4,8,4.1,14.5V369.7z M1065.7,369.2c-2.9,0.9-5.9,1.4-9.1,1.4
		c-5.6,0-9.7-1.3-12.3-3.9c-2.7-2.6-4-6.6-4-11.9v-25.7h-6.6v-11.2h6.6V305h16.1v12.9h8.5v11.2h-8.5v23.7c0,2,0.4,3.3,1.1,4.1
		c0.7,0.7,2.1,1.1,4.2,1.1c1.6,0,3-0.1,4-0.3V369.2z"/>
</g>
<path class="st2" d="M209.8,426.3v14.6c0,1.4-0.3,2.7-1,3.8s-1.5,1.9-2.6,2.5s-2.4,0.9-3.9,0.9c-2.2,0-4-0.6-5.4-1.8
	s-2.1-2.9-2.1-5.1v-14.7h1.8v14.4c0,1.8,0.5,3.2,1.5,4.2s2.4,1.5,4.2,1.5s3.1-0.5,4.2-1.5s1.5-2.4,1.5-4.2v-14.4h1.8V426.3z"/>
<path class="st2" d="M215.3,431.8l0.1,2.7c0.6-1,1.3-1.7,2.2-2.2s1.9-0.8,2.9-0.8c1.7,0,3,0.5,3.8,1.4s1.2,2.4,1.3,4.3v10.4h-1.7
	v-10.4c0-1.4-0.3-2.5-0.9-3.2s-1.5-1-2.8-1c-1.1,0-2,0.3-2.9,1s-1.5,1.6-1.9,2.7v10.9h-1.7v-15.9h1.6L215.3,431.8L215.3,431.8z"/>
<path class="st2" d="M228.7,439.5c0-2.5,0.5-4.4,1.6-5.9s2.6-2.2,4.5-2.2c2.1,0,3.8,0.8,4.9,2.5V425h1.7v22.5h-1.6l-0.1-2.1
	c-1.1,1.6-2.8,2.4-5,2.4c-1.8,0-3.3-0.7-4.4-2.2s-1.7-3.5-1.7-6v-0.1L228.7,439.5L228.7,439.5z M230.4,439.8c0,2,0.4,3.6,1.2,4.8
	s2,1.8,3.4,1.8c2.2,0,3.7-1,4.6-2.9v-7.4c-0.9-2.1-2.4-3.1-4.6-3.1c-1.5,0-2.6,0.6-3.4,1.7S230.4,437.6,230.4,439.8z"/>
<path class="st2" d="M251.4,447.9c-1.3,0-2.6-0.3-3.7-1s-1.9-1.6-2.5-2.8s-0.9-2.5-0.9-4v-0.6c0-1.5,0.3-2.9,0.9-4.1
	s1.4-2.2,2.5-2.9s2.2-1,3.4-1c1.9,0,3.4,0.7,4.6,2c1.1,1.3,1.7,3.1,1.7,5.4v1h-11.3v0.3c0,1.8,0.5,3.3,1.5,4.5s2.3,1.8,3.9,1.8
	c0.9,0,1.8-0.2,2.5-0.5s1.4-0.9,2-1.6l1.1,0.8C255.8,447,253.9,447.9,251.4,447.9z M251.1,433c-1.3,0-2.4,0.5-3.3,1.5
	s-1.5,2.3-1.6,3.9h9.5v-0.2c0-1.5-0.5-2.8-1.3-3.7S252.4,433,251.1,433z"/>
<path class="st2" d="M267.4,433.3c-0.4-0.1-0.8-0.1-1.2-0.1c-1.1,0-2,0.3-2.8,0.9s-1.3,1.5-1.6,2.7v10.9H260v-15.9h1.7v2.5
	c0.9-1.9,2.4-2.8,4.5-2.8c0.5,0,0.9,0.1,1.2,0.2L267.4,433.3z"/>
<path class="st2" d="M278.9,443.6c0-0.9-0.3-1.6-1-2.1s-1.8-0.9-3.2-1.2s-2.5-0.6-3.3-1s-1.4-0.9-1.7-1.4s-0.6-1.2-0.6-2
	c0-1.2,0.5-2.3,1.6-3.1s2.4-1.2,4-1.2c1.8,0,3.2,0.4,4.3,1.3s1.6,2,1.6,3.4h-1.8c0-0.9-0.4-1.7-1.2-2.3s-1.8-0.9-2.9-0.9
	c-1.2,0-2.1,0.3-2.8,0.8s-1,1.2-1,2s0.3,1.4,0.9,1.8s1.6,0.8,3.2,1.2s2.7,0.7,3.5,1.2s1.3,0.9,1.7,1.5s0.6,1.3,0.6,2.1
	c0,1.3-0.5,2.4-1.6,3.2s-2.5,1.2-4.2,1.2c-1.8,0-3.3-0.4-4.5-1.3s-1.7-2-1.7-3.4h1.8c0.1,1,0.5,1.8,1.3,2.4s1.8,0.9,3.2,0.9
	c1.2,0,2.2-0.3,3-0.8S278.9,444.4,278.9,443.6z"/>
<path class="st2" d="M286.6,427.7v4.1h3.3v1.4h-3.3v10.6c0,0.9,0.2,1.5,0.5,2c0.3,0.4,0.8,0.6,1.6,0.6c0.3,0,0.8,0,1.4-0.1l0.1,1.4
	c-0.5,0.2-1.1,0.2-1.9,0.2c-1.2,0-2.1-0.3-2.6-1s-0.8-1.7-0.8-3.1v-10.6H282v-1.4h2.9v-4.1H286.6L286.6,427.7L286.6,427.7z"/>
<path class="st2" d="M302.7,447.6c-0.2-0.5-0.3-1.2-0.3-2.2c-0.6,0.8-1.4,1.4-2.4,1.9s-2,0.7-3,0.7c-1.5,0-2.8-0.4-3.7-1.3
	s-1.4-1.9-1.4-3.2c0-1.5,0.6-2.8,1.9-3.7s3.1-1.3,5.4-1.3h3.2v-1.8c0-1.1-0.3-2-1-2.7s-1.7-1-3.1-1c-1.2,0-2.2,0.3-3,0.9
	s-1.2,1.4-1.2,2.3h-1.8c0-1.3,0.6-2.4,1.8-3.3s2.6-1.4,4.3-1.4c1.8,0,3.2,0.4,4.2,1.3s1.5,2.1,1.6,3.7v7.5c0,1.5,0.2,2.7,0.5,3.4
	v0.2H302.7L302.7,447.6z M297.2,446.3c1.2,0,2.2-0.3,3.1-0.9s1.6-1.3,2-2.3v-3.5h-3.1c-1.7,0-3.1,0.3-4.1,1s-1.5,1.5-1.5,2.6
	c0,0.9,0.3,1.6,1,2.2S296.2,446.3,297.2,446.3z"/>
<path class="st2" d="M309.7,431.8l0.1,2.7c0.6-1,1.3-1.7,2.2-2.2s1.9-0.8,2.9-0.8c1.7,0,3,0.5,3.8,1.4s1.2,2.4,1.3,4.3v10.4h-1.7
	v-10.4c0-1.4-0.3-2.5-0.9-3.2s-1.5-1-2.8-1c-1.1,0-2,0.3-2.9,1s-1.5,1.6-1.9,2.7v10.9H308v-15.9h1.7V431.8z"/>
<path class="st2" d="M323.1,439.5c0-2.5,0.5-4.4,1.6-5.9s2.6-2.2,4.5-2.2c2.1,0,3.8,0.8,4.9,2.5V425h1.7v22.5h-1.6l-0.1-2.1
	c-1.1,1.6-2.8,2.4-5,2.4c-1.8,0-3.3-0.7-4.4-2.2s-1.7-3.5-1.7-6L323.1,439.5L323.1,439.5z M324.8,439.8c0,2,0.4,3.6,1.2,4.8
	s2,1.8,3.4,1.8c2.2,0,3.7-1,4.6-2.9v-7.4c-0.9-2.1-2.4-3.1-4.6-3.1c-1.5,0-2.6,0.6-3.4,1.7S324.8,437.6,324.8,439.8z"/>
<path class="st2" d="M339.6,427.2c0-0.3,0.1-0.6,0.3-0.8c0.2-0.2,0.5-0.3,0.9-0.3s0.7,0.1,0.9,0.3c0.2,0.2,0.3,0.5,0.3,0.8
	s-0.1,0.6-0.3,0.8c-0.2,0.2-0.5,0.3-0.9,0.3s-0.7-0.1-0.9-0.3C339.7,427.8,339.6,427.5,339.6,427.2z M341.7,447.6h-1.8v-15.9h1.8
	V447.6z"/>
<path class="st2" d="M347.3,431.8l0.1,2.7c0.6-1,1.3-1.7,2.2-2.2s1.9-0.8,2.9-0.8c1.7,0,3,0.5,3.8,1.4s1.2,2.4,1.3,4.3v10.4h-1.7
	v-10.4c0-1.4-0.3-2.5-0.9-3.2s-1.5-1-2.8-1c-1.1,0-2,0.3-2.9,1s-1.5,1.6-1.9,2.7v10.9h-1.7v-15.9h1.6V431.8z"/>
<path class="st2" d="M360.7,439.5c0-2.5,0.5-4.4,1.6-5.9s2.6-2.2,4.5-2.2c2.2,0,3.8,0.9,4.9,2.6l0.1-2.3h1.6v15.5
	c0,2-0.6,3.7-1.7,4.8s-2.7,1.8-4.6,1.8c-1.1,0-2.2-0.2-3.2-0.7s-1.8-1.1-2.4-2l1-1.1c1.2,1.5,2.7,2.3,4.4,2.3c1.5,0,2.6-0.4,3.4-1.3
	s1.2-2.1,1.3-3.6v-2c-1.1,1.6-2.8,2.3-4.9,2.3c-1.8,0-3.3-0.7-4.4-2.2s-1.7-3.4-1.7-5.9L360.7,439.5L360.7,439.5z M362.5,439.8
	c0,2,0.4,3.6,1.2,4.8s2,1.8,3.4,1.8c2.2,0,3.7-1,4.6-2.9v-7.4c-0.4-1-1-1.8-1.8-2.3s-1.7-0.8-2.8-0.8c-1.5,0-2.6,0.6-3.4,1.7
	S362.5,437.6,362.5,439.8z"/>
<path class="st2" d="M386.6,427.7v4.1h3.3v1.4h-3.3v10.6c0,0.9,0.2,1.5,0.5,2c0.3,0.4,0.8,0.6,1.6,0.6c0.3,0,0.8,0,1.4-0.1l0.1,1.4
	c-0.5,0.2-1.1,0.2-1.9,0.2c-1.2,0-2.1-0.3-2.6-1s-0.8-1.7-0.8-3.1v-10.6H382v-1.4h2.9v-4.1H386.6L386.6,427.7L386.6,427.7z"/>
<path class="st2" d="M394.5,434.4c0.6-0.9,1.3-1.7,2.2-2.2s1.9-0.8,2.9-0.8c1.7,0,3,0.5,3.8,1.4s1.2,2.4,1.3,4.3v10.4H403v-10.4
	c0-1.4-0.3-2.5-0.9-3.2s-1.5-1-2.8-1c-1.1,0-2,0.3-2.9,1s-1.5,1.6-1.9,2.7v10.9h-1.7V425h1.7L394.5,434.4L394.5,434.4z"/>
<path class="st2" d="M414.6,447.9c-1.3,0-2.6-0.3-3.7-1s-1.9-1.6-2.5-2.8s-0.9-2.5-0.9-4v-0.6c0-1.5,0.3-2.9,0.9-4.1
	s1.4-2.2,2.5-2.9s2.2-1,3.4-1c1.9,0,3.5,0.7,4.6,2s1.7,3.1,1.7,5.4v1h-11.3v0.3c0,1.8,0.5,3.3,1.5,4.5s2.3,1.8,3.9,1.8
	c0.9,0,1.8-0.2,2.5-0.5s1.4-0.9,2-1.6l1.1,0.8C418.9,447,417,447.9,414.6,447.9z M414.2,433c-1.3,0-2.4,0.5-3.3,1.5
	s-1.5,2.3-1.6,3.9h9.5v-0.2c0-1.5-0.5-2.8-1.3-3.7S415.6,433,414.2,433z"/>
<path class="st2" d="M429.6,427.2c0-0.3,0.1-0.6,0.3-0.8c0.2-0.2,0.5-0.3,0.9-0.3s0.7,0.1,0.9,0.3c0.2,0.2,0.3,0.5,0.3,0.8
	s-0.1,0.6-0.3,0.8c-0.2,0.2-0.5,0.3-0.9,0.3s-0.7-0.1-0.9-0.3C429.7,427.8,429.6,427.5,429.6,427.2z M431.7,447.6h-1.8v-15.9h1.8
	V447.6z"/>
<path class="st2" d="M437.3,431.8l0.1,2.6c0.6-1,1.3-1.7,2.2-2.2s1.9-0.7,2.9-0.7c2.5,0,4.1,1,4.8,3.1c0.6-1,1.3-1.7,2.3-2.3
	s2-0.8,3.1-0.8c3.4,0,5.1,1.9,5.2,5.6v10.6h-1.8v-10.4c0-1.4-0.3-2.5-0.9-3.1s-1.6-1-2.9-1s-2.3,0.4-3.2,1.2s-1.4,1.8-1.5,2.9v10.5
	h-1.8V437c0-1.4-0.3-2.4-1-3s-1.6-1-2.9-1c-1.1,0-2.1,0.3-2.8,0.9s-1.4,1.6-1.8,2.8v10.9h-1.8v-15.9h1.8L437.3,431.8L437.3,431.8z"
	/>
<path class="st2" d="M474.3,439.8c0,2.5-0.5,4.4-1.6,5.9s-2.6,2.2-4.4,2.2c-2.2,0-3.8-0.8-5-2.3v8.1h-1.7v-21.9h1.6l0.1,2.2
	c1.1-1.7,2.8-2.5,5-2.5c1.9,0,3.4,0.7,4.5,2.2s1.6,3.4,1.6,6v0.1L474.3,439.8L474.3,439.8z M472.5,439.5c0-2-0.4-3.6-1.2-4.8
	s-2-1.8-3.5-1.8c-1.1,0-2,0.3-2.8,0.8s-1.4,1.3-1.8,2.3v7.6c0.4,0.9,1,1.6,1.8,2.1s1.7,0.7,2.8,0.7c1.5,0,2.6-0.6,3.5-1.8
	S472.5,441.8,472.5,439.5z"/>
<path class="st2" d="M487.4,447.6c-0.2-0.5-0.3-1.2-0.3-2.2c-0.6,0.8-1.4,1.4-2.4,1.9s-2,0.7-3,0.7c-1.5,0-2.8-0.4-3.7-1.3
	s-1.4-1.9-1.4-3.2c0-1.5,0.6-2.8,1.9-3.7s3.1-1.3,5.4-1.3h3.2v-1.8c0-1.1-0.3-2-1-2.7s-1.7-1-3.1-1c-1.2,0-2.2,0.3-3,0.9
	s-1.2,1.4-1.2,2.3H477c0-1.3,0.6-2.4,1.8-3.3s2.6-1.4,4.3-1.4c1.8,0,3.2,0.4,4.2,1.3s1.5,2.1,1.6,3.7v7.5c0,1.5,0.2,2.7,0.5,3.4v0.2
	H487.4L487.4,447.6z M481.9,446.3c1.2,0,2.2-0.3,3.1-0.9s1.6-1.3,2-2.3v-3.5h-3.1c-1.7,0-3.1,0.3-4.1,1s-1.5,1.5-1.5,2.6
	c0,0.9,0.3,1.6,1,2.2S480.9,446.3,481.9,446.3z"/>
<path class="st2" d="M498.6,446.4c1.2,0,2.2-0.3,3.1-1s1.3-1.6,1.3-2.7h1.7c0,1-0.4,1.8-0.9,2.6s-1.3,1.4-2.2,1.9s-1.9,0.7-3,0.7
	c-2.1,0-3.7-0.7-4.9-2.2s-1.8-3.4-1.8-5.8v-0.5c0-1.6,0.3-2.9,0.8-4.1s1.3-2.1,2.4-2.8s2.2-1,3.6-1c1.7,0,3.2,0.5,4.3,1.6
	s1.7,2.4,1.8,4.1H503c-0.1-1.2-0.5-2.2-1.3-3s-1.8-1.1-3.1-1.1c-1.6,0-2.8,0.6-3.7,1.7s-1.3,2.7-1.3,4.8v0.5c0,2,0.4,3.6,1.3,4.7
	S497,446.4,498.6,446.4z"/>
<path class="st2" d="M510.2,427.7v4.1h3.3v1.4h-3.3v10.6c0,0.9,0.2,1.5,0.5,2c0.3,0.4,0.8,0.6,1.6,0.6c0.3,0,0.8,0,1.4-0.1l0.1,1.4
	c-0.5,0.2-1.1,0.2-1.9,0.2c-1.2,0-2.1-0.3-2.6-1s-0.8-1.7-0.8-3.1v-10.6h-2.9v-1.4h2.9v-4.1H510.2L510.2,427.7L510.2,427.7z"/>
<path class="st2" d="M525.6,427.7v4.1h3.3v1.4h-3.3v10.6c0,0.9,0.2,1.5,0.5,2c0.3,0.4,0.8,0.6,1.6,0.6c0.3,0,0.8,0,1.4-0.1l0.1,1.4
	c-0.5,0.2-1.1,0.2-1.9,0.2c-1.2,0-2.1-0.3-2.6-1s-0.8-1.7-0.8-3.1v-10.6H521v-1.4h2.9v-4.1H525.6L525.6,427.7z"/>
<path class="st2" d="M533.5,434.4c0.6-0.9,1.3-1.7,2.2-2.2s1.9-0.8,2.9-0.8c1.7,0,3,0.5,3.8,1.4s1.2,2.4,1.3,4.3v10.4H542v-10.4
	c0-1.4-0.3-2.5-0.9-3.2s-1.5-1-2.8-1c-1.1,0-2,0.3-2.9,1s-1.5,1.6-1.9,2.7v10.9h-1.7V425h1.7L533.5,434.4L533.5,434.4z"/>
<path class="st2" d="M557.5,447.6c-0.2-0.5-0.3-1.2-0.3-2.2c-0.6,0.8-1.4,1.4-2.4,1.9s-2,0.7-3,0.7c-1.5,0-2.8-0.4-3.7-1.3
	s-1.4-1.9-1.4-3.2c0-1.5,0.6-2.8,1.9-3.7s3.1-1.3,5.4-1.3h3.2v-1.8c0-1.1-0.3-2-1-2.7s-1.7-1-3.1-1c-1.2,0-2.2,0.3-3,0.9
	s-1.2,1.4-1.2,2.3h-1.8c0-1.3,0.6-2.4,1.8-3.3s2.6-1.4,4.3-1.4c1.8,0,3.2,0.4,4.2,1.3s1.5,2.1,1.6,3.7v7.5c0,1.5,0.2,2.7,0.5,3.4
	v0.2H557.5L557.5,447.6L557.5,447.6z M552,446.3c1.2,0,2.2-0.3,3.1-0.9s1.6-1.3,2-2.3v-3.5H554c-1.7,0-3.1,0.3-4.1,1
	s-1.5,1.5-1.5,2.6c0,0.9,0.3,1.6,1,2.2S550.9,446.3,552,446.3z"/>
<path class="st2" d="M565.5,427.7v4.1h3.3v1.4h-3.3v10.6c0,0.9,0.2,1.5,0.5,2c0.3,0.4,0.8,0.6,1.6,0.6c0.3,0,0.8,0,1.4-0.1l0.1,1.4
	c-0.5,0.2-1.1,0.2-1.9,0.2c-1.2,0-2.1-0.3-2.6-1s-0.8-1.7-0.8-3.1v-10.6h-2.9v-1.4h2.9v-4.1H565.5L565.5,427.7z"/>
<path class="st2" d="M588.2,447.6c-0.2-0.5-0.3-1.2-0.3-2.2c-0.6,0.8-1.4,1.4-2.4,1.9s-2,0.7-3,0.7c-1.5,0-2.8-0.4-3.7-1.3
	s-1.4-1.9-1.4-3.2c0-1.5,0.6-2.8,1.9-3.7s3.1-1.3,5.4-1.3h3.2v-1.8c0-1.1-0.3-2-1-2.7s-1.7-1-3.1-1c-1.2,0-2.2,0.3-3,0.9
	s-1.2,1.4-1.2,2.3h-1.8c0-1.3,0.6-2.4,1.8-3.3s2.6-1.4,4.3-1.4c1.8,0,3.2,0.4,4.2,1.3s1.5,2.1,1.6,3.7v7.5c0,1.5,0.2,2.7,0.5,3.4
	v0.2H588.2L588.2,447.6L588.2,447.6z M582.7,446.3c1.2,0,2.2-0.3,3.1-0.9s1.6-1.3,2-2.3v-3.5h-3.1c-1.7,0-3.1,0.3-4.1,1
	s-1.5,1.5-1.5,2.6c0,0.9,0.3,1.6,1,2.2S581.7,446.3,582.7,446.3z"/>
<path class="st2" d="M592.8,439.5c0-2.5,0.5-4.4,1.6-5.9s2.6-2.2,4.5-2.2c2.1,0,3.8,0.8,4.9,2.5V425h1.7v22.5H604l-0.1-2.1
	c-1.1,1.6-2.8,2.4-5,2.4c-1.8,0-3.3-0.7-4.4-2.2S592.8,442.1,592.8,439.5L592.8,439.5z M594.6,439.8c0,2,0.4,3.6,1.2,4.8
	s2,1.8,3.4,1.8c2.2,0,3.7-1,4.6-2.9v-7.4c-0.9-2.1-2.4-3.1-4.6-3.1c-1.5,0-2.6,0.6-3.4,1.7S594.6,437.6,594.6,439.8z"/>
<path class="st2" d="M608.8,439.5c0-2.5,0.5-4.4,1.6-5.9s2.6-2.2,4.5-2.2c2.1,0,3.8,0.8,4.9,2.5V425h1.7v22.5h-1.6l-0.1-2.1
	c-1.1,1.6-2.8,2.4-5,2.4c-1.8,0-3.3-0.7-4.4-2.2S608.7,442.1,608.8,439.5L608.8,439.5L608.8,439.5z M610.5,439.8
	c0,2,0.4,3.6,1.2,4.8s2,1.8,3.4,1.8c2.2,0,3.7-1,4.6-2.9v-7.4c-0.9-2.1-2.4-3.1-4.6-3.1c-1.5,0-2.6,0.6-3.4,1.7
	S610.5,437.6,610.5,439.8z"/>
<path class="st2" d="M625.3,427.2c0-0.3,0.1-0.6,0.3-0.8c0.2-0.2,0.5-0.3,0.9-0.3s0.7,0.1,0.9,0.3c0.2,0.2,0.3,0.5,0.3,0.8
	s-0.1,0.6-0.3,0.8c-0.2,0.2-0.5,0.3-0.9,0.3s-0.7-0.1-0.9-0.3C625.4,427.8,625.3,427.5,625.3,427.2z M627.3,447.6h-1.8v-15.9h1.8
	V447.6z"/>
<path class="st2" d="M633,431.8l0.1,2.7c0.6-1,1.3-1.7,2.2-2.2s1.9-0.8,2.9-0.8c1.7,0,3,0.5,3.8,1.4s1.2,2.4,1.3,4.3v10.4h-1.7
	v-10.4c0-1.4-0.3-2.5-0.9-3.2s-1.5-1-2.8-1c-1.1,0-2,0.3-2.9,1s-1.5,1.6-1.9,2.7v10.9h-1.7v-15.9h1.6L633,431.8L633,431.8z"/>
<path class="st2" d="M646.4,439.5c0-2.5,0.5-4.4,1.6-5.9s2.6-2.2,4.5-2.2c2.2,0,3.8,0.9,4.9,2.6l0.1-2.3h1.6v15.5
	c0,2-0.6,3.7-1.7,4.8s-2.7,1.8-4.6,1.8c-1.1,0-2.2-0.2-3.2-0.7s-1.8-1.1-2.4-2l1-1.1c1.2,1.5,2.7,2.3,4.4,2.3c1.5,0,2.6-0.4,3.4-1.3
	s1.2-2.1,1.3-3.6v-2c-1.1,1.6-2.8,2.3-4.9,2.3c-1.8,0-3.3-0.7-4.4-2.2s-1.7-3.4-1.7-5.9L646.4,439.5L646.4,439.5z M648.2,439.8
	c0,2,0.4,3.6,1.2,4.8s2,1.8,3.4,1.8c2.2,0,3.7-1,4.6-2.9v-7.4c-0.4-1-1-1.8-1.8-2.3s-1.7-0.8-2.8-0.8c-1.5,0-2.6,0.6-3.4,1.7
	S648.2,437.6,648.2,439.8z"/>
<path class="st2" d="M671.3,434.4c0.6-0.9,1.3-1.7,2.2-2.2s1.9-0.8,2.9-0.8c1.7,0,3,0.5,3.8,1.4s1.2,2.4,1.3,4.3v10.4h-1.7v-10.4
	c0-1.4-0.3-2.5-0.9-3.2s-1.5-1-2.8-1c-1.1,0-2,0.3-2.9,1s-1.5,1.6-1.9,2.7v10.9h-1.7V425h1.7L671.3,434.4L671.3,434.4z"/>
<path class="st2" d="M695.4,445.6c-1.1,1.5-2.7,2.3-5.1,2.3c-1.7,0-3-0.5-3.9-1.5s-1.3-2.4-1.3-4.4v-10.3h1.7v10.1
	c0,3,1.2,4.5,3.7,4.5s4.1-1,4.8-3.1v-11.5h1.8v15.9h-1.7V445.6z"/>
<path class="st2" d="M702.6,431.8l0.1,2.7c0.6-1,1.3-1.7,2.2-2.2s1.9-0.8,2.9-0.8c1.7,0,3,0.5,3.8,1.4s1.2,2.4,1.3,4.3v10.4h-1.7
	v-10.4c0-1.4-0.3-2.5-0.9-3.2s-1.5-1-2.8-1c-1.1,0-2,0.3-2.9,1s-1.5,1.6-1.9,2.7v10.9H701v-15.9h1.6V431.8z"/>
<path class="st2" d="M716,439.5c0-2.5,0.5-4.4,1.6-5.9s2.6-2.2,4.5-2.2c2.1,0,3.8,0.8,4.9,2.5V425h1.7v22.5h-1.6l-0.1-2.1
	c-1.1,1.6-2.8,2.4-5,2.4c-1.8,0-3.3-0.7-4.4-2.2S715.9,442.1,716,439.5L716,439.5L716,439.5z M717.8,439.8c0,2,0.4,3.6,1.2,4.8
	s2,1.8,3.4,1.8c2.2,0,3.7-1,4.6-2.9v-7.4c-0.9-2.1-2.4-3.1-4.6-3.1c-1.5,0-2.6,0.6-3.4,1.7S717.8,437.6,717.8,439.8z"/>
<path class="st2" d="M739.9,433.3c-0.4-0.1-0.8-0.1-1.2-0.1c-1.1,0-2,0.3-2.8,0.9s-1.3,1.5-1.6,2.7v10.9h-1.7v-15.9h1.7v2.5
	c0.9-1.9,2.4-2.8,4.5-2.8c0.5,0,0.9,0.1,1.2,0.2L739.9,433.3z"/>
<path class="st2" d="M747.8,447.9c-1.3,0-2.6-0.3-3.7-1s-1.9-1.6-2.5-2.8s-0.9-2.5-0.9-4v-0.6c0-1.5,0.3-2.9,0.9-4.1
	s1.4-2.2,2.5-2.9s2.2-1,3.4-1c1.9,0,3.5,0.7,4.6,2s1.7,3.1,1.7,5.4v1h-11.3v0.3c0,1.8,0.5,3.3,1.5,4.5s2.3,1.8,3.9,1.8
	c0.9,0,1.8-0.2,2.5-0.5s1.4-0.9,2-1.6l1.1,0.8C752.1,447,750.3,447.9,747.8,447.9z M747.5,433c-1.3,0-2.4,0.5-3.3,1.5
	s-1.5,2.3-1.6,3.9h9.5v-0.2c0-1.5-0.5-2.8-1.3-3.7S748.8,433,747.5,433z"/>
<path class="st2" d="M755.7,439.5c0-2.5,0.5-4.4,1.6-5.9s2.6-2.2,4.5-2.2c2.1,0,3.8,0.8,4.9,2.5V425h1.7v22.5h-1.6l-0.1-2.1
	c-1.1,1.6-2.8,2.4-5,2.4c-1.8,0-3.3-0.7-4.4-2.2S755.6,442.1,755.7,439.5L755.7,439.5L755.7,439.5z M757.5,439.8
	c0,2,0.4,3.6,1.2,4.8s2,1.8,3.4,1.8c2.2,0,3.7-1,4.6-2.9v-7.4c-0.9-2.1-2.4-3.1-4.6-3.1c-1.5,0-2.6,0.6-3.4,1.7
	S757.5,437.6,757.5,439.8z"/>
<path class="st2" d="M781.8,443.6c0-0.9-0.3-1.6-1-2.1s-1.8-0.9-3.2-1.2s-2.5-0.6-3.3-1s-1.4-0.9-1.7-1.4s-0.6-1.2-0.6-2
	c0-1.2,0.5-2.3,1.6-3.1s2.4-1.2,4-1.2c1.8,0,3.2,0.4,4.3,1.3s1.6,2,1.6,3.4h-1.8c0-0.9-0.4-1.7-1.2-2.3s-1.8-0.9-2.9-0.9
	c-1.2,0-2.1,0.3-2.8,0.8s-1,1.2-1,2s0.3,1.4,0.9,1.8s1.6,0.8,3.2,1.2s2.7,0.7,3.5,1.2s1.3,0.9,1.7,1.5s0.6,1.3,0.6,2.1
	c0,1.3-0.5,2.4-1.6,3.2s-2.5,1.2-4.2,1.2c-1.8,0-3.3-0.4-4.5-1.3s-1.7-2-1.7-3.4h1.8c0.1,1,0.5,1.8,1.3,2.4s1.8,0.9,3.2,0.9
	c1.2,0,2.2-0.3,3-0.8S781.8,444.4,781.8,443.6z"/>
<path class="st2" d="M792.4,439.4c0-1.5,0.3-2.9,0.9-4.1s1.4-2.2,2.5-2.8s2.3-1,3.7-1c2.1,0,3.8,0.7,5.1,2.2s2,3.4,2,5.9v0.4
	c0,1.5-0.3,2.9-0.9,4.1s-1.4,2.2-2.5,2.8s-2.3,1-3.7,1c-2.1,0-3.8-0.7-5.1-2.2s-2-3.4-2-5.9V439.4L792.4,439.4z M794.1,439.9
	c0,1.9,0.5,3.5,1.5,4.7s2.3,1.8,3.9,1.8c1.6,0,2.9-0.6,3.8-1.8s1.5-2.8,1.5-4.8v-0.3c0-1.2-0.2-2.3-0.7-3.3s-1.1-1.8-1.9-2.3
	s-1.7-0.8-2.8-0.8c-1.6,0-2.8,0.6-3.8,1.8s-1.5,2.8-1.5,4.8V439.9L794.1,439.9z"/>
<path class="st2" d="M810.6,447.6v-14.4H808v-1.4h2.6v-1.9c0-1.6,0.4-2.9,1.2-3.7s2-1.3,3.4-1.3c0.7,0,1.3,0.1,1.9,0.2l-0.1,1.5
	c-0.5-0.1-1-0.2-1.6-0.2c-1,0-1.7,0.3-2.3,0.9c-0.5,0.6-0.8,1.5-0.8,2.6v2h3.8v1.4h-3.8v14.4L810.6,447.6L810.6,447.6z"/>
<path class="st2" d="M824.4,439.5c0-2.5,0.5-4.4,1.6-5.9s2.6-2.2,4.5-2.2c2.1,0,3.8,0.8,4.9,2.5V425h1.7v22.5h-1.6l-0.1-2.1
	c-1.1,1.6-2.8,2.4-5,2.4c-1.8,0-3.3-0.7-4.4-2.2S824.3,442.1,824.4,439.5L824.4,439.5L824.4,439.5z M826.2,439.8
	c0,2,0.4,3.6,1.2,4.8s2,1.8,3.4,1.8c2.2,0,3.7-1,4.6-2.9v-7.4c-0.9-2.1-2.4-3.1-4.6-3.1c-1.5,0-2.6,0.6-3.4,1.7
	S826.2,437.6,826.2,439.8z"/>
<path class="st2" d="M847.2,447.9c-1.3,0-2.6-0.3-3.7-1s-1.9-1.6-2.5-2.8s-0.9-2.5-0.9-4v-0.6c0-1.5,0.3-2.9,0.9-4.1
	c0.6-1.2,1.4-2.2,2.5-2.9s2.2-1,3.4-1c1.9,0,3.5,0.7,4.6,2s1.7,3.1,1.7,5.4v1h-11.3v0.3c0,1.8,0.5,3.3,1.5,4.5s2.3,1.8,3.9,1.8
	c0.9,0,1.8-0.2,2.5-0.5s1.4-0.9,2-1.6l1.1,0.8C851.5,447,849.6,447.9,847.2,447.9z M846.8,433c-1.3,0-2.4,0.5-3.3,1.5
	s-1.5,2.3-1.6,3.9h9.5v-0.2c0-1.5-0.5-2.8-1.3-3.7S848.2,433,846.8,433z"/>
<path class="st2" d="M860.5,445.2l4.8-13.4h1.8l-5.9,15.9h-1.4l-5.9-15.9h1.8L860.5,445.2z"/>
<path class="st2" d="M869.2,427.2c0-0.3,0.1-0.6,0.3-0.8c0.2-0.2,0.5-0.3,0.9-0.3s0.7,0.1,0.9,0.3c0.2,0.2,0.3,0.5,0.3,0.8
	s-0.1,0.6-0.3,0.8c-0.2,0.2-0.5,0.3-0.9,0.3s-0.7-0.1-0.9-0.3C869.3,427.8,869.2,427.5,869.2,427.2z M871.2,447.6h-1.8v-15.9h1.8
	V447.6z"/>
<path class="st2" d="M881.1,446.4c1.2,0,2.2-0.3,3.1-1s1.3-1.6,1.3-2.7h1.7c0,1-0.4,1.8-0.9,2.6s-1.3,1.4-2.2,1.9
	c-0.9,0.4-1.9,0.7-3,0.7c-2.1,0-3.7-0.7-4.9-2.2c-1.2-1.4-1.8-3.4-1.8-5.8v-0.5c0-1.6,0.3-2.9,0.8-4.1s1.3-2.1,2.4-2.8
	c1-0.7,2.2-1,3.6-1c1.7,0,3.2,0.5,4.3,1.6c1.1,1,1.7,2.4,1.8,4.1h-1.7c-0.1-1.2-0.5-2.2-1.3-3s-1.8-1.1-3.1-1.1
	c-1.6,0-2.8,0.6-3.7,1.7s-1.3,2.7-1.3,4.8v0.5c0,2,0.4,3.6,1.3,4.7S879.5,446.4,881.1,446.4z"/>
<path class="st2" d="M896.1,447.9c-1.3,0-2.6-0.3-3.7-1s-1.9-1.6-2.5-2.8s-0.9-2.5-0.9-4v-0.6c0-1.5,0.3-2.9,0.9-4.1
	c0.6-1.2,1.4-2.2,2.5-2.9s2.2-1,3.4-1c1.9,0,3.5,0.7,4.6,2s1.7,3.1,1.7,5.4v1h-11.3v0.3c0,1.8,0.5,3.3,1.5,4.5s2.3,1.8,3.9,1.8
	c0.9,0,1.8-0.2,2.5-0.5s1.4-0.9,2-1.6l1.1,0.8C900.4,447,898.5,447.9,896.1,447.9z M895.8,433c-1.3,0-2.4,0.5-3.3,1.5
	s-1.5,2.3-1.6,3.9h9.5v-0.2c0-1.5-0.5-2.8-1.3-3.7S897.1,433,895.8,433z"/>
<path class="st2" d="M914.2,443.6c0-0.9-0.3-1.6-1-2.1s-1.8-0.9-3.2-1.2s-2.5-0.6-3.3-1s-1.4-0.9-1.7-1.4s-0.6-1.2-0.6-2
	c0-1.2,0.5-2.3,1.6-3.1s2.4-1.2,4-1.2c1.8,0,3.2,0.4,4.3,1.3s1.6,2,1.6,3.4h-1.8c0-0.9-0.4-1.7-1.2-2.3c-0.8-0.6-1.8-0.9-2.9-0.9
	c-1.2,0-2.1,0.3-2.8,0.8s-1,1.2-1,2s0.3,1.4,0.9,1.8c0.6,0.4,1.6,0.8,3.2,1.2c1.5,0.4,2.7,0.7,3.5,1.2s1.3,0.9,1.7,1.5
	s0.6,1.3,0.6,2.1c0,1.3-0.5,2.4-1.6,3.2s-2.5,1.2-4.2,1.2c-1.8,0-3.3-0.4-4.5-1.3c-1.1-0.9-1.7-2-1.7-3.4h1.8c0.1,1,0.5,1.8,1.3,2.4
	s1.8,0.9,3.2,0.9c1.2,0,2.2-0.3,3-0.8S914.2,444.4,914.2,443.6z"/>
<path class="st2" d="M918.8,451.6l-1-0.8c0.9-1.2,1.3-2.4,1.4-3.7v-2.3h1.7v1.8C920.8,448.7,920.1,450.4,918.8,451.6z"/>
<path class="st2" d="M198.7,480l0.3,1.4l0.4-1.4l3.8-12.1h1.5l3.8,12l0.4,1.7l0.3-1.5l3.3-12.2h1.8l-4.6,15.9h-1.5l-4.1-12.6
	l-0.2-0.9l-0.2,0.9l-4,12.6h-1.5l-4.6-15.9h1.8L198.7,480z"/>
<path class="st2" d="M216.6,463.2c0-0.3,0.1-0.6,0.3-0.8c0.2-0.2,0.5-0.3,0.9-0.3s0.7,0.1,0.9,0.3c0.2,0.2,0.3,0.5,0.3,0.8
	s-0.1,0.6-0.3,0.8c-0.2,0.2-0.5,0.3-0.9,0.3s-0.7-0.1-0.9-0.3C216.7,463.8,216.6,463.5,216.6,463.2z M218.7,483.6h-1.8v-15.9h1.8
	V483.6z"/>
<path class="st2" d="M224.7,483.6h-1.8v-22.5h1.8V483.6z"/>
<path class="st2" d="M230.7,483.6h-1.8v-22.5h1.8V483.6z"/>
<path class="st2" d="M242.9,470.4c0.6-0.9,1.3-1.7,2.2-2.2s1.9-0.8,2.9-0.8c1.7,0,3,0.5,3.8,1.4s1.2,2.4,1.3,4.3v10.4h-1.7v-10.4
	c0-1.4-0.3-2.5-0.9-3.2s-1.5-1-2.8-1c-1.1,0-2,0.3-2.9,1c-0.8,0.7-1.5,1.6-1.9,2.7v10.9h-1.7V461h1.7L242.9,470.4L242.9,470.4z"/>
<path class="st2" d="M266.9,483.6c-0.2-0.5-0.3-1.2-0.3-2.2c-0.6,0.8-1.4,1.4-2.4,1.9c-1,0.4-2,0.7-3,0.7c-1.5,0-2.8-0.4-3.7-1.3
	s-1.4-1.9-1.4-3.2c0-1.5,0.6-2.8,1.9-3.7s3.1-1.3,5.4-1.3h3.2v-1.8c0-1.1-0.3-2-1-2.7s-1.7-1-3.1-1c-1.2,0-2.2,0.3-3,0.9
	s-1.2,1.4-1.2,2.3h-1.8c0-1.3,0.6-2.4,1.8-3.3s2.6-1.4,4.3-1.4c1.8,0,3.2,0.4,4.2,1.3s1.5,2.1,1.6,3.7v7.5c0,1.5,0.2,2.7,0.5,3.4
	v0.2H266.9L266.9,483.6L266.9,483.6z M261.4,482.3c1.2,0,2.2-0.3,3.1-0.9c0.9-0.6,1.6-1.3,2-2.3v-3.5h-3.1c-1.7,0-3.1,0.3-4.1,1
	s-1.5,1.5-1.5,2.6c0,0.9,0.3,1.6,1,2.2C259.5,482.1,260.4,482.3,261.4,482.3z"/>
<path class="st2" d="M277,481.2l4.8-13.4h1.8l-5.9,15.9h-1.4l-5.9-15.9h1.8L277,481.2z"/>
<path class="st2" d="M291.6,483.9c-1.3,0-2.6-0.3-3.7-1s-1.9-1.6-2.5-2.8s-0.9-2.5-0.9-4v-0.6c0-1.5,0.3-2.9,0.9-4.1
	c0.6-1.2,1.4-2.2,2.5-2.9s2.2-1,3.4-1c1.9,0,3.5,0.7,4.6,2s1.7,3.1,1.7,5.4v1h-11.3v0.3c0,1.8,0.5,3.3,1.5,4.5s2.3,1.8,3.9,1.8
	c0.9,0,1.8-0.2,2.5-0.5s1.4-0.9,2-1.6l1.1,0.8C296,483,294.1,483.9,291.6,483.9z M291.3,469c-1.3,0-2.4,0.5-3.3,1.5
	s-1.5,2.3-1.6,3.9h9.5v-0.2c0-1.5-0.5-2.8-1.3-3.7S292.7,469,291.3,469z"/>
<path class="st2" d="M305.8,475.4c0-1.5,0.3-2.9,0.9-4.1c0.6-1.2,1.4-2.2,2.5-2.8s2.3-1,3.7-1c2.1,0,3.8,0.7,5.1,2.2s2,3.4,2,5.9
	v0.4c0,1.5-0.3,2.9-0.9,4.1s-1.4,2.2-2.5,2.8s-2.3,1-3.7,1c-2.1,0-3.8-0.7-5.1-2.2s-2-3.4-2-5.9V475.4z M307.6,475.9
	c0,1.9,0.5,3.5,1.5,4.7s2.3,1.8,3.9,1.8c1.6,0,2.9-0.6,3.8-1.8c1-1.2,1.5-2.8,1.5-4.8v-0.3c0-1.2-0.2-2.3-0.7-3.3s-1.1-1.8-1.9-2.3
	s-1.7-0.8-2.8-0.8c-1.6,0-2.8,0.6-3.8,1.8s-1.5,2.8-1.5,4.8V475.9L307.6,475.9z"/>
<path class="st2" d="M324.5,467.8l0.1,2.7c0.6-1,1.3-1.7,2.2-2.2s1.9-0.8,2.9-0.8c1.7,0,3,0.5,3.8,1.4s1.2,2.4,1.3,4.3v10.4h-1.7
	v-10.4c0-1.4-0.3-2.5-0.9-3.2s-1.5-1-2.8-1c-1.1,0-2,0.3-2.9,1c-0.8,0.7-1.5,1.6-1.9,2.7v10.9h-1.7v-15.9h1.6L324.5,467.8
	L324.5,467.8z"/>
<path class="st2" d="M355.7,482.3l4.6-13.3h1.9l-6.8,18.5l-0.4,0.8c-0.9,1.9-2.2,2.9-4,2.9c-0.4,0-0.9-0.1-1.3-0.2v-1.5l0.9,0.1
	c0.9,0,1.6-0.2,2.1-0.6s1-1.2,1.4-2.2l0.8-2.1l-6-15.7h1.9L355.7,482.3z"/>
<path class="st2" d="M363,476.6c0-1.5,0.3-2.9,0.9-4.1c0.6-1.2,1.4-2.2,2.5-2.8s2.3-1,3.7-1c2.1,0,3.8,0.7,5.1,2.2
	c1.3,1.5,2,3.4,2,5.9v0.4c0,1.5-0.3,2.9-0.9,4.1c-0.6,1.2-1.4,2.2-2.5,2.8s-2.3,1-3.7,1c-2.1,0-3.8-0.7-5.1-2.2
	c-1.3-1.5-2-3.4-2-5.9V476.6L363,476.6z M364.8,477.1c0,1.9,0.5,3.4,1.5,4.7s2.3,1.8,3.9,1.8s2.9-0.6,3.8-1.8
	c0.9-1.2,1.5-2.8,1.5-4.8v-0.3c0-1.2-0.2-2.3-0.7-3.3s-1.1-1.8-1.9-2.3s-1.7-0.8-2.8-0.8c-1.6,0-2.8,0.6-3.8,1.8s-1.5,2.8-1.5,4.8
	V477.1z"/>
<path class="st2" d="M390.2,482.8c-1.1,1.5-2.7,2.3-5.1,2.3c-1.7,0-3-0.5-3.9-1.5s-1.3-2.4-1.3-4.4v-10.3h1.7V479
	c0,3,1.2,4.5,3.7,4.5s4.1-1,4.8-3.1v-11.5h1.8v15.9h-1.7V482.8z"/>
<path class="st2" d="M403.1,470.5c-0.4-0.1-0.8-0.1-1.2-0.1c-1.1,0-2,0.3-2.8,0.9c-0.8,0.6-1.3,1.5-1.6,2.7v10.9h-1.7V469h1.7v2.5
	c0.9-1.9,2.4-2.8,4.5-2.8c0.5,0,0.9,0.1,1.2,0.2L403.1,470.5z"/>
<path class="st2" d="M417.9,469l0.1,2.7c0.6-1,1.3-1.7,2.2-2.2s1.9-0.8,2.9-0.8c1.7,0,3,0.5,3.8,1.4s1.2,2.4,1.3,4.3v10.4h-1.7
	v-10.4c0-1.4-0.3-2.5-0.9-3.2s-1.5-1-2.8-1c-1.1,0-2,0.3-2.9,1s-1.5,1.6-1.9,2.7v10.9h-1.7v-15.9h1.6V469z"/>
<path class="st2" d="M438.1,485.1c-1.3,0-2.6-0.3-3.7-1s-1.9-1.6-2.5-2.8s-0.9-2.5-0.9-4v-0.6c0-1.5,0.3-2.9,0.9-4.1
	s1.4-2.2,2.5-2.9s2.2-1,3.4-1c1.9,0,3.5,0.7,4.6,2s1.7,3.1,1.7,5.4v1h-11.3v0.3c0,1.8,0.5,3.3,1.5,4.5s2.3,1.8,3.9,1.8
	c0.9,0,1.8-0.2,2.5-0.5s1.4-0.9,2-1.6l1.1,0.8C442.5,484.2,440.6,485.1,438.1,485.1z M437.8,470.2c-1.3,0-2.4,0.5-3.3,1.5
	s-1.5,2.3-1.6,3.9h9.5v-0.2c0-1.5-0.5-2.8-1.3-3.7S439.1,470.2,437.8,470.2z"/>
<path class="st2" d="M449.5,464.9v4.1h3.3v1.4h-3.3V481c0,0.9,0.2,1.5,0.5,2c0.3,0.4,0.8,0.6,1.6,0.6c0.3,0,0.8,0,1.4-0.1l0.1,1.4
	c-0.5,0.2-1.1,0.2-1.9,0.2c-1.2,0-2.1-0.3-2.6-1s-0.8-1.7-0.8-3.1v-10.6h-2.9V469h2.9v-4.1L449.5,464.9L449.5,464.9L449.5,464.9z"/>
<path class="st2" d="M459.4,481.2l0.3,1.4l0.4-1.4l3.8-12.1h1.5l3.8,12l0.4,1.7l0.3-1.5l3.3-12.2h1.8l-4.6,15.9h-1.5l-4.1-12.6
	l-0.2-0.9l-0.2,0.9l-4,12.6h-1.5l-4.6-15.9h1.8L459.4,481.2z"/>
<path class="st2" d="M476.5,476.6c0-1.5,0.3-2.9,0.9-4.1s1.4-2.2,2.5-2.8s2.3-1,3.7-1c2.1,0,3.8,0.7,5.1,2.2s2,3.4,2,5.9v0.4
	c0,1.5-0.3,2.9-0.9,4.1s-1.4,2.2-2.5,2.8s-2.3,1-3.7,1c-2.1,0-3.8-0.7-5.1-2.2s-2-3.4-2-5.9V476.6L476.5,476.6z M478.3,477.1
	c0,1.9,0.5,3.4,1.5,4.7s2.3,1.8,3.9,1.8s2.9-0.6,3.8-1.8s1.5-2.8,1.5-4.8v-0.3c0-1.2-0.2-2.3-0.7-3.3s-1.1-1.8-1.9-2.3
	s-1.8-0.9-2.8-0.9c-1.6,0-2.8,0.6-3.8,1.8s-1.5,2.8-1.5,4.8V477.1L478.3,477.1z"/>
<path class="st2" d="M500.9,470.5c-0.4-0.1-0.8-0.1-1.2-0.1c-1.1,0-2,0.3-2.8,0.9s-1.3,1.5-1.6,2.7v10.9h-1.7V469h1.7v2.5
	c0.9-1.9,2.4-2.8,4.5-2.8c0.5,0,0.9,0.1,1.2,0.2L500.9,470.5z"/>
<path class="st2" d="M506.7,476.8l-2,1.9v6h-1.8v-22.5h1.8v14.4l1.7-1.8l6.1-6h2.2l-6.7,6.7l7.3,9.2h-2.1L506.7,476.8z"/>
<path class="st2" d="M523.3,464.4c0-0.3,0.1-0.6,0.3-0.8c0.2-0.2,0.5-0.3,0.9-0.3c0.4,0,0.7,0.1,0.9,0.3c0.2,0.2,0.3,0.5,0.3,0.8
	s-0.1,0.6-0.3,0.8c-0.2,0.2-0.5,0.3-0.9,0.3c-0.4,0-0.7-0.1-0.9-0.3C523.4,465,523.3,464.7,523.3,464.4z M525.3,484.8h-1.7v-15.9
	h1.8L525.3,484.8L525.3,484.8z"/>
<path class="st2" d="M531,469l0.1,2.7c0.6-1,1.3-1.7,2.2-2.2s1.9-0.8,2.9-0.8c1.7,0,3,0.5,3.8,1.4s1.2,2.4,1.3,4.3v10.4h-1.7v-10.4
	c0-1.4-0.3-2.5-0.9-3.2c-0.6-0.7-1.5-1-2.8-1c-1.1,0-2,0.3-2.9,1c-0.9,0.7-1.5,1.6-1.9,2.7v10.9h-1.7v-15.9h1.6V469L531,469z"/>
<path class="st2" d="M546.3,484.8v-14.4h-2.6V469h2.6v-1.9c0-1.6,0.4-2.9,1.2-3.7c0.8-0.8,2-1.3,3.5-1.3c0.7,0,1.3,0.1,1.9,0.2
	l-0.1,1.5c-0.5-0.1-1-0.2-1.6-0.2c-1,0-1.7,0.3-2.3,0.9c-0.5,0.6-0.8,1.5-0.8,2.6v2h3.8v1.4h-3.8v14.4L546.3,484.8L546.3,484.8z"/>
<path class="st2" d="M561.6,470.5c-0.4-0.1-0.8-0.1-1.2-0.1c-1.1,0-2,0.3-2.8,0.9s-1.3,1.5-1.6,2.7v10.9h-1.7V469h1.7v2.5
	c0.9-1.9,2.4-2.8,4.5-2.8c0.5,0,0.9,0.1,1.2,0.2L561.6,470.5z"/>
<path class="st2" d="M573,484.8c-0.2-0.5-0.3-1.2-0.3-2.2c-0.6,0.8-1.4,1.4-2.4,1.9c-1,0.5-2,0.7-3,0.7c-1.5,0-2.8-0.4-3.7-1.3
	s-1.4-1.9-1.4-3.2c0-1.5,0.6-2.8,1.9-3.7s3.1-1.3,5.4-1.3h3.2v-1.8c0-1.1-0.3-2-1-2.7s-1.7-1-3.1-1c-1.2,0-2.2,0.3-3,0.9
	s-1.2,1.4-1.2,2.3h-1.8c0-1.3,0.6-2.4,1.8-3.3c1.2-0.9,2.6-1.4,4.3-1.4c1.8,0,3.2,0.4,4.2,1.3s1.5,2.1,1.6,3.7v7.5
	c0,1.5,0.2,2.7,0.5,3.4v0.2L573,484.8L573,484.8z M567.5,483.5c1.2,0,2.2-0.3,3.1-0.8c0.9-0.5,1.6-1.3,2-2.3v-3.5h-3.1
	c-1.7,0-3.1,0.3-4.1,1s-1.5,1.5-1.5,2.6c0,0.9,0.3,1.6,1,2.2S566.5,483.5,567.5,483.5z"/>
<path class="st2" d="M587.8,480.8c0-0.9-0.3-1.6-1-2.1s-1.8-0.9-3.2-1.2s-2.5-0.6-3.3-1s-1.4-0.9-1.7-1.4s-0.6-1.2-0.6-2
	c0-1.2,0.5-2.3,1.6-3.1s2.4-1.2,4-1.2c1.8,0,3.2,0.4,4.3,1.3s1.6,2,1.6,3.4h-1.8c0-0.9-0.4-1.7-1.2-2.3s-1.8-0.9-2.9-0.9
	c-1.2,0-2.1,0.3-2.8,0.8s-1,1.2-1,2s0.3,1.4,0.9,1.8s1.6,0.8,3.2,1.2s2.7,0.7,3.5,1.2c0.8,0.4,1.3,0.9,1.7,1.5s0.6,1.3,0.6,2.1
	c0,1.3-0.5,2.4-1.6,3.2s-2.5,1.2-4.2,1.2c-1.8,0-3.3-0.4-4.5-1.3s-1.7-2-1.7-3.4h1.8c0.1,1,0.5,1.8,1.3,2.4s1.8,0.9,3.2,0.9
	c1.2,0,2.2-0.3,3-0.8S587.8,481.6,587.8,480.8z"/>
<path class="st2" d="M595.5,464.9v4.1h3.3v1.4h-3.3V481c0,0.9,0.2,1.5,0.5,2c0.3,0.4,0.8,0.6,1.6,0.6c0.3,0,0.8,0,1.4-0.1l0.1,1.4
	c-0.5,0.2-1.1,0.2-1.9,0.2c-1.2,0-2.1-0.3-2.6-1s-0.8-1.7-0.8-3.1v-10.6h-2.9V469h2.9v-4.1L595.5,464.9L595.5,464.9z"/>
<path class="st2" d="M609,470.5c-0.4-0.1-0.8-0.1-1.2-0.1c-1.1,0-2,0.3-2.8,0.9s-1.3,1.5-1.6,2.7v10.9h-1.7V469h1.7v2.5
	c0.9-1.9,2.4-2.8,4.5-2.8c0.5,0,0.9,0.1,1.2,0.2L609,470.5z"/>
<path class="st2" d="M621.2,482.8c-1.1,1.5-2.7,2.3-5.1,2.3c-1.7,0-3-0.5-3.9-1.5s-1.3-2.4-1.3-4.4v-10.3h1.7V479
	c0,3,1.2,4.5,3.7,4.5s4.1-1,4.8-3.1v-11.5h1.8v15.9h-1.7V482.8z"/>
<path class="st2" d="M632.6,483.6c1.2,0,2.2-0.3,3.1-1s1.3-1.6,1.3-2.7h1.7c0,1-0.4,1.8-0.9,2.6s-1.3,1.4-2.2,1.9s-1.9,0.7-3,0.7
	c-2.1,0-3.7-0.7-4.9-2.2s-1.8-3.4-1.8-5.8v-0.5c0-1.6,0.3-2.9,0.8-4.1s1.3-2.1,2.4-2.8s2.2-1,3.6-1c1.7,0,3.2,0.5,4.3,1.6
	s1.7,2.4,1.8,4.1h-1.7c-0.1-1.2-0.5-2.2-1.3-3s-1.8-1.1-3.1-1.1c-1.6,0-2.8,0.6-3.7,1.7s-1.3,2.7-1.3,4.8v0.5c0,2,0.4,3.6,1.3,4.7
	S631,483.6,632.6,483.6z"/>
<path class="st2" d="M644.2,464.9v4.1h3.3v1.4h-3.3V481c0,0.9,0.2,1.5,0.5,2c0.3,0.4,0.8,0.6,1.6,0.6c0.3,0,0.8,0,1.4-0.1l0.1,1.4
	c-0.5,0.2-1.1,0.2-1.9,0.2c-1.2,0-2.1-0.3-2.6-1s-0.8-1.7-0.8-3.1v-10.6h-2.9V469h2.9v-4.1L644.2,464.9L644.2,464.9z"/>
<path class="st2" d="M660.5,482.8c-1.1,1.5-2.7,2.3-5.1,2.3c-1.7,0-3-0.5-3.9-1.5s-1.3-2.4-1.3-4.4v-10.3h1.7V479
	c0,3,1.2,4.5,3.7,4.5s4.1-1,4.8-3.1v-11.5h1.8v15.9h-1.6L660.5,482.8z"/>
<path class="st2" d="M673.4,470.5c-0.4-0.1-0.8-0.1-1.2-0.1c-1.1,0-2,0.3-2.8,0.9s-1.3,1.5-1.6,2.7v10.9h-1.7V469h1.7v2.5
	c0.9-1.9,2.4-2.8,4.5-2.8c0.5,0,0.9,0.1,1.2,0.2L673.4,470.5z"/>
<path class="st2" d="M681.3,485.1c-1.3,0-2.6-0.3-3.7-1s-1.9-1.6-2.5-2.8s-0.9-2.5-0.9-4v-0.6c0-1.5,0.3-2.9,0.9-4.1
	s1.4-2.2,2.5-2.9s2.2-1,3.4-1c1.9,0,3.5,0.7,4.6,2s1.7,3.1,1.7,5.4v1H676v0.3c0,1.8,0.5,3.3,1.5,4.5s2.3,1.8,3.9,1.8
	c0.9,0,1.8-0.2,2.5-0.5s1.4-0.9,2-1.6l1.1,0.8C685.6,484.2,683.7,485.1,681.3,485.1z M680.9,470.2c-1.3,0-2.4,0.5-3.3,1.5
	s-1.5,2.3-1.6,3.9h9.5v-0.2c0-1.5-0.5-2.8-1.3-3.7S682.3,470.2,680.9,470.2z"/>
<path class="st2" d="M689.7,483.8c0-0.3,0.1-0.6,0.3-0.9s0.5-0.4,0.9-0.4s0.7,0.1,0.9,0.4s0.3,0.5,0.3,0.9s-0.1,0.6-0.3,0.8
	s-0.5,0.3-0.9,0.3s-0.7-0.1-0.9-0.3S689.7,484.1,689.7,483.8z"/>
</svg>
