<?xml version="1.0" encoding="utf-8"?>
<!-- Generator: Adobe Illustrator 22.0.1, SVG Export Plug-In . SVG Version: 6.00 Build 0)  -->
<svg version="1.1" id="Layer_1" xmlns="http://www.w3.org/2000/svg" xmlns:xlink="http://www.w3.org/1999/xlink" x="0px" y="0px"
	 viewBox="0 0 1600 650" style="enable-background:new 0 0 1600 650;" xml:space="preserve">
<style type="text/css">
	.st0{opacity:0.66;fill:#7BC35F;enable-background:new    ;}
	.st1{fill:#FFFFFF;}
</style>
<path class="st0" d="M0-0.4h1600v721.5H0V-0.4z M241.9,249c-3.1-1.8-7.1-3.5-11.9-5s-8.2-3-10.1-4.5c-1.9-1.5-2.9-3.1-2.9-4.9
	c0-2,0.9-3.7,2.6-5c1.7-1.3,4.1-2,7.1-2s5.3,0.8,7.1,2.3c1.7,1.6,2.6,3.8,2.6,6.6h16.7c0-4.2-1.1-8-3.3-11.3
	c-2.2-3.3-5.3-5.8-9.3-7.6c-4-1.8-8.5-2.7-13.5-2.7c-5.1,0-9.8,0.8-13.9,2.5c-4.1,1.6-7.3,3.9-9.5,6.9s-3.4,6.4-3.4,10.2
	c0,7.8,4.5,13.8,13.5,18.3c2.8,1.4,6.3,2.8,10.7,4.3c4.4,1.5,7.4,2.9,9.2,4.3c1.7,1.4,2.6,3.3,2.6,5.7c0.2,2.2-0.6,3.9-2.2,5.1
	c-1.6,1.2-3.8,1.8-6.6,1.8c-4.3,0-7.5-0.9-9.4-2.7c-1.9-1.8-2.9-4.5-2.9-8.3h-16.8c0,4.6,1.2,8.7,3.5,12.2c2.3,3.5,5.8,6.3,10.3,8.3
	c4.6,2,9.7,3,15.3,3c8,0,14.3-1.7,18.9-5.2c4.6-3.5,6.9-8.3,6.9-14.4C253.2,259.3,249.4,253.3,241.9,249z M255.8,229h20.5v56.7h16.8
	V229H314v-13h-58.2V229z M717.4,285.7h16.2v-51.8h-16.2V285.7z M811.9,232.9c-5.2,0-9.6,1.1-13.4,3.3c-3.8,2.2-6.6,5.4-8.6,9.4
	c-2,4.1-2.9,8.7-2.9,14v1.3c0,7.6,2.5,13.8,7.4,18.5c4.9,4.9,11.3,7.2,19.3,7.2c4.2,0,8.2-0.8,11.9-2.5s6.5-3.9,8.5-6.6l-7.4-8.7
	c-2.9,3.6-6.9,5.4-12,5.4c-3.1,0-5.6-0.8-7.6-2.5c-1.9-1.7-3.2-3.9-3.8-6.8h32.1v-6.3c0-8.1-2.1-14.4-6.3-18.9
	S819.1,232.9,811.9,232.9z M819.8,254.7h-16.3c0.8-6.2,3.6-9.3,8.4-9.3c2.6,0,4.5,0.7,5.9,2.1c1.4,1.4,2,3.4,2,6V254.7z M732,214.8
	c-1.7-1.5-3.8-2.2-6.5-2.2c-2.6,0-4.8,0.7-6.5,2.2s-2.5,3.4-2.5,5.7s0.8,4.2,2.5,5.7s3.8,2.2,6.5,2.2s4.8-0.7,6.5-2.2
	s2.5-3.4,2.5-5.7S733.7,216.3,732,214.8z M761.7,266.5l-8-32.6h-17l16.8,51.8H770l16.9-51.8h-17L761.7,266.5z M870.4,256.2
	c-2.3-0.8-5-1.5-8.1-2.1c-3.1-0.6-5.3-1.3-6.7-2.2c-1.4-0.9-2.1-2.1-2.1-3.5c0-1.4,0.6-2.6,1.7-3.5c1.1-0.9,2.6-1.4,4.3-1.4
	c4.4,0,6.6,2.1,6.6,6.2h16.2c0-5-2.1-9.1-6.2-12.2c-4.1-3.1-9.6-4.6-16.5-4.6c-6.3,0-11.5,1.5-15.4,4.6c-3.9,3.1-5.9,7-5.9,11.7
	c0,2.7,0.7,5.1,2.1,7.1c1.4,2.1,3.4,3.8,6,5.3s5.9,2.6,10,3.5c4,0.9,6.7,1.8,8.2,2.6c1.4,0.8,2.2,1.9,2.2,3.3
	c-0.2,1.6-0.7,2.7-1.8,3.6c-1.1,0.9-2.8,1.3-5,1.3c-2.4,0-4.4-0.5-5.9-1.7c-1.5-1.1-2.3-2.8-2.4-5.2h-15.1c0,3,1,5.9,2.9,8.7
	c1.9,2.7,4.7,4.9,8.1,6.5c3.5,1.6,7.4,2.4,11.9,2.4c6.7,0,12.1-1.5,16.3-4.5s6.3-6.8,6.3-11.5C882.1,263.7,878.2,258.9,870.4,256.2z
	 M477.6,285.7h16.7V216h-16.7V285.7z M318.7,285.7h48v-12.9h-31.2v-16.7h26.4v-12.4h-26.4V229h31.3v-13h-48.1V285.7z M600,272.9
	c-0.7-0.8-1.1-2.1-1.1-4.1v-23.7h8.5v-11.2h-8.5V221h-16.1v12.9h-6.6v11.2h6.6v25.7c0,5.3,1.3,9.3,4,11.9c2.6,2.6,6.7,3.9,12.3,3.9
	c3.2,0,6.2-0.5,9.1-1.4v-11.5c-1.1,0.2-2.4,0.3-4,0.3C602.1,274,600.7,273.6,600,272.9z M408.7,264.5L393.1,216h-22v69.7h16.8v-16.3
	l-1.7-33.3l16.9,49.6h11.1l16.9-49.6l-1.7,33.3v16.3h16.9V216h-22.1L408.7,264.5z M556.5,285.7h16.2v-51.8h-16.2V285.7z M571,214.8
	c-1.7-1.5-3.8-2.2-6.5-2.2c-2.6,0-4.8,0.7-6.5,2.2s-2.5,3.4-2.5,5.7s0.9,4.2,2.5,5.7c1.7,1.5,3.8,2.2,6.5,2.2s4.8-0.7,6.5-2.2
	s2.5-3.4,2.5-5.7S572.7,216.3,571,214.8z M533,233c-6.3,0-11.2,2.3-14.8,7l-0.5-6.1h-15.1v51.8h16.1l0-36.6c1.5-2.5,3.9-3.7,7-3.7
	c2.8,0,4.7,0.6,5.7,1.8c1.1,1.2,1.6,3.2,1.6,5.8v32.7h16.2v-33.4c-0.1-6.5-1.5-11.3-4.1-14.5C542.4,234.6,538.4,233,533,233z
	 M705.3,272.9c-0.7-0.8-1.1-2.1-1.1-4.1v-23.7h8.5v-11.2h-8.5V221h-16.1v12.9h-6.6v11.2h6.6v25.7c0,5.3,1.3,9.3,4,11.9
	c2.6,2.6,6.7,3.9,12.3,3.9c3.2,0,6.2-0.5,9.1-1.4v-11.5c-1.1,0.2-2.4,0.3-4,0.3C707.4,274,706,273.6,705.3,272.9z M626.7,214.8
	c-1.7-1.5-3.8-2.2-6.5-2.2c-2.6,0-4.8,0.7-6.5,2.2s-2.5,3.4-2.5,5.7s0.9,4.2,2.5,5.7c1.7,1.5,3.8,2.2,6.5,2.2s4.8-0.7,6.5-2.2
	s2.5-3.4,2.5-5.7S628.4,216.3,626.7,214.8z M612.2,285.7h16.2v-51.8h-16.2V285.7z M678.8,251c-0.1-5.6-2.1-10-5.9-13.3
	c-3.8-3.2-9-4.8-15.6-4.8s-12,1.6-16.3,4.7c-4.3,3.1-6.4,7.2-6.4,12.2h16.1c0-3.8,1.9-5.7,5.7-5.7c4.1,0,6.2,2.4,6.2,7.2v2.7h-4.8
	v0.1c-7.9,0-13.9,1.4-18.1,4.3c-4.1,2.9-6.2,7.1-6.2,12.7c0,4.5,1.7,8.2,5.1,11.1c3.4,3,7.6,4.4,12.4,4.4c5.3,0,9.5-1.9,12.4-5.6
	c0.4,2,1,3.6,1.5,4.6H681v-0.8c-1.4-2.5-2.1-6.2-2.2-10.9V251z M662.8,270.9c-0.6,1.1-1.5,2.1-2.8,2.9c-1.3,0.9-3,1.3-5,1.3
	c-1.5,0-2.8-0.5-3.8-1.4c-1-0.9-1.5-2.1-1.5-3.6c0-5,2.8-7.6,8.4-7.6h4.7L662.8,270.9z"/>
<g>
	<path class="st1" d="M201.5,334.9l0.7,3.3l0.8-3.2l4.6-15.7h1.6l4.6,15.7l0.8,3.2l0.7-3.3l3.9-15.6h1.8l-5.5,21.3h-1.7l-4.8-16.7
		l-0.5-2.1l-0.5,2.1l-5,16.7h-1.7l-5.4-21.3h1.8L201.5,334.9z"/>
	<path class="st1" d="M225.1,327.4c0.6-0.9,1.3-1.7,2.2-2.2s1.9-0.8,2.9-0.8c1.7,0,3,0.5,3.8,1.4c0.8,1,1.2,2.4,1.3,4.3v10.4h-1.7
		v-10.4c0-1.4-0.3-2.5-0.9-3.2s-1.5-1-2.8-1c-1.1,0-2,0.3-2.9,1s-1.5,1.6-1.9,2.7v10.9h-1.7v-22.5h1.7V327.4z"/>
	<path class="st1" d="M238.9,320.2c0-0.3,0.1-0.6,0.3-0.8s0.5-0.3,0.9-0.3s0.7,0.1,0.9,0.3s0.3,0.5,0.3,0.8s-0.1,0.6-0.3,0.8
		c-0.2,0.2-0.5,0.3-0.9,0.3s-0.7-0.1-0.9-0.3C239,320.8,238.9,320.5,238.9,320.2z M241,340.6h-1.8v-15.9h1.8V340.6z"/>
	<path class="st1" d="M247,340.6h-1.8v-22.5h1.8V340.6z"/>
	<path class="st1" d="M257.1,340.9c-1.3,0-2.6-0.3-3.7-1s-1.9-1.6-2.5-2.8s-0.9-2.5-0.9-4v-0.6c0-1.5,0.3-2.9,0.9-4.1
		s1.4-2.2,2.5-2.9s2.2-1,3.4-1c1.9,0,3.4,0.7,4.6,2s1.7,3.1,1.7,5.4v1h-11.3v0.3c0,1.8,0.5,3.3,1.5,4.5s2.3,1.8,3.9,1.8
		c0.9,0,1.8-0.2,2.5-0.5s1.4-0.9,2-1.6l1.1,0.8C261.4,340,259.6,340.9,257.1,340.9z M256.8,326c-1.3,0-2.4,0.5-3.3,1.5
		s-1.5,2.3-1.6,3.9h9.5v-0.2c0-1.5-0.5-2.8-1.3-3.7S258.1,326,256.8,326z"/>
	<path class="st1" d="M281.8,336.6c0-0.9-0.3-1.6-1-2.1s-1.8-0.9-3.2-1.2s-2.5-0.6-3.3-1s-1.4-0.9-1.7-1.4s-0.6-1.2-0.6-2
		c0-1.2,0.5-2.3,1.6-3.1s2.4-1.2,4-1.2c1.8,0,3.2,0.4,4.3,1.3s1.6,2,1.6,3.4h-1.8c0-0.9-0.4-1.7-1.2-2.3s-1.8-0.9-2.9-0.9
		c-1.2,0-2.1,0.3-2.8,0.8s-1,1.2-1,2c0,0.8,0.3,1.4,0.9,1.8s1.6,0.8,3.2,1.2s2.7,0.7,3.5,1.2s1.3,0.9,1.7,1.5s0.6,1.3,0.6,2.1
		c0,1.3-0.5,2.4-1.6,3.2s-2.5,1.2-4.2,1.2c-1.8,0-3.3-0.4-4.5-1.3s-1.7-2-1.7-3.4h1.8c0.1,1,0.5,1.8,1.3,2.4s1.8,0.9,3.2,0.9
		c1.2,0,2.2-0.3,3-0.8S281.8,337.4,281.8,336.6z"/>
	<path class="st1" d="M285.8,332.4c0-1.5,0.3-2.9,0.9-4.1s1.4-2.2,2.5-2.8s2.3-1,3.7-1c2.1,0,3.8,0.7,5.1,2.2s2,3.4,2,5.9v0.4
		c0,1.5-0.3,2.9-0.9,4.1s-1.4,2.2-2.5,2.8s-2.3,1-3.7,1c-2.1,0-3.8-0.7-5.1-2.2s-2-3.4-2-5.9V332.4z M287.5,332.9
		c0,1.9,0.5,3.4,1.5,4.7s2.3,1.8,3.9,1.8c1.6,0,2.9-0.6,3.8-1.8s1.5-2.8,1.5-4.8v-0.3c0-1.2-0.2-2.3-0.7-3.3s-1.1-1.8-1.9-2.3
		s-1.7-0.8-2.8-0.8c-1.6,0-2.8,0.6-3.8,1.8s-1.5,2.8-1.5,4.8V332.9z"/>
	<path class="st1" d="M304.4,324.8l0.1,2.6c0.6-1,1.3-1.7,2.2-2.2s1.9-0.7,2.9-0.7c2.5,0,4.1,1,4.8,3.1c0.6-1,1.3-1.7,2.3-2.3
		s2-0.8,3.1-0.8c3.4,0,5.1,1.9,5.2,5.6v10.6h-1.8v-10.4c0-1.4-0.3-2.5-0.9-3.1s-1.6-1-2.9-1c-1.3,0-2.3,0.4-3.2,1.2
		s-1.4,1.8-1.5,2.9v10.5h-1.8V330c0-1.4-0.3-2.4-1-3s-1.6-1-2.9-1c-1.1,0-2.1,0.3-2.8,0.9s-1.4,1.6-1.8,2.8v10.9h-1.8v-15.9H304.4z"
		/>
	<path class="st1" d="M334.8,340.9c-1.3,0-2.6-0.3-3.7-1s-1.9-1.6-2.5-2.8s-0.9-2.5-0.9-4v-0.6c0-1.5,0.3-2.9,0.9-4.1
		s1.4-2.2,2.5-2.9s2.2-1,3.4-1c1.9,0,3.4,0.7,4.6,2s1.7,3.1,1.7,5.4v1h-11.3v0.3c0,1.8,0.5,3.3,1.5,4.5s2.3,1.8,3.9,1.8
		c0.9,0,1.8-0.2,2.5-0.5s1.4-0.9,2-1.6l1.1,0.8C339.1,340,337.2,340.9,334.8,340.9z M334.4,326c-1.3,0-2.4,0.5-3.3,1.5
		s-1.5,2.3-1.6,3.9h9.5v-0.2c0-1.5-0.5-2.8-1.3-3.7S335.8,326,334.4,326z"/>
	<path class="st1" d="M359.4,336.6c0-0.9-0.3-1.6-1-2.1s-1.8-0.9-3.2-1.2s-2.5-0.6-3.3-1s-1.4-0.9-1.7-1.4s-0.6-1.2-0.6-2
		c0-1.2,0.5-2.3,1.6-3.1s2.4-1.2,4-1.2c1.8,0,3.2,0.4,4.3,1.3s1.6,2,1.6,3.4h-1.8c0-0.9-0.4-1.7-1.2-2.3s-1.8-0.9-2.9-0.9
		c-1.2,0-2.1,0.3-2.8,0.8s-1,1.2-1,2c0,0.8,0.3,1.4,0.9,1.8s1.6,0.8,3.2,1.2s2.7,0.7,3.5,1.2s1.3,0.9,1.7,1.5s0.6,1.3,0.6,2.1
		c0,1.3-0.5,2.4-1.6,3.2s-2.5,1.2-4.2,1.2c-1.8,0-3.3-0.4-4.5-1.3s-1.7-2-1.7-3.4h1.8c0.1,1,0.5,1.8,1.3,2.4s1.8,0.9,3.2,0.9
		c1.2,0,2.2-0.3,3-0.8S359.4,337.4,359.4,336.6z"/>
	<path class="st1" d="M370.2,339.4c1.2,0,2.2-0.3,3.1-1s1.3-1.6,1.3-2.7h1.7c0,1-0.4,1.8-0.9,2.6s-1.3,1.4-2.2,1.9s-1.9,0.7-3,0.7
		c-2.1,0-3.7-0.7-4.9-2.2s-1.8-3.4-1.8-5.8v-0.5c0-1.6,0.3-2.9,0.8-4.1s1.3-2.1,2.4-2.8c1-0.7,2.2-1,3.6-1c1.7,0,3.2,0.5,4.3,1.6
		c1.1,1,1.7,2.4,1.8,4.1h-1.7c-0.1-1.2-0.5-2.2-1.3-3s-1.8-1.1-3.1-1.1c-1.6,0-2.8,0.6-3.7,1.7s-1.3,2.7-1.3,4.8v0.5
		c0,2,0.4,3.6,1.3,4.7S368.6,339.4,370.2,339.4z"/>
	<path class="st1" d="M380.8,327.4c0.6-0.9,1.3-1.7,2.2-2.2s1.9-0.8,2.9-0.8c1.7,0,3,0.5,3.8,1.4c0.8,1,1.2,2.4,1.3,4.3v10.4h-1.7
		v-10.4c0-1.4-0.3-2.5-0.9-3.2s-1.5-1-2.8-1c-1.1,0-2,0.3-2.9,1s-1.5,1.6-1.9,2.7v10.9H379v-22.5h1.7V327.4z"/>
	<path class="st1" d="M393.8,332.4c0-1.5,0.3-2.9,0.9-4.1s1.4-2.2,2.5-2.8s2.3-1,3.7-1c2.1,0,3.8,0.7,5.1,2.2s2,3.4,2,5.9v0.4
		c0,1.5-0.3,2.9-0.9,4.1s-1.4,2.2-2.5,2.8s-2.3,1-3.7,1c-2.1,0-3.8-0.7-5.1-2.2s-2-3.4-2-5.9V332.4z M395.6,332.9
		c0,1.9,0.5,3.4,1.5,4.7s2.3,1.8,3.9,1.8c1.6,0,2.9-0.6,3.8-1.8s1.5-2.8,1.5-4.8v-0.3c0-1.2-0.2-2.3-0.7-3.3s-1.1-1.8-1.9-2.3
		s-1.7-0.8-2.8-0.8c-1.6,0-2.8,0.6-3.8,1.8s-1.5,2.8-1.5,4.8V332.9z"/>
	<path class="st1" d="M409.8,332.4c0-1.5,0.3-2.9,0.9-4.1s1.4-2.2,2.5-2.8s2.3-1,3.7-1c2.1,0,3.8,0.7,5.1,2.2s2,3.4,2,5.9v0.4
		c0,1.5-0.3,2.9-0.9,4.1s-1.4,2.2-2.5,2.8s-2.3,1-3.7,1c-2.1,0-3.8-0.7-5.1-2.2s-2-3.4-2-5.9V332.4z M411.6,332.9
		c0,1.9,0.5,3.4,1.5,4.7s2.3,1.8,3.9,1.8c1.6,0,2.9-0.6,3.8-1.8s1.5-2.8,1.5-4.8v-0.3c0-1.2-0.2-2.3-0.7-3.3s-1.1-1.8-1.9-2.3
		s-1.7-0.8-2.8-0.8c-1.6,0-2.8,0.6-3.8,1.8s-1.5,2.8-1.5,4.8V332.9z"/>
	<path class="st1" d="M428.8,340.6h-1.8v-22.5h1.8V340.6z"/>
	<path class="st1" d="M442.3,336.6c0-0.9-0.3-1.6-1-2.1s-1.8-0.9-3.2-1.2s-2.5-0.6-3.3-1s-1.4-0.9-1.7-1.4s-0.6-1.2-0.6-2
		c0-1.2,0.5-2.3,1.6-3.1s2.4-1.2,4-1.2c1.8,0,3.2,0.4,4.3,1.3s1.6,2,1.6,3.4h-1.8c0-0.9-0.4-1.7-1.2-2.3s-1.8-0.9-2.9-0.9
		c-1.2,0-2.1,0.3-2.8,0.8s-1,1.2-1,2c0,0.8,0.3,1.4,0.9,1.8s1.6,0.8,3.2,1.2s2.7,0.7,3.5,1.2s1.3,0.9,1.7,1.5s0.6,1.3,0.6,2.1
		c0,1.3-0.5,2.4-1.6,3.2s-2.5,1.2-4.2,1.2c-1.8,0-3.3-0.4-4.5-1.3s-1.7-2-1.7-3.4h1.8c0.1,1,0.5,1.8,1.3,2.4s1.8,0.9,3.2,0.9
		c1.2,0,2.2-0.3,3-0.8S442.3,337.4,442.3,336.6z"/>
	<path class="st1" d="M463.8,340.6c-0.2-0.5-0.3-1.2-0.3-2.2c-0.6,0.8-1.4,1.4-2.4,1.9s-2,0.7-3,0.7c-1.5,0-2.8-0.4-3.7-1.3
		s-1.4-1.9-1.4-3.2c0-1.5,0.6-2.8,1.9-3.7s3.1-1.3,5.4-1.3h3.2v-1.8c0-1.1-0.3-2-1-2.7s-1.7-1-3.1-1c-1.2,0-2.2,0.3-3,0.9
		s-1.2,1.4-1.2,2.3l-1.8,0c0-1.3,0.6-2.4,1.8-3.3s2.6-1.4,4.3-1.4c1.8,0,3.2,0.4,4.2,1.3s1.5,2.1,1.6,3.7v7.5c0,1.5,0.2,2.7,0.5,3.4
		v0.2H463.8z M458.3,339.3c1.2,0,2.2-0.3,3.1-0.8s1.6-1.3,2-2.3v-3.5h-3.1c-1.7,0-3.1,0.3-4.1,1s-1.5,1.5-1.5,2.6
		c0,0.9,0.3,1.6,1,2.2S457.3,339.3,458.3,339.3z"/>
	<path class="st1" d="M471.1,340.6h-1.8v-22.5h1.8V340.6z"/>
	<path class="st1" d="M482.4,326.3c-0.4-0.1-0.8-0.1-1.2-0.1c-1.1,0-2,0.3-2.8,0.9s-1.3,1.5-1.6,2.7v10.9h-1.7v-15.9h1.7l0,2.5
		c0.9-1.9,2.4-2.8,4.5-2.8c0.5,0,0.9,0.1,1.2,0.2L482.4,326.3z"/>
	<path class="st1" d="M490.3,340.9c-1.3,0-2.6-0.3-3.7-1s-1.9-1.6-2.5-2.8s-0.9-2.5-0.9-4v-0.6c0-1.5,0.3-2.9,0.9-4.1
		s1.4-2.2,2.5-2.9s2.2-1,3.4-1c1.9,0,3.4,0.7,4.6,2s1.7,3.1,1.7,5.4v1H485v0.3c0,1.8,0.5,3.3,1.5,4.5s2.3,1.8,3.9,1.8
		c0.9,0,1.8-0.2,2.5-0.5s1.4-0.9,2-1.6l1.1,0.8C494.6,340,492.8,340.9,490.3,340.9z M490,326c-1.3,0-2.4,0.5-3.3,1.5
		s-1.5,2.3-1.6,3.9h9.5v-0.2c0-1.5-0.5-2.8-1.3-3.7S491.3,326,490,326z"/>
	<path class="st1" d="M508.9,340.6c-0.2-0.5-0.3-1.2-0.3-2.2c-0.6,0.8-1.4,1.4-2.4,1.9s-2,0.7-3,0.7c-1.5,0-2.8-0.4-3.7-1.3
		s-1.4-1.9-1.4-3.2c0-1.5,0.6-2.8,1.9-3.7s3.1-1.3,5.4-1.3h3.2v-1.8c0-1.1-0.3-2-1-2.7s-1.7-1-3.1-1c-1.2,0-2.2,0.3-3,0.9
		s-1.2,1.4-1.2,2.3l-1.8,0c0-1.3,0.6-2.4,1.8-3.3s2.6-1.4,4.3-1.4c1.8,0,3.2,0.4,4.2,1.3s1.5,2.1,1.6,3.7v7.5c0,1.5,0.2,2.7,0.5,3.4
		v0.2H508.9z M503.4,339.3c1.2,0,2.2-0.3,3.1-0.8s1.6-1.3,2-2.3v-3.5h-3.1c-1.7,0-3.1,0.3-4.1,1s-1.5,1.5-1.5,2.6
		c0,0.9,0.3,1.6,1,2.2S502.4,339.3,503.4,339.3z"/>
	<path class="st1" d="M513.5,332.5c0-2.5,0.5-4.4,1.6-5.9s2.6-2.2,4.5-2.2c2.1,0,3.8,0.8,4.9,2.5v-8.9h1.7v22.5h-1.6l-0.1-2.1
		c-1.1,1.6-2.8,2.4-5,2.4c-1.8,0-3.3-0.7-4.4-2.2s-1.7-3.5-1.7-6V332.5z M515.3,332.8c0,2,0.4,3.6,1.2,4.8s2,1.8,3.4,1.8
		c2.2,0,3.7-1,4.6-2.9v-7.4c-0.9-2.1-2.4-3.1-4.6-3.1c-1.5,0-2.6,0.6-3.4,1.7S515.3,330.6,515.3,332.8z"/>
	<path class="st1" d="M535.2,338.1l4.6-13.3h1.9l-6.8,18.5l-0.4,0.8c-0.9,1.9-2.2,2.9-4,2.9c-0.4,0-0.9-0.1-1.3-0.2l0-1.5l0.9,0.1
		c0.9,0,1.6-0.2,2.1-0.6s1-1.2,1.4-2.2l0.8-2.1l-6-15.7h1.9L535.2,338.1z"/>
	<path class="st1" d="M552,327.4c0.6-0.9,1.3-1.7,2.2-2.2s1.9-0.8,2.9-0.8c1.7,0,3,0.5,3.8,1.4c0.8,1,1.2,2.4,1.3,4.3v10.4h-1.7
		v-10.4c0-1.4-0.3-2.5-0.9-3.2s-1.5-1-2.8-1c-1.1,0-2,0.3-2.9,1s-1.5,1.6-1.9,2.7v10.9h-1.7v-22.5h1.7V327.4z"/>
	<path class="st1" d="M575.9,340.6c-0.2-0.5-0.3-1.2-0.3-2.2c-0.6,0.8-1.4,1.4-2.4,1.9s-2,0.7-3,0.7c-1.5,0-2.8-0.4-3.7-1.3
		s-1.4-1.9-1.4-3.2c0-1.5,0.6-2.8,1.9-3.7s3.1-1.3,5.4-1.3h3.2v-1.8c0-1.1-0.3-2-1-2.7s-1.7-1-3.1-1c-1.2,0-2.2,0.3-3,0.9
		s-1.2,1.4-1.2,2.3l-1.8,0c0-1.3,0.6-2.4,1.8-3.3s2.6-1.4,4.3-1.4c1.8,0,3.2,0.4,4.2,1.3s1.5,2.1,1.6,3.7v7.5c0,1.5,0.2,2.7,0.5,3.4
		v0.2H575.9z M570.4,339.3c1.2,0,2.2-0.3,3.1-0.8s1.6-1.3,2-2.3v-3.5h-3.1c-1.7,0-3.1,0.3-4.1,1s-1.5,1.5-1.5,2.6
		c0,0.9,0.3,1.6,1,2.2S569.4,339.3,570.4,339.3z"/>
	<path class="st1" d="M586,338.2l4.8-13.4h1.8l-5.9,15.9h-1.4l-5.9-15.9h1.8L586,338.2z"/>
	<path class="st1" d="M600.7,340.9c-1.3,0-2.6-0.3-3.7-1s-1.9-1.6-2.5-2.8s-0.9-2.5-0.9-4v-0.6c0-1.5,0.3-2.9,0.9-4.1
		s1.4-2.2,2.5-2.9s2.2-1,3.4-1c1.9,0,3.4,0.7,4.6,2s1.7,3.1,1.7,5.4v1h-11.3v0.3c0,1.8,0.5,3.3,1.5,4.5s2.3,1.8,3.9,1.8
		c0.9,0,1.8-0.2,2.5-0.5s1.4-0.9,2-1.6l1.1,0.8C605,340,603.1,340.9,600.7,340.9z M600.3,326c-1.3,0-2.4,0.5-3.3,1.5
		s-1.5,2.3-1.6,3.9h9.5v-0.2c0-1.5-0.5-2.8-1.3-3.7S601.7,326,600.3,326z"/>
	<path class="st1" d="M621.7,339.4c1.2,0,2.2-0.3,3.1-1s1.3-1.6,1.3-2.7h1.7c0,1-0.4,1.8-0.9,2.6s-1.3,1.4-2.2,1.9s-1.9,0.7-3,0.7
		c-2.1,0-3.7-0.7-4.9-2.2s-1.8-3.4-1.8-5.8v-0.5c0-1.6,0.3-2.9,0.8-4.1s1.3-2.1,2.4-2.8c1-0.7,2.2-1,3.6-1c1.7,0,3.2,0.5,4.3,1.6
		c1.1,1,1.7,2.4,1.8,4.1h-1.7c-0.1-1.2-0.5-2.2-1.3-3s-1.8-1.1-3.1-1.1c-1.6,0-2.8,0.6-3.7,1.7s-1.3,2.7-1.3,4.8v0.5
		c0,2,0.4,3.6,1.3,4.7S620.1,339.4,621.7,339.4z"/>
	<path class="st1" d="M632.5,340.6h-1.8v-22.5h1.8V340.6z"/>
	<path class="st1" d="M642.6,340.9c-1.3,0-2.6-0.3-3.7-1s-1.9-1.6-2.5-2.8s-0.9-2.5-0.9-4v-0.6c0-1.5,0.3-2.9,0.9-4.1
		s1.4-2.2,2.5-2.9s2.2-1,3.4-1c1.9,0,3.4,0.7,4.6,2s1.7,3.1,1.7,5.4v1h-11.3v0.3c0,1.8,0.5,3.3,1.5,4.5s2.3,1.8,3.9,1.8
		c0.9,0,1.8-0.2,2.5-0.5s1.4-0.9,2-1.6l1.1,0.8C647,340,645.1,340.9,642.6,340.9z M642.3,326c-1.3,0-2.4,0.5-3.3,1.5
		s-1.5,2.3-1.6,3.9h9.5v-0.2c0-1.5-0.5-2.8-1.3-3.7S643.6,326,642.3,326z"/>
	<path class="st1" d="M661.2,340.6c-0.2-0.5-0.3-1.2-0.3-2.2c-0.6,0.8-1.4,1.4-2.4,1.9s-2,0.7-3,0.7c-1.5,0-2.8-0.4-3.7-1.3
		s-1.4-1.9-1.4-3.2c0-1.5,0.6-2.8,1.9-3.7s3.1-1.3,5.4-1.3h3.2v-1.8c0-1.1-0.3-2-1-2.7s-1.7-1-3.1-1c-1.2,0-2.2,0.3-3,0.9
		s-1.2,1.4-1.2,2.3l-1.8,0c0-1.3,0.6-2.4,1.8-3.3s2.6-1.4,4.3-1.4c1.8,0,3.2,0.4,4.2,1.3s1.5,2.1,1.6,3.7v7.5c0,1.5,0.2,2.7,0.5,3.4
		v0.2H661.2z M655.7,339.3c1.2,0,2.2-0.3,3.1-0.8s1.6-1.3,2-2.3v-3.5h-3.1c-1.7,0-3.1,0.3-4.1,1s-1.5,1.5-1.5,2.6
		c0,0.9,0.3,1.6,1,2.2S654.7,339.3,655.7,339.3z"/>
	<path class="st1" d="M673.9,326.3c-0.4-0.1-0.8-0.1-1.2-0.1c-1.1,0-2,0.3-2.8,0.9s-1.3,1.5-1.6,2.7v10.9h-1.7v-15.9h1.7l0,2.5
		c0.9-1.9,2.4-2.8,4.5-2.8c0.5,0,0.9,0.1,1.2,0.2L673.9,326.3z"/>
	<path class="st1" d="M681.7,332.5c0-2.5,0.5-4.4,1.6-5.9s2.6-2.2,4.5-2.2c2.2,0,3.8,0.9,4.9,2.6l0.1-2.3h1.6v15.5
		c0,2-0.6,3.7-1.7,4.8s-2.7,1.8-4.6,1.8c-1.1,0-2.2-0.2-3.2-0.7s-1.8-1.1-2.4-2l1-1.1c1.2,1.5,2.7,2.3,4.4,2.3
		c1.5,0,2.6-0.4,3.4-1.3s1.2-2.1,1.3-3.6v-2c-1.1,1.6-2.8,2.3-4.9,2.3c-1.8,0-3.3-0.7-4.4-2.2s-1.7-3.4-1.7-5.9V332.5z M683.5,332.8
		c0,2,0.4,3.6,1.2,4.8s2,1.8,3.4,1.8c2.2,0,3.7-1,4.6-2.9v-7.4c-0.4-1-1-1.8-1.8-2.3s-1.7-0.8-2.8-0.8c-1.5,0-2.6,0.6-3.4,1.7
		S683.5,330.6,683.5,332.8z"/>
	<path class="st1" d="M697.4,332.4c0-1.5,0.3-2.9,0.9-4.1s1.4-2.2,2.5-2.8s2.3-1,3.7-1c2.1,0,3.8,0.7,5.1,2.2s2,3.4,2,5.9v0.4
		c0,1.5-0.3,2.9-0.9,4.1s-1.4,2.2-2.5,2.8s-2.3,1-3.7,1c-2.1,0-3.8-0.7-5.1-2.2s-2-3.4-2-5.9V332.4z M699.1,332.9
		c0,1.9,0.5,3.4,1.5,4.7s2.3,1.8,3.9,1.8c1.6,0,2.9-0.6,3.8-1.8s1.5-2.8,1.5-4.8v-0.3c0-1.2-0.2-2.3-0.7-3.3s-1.1-1.8-1.9-2.3
		s-1.7-0.8-2.8-0.8c-1.6,0-2.8,0.6-3.8,1.8s-1.5,2.8-1.5,4.8V332.9z"/>
	<path class="st1" d="M724.4,340.6c-0.2-0.5-0.3-1.2-0.3-2.2c-0.6,0.8-1.4,1.4-2.4,1.9s-2,0.7-3,0.7c-1.5,0-2.8-0.4-3.7-1.3
		s-1.4-1.9-1.4-3.2c0-1.5,0.6-2.8,1.9-3.7s3.1-1.3,5.4-1.3h3.2v-1.8c0-1.1-0.3-2-1-2.7s-1.7-1-3.1-1c-1.2,0-2.2,0.3-3,0.9
		s-1.2,1.4-1.2,2.3l-1.8,0c0-1.3,0.6-2.4,1.8-3.3s2.6-1.4,4.3-1.4c1.8,0,3.2,0.4,4.2,1.3s1.5,2.1,1.6,3.7v7.5c0,1.5,0.2,2.7,0.5,3.4
		v0.2H724.4z M718.9,339.3c1.2,0,2.2-0.3,3.1-0.8s1.6-1.3,2-2.3v-3.5h-3.1c-1.7,0-3.1,0.3-4.1,1s-1.5,1.5-1.5,2.6
		c0,0.9,0.3,1.6,1,2.2S717.8,339.3,718.9,339.3z"/>
	<path class="st1" d="M731.7,340.6h-1.8v-22.5h1.8V340.6z"/>
	<path class="st1" d="M745.2,336.6c0-0.9-0.3-1.6-1-2.1s-1.8-0.9-3.2-1.2s-2.5-0.6-3.3-1s-1.4-0.9-1.7-1.4s-0.6-1.2-0.6-2
		c0-1.2,0.5-2.3,1.6-3.1s2.4-1.2,4-1.2c1.8,0,3.2,0.4,4.3,1.3s1.6,2,1.6,3.4h-1.8c0-0.9-0.4-1.7-1.2-2.3s-1.8-0.9-2.9-0.9
		c-1.2,0-2.1,0.3-2.8,0.8s-1,1.2-1,2c0,0.8,0.3,1.4,0.9,1.8s1.6,0.8,3.2,1.2s2.7,0.7,3.5,1.2s1.3,0.9,1.7,1.5s0.6,1.3,0.6,2.1
		c0,1.3-0.5,2.4-1.6,3.2s-2.5,1.2-4.2,1.2c-1.8,0-3.3-0.4-4.5-1.3s-1.7-2-1.7-3.4h1.8c0.1,1,0.5,1.8,1.3,2.4s1.8,0.9,3.2,0.9
		c1.2,0,2.2-0.3,3-0.8S745.2,337.4,745.2,336.6z"/>
	<path class="st1" d="M757.9,340.6v-14.4h-2.6v-1.4h2.6v-1.9c0-1.6,0.4-2.9,1.2-3.7s2-1.3,3.4-1.3c0.7,0,1.3,0.1,1.9,0.2l-0.1,1.5
		c-0.5-0.1-1-0.2-1.6-0.2c-1,0-1.7,0.3-2.3,0.9s-0.8,1.5-0.8,2.6v2h3.8v1.4h-3.8v14.4H757.9z"/>
	<path class="st1" d="M764.9,332.4c0-1.5,0.3-2.9,0.9-4.1s1.4-2.2,2.5-2.8s2.3-1,3.7-1c2.1,0,3.8,0.7,5.1,2.2s2,3.4,2,5.9v0.4
		c0,1.5-0.3,2.9-0.9,4.1s-1.4,2.2-2.5,2.8s-2.3,1-3.7,1c-2.1,0-3.8-0.7-5.1-2.2s-2-3.4-2-5.9V332.4z M766.6,332.9
		c0,1.9,0.5,3.4,1.5,4.7s2.3,1.8,3.9,1.8c1.6,0,2.9-0.6,3.8-1.8s1.5-2.8,1.5-4.8v-0.3c0-1.2-0.2-2.3-0.7-3.3s-1.1-1.8-1.9-2.3
		s-1.7-0.8-2.8-0.8c-1.6,0-2.8,0.6-3.8,1.8s-1.5,2.8-1.5,4.8V332.9z"/>
	<path class="st1" d="M789.2,326.3c-0.4-0.1-0.8-0.1-1.2-0.1c-1.1,0-2,0.3-2.8,0.9s-1.3,1.5-1.6,2.7v10.9h-1.7v-15.9h1.7l0,2.5
		c0.9-1.9,2.4-2.8,4.5-2.8c0.5,0,0.9,0.1,1.2,0.2L789.2,326.3z"/>
	<path class="st1" d="M800.5,320.7v4.1h3.3v1.4h-3.3v10.6c0,0.9,0.2,1.5,0.5,2c0.3,0.4,0.8,0.6,1.6,0.6c0.3,0,0.8,0,1.4-0.1l0.1,1.4
		c-0.5,0.2-1.1,0.2-1.9,0.2c-1.2,0-2.1-0.3-2.6-1s-0.8-1.7-0.8-3.1v-10.6h-2.9v-1.4h2.9v-4.1H800.5z"/>
	<path class="st1" d="M808.4,327.4c0.6-0.9,1.3-1.7,2.2-2.2s1.9-0.8,2.9-0.8c1.7,0,3,0.5,3.8,1.4c0.8,1,1.2,2.4,1.3,4.3v10.4h-1.7
		v-10.4c0-1.4-0.3-2.5-0.9-3.2s-1.5-1-2.8-1c-1.1,0-2,0.3-2.9,1s-1.5,1.6-1.9,2.7v10.9h-1.7v-22.5h1.7V327.4z"/>
	<path class="st1" d="M828.5,340.9c-1.3,0-2.6-0.3-3.7-1s-1.9-1.6-2.5-2.8s-0.9-2.5-0.9-4v-0.6c0-1.5,0.3-2.9,0.9-4.1
		s1.4-2.2,2.5-2.9s2.2-1,3.4-1c1.9,0,3.5,0.7,4.6,2s1.7,3.1,1.7,5.4v1h-11.3v0.3c0,1.8,0.5,3.3,1.5,4.5s2.3,1.8,3.9,1.8
		c0.9,0,1.8-0.2,2.5-0.5s1.4-0.9,2-1.6l1.1,0.8C832.9,340,831,340.9,828.5,340.9z M828.2,326c-1.3,0-2.4,0.5-3.3,1.5
		s-1.5,2.3-1.6,3.9h9.5v-0.2c0-1.5-0.5-2.8-1.3-3.7S829.5,326,828.2,326z"/>
	<path class="st1" d="M837,320.2c0-0.3,0.1-0.6,0.3-0.8s0.5-0.3,0.9-0.3s0.7,0.1,0.9,0.3c0.2,0.2,0.3,0.5,0.3,0.8s-0.1,0.6-0.3,0.8
		c-0.2,0.2-0.5,0.3-0.9,0.3s-0.7-0.1-0.9-0.3C837.1,320.8,837,320.5,837,320.2z M839.1,340.6h-1.8v-15.9h1.8V340.6z"/>
	<path class="st1" d="M850.4,326.3c-0.4-0.1-0.8-0.1-1.2-0.1c-1.1,0-2,0.3-2.8,0.9s-1.3,1.5-1.6,2.7v10.9h-1.7v-15.9h1.7l0,2.5
		c0.9-1.9,2.4-2.8,4.5-2.8c0.5,0,0.9,0.1,1.2,0.2L850.4,326.3z"/>
	<path class="st1" d="M871.5,335.4c0-1.2-0.4-2.1-1.2-2.8s-2.3-1.3-4.6-2s-3.8-1.3-4.8-2c-1.4-1-2.2-2.4-2.2-4.1c0-1.6,0.7-3,2-4
		s3.1-1.5,5.1-1.5c1.4,0,2.7,0.3,3.8,0.8c1.1,0.5,2,1.3,2.6,2.3s0.9,2.1,0.9,3.3h-1.8c0-1.5-0.5-2.6-1.5-3.5c-1-0.9-2.3-1.3-4-1.3
		c-1.6,0-2.9,0.4-3.9,1.1c-1,0.7-1.5,1.7-1.5,2.9c0,1.1,0.4,2,1.3,2.7s2.3,1.3,4.2,1.8s3.4,1.1,4.4,1.6s1.7,1.2,2.2,2
		s0.7,1.7,0.7,2.8c0,1.7-0.7,3-2,4c-1.3,1-3.1,1.5-5.3,1.5c-1.5,0-2.9-0.3-4.1-0.8s-2.2-1.3-2.9-2.3c-0.7-1-1-2.1-1-3.3h1.8
		c0,1.5,0.6,2.7,1.7,3.6s2.6,1.3,4.5,1.3c1.7,0,3-0.4,4-1.1S871.5,336.6,871.5,335.4z"/>
	<path class="st1" d="M890.9,320.8h-7.3v19.8h-1.8v-19.8h-7.3v-1.5h16.4V320.8z"/>
	<path class="st1" d="M905.4,330.4h-10v8.7h11.5v1.5h-13.3v-21.3h13.2v1.5h-11.4v8.1h10V330.4z"/>
	<path class="st1" d="M912.3,319.3l7.9,18.8l7.9-18.8h2.4v21.3h-1.8v-9.3l0.1-9.5l-7.9,18.8h-1.4l-7.9-18.7l0.1,9.4v9.3h-1.8v-21.3
		H912.3z"/>
	<path class="st1" d="M209.9,368.8c0,2.5-0.5,4.4-1.6,5.9s-2.6,2.2-4.4,2.2c-2.2,0-3.8-0.8-5-2.3v8.1h-1.7v-21.9h1.6l0.1,2.2
		c1.1-1.7,2.8-2.5,5-2.5c1.9,0,3.4,0.7,4.5,2.2s1.6,3.4,1.6,6V368.8z M208.2,368.5c0-2-0.4-3.6-1.2-4.8s-2-1.8-3.5-1.8
		c-1.1,0-2,0.3-2.8,0.8s-1.4,1.3-1.8,2.3v7.6c0.4,0.9,1,1.6,1.8,2.1s1.7,0.7,2.8,0.7c1.5,0,2.6-0.6,3.4-1.8S208.2,370.8,208.2,368.5
		z"/>
	<path class="st1" d="M220.4,362.3c-0.4-0.1-0.8-0.1-1.2-0.1c-1.1,0-2,0.3-2.8,0.9s-1.3,1.5-1.6,2.7v10.9h-1.7v-15.8h1.7l0,2.5
		c0.9-1.9,2.4-2.8,4.5-2.8c0.5,0,0.9,0.1,1.2,0.2L220.4,362.3z"/>
	<path class="st1" d="M221.1,368.4c0-1.5,0.3-2.9,0.9-4.1s1.4-2.2,2.5-2.8s2.3-1,3.7-1c2.1,0,3.8,0.7,5.1,2.2s2,3.4,2,5.9v0.4
		c0,1.5-0.3,2.9-0.9,4.1s-1.4,2.2-2.5,2.8s-2.3,1-3.7,1c-2.1,0-3.8-0.7-5.1-2.2s-2-3.4-2-5.9V368.4z M222.9,368.9
		c0,1.9,0.5,3.4,1.5,4.7s2.3,1.8,3.9,1.8c1.6,0,2.9-0.6,3.8-1.8s1.5-2.8,1.5-4.8v-0.3c0-1.2-0.2-2.3-0.7-3.3s-1.1-1.8-1.9-2.3
		s-1.7-0.8-2.8-0.8c-1.6,0-2.8,0.6-3.8,1.8s-1.5,2.8-1.5,4.8V368.9z"/>
	<path class="st1" d="M237.5,368.5c0-2.5,0.5-4.4,1.6-5.9s2.6-2.2,4.5-2.2c2.2,0,3.8,0.9,4.9,2.6l0.1-2.3h1.6v15.5
		c0,2-0.6,3.7-1.7,4.8s-2.7,1.8-4.6,1.8c-1.1,0-2.2-0.2-3.2-0.7s-1.8-1.1-2.4-2l1-1.1c1.2,1.5,2.7,2.3,4.4,2.3
		c1.5,0,2.6-0.4,3.4-1.3s1.2-2.1,1.3-3.6v-2c-1.1,1.6-2.8,2.3-4.9,2.3c-1.8,0-3.3-0.7-4.4-2.2s-1.7-3.4-1.7-5.9V368.5z M239.2,368.8
		c0,2,0.4,3.6,1.2,4.8s2,1.8,3.4,1.8c2.2,0,3.7-1,4.6-2.9v-7.4c-0.4-1-1-1.8-1.8-2.3s-1.7-0.8-2.8-0.8c-1.5,0-2.6,0.6-3.4,1.7
		S239.2,366.6,239.2,368.8z"/>
	<path class="st1" d="M261.4,362.3c-0.4-0.1-0.8-0.1-1.2-0.1c-1.1,0-2,0.3-2.8,0.9s-1.3,1.5-1.6,2.7v10.9h-1.7v-15.8h1.7l0,2.5
		c0.9-1.9,2.4-2.8,4.5-2.8c0.5,0,0.9,0.1,1.2,0.2L261.4,362.3z"/>
	<path class="st1" d="M272.8,376.6c-0.2-0.5-0.3-1.2-0.3-2.2c-0.6,0.8-1.4,1.4-2.4,1.9s-2,0.7-3,0.7c-1.5,0-2.8-0.4-3.7-1.3
		s-1.4-1.9-1.4-3.2c0-1.5,0.6-2.8,1.9-3.7s3.1-1.3,5.4-1.3h3.2v-1.8c0-1.1-0.3-2-1-2.7s-1.7-1-3.1-1c-1.2,0-2.2,0.3-3,0.9
		s-1.2,1.4-1.2,2.3l-1.8,0c0-1.3,0.6-2.4,1.8-3.3s2.6-1.4,4.3-1.4c1.8,0,3.2,0.4,4.2,1.3s1.5,2.1,1.6,3.7v7.5c0,1.5,0.2,2.7,0.5,3.4
		v0.2H272.8z M267.3,375.3c1.2,0,2.2-0.3,3.1-0.8s1.6-1.3,2-2.3v-3.5h-3.1c-1.7,0-3.1,0.3-4.1,1s-1.5,1.5-1.5,2.6
		c0,0.9,0.3,1.6,1,2.2S266.3,375.3,267.3,375.3z"/>
	<path class="st1" d="M279.7,360.8l0.1,2.6c0.6-1,1.3-1.7,2.2-2.2s1.9-0.7,2.9-0.7c2.5,0,4.1,1,4.8,3.1c0.6-1,1.3-1.7,2.3-2.3
		s2-0.8,3.1-0.8c3.4,0,5.1,1.9,5.2,5.6v10.6h-1.8v-10.4c0-1.4-0.3-2.5-0.9-3.1s-1.6-1-2.9-1c-1.3,0-2.3,0.4-3.2,1.2
		s-1.4,1.8-1.5,2.9v10.5h-1.8V366c0-1.4-0.3-2.4-1-3s-1.6-1-2.9-1c-1.1,0-2.1,0.3-2.8,0.9s-1.4,1.6-1.8,2.8v10.9H278v-15.8H279.7z"
		/>
	<path class="st1" d="M313.5,372.6c0-0.9-0.3-1.6-1-2.1s-1.8-0.9-3.2-1.2s-2.5-0.6-3.3-1s-1.4-0.9-1.7-1.4s-0.6-1.2-0.6-2
		c0-1.2,0.5-2.3,1.6-3.1s2.4-1.2,4-1.2c1.8,0,3.2,0.4,4.3,1.3s1.6,2,1.6,3.4h-1.8c0-0.9-0.4-1.7-1.2-2.3s-1.8-0.9-2.9-0.9
		c-1.2,0-2.1,0.3-2.8,0.8s-1,1.2-1,2c0,0.8,0.3,1.4,0.9,1.8s1.6,0.8,3.2,1.2s2.7,0.7,3.5,1.2s1.3,0.9,1.7,1.5s0.6,1.3,0.6,2.1
		c0,1.3-0.5,2.4-1.6,3.2s-2.5,1.2-4.2,1.2c-1.8,0-3.3-0.4-4.5-1.3s-1.7-2-1.7-3.4h1.8c0.1,1,0.5,1.8,1.3,2.4s1.8,0.9,3.2,0.9
		c1.2,0,2.2-0.3,3-0.8S313.5,373.4,313.5,372.6z"/>
	<path class="st1" d="M318,380.6l-1-0.8c0.9-1.2,1.3-2.4,1.4-3.7v-2.3h1.7v1.8C320.1,377.7,319.4,379.4,318,380.6z"/>
	<path class="st1" d="M329,368.4c0-1.5,0.3-2.9,0.9-4.1s1.4-2.2,2.5-2.8s2.3-1,3.7-1c2.1,0,3.8,0.7,5.1,2.2s2,3.4,2,5.9v0.4
		c0,1.5-0.3,2.9-0.9,4.1s-1.4,2.2-2.5,2.8s-2.3,1-3.7,1c-2.1,0-3.8-0.7-5.1-2.2s-2-3.4-2-5.9V368.4z M330.7,368.9
		c0,1.9,0.5,3.4,1.5,4.7s2.3,1.8,3.9,1.8c1.6,0,2.9-0.6,3.8-1.8s1.5-2.8,1.5-4.8v-0.3c0-1.2-0.2-2.3-0.7-3.3s-1.1-1.8-1.9-2.3
		s-1.7-0.8-2.8-0.8c-1.6,0-2.8,0.6-3.8,1.8s-1.5,2.8-1.5,4.8V368.9z"/>
	<path class="st1" d="M348.7,356.7v4.1h3.3v1.4h-3.3v10.6c0,0.9,0.2,1.5,0.5,2c0.3,0.4,0.8,0.6,1.6,0.6c0.3,0,0.8,0,1.4-0.1l0.1,1.4
		c-0.5,0.2-1.1,0.2-1.9,0.2c-1.2,0-2.1-0.3-2.6-1s-0.8-1.7-0.8-3.1v-10.6H344v-1.4h2.9v-4.1H348.7z"/>
	<path class="st1" d="M356.6,363.4c0.6-0.9,1.3-1.7,2.2-2.2s1.9-0.8,2.9-0.8c1.7,0,3,0.5,3.8,1.4s1.2,2.4,1.3,4.3v10.4h-1.7v-10.4
		c0-1.4-0.3-2.5-0.9-3.2s-1.5-1-2.8-1c-1.1,0-2,0.3-2.9,1s-1.5,1.6-1.9,2.7v10.9h-1.7v-22.5h1.7V363.4z"/>
	<path class="st1" d="M376.7,376.9c-1.3,0-2.6-0.3-3.7-1s-1.9-1.6-2.5-2.8s-0.9-2.5-0.9-4v-0.6c0-1.5,0.3-2.9,0.9-4.1
		s1.4-2.2,2.5-2.9s2.2-1,3.4-1c1.9,0,3.4,0.7,4.6,2s1.7,3.1,1.7,5.4v1h-11.3v0.3c0,1.8,0.5,3.3,1.5,4.5s2.3,1.8,3.9,1.8
		c0.9,0,1.8-0.2,2.5-0.5s1.4-0.9,2-1.6l1.1,0.8C381.1,376,379.2,376.9,376.7,376.9z M376.4,362c-1.3,0-2.4,0.5-3.3,1.5
		s-1.5,2.3-1.6,3.9h9.5v-0.2c0-1.5-0.5-2.8-1.3-3.7S377.7,362,376.4,362z"/>
	<path class="st1" d="M392.7,362.3c-0.4-0.1-0.8-0.1-1.2-0.1c-1.1,0-2,0.3-2.8,0.9s-1.3,1.5-1.6,2.7v10.9h-1.7v-15.8h1.7l0,2.5
		c0.9-1.9,2.4-2.8,4.5-2.8c0.5,0,0.9,0.1,1.2,0.2L392.7,362.3z"/>
	<path class="st1" d="M404.2,372.6c0-0.9-0.3-1.6-1-2.1s-1.8-0.9-3.2-1.2s-2.5-0.6-3.3-1s-1.4-0.9-1.7-1.4s-0.6-1.2-0.6-2
		c0-1.2,0.5-2.3,1.6-3.1s2.4-1.2,4-1.2c1.8,0,3.2,0.4,4.3,1.3s1.6,2,1.6,3.4h-1.8c0-0.9-0.4-1.7-1.2-2.3s-1.8-0.9-2.9-0.9
		c-1.2,0-2.1,0.3-2.8,0.8s-1,1.2-1,2c0,0.8,0.3,1.4,0.9,1.8s1.6,0.8,3.2,1.2s2.7,0.7,3.5,1.2s1.3,0.9,1.7,1.5s0.6,1.3,0.6,2.1
		c0,1.3-0.5,2.4-1.6,3.2s-2.5,1.2-4.2,1.2c-1.8,0-3.3-0.4-4.5-1.3s-1.7-2-1.7-3.4h1.8c0.1,1,0.5,1.8,1.3,2.4s1.8,0.9,3.2,0.9
		c1.2,0,2.2-0.3,3-0.8S404.2,373.4,404.2,372.6z"/>
	<path class="st1" d="M425.7,376.6c-0.2-0.5-0.3-1.2-0.3-2.2c-0.6,0.8-1.4,1.4-2.4,1.9s-2,0.7-3,0.7c-1.5,0-2.8-0.4-3.7-1.3
		s-1.4-1.9-1.4-3.2c0-1.5,0.6-2.8,1.9-3.7s3.1-1.3,5.4-1.3h3.2v-1.8c0-1.1-0.3-2-1-2.7s-1.7-1-3.1-1c-1.2,0-2.2,0.3-3,0.9
		s-1.2,1.4-1.2,2.3l-1.8,0c0-1.3,0.6-2.4,1.8-3.3s2.6-1.4,4.3-1.4c1.8,0,3.2,0.4,4.2,1.3s1.5,2.1,1.6,3.7v7.5c0,1.5,0.2,2.7,0.5,3.4
		v0.2H425.7z M420.2,375.3c1.2,0,2.2-0.3,3.1-0.8s1.6-1.3,2-2.3v-3.5h-3.1c-1.7,0-3.1,0.3-4.1,1s-1.5,1.5-1.5,2.6
		c0,0.9,0.3,1.6,1,2.2S419.1,375.3,420.2,375.3z"/>
	<path class="st1" d="M438.3,362.3c-0.4-0.1-0.8-0.1-1.2-0.1c-1.1,0-2,0.3-2.8,0.9s-1.3,1.5-1.6,2.7v10.9H431v-15.8h1.7l0,2.5
		c0.9-1.9,2.4-2.8,4.5-2.8c0.5,0,0.9,0.1,1.2,0.2L438.3,362.3z"/>
	<path class="st1" d="M446.2,376.9c-1.3,0-2.6-0.3-3.7-1s-1.9-1.6-2.5-2.8s-0.9-2.5-0.9-4v-0.6c0-1.5,0.3-2.9,0.9-4.1
		s1.4-2.2,2.5-2.9s2.2-1,3.4-1c1.9,0,3.4,0.7,4.6,2s1.7,3.1,1.7,5.4v1h-11.3v0.3c0,1.8,0.5,3.3,1.5,4.5s2.3,1.8,3.9,1.8
		c0.9,0,1.8-0.2,2.5-0.5s1.4-0.9,2-1.6l1.1,0.8C450.5,376,448.6,376.9,446.2,376.9z M445.9,362c-1.3,0-2.4,0.5-3.3,1.5
		s-1.5,2.3-1.6,3.9h9.5v-0.2c0-1.5-0.5-2.8-1.3-3.7S447.2,362,445.9,362z"/>
	<path class="st1" d="M470.8,372.6c0-0.9-0.3-1.6-1-2.1s-1.8-0.9-3.2-1.2s-2.5-0.6-3.3-1s-1.4-0.9-1.7-1.4s-0.6-1.2-0.6-2
		c0-1.2,0.5-2.3,1.6-3.1s2.4-1.2,4-1.2c1.8,0,3.2,0.4,4.3,1.3s1.6,2,1.6,3.4h-1.8c0-0.9-0.4-1.7-1.2-2.3s-1.8-0.9-2.9-0.9
		c-1.2,0-2.1,0.3-2.8,0.8s-1,1.2-1,2c0,0.8,0.3,1.4,0.9,1.8s1.6,0.8,3.2,1.2s2.7,0.7,3.5,1.2s1.3,0.9,1.7,1.5s0.6,1.3,0.6,2.1
		c0,1.3-0.5,2.4-1.6,3.2s-2.5,1.2-4.2,1.2c-1.8,0-3.3-0.4-4.5-1.3s-1.7-2-1.7-3.4h1.8c0.1,1,0.5,1.8,1.3,2.4s1.8,0.9,3.2,0.9
		c1.2,0,2.2-0.3,3-0.8S470.8,373.4,470.8,372.6z"/>
	<path class="st1" d="M478.5,356.7v4.1h3.3v1.4h-3.3v10.6c0,0.9,0.2,1.5,0.5,2c0.3,0.4,0.8,0.6,1.6,0.6c0.3,0,0.8,0,1.4-0.1l0.1,1.4
		c-0.5,0.2-1.1,0.2-1.9,0.2c-1.2,0-2.1-0.3-2.6-1s-0.8-1.7-0.8-3.1v-10.6h-2.9v-1.4h2.9v-4.1H478.5z"/>
	<path class="st1" d="M484.6,356.2c0-0.3,0.1-0.6,0.3-0.8c0.2-0.2,0.5-0.3,0.9-0.3s0.7,0.1,0.9,0.3c0.2,0.2,0.3,0.5,0.3,0.8
		s-0.1,0.6-0.3,0.8s-0.5,0.3-0.9,0.3s-0.7-0.1-0.9-0.3S484.6,356.5,484.6,356.2z M486.6,376.6h-1.8v-15.8h1.8V376.6z"/>
	<path class="st1" d="M492.6,376.6h-1.8v-22.5h1.8V376.6z"/>
	<path class="st1" d="M498.6,376.6h-1.8v-22.5h1.8V376.6z"/>
	<path class="st1" d="M515.3,376.9c-1.3,0-2.6-0.3-3.7-1s-1.9-1.6-2.5-2.8s-0.9-2.5-0.9-4v-0.6c0-1.5,0.3-2.9,0.9-4.1
		s1.4-2.2,2.5-2.9s2.2-1,3.4-1c1.9,0,3.4,0.7,4.6,2s1.7,3.1,1.7,5.4v1h-11.3v0.3c0,1.8,0.5,3.3,1.5,4.5s2.3,1.8,3.9,1.8
		c0.9,0,1.8-0.2,2.5-0.5s1.4-0.9,2-1.6l1.1,0.8C519.6,376,517.7,376.9,515.3,376.9z M515,362c-1.3,0-2.4,0.5-3.3,1.5
		s-1.5,2.3-1.6,3.9h9.5v-0.2c0-1.5-0.5-2.8-1.3-3.7S516.3,362,515,362z"/>
	<path class="st1" d="M528.9,367.2l4.3-6.4h2.1l-5.4,7.8l5.6,8.1h-2.1l-4.5-6.7l-4.5,6.7h-2.1l5.6-8.1l-5.4-7.8h2.1L528.9,367.2z"/>
	<path class="st1" d="M550.5,368.8c0,2.5-0.5,4.4-1.6,5.9s-2.6,2.2-4.4,2.2c-2.2,0-3.8-0.8-5-2.3v8.1h-1.7v-21.9h1.6l0.1,2.2
		c1.1-1.7,2.8-2.5,5-2.5c1.9,0,3.4,0.7,4.5,2.2s1.6,3.4,1.6,6V368.8z M548.7,368.5c0-2-0.4-3.6-1.2-4.8s-2-1.8-3.5-1.8
		c-1.1,0-2,0.3-2.8,0.8s-1.4,1.3-1.8,2.3v7.6c0.4,0.9,1,1.6,1.8,2.1s1.7,0.7,2.8,0.7c1.5,0,2.6-0.6,3.4-1.8S548.7,370.8,548.7,368.5
		z"/>
	<path class="st1" d="M555.6,376.6h-1.8v-22.5h1.8V376.6z"/>
	<path class="st1" d="M558.6,368.4c0-1.5,0.3-2.9,0.9-4.1s1.4-2.2,2.5-2.8s2.3-1,3.7-1c2.1,0,3.8,0.7,5.1,2.2s2,3.4,2,5.9v0.4
		c0,1.5-0.3,2.9-0.9,4.1s-1.4,2.2-2.5,2.8s-2.3,1-3.7,1c-2.1,0-3.8-0.7-5.1-2.2s-2-3.4-2-5.9V368.4z M560.4,368.9
		c0,1.9,0.5,3.4,1.5,4.7s2.3,1.8,3.9,1.8c1.6,0,2.9-0.6,3.8-1.8s1.5-2.8,1.5-4.8v-0.3c0-1.2-0.2-2.3-0.7-3.3s-1.1-1.8-1.9-2.3
		s-1.7-0.8-2.8-0.8c-1.6,0-2.8,0.6-3.8,1.8s-1.5,2.8-1.5,4.8V368.9z"/>
	<path class="st1" d="M583,362.3c-0.4-0.1-0.8-0.1-1.2-0.1c-1.1,0-2,0.3-2.8,0.9s-1.3,1.5-1.6,2.7v10.9h-1.7v-15.8h1.7l0,2.5
		c0.9-1.9,2.4-2.8,4.5-2.8c0.5,0,0.9,0.1,1.2,0.2L583,362.3z"/>
	<path class="st1" d="M584.9,356.2c0-0.3,0.1-0.6,0.3-0.8c0.2-0.2,0.5-0.3,0.9-0.3s0.7,0.1,0.9,0.3c0.2,0.2,0.3,0.5,0.3,0.8
		s-0.1,0.6-0.3,0.8s-0.5,0.3-0.9,0.3s-0.7-0.1-0.9-0.3S584.9,356.5,584.9,356.2z M586.9,376.6h-1.8v-15.8h1.8V376.6z"/>
	<path class="st1" d="M592.6,360.8l0.1,2.7c0.6-1,1.3-1.7,2.2-2.2s1.9-0.8,2.9-0.8c1.7,0,3,0.5,3.8,1.4s1.2,2.4,1.3,4.3v10.4h-1.7
		v-10.4c0-1.4-0.3-2.5-0.9-3.2s-1.5-1-2.8-1c-1.1,0-2,0.3-2.9,1s-1.5,1.6-1.9,2.7v10.9H591v-15.8H592.6z"/>
	<path class="st1" d="M606,368.5c0-2.5,0.5-4.4,1.6-5.9s2.6-2.2,4.5-2.2c2.2,0,3.8,0.9,4.9,2.6l0.1-2.3h1.6v15.5
		c0,2-0.6,3.7-1.7,4.8s-2.7,1.8-4.6,1.8c-1.1,0-2.2-0.2-3.2-0.7s-1.8-1.1-2.4-2l1-1.1c1.2,1.5,2.7,2.3,4.4,2.3
		c1.5,0,2.6-0.4,3.4-1.3s1.2-2.1,1.3-3.6v-2c-1.1,1.6-2.8,2.3-4.9,2.3c-1.8,0-3.3-0.7-4.4-2.2s-1.7-3.4-1.7-5.9V368.5z M607.8,368.8
		c0,2,0.4,3.6,1.2,4.8s2,1.8,3.4,1.8c2.2,0,3.7-1,4.6-2.9v-7.4c-0.4-1-1-1.8-1.8-2.3s-1.7-0.8-2.8-0.8c-1.5,0-2.6,0.6-3.4,1.7
		S607.8,366.6,607.8,368.8z"/>
	<path class="st1" d="M631.8,356.7v4.1h3.3v1.4h-3.3v10.6c0,0.9,0.2,1.5,0.5,2c0.3,0.4,0.8,0.6,1.6,0.6c0.3,0,0.8,0,1.4-0.1l0.1,1.4
		c-0.5,0.2-1.1,0.2-1.9,0.2c-1.2,0-2.1-0.3-2.6-1s-0.8-1.7-0.8-3.1v-10.6h-2.9v-1.4h2.9v-4.1H631.8z"/>
	<path class="st1" d="M639.7,363.4c0.6-0.9,1.3-1.7,2.2-2.2s1.9-0.8,2.9-0.8c1.7,0,3,0.5,3.8,1.4s1.2,2.4,1.3,4.3v10.4h-1.7v-10.4
		c0-1.4-0.3-2.5-0.9-3.2s-1.5-1-2.8-1c-1.1,0-2,0.3-2.9,1s-1.5,1.6-1.9,2.7v10.9H638v-22.5h1.7V363.4z"/>
	<path class="st1" d="M659.9,376.9c-1.3,0-2.6-0.3-3.7-1s-1.9-1.6-2.5-2.8s-0.9-2.5-0.9-4v-0.6c0-1.5,0.3-2.9,0.9-4.1
		s1.4-2.2,2.5-2.9s2.2-1,3.4-1c1.9,0,3.4,0.7,4.6,2s1.7,3.1,1.7,5.4v1h-11.3v0.3c0,1.8,0.5,3.3,1.5,4.5s2.3,1.8,3.9,1.8
		c0.9,0,1.8-0.2,2.5-0.5s1.4-0.9,2-1.6l1.1,0.8C664.2,376,662.3,376.9,659.9,376.9z M659.5,362c-1.3,0-2.4,0.5-3.3,1.5
		s-1.5,2.3-1.6,3.9h9.5v-0.2c0-1.5-0.5-2.8-1.3-3.7S660.9,362,659.5,362z"/>
	<path class="st1" d="M668.4,356.2c0-0.3,0.1-0.6,0.3-0.8c0.2-0.2,0.5-0.3,0.9-0.3s0.7,0.1,0.9,0.3c0.2,0.2,0.3,0.5,0.3,0.8
		s-0.1,0.6-0.3,0.8s-0.5,0.3-0.9,0.3s-0.7-0.1-0.9-0.3S668.4,356.5,668.4,356.2z M670.4,376.6h-1.8v-15.8h1.8V376.6z"/>
	<path class="st1" d="M681.8,362.3c-0.4-0.1-0.8-0.1-1.2-0.1c-1.1,0-2,0.3-2.8,0.9s-1.3,1.5-1.6,2.7v10.9h-1.7v-15.8h1.7l0,2.5
		c0.9-1.9,2.4-2.8,4.5-2.8c0.5,0,0.9,0.1,1.2,0.2L681.8,362.3z"/>
	<path class="st1" d="M689.4,368.4c0-1.5,0.3-2.9,0.9-4.1s1.4-2.2,2.5-2.8s2.3-1,3.7-1c2.1,0,3.8,0.7,5.1,2.2s2,3.4,2,5.9v0.4
		c0,1.5-0.3,2.9-0.9,4.1s-1.4,2.2-2.5,2.8s-2.3,1-3.7,1c-2.1,0-3.8-0.7-5.1-2.2s-2-3.4-2-5.9V368.4z M691.1,368.9
		c0,1.9,0.5,3.4,1.5,4.7s2.3,1.8,3.9,1.8c1.6,0,2.9-0.6,3.8-1.8s1.5-2.8,1.5-4.8v-0.3c0-1.2-0.2-2.3-0.7-3.3s-1.1-1.8-1.9-2.3
		s-1.7-0.8-2.8-0.8c-1.6,0-2.8,0.6-3.8,1.8s-1.5,2.8-1.5,4.8V368.9z"/>
	<path class="st1" d="M719.1,368.8c0,2.5-0.5,4.4-1.6,5.9s-2.6,2.2-4.4,2.2c-2.2,0-3.8-0.8-5-2.3v8.1h-1.7v-21.9h1.6l0.1,2.2
		c1.1-1.7,2.8-2.5,5-2.5c1.9,0,3.4,0.7,4.5,2.2s1.6,3.4,1.6,6V368.8z M717.4,368.5c0-2-0.4-3.6-1.2-4.8s-2-1.8-3.5-1.8
		c-1.1,0-2,0.3-2.8,0.8s-1.4,1.3-1.8,2.3v7.6c0.4,0.9,1,1.6,1.8,2.1s1.7,0.7,2.8,0.7c1.5,0,2.6-0.6,3.4-1.8S717.4,370.8,717.4,368.5
		z"/>
	<path class="st1" d="M725,356.7v4.1h3.3v1.4H725v10.6c0,0.9,0.2,1.5,0.5,2c0.3,0.4,0.8,0.6,1.6,0.6c0.3,0,0.8,0,1.4-0.1l0.1,1.4
		c-0.5,0.2-1.1,0.2-1.9,0.2c-1.2,0-2.1-0.3-2.6-1s-0.8-1.7-0.8-3.1v-10.6h-2.9v-1.4h2.9v-4.1H725z"/>
	<path class="st1" d="M731,356.2c0-0.3,0.1-0.6,0.3-0.8c0.2-0.2,0.5-0.3,0.9-0.3s0.7,0.1,0.9,0.3c0.2,0.2,0.3,0.5,0.3,0.8
		s-0.1,0.6-0.3,0.8s-0.5,0.3-0.9,0.3s-0.7-0.1-0.9-0.3S731,356.5,731,356.2z M733.1,376.6h-1.8v-15.8h1.8V376.6z"/>
	<path class="st1" d="M736.2,368.4c0-1.5,0.3-2.9,0.9-4.1s1.4-2.2,2.5-2.8s2.3-1,3.7-1c2.1,0,3.8,0.7,5.1,2.2s2,3.4,2,5.9v0.4
		c0,1.5-0.3,2.9-0.9,4.1s-1.4,2.2-2.5,2.8s-2.3,1-3.7,1c-2.1,0-3.8-0.7-5.1-2.2s-2-3.4-2-5.9V368.4z M737.9,368.9
		c0,1.9,0.5,3.4,1.5,4.7s2.3,1.8,3.9,1.8c1.6,0,2.9-0.6,3.8-1.8s1.5-2.8,1.5-4.8v-0.3c0-1.2-0.2-2.3-0.7-3.3s-1.1-1.8-1.9-2.3
		s-1.7-0.8-2.8-0.8c-1.6,0-2.8,0.6-3.8,1.8s-1.5,2.8-1.5,4.8V368.9z"/>
	<path class="st1" d="M754.8,360.8l0.1,2.7c0.6-1,1.3-1.7,2.2-2.2s1.9-0.8,2.9-0.8c1.7,0,3,0.5,3.8,1.4s1.2,2.4,1.3,4.3v10.4h-1.7
		v-10.4c0-1.4-0.3-2.5-0.9-3.2s-1.5-1-2.8-1c-1.1,0-2,0.3-2.9,1s-1.5,1.6-1.9,2.7v10.9h-1.7v-15.8H754.8z"/>
	<path class="st1" d="M778.4,372.6c0-0.9-0.3-1.6-1-2.1s-1.8-0.9-3.2-1.2s-2.5-0.6-3.3-1s-1.4-0.9-1.7-1.4s-0.6-1.2-0.6-2
		c0-1.2,0.5-2.3,1.6-3.1s2.4-1.2,4-1.2c1.8,0,3.2,0.4,4.3,1.3s1.6,2,1.6,3.4h-1.8c0-0.9-0.4-1.7-1.2-2.3s-1.8-0.9-2.9-0.9
		c-1.2,0-2.1,0.3-2.8,0.8s-1,1.2-1,2c0,0.8,0.3,1.4,0.9,1.8s1.6,0.8,3.2,1.2s2.7,0.7,3.5,1.2s1.3,0.9,1.7,1.5s0.6,1.3,0.6,2.1
		c0,1.3-0.5,2.4-1.6,3.2s-2.5,1.2-4.2,1.2c-1.8,0-3.3-0.4-4.5-1.3s-1.7-2-1.7-3.4h1.8c0.1,1,0.5,1.8,1.3,2.4s1.8,0.9,3.2,0.9
		c1.2,0,2.2-0.3,3-0.8S778.4,373.4,778.4,372.6z"/>
	<path class="st1" d="M783,380.6l-1-0.8c0.9-1.2,1.3-2.4,1.4-3.7v-2.3h1.7v1.8C785,377.7,784.3,379.4,783,380.6z"/>
	<path class="st1" d="M804.9,376.6c-0.2-0.5-0.3-1.2-0.3-2.2c-0.6,0.8-1.4,1.4-2.4,1.9s-2,0.7-3,0.7c-1.5,0-2.8-0.4-3.7-1.3
		s-1.4-1.9-1.4-3.2c0-1.5,0.6-2.8,1.9-3.7s3.1-1.3,5.4-1.3h3.2v-1.8c0-1.1-0.3-2-1-2.7s-1.7-1-3.1-1c-1.2,0-2.2,0.3-3,0.9
		s-1.2,1.4-1.2,2.3l-1.8,0c0-1.3,0.6-2.4,1.8-3.3s2.6-1.4,4.3-1.4c1.8,0,3.2,0.4,4.2,1.3s1.5,2.1,1.6,3.7v7.5c0,1.5,0.2,2.7,0.5,3.4
		v0.2H804.9z M799.4,375.3c1.2,0,2.2-0.3,3.1-0.8s1.6-1.3,2-2.3v-3.5h-3.1c-1.7,0-3.1,0.3-4.1,1s-1.5,1.5-1.5,2.6
		c0,0.9,0.3,1.6,1,2.2S798.3,375.3,799.4,375.3z"/>
	<path class="st1" d="M811.9,360.8l0.1,2.7c0.6-1,1.3-1.7,2.2-2.2s1.9-0.8,2.9-0.8c1.7,0,3,0.5,3.8,1.4s1.2,2.4,1.3,4.3v10.4h-1.7
		v-10.4c0-1.4-0.3-2.5-0.9-3.2s-1.5-1-2.8-1c-1.1,0-2,0.3-2.9,1s-1.5,1.6-1.9,2.7v10.9h-1.7v-15.8H811.9z"/>
	<path class="st1" d="M825.2,368.5c0-2.5,0.5-4.4,1.6-5.9s2.6-2.2,4.5-2.2c2.1,0,3.8,0.8,4.9,2.5v-8.9h1.7v22.5h-1.6l-0.1-2.1
		c-1.1,1.6-2.8,2.4-5,2.4c-1.8,0-3.3-0.7-4.4-2.2s-1.7-3.5-1.7-6V368.5z M827,368.8c0,2,0.4,3.6,1.2,4.8s2,1.8,3.4,1.8
		c2.2,0,3.7-1,4.6-2.9v-7.4c-0.9-2.1-2.4-3.1-4.6-3.1c-1.5,0-2.6,0.6-3.4,1.7S827,366.6,827,368.8z"/>
	<path class="st1" d="M850,360.8l0.1,2.6c0.6-1,1.3-1.7,2.2-2.2s1.9-0.7,2.9-0.7c2.5,0,4.1,1,4.8,3.1c0.6-1,1.3-1.7,2.3-2.3
		s2-0.8,3.1-0.8c3.4,0,5.1,1.9,5.2,5.6v10.6h-1.8v-10.4c0-1.4-0.3-2.5-0.9-3.1c-0.6-0.7-1.6-1-2.9-1c-1.3,0-2.3,0.4-3.2,1.2
		s-1.4,1.8-1.5,2.9v10.5h-1.8V366c0-1.4-0.3-2.4-1-3c-0.6-0.7-1.6-1-2.9-1c-1.1,0-2.1,0.3-2.8,0.9s-1.4,1.6-1.8,2.8v10.9h-1.8v-15.8
		H850z"/>
	<path class="st1" d="M884.2,376.6c-0.2-0.5-0.3-1.2-0.3-2.2c-0.6,0.8-1.4,1.4-2.4,1.9c-1,0.4-2,0.7-3,0.7c-1.5,0-2.8-0.4-3.7-1.3
		c-0.9-0.8-1.4-1.9-1.4-3.2c0-1.5,0.6-2.8,1.9-3.7s3.1-1.3,5.4-1.3h3.2v-1.8c0-1.1-0.3-2-1-2.7s-1.7-1-3.1-1c-1.2,0-2.2,0.3-3,0.9
		s-1.2,1.4-1.2,2.3l-1.8,0c0-1.3,0.6-2.4,1.8-3.3s2.6-1.4,4.3-1.4c1.8,0,3.2,0.4,4.2,1.3c1,0.9,1.5,2.1,1.6,3.7v7.5
		c0,1.5,0.2,2.7,0.5,3.4v0.2H884.2z M878.7,375.3c1.2,0,2.2-0.3,3.1-0.8c0.9-0.6,1.6-1.3,2-2.3v-3.5h-3.1c-1.7,0-3.1,0.3-4.1,1
		s-1.5,1.5-1.5,2.6c0,0.9,0.3,1.6,1,2.2C876.8,375.1,877.7,375.3,878.7,375.3z"/>
	<path class="st1" d="M894.4,374.1l4.6-13.3h1.9l-6.8,18.5l-0.4,0.8c-0.9,1.9-2.2,2.9-4,2.9c-0.4,0-0.9-0.1-1.3-0.2l0-1.5l0.9,0.1
		c0.9,0,1.6-0.2,2.1-0.6c0.5-0.4,1-1.2,1.4-2.2l0.8-2.1l-6-15.7h1.9L894.4,374.1z"/>
	<path class="st1" d="M911,360.8l0.1,2.7c0.6-1,1.3-1.7,2.2-2.2s1.9-0.8,2.9-0.8c1.7,0,3,0.5,3.8,1.4s1.2,2.4,1.3,4.3v10.4h-1.7
		v-10.4c0-1.4-0.3-2.5-0.9-3.2s-1.5-1-2.8-1c-1.1,0-2,0.3-2.9,1c-0.8,0.7-1.5,1.6-1.9,2.7v10.9h-1.7v-15.8H911z"/>
	<path class="st1" d="M931.2,376.9c-1.3,0-2.6-0.3-3.7-1s-1.9-1.6-2.5-2.8s-0.9-2.5-0.9-4v-0.6c0-1.5,0.3-2.9,0.9-4.1
		c0.6-1.2,1.4-2.2,2.5-2.9s2.2-1,3.4-1c1.9,0,3.5,0.7,4.6,2c1.1,1.3,1.7,3.1,1.7,5.4v1h-11.3v0.3c0,1.8,0.5,3.3,1.5,4.5
		c1,1.2,2.3,1.8,3.9,1.8c0.9,0,1.8-0.2,2.5-0.5c0.7-0.3,1.4-0.9,2-1.6l1.1,0.8C935.6,376,933.7,376.9,931.2,376.9z M930.9,362
		c-1.3,0-2.4,0.5-3.3,1.5s-1.5,2.3-1.6,3.9h9.5v-0.2c0-1.5-0.5-2.8-1.3-3.7S932.2,362,930.9,362z"/>
	<path class="st1" d="M946,376.9c-1.3,0-2.6-0.3-3.7-1s-1.9-1.6-2.5-2.8s-0.9-2.5-0.9-4v-0.6c0-1.5,0.3-2.9,0.9-4.1
		c0.6-1.2,1.4-2.2,2.5-2.9s2.2-1,3.4-1c1.9,0,3.5,0.7,4.6,2c1.1,1.3,1.7,3.1,1.7,5.4v1h-11.3v0.3c0,1.8,0.5,3.3,1.5,4.5
		c1,1.2,2.3,1.8,3.9,1.8c0.9,0,1.8-0.2,2.5-0.5c0.7-0.3,1.4-0.9,2-1.6l1.1,0.8C950.3,376,948.4,376.9,946,376.9z M945.7,362
		c-1.3,0-2.4,0.5-3.3,1.5s-1.5,2.3-1.6,3.9h9.5v-0.2c0-1.5-0.5-2.8-1.3-3.7S947,362,945.7,362z"/>
	<path class="st1" d="M953.9,368.5c0-2.5,0.5-4.4,1.6-5.9c1.1-1.5,2.6-2.2,4.5-2.2c2.1,0,3.8,0.8,4.9,2.5v-8.9h1.7v22.5H965
		l-0.1-2.1c-1.1,1.6-2.8,2.4-5,2.4c-1.8,0-3.3-0.7-4.4-2.2c-1.1-1.5-1.7-3.5-1.7-6V368.5z M955.7,368.8c0,2,0.4,3.6,1.2,4.8
		s2,1.8,3.4,1.8c2.2,0,3.7-1,4.6-2.9v-7.4c-0.9-2.1-2.4-3.1-4.6-3.1c-1.5,0-2.6,0.6-3.4,1.7S955.7,366.6,955.7,368.8z"/>
	<path class="st1" d="M196.5,404.5c0-2.5,0.5-4.4,1.6-5.9s2.6-2.2,4.5-2.2c2.2,0,3.8,0.9,4.9,2.6l0.1-2.3h1.6v15.5
		c0,2-0.6,3.7-1.7,4.8s-2.7,1.8-4.6,1.8c-1.1,0-2.2-0.2-3.2-0.7s-1.8-1.1-2.4-2l1-1.1c1.2,1.5,2.7,2.3,4.4,2.3
		c1.5,0,2.6-0.4,3.4-1.3s1.2-2.1,1.3-3.6v-2c-1.1,1.6-2.8,2.3-4.9,2.3c-1.8,0-3.3-0.7-4.4-2.2s-1.7-3.4-1.7-5.9V404.5z M198.3,404.8
		c0,2,0.4,3.6,1.2,4.8s2,1.8,3.4,1.8c2.2,0,3.7-1,4.6-2.9v-7.4c-0.4-1-1-1.8-1.8-2.3s-1.7-0.8-2.8-0.8c-1.5,0-2.6,0.6-3.4,1.7
		S198.3,402.6,198.3,404.8z"/>
	<path class="st1" d="M223.3,410.6c-1.1,1.5-2.7,2.3-5.1,2.3c-1.7,0-3-0.5-3.9-1.5s-1.3-2.4-1.3-4.4v-10.3h1.7v10.1
		c0,3,1.2,4.5,3.7,4.5c2.5,0,4.1-1,4.8-3.1v-11.5h1.8v15.8h-1.7L223.3,410.6z"/>
	<path class="st1" d="M228.7,392.2c0-0.3,0.1-0.6,0.3-0.8c0.2-0.2,0.5-0.3,0.9-0.3s0.7,0.1,0.9,0.3c0.2,0.2,0.3,0.5,0.3,0.8
		s-0.1,0.6-0.3,0.8s-0.5,0.3-0.9,0.3s-0.7-0.1-0.9-0.3S228.7,392.5,228.7,392.2z M230.8,412.6H229v-15.8h1.8V412.6z"/>
	<path class="st1" d="M234.1,404.5c0-2.5,0.5-4.4,1.6-5.9s2.6-2.2,4.5-2.2c2.1,0,3.8,0.8,4.9,2.5v-8.9h1.7v22.5h-1.6l-0.1-2.1
		c-1.1,1.6-2.8,2.4-5,2.4c-1.8,0-3.3-0.7-4.4-2.2s-1.7-3.5-1.7-6V404.5z M235.8,404.8c0,2,0.4,3.6,1.2,4.8s2,1.8,3.4,1.8
		c2.2,0,3.7-1,4.6-2.9v-7.4c-0.9-2.1-2.4-3.1-4.6-3.1c-1.5,0-2.6,0.6-3.4,1.7S235.8,402.6,235.8,404.8z"/>
	<path class="st1" d="M260.7,412.6c-0.2-0.5-0.3-1.2-0.3-2.2c-0.6,0.8-1.4,1.4-2.4,1.9s-2,0.7-3,0.7c-1.5,0-2.8-0.4-3.7-1.3
		s-1.4-1.9-1.4-3.2c0-1.5,0.6-2.8,1.9-3.7s3.1-1.3,5.4-1.3h3.2v-1.8c0-1.1-0.3-2-1-2.7s-1.7-1-3.1-1c-1.2,0-2.2,0.3-3,0.9
		s-1.2,1.4-1.2,2.3l-1.8,0c0-1.3,0.6-2.4,1.8-3.3s2.6-1.4,4.3-1.4c1.8,0,3.2,0.4,4.2,1.3s1.5,2.1,1.6,3.7v7.5c0,1.5,0.2,2.7,0.5,3.4
		v0.2H260.7z M255.2,411.3c1.2,0,2.2-0.3,3.1-0.8s1.6-1.3,2-2.3v-3.5h-3.1c-1.7,0-3.1,0.3-4.1,1s-1.5,1.5-1.5,2.6
		c0,0.9,0.3,1.6,1,2.2S254.1,411.3,255.2,411.3z"/>
	<path class="st1" d="M267.7,396.8l0.1,2.7c0.6-1,1.3-1.7,2.2-2.2s1.9-0.8,2.9-0.8c1.7,0,3,0.5,3.8,1.4s1.2,2.4,1.3,4.3v10.4h-1.7
		v-10.4c0-1.4-0.3-2.5-0.9-3.2s-1.5-1-2.8-1c-1.1,0-2,0.3-2.9,1s-1.5,1.6-1.9,2.7v10.9H266v-15.8H267.7z"/>
	<path class="st1" d="M287.6,411.4c1.2,0,2.2-0.3,3.1-1s1.3-1.6,1.3-2.7h1.7c0,1-0.4,1.8-0.9,2.6s-1.3,1.4-2.2,1.9s-1.9,0.7-3,0.7
		c-2.1,0-3.7-0.7-4.9-2.2s-1.8-3.4-1.8-5.8v-0.5c0-1.6,0.3-2.9,0.8-4.1s1.3-2.1,2.4-2.8s2.2-1,3.6-1c1.7,0,3.2,0.5,4.3,1.6
		s1.7,2.4,1.8,4.1H292c-0.1-1.2-0.5-2.2-1.3-3s-1.8-1.1-3.1-1.1c-1.6,0-2.8,0.6-3.7,1.7s-1.3,2.7-1.3,4.8v0.5c0,2,0.4,3.6,1.3,4.7
		S286,411.4,287.6,411.4z"/>
	<path class="st1" d="M302.6,412.9c-1.3,0-2.6-0.3-3.7-1s-1.9-1.6-2.5-2.8s-0.9-2.5-0.9-4v-0.6c0-1.5,0.3-2.9,0.9-4.1
		s1.4-2.2,2.5-2.9s2.2-1,3.4-1c1.9,0,3.4,0.7,4.6,2s1.7,3.1,1.7,5.4v1h-11.3v0.3c0,1.8,0.5,3.3,1.5,4.5s2.3,1.8,3.9,1.8
		c0.9,0,1.8-0.2,2.5-0.5s1.4-0.9,2-1.6l1.1,0.8C306.9,412,305,412.9,302.6,412.9z M302.3,398c-1.3,0-2.4,0.5-3.3,1.5
		s-1.5,2.3-1.6,3.9h9.5v-0.2c0-1.5-0.5-2.8-1.3-3.7S303.6,398,302.3,398z"/>
	<path class="st1" d="M317.6,392.2c0-0.3,0.1-0.6,0.3-0.8c0.2-0.2,0.5-0.3,0.9-0.3s0.7,0.1,0.9,0.3c0.2,0.2,0.3,0.5,0.3,0.8
		s-0.1,0.6-0.3,0.8s-0.5,0.3-0.9,0.3s-0.7-0.1-0.9-0.3S317.6,392.5,317.6,392.2z M319.7,412.6h-1.8v-15.8h1.8V412.6z"/>
	<path class="st1" d="M325.4,396.8l0.1,2.7c0.6-1,1.3-1.7,2.2-2.2s1.9-0.8,2.9-0.8c1.7,0,3,0.5,3.8,1.4s1.2,2.4,1.3,4.3v10.4h-1.7
		v-10.4c0-1.4-0.3-2.5-0.9-3.2s-1.5-1-2.8-1c-1.1,0-2,0.3-2.9,1s-1.5,1.6-1.9,2.7v10.9h-1.7v-15.8H325.4z"/>
	<path class="st1" d="M347.7,399.4c0.6-0.9,1.3-1.7,2.2-2.2s1.9-0.8,2.9-0.8c1.7,0,3,0.5,3.8,1.4s1.2,2.4,1.3,4.3v10.4h-1.7v-10.4
		c0-1.4-0.3-2.5-0.9-3.2s-1.5-1-2.8-1c-1.1,0-2,0.3-2.9,1s-1.5,1.6-1.9,2.7v10.9H346v-22.5h1.7V399.4z"/>
	<path class="st1" d="M360.7,404.4c0-1.5,0.3-2.9,0.9-4.1s1.4-2.2,2.5-2.8s2.3-1,3.7-1c2.1,0,3.8,0.7,5.1,2.2s2,3.4,2,5.9v0.4
		c0,1.5-0.3,2.9-0.9,4.1s-1.4,2.2-2.5,2.8s-2.3,1-3.7,1c-2.1,0-3.8-0.7-5.1-2.2s-2-3.4-2-5.9V404.4z M362.5,404.9
		c0,1.9,0.5,3.4,1.5,4.7s2.3,1.8,3.9,1.8c1.6,0,2.9-0.6,3.8-1.8s1.5-2.8,1.5-4.8v-0.3c0-1.2-0.2-2.3-0.7-3.3s-1.1-1.8-1.9-2.3
		s-1.7-0.8-2.8-0.8c-1.6,0-2.8,0.6-3.8,1.8s-1.5,2.8-1.5,4.8V404.9z"/>
	<path class="st1" d="M381.6,409l0.3,1.4l0.4-1.4l3.8-12.1h1.5l3.8,12l0.4,1.7l0.3-1.5l3.3-12.2h1.8l-4.6,15.8h-1.5l-4.1-12.6
		l-0.2-0.9l-0.2,0.9l-4,12.6H381l-4.6-15.8h1.8L381.6,409z"/>
	<path class="st1" d="M408.9,392.7v4.1h3.3v1.4h-3.3v10.6c0,0.9,0.2,1.5,0.5,2c0.3,0.4,0.8,0.6,1.6,0.6c0.3,0,0.8,0,1.4-0.1l0.1,1.4
		c-0.5,0.2-1.1,0.2-1.9,0.2c-1.2,0-2.1-0.3-2.6-1s-0.8-1.7-0.8-3.1v-10.6h-2.9v-1.4h2.9v-4.1H408.9z"/>
	<path class="st1" d="M413.8,404.4c0-1.5,0.3-2.9,0.9-4.1s1.4-2.2,2.5-2.8s2.3-1,3.7-1c2.1,0,3.8,0.7,5.1,2.2s2,3.4,2,5.9v0.4
		c0,1.5-0.3,2.9-0.9,4.1s-1.4,2.2-2.5,2.8s-2.3,1-3.7,1c-2.1,0-3.8-0.7-5.1-2.2s-2-3.4-2-5.9V404.4z M415.6,404.9
		c0,1.9,0.5,3.4,1.5,4.7s2.3,1.8,3.9,1.8c1.6,0,2.9-0.6,3.8-1.8s1.5-2.8,1.5-4.8v-0.3c0-1.2-0.2-2.3-0.7-3.3s-1.1-1.8-1.9-2.3
		s-1.7-0.8-2.8-0.8c-1.6,0-2.8,0.6-3.8,1.8s-1.5,2.8-1.5,4.8V404.9z"/>
	<path class="st1" d="M436.7,404.5c0-2.5,0.5-4.4,1.6-5.9s2.6-2.2,4.5-2.2c2.1,0,3.8,0.8,4.9,2.5v-8.9h1.7v22.5h-1.6l-0.1-2.1
		c-1.1,1.6-2.8,2.4-5,2.4c-1.8,0-3.3-0.7-4.4-2.2s-1.7-3.5-1.7-6V404.5z M438.4,404.8c0,2,0.4,3.6,1.2,4.8s2,1.8,3.4,1.8
		c2.2,0,3.7-1,4.6-2.9v-7.4c-0.9-2.1-2.4-3.1-4.6-3.1c-1.5,0-2.6,0.6-3.4,1.7S438.4,402.6,438.4,404.8z"/>
	<path class="st1" d="M459.4,412.9c-1.3,0-2.6-0.3-3.7-1s-1.9-1.6-2.5-2.8s-0.9-2.5-0.9-4v-0.6c0-1.5,0.3-2.9,0.9-4.1
		s1.4-2.2,2.5-2.9s2.2-1,3.4-1c1.9,0,3.4,0.7,4.6,2s1.7,3.1,1.7,5.4v1h-11.3v0.3c0,1.8,0.5,3.3,1.5,4.5s2.3,1.8,3.9,1.8
		c0.9,0,1.8-0.2,2.5-0.5s1.4-0.9,2-1.6l1.1,0.8C463.7,412,461.9,412.9,459.4,412.9z M459.1,398c-1.3,0-2.4,0.5-3.3,1.5
		s-1.5,2.3-1.6,3.9h9.5v-0.2c0-1.5-0.5-2.8-1.3-3.7S460.4,398,459.1,398z"/>
	<path class="st1" d="M477.5,408.6c0-0.9-0.3-1.6-1-2.1s-1.8-0.9-3.2-1.2s-2.5-0.6-3.3-1s-1.4-0.9-1.7-1.4s-0.6-1.2-0.6-2
		c0-1.2,0.5-2.3,1.6-3.1s2.4-1.2,4-1.2c1.8,0,3.2,0.4,4.3,1.3s1.6,2,1.6,3.4h-1.8c0-0.9-0.4-1.7-1.2-2.3s-1.8-0.9-2.9-0.9
		c-1.2,0-2.1,0.3-2.8,0.8s-1,1.2-1,2c0,0.8,0.3,1.4,0.9,1.8s1.6,0.8,3.2,1.2s2.7,0.7,3.5,1.2s1.3,0.9,1.7,1.5s0.6,1.3,0.6,2.1
		c0,1.3-0.5,2.4-1.6,3.2s-2.5,1.2-4.2,1.2c-1.8,0-3.3-0.4-4.5-1.3s-1.7-2-1.7-3.4h1.8c0.1,1,0.5,1.8,1.3,2.4s1.8,0.9,3.2,0.9
		c1.2,0,2.2-0.3,3-0.8S477.5,409.4,477.5,408.6z"/>
	<path class="st1" d="M482.4,392.2c0-0.3,0.1-0.6,0.3-0.8c0.2-0.2,0.5-0.3,0.9-0.3s0.7,0.1,0.9,0.3c0.2,0.2,0.3,0.5,0.3,0.8
		s-0.1,0.6-0.3,0.8s-0.5,0.3-0.9,0.3s-0.7-0.1-0.9-0.3S482.4,392.5,482.4,392.2z M484.4,412.6h-1.8v-15.8h1.8V412.6z"/>
	<path class="st1" d="M487.7,404.5c0-2.5,0.5-4.4,1.6-5.9s2.6-2.2,4.5-2.2c2.2,0,3.8,0.9,4.9,2.6l0.1-2.3h1.6v15.5
		c0,2-0.6,3.7-1.7,4.8s-2.7,1.8-4.6,1.8c-1.1,0-2.2-0.2-3.2-0.7s-1.8-1.1-2.4-2l1-1.1c1.2,1.5,2.7,2.3,4.4,2.3
		c1.5,0,2.6-0.4,3.4-1.3s1.2-2.1,1.3-3.6v-2c-1.1,1.6-2.8,2.3-4.9,2.3c-1.8,0-3.3-0.7-4.4-2.2s-1.7-3.4-1.7-5.9V404.5z M489.5,404.8
		c0,2,0.4,3.6,1.2,4.8s2,1.8,3.4,1.8c2.2,0,3.7-1,4.6-2.9v-7.4c-0.4-1-1-1.8-1.8-2.3s-1.7-0.8-2.8-0.8c-1.5,0-2.6,0.6-3.4,1.7
		S489.5,402.6,489.5,404.8z"/>
	<path class="st1" d="M506,396.8l0.1,2.7c0.6-1,1.3-1.7,2.2-2.2s1.9-0.8,2.9-0.8c1.7,0,3,0.5,3.8,1.4s1.2,2.4,1.3,4.3v10.4h-1.7
		v-10.4c0-1.4-0.3-2.5-0.9-3.2s-1.5-1-2.8-1c-1.1,0-2,0.3-2.9,1s-1.5,1.6-1.9,2.7v10.9h-1.7v-15.8H506z"/>
	<path class="st1" d="M536.6,412.6c-0.2-0.5-0.3-1.2-0.3-2.2c-0.6,0.8-1.4,1.4-2.4,1.9s-2,0.7-3,0.7c-1.5,0-2.8-0.4-3.7-1.3
		s-1.4-1.9-1.4-3.2c0-1.5,0.6-2.8,1.9-3.7s3.1-1.3,5.4-1.3h3.2v-1.8c0-1.1-0.3-2-1-2.7s-1.7-1-3.1-1c-1.2,0-2.2,0.3-3,0.9
		s-1.2,1.4-1.2,2.3l-1.8,0c0-1.3,0.6-2.4,1.8-3.3s2.6-1.4,4.3-1.4c1.8,0,3.2,0.4,4.2,1.3s1.5,2.1,1.6,3.7v7.5c0,1.5,0.2,2.7,0.5,3.4
		v0.2H536.6z M531.1,411.3c1.2,0,2.2-0.3,3.1-0.8s1.6-1.3,2-2.3v-3.5h-3.1c-1.7,0-3.1,0.3-4.1,1s-1.5,1.5-1.5,2.6
		c0,0.9,0.3,1.6,1,2.2S530.1,411.3,531.1,411.3z"/>
	<path class="st1" d="M561.2,404.8c0,2.5-0.5,4.4-1.6,5.9s-2.6,2.2-4.4,2.2c-2.2,0-3.8-0.8-5-2.3v8.1h-1.7v-21.9h1.6l0.1,2.2
		c1.1-1.7,2.8-2.5,5-2.5c1.9,0,3.4,0.7,4.5,2.2s1.6,3.4,1.6,6V404.8z M559.5,404.5c0-2-0.4-3.6-1.2-4.8s-2-1.8-3.5-1.8
		c-1.1,0-2,0.3-2.8,0.8s-1.4,1.3-1.8,2.3v7.6c0.4,0.9,1,1.6,1.8,2.1s1.7,0.7,2.8,0.7c1.5,0,2.6-0.6,3.4-1.8S559.5,406.8,559.5,404.5
		z"/>
	<path class="st1" d="M571.7,398.3c-0.4-0.1-0.8-0.1-1.2-0.1c-1.1,0-2,0.3-2.8,0.9s-1.3,1.5-1.6,2.7v10.9h-1.7v-15.8h1.7l0,2.5
		c0.9-1.9,2.4-2.8,4.5-2.8c0.5,0,0.9,0.1,1.2,0.2L571.7,398.3z"/>
	<path class="st1" d="M572.4,404.4c0-1.5,0.3-2.9,0.9-4.1s1.4-2.2,2.5-2.8s2.3-1,3.7-1c2.1,0,3.8,0.7,5.1,2.2s2,3.4,2,5.9v0.4
		c0,1.5-0.3,2.9-0.9,4.1s-1.4,2.2-2.5,2.8s-2.3,1-3.7,1c-2.1,0-3.8-0.7-5.1-2.2s-2-3.4-2-5.9V404.4z M574.2,404.9
		c0,1.9,0.5,3.4,1.5,4.7s2.3,1.8,3.9,1.8c1.6,0,2.9-0.6,3.8-1.8s1.5-2.8,1.5-4.8v-0.3c0-1.2-0.2-2.3-0.7-3.3s-1.1-1.8-1.9-2.3
		s-1.7-0.8-2.8-0.8c-1.6,0-2.8,0.6-3.8,1.8s-1.5,2.8-1.5,4.8V404.9z"/>
	<path class="st1" d="M588.7,404.5c0-2.5,0.5-4.4,1.6-5.9s2.6-2.2,4.5-2.2c2.2,0,3.8,0.9,4.9,2.6l0.1-2.3h1.6v15.5
		c0,2-0.6,3.7-1.7,4.8s-2.7,1.8-4.6,1.8c-1.1,0-2.2-0.2-3.2-0.7s-1.8-1.1-2.4-2l1-1.1c1.2,1.5,2.7,2.3,4.4,2.3
		c1.5,0,2.6-0.4,3.4-1.3s1.2-2.1,1.3-3.6v-2c-1.1,1.6-2.8,2.3-4.9,2.3c-1.8,0-3.3-0.7-4.4-2.2s-1.7-3.4-1.7-5.9V404.5z M590.5,404.8
		c0,2,0.4,3.6,1.2,4.8s2,1.8,3.4,1.8c2.2,0,3.7-1,4.6-2.9v-7.4c-0.4-1-1-1.8-1.8-2.3s-1.7-0.8-2.8-0.8c-1.5,0-2.6,0.6-3.4,1.7
		S590.5,402.6,590.5,404.8z"/>
	<path class="st1" d="M612.7,398.3c-0.4-0.1-0.8-0.1-1.2-0.1c-1.1,0-2,0.3-2.8,0.9s-1.3,1.5-1.6,2.7v10.9h-1.7v-15.8h1.7l0,2.5
		c0.9-1.9,2.4-2.8,4.5-2.8c0.5,0,0.9,0.1,1.2,0.2L612.7,398.3z"/>
	<path class="st1" d="M624.1,412.6c-0.2-0.5-0.3-1.2-0.3-2.2c-0.6,0.8-1.4,1.4-2.4,1.9s-2,0.7-3,0.7c-1.5,0-2.8-0.4-3.7-1.3
		s-1.4-1.9-1.4-3.2c0-1.5,0.6-2.8,1.9-3.7s3.1-1.3,5.4-1.3h3.2v-1.8c0-1.1-0.3-2-1-2.7s-1.7-1-3.1-1c-1.2,0-2.2,0.3-3,0.9
		s-1.2,1.4-1.2,2.3l-1.8,0c0-1.3,0.6-2.4,1.8-3.3s2.6-1.4,4.3-1.4c1.8,0,3.2,0.4,4.2,1.3s1.5,2.1,1.6,3.7v7.5c0,1.5,0.2,2.7,0.5,3.4
		v0.2H624.1z M618.6,411.3c1.2,0,2.2-0.3,3.1-0.8s1.6-1.3,2-2.3v-3.5h-3.1c-1.7,0-3.1,0.3-4.1,1s-1.5,1.5-1.5,2.6
		c0,0.9,0.3,1.6,1,2.2S617.5,411.3,618.6,411.3z"/>
	<path class="st1" d="M631,396.8l0.1,2.6c0.6-1,1.3-1.7,2.2-2.2s1.9-0.7,2.9-0.7c2.5,0,4.1,1,4.8,3.1c0.6-1,1.3-1.7,2.3-2.3
		s2-0.8,3.1-0.8c3.4,0,5.1,1.9,5.2,5.6v10.6h-1.8v-10.4c0-1.4-0.3-2.5-0.9-3.1s-1.6-1-2.9-1c-1.3,0-2.3,0.4-3.2,1.2
		s-1.4,1.8-1.5,2.9v10.5h-1.8V402c0-1.4-0.3-2.4-1-3s-1.6-1-2.9-1c-1.1,0-2.1,0.3-2.8,0.9s-1.4,1.6-1.8,2.8v10.9h-1.8v-15.8H631z"/>
	<path class="st1" d="M664.5,392.7v4.1h3.3v1.4h-3.3v10.6c0,0.9,0.2,1.5,0.5,2c0.3,0.4,0.8,0.6,1.6,0.6c0.3,0,0.8,0,1.4-0.1l0.1,1.4
		c-0.5,0.2-1.1,0.2-1.9,0.2c-1.2,0-2.1-0.3-2.6-1s-0.8-1.7-0.8-3.1v-10.6h-2.9v-1.4h2.9v-4.1H664.5z"/>
	<path class="st1" d="M672.4,399.4c0.6-0.9,1.3-1.7,2.2-2.2s1.9-0.8,2.9-0.8c1.7,0,3,0.5,3.8,1.4s1.2,2.4,1.3,4.3v10.4h-1.7v-10.4
		c0-1.4-0.3-2.5-0.9-3.2s-1.5-1-2.8-1c-1.1,0-2,0.3-2.9,1s-1.5,1.6-1.9,2.7v10.9h-1.7v-22.5h1.7V399.4z"/>
	<path class="st1" d="M696.4,412.6c-0.2-0.5-0.3-1.2-0.3-2.2c-0.6,0.8-1.4,1.4-2.4,1.9s-2,0.7-3,0.7c-1.5,0-2.8-0.4-3.7-1.3
		s-1.4-1.9-1.4-3.2c0-1.5,0.6-2.8,1.9-3.7s3.1-1.3,5.4-1.3h3.2v-1.8c0-1.1-0.3-2-1-2.7s-1.7-1-3.1-1c-1.2,0-2.2,0.3-3,0.9
		s-1.2,1.4-1.2,2.3l-1.8,0c0-1.3,0.6-2.4,1.8-3.3s2.6-1.4,4.3-1.4c1.8,0,3.2,0.4,4.2,1.3s1.5,2.1,1.6,3.7v7.5c0,1.5,0.2,2.7,0.5,3.4
		v0.2H696.4z M690.9,411.3c1.2,0,2.2-0.3,3.1-0.8s1.6-1.3,2-2.3v-3.5h-3.1c-1.7,0-3.1,0.3-4.1,1s-1.5,1.5-1.5,2.6
		c0,0.9,0.3,1.6,1,2.2S689.8,411.3,690.9,411.3z"/>
	<path class="st1" d="M704.4,392.7v4.1h3.3v1.4h-3.3v10.6c0,0.9,0.2,1.5,0.5,2c0.3,0.4,0.8,0.6,1.6,0.6c0.3,0,0.8,0,1.4-0.1l0.1,1.4
		c-0.5,0.2-1.1,0.2-1.9,0.2c-1.2,0-2.1-0.3-2.6-1s-0.8-1.7-0.8-3.1v-10.6h-2.9v-1.4h2.9v-4.1H704.4z"/>
	<path class="st1" d="M721,409l0.3,1.4l0.4-1.4l3.8-12.1h1.5l3.8,12l0.4,1.7l0.3-1.5l3.3-12.2h1.8l-4.6,15.8h-1.5l-4.1-12.6
		l-0.2-0.9l-0.2,0.9l-4,12.6h-1.5l-4.6-15.8h1.8L721,409z"/>
	<path class="st1" d="M738.9,392.2c0-0.3,0.1-0.6,0.3-0.8c0.2-0.2,0.5-0.3,0.9-0.3s0.7,0.1,0.9,0.3c0.2,0.2,0.3,0.5,0.3,0.8
		s-0.1,0.6-0.3,0.8s-0.5,0.3-0.9,0.3s-0.7-0.1-0.9-0.3S738.9,392.5,738.9,392.2z M741,412.6h-1.8v-15.8h1.8V412.6z"/>
	<path class="st1" d="M747,412.6h-1.8v-22.5h1.8V412.6z"/>
	<path class="st1" d="M752.9,412.6h-1.8v-22.5h1.8V412.6z"/>
	<path class="st1" d="M776.2,404.8c0,2.5-0.5,4.4-1.6,5.9s-2.6,2.2-4.4,2.2c-2.2,0-3.8-0.8-5-2.3v8.1h-1.7v-21.9h1.6l0.1,2.2
		c1.1-1.7,2.8-2.5,5-2.5c1.9,0,3.4,0.7,4.5,2.2s1.6,3.4,1.6,6V404.8z M774.5,404.5c0-2-0.4-3.6-1.2-4.8s-2-1.8-3.5-1.8
		c-1.1,0-2,0.3-2.8,0.8s-1.4,1.3-1.8,2.3v7.6c0.4,0.9,1,1.6,1.8,2.1s1.7,0.7,2.8,0.7c1.5,0,2.6-0.6,3.4-1.8S774.5,406.8,774.5,404.5
		z"/>
	<path class="st1" d="M786.7,398.3c-0.4-0.1-0.8-0.1-1.2-0.1c-1.1,0-2,0.3-2.8,0.9s-1.3,1.5-1.6,2.7v10.9h-1.7v-15.8h1.7l0,2.5
		c0.9-1.9,2.4-2.8,4.5-2.8c0.5,0,0.9,0.1,1.2,0.2L786.7,398.3z"/>
	<path class="st1" d="M787.4,404.4c0-1.5,0.3-2.9,0.9-4.1s1.4-2.2,2.5-2.8s2.3-1,3.7-1c2.1,0,3.8,0.7,5.1,2.2s2,3.4,2,5.9v0.4
		c0,1.5-0.3,2.9-0.9,4.1s-1.4,2.2-2.5,2.8s-2.3,1-3.7,1c-2.1,0-3.8-0.7-5.1-2.2s-2-3.4-2-5.9V404.4z M789.2,404.9
		c0,1.9,0.5,3.4,1.5,4.7s2.3,1.8,3.9,1.8c1.6,0,2.9-0.6,3.8-1.8s1.5-2.8,1.5-4.8v-0.3c0-1.2-0.2-2.3-0.7-3.3s-1.1-1.8-1.9-2.3
		s-1.7-0.8-2.8-0.8c-1.6,0-2.8,0.6-3.8,1.8s-1.5,2.8-1.5,4.8V404.9z"/>
	<path class="st1" d="M809.2,410.2l4.8-13.4h1.8l-5.9,15.8h-1.4l-5.9-15.8h1.8L809.2,410.2z"/>
	<path class="st1" d="M817.8,392.2c0-0.3,0.1-0.6,0.3-0.8c0.2-0.2,0.5-0.3,0.9-0.3s0.7,0.1,0.9,0.3c0.2,0.2,0.3,0.5,0.3,0.8
		s-0.1,0.6-0.3,0.8s-0.5,0.3-0.9,0.3s-0.7-0.1-0.9-0.3S817.8,392.5,817.8,392.2z M819.9,412.6h-1.8v-15.8h1.8V412.6z"/>
	<path class="st1" d="M823.2,404.5c0-2.5,0.5-4.4,1.6-5.9s2.6-2.2,4.5-2.2c2.1,0,3.8,0.8,4.9,2.5v-8.9h1.7v22.5h-1.6l-0.1-2.1
		c-1.1,1.6-2.8,2.4-5,2.4c-1.8,0-3.3-0.7-4.4-2.2s-1.7-3.5-1.7-6V404.5z M825,404.8c0,2,0.4,3.6,1.2,4.8s2,1.8,3.4,1.8
		c2.2,0,3.7-1,4.6-2.9v-7.4c-0.9-2.1-2.4-3.1-4.6-3.1c-1.5,0-2.6,0.6-3.4,1.7S825,402.6,825,404.8z"/>
	<path class="st1" d="M846,412.9c-1.3,0-2.6-0.3-3.7-1s-1.9-1.6-2.5-2.8s-0.9-2.5-0.9-4v-0.6c0-1.5,0.3-2.9,0.9-4.1
		c0.6-1.2,1.4-2.2,2.5-2.9s2.2-1,3.4-1c1.9,0,3.5,0.7,4.6,2c1.1,1.3,1.7,3.1,1.7,5.4v1h-11.3v0.3c0,1.8,0.5,3.3,1.5,4.5
		c1,1.2,2.3,1.8,3.9,1.8c0.9,0,1.8-0.2,2.5-0.5c0.7-0.3,1.4-0.9,2-1.6l1.1,0.8C850.3,412,848.4,412.9,846,412.9z M845.6,398
		c-1.3,0-2.4,0.5-3.3,1.5s-1.5,2.3-1.6,3.9h9.5v-0.2c0-1.5-0.5-2.8-1.3-3.7S847,398,845.6,398z"/>
	<path class="st1" d="M863.8,392.7v4.1h3.3v1.4h-3.3v10.6c0,0.9,0.2,1.5,0.5,2c0.3,0.4,0.8,0.6,1.6,0.6c0.3,0,0.8,0,1.4-0.1l0.1,1.4
		c-0.5,0.2-1.1,0.2-1.9,0.2c-1.2,0-2.1-0.3-2.6-1s-0.8-1.7-0.8-3.1v-10.6h-2.9v-1.4h2.9v-4.1H863.8z"/>
	<path class="st1" d="M871.7,399.4c0.6-0.9,1.3-1.7,2.2-2.2s1.9-0.8,2.9-0.8c1.7,0,3,0.5,3.8,1.4s1.2,2.4,1.3,4.3v10.4h-1.7v-10.4
		c0-1.4-0.3-2.5-0.9-3.2s-1.5-1-2.8-1c-1.1,0-2,0.3-2.9,1c-0.8,0.7-1.5,1.6-1.9,2.7v10.9H870v-22.5h1.7V399.4z"/>
	<path class="st1" d="M891.9,412.9c-1.3,0-2.6-0.3-3.7-1s-1.9-1.6-2.5-2.8s-0.9-2.5-0.9-4v-0.6c0-1.5,0.3-2.9,0.9-4.1
		c0.6-1.2,1.4-2.2,2.5-2.9s2.2-1,3.4-1c1.9,0,3.5,0.7,4.6,2c1.1,1.3,1.7,3.1,1.7,5.4v1h-11.3v0.3c0,1.8,0.5,3.3,1.5,4.5
		c1,1.2,2.3,1.8,3.9,1.8c0.9,0,1.8-0.2,2.5-0.5c0.7-0.3,1.4-0.9,2-1.6l1.1,0.8C896.2,412,894.3,412.9,891.9,412.9z M891.5,398
		c-1.3,0-2.4,0.5-3.3,1.5s-1.5,2.3-1.6,3.9h9.5v-0.2c0-1.5-0.5-2.8-1.3-3.7S892.9,398,891.5,398z"/>
	<path class="st1" d="M900.4,392.2c0-0.3,0.1-0.6,0.3-0.8c0.2-0.2,0.5-0.3,0.9-0.3s0.7,0.1,0.9,0.3c0.2,0.2,0.3,0.5,0.3,0.8
		s-0.1,0.6-0.3,0.8c-0.2,0.2-0.5,0.3-0.9,0.3s-0.7-0.1-0.9-0.3S900.4,392.5,900.4,392.2z M902.4,412.6h-1.8v-15.8h1.8V412.6z"/>
	<path class="st1" d="M913.8,398.3c-0.4-0.1-0.8-0.1-1.2-0.1c-1.1,0-2,0.3-2.8,0.9s-1.3,1.5-1.6,2.7v10.9h-1.7v-15.8h1.7l0,2.5
		c0.9-1.9,2.4-2.8,4.5-2.8c0.5,0,0.9,0.1,1.2,0.2L913.8,398.3z"/>
	<path class="st1" d="M931.8,408.6c0-0.9-0.3-1.6-1-2.1c-0.7-0.5-1.8-0.9-3.2-1.2s-2.5-0.6-3.3-1c-0.8-0.4-1.4-0.9-1.7-1.4
		s-0.6-1.2-0.6-2c0-1.2,0.5-2.3,1.6-3.1s2.4-1.2,4-1.2c1.8,0,3.2,0.4,4.3,1.3c1.1,0.9,1.6,2,1.6,3.4h-1.8c0-0.9-0.4-1.7-1.2-2.3
		c-0.8-0.6-1.8-0.9-2.9-0.9c-1.2,0-2.1,0.3-2.8,0.8c-0.7,0.5-1,1.2-1,2c0,0.8,0.3,1.4,0.9,1.8c0.6,0.4,1.6,0.8,3.2,1.2
		c1.5,0.4,2.7,0.7,3.5,1.2s1.3,0.9,1.7,1.5s0.6,1.3,0.6,2.1c0,1.3-0.5,2.4-1.6,3.2s-2.5,1.2-4.2,1.2c-1.8,0-3.3-0.4-4.5-1.3
		c-1.1-0.9-1.7-2-1.7-3.4h1.8c0.1,1,0.5,1.8,1.3,2.4s1.8,0.9,3.2,0.9c1.2,0,2.2-0.3,3-0.8S931.8,409.4,931.8,408.6z"/>
	<path class="st1" d="M939.5,392.7v4.1h3.3v1.4h-3.3v10.6c0,0.9,0.2,1.5,0.5,2c0.3,0.4,0.8,0.6,1.6,0.6c0.3,0,0.8,0,1.4-0.1l0.1,1.4
		c-0.5,0.2-1.1,0.2-1.9,0.2c-1.2,0-2.1-0.3-2.6-1s-0.8-1.7-0.8-3.1v-10.6h-2.9v-1.4h2.9v-4.1H939.5z"/>
	<path class="st1" d="M955.8,410.6c-1.1,1.5-2.7,2.3-5.1,2.3c-1.7,0-3-0.5-3.9-1.5s-1.3-2.4-1.3-4.4v-10.3h1.7v10.1
		c0,3,1.2,4.5,3.7,4.5c2.5,0,4.1-1,4.8-3.1v-11.5h1.8v15.8h-1.7L955.8,410.6z"/>
	<path class="st1" d="M960.7,404.5c0-2.5,0.5-4.4,1.6-5.9c1.1-1.5,2.6-2.2,4.5-2.2c2.1,0,3.8,0.8,4.9,2.5v-8.9h1.7v22.5h-1.6
		l-0.1-2.1c-1.1,1.6-2.8,2.4-5,2.4c-1.8,0-3.3-0.7-4.4-2.2c-1.1-1.5-1.7-3.5-1.7-6V404.5z M962.5,404.8c0,2,0.4,3.6,1.2,4.8
		s2,1.8,3.4,1.8c2.2,0,3.7-1,4.6-2.9v-7.4c-0.9-2.1-2.4-3.1-4.6-3.1c-1.5,0-2.6,0.6-3.4,1.7S962.5,402.6,962.5,404.8z"/>
	<path class="st1" d="M983.4,412.9c-1.3,0-2.6-0.3-3.7-1s-1.9-1.6-2.5-2.8s-0.9-2.5-0.9-4v-0.6c0-1.5,0.3-2.9,0.9-4.1
		c0.6-1.2,1.4-2.2,2.5-2.9s2.2-1,3.4-1c1.9,0,3.5,0.7,4.6,2c1.1,1.3,1.7,3.1,1.7,5.4v1h-11.3v0.3c0,1.8,0.5,3.3,1.5,4.5
		c1,1.2,2.3,1.8,3.9,1.8c0.9,0,1.8-0.2,2.5-0.5c0.7-0.3,1.4-0.9,2-1.6l1.1,0.8C987.8,412,985.9,412.9,983.4,412.9z M983.1,398
		c-1.3,0-2.4,0.5-3.3,1.5s-1.5,2.3-1.6,3.9h9.5v-0.2c0-1.5-0.5-2.8-1.3-3.7S984.4,398,983.1,398z"/>
	<path class="st1" d="M993.7,396.8l0.1,2.7c0.6-1,1.3-1.7,2.2-2.2s1.9-0.8,2.9-0.8c1.7,0,3,0.5,3.8,1.4s1.2,2.4,1.3,4.3v10.4h-1.7
		v-10.4c0-1.4-0.3-2.5-0.9-3.2s-1.5-1-2.8-1c-1.1,0-2,0.3-2.9,1c-0.8,0.7-1.5,1.6-1.9,2.7v10.9h-1.7v-15.8H993.7z"/>
	<path class="st1" d="M1010.5,392.7v4.1h3.3v1.4h-3.3v10.6c0,0.9,0.2,1.5,0.5,2c0.3,0.4,0.8,0.6,1.6,0.6c0.3,0,0.8,0,1.4-0.1
		l0.1,1.4c-0.5,0.2-1.1,0.2-1.9,0.2c-1.2,0-2.1-0.3-2.6-1s-0.8-1.7-0.8-3.1v-10.6h-2.9v-1.4h2.9v-4.1H1010.5z"/>
	<path class="st1" d="M1026.2,408.6c0-0.9-0.3-1.6-1-2.1c-0.7-0.5-1.8-0.9-3.2-1.2s-2.5-0.6-3.3-1c-0.8-0.4-1.4-0.9-1.7-1.4
		s-0.6-1.2-0.6-2c0-1.2,0.5-2.3,1.6-3.1s2.4-1.2,4-1.2c1.8,0,3.2,0.4,4.3,1.3c1.1,0.9,1.6,2,1.6,3.4h-1.8c0-0.9-0.4-1.7-1.2-2.3
		c-0.8-0.6-1.8-0.9-2.9-0.9c-1.2,0-2.1,0.3-2.8,0.8c-0.7,0.5-1,1.2-1,2c0,0.8,0.3,1.4,0.9,1.8c0.6,0.4,1.6,0.8,3.2,1.2
		c1.5,0.4,2.7,0.7,3.5,1.2s1.3,0.9,1.7,1.5s0.6,1.3,0.6,2.1c0,1.3-0.5,2.4-1.6,3.2s-2.5,1.2-4.2,1.2c-1.8,0-3.3-0.4-4.5-1.3
		c-1.1-0.9-1.7-2-1.7-3.4h1.8c0.1,1,0.5,1.8,1.3,2.4s1.8,0.9,3.2,0.9c1.2,0,2.2-0.3,3-0.8S1026.2,409.4,1026.2,408.6z"/>
	<path class="st1" d="M201,445l0.3,1.4l0.4-1.4l3.8-12.1h1.5l3.8,12l0.4,1.7l0.3-1.5l3.3-12.2h1.8l-4.6,15.8h-1.5l-4.1-12.6
		l-0.2-0.9l-0.2,0.9l-4,12.6h-1.5l-4.6-15.8h1.8L201,445z"/>
	<path class="st1" d="M218.9,428.2c0-0.3,0.1-0.6,0.3-0.8c0.2-0.2,0.5-0.3,0.9-0.3s0.7,0.1,0.9,0.3c0.2,0.2,0.3,0.5,0.3,0.8
		s-0.1,0.6-0.3,0.8s-0.5,0.3-0.9,0.3s-0.7-0.1-0.9-0.3S218.9,428.5,218.9,428.2z M221,448.6h-1.8v-15.8h1.8V448.6z"/>
	<path class="st1" d="M227.7,428.7v4.1h3.3v1.4h-3.3v10.6c0,0.9,0.2,1.5,0.5,2c0.3,0.4,0.8,0.6,1.6,0.6c0.3,0,0.8,0,1.4-0.1l0.1,1.4
		c-0.5,0.2-1.1,0.2-1.9,0.2c-1.2,0-2.1-0.3-2.6-1s-0.8-1.7-0.8-3.1v-10.6h-2.9v-1.4h2.9v-4.1H227.7z"/>
	<path class="st1" d="M235.7,435.4c0.6-0.9,1.3-1.7,2.2-2.2s1.9-0.8,2.9-0.8c1.7,0,3,0.5,3.8,1.4s1.2,2.4,1.3,4.3v10.4h-1.7v-10.4
		c0-1.4-0.3-2.5-0.9-3.2s-1.5-1-2.8-1c-1.1,0-2,0.3-2.9,1s-1.5,1.6-1.9,2.7v10.9h-1.7v-22.5h1.7V435.4z"/>
	<path class="st1" d="M258.1,448.6h-1.8v-22.5h1.8V448.6z"/>
	<path class="st1" d="M261.2,440.4c0-1.5,0.3-2.9,0.9-4.1s1.4-2.2,2.5-2.8s2.3-1,3.7-1c2.1,0,3.8,0.7,5.1,2.2s2,3.4,2,5.9v0.4
		c0,1.5-0.3,2.9-0.9,4.1s-1.4,2.2-2.5,2.8s-2.3,1-3.7,1c-2.1,0-3.8-0.7-5.1-2.2s-2-3.4-2-5.9V440.4z M262.9,440.9
		c0,1.9,0.5,3.4,1.5,4.7s2.3,1.8,3.9,1.8c1.6,0,2.9-0.6,3.8-1.8s1.5-2.8,1.5-4.8v-0.3c0-1.2-0.2-2.3-0.7-3.3s-1.1-1.8-1.9-2.3
		s-1.7-0.8-2.8-0.8c-1.6,0-2.8,0.6-3.8,1.8s-1.5,2.8-1.5,4.8V440.9z"/>
	<path class="st1" d="M277.5,440.5c0-2.5,0.5-4.4,1.6-5.9s2.6-2.2,4.5-2.2c2.2,0,3.8,0.9,4.9,2.6l0.1-2.3h1.6v15.5
		c0,2-0.6,3.7-1.7,4.8s-2.7,1.8-4.6,1.8c-1.1,0-2.2-0.2-3.2-0.7s-1.8-1.1-2.4-2l1-1.1c1.2,1.5,2.7,2.3,4.4,2.3
		c1.5,0,2.6-0.4,3.4-1.3s1.2-2.1,1.3-3.6v-2c-1.1,1.6-2.8,2.3-4.9,2.3c-1.8,0-3.3-0.7-4.4-2.2s-1.7-3.4-1.7-5.9V440.5z M279.3,440.8
		c0,2,0.4,3.6,1.2,4.8s2,1.8,3.4,1.8c2.2,0,3.7-1,4.6-2.9v-7.4c-0.4-1-1-1.8-1.8-2.3s-1.7-0.8-2.8-0.8c-1.5,0-2.6,0.6-3.4,1.7
		S279.3,438.6,279.3,440.8z"/>
	<path class="st1" d="M294,428.2c0-0.3,0.1-0.6,0.3-0.8c0.2-0.2,0.5-0.3,0.9-0.3s0.7,0.1,0.9,0.3c0.2,0.2,0.3,0.5,0.3,0.8
		s-0.1,0.6-0.3,0.8s-0.5,0.3-0.9,0.3s-0.7-0.1-0.9-0.3S294,428.5,294,428.2z M296.1,448.6h-1.8v-15.8h1.8V448.6z"/>
	<path class="st1" d="M305.9,447.4c1.2,0,2.2-0.3,3.1-1s1.3-1.6,1.3-2.7h1.7c0,1-0.4,1.8-0.9,2.6s-1.3,1.4-2.2,1.9s-1.9,0.7-3,0.7
		c-2.1,0-3.7-0.7-4.9-2.2s-1.8-3.4-1.8-5.8v-0.5c0-1.6,0.3-2.9,0.8-4.1s1.3-2.1,2.4-2.8s2.2-1,3.6-1c1.7,0,3.2,0.5,4.3,1.6
		s1.7,2.4,1.8,4.1h-1.7c-0.1-1.2-0.5-2.2-1.3-3s-1.8-1.1-3.1-1.1c-1.6,0-2.8,0.6-3.7,1.7s-1.3,2.7-1.3,4.8v0.5c0,2,0.4,3.6,1.3,4.7
		S304.3,447.4,305.9,447.4z"/>
	<path class="st1" d="M324.8,448.6c-0.2-0.5-0.3-1.2-0.3-2.2c-0.6,0.8-1.4,1.4-2.4,1.9s-2,0.7-3,0.7c-1.5,0-2.8-0.4-3.7-1.3
		s-1.4-1.9-1.4-3.2c0-1.5,0.6-2.8,1.9-3.7s3.1-1.3,5.4-1.3h3.2v-1.8c0-1.1-0.3-2-1-2.7s-1.7-1-3.1-1c-1.2,0-2.2,0.3-3,0.9
		s-1.2,1.4-1.2,2.3l-1.8,0c0-1.3,0.6-2.4,1.8-3.3s2.6-1.4,4.3-1.4c1.8,0,3.2,0.4,4.2,1.3s1.5,2.1,1.6,3.7v7.5c0,1.5,0.2,2.7,0.5,3.4
		v0.2H324.8z M319.3,447.3c1.2,0,2.2-0.3,3.1-0.8s1.6-1.3,2-2.3v-3.5h-3.1c-1.7,0-3.1,0.3-4.1,1s-1.5,1.5-1.5,2.6
		c0,0.9,0.3,1.6,1,2.2S318.2,447.3,319.3,447.3z"/>
	<path class="st1" d="M332,448.6h-1.8v-22.5h1.8V448.6z"/>
	<path class="st1" d="M355.1,443.4c0-1.2-0.4-2.1-1.2-2.8s-2.3-1.3-4.6-2s-3.8-1.3-4.8-2c-1.4-1-2.2-2.4-2.2-4.1c0-1.6,0.7-3,2-4
		s3.1-1.5,5.1-1.5c1.4,0,2.7,0.3,3.8,0.8s2,1.3,2.6,2.3s0.9,2.1,0.9,3.3H355c0-1.5-0.5-2.6-1.5-3.5c-1-0.9-2.3-1.3-4-1.3
		c-1.6,0-2.9,0.4-3.9,1.1s-1.5,1.7-1.5,2.9c0,1.1,0.4,2,1.3,2.7s2.3,1.3,4.2,1.8s3.4,1.1,4.4,1.6s1.7,1.2,2.2,2s0.7,1.7,0.7,2.8
		c0,1.7-0.7,3-2,4s-3.1,1.5-5.3,1.5c-1.5,0-2.9-0.3-4.1-0.8s-2.2-1.3-2.9-2.3s-1-2.1-1-3.3h1.8c0,1.5,0.6,2.7,1.7,3.6
		s2.6,1.3,4.5,1.3c1.7,0,3-0.4,4-1.1S355.1,444.6,355.1,443.4z"/>
	<path class="st1" d="M374.5,428.8h-7.3v19.8h-1.8v-19.8h-7.3v-1.5h16.4V428.8z"/>
	<path class="st1" d="M389,438.4h-10v8.7h11.5v1.5h-13.3v-21.3h13.2v1.5H379v8.1h10V438.4z"/>
	<path class="st1" d="M395.9,427.3l7.9,18.8l7.9-18.8h2.4v21.3h-1.8v-9.3l0.1-9.5l-7.9,18.8h-1.4l-7.9-18.7l0.1,9.4v9.3h-1.8v-21.3
		H395.9z"/>
	<path class="st1" d="M434.3,444.6c0-0.9-0.3-1.6-1-2.1s-1.8-0.9-3.2-1.2s-2.5-0.6-3.3-1s-1.4-0.9-1.7-1.4s-0.6-1.2-0.6-2
		c0-1.2,0.5-2.3,1.6-3.1s2.4-1.2,4-1.2c1.8,0,3.2,0.4,4.3,1.3s1.6,2,1.6,3.4h-1.8c0-0.9-0.4-1.7-1.2-2.3s-1.8-0.9-2.9-0.9
		c-1.2,0-2.1,0.3-2.8,0.8s-1,1.2-1,2c0,0.8,0.3,1.4,0.9,1.8s1.6,0.8,3.2,1.2s2.7,0.7,3.5,1.2s1.3,0.9,1.7,1.5s0.6,1.3,0.6,2.1
		c0,1.3-0.5,2.4-1.6,3.2s-2.5,1.2-4.2,1.2c-1.8,0-3.3-0.4-4.5-1.3s-1.7-2-1.7-3.4h1.8c0.1,1,0.5,1.8,1.3,2.4s1.8,0.9,3.2,0.9
		c1.2,0,2.2-0.3,3-0.8S434.3,445.4,434.3,444.6z"/>
	<path class="st1" d="M445.4,448.9c-1.3,0-2.6-0.3-3.7-1s-1.9-1.6-2.5-2.8s-0.9-2.5-0.9-4v-0.6c0-1.5,0.3-2.9,0.9-4.1
		s1.4-2.2,2.5-2.9s2.2-1,3.4-1c1.9,0,3.4,0.7,4.6,2s1.7,3.1,1.7,5.4v1h-11.3v0.3c0,1.8,0.5,3.3,1.5,4.5s2.3,1.8,3.9,1.8
		c0.9,0,1.8-0.2,2.5-0.5s1.4-0.9,2-1.6l1.1,0.8C449.8,448,447.9,448.9,445.4,448.9z M445.1,434c-1.3,0-2.4,0.5-3.3,1.5
		s-1.5,2.3-1.6,3.9h9.5v-0.2c0-1.5-0.5-2.8-1.3-3.7S446.4,434,445.1,434z"/>
	<path class="st1" d="M453.3,440.5c0-2.5,0.5-4.4,1.6-5.9s2.6-2.2,4.5-2.2c2.1,0,3.8,0.8,4.9,2.4l0.1-2.2h1.6v21.9h-1.8v-8.1
		c-1.2,1.5-2.8,2.3-4.9,2.3c-1.9,0-3.3-0.7-4.5-2.2s-1.7-3.4-1.7-5.9V440.5z M455.1,440.8c0,2.1,0.4,3.7,1.2,4.8s2,1.8,3.4,1.8
		c2.1,0,3.6-0.9,4.6-2.7v-7.8c-0.4-0.9-1-1.7-1.8-2.2s-1.7-0.8-2.7-0.8c-1.5,0-2.6,0.6-3.5,1.8S455.1,438.6,455.1,440.8z"/>
	<path class="st1" d="M480.2,446.6c-1.1,1.5-2.7,2.3-5.1,2.3c-1.7,0-3-0.5-3.9-1.5s-1.3-2.4-1.3-4.4v-10.3h1.7v10.1
		c0,3,1.2,4.5,3.7,4.5c2.5,0,4.1-1,4.8-3.1v-11.5h1.8v15.8h-1.7L480.2,446.6z"/>
	<path class="st1" d="M491.9,448.9c-1.3,0-2.6-0.3-3.7-1s-1.9-1.6-2.5-2.8s-0.9-2.5-0.9-4v-0.6c0-1.5,0.3-2.9,0.9-4.1
		s1.4-2.2,2.5-2.9s2.2-1,3.4-1c1.9,0,3.4,0.7,4.6,2s1.7,3.1,1.7,5.4v1h-11.3v0.3c0,1.8,0.5,3.3,1.5,4.5s2.3,1.8,3.9,1.8
		c0.9,0,1.8-0.2,2.5-0.5s1.4-0.9,2-1.6l1.1,0.8C496.2,448,494.3,448.9,491.9,448.9z M491.6,434c-1.3,0-2.4,0.5-3.3,1.5
		s-1.5,2.3-1.6,3.9h9.5v-0.2c0-1.5-0.5-2.8-1.3-3.7S492.9,434,491.6,434z"/>
	<path class="st1" d="M502.2,432.8l0.1,2.7c0.6-1,1.3-1.7,2.2-2.2s1.9-0.8,2.9-0.8c1.7,0,3,0.5,3.8,1.4s1.2,2.4,1.3,4.3v10.4h-1.7
		v-10.4c0-1.4-0.3-2.5-0.9-3.2s-1.5-1-2.8-1c-1.1,0-2,0.3-2.9,1s-1.5,1.6-1.9,2.7v10.9h-1.7v-15.8H502.2z"/>
	<path class="st1" d="M522.1,447.4c1.2,0,2.2-0.3,3.1-1s1.3-1.6,1.3-2.7h1.7c0,1-0.4,1.8-0.9,2.6s-1.3,1.4-2.2,1.9s-1.9,0.7-3,0.7
		c-2.1,0-3.7-0.7-4.9-2.2s-1.8-3.4-1.8-5.8v-0.5c0-1.6,0.3-2.9,0.8-4.1s1.3-2.1,2.4-2.8s2.2-1,3.6-1c1.7,0,3.2,0.5,4.3,1.6
		s1.7,2.4,1.8,4.1h-1.7c-0.1-1.2-0.5-2.2-1.3-3s-1.8-1.1-3.1-1.1c-1.6,0-2.8,0.6-3.7,1.7s-1.3,2.7-1.3,4.8v0.5c0,2,0.4,3.6,1.3,4.7
		S520.5,447.4,522.1,447.4z"/>
	<path class="st1" d="M537.1,448.9c-1.3,0-2.6-0.3-3.7-1s-1.9-1.6-2.5-2.8s-0.9-2.5-0.9-4v-0.6c0-1.5,0.3-2.9,0.9-4.1
		s1.4-2.2,2.5-2.9s2.2-1,3.4-1c1.9,0,3.4,0.7,4.6,2s1.7,3.1,1.7,5.4v1h-11.3v0.3c0,1.8,0.5,3.3,1.5,4.5s2.3,1.8,3.9,1.8
		c0.9,0,1.8-0.2,2.5-0.5s1.4-0.9,2-1.6l1.1,0.8C541.4,448,539.5,448.9,537.1,448.9z M536.7,434c-1.3,0-2.4,0.5-3.3,1.5
		s-1.5,2.3-1.6,3.9h9.5v-0.2c0-1.5-0.5-2.8-1.3-3.7S538.1,434,536.7,434z"/>
	<path class="st1" d="M555.2,444.6c0-0.9-0.3-1.6-1-2.1s-1.8-0.9-3.2-1.2s-2.5-0.6-3.3-1s-1.4-0.9-1.7-1.4s-0.6-1.2-0.6-2
		c0-1.2,0.5-2.3,1.6-3.1s2.4-1.2,4-1.2c1.8,0,3.2,0.4,4.3,1.3s1.6,2,1.6,3.4h-1.8c0-0.9-0.4-1.7-1.2-2.3s-1.8-0.9-2.9-0.9
		c-1.2,0-2.1,0.3-2.8,0.8s-1,1.2-1,2c0,0.8,0.3,1.4,0.9,1.8s1.6,0.8,3.2,1.2s2.7,0.7,3.5,1.2s1.3,0.9,1.7,1.5s0.6,1.3,0.6,2.1
		c0,1.3-0.5,2.4-1.6,3.2s-2.5,1.2-4.2,1.2c-1.8,0-3.3-0.4-4.5-1.3s-1.7-2-1.7-3.4h1.8c0.1,1,0.5,1.8,1.3,2.4s1.8,0.9,3.2,0.9
		c1.2,0,2.2-0.3,3-0.8S555.2,445.4,555.2,444.6z"/>
	<path class="st1" d="M569.4,428.7v4.1h3.3v1.4h-3.3v10.6c0,0.9,0.2,1.5,0.5,2c0.3,0.4,0.8,0.6,1.6,0.6c0.3,0,0.8,0,1.4-0.1l0.1,1.4
		c-0.5,0.2-1.1,0.2-1.9,0.2c-1.2,0-2.1-0.3-2.6-1s-0.8-1.7-0.8-3.1v-10.6h-2.9v-1.4h2.9v-4.1H569.4z"/>
	<path class="st1" d="M577.3,435.4c0.6-0.9,1.3-1.7,2.2-2.2s1.9-0.8,2.9-0.8c1.7,0,3,0.5,3.8,1.4s1.2,2.4,1.3,4.3v10.4h-1.7v-10.4
		c0-1.4-0.3-2.5-0.9-3.2s-1.5-1-2.8-1c-1.1,0-2,0.3-2.9,1s-1.5,1.6-1.9,2.7v10.9h-1.7v-22.5h1.7V435.4z"/>
	<path class="st1" d="M601.3,448.6c-0.2-0.5-0.3-1.2-0.3-2.2c-0.6,0.8-1.4,1.4-2.4,1.9s-2,0.7-3,0.7c-1.5,0-2.8-0.4-3.7-1.3
		s-1.4-1.9-1.4-3.2c0-1.5,0.6-2.8,1.9-3.7s3.1-1.3,5.4-1.3h3.2v-1.8c0-1.1-0.3-2-1-2.7s-1.7-1-3.1-1c-1.2,0-2.2,0.3-3,0.9
		s-1.2,1.4-1.2,2.3l-1.8,0c0-1.3,0.6-2.4,1.8-3.3s2.6-1.4,4.3-1.4c1.8,0,3.2,0.4,4.2,1.3s1.5,2.1,1.6,3.7v7.5c0,1.5,0.2,2.7,0.5,3.4
		v0.2H601.3z M595.8,447.3c1.2,0,2.2-0.3,3.1-0.8s1.6-1.3,2-2.3v-3.5h-3.1c-1.7,0-3.1,0.3-4.1,1s-1.5,1.5-1.5,2.6
		c0,0.9,0.3,1.6,1,2.2S594.7,447.3,595.8,447.3z"/>
	<path class="st1" d="M609.3,428.7v4.1h3.3v1.4h-3.3v10.6c0,0.9,0.2,1.5,0.5,2c0.3,0.4,0.8,0.6,1.6,0.6c0.3,0,0.8,0,1.4-0.1l0.1,1.4
		c-0.5,0.2-1.1,0.2-1.9,0.2c-1.2,0-2.1-0.3-2.6-1s-0.8-1.7-0.8-3.1v-10.6h-2.9v-1.4h2.9v-4.1H609.3z"/>
	<path class="st1" d="M628.2,448.9c-1.3,0-2.6-0.3-3.7-1s-1.9-1.6-2.5-2.8s-0.9-2.5-0.9-4v-0.6c0-1.5,0.3-2.9,0.9-4.1
		s1.4-2.2,2.5-2.9s2.2-1,3.4-1c1.9,0,3.4,0.7,4.6,2s1.7,3.1,1.7,5.4v1h-11.3v0.3c0,1.8,0.5,3.3,1.5,4.5s2.3,1.8,3.9,1.8
		c0.9,0,1.8-0.2,2.5-0.5s1.4-0.9,2-1.6l1.1,0.8C632.5,448,630.6,448.9,628.2,448.9z M627.8,434c-1.3,0-2.4,0.5-3.3,1.5
		s-1.5,2.3-1.6,3.9h9.5v-0.2c0-1.5-0.5-2.8-1.3-3.7S629.2,434,627.8,434z"/>
	<path class="st1" d="M638,448.6v-14.4h-2.6v-1.4h2.6v-1.9c0-1.6,0.4-2.9,1.2-3.7s2-1.3,3.4-1.3c0.7,0,1.3,0.1,1.9,0.2l-0.1,1.5
		c-0.5-0.1-1-0.2-1.6-0.2c-1,0-1.7,0.3-2.3,0.9c-0.5,0.6-0.8,1.5-0.8,2.6v2h3.8v1.4h-3.8v14.4H638z"/>
	<path class="st1" d="M647.2,448.6v-14.4h-2.6v-1.4h2.6v-1.9c0-1.6,0.4-2.9,1.2-3.7s2-1.3,3.4-1.3c0.7,0,1.3,0.1,1.9,0.2l-0.1,1.5
		c-0.5-0.1-1-0.2-1.6-0.2c-1,0-1.7,0.3-2.3,0.9c-0.5,0.6-0.8,1.5-0.8,2.6v2h3.8v1.4H649v14.4H647.2z"/>
	<path class="st1" d="M660.9,448.9c-1.3,0-2.6-0.3-3.7-1s-1.9-1.6-2.5-2.8s-0.9-2.5-0.9-4v-0.6c0-1.5,0.3-2.9,0.9-4.1
		s1.4-2.2,2.5-2.9s2.2-1,3.4-1c1.9,0,3.4,0.7,4.6,2s1.7,3.1,1.7,5.4v1h-11.3v0.3c0,1.8,0.5,3.3,1.5,4.5s2.3,1.8,3.9,1.8
		c0.9,0,1.8-0.2,2.5-0.5s1.4-0.9,2-1.6l1.1,0.8C665.2,448,663.4,448.9,660.9,448.9z M660.6,434c-1.3,0-2.4,0.5-3.3,1.5
		s-1.5,2.3-1.6,3.9h9.5v-0.2c0-1.5-0.5-2.8-1.3-3.7S661.9,434,660.6,434z"/>
	<path class="st1" d="M675.4,447.4c1.2,0,2.2-0.3,3.1-1s1.3-1.6,1.3-2.7h1.7c0,1-0.4,1.8-0.9,2.6s-1.3,1.4-2.2,1.9s-1.9,0.7-3,0.7
		c-2.1,0-3.7-0.7-4.9-2.2s-1.8-3.4-1.8-5.8v-0.5c0-1.6,0.3-2.9,0.8-4.1s1.3-2.1,2.4-2.8s2.2-1,3.6-1c1.7,0,3.2,0.5,4.3,1.6
		s1.7,2.4,1.8,4.1h-1.7c-0.1-1.2-0.5-2.2-1.3-3s-1.8-1.1-3.1-1.1c-1.6,0-2.8,0.6-3.7,1.7s-1.3,2.7-1.3,4.8v0.5c0,2,0.4,3.6,1.3,4.7
		S673.8,447.4,675.4,447.4z"/>
	<path class="st1" d="M687,428.7v4.1h3.3v1.4H687v10.6c0,0.9,0.2,1.5,0.5,2c0.3,0.4,0.8,0.6,1.6,0.6c0.3,0,0.8,0,1.4-0.1l0.1,1.4
		c-0.5,0.2-1.1,0.2-1.9,0.2c-1.2,0-2.1-0.3-2.6-1s-0.8-1.7-0.8-3.1v-10.6h-2.9v-1.4h2.9v-4.1H687z"/>
	<path class="st1" d="M693,428.2c0-0.3,0.1-0.6,0.3-0.8c0.2-0.2,0.5-0.3,0.9-0.3s0.7,0.1,0.9,0.3c0.2,0.2,0.3,0.5,0.3,0.8
		s-0.1,0.6-0.3,0.8s-0.5,0.3-0.9,0.3s-0.7-0.1-0.9-0.3S693,428.5,693,428.2z M695.1,448.6h-1.8v-15.8h1.8V448.6z"/>
	<path class="st1" d="M704,446.2l4.8-13.4h1.8l-5.9,15.8h-1.4l-5.9-15.8h1.8L704,446.2z"/>
	<path class="st1" d="M718.7,448.9c-1.3,0-2.6-0.3-3.7-1s-1.9-1.6-2.5-2.8s-0.9-2.5-0.9-4v-0.6c0-1.5,0.3-2.9,0.9-4.1
		s1.4-2.2,2.5-2.9s2.2-1,3.4-1c1.9,0,3.4,0.7,4.6,2s1.7,3.1,1.7,5.4v1h-11.3v0.3c0,1.8,0.5,3.3,1.5,4.5s2.3,1.8,3.9,1.8
		c0.9,0,1.8-0.2,2.5-0.5s1.4-0.9,2-1.6l1.1,0.8C723,448,721.2,448.9,718.7,448.9z M718.4,434c-1.3,0-2.4,0.5-3.3,1.5
		s-1.5,2.3-1.6,3.9h9.5v-0.2c0-1.5-0.5-2.8-1.3-3.7S719.7,434,718.4,434z"/>
	<path class="st1" d="M729.3,448.6h-1.8v-22.5h1.8V448.6z"/>
	<path class="st1" d="M738.3,446.1l4.6-13.3h1.9l-6.8,18.5l-0.4,0.8c-0.9,1.9-2.2,2.9-4,2.9c-0.4,0-0.9-0.1-1.3-0.2l0-1.5l0.9,0.1
		c0.9,0,1.6-0.2,2.1-0.6s1-1.2,1.4-2.2l0.8-2.1l-6-15.7h1.9L738.3,446.1z"/>
	<path class="st1" d="M762.8,444.6c0-0.9-0.3-1.6-1-2.1s-1.8-0.9-3.2-1.2s-2.5-0.6-3.3-1s-1.4-0.9-1.7-1.4s-0.6-1.2-0.6-2
		c0-1.2,0.5-2.3,1.6-3.1s2.4-1.2,4-1.2c1.8,0,3.2,0.4,4.3,1.3s1.6,2,1.6,3.4h-1.8c0-0.9-0.4-1.7-1.2-2.3s-1.8-0.9-2.9-0.9
		c-1.2,0-2.1,0.3-2.8,0.8s-1,1.2-1,2c0,0.8,0.3,1.4,0.9,1.8s1.6,0.8,3.2,1.2s2.7,0.7,3.5,1.2s1.3,0.9,1.7,1.5s0.6,1.3,0.6,2.1
		c0,1.3-0.5,2.4-1.6,3.2s-2.5,1.2-4.2,1.2c-1.8,0-3.3-0.4-4.5-1.3s-1.7-2-1.7-3.4h1.8c0.1,1,0.5,1.8,1.3,2.4s1.8,0.9,3.2,0.9
		c1.2,0,2.2-0.3,3-0.8S762.8,445.4,762.8,444.6z"/>
	<path class="st1" d="M773.7,447.4c1.2,0,2.2-0.3,3.1-1s1.3-1.6,1.3-2.7h1.7c0,1-0.4,1.8-0.9,2.6s-1.3,1.4-2.2,1.9s-1.9,0.7-3,0.7
		c-2.1,0-3.7-0.7-4.9-2.2s-1.8-3.4-1.8-5.8v-0.5c0-1.6,0.3-2.9,0.8-4.1s1.3-2.1,2.4-2.8s2.2-1,3.6-1c1.7,0,3.2,0.5,4.3,1.6
		s1.7,2.4,1.8,4.1h-1.7c-0.1-1.2-0.5-2.2-1.3-3s-1.8-1.1-3.1-1.1c-1.6,0-2.8,0.6-3.7,1.7s-1.3,2.7-1.3,4.8v0.5c0,2,0.4,3.6,1.3,4.7
		S772.1,447.4,773.7,447.4z"/>
	<path class="st1" d="M792.5,448.6c-0.2-0.5-0.3-1.2-0.3-2.2c-0.6,0.8-1.4,1.4-2.4,1.9s-2,0.7-3,0.7c-1.5,0-2.8-0.4-3.7-1.3
		s-1.4-1.9-1.4-3.2c0-1.5,0.6-2.8,1.9-3.7s3.1-1.3,5.4-1.3h3.2v-1.8c0-1.1-0.3-2-1-2.7s-1.7-1-3.1-1c-1.2,0-2.2,0.3-3,0.9
		s-1.2,1.4-1.2,2.3l-1.8,0c0-1.3,0.6-2.4,1.8-3.3s2.6-1.4,4.3-1.4c1.8,0,3.2,0.4,4.2,1.3s1.5,2.1,1.6,3.7v7.5c0,1.5,0.2,2.7,0.5,3.4
		v0.2H792.5z M787,447.3c1.2,0,2.2-0.3,3.1-0.8s1.6-1.3,2-2.3v-3.5H789c-1.7,0-3.1,0.3-4.1,1s-1.5,1.5-1.5,2.6c0,0.9,0.3,1.6,1,2.2
		S785.9,447.3,787,447.3z"/>
	<path class="st1" d="M799.1,448.6v-14.4h-2.6v-1.4h2.6v-1.9c0-1.6,0.4-2.9,1.2-3.7c0.8-0.9,2-1.3,3.5-1.3c0.7,0,1.3,0.1,1.9,0.2
		l-0.1,1.5c-0.5-0.1-1-0.2-1.6-0.2c-1,0-1.7,0.3-2.3,0.9c-0.5,0.6-0.8,1.5-0.8,2.6v2h3.8v1.4h-3.8v14.4H799.1z"/>
	<path class="st1" d="M808.3,448.6v-14.4h-2.6v-1.4h2.6v-1.9c0-1.6,0.4-2.9,1.2-3.7s2-1.3,3.4-1.3c0.7,0,1.3,0.1,1.9,0.2l-0.1,1.5
		c-0.5-0.1-1-0.2-1.6-0.2c-1,0-1.7,0.3-2.3,0.9c-0.5,0.6-0.8,1.5-0.8,2.6v2h3.8v1.4H810v14.4H808.3z"/>
	<path class="st1" d="M815.2,440.4c0-1.5,0.3-2.9,0.9-4.1s1.4-2.2,2.5-2.8s2.3-1,3.7-1c2.1,0,3.8,0.7,5.1,2.2s2,3.4,2,5.9v0.4
		c0,1.5-0.3,2.9-0.9,4.1s-1.4,2.2-2.5,2.8s-2.3,1-3.7,1c-2.1,0-3.8-0.7-5.1-2.2s-2-3.4-2-5.9V440.4z M817,440.9
		c0,1.9,0.5,3.4,1.5,4.7s2.3,1.8,3.9,1.8c1.6,0,2.9-0.6,3.8-1.8s1.5-2.8,1.5-4.8v-0.3c0-1.2-0.2-2.3-0.7-3.3s-1.1-1.8-1.9-2.3
		s-1.7-0.8-2.8-0.8c-1.6,0-2.8,0.6-3.8,1.8s-1.5,2.8-1.5,4.8V440.9z"/>
	<path class="st1" d="M834.2,448.6h-1.8v-22.5h1.8V448.6z"/>
	<path class="st1" d="M837.5,440.5c0-2.5,0.5-4.4,1.6-5.9c1.1-1.5,2.6-2.2,4.5-2.2c2.1,0,3.8,0.8,4.9,2.5v-8.9h1.7v22.5h-1.6
		l-0.1-2.1c-1.1,1.6-2.8,2.4-5,2.4c-1.8,0-3.3-0.7-4.4-2.2c-1.1-1.5-1.7-3.5-1.7-6V440.5z M839.3,440.8c0,2,0.4,3.6,1.2,4.8
		s2,1.8,3.4,1.8c2.2,0,3.7-1,4.6-2.9v-7.4c-0.9-2.1-2.4-3.1-4.6-3.1c-1.5,0-2.6,0.6-3.4,1.7S839.3,438.6,839.3,440.8z"/>
	<path class="st1" d="M862.6,448.6h-1.8v-22.5h1.8V448.6z"/>
	<path class="st1" d="M872.8,448.9c-1.3,0-2.6-0.3-3.7-1s-1.9-1.6-2.5-2.8s-0.9-2.5-0.9-4v-0.6c0-1.5,0.3-2.9,0.9-4.1
		c0.6-1.2,1.4-2.2,2.5-2.9s2.2-1,3.4-1c1.9,0,3.5,0.7,4.6,2c1.1,1.3,1.7,3.1,1.7,5.4v1h-11.3v0.3c0,1.8,0.5,3.3,1.5,4.5
		c1,1.2,2.3,1.8,3.9,1.8c0.9,0,1.8-0.2,2.5-0.5c0.7-0.3,1.4-0.9,2-1.6l1.1,0.8C877.1,448,875.2,448.9,872.8,448.9z M872.5,434
		c-1.3,0-2.4,0.5-3.3,1.5s-1.5,2.3-1.6,3.9h9.5v-0.2c0-1.5-0.5-2.8-1.3-3.7S873.8,434,872.5,434z"/>
	<path class="st1" d="M891.4,448.6c-0.2-0.5-0.3-1.2-0.3-2.2c-0.6,0.8-1.4,1.4-2.4,1.9c-1,0.4-2,0.7-3,0.7c-1.5,0-2.8-0.4-3.7-1.3
		c-0.9-0.8-1.4-1.9-1.4-3.2c0-1.5,0.6-2.8,1.9-3.7s3.1-1.3,5.4-1.3h3.2v-1.8c0-1.1-0.3-2-1-2.7s-1.7-1-3.1-1c-1.2,0-2.2,0.3-3,0.9
		s-1.2,1.4-1.2,2.3l-1.8,0c0-1.3,0.6-2.4,1.8-3.3s2.6-1.4,4.3-1.4c1.8,0,3.2,0.4,4.2,1.3c1,0.9,1.5,2.1,1.6,3.7v7.5
		c0,1.5,0.2,2.7,0.5,3.4v0.2H891.4z M885.9,447.3c1.2,0,2.2-0.3,3.1-0.8c0.9-0.6,1.6-1.3,2-2.3v-3.5h-3.1c-1.7,0-3.1,0.3-4.1,1
		s-1.5,1.5-1.5,2.6c0,0.9,0.3,1.6,1,2.2C884,447.1,884.8,447.3,885.9,447.3z"/>
	<path class="st1" d="M904,434.3c-0.4-0.1-0.8-0.1-1.2-0.1c-1.1,0-2,0.3-2.8,0.9s-1.3,1.5-1.6,2.7v10.9h-1.7v-15.8h1.7l0,2.5
		c0.9-1.9,2.4-2.8,4.5-2.8c0.5,0,0.9,0.1,1.2,0.2L904,434.3z"/>
	<path class="st1" d="M907.7,432.8l0.1,2.7c0.6-1,1.3-1.7,2.2-2.2s1.9-0.8,2.9-0.8c1.7,0,3,0.5,3.8,1.4s1.2,2.4,1.3,4.3v10.4h-1.7
		v-10.4c0-1.4-0.3-2.5-0.9-3.2s-1.5-1-2.8-1c-1.1,0-2,0.3-2.9,1c-0.8,0.7-1.5,1.6-1.9,2.7v10.9h-1.7v-15.8H907.7z"/>
	<path class="st1" d="M921.7,428.2c0-0.3,0.1-0.6,0.3-0.8c0.2-0.2,0.5-0.3,0.9-0.3s0.7,0.1,0.9,0.3c0.2,0.2,0.3,0.5,0.3,0.8
		s-0.1,0.6-0.3,0.8c-0.2,0.2-0.5,0.3-0.9,0.3s-0.7-0.1-0.9-0.3S921.7,428.5,921.7,428.2z M923.7,448.6H922v-15.8h1.8V448.6z"/>
	<path class="st1" d="M929.4,432.8l0.1,2.7c0.6-1,1.3-1.7,2.2-2.2s1.9-0.8,2.9-0.8c1.7,0,3,0.5,3.8,1.4s1.2,2.4,1.3,4.3v10.4H938
		v-10.4c0-1.4-0.3-2.5-0.9-3.2s-1.5-1-2.8-1c-1.1,0-2,0.3-2.9,1c-0.8,0.7-1.5,1.6-1.9,2.7v10.9h-1.7v-15.8H929.4z"/>
	<path class="st1" d="M942.8,440.5c0-2.5,0.5-4.4,1.6-5.9c1.1-1.5,2.6-2.2,4.5-2.2c2.2,0,3.8,0.9,4.9,2.6l0.1-2.3h1.6v15.5
		c0,2-0.6,3.7-1.7,4.8s-2.7,1.8-4.6,1.8c-1.1,0-2.2-0.2-3.2-0.7c-1-0.5-1.8-1.1-2.4-2l1-1.1c1.2,1.5,2.7,2.3,4.4,2.3
		c1.5,0,2.6-0.4,3.4-1.3s1.2-2.1,1.3-3.6v-2c-1.1,1.6-2.8,2.3-4.9,2.3c-1.8,0-3.3-0.7-4.4-2.2s-1.7-3.4-1.7-5.9V440.5z M944.6,440.8
		c0,2,0.4,3.6,1.2,4.8s2,1.8,3.4,1.8c2.2,0,3.7-1,4.6-2.9v-7.4c-0.4-1-1-1.8-1.8-2.3s-1.7-0.8-2.8-0.8c-1.5,0-2.6,0.6-3.4,1.7
		S944.6,438.6,944.6,440.8z"/>
	<path class="st1" d="M959.2,447.6c0-0.3,0.1-0.6,0.3-0.9c0.2-0.2,0.5-0.4,0.9-0.4s0.7,0.1,0.9,0.4s0.3,0.5,0.3,0.9
		s-0.1,0.6-0.3,0.8s-0.5,0.3-0.9,0.3s-0.7-0.1-0.9-0.3C959.3,448.2,959.2,447.9,959.2,447.6z"/>
</g>
</svg>
