<?xml version="1.0" encoding="utf-8"?>
<!-- Generator: Adobe Illustrator 22.0.1, SVG Export Plug-In . SVG Version: 6.00 Build 0)  -->
<svg version="1.1" id="Layer_1" xmlns="http://www.w3.org/2000/svg" xmlns:xlink="http://www.w3.org/1999/xlink" x="0px" y="0px"
	 viewBox="0 0 1600 650" style="enable-background:new 0 0 1600 650;" xml:space="preserve">
<style type="text/css">
	.st0{opacity:0.85;fill:#50A8B4;enable-background:new    ;}
	.st1{fill:#FFFFFF;}
</style>
<path class="st0" d="M1600,721.071H0V-0.392h1600V721.071z M217.253,242.331l24.691,43.354h16.7v-69.672h-16.748v43.354
	l-24.644-43.354h-16.796v69.672h16.796L217.253,242.331L217.253,242.331z M290.244,286.642c4.242,0,8.207-0.822,11.891-2.464
	s6.532-3.852,8.542-6.627l-7.369-8.709c-2.871,3.573-6.859,5.359-11.963,5.359c-3.095,0-5.615-0.829-7.561-2.488
	c-1.946-1.658-3.206-3.939-3.78-6.843h32.061v-6.269c0-8.07-2.105-14.363-6.316-18.877s-9.953-6.771-17.227-6.771
	c-5.168,0-9.635,1.109-13.398,3.326c-3.765,2.218-6.627,5.352-8.589,9.403c-1.962,4.052-2.943,8.726-2.943,14.021v1.34
	c0,7.593,2.456,13.757,7.369,18.495C275.872,284.273,282.301,286.642,290.244,286.642z M288.426,245.394
	c2.552,0,4.514,0.71,5.886,2.129c1.371,1.42,2.025,3.421,1.962,6.005v1.244h-16.27C280.896,248.521,283.704,245.394,288.426,245.394
	z M398.711,285.685l12.202-51.775h-15.456l-5.216,30.529l-8.135-30.529h-11.245l-8.23,31.247l-5.12-31.247h-14.995h-0.461h-8.057
	v-12.872h-16.126v12.872h-6.604v11.197h6.604v25.696c0,5.328,1.323,9.3,3.972,11.915c2.647,2.616,6.747,3.924,12.298,3.924
	c3.158,0,6.188-0.463,9.092-1.388v-11.532c-1.085,0.191-2.425,0.287-4.02,0.287c-2.074,0-3.462-0.383-4.163-1.148
	c-0.702-0.766-1.053-2.121-1.053-4.067v-23.687h8.518v-9.241l11.741,49.82h13.638l8.613-30.721l8.565,30.721h13.638V285.685z
	 M418.587,280.014c4.466,4.419,10.384,6.627,17.753,6.627c7.656,0,13.725-2.369,18.208-7.106c4.481-4.737,6.723-11.141,6.723-19.212
	v-0.574c0-8.262-2.233-14.793-6.699-19.595c-4.467-4.801-10.575-7.202-18.327-7.202c-5.072,0-9.491,1.085-13.255,3.254
	c-3.765,2.17-6.651,5.272-8.661,9.307c-2.01,4.036-3.015,8.637-3.015,13.805l0.048,2.728
	C411.712,269.606,414.12,275.596,418.587,280.014z M427.487,257.404c0.446-8.007,3.365-12.011,8.757-12.011
	c5.934,0,8.9,4.642,8.9,13.925v1.627c-0.128,8.837-3.062,13.255-8.805,13.255c-2.936,0-5.152-1.116-6.651-3.35
	c-1.5-2.232-2.249-5.742-2.249-10.527L427.487,257.404z M480.812,240.561l-0.526-6.651h-15.121v51.775h16.126v-32.778
	c1.436-3.189,4.689-4.785,9.762-4.785l5.312,0.383l0.287-14.978c-1.276-0.383-2.775-0.574-4.498-0.574
	C487.303,232.952,483.522,235.488,480.812,240.561z M549.4,285.685l-19.332-30.481l18.136-21.294h-19.332l-12.154,15.121
	l-1.627,2.153v-39.047h-16.126v73.548h16.126v-14.738l4.546-4.546l11.293,19.284H549.4z M580.617,249.413h-28.759v12.441h28.759
	V249.413z M638.583,272.765h-31.199v-16.652h26.414v-12.441h-26.414v-14.69h31.295v-12.968h-48.091v69.672h47.995V272.765z
	 M657.167,249.126c1.531-2.488,3.876-3.732,7.034-3.732c2.775,0,4.689,0.615,5.742,1.842c1.053,1.229,1.579,3.151,1.579,5.766
	v32.683h16.174v-33.353c-0.096-6.476-1.476-11.324-4.139-14.547c-2.664-3.222-6.692-4.833-12.083-4.833
	c-6.285,0-11.214,2.345-14.786,7.034l-0.526-6.077h-15.121v51.775h16.126V249.126z M715.229,254.055
	c-7.912,0-13.941,1.436-18.088,4.307c-4.147,2.871-6.221,7.114-6.221,12.729c0,4.467,1.706,8.175,5.12,11.125
	c3.413,2.951,7.561,4.426,12.441,4.426c5.327,0,9.475-1.866,12.441-5.599c0.446,2.042,0.957,3.589,1.531,4.642h16.126v-0.813
	c-1.404-2.52-2.138-6.156-2.201-10.91V251.04c-0.096-5.614-2.058-10.032-5.886-13.255c-3.828-3.222-9.044-4.833-15.647-4.833
	s-12.035,1.562-16.293,4.684c-4.259,3.123-6.388,7.186-6.388,12.188h16.126c0-3.783,1.914-5.674,5.742-5.674
	c4.115,0,6.173,2.388,6.173,7.164v2.741L715.229,254.055L715.229,254.055z M720.206,270.946c-0.574,1.085-1.524,2.058-2.847,2.919
	c-1.324,0.861-2.991,1.292-5,1.292c-1.531,0-2.792-0.455-3.78-1.364c-0.989-0.909-1.483-2.097-1.483-3.565
	c0-5.04,2.807-7.561,8.422-7.561h4.689v8.279H720.206z M757.212,280.373c3.222,4.18,7.465,6.269,12.729,6.269
	c6.38,0,11.324-2.28,14.834-6.843c3.509-4.562,5.264-11.085,5.264-19.571v-0.813c0-8.39-1.755-14.897-5.264-19.523
	c-3.51-4.625-8.486-6.938-14.93-6.938c-4.754,0-8.63,1.707-11.628,5.12v-25.888h-16.126v73.5h14.451L757.212,280.373z
	 M758.217,249.55c1.403-2.771,3.924-4.156,7.561-4.156c2.743,0,4.777,1.06,6.101,3.177c1.323,2.118,1.986,5.662,1.986,10.629
	c0,4.49-0.256,7.643-0.766,9.458c-1.021,3.695-3.43,5.542-7.226,5.542c-3.732,0-6.285-1.369-7.656-4.108V249.55z M810.823,212.185
	H794.65v73.5h16.173V212.185z M862.904,277.55l-7.369-8.709c-2.871,3.573-6.859,5.359-11.963,5.359
	c-3.096,0-5.615-0.829-7.561-2.488c-1.946-1.658-3.206-3.939-3.78-6.843h32.06V258.6c0-8.07-2.105-14.363-6.316-18.877
	s-9.953-6.771-17.227-6.771c-5.167,0-9.634,1.109-13.397,3.326c-3.765,2.218-6.628,5.352-8.59,9.403
	c-1.962,4.052-2.942,8.726-2.942,14.021v1.34c0,7.593,2.456,13.757,7.369,18.495c4.912,4.737,11.341,7.106,19.283,7.106
	c4.242,0,8.207-0.822,11.891-2.464C858.047,282.535,860.895,280.325,862.904,277.55z M840.652,245.394
	c2.553,0,4.514,0.71,5.887,2.129c1.371,1.42,2.025,3.421,1.961,6.005v1.244h-16.269
	C833.124,248.521,835.932,245.394,840.652,245.394z M885.459,286.642c5.104,0,9.314-2.169,12.633-6.508l0.813,5.551h14.499v-73.5
	H897.23v26.223c-3.158-3.637-7.051-5.455-11.676-5.455c-6.349,0-11.293,2.361-14.834,7.082c-3.541,4.722-5.312,11.182-5.312,19.38
	c0,8.709,1.802,15.425,5.407,20.146C874.421,284.281,879.302,286.642,885.459,286.642z M881.583,257.452
	c0.414-8.039,3.11-12.059,8.087-12.059c3.572,0,6.093,1.531,7.561,4.594v19.715c-1.531,2.999-4.084,4.498-7.656,4.498
	c-5.359,0-8.039-4.594-8.039-13.781L881.583,257.452z M239.504,304.2c-4.913-2.791-10.448-4.187-16.604-4.187h-22.442v69.672h22.921
	c6.029-0.031,11.492-1.476,16.389-4.331c4.896-2.854,8.692-6.811,11.389-11.867c2.695-5.056,4.043-10.773,4.043-17.154v-3.206
	c-0.032-6.316-1.428-12.018-4.187-17.107C248.252,310.931,244.416,306.992,239.504,304.2z M238.068,336.332
	c0,6.764-1.292,11.859-3.876,15.288c-2.584,3.43-6.285,5.145-11.102,5.145h-5.838V312.98h5.646c4.944,0,8.709,1.707,11.293,5.12
	c2.584,3.414,3.876,8.486,3.876,15.217v3.015H238.068z M283.066,316.952c-5.168,0-9.635,1.109-13.398,3.326
	c-3.765,2.218-6.627,5.352-8.589,9.403c-1.962,4.052-2.943,8.726-2.943,14.021v1.34c0,7.593,2.456,13.757,7.369,18.494
	c4.912,4.737,11.341,7.106,19.284,7.106c4.242,0,8.207-0.822,11.891-2.465s6.532-3.852,8.542-6.627l-7.369-8.709
	c-2.871,3.573-6.859,5.359-11.963,5.359c-3.095,0-5.615-0.829-7.561-2.488c-1.946-1.658-3.206-3.939-3.78-6.843h32.061V342.6
	c0-8.07-2.105-14.363-6.316-18.877C296.082,319.209,290.34,316.952,283.066,316.952z M290.818,338.772h-16.27
	c0.893-6.252,3.7-9.379,8.422-9.379c2.552,0,4.514,0.71,5.886,2.129c1.371,1.42,2.025,3.422,1.962,6.006V338.772z M329.787,350.496
	l-8.039-32.587h-17.035l16.892,51.775h16.461l16.892-51.775H337.97L329.787,350.496z M371.723,298.83
	c-1.659-1.476-3.812-2.215-6.46-2.215c-2.648,0-4.802,0.739-6.46,2.215c-1.659,1.477-2.488,3.37-2.488,5.681
	s0.829,4.205,2.488,5.681c1.658,1.477,3.812,2.215,6.46,2.215c2.647,0,4.801-0.738,6.46-2.215c1.658-1.476,2.488-3.37,2.488-5.681
	C374.211,302.2,373.381,300.307,371.723,298.83z M357.271,369.685h16.174V317.91h-16.174V369.685z M401.791,329.394
	c2.201,0,3.955,0.718,5.264,2.153c1.308,1.436,1.962,3.493,1.962,6.173h15.121c0-6.38-1.979-11.437-5.934-15.169
	c-3.956-3.732-9.3-5.599-16.03-5.599c-4.977,0-9.283,1.077-12.92,3.23s-6.42,5.232-8.35,9.235
	c-1.931,4.004-2.895,8.622-2.895,13.854v0.67c0,8.358,2.169,14.898,6.508,19.619c4.338,4.722,10.271,7.082,17.801,7.082
	c6.412,0,11.652-1.818,15.719-5.455s6.101-8.294,6.101-13.973h-15.121c0.031,2.201-0.574,3.916-1.818,5.144
	c-1.244,1.229-2.999,1.843-5.264,1.843c-2.712,0-4.689-1.005-5.934-3.015s-1.866-5.614-1.866-10.814
	c0-2.967,0.111-5.295,0.335-6.986C395.171,332.058,397.611,329.394,401.791,329.394z M450.952,316.952
	c-5.168,0-9.635,1.109-13.398,3.326c-3.765,2.218-6.627,5.352-8.589,9.403c-1.962,4.052-2.943,8.726-2.943,14.021v1.34
	c0,7.593,2.456,13.757,7.369,18.494c4.912,4.737,11.341,7.106,19.284,7.106c4.242,0,8.207-0.822,11.891-2.465
	s6.532-3.852,8.542-6.627l-7.369-8.709c-2.871,3.573-6.859,5.359-11.963,5.359c-3.095,0-5.615-0.829-7.561-2.488
	c-1.946-1.658-3.206-3.939-3.78-6.843h32.061V342.6c0-8.07-2.105-14.363-6.316-18.877
	C463.968,319.209,458.226,316.952,450.952,316.952z M458.704,338.772h-16.27c0.893-6.252,3.7-9.379,8.422-9.379
	c2.552,0,4.514,0.71,5.886,2.129c1.371,1.42,2.025,3.422,1.962,6.006V338.772z M558.145,348.486l-15.552-48.474h-22.06v69.672
	h16.796v-16.27l-1.627-33.353l16.892,49.622h11.102l16.844-49.574l-1.627,33.305v16.27h16.844v-69.672H573.65L558.145,348.486z
	 M645.444,335.04c-0.096-5.614-2.058-10.032-5.886-13.255c-3.828-3.222-9.044-4.833-15.647-4.833s-12.035,1.562-16.293,4.684
	c-4.259,3.123-6.388,7.185-6.388,12.187h16.126c0-3.782,1.914-5.674,5.742-5.674c4.115,0,6.173,2.388,6.173,7.164v2.741h-4.977
	c-7.912,0-13.941,1.436-18.088,4.307c-4.147,2.871-6.221,7.114-6.221,12.729c0,4.467,1.706,8.175,5.12,11.125
	c3.413,2.951,7.561,4.427,12.441,4.427c5.327,0,9.475-1.866,12.441-5.599c0.446,2.042,0.957,3.589,1.531,4.642h16.126v-0.813
	c-1.404-2.52-2.138-6.156-2.201-10.91V335.04H645.444z M629.27,354.946c-0.574,1.085-1.524,2.058-2.847,2.919
	c-1.324,0.861-2.991,1.292-5,1.292c-1.531,0-2.792-0.455-3.78-1.364c-0.989-0.909-1.483-2.097-1.483-3.564
	c0-5.04,2.807-7.561,8.422-7.561h4.689v8.278H629.27z M681.159,316.952c-6.285,0-11.214,2.345-14.786,7.034l-0.526-6.077h-15.121
	v51.775h16.126v-36.559c1.531-2.488,3.876-3.732,7.034-3.732c2.775,0,4.689,0.614,5.742,1.842c1.053,1.229,1.579,3.151,1.579,5.767
	v32.683h16.174v-33.353c-0.096-6.476-1.476-11.324-4.139-14.547C690.577,318.563,686.549,316.952,681.159,316.952z M746.063,335.04
	c-0.096-5.614-2.058-10.032-5.886-13.255c-3.828-3.222-9.044-4.833-15.647-4.833s-12.035,1.562-16.293,4.684
	c-4.259,3.123-6.388,7.185-6.388,12.187h16.126c0-3.782,1.914-5.674,5.742-5.674c4.115,0,6.173,2.388,6.173,7.164v2.741h-4.977
	c-7.912,0-13.941,1.436-18.088,4.307c-4.147,2.871-6.221,7.114-6.221,12.729c0,4.467,1.706,8.175,5.12,11.125
	c3.413,2.951,7.561,4.427,12.441,4.427c5.327,0,9.475-1.866,12.441-5.599c0.446,2.042,0.957,3.589,1.531,4.642h16.126v-0.813
	c-1.404-2.52-2.138-6.156-2.201-10.91V335.04H746.063z M729.889,354.946c-0.574,1.085-1.524,2.058-2.847,2.919
	c-1.324,0.861-2.991,1.292-5,1.292c-1.531,0-2.792-0.455-3.78-1.364c-0.989-0.909-1.483-2.097-1.483-3.564
	c0-5.04,2.807-7.561,8.422-7.561h4.689v8.278H729.889z M783.644,322.407c-3.031-3.637-7.242-5.455-12.633-5.455
	c-4.275,0-8.023,1.093-11.245,3.278c-3.223,2.186-5.694,5.288-7.417,9.307s-2.584,8.646-2.584,13.877v0.574
	c0,8.104,1.945,14.57,5.838,19.403c3.892,4.833,8.996,7.25,15.312,7.25c4.721,0,8.629-1.706,11.724-5.12v1.627
	c0,7.337-3.573,11.006-10.719,11.006c-4.913,0-8.869-1.771-11.867-5.312l-6.747,9.475c1.882,2.297,4.601,4.163,8.159,5.599
	c3.557,1.436,7.233,2.153,11.03,2.153c5.295,0,9.953-0.902,13.973-2.704c4.02-1.803,7.089-4.387,9.211-7.752
	c2.121-3.366,3.182-7.329,3.182-11.891v-49.813h-14.643L783.644,322.407z M782.639,354.707c-1.596,2.329-4.132,3.493-7.608,3.493
	c-2.871,0-5.104-1.236-6.699-3.709c-1.596-2.472-2.393-5.829-2.393-10.072c0-4.881,0.813-8.605,2.44-11.174
	c1.627-2.567,3.876-3.852,6.747-3.852c3.445,0,5.949,1.181,7.513,3.541L782.639,354.707L782.639,354.707z M828.02,316.952
	c-5.168,0-9.635,1.109-13.398,3.326c-3.765,2.218-6.628,5.352-8.59,9.403c-1.962,4.052-2.942,8.726-2.942,14.021v1.34
	c0,7.593,2.456,13.757,7.369,18.494c4.912,4.737,11.341,7.106,19.284,7.106c4.242,0,8.206-0.822,11.891-2.465
	c3.686-1.643,6.531-3.852,8.541-6.627l-7.369-8.709c-2.871,3.573-6.858,5.359-11.962,5.359c-3.095,0-5.615-0.829-7.561-2.488
	c-1.946-1.658-3.206-3.939-3.78-6.843h32.061V342.6c0-8.07-2.105-14.363-6.316-18.877
	C841.035,319.209,835.293,316.952,828.02,316.952z M835.771,338.772h-16.27c0.893-6.252,3.7-9.379,8.422-9.379
	c2.552,0,4.514,0.71,5.886,2.129c1.371,1.42,2.025,3.422,1.962,6.006L835.771,338.772L835.771,338.772z M913.738,316.952
	c-6.636,0-11.708,2.601-15.217,7.8c-2.297-5.199-6.716-7.8-13.255-7.8c-6.189,0-11.118,2.345-14.786,7.034l-0.526-6.077h-15.121
	v51.775h16.126v-36.032c1.627-2.839,3.987-4.259,7.082-4.259c2.424,0,4.067,0.606,4.929,1.818c0.861,1.213,1.292,3.175,1.292,5.886
	v32.587h16.174v-35.362l-0.048-0.67c1.562-2.839,3.939-4.259,7.13-4.259c2.36,0,3.987,0.606,4.881,1.818
	c0.893,1.213,1.34,3.143,1.34,5.79v32.683h16.174v-33.688C929.625,323.301,924.233,316.952,913.738,316.952z M959.119,316.952
	c-5.168,0-9.635,1.109-13.398,3.326c-3.765,2.218-6.627,5.352-8.59,9.403c-1.961,4.052-2.942,8.726-2.942,14.021v1.34
	c0,7.593,2.456,13.757,7.369,18.494c4.912,4.737,11.341,7.106,19.284,7.106c4.242,0,8.207-0.822,11.891-2.465
	c3.686-1.643,6.532-3.852,8.542-6.627l-7.369-8.709c-2.871,3.573-6.859,5.359-11.963,5.359c-3.095,0-5.615-0.829-7.561-2.488
	c-1.946-1.658-3.206-3.939-3.78-6.843h32.061V342.6c0-8.07-2.105-14.363-6.316-18.877
	C972.135,319.209,966.393,316.952,959.119,316.952z M966.871,338.772h-16.27c0.893-6.252,3.7-9.379,8.422-9.379
	c2.552,0,4.514,0.71,5.886,2.129c1.371,1.42,2.025,3.422,1.962,6.006L966.871,338.772L966.871,338.772z M1015.938,316.952
	c-6.285,0-11.214,2.345-14.786,7.034l-0.526-6.077h-15.121v51.775h16.126v-36.559c1.531-2.488,3.876-3.732,7.034-3.732
	c2.775,0,4.689,0.614,5.742,1.842c1.053,1.229,1.579,3.151,1.579,5.767v32.683h16.174v-33.353
	c-0.096-6.476-1.476-11.324-4.14-14.547C1025.356,318.563,1021.328,316.952,1015.938,316.952z M1061.749,358.009
	c-2.074,0-3.462-0.383-4.163-1.148c-0.702-0.766-1.053-2.121-1.053-4.067v-23.687h8.518V317.91h-8.518v-12.872h-16.126v12.872
	h-6.604v11.197h6.604v25.696c0,5.328,1.323,9.3,3.972,11.915c2.647,2.616,6.747,3.924,12.298,3.924c3.158,0,6.188-0.463,9.092-1.388
	v-11.532C1064.684,357.913,1063.344,358.009,1061.749,358.009z"/>
<g>
	<path class="st1" d="M209.786,426.28v14.561c-0.01,1.436-0.327,2.686-0.952,3.75s-1.506,1.883-2.644,2.454
		s-2.444,0.856-3.918,0.856c-2.246,0-4.045-0.612-5.398-1.838s-2.053-2.923-2.102-5.091V426.28h1.787v14.429
		c0,1.797,0.513,3.191,1.538,4.183s2.417,1.486,4.175,1.486s3.147-0.498,4.167-1.494s1.531-2.383,1.531-4.16V426.28H209.786z"/>
	<path class="st1" d="M215.32,431.759l0.059,2.71c0.596-0.977,1.338-1.721,2.227-2.233s1.87-0.77,2.944-0.77
		c1.699,0,2.964,0.479,3.794,1.436s1.25,2.393,1.26,4.307v10.4h-1.743v-10.415c-0.01-1.416-0.31-2.471-0.901-3.164
		s-1.536-1.04-2.834-1.04c-1.084,0-2.043,0.34-2.878,1.019s-1.453,1.594-1.853,2.746v10.854h-1.743v-15.85H215.32z"/>
	<path class="st1" d="M228.677,439.537c0-2.461,0.549-4.421,1.648-5.881s2.59-2.19,4.475-2.19c2.139,0,3.77,0.845,4.893,2.534
		v-8.892h1.743v22.5h-1.641l-0.073-2.109c-1.123,1.602-2.773,2.402-4.951,2.402c-1.826,0-3.298-0.734-4.417-2.204
		s-1.677-3.455-1.677-5.955V439.537z M230.449,439.845c0,2.021,0.405,3.616,1.216,4.783s1.953,1.75,3.428,1.75
		c2.158,0,3.691-0.952,4.6-2.856v-7.441c-0.908-2.061-2.432-3.091-4.57-3.091c-1.475,0-2.622,0.579-3.442,1.736
		S230.449,437.589,230.449,439.845z"/>
	<path class="st1" d="M251.438,447.901c-1.348,0-2.566-0.332-3.655-0.996s-1.936-1.589-2.542-2.775s-0.908-2.518-0.908-3.992v-0.63
		c0-1.523,0.295-2.896,0.886-4.116s1.414-2.18,2.468-2.878s2.197-1.048,3.428-1.048c1.924,0,3.45,0.657,4.578,1.971
		c1.128,1.314,1.692,3.107,1.692,5.383v0.981h-11.309v0.337c0,1.797,0.515,3.294,1.545,4.49s2.327,1.794,3.889,1.794
		c0.938,0,1.765-0.171,2.483-0.513s1.37-0.889,1.956-1.641l1.099,0.835C255.759,446.969,253.889,447.901,251.438,447.901z
		 M251.115,432.96c-1.318,0-2.429,0.483-3.333,1.45s-1.453,2.266-1.648,3.896h9.507v-0.19c-0.049-1.523-0.483-2.764-1.304-3.721
		S252.443,432.96,251.115,432.96z"/>
	<path class="st1" d="M267.372,433.253c-0.371-0.068-0.767-0.103-1.187-0.103c-1.094,0-2.019,0.306-2.776,0.916
		s-1.296,1.496-1.619,2.658v10.884h-1.743v-15.85h1.714l0.029,2.52c0.928-1.875,2.417-2.812,4.468-2.812
		c0.488,0,0.874,0.063,1.157,0.19L267.372,433.253z"/>
	<path class="st1" d="M278.883,443.58c0-0.869-0.349-1.567-1.047-2.095s-1.75-0.939-3.157-1.237s-2.498-0.64-3.274-1.025
		s-1.353-0.857-1.729-1.414s-0.564-1.23-0.564-2.021c0-1.25,0.522-2.282,1.567-3.098s2.383-1.224,4.014-1.224
		c1.768,0,3.186,0.438,4.255,1.312s1.604,2.014,1.604,3.42h-1.758c0-0.928-0.388-1.699-1.165-2.314s-1.755-0.923-2.937-0.923
		c-1.152,0-2.078,0.257-2.776,0.77s-1.047,1.179-1.047,1.999c0,0.791,0.291,1.404,0.872,1.839s1.641,0.832,3.179,1.193
		s2.69,0.747,3.457,1.157s1.335,0.903,1.707,1.479s0.557,1.274,0.557,2.095c0,1.338-0.54,2.407-1.619,3.208
		s-2.488,1.201-4.226,1.201c-1.846,0-3.342-0.446-4.49-1.34s-1.721-2.024-1.721-3.392h1.758c0.068,1.025,0.5,1.824,1.296,2.396
		s1.848,0.856,3.157,0.856c1.221,0,2.207-0.269,2.959-0.806S278.883,444.4,278.883,443.58z"/>
	<path class="st1" d="M286.556,427.701v4.058h3.281v1.436h-3.281v10.573c0,0.88,0.159,1.535,0.476,1.966
		c0.317,0.43,0.847,0.645,1.589,0.645c0.293,0,0.767-0.049,1.421-0.146l0.073,1.424c-0.459,0.164-1.084,0.246-1.875,0.246
		c-1.201,0-2.075-0.349-2.622-1.047s-0.82-1.727-0.82-3.084v-10.576h-2.915v-1.436h2.915v-4.058h1.758V427.701z"/>
	<path class="st1" d="M302.725,447.608c-0.176-0.498-0.288-1.235-0.337-2.212c-0.615,0.801-1.399,1.419-2.351,1.854
		s-1.96,0.651-3.025,0.651c-1.523,0-2.756-0.425-3.699-1.274s-1.414-1.924-1.414-3.223c0-1.543,0.642-2.764,1.926-3.662
		s3.074-1.348,5.369-1.348h3.179v-1.802c0-1.133-0.349-2.023-1.047-2.673s-1.716-0.975-3.054-0.975
		c-1.221,0-2.231,0.312-3.032,0.938s-1.201,1.377-1.201,2.256l-1.758-0.015c0-1.26,0.586-2.351,1.758-3.273s2.612-1.385,4.321-1.385
		c1.768,0,3.162,0.442,4.182,1.326s1.545,2.116,1.575,3.698v7.5c0,1.533,0.161,2.681,0.483,3.442v0.176h-1.875V447.608z
		 M297.217,446.349c1.172,0,2.219-0.283,3.142-0.85s1.594-1.323,2.014-2.271v-3.486h-3.135c-1.748,0.02-3.115,0.34-4.102,0.96
		s-1.479,1.472-1.479,2.556c0,0.889,0.33,1.626,0.989,2.212S296.162,446.349,297.217,446.349z"/>
	<path class="st1" d="M309.709,431.759l0.059,2.71c0.596-0.977,1.338-1.721,2.227-2.233s1.87-0.77,2.944-0.77
		c1.699,0,2.964,0.479,3.794,1.436s1.25,2.393,1.26,4.307v10.4h-1.743v-10.415c-0.01-1.416-0.31-2.471-0.901-3.164
		s-1.536-1.04-2.834-1.04c-1.084,0-2.043,0.34-2.878,1.019s-1.453,1.594-1.853,2.746v10.854h-1.743v-15.85H309.709z"/>
	<path class="st1" d="M323.065,439.537c0-2.461,0.549-4.421,1.648-5.881s2.59-2.19,4.475-2.19c2.139,0,3.77,0.845,4.893,2.534
		v-8.892h1.743v22.5h-1.641l-0.073-2.109c-1.123,1.602-2.773,2.402-4.951,2.402c-1.826,0-3.298-0.734-4.417-2.204
		s-1.677-3.455-1.677-5.955L323.065,439.537L323.065,439.537z M324.838,439.845c0,2.021,0.405,3.616,1.216,4.783
		s1.953,1.75,3.428,1.75c2.158,0,3.691-0.952,4.6-2.856v-7.441c-0.908-2.061-2.432-3.091-4.57-3.091
		c-1.475,0-2.622,0.579-3.442,1.736S324.838,437.589,324.838,439.845z"/>
	<path class="st1" d="M339.586,427.182c0-0.33,0.107-0.609,0.322-0.837c0.215-0.229,0.508-0.343,0.879-0.343
		s0.667,0.114,0.886,0.343c0.22,0.228,0.33,0.507,0.33,0.837s-0.11,0.606-0.33,0.829c-0.22,0.224-0.515,0.335-0.886,0.335
		s-0.664-0.111-0.879-0.335C339.693,427.788,339.586,427.512,339.586,427.182z M341.651,447.608h-1.758v-15.85h1.758V447.608z"/>
	<path class="st1" d="M347.332,431.759l0.059,2.71c0.596-0.977,1.338-1.721,2.227-2.233s1.87-0.77,2.944-0.77
		c1.699,0,2.964,0.479,3.794,1.436s1.25,2.393,1.26,4.307v10.4h-1.743v-10.415c-0.01-1.416-0.31-2.471-0.901-3.164
		s-1.536-1.04-2.834-1.04c-1.084,0-2.043,0.34-2.878,1.019s-1.453,1.594-1.853,2.746v10.854h-1.743v-15.85H347.332z"/>
	<path class="st1" d="M360.688,439.537c0-2.48,0.549-4.445,1.648-5.896s2.59-2.176,4.475-2.176c2.158,0,3.799,0.859,4.922,2.578
		l0.088-2.285h1.641v15.527c0,2.041-0.571,3.657-1.714,4.849s-2.69,1.787-4.644,1.787c-1.104,0-2.156-0.246-3.157-0.739
		s-1.79-1.15-2.366-1.971l0.981-1.055c1.24,1.523,2.715,2.285,4.424,2.285c1.465,0,2.607-0.432,3.428-1.296s1.245-2.063,1.274-3.597
		v-1.992c-1.123,1.562-2.759,2.344-4.907,2.344c-1.836,0-3.311-0.732-4.424-2.197s-1.67-3.442-1.67-5.933v-0.233H360.688z
		 M362.461,439.845c0,2.021,0.405,3.616,1.216,4.783s1.953,1.75,3.428,1.75c2.158,0,3.687-0.967,4.585-2.9v-7.368
		c-0.41-1.016-1.001-1.789-1.772-2.321s-1.699-0.799-2.783-0.799c-1.475,0-2.622,0.579-3.442,1.736S362.461,437.589,362.461,439.845
		z"/>
	<path class="st1" d="M386.552,427.701v4.058h3.281v1.436h-3.281v10.573c0,0.88,0.159,1.535,0.476,1.966
		c0.317,0.43,0.847,0.645,1.589,0.645c0.293,0,0.767-0.049,1.421-0.146l0.073,1.424c-0.459,0.164-1.084,0.246-1.875,0.246
		c-1.201,0-2.075-0.349-2.622-1.047s-0.82-1.727-0.82-3.084v-10.576h-2.915v-1.436h2.915v-4.058h1.758V427.701z"/>
	<path class="st1" d="M394.459,434.439c0.576-0.947,1.313-1.68,2.212-2.197s1.88-0.776,2.944-0.776c1.699,0,2.964,0.479,3.794,1.436
		s1.25,2.393,1.26,4.307v10.4h-1.743v-10.415c-0.01-1.416-0.31-2.471-0.901-3.164s-1.536-1.04-2.834-1.04
		c-1.084,0-2.043,0.34-2.878,1.019s-1.453,1.594-1.853,2.746v10.854h-1.743v-22.5h1.743v9.33H394.459z"/>
	<path class="st1" d="M414.568,447.901c-1.348,0-2.566-0.332-3.655-0.996s-1.936-1.589-2.542-2.775s-0.908-2.518-0.908-3.992v-0.63
		c0-1.523,0.295-2.896,0.886-4.116s1.414-2.18,2.468-2.878s2.197-1.048,3.428-1.048c1.924,0,3.45,0.657,4.578,1.971
		s1.692,3.107,1.692,5.383v0.981h-11.309v0.337c0,1.797,0.515,3.294,1.545,4.49s2.327,1.794,3.889,1.794
		c0.938,0,1.765-0.171,2.483-0.513s1.37-0.889,1.956-1.641l1.099,0.835C418.89,446.969,417.02,447.901,414.568,447.901z
		 M414.246,432.96c-1.318,0-2.429,0.483-3.333,1.45s-1.453,2.266-1.648,3.896h9.507v-0.19c-0.049-1.523-0.483-2.764-1.304-3.721
		S415.574,432.96,414.246,432.96z"/>
	<path class="st1" d="M429.621,427.182c0-0.33,0.107-0.609,0.322-0.837c0.215-0.229,0.508-0.343,0.879-0.343
		s0.667,0.114,0.886,0.343c0.22,0.228,0.33,0.507,0.33,0.837s-0.11,0.606-0.33,0.829c-0.22,0.224-0.515,0.335-0.886,0.335
		s-0.664-0.111-0.879-0.335C429.729,427.788,429.621,427.512,429.621,427.182z M431.687,447.608h-1.758v-15.85h1.758V447.608z"/>
	<path class="st1" d="M437.294,431.759l0.059,2.578c0.586-0.957,1.318-1.675,2.197-2.153s1.855-0.718,2.93-0.718
		c2.5,0,4.087,1.025,4.761,3.076c0.566-0.986,1.323-1.745,2.271-2.277s1.992-0.799,3.135-0.799c3.398,0,5.132,1.855,5.2,5.566
		v10.576h-1.758v-10.444c-0.01-1.416-0.315-2.466-0.916-3.149s-1.58-1.025-2.937-1.025c-1.26,0.02-2.324,0.428-3.193,1.224
		s-1.353,1.765-1.45,2.907v10.488h-1.758v-10.576c-0.01-1.357-0.33-2.37-0.959-3.039s-1.599-1.004-2.908-1.004
		c-1.104,0-2.051,0.315-2.842,0.945s-1.377,1.564-1.758,2.805v10.869h-1.758v-15.85H437.294z"/>
	<path class="st1" d="M474.278,439.845c0,2.471-0.547,4.432-1.641,5.882s-2.559,2.175-4.395,2.175c-2.168,0-3.828-0.762-4.98-2.285
		v8.086h-1.743V431.76h1.626l0.088,2.241c1.143-1.689,2.798-2.534,4.966-2.534c1.895,0,3.381,0.718,4.46,2.153
		s1.619,3.428,1.619,5.977V439.845z M472.521,439.537c0-2.021-0.415-3.618-1.245-4.79s-1.987-1.758-3.472-1.758
		c-1.074,0-1.997,0.259-2.769,0.776s-1.362,1.27-1.772,2.256v7.603c0.42,0.908,1.021,1.602,1.802,2.08s1.704,0.718,2.769,0.718
		c1.475,0,2.625-0.588,3.45-1.765S472.521,441.773,472.521,439.537z"/>
	<path class="st1" d="M487.415,447.608c-0.176-0.498-0.288-1.235-0.337-2.212c-0.615,0.801-1.399,1.419-2.351,1.854
		s-1.96,0.651-3.025,0.651c-1.523,0-2.756-0.425-3.699-1.274s-1.414-1.924-1.414-3.223c0-1.543,0.642-2.764,1.926-3.662
		s3.074-1.348,5.369-1.348h3.179v-1.802c0-1.133-0.349-2.023-1.047-2.673s-1.716-0.975-3.054-0.975
		c-1.221,0-2.231,0.312-3.032,0.938s-1.201,1.377-1.201,2.256l-1.758-0.015c0-1.26,0.586-2.351,1.758-3.273s2.612-1.385,4.321-1.385
		c1.768,0,3.162,0.442,4.182,1.326s1.545,2.116,1.575,3.698v7.5c0,1.533,0.161,2.681,0.483,3.442v0.176h-1.875V447.608z
		 M481.907,446.349c1.172,0,2.219-0.283,3.142-0.85s1.594-1.323,2.014-2.271v-3.486h-3.135c-1.748,0.02-3.115,0.34-4.102,0.96
		s-1.479,1.472-1.479,2.556c0,0.889,0.33,1.626,0.989,2.212S480.853,446.349,481.907,446.349z"/>
	<path class="st1" d="M498.589,446.422c1.221,0,2.244-0.344,3.069-1.032s1.272-1.58,1.34-2.674h1.685
		c-0.049,0.967-0.352,1.849-0.908,2.645s-1.296,1.418-2.219,1.867s-1.912,0.674-2.966,0.674c-2.08,0-3.728-0.723-4.944-2.168
		s-1.824-3.389-1.824-5.83v-0.527c0-1.562,0.273-2.944,0.82-4.146s1.331-2.129,2.351-2.783s2.214-0.981,3.582-0.981
		c1.738,0,3.171,0.518,4.299,1.553s1.731,2.397,1.809,4.087h-1.685c-0.078-1.24-0.525-2.241-1.34-3.003s-1.843-1.143-3.083-1.143
		c-1.582,0-2.81,0.571-3.684,1.714s-1.311,2.744-1.311,4.805v0.513c0,2.021,0.437,3.599,1.311,4.731
		S496.997,446.422,498.589,446.422z"/>
	<path class="st1" d="M510.158,427.701v4.058h3.281v1.436h-3.281v10.573c0,0.88,0.159,1.535,0.476,1.966
		c0.317,0.43,0.847,0.645,1.589,0.645c0.293,0,0.767-0.049,1.421-0.146l0.073,1.424c-0.459,0.164-1.084,0.246-1.875,0.246
		c-1.201,0-2.075-0.349-2.622-1.047s-0.82-1.727-0.82-3.084v-10.576h-2.915v-1.436h2.915v-4.058h1.758V427.701z"/>
	<path class="st1" d="M525.592,427.701v4.058h3.281v1.436h-3.281v10.573c0,0.88,0.159,1.535,0.476,1.966
		c0.317,0.43,0.847,0.645,1.589,0.645c0.293,0,0.767-0.049,1.421-0.146l0.073,1.424c-0.459,0.164-1.084,0.246-1.875,0.246
		c-1.201,0-2.075-0.349-2.622-1.047s-0.82-1.727-0.82-3.084v-10.576h-2.915v-1.436h2.915v-4.058h1.758V427.701z"/>
	<path class="st1" d="M533.499,434.439c0.576-0.947,1.313-1.68,2.212-2.197s1.88-0.776,2.944-0.776c1.699,0,2.964,0.479,3.794,1.436
		s1.25,2.393,1.26,4.307v10.4h-1.743v-10.415c-0.01-1.416-0.31-2.471-0.901-3.164s-1.536-1.04-2.834-1.04
		c-1.084,0-2.043,0.34-2.878,1.019s-1.453,1.594-1.853,2.746v10.854h-1.743v-22.5h1.743L533.499,434.439L533.499,434.439z"/>
	<path class="st1" d="M557.476,447.608c-0.176-0.498-0.288-1.235-0.337-2.212c-0.615,0.801-1.399,1.419-2.351,1.854
		s-1.96,0.651-3.025,0.651c-1.523,0-2.756-0.425-3.699-1.274s-1.414-1.924-1.414-3.223c0-1.543,0.642-2.764,1.926-3.662
		s3.074-1.348,5.369-1.348h3.179v-1.802c0-1.133-0.349-2.023-1.047-2.673s-1.716-0.975-3.054-0.975
		c-1.221,0-2.231,0.312-3.032,0.938s-1.201,1.377-1.201,2.256l-1.758-0.015c0-1.26,0.586-2.351,1.758-3.273s2.612-1.385,4.321-1.385
		c1.768,0,3.162,0.442,4.182,1.326s1.545,2.116,1.575,3.698v7.5c0,1.533,0.161,2.681,0.483,3.442v0.176h-1.875V447.608z
		 M551.968,446.349c1.172,0,2.219-0.283,3.142-0.85s1.594-1.323,2.014-2.271v-3.486h-3.135c-1.748,0.02-3.115,0.34-4.102,0.96
		s-1.479,1.472-1.479,2.556c0,0.889,0.33,1.626,0.989,2.212S550.913,446.349,551.968,446.349z"/>
	<path class="st1" d="M565.515,427.701v4.058h3.281v1.436h-3.281v10.573c0,0.88,0.159,1.535,0.476,1.966
		c0.317,0.43,0.847,0.645,1.589,0.645c0.293,0,0.767-0.049,1.421-0.146l0.073,1.424c-0.459,0.164-1.084,0.246-1.875,0.246
		c-1.201,0-2.075-0.349-2.622-1.047s-0.82-1.727-0.82-3.084v-10.576h-2.915v-1.436h2.915v-4.058h1.758V427.701z"/>
	<path class="st1" d="M588.229,447.608c-0.176-0.498-0.288-1.235-0.337-2.212c-0.615,0.801-1.399,1.419-2.351,1.854
		s-1.96,0.651-3.025,0.651c-1.523,0-2.756-0.425-3.699-1.274s-1.414-1.924-1.414-3.223c0-1.543,0.642-2.764,1.926-3.662
		s3.074-1.348,5.369-1.348h3.179v-1.802c0-1.133-0.349-2.023-1.047-2.673s-1.716-0.975-3.054-0.975
		c-1.221,0-2.231,0.312-3.032,0.938s-1.201,1.377-1.201,2.256l-1.758-0.015c0-1.26,0.586-2.351,1.758-3.273s2.612-1.385,4.321-1.385
		c1.768,0,3.162,0.442,4.182,1.326s1.545,2.116,1.575,3.698v7.5c0,1.533,0.161,2.681,0.483,3.442v0.176h-1.875V447.608z
		 M582.721,446.349c1.172,0,2.219-0.283,3.142-0.85s1.594-1.323,2.014-2.271v-3.486h-3.135c-1.748,0.02-3.115,0.34-4.102,0.96
		s-1.479,1.472-1.479,2.556c0,0.889,0.33,1.626,0.989,2.212S581.666,446.349,582.721,446.349z"/>
	<path class="st1" d="M592.84,439.537c0-2.461,0.549-4.421,1.648-5.881s2.59-2.19,4.475-2.19c2.139,0,3.77,0.845,4.893,2.534v-8.892
		h1.743v22.5h-1.641l-0.073-2.109c-1.123,1.602-2.773,2.402-4.951,2.402c-1.826,0-3.298-0.734-4.417-2.204s-1.677-3.455-1.677-5.955
		V439.537z M594.612,439.845c0,2.021,0.405,3.616,1.216,4.783s1.953,1.75,3.428,1.75c2.158,0,3.691-0.952,4.6-2.856v-7.441
		c-0.908-2.061-2.432-3.091-4.57-3.091c-1.475,0-2.622,0.579-3.442,1.736S594.612,437.589,594.612,439.845z"/>
	<path class="st1" d="M608.76,439.537c0-2.461,0.549-4.421,1.648-5.881s2.59-2.19,4.475-2.19c2.139,0,3.77,0.845,4.893,2.534v-8.892
		h1.743v22.5h-1.641l-0.073-2.109c-1.123,1.602-2.773,2.402-4.951,2.402c-1.826,0-3.298-0.734-4.417-2.204s-1.677-3.455-1.677-5.955
		V439.537z M610.532,439.845c0,2.021,0.405,3.616,1.216,4.783s1.953,1.75,3.428,1.75c2.158,0,3.691-0.952,4.6-2.856v-7.441
		c-0.908-2.061-2.432-3.091-4.57-3.091c-1.475,0-2.622,0.579-3.442,1.736S610.532,437.589,610.532,439.845z"/>
	<path class="st1" d="M625.28,427.182c0-0.33,0.107-0.609,0.322-0.837c0.215-0.229,0.508-0.343,0.879-0.343s0.667,0.114,0.886,0.343
		c0.22,0.228,0.33,0.507,0.33,0.837s-0.11,0.606-0.33,0.829c-0.22,0.224-0.515,0.335-0.886,0.335s-0.664-0.111-0.879-0.335
		C625.388,427.788,625.28,427.512,625.28,427.182z M627.346,447.608h-1.758v-15.85h1.758V447.608z"/>
	<path class="st1" d="M633.026,431.759l0.059,2.71c0.596-0.977,1.338-1.721,2.227-2.233s1.87-0.77,2.944-0.77
		c1.699,0,2.964,0.479,3.794,1.436s1.25,2.393,1.26,4.307v10.4h-1.743v-10.415c-0.01-1.416-0.31-2.471-0.901-3.164
		s-1.536-1.04-2.834-1.04c-1.084,0-2.043,0.34-2.878,1.019s-1.453,1.594-1.853,2.746v10.854h-1.743v-15.85H633.026z"/>
	<path class="st1" d="M646.383,439.537c0-2.48,0.549-4.445,1.648-5.896s2.59-2.176,4.475-2.176c2.158,0,3.799,0.859,4.922,2.578
		l0.088-2.285h1.641v15.527c0,2.041-0.571,3.657-1.714,4.849s-2.69,1.787-4.644,1.787c-1.104,0-2.156-0.246-3.157-0.739
		s-1.79-1.15-2.366-1.971l0.981-1.055c1.24,1.523,2.715,2.285,4.424,2.285c1.465,0,2.607-0.432,3.428-1.296s1.245-2.063,1.274-3.597
		v-1.992c-1.123,1.562-2.759,2.344-4.907,2.344c-1.836,0-3.311-0.732-4.424-2.197s-1.67-3.442-1.67-5.933L646.383,439.537
		L646.383,439.537z M648.155,439.845c0,2.021,0.405,3.616,1.216,4.783s1.953,1.75,3.428,1.75c2.158,0,3.687-0.967,4.585-2.9v-7.368
		c-0.41-1.016-1.001-1.789-1.772-2.321s-1.699-0.799-2.783-0.799c-1.475,0-2.622,0.579-3.442,1.736S648.155,437.589,648.155,439.845
		z"/>
	<path class="st1" d="M671.265,434.439c0.576-0.947,1.313-1.68,2.212-2.197s1.88-0.776,2.944-0.776c1.699,0,2.964,0.479,3.794,1.436
		s1.25,2.393,1.26,4.307v10.4h-1.743v-10.415c-0.01-1.416-0.31-2.471-0.901-3.164s-1.536-1.04-2.834-1.04
		c-1.084,0-2.043,0.34-2.878,1.019s-1.453,1.594-1.853,2.746v10.854h-1.743v-22.5h1.743L671.265,434.439L671.265,434.439z"/>
	<path class="st1" d="M695.432,445.602c-1.055,1.533-2.739,2.3-5.054,2.3c-1.689,0-2.974-0.49-3.853-1.472s-1.328-2.435-1.348-4.358
		V431.76h1.743v10.093c0,3.018,1.221,4.526,3.662,4.526c2.539,0,4.146-1.05,4.819-3.149v-11.47h1.758v15.85h-1.699L695.432,445.602z
		"/>
	<path class="st1" d="M702.636,431.759l0.059,2.71c0.596-0.977,1.338-1.721,2.227-2.233s1.87-0.77,2.944-0.77
		c1.699,0,2.964,0.479,3.794,1.436s1.25,2.393,1.26,4.307v10.4h-1.743v-10.415c-0.01-1.416-0.31-2.471-0.901-3.164
		s-1.536-1.04-2.834-1.04c-1.084,0-2.043,0.34-2.878,1.019s-1.453,1.594-1.853,2.746v10.854h-1.743v-15.85H702.636z"/>
	<path class="st1" d="M715.992,439.537c0-2.461,0.549-4.421,1.648-5.881s2.59-2.19,4.475-2.19c2.139,0,3.77,0.845,4.893,2.534
		v-8.892h1.743v22.5h-1.641l-0.073-2.109c-1.123,1.602-2.773,2.402-4.951,2.402c-1.826,0-3.298-0.734-4.417-2.204
		s-1.677-3.455-1.677-5.955V439.537z M717.765,439.845c0,2.021,0.405,3.616,1.216,4.783s1.953,1.75,3.428,1.75
		c2.158,0,3.691-0.952,4.6-2.856v-7.441c-0.908-2.061-2.432-3.091-4.57-3.091c-1.475,0-2.622,0.579-3.442,1.736
		S717.765,437.589,717.765,439.845z"/>
	<path class="st1" d="M739.939,433.253c-0.371-0.068-0.767-0.103-1.187-0.103c-1.094,0-2.019,0.306-2.776,0.916
		s-1.296,1.496-1.619,2.658v10.884h-1.743v-15.85h1.714l0.029,2.52c0.928-1.875,2.417-2.812,4.468-2.812
		c0.488,0,0.874,0.063,1.157,0.19L739.939,433.253z"/>
	<path class="st1" d="M747.817,447.901c-1.348,0-2.566-0.332-3.655-0.996s-1.936-1.589-2.542-2.775s-0.908-2.518-0.908-3.992v-0.63
		c0-1.523,0.295-2.896,0.886-4.116s1.414-2.18,2.468-2.878s2.197-1.048,3.428-1.048c1.924,0,3.45,0.657,4.578,1.971
		s1.692,3.107,1.692,5.383v0.981h-11.309v0.337c0,1.797,0.515,3.294,1.545,4.49s2.327,1.794,3.889,1.794
		c0.938,0,1.765-0.171,2.483-0.513s1.37-0.889,1.956-1.641l1.099,0.835C752.139,446.969,750.269,447.901,747.817,447.901z
		 M747.495,432.96c-1.318,0-2.429,0.483-3.333,1.45s-1.453,2.266-1.648,3.896h9.507v-0.19c-0.049-1.523-0.483-2.764-1.304-3.721
		S748.823,432.96,747.495,432.96z"/>
	<path class="st1" d="M755.725,439.537c0-2.461,0.549-4.421,1.648-5.881s2.59-2.19,4.475-2.19c2.139,0,3.77,0.845,4.893,2.534
		v-8.892h1.743v22.5h-1.641l-0.073-2.109c-1.123,1.602-2.773,2.402-4.951,2.402c-1.826,0-3.298-0.734-4.417-2.204
		s-1.677-3.455-1.677-5.955V439.537z M757.497,439.845c0,2.021,0.405,3.616,1.216,4.783s1.953,1.75,3.428,1.75
		c2.158,0,3.691-0.952,4.6-2.856v-7.441c-0.908-2.061-2.432-3.091-4.57-3.091c-1.475,0-2.622,0.579-3.442,1.736
		S757.497,437.589,757.497,439.845z"/>
	<path class="st1" d="M781.84,443.58c0-0.869-0.349-1.567-1.047-2.095s-1.75-0.939-3.157-1.237s-2.498-0.64-3.274-1.025
		s-1.353-0.857-1.729-1.414s-0.564-1.23-0.564-2.021c0-1.25,0.522-2.282,1.567-3.098s2.383-1.224,4.014-1.224
		c1.768,0,3.186,0.438,4.255,1.312s1.604,2.014,1.604,3.42h-1.758c0-0.928-0.388-1.699-1.165-2.314s-1.755-0.923-2.937-0.923
		c-1.152,0-2.078,0.257-2.776,0.77s-1.047,1.179-1.047,1.999c0,0.791,0.291,1.404,0.872,1.839s1.641,0.832,3.179,1.193
		s2.69,0.747,3.457,1.157s1.335,0.903,1.707,1.479s0.557,1.274,0.557,2.095c0,1.338-0.54,2.407-1.619,3.208
		s-2.488,1.201-4.226,1.201c-1.846,0-3.342-0.446-4.49-1.34s-1.721-2.024-1.721-3.392h1.758c0.068,1.025,0.5,1.824,1.296,2.396
		s1.848,0.856,3.157,0.856c1.221,0,2.207-0.269,2.959-0.806S781.84,444.4,781.84,443.58z"/>
	<path class="st1" d="M792.366,439.449c0-1.523,0.295-2.896,0.886-4.116s1.426-2.17,2.505-2.849s2.302-1.019,3.669-1.019
		c2.109,0,3.818,0.74,5.127,2.22s1.963,3.439,1.963,5.881v0.366c0,1.533-0.296,2.913-0.887,4.139s-1.423,2.17-2.497,2.834
		s-2.3,0.996-3.677,0.996c-2.1,0-3.806-0.739-5.12-2.219s-1.97-3.44-1.97-5.882L792.366,439.449L792.366,439.449z M794.124,439.933
		c0,1.895,0.491,3.45,1.472,4.666s2.268,1.823,3.86,1.823c1.582,0,2.863-0.607,3.845-1.823s1.473-2.82,1.473-4.812v-0.337
		c0-1.211-0.225-2.319-0.674-3.325s-1.079-1.784-1.89-2.336s-1.738-0.828-2.783-0.828c-1.562,0-2.837,0.613-3.823,1.839
		s-1.479,2.829-1.479,4.812L794.124,439.933L794.124,439.933z"/>
	<path class="st1" d="M810.644,447.608v-14.414h-2.622v-1.436h2.622v-1.919c0-1.621,0.413-2.866,1.238-3.735
		s1.975-1.304,3.449-1.304c0.664,0,1.284,0.083,1.86,0.247l-0.132,1.452c-0.488-0.117-1.021-0.176-1.597-0.176
		c-0.967,0-1.719,0.302-2.256,0.903c-0.537,0.603-0.806,1.457-0.806,2.563v1.968h3.779v1.436H812.4v14.414L810.644,447.608
		L810.644,447.608z"/>
	<path class="st1" d="M824.407,439.537c0-2.461,0.55-4.421,1.648-5.881s2.59-2.19,4.475-2.19c2.139,0,3.77,0.845,4.893,2.534v-8.892
		h1.743v22.5h-1.641l-0.073-2.109c-1.123,1.602-2.773,2.402-4.951,2.402c-1.826,0-3.298-0.734-4.416-2.204s-1.678-3.455-1.678-5.955
		V439.537z M826.18,439.845c0,2.021,0.405,3.616,1.216,4.783s1.953,1.75,3.428,1.75c2.158,0,3.691-0.952,4.6-2.856v-7.441
		c-0.908-2.061-2.432-3.091-4.57-3.091c-1.475,0-2.622,0.579-3.442,1.736S826.18,437.589,826.18,439.845z"/>
	<path class="st1" d="M847.168,447.901c-1.348,0-2.566-0.332-3.655-0.996s-1.936-1.589-2.541-2.775s-0.908-2.518-0.908-3.992v-0.63
		c0-1.523,0.295-2.896,0.887-4.116c0.59-1.221,1.413-2.18,2.468-2.878s2.197-1.048,3.428-1.048c1.924,0,3.45,0.657,4.577,1.971
		c1.129,1.313,1.692,3.107,1.692,5.383v0.981h-11.309v0.337c0,1.797,0.515,3.294,1.546,4.49c1.029,1.196,2.326,1.794,3.889,1.794
		c0.938,0,1.766-0.171,2.482-0.513c0.719-0.342,1.37-0.889,1.956-1.641l1.099,0.835
		C851.489,446.969,849.619,447.901,847.168,447.901z M846.846,432.96c-1.318,0-2.43,0.483-3.333,1.45s-1.452,2.266-1.647,3.896
		h9.507v-0.19c-0.049-1.523-0.483-2.764-1.304-3.721S848.174,432.96,846.846,432.96z"/>
	<path class="st1" d="M860.524,445.191l4.819-13.433h1.802l-5.918,15.85h-1.421l-5.947-15.85h1.802L860.524,445.191z"/>
	<path class="st1" d="M869.164,427.182c0-0.33,0.107-0.609,0.322-0.837c0.215-0.229,0.508-0.343,0.879-0.343
		s0.667,0.114,0.886,0.343c0.221,0.228,0.33,0.507,0.33,0.837s-0.109,0.606-0.33,0.829c-0.219,0.224-0.515,0.335-0.886,0.335
		s-0.664-0.111-0.879-0.335C869.271,427.788,869.164,427.512,869.164,427.182z M871.229,447.608h-1.758v-15.85h1.758V447.608z"/>
	<path class="st1" d="M881.1,446.422c1.221,0,2.243-0.344,3.068-1.032s1.272-1.58,1.341-2.674h1.685
		c-0.049,0.967-0.352,1.849-0.908,2.645s-1.297,1.418-2.219,1.867c-0.924,0.449-1.912,0.674-2.967,0.674
		c-2.08,0-3.729-0.723-4.943-2.168c-1.217-1.445-1.824-3.389-1.824-5.83v-0.527c0-1.562,0.273-2.944,0.82-4.146
		s1.33-2.129,2.352-2.783c1.02-0.654,2.214-0.981,3.581-0.981c1.738,0,3.171,0.518,4.3,1.553c1.127,1.035,1.73,2.397,1.809,4.087
		h-1.685c-0.078-1.24-0.525-2.241-1.341-3.003s-1.843-1.143-3.083-1.143c-1.582,0-2.811,0.571-3.685,1.714s-1.311,2.744-1.311,4.805
		v0.513c0,2.021,0.437,3.599,1.311,4.731S879.508,446.422,881.1,446.422z"/>
	<path class="st1" d="M896.082,447.901c-1.348,0-2.566-0.332-3.655-0.996s-1.936-1.589-2.541-2.775s-0.908-2.518-0.908-3.992v-0.63
		c0-1.523,0.295-2.896,0.887-4.116c0.59-1.221,1.413-2.18,2.468-2.878s2.197-1.048,3.428-1.048c1.924,0,3.45,0.657,4.577,1.971
		c1.129,1.313,1.692,3.107,1.692,5.383v0.981h-11.309v0.337c0,1.797,0.515,3.294,1.546,4.49c1.029,1.196,2.326,1.794,3.889,1.794
		c0.938,0,1.766-0.171,2.482-0.513c0.719-0.342,1.37-0.889,1.956-1.641l1.099,0.835
		C900.403,446.969,898.533,447.901,896.082,447.901z M895.76,432.96c-1.318,0-2.43,0.483-3.333,1.45s-1.452,2.266-1.647,3.896h9.507
		v-0.19c-0.049-1.523-0.483-2.764-1.304-3.721S897.088,432.96,895.76,432.96z"/>
	<path class="st1" d="M914.185,443.58c0-0.869-0.35-1.567-1.047-2.095c-0.699-0.527-1.751-0.939-3.157-1.237
		s-2.497-0.64-3.274-1.025c-0.775-0.386-1.353-0.857-1.729-1.414s-0.563-1.23-0.563-2.021c0-1.25,0.522-2.282,1.567-3.098
		s2.383-1.224,4.014-1.224c1.768,0,3.186,0.438,4.256,1.312c1.068,0.874,1.604,2.014,1.604,3.42h-1.758
		c0-0.928-0.389-1.699-1.164-2.314c-0.777-0.615-1.756-0.923-2.938-0.923c-1.152,0-2.078,0.257-2.775,0.77
		c-0.699,0.513-1.048,1.179-1.048,1.999c0,0.791,0.29,1.404,0.872,1.839c0.58,0.435,1.641,0.832,3.178,1.193
		c1.539,0.361,2.69,0.747,3.457,1.157s1.336,0.903,1.707,1.479s0.557,1.274,0.557,2.095c0,1.338-0.54,2.407-1.619,3.208
		s-2.487,1.201-4.226,1.201c-1.846,0-3.343-0.446-4.489-1.34c-1.148-0.894-1.722-2.024-1.722-3.392h1.758
		c0.068,1.025,0.5,1.824,1.296,2.396s1.849,0.856,3.157,0.856c1.221,0,2.207-0.269,2.959-0.806S914.185,444.4,914.185,443.58z"/>
	<path class="st1" d="M918.767,451.593l-1.04-0.762c0.889-1.191,1.348-2.427,1.377-3.706v-2.271h1.714v1.831
		C920.817,448.717,920.134,450.353,918.767,451.593z"/>
	<path class="st1" d="M932.633,447.608h-1.758v-22.5h1.758V447.608z"/>
	<path class="st1" d="M936.541,427.182c0-0.33,0.107-0.609,0.322-0.837c0.215-0.229,0.508-0.343,0.879-0.343
		s0.667,0.114,0.886,0.343c0.221,0.228,0.33,0.507,0.33,0.837s-0.109,0.606-0.33,0.829c-0.219,0.224-0.515,0.335-0.886,0.335
		s-0.664-0.111-0.879-0.335C936.648,427.788,936.541,427.512,936.541,427.182z M938.606,447.608h-1.758v-15.85h1.758V447.608z"/>
	<path class="st1" d="M946.382,439.625l-2.007,1.934v6.05h-1.758v-22.5h1.758v14.399l1.655-1.787l6.064-5.962h2.212l-6.724,6.68
		l7.31,9.17h-2.095L946.382,439.625z"/>
	<path class="st1" d="M962.404,447.901c-1.348,0-2.566-0.332-3.655-0.996s-1.936-1.589-2.541-2.775s-0.908-2.518-0.908-3.992v-0.63
		c0-1.523,0.295-2.896,0.887-4.116c0.59-1.221,1.413-2.18,2.468-2.878s2.197-1.048,3.428-1.048c1.924,0,3.45,0.657,4.577,1.971
		c1.129,1.313,1.692,3.107,1.692,5.383v0.981h-11.309v0.337c0,1.797,0.515,3.294,1.546,4.49c1.029,1.196,2.326,1.794,3.889,1.794
		c0.938,0,1.766-0.171,2.482-0.513c0.719-0.342,1.37-0.889,1.956-1.641l1.099,0.835
		C966.726,446.969,964.855,447.901,962.404,447.901z M962.082,432.96c-1.318,0-2.43,0.483-3.333,1.45s-1.452,2.266-1.647,3.896
		h9.507v-0.19c-0.049-1.523-0.483-2.764-1.304-3.721S963.41,432.96,962.082,432.96z"/>
	<path class="st1" d="M210.196,476.958c-0.244,2.246-1.047,3.965-2.41,5.156s-3.176,1.787-5.442,1.787
		c-1.582,0-2.981-0.396-4.197-1.187s-2.156-1.911-2.82-3.361s-1.001-3.108-1.011-4.974v-2.769c0-1.895,0.332-3.574,0.996-5.039
		s1.619-2.595,2.864-3.391s2.678-1.194,4.299-1.194c2.285,0,4.089,0.615,5.413,1.846s2.092,2.935,2.307,5.112h-1.816
		c-0.449-3.623-2.417-5.435-5.903-5.435c-1.934,0-3.474,0.724-4.622,2.17s-1.721,3.445-1.721,5.996v2.609
		c0,2.463,0.559,4.427,1.677,5.894c1.118,1.466,2.629,2.198,4.534,2.198c1.885,0,3.306-0.451,4.263-1.354s1.548-2.259,1.772-4.065
		L210.196,476.958L210.196,476.958z"/>
	<path class="st1" d="M215.159,470.439c0.576-0.947,1.313-1.68,2.212-2.197s1.88-0.776,2.944-0.776c1.699,0,2.964,0.479,3.794,1.436
		s1.25,2.393,1.26,4.307v10.4h-1.743v-10.415c-0.01-1.416-0.31-2.471-0.901-3.164s-1.536-1.04-2.834-1.04
		c-1.084,0-2.043,0.34-2.878,1.019s-1.453,1.594-1.853,2.746v10.854h-1.743v-22.5h1.743v9.33H215.159z"/>
	<path class="st1" d="M236.455,469.253c-0.371-0.068-0.767-0.103-1.187-0.103c-1.094,0-2.019,0.306-2.776,0.916
		s-1.296,1.496-1.619,2.658v10.884h-1.743v-15.85h1.714l0.029,2.52c0.928-1.875,2.417-2.812,4.468-2.812
		c0.488,0,0.874,0.063,1.157,0.19L236.455,469.253z"/>
	<path class="st1" d="M237.214,475.449c0-1.523,0.295-2.896,0.886-4.116s1.426-2.17,2.505-2.849s2.302-1.019,3.669-1.019
		c2.109,0,3.818,0.74,5.127,2.22s1.963,3.439,1.963,5.881v0.366c0,1.533-0.295,2.913-0.886,4.139s-1.423,2.17-2.498,2.834
		s-2.3,0.996-3.677,0.996c-2.1,0-3.806-0.739-5.12-2.219s-1.97-3.44-1.97-5.882L237.214,475.449L237.214,475.449z M238.972,475.933
		c0,1.895,0.491,3.45,1.472,4.666s2.268,1.823,3.86,1.823c1.582,0,2.864-0.607,3.845-1.823s1.472-2.82,1.472-4.812v-0.337
		c0-1.211-0.225-2.319-0.674-3.325s-1.079-1.784-1.89-2.336s-1.738-0.828-2.783-0.828c-1.562,0-2.837,0.613-3.823,1.839
		s-1.479,2.829-1.479,4.812V475.933z"/>
	<path class="st1" d="M255.829,467.759l0.059,2.578c0.586-0.957,1.318-1.675,2.197-2.153s1.855-0.718,2.93-0.718
		c2.5,0,4.087,1.025,4.761,3.076c0.566-0.986,1.323-1.745,2.271-2.277s1.992-0.799,3.135-0.799c3.398,0,5.132,1.855,5.2,5.566
		v10.576h-1.758v-10.444c-0.01-1.416-0.315-2.466-0.916-3.149s-1.58-1.025-2.937-1.025c-1.26,0.02-2.324,0.428-3.193,1.224
		s-1.353,1.765-1.45,2.907v10.488h-1.758v-10.576c-0.01-1.357-0.33-2.37-0.959-3.039s-1.599-1.004-2.908-1.004
		c-1.104,0-2.051,0.315-2.842,0.945s-1.377,1.564-1.758,2.805v10.869h-1.758v-15.85H255.829z"/>
	<path class="st1" d="M286.207,483.901c-1.348,0-2.566-0.332-3.655-0.996s-1.936-1.589-2.542-2.775s-0.908-2.518-0.908-3.992v-0.63
		c0-1.523,0.295-2.896,0.886-4.116s1.414-2.18,2.468-2.878s2.197-1.048,3.428-1.048c1.924,0,3.45,0.657,4.578,1.971
		s1.692,3.107,1.692,5.383v0.981h-11.309v0.337c0,1.797,0.515,3.294,1.545,4.49s2.327,1.794,3.889,1.794
		c0.938,0,1.765-0.171,2.483-0.513s1.37-0.889,1.956-1.641l1.099,0.835C290.528,482.969,288.658,483.901,286.207,483.901z
		 M285.885,468.96c-1.318,0-2.429,0.483-3.333,1.45s-1.453,2.266-1.648,3.896h9.507v-0.19c-0.049-1.523-0.483-2.764-1.304-3.721
		S287.213,468.96,285.885,468.96z"/>
	<path class="st1" d="M307.576,475.845c0,2.471-0.547,4.432-1.641,5.882s-2.563,2.175-4.409,2.175c-2.207,0-3.877-0.82-5.01-2.461
		l-0.073,2.168h-1.641v-22.5h1.743v8.95c1.113-1.729,2.764-2.593,4.951-2.593c1.875,0,3.357,0.716,4.446,2.146
		s1.633,3.42,1.633,5.969L307.576,475.845L307.576,475.845z M305.818,475.537c0-2.09-0.405-3.703-1.216-4.841
		s-1.953-1.707-3.428-1.707c-1.123,0-2.075,0.276-2.856,0.828s-1.372,1.359-1.772,2.424v7.148c0.879,1.992,2.432,2.988,4.658,2.988
		c1.445,0,2.576-0.571,3.391-1.714S305.818,477.812,305.818,475.537z"/>
	<path class="st1" d="M309.727,475.449c0-1.523,0.295-2.896,0.886-4.116s1.426-2.17,2.505-2.849s2.302-1.019,3.669-1.019
		c2.109,0,3.818,0.74,5.127,2.22s1.963,3.439,1.963,5.881v0.366c0,1.533-0.295,2.913-0.886,4.139s-1.423,2.17-2.498,2.834
		s-2.3,0.996-3.677,0.996c-2.1,0-3.806-0.739-5.12-2.219s-1.97-3.44-1.97-5.882L309.727,475.449L309.727,475.449z M311.484,475.933
		c0,1.895,0.491,3.45,1.472,4.666s2.268,1.823,3.86,1.823c1.582,0,2.864-0.607,3.845-1.823s1.472-2.82,1.472-4.812v-0.337
		c0-1.211-0.225-2.319-0.674-3.325s-1.079-1.784-1.89-2.336s-1.738-0.828-2.783-0.828c-1.562,0-2.837,0.613-3.823,1.839
		s-1.479,2.829-1.479,4.812L311.484,475.933L311.484,475.933z"/>
	<path class="st1" d="M325.778,475.449c0-1.523,0.295-2.896,0.886-4.116s1.426-2.17,2.505-2.849s2.302-1.019,3.669-1.019
		c2.109,0,3.818,0.74,5.127,2.22s1.963,3.439,1.963,5.881v0.366c0,1.533-0.295,2.913-0.886,4.139s-1.423,2.17-2.498,2.834
		s-2.3,0.996-3.677,0.996c-2.1,0-3.806-0.739-5.12-2.219s-1.97-3.44-1.97-5.882L325.778,475.449L325.778,475.449z M327.536,475.933
		c0,1.895,0.491,3.45,1.472,4.666s2.268,1.823,3.86,1.823c1.582,0,2.864-0.607,3.845-1.823s1.472-2.82,1.472-4.812v-0.337
		c0-1.211-0.225-2.319-0.674-3.325s-1.079-1.784-1.89-2.336s-1.738-0.828-2.783-0.828c-1.562,0-2.837,0.613-3.823,1.839
		s-1.479,2.829-1.479,4.812L327.536,475.933L327.536,475.933z"/>
	<path class="st1" d="M346.562,475.625l-2.007,1.934v6.05h-1.758v-22.5h1.758v14.399l1.655-1.787l6.064-5.962h2.212l-6.724,6.68
		l7.31,9.17h-2.095L346.562,475.625z"/>
	<path class="st1" d="M366.231,479.58c0-0.869-0.349-1.567-1.047-2.095s-1.75-0.939-3.157-1.237s-2.498-0.64-3.274-1.025
		s-1.353-0.857-1.729-1.414s-0.564-1.23-0.564-2.021c0-1.25,0.522-2.282,1.567-3.098s2.383-1.224,4.014-1.224
		c1.768,0,3.186,0.438,4.255,1.312s1.604,2.014,1.604,3.42h-1.758c0-0.928-0.388-1.699-1.165-2.314s-1.755-0.923-2.937-0.923
		c-1.152,0-2.078,0.257-2.776,0.77s-1.047,1.179-1.047,1.999c0,0.791,0.291,1.404,0.872,1.839s1.641,0.832,3.179,1.193
		s2.69,0.747,3.457,1.157s1.335,0.903,1.707,1.479s0.557,1.274,0.557,2.095c0,1.338-0.54,2.407-1.619,3.208
		s-2.488,1.201-4.226,1.201c-1.846,0-3.342-0.446-4.49-1.34s-1.721-2.024-1.721-3.392h1.758c0.068,1.025,0.5,1.824,1.296,2.396
		s1.848,0.856,3.157,0.856c1.221,0,2.207-0.269,2.959-0.806S366.231,480.4,366.231,479.58z"/>
	<path class="st1" d="M370.813,487.593l-1.04-0.762c0.889-1.191,1.348-2.427,1.377-3.706v-2.271h1.714v1.831
		C372.864,484.717,372.181,486.353,370.813,487.593z"/>
	<path class="st1" d="M382.614,463.182c0-0.33,0.107-0.609,0.322-0.837c0.215-0.229,0.508-0.343,0.879-0.343
		s0.667,0.114,0.886,0.343c0.22,0.228,0.33,0.507,0.33,0.837s-0.11,0.606-0.33,0.829c-0.22,0.224-0.515,0.335-0.886,0.335
		s-0.664-0.111-0.879-0.335C382.722,463.788,382.614,463.512,382.614,463.182z M384.68,483.608h-1.758v-15.85h1.758V483.608z"/>
	<path class="st1" d="M390.902,474.922v8.687H389.1V462.28h7.266c2.217,0,3.967,0.566,5.251,1.699s1.926,2.69,1.926,4.673
		c0,2.002-0.618,3.548-1.853,4.637s-3.025,1.633-5.369,1.633H390.902z M390.902,473.398h5.464c1.748,0,3.081-0.415,3.999-1.247
		c0.918-0.831,1.377-1.99,1.377-3.477c0-1.477-0.457-2.653-1.37-3.528s-2.209-1.323-3.889-1.343h-5.581V473.398z"/>
	<path class="st1" d="M416.256,483.608c-0.176-0.498-0.288-1.235-0.337-2.212c-0.615,0.801-1.399,1.419-2.351,1.854
		s-1.96,0.651-3.025,0.651c-1.523,0-2.756-0.425-3.699-1.274s-1.414-1.924-1.414-3.223c0-1.543,0.642-2.764,1.926-3.662
		s3.074-1.348,5.369-1.348h3.179v-1.802c0-1.133-0.349-2.023-1.047-2.673s-1.716-0.975-3.054-0.975
		c-1.221,0-2.231,0.312-3.032,0.938s-1.201,1.377-1.201,2.256l-1.758-0.015c0-1.26,0.586-2.351,1.758-3.273s2.612-1.385,4.321-1.385
		c1.768,0,3.162,0.442,4.182,1.326s1.545,2.116,1.575,3.698v7.5c0,1.533,0.161,2.681,0.483,3.442v0.176h-1.875V483.608z
		 M410.748,482.349c1.172,0,2.219-0.283,3.142-0.85s1.594-1.323,2.014-2.271v-3.486h-3.135c-1.748,0.02-3.115,0.34-4.102,0.96
		s-1.479,1.472-1.479,2.556c0,0.889,0.33,1.626,0.989,2.212S409.693,482.349,410.748,482.349z"/>
	<path class="st1" d="M420.867,475.537c0-2.461,0.549-4.421,1.648-5.881s2.59-2.19,4.475-2.19c2.139,0,3.77,0.845,4.893,2.534
		v-8.892h1.743v22.5h-1.641l-0.073-2.109c-1.123,1.602-2.773,2.402-4.951,2.402c-1.826,0-3.298-0.734-4.417-2.204
		s-1.677-3.455-1.677-5.955L420.867,475.537L420.867,475.537z M422.64,475.845c0,2.021,0.405,3.616,1.216,4.783
		s1.953,1.75,3.428,1.75c2.158,0,3.691-0.952,4.6-2.856v-7.441c-0.908-2.061-2.432-3.091-4.57-3.091
		c-1.475,0-2.622,0.579-3.442,1.736S422.64,473.589,422.64,475.845z"/>
	<path class="st1" d="M446.982,479.58c0-0.869-0.349-1.567-1.047-2.095s-1.75-0.939-3.157-1.237s-2.498-0.64-3.274-1.025
		s-1.353-0.857-1.729-1.414s-0.564-1.23-0.564-2.021c0-1.25,0.522-2.282,1.567-3.098s2.383-1.224,4.014-1.224
		c1.768,0,3.186,0.438,4.255,1.312s1.604,2.014,1.604,3.42h-1.758c0-0.928-0.388-1.699-1.165-2.314s-1.755-0.923-2.937-0.923
		c-1.152,0-2.078,0.257-2.776,0.77s-1.047,1.179-1.047,1.999c0,0.791,0.291,1.404,0.872,1.839s1.641,0.832,3.179,1.193
		s2.69,0.747,3.457,1.157s1.335,0.903,1.707,1.479s0.557,1.274,0.557,2.095c0,1.338-0.54,2.407-1.619,3.208
		s-2.488,1.201-4.226,1.201c-1.846,0-3.342-0.446-4.49-1.34s-1.721-2.024-1.721-3.392h1.758c0.068,1.025,0.5,1.824,1.296,2.396
		s1.848,0.856,3.157,0.856c1.221,0,2.207-0.269,2.959-0.806S446.982,480.4,446.982,479.58z"/>
	<path class="st1" d="M451.564,487.593l-1.04-0.762c0.889-1.191,1.348-2.427,1.377-3.706v-2.271h1.714v1.831
		C453.615,484.717,452.932,486.353,451.564,487.593z"/>
	<path class="st1" d="M473.473,483.608c-0.176-0.498-0.288-1.235-0.337-2.212c-0.615,0.801-1.399,1.419-2.351,1.854
		s-1.96,0.651-3.025,0.651c-1.523,0-2.756-0.425-3.699-1.274s-1.414-1.924-1.414-3.223c0-1.543,0.642-2.764,1.926-3.662
		s3.074-1.348,5.369-1.348h3.179v-1.802c0-1.133-0.349-2.023-1.047-2.673s-1.716-0.975-3.054-0.975
		c-1.221,0-2.231,0.312-3.032,0.938s-1.201,1.377-1.201,2.256l-1.758-0.015c0-1.26,0.586-2.351,1.758-3.273s2.612-1.385,4.321-1.385
		c1.768,0,3.162,0.442,4.182,1.326s1.545,2.116,1.575,3.698v7.5c0,1.533,0.161,2.681,0.483,3.442v0.176h-1.875V483.608z
		 M467.965,482.349c1.172,0,2.219-0.283,3.142-0.85s1.594-1.323,2.014-2.271v-3.486h-3.135c-1.748,0.02-3.115,0.34-4.102,0.96
		s-1.479,1.472-1.479,2.556c0,0.889,0.33,1.626,0.989,2.212S466.91,482.349,467.965,482.349z"/>
	<path class="st1" d="M480.457,467.759l0.059,2.71c0.596-0.977,1.338-1.721,2.227-2.233s1.87-0.77,2.944-0.77
		c1.699,0,2.964,0.479,3.794,1.436s1.25,2.393,1.26,4.307v10.4h-1.743v-10.415c-0.01-1.416-0.31-2.471-0.901-3.164
		s-1.536-1.04-2.834-1.04c-1.084,0-2.043,0.34-2.878,1.019s-1.453,1.594-1.853,2.746v10.854h-1.743v-15.85H480.457z"/>
	<path class="st1" d="M493.813,475.537c0-2.461,0.549-4.421,1.648-5.881s2.59-2.19,4.475-2.19c2.139,0,3.77,0.845,4.893,2.534
		v-8.892h1.743v22.5h-1.641l-0.073-2.109c-1.123,1.602-2.773,2.402-4.951,2.402c-1.826,0-3.298-0.734-4.417-2.204
		s-1.677-3.455-1.677-5.955L493.813,475.537L493.813,475.537z M495.586,475.845c0,2.021,0.405,3.616,1.216,4.783
		s1.953,1.75,3.428,1.75c2.158,0,3.691-0.952,4.6-2.856v-7.441c-0.908-2.061-2.432-3.091-4.57-3.091
		c-1.475,0-2.622,0.579-3.442,1.736S495.586,473.589,495.586,475.845z"/>
	<path class="st1" d="M519.589,483.608h-1.802V462.28h1.802V483.608z"/>
	<path class="st1" d="M536.373,473.633h-9.946v9.976h-1.802V462.28h13.213v1.523h-11.411v8.306h9.946V473.633z"/>
	<path class="st1" d="M542.552,474.922v8.687h-1.802V462.28h7.266c2.217,0,3.967,0.566,5.251,1.699s1.926,2.69,1.926,4.673
		c0,2.002-0.618,3.548-1.853,4.637s-3.025,1.633-5.369,1.633H542.552z M542.552,473.398h5.464c1.748,0,3.081-0.415,3.999-1.247
		c0.918-0.831,1.377-1.99,1.377-3.477c0-1.477-0.457-2.653-1.37-3.528s-2.209-1.323-3.889-1.343h-5.581L542.552,473.398
		L542.552,473.398z"/>
	<path class="st1" d="M567.554,479.58c0-0.869-0.349-1.567-1.047-2.095s-1.75-0.939-3.157-1.237s-2.498-0.64-3.274-1.025
		s-1.353-0.857-1.729-1.414s-0.564-1.23-0.564-2.021c0-1.25,0.522-2.282,1.567-3.098s2.383-1.224,4.014-1.224
		c1.768,0,3.186,0.438,4.255,1.312s1.604,2.014,1.604,3.42h-1.758c0-0.928-0.388-1.699-1.165-2.314s-1.755-0.923-2.937-0.923
		c-1.152,0-2.078,0.257-2.776,0.77s-1.047,1.179-1.047,1.999c0,0.791,0.291,1.404,0.872,1.839s1.641,0.832,3.179,1.193
		s2.69,0.747,3.457,1.157s1.335,0.903,1.707,1.479s0.557,1.274,0.557,2.095c0,1.338-0.54,2.407-1.619,3.208
		s-2.488,1.201-4.226,1.201c-1.846,0-3.342-0.446-4.49-1.34s-1.721-2.024-1.721-3.392h1.758c0.068,1.025,0.5,1.824,1.296,2.396
		s1.848,0.856,3.157,0.856c1.221,0,2.207-0.269,2.959-0.806S567.554,480.4,567.554,479.58z"/>
	<path class="st1" d="M578.812,474.995c0-2.129,0.273-4.196,0.82-6.203s1.348-3.843,2.402-5.508s2.188-2.859,3.398-3.582
		l0.425,1.187c-0.645,0.459-1.284,1.128-1.919,2.007s-1.201,1.924-1.699,3.135s-0.901,2.571-1.208,4.08s-0.461,3.22-0.461,5.134
		c0,2.041,0.232,4.004,0.696,5.889s1.101,3.548,1.912,4.988s1.704,2.521,2.681,3.244l-0.425,1.128
		c-1.24-0.742-2.388-1.94-3.442-3.596s-1.848-3.477-2.38-5.464S578.812,477.3,578.812,474.995z"/>
	<path class="st1" d="M590.47,483.608h-1.802V462.28h1.802V483.608z"/>
	<path class="st1" d="M596.766,467.759l0.059,2.71c0.596-0.977,1.338-1.721,2.227-2.233s1.87-0.77,2.944-0.77
		c1.699,0,2.964,0.479,3.794,1.436s1.25,2.393,1.26,4.307v10.4h-1.743v-10.415c-0.01-1.416-0.31-2.471-0.901-3.164
		s-1.536-1.04-2.834-1.04c-1.084,0-2.043,0.34-2.878,1.019s-1.453,1.594-1.853,2.746v10.854h-1.743v-15.85H596.766z"/>
	<path class="st1" d="M613.55,463.701v4.058h3.281v1.436h-3.281v10.573c0,0.88,0.159,1.535,0.476,1.966
		c0.317,0.43,0.847,0.645,1.589,0.645c0.293,0,0.767-0.049,1.421-0.146l0.073,1.424c-0.459,0.164-1.084,0.246-1.875,0.246
		c-1.201,0-2.075-0.349-2.622-1.047s-0.82-1.727-0.82-3.084v-10.576h-2.915v-1.436h2.915v-4.058h1.758V463.701z"/>
	<path class="st1" d="M625.852,483.901c-1.348,0-2.566-0.332-3.655-0.996s-1.936-1.589-2.542-2.775s-0.908-2.518-0.908-3.992v-0.63
		c0-1.523,0.295-2.896,0.886-4.116s1.414-2.18,2.468-2.878s2.197-1.048,3.428-1.048c1.924,0,3.45,0.657,4.578,1.971
		s1.692,3.107,1.692,5.383v0.981H620.49v0.337c0,1.797,0.515,3.294,1.545,4.49s2.327,1.794,3.889,1.794
		c0.938,0,1.765-0.171,2.483-0.513s1.37-0.889,1.956-1.641l1.099,0.835C630.173,482.969,628.303,483.901,625.852,483.901z
		 M625.529,468.96c-1.318,0-2.429,0.483-3.333,1.45s-1.453,2.266-1.648,3.896h9.507v-0.19c-0.049-1.523-0.483-2.764-1.304-3.721
		S626.857,468.96,625.529,468.96z"/>
	<path class="st1" d="M641.786,469.253c-0.371-0.068-0.767-0.103-1.187-0.103c-1.094,0-2.019,0.306-2.776,0.916
		s-1.296,1.496-1.619,2.658v10.884h-1.743v-15.85h1.714l0.029,2.52c0.928-1.875,2.417-2.812,4.468-2.812
		c0.488,0,0.874,0.063,1.157,0.19L641.786,469.253z"/>
	<path class="st1" d="M653.224,483.608c-0.176-0.498-0.288-1.235-0.337-2.212c-0.615,0.801-1.399,1.419-2.351,1.854
		s-1.96,0.651-3.025,0.651c-1.523,0-2.756-0.425-3.699-1.274s-1.414-1.924-1.414-3.223c0-1.543,0.642-2.764,1.926-3.662
		s3.074-1.348,5.369-1.348h3.179v-1.802c0-1.133-0.349-2.023-1.047-2.673s-1.716-0.975-3.054-0.975
		c-1.221,0-2.231,0.312-3.032,0.938s-1.201,1.377-1.201,2.256l-1.758-0.015c0-1.26,0.586-2.351,1.758-3.273s2.612-1.385,4.321-1.385
		c1.768,0,3.162,0.442,4.182,1.326s1.545,2.116,1.575,3.698v7.5c0,1.533,0.161,2.681,0.483,3.442v0.176h-1.875V483.608z
		 M647.716,482.349c1.172,0,2.219-0.283,3.142-0.85s1.594-1.323,2.014-2.271v-3.486h-3.135c-1.748,0.02-3.115,0.34-4.102,0.96
		s-1.479,1.472-1.479,2.556c0,0.889,0.33,1.626,0.989,2.212S646.661,482.349,647.716,482.349z"/>
	<path class="st1" d="M664.397,482.422c1.221,0,2.244-0.344,3.069-1.032s1.272-1.58,1.34-2.674h1.685
		c-0.049,0.967-0.352,1.849-0.908,2.645s-1.296,1.418-2.219,1.867s-1.912,0.674-2.966,0.674c-2.08,0-3.728-0.723-4.944-2.168
		s-1.824-3.389-1.824-5.83v-0.527c0-1.562,0.273-2.944,0.82-4.146s1.331-2.129,2.351-2.783s2.214-0.981,3.582-0.981
		c1.738,0,3.171,0.518,4.299,1.553s1.731,2.397,1.809,4.087h-1.685c-0.078-1.24-0.525-2.241-1.34-3.003s-1.843-1.143-3.083-1.143
		c-1.582,0-2.81,0.571-3.684,1.714s-1.311,2.744-1.311,4.805v0.513c0,2.021,0.437,3.599,1.311,4.731
		S662.806,482.422,664.397,482.422z"/>
	<path class="st1" d="M675.967,463.701v4.058h3.281v1.436h-3.281v10.573c0,0.88,0.159,1.535,0.476,1.966
		c0.317,0.43,0.847,0.645,1.589,0.645c0.293,0,0.767-0.049,1.421-0.146l0.073,1.424c-0.459,0.164-1.084,0.246-1.875,0.246
		c-1.201,0-2.075-0.349-2.622-1.047s-0.82-1.727-0.82-3.084v-10.576h-2.915v-1.436h2.915v-4.058h1.758V463.701z"/>
	<path class="st1" d="M682.028,463.182c0-0.33,0.107-0.609,0.322-0.837c0.215-0.229,0.508-0.343,0.879-0.343
		s0.667,0.114,0.886,0.343c0.22,0.228,0.33,0.507,0.33,0.837s-0.11,0.606-0.33,0.829c-0.22,0.224-0.515,0.335-0.886,0.335
		s-0.664-0.111-0.879-0.335C682.136,463.788,682.028,463.512,682.028,463.182z M684.094,483.608h-1.758v-15.85h1.758V483.608z"/>
	<path class="st1" d="M693.041,481.191l4.819-13.433h1.802l-5.918,15.85h-1.421l-5.947-15.85h1.802L693.041,481.191z"/>
	<path class="st1" d="M707.73,483.901c-1.348,0-2.566-0.332-3.655-0.996s-1.936-1.589-2.542-2.775s-0.908-2.518-0.908-3.992v-0.63
		c0-1.523,0.295-2.896,0.886-4.116s1.414-2.18,2.468-2.878s2.197-1.048,3.428-1.048c1.924,0,3.45,0.657,4.578,1.971
		s1.692,3.107,1.692,5.383v0.981h-11.309v0.337c0,1.797,0.515,3.294,1.545,4.49s2.327,1.794,3.889,1.794
		c0.938,0,1.765-0.171,2.483-0.513s1.37-0.889,1.956-1.641l1.099,0.835C712.052,482.969,710.182,483.901,707.73,483.901z
		 M707.408,468.96c-1.318,0-2.429,0.483-3.333,1.45s-1.453,2.266-1.648,3.896h9.507v-0.19c-0.049-1.523-0.483-2.764-1.304-3.721
		S708.736,468.96,707.408,468.96z"/>
	<path class="st1" d="M735.044,473.633h-9.946v9.976h-1.802V462.28h13.213v1.523h-11.411v8.306h9.946V473.633z"/>
	<path class="st1" d="M740.974,483.608h-1.758v-22.5h1.758V483.608z"/>
	<path class="st1" d="M754.989,483.608c-0.176-0.498-0.288-1.235-0.337-2.212c-0.615,0.801-1.399,1.419-2.351,1.854
		s-1.96,0.651-3.025,0.651c-1.523,0-2.756-0.425-3.699-1.274s-1.414-1.924-1.414-3.223c0-1.543,0.642-2.764,1.926-3.662
		s3.074-1.348,5.369-1.348h3.179v-1.802c0-1.133-0.349-2.023-1.047-2.673s-1.716-0.975-3.054-0.975
		c-1.221,0-2.231,0.312-3.032,0.938s-1.201,1.377-1.201,2.256l-1.758-0.015c0-1.26,0.586-2.351,1.758-3.273s2.612-1.385,4.321-1.385
		c1.768,0,3.162,0.442,4.182,1.326s1.545,2.116,1.575,3.698v7.5c0,1.533,0.161,2.681,0.483,3.442v0.176h-1.875V483.608z
		 M749.481,482.349c1.172,0,2.219-0.283,3.142-0.85s1.594-1.323,2.014-2.271v-3.486h-3.135c-1.748,0.02-3.115,0.34-4.102,0.96
		s-1.479,1.472-1.479,2.556c0,0.889,0.33,1.626,0.989,2.212S748.427,482.349,749.481,482.349z"/>
	<path class="st1" d="M763.028,463.701v4.058h3.281v1.436h-3.281v10.573c0,0.88,0.159,1.535,0.476,1.966
		c0.317,0.43,0.847,0.645,1.589,0.645c0.293,0,0.767-0.049,1.421-0.146l0.073,1.424c-0.459,0.164-1.084,0.246-1.875,0.246
		c-1.201,0-2.075-0.349-2.622-1.047s-0.82-1.727-0.82-3.084v-10.576h-2.915v-1.436h2.915v-4.058h1.758V463.701z"/>
	<path class="st1" d="M777.949,474.922v8.687h-1.802V462.28h7.266c2.217,0,3.967,0.566,5.251,1.699s1.926,2.69,1.926,4.673
		c0,2.002-0.618,3.548-1.853,4.637s-3.025,1.633-5.369,1.633H777.949z M777.949,473.398h5.464c1.748,0,3.081-0.415,3.999-1.247
		c0.918-0.831,1.377-1.99,1.377-3.477c0-1.477-0.457-2.653-1.37-3.528s-2.209-1.323-3.889-1.343h-5.581L777.949,473.398
		L777.949,473.398z"/>
	<path class="st1" d="M803.303,483.608c-0.176-0.498-0.288-1.235-0.337-2.212c-0.615,0.801-1.399,1.419-2.351,1.854
		s-1.96,0.651-3.025,0.651c-1.523,0-2.756-0.425-3.699-1.274s-1.414-1.924-1.414-3.223c0-1.543,0.642-2.764,1.926-3.662
		s3.074-1.348,5.369-1.348h3.179v-1.802c0-1.133-0.35-2.023-1.048-2.673s-1.716-0.975-3.054-0.975c-1.221,0-2.231,0.312-3.032,0.938
		s-1.201,1.377-1.201,2.256l-1.758-0.015c0-1.26,0.586-2.351,1.758-3.273s2.612-1.385,4.321-1.385c1.768,0,3.161,0.442,4.182,1.326
		s1.546,2.116,1.575,3.698v7.5c0,1.533,0.161,2.681,0.483,3.442v0.176h-1.874V483.608z M797.795,482.349
		c1.172,0,2.219-0.283,3.142-0.85c0.922-0.566,1.594-1.323,2.014-2.271v-3.486h-3.135c-1.748,0.02-3.115,0.34-4.102,0.96
		s-1.479,1.472-1.479,2.556c0,0.889,0.33,1.626,0.989,2.212S796.74,482.349,797.795,482.349z"/>
	<path class="st1" d="M810.286,467.759l0.059,2.71c0.596-0.977,1.338-1.721,2.227-2.233s1.87-0.77,2.944-0.77
		c1.699,0,2.964,0.479,3.794,1.436s1.25,2.393,1.26,4.307v10.4h-1.743v-10.415c-0.01-1.416-0.31-2.471-0.9-3.164
		s-1.536-1.04-2.835-1.04c-1.084,0-2.043,0.34-2.878,1.019s-1.453,1.594-1.854,2.746v10.854h-1.743v-15.85H810.286z"/>
	<path class="st1" d="M830.483,483.901c-1.348,0-2.565-0.332-3.654-0.996s-1.937-1.589-2.542-2.775s-0.908-2.518-0.908-3.992v-0.63
		c0-1.523,0.296-2.896,0.887-4.116s1.413-2.18,2.468-2.878s2.197-1.048,3.428-1.048c1.924,0,3.45,0.657,4.578,1.971
		s1.691,3.107,1.691,5.383v0.981h-11.309v0.337c0,1.797,0.516,3.294,1.546,4.49s2.326,1.794,3.889,1.794
		c0.938,0,1.766-0.171,2.483-0.513s1.369-0.889,1.955-1.641l1.099,0.835C834.805,482.969,832.935,483.901,830.483,483.901z
		 M830.161,468.96c-1.318,0-2.429,0.483-3.332,1.45s-1.453,2.266-1.648,3.896h9.507v-0.19c-0.049-1.523-0.483-2.764-1.304-3.721
		S831.489,468.96,830.161,468.96z"/>
	<path class="st1" d="M841.057,483.608h-1.758v-22.5h1.758V483.608z"/>
	<path class="st1" d="M854.56,479.58c0-0.869-0.35-1.567-1.047-2.095c-0.699-0.527-1.751-0.939-3.157-1.237s-2.497-0.64-3.274-1.025
		c-0.775-0.386-1.353-0.857-1.729-1.414s-0.563-1.23-0.563-2.021c0-1.25,0.522-2.282,1.567-3.098s2.383-1.224,4.014-1.224
		c1.768,0,3.186,0.438,4.256,1.312c1.068,0.874,1.604,2.014,1.604,3.42h-1.758c0-0.928-0.389-1.699-1.164-2.314
		c-0.777-0.615-1.756-0.923-2.938-0.923c-1.152,0-2.078,0.257-2.775,0.77c-0.699,0.513-1.048,1.179-1.048,1.999
		c0,0.791,0.29,1.404,0.872,1.839c0.58,0.435,1.641,0.832,3.178,1.193c1.539,0.361,2.69,0.747,3.457,1.157s1.336,0.903,1.707,1.479
		s0.557,1.274,0.557,2.095c0,1.338-0.54,2.407-1.619,3.208s-2.487,1.201-4.226,1.201c-1.846,0-3.343-0.446-4.489-1.34
		c-1.148-0.894-1.722-2.024-1.722-3.392h1.758c0.068,1.025,0.5,1.824,1.296,2.396s1.849,0.856,3.157,0.856
		c1.221,0,2.207-0.269,2.959-0.806S854.56,480.4,854.56,479.58z"/>
	<path class="st1" d="M864.752,475.215c0,2.148-0.267,4.217-0.799,6.204s-1.32,3.806-2.365,5.456s-2.197,2.856-3.457,3.618
		l-0.425-1.128c0.957-0.684,1.843-1.743,2.659-3.179c0.814-1.436,1.457-3.107,1.926-5.017s0.703-3.982,0.703-6.219
		c0-2.021-0.234-3.972-0.703-5.852s-1.116-3.56-1.941-5.039s-1.706-2.557-2.644-3.23l0.425-1.128
		c1.23,0.752,2.368,1.953,3.413,3.604s1.841,3.481,2.388,5.493S864.752,472.949,864.752,475.215z"/>
	<path class="st1" d="M878.867,479.961l0.264,1.362l0.352-1.436l3.809-12.129h1.494l3.765,12.026l0.41,1.67l0.337-1.538
		l3.252-12.158h1.816l-4.614,15.85h-1.494l-4.072-12.568l-0.19-0.864l-0.19,0.879l-3.999,12.554h-1.494l-4.6-15.85h1.802
		L878.867,479.961z"/>
	<path class="st1" d="M896.838,463.182c0-0.33,0.107-0.609,0.322-0.837c0.215-0.229,0.508-0.343,0.879-0.343
		s0.667,0.114,0.886,0.343c0.221,0.228,0.33,0.507,0.33,0.837s-0.109,0.606-0.33,0.829c-0.219,0.224-0.515,0.335-0.886,0.335
		s-0.664-0.111-0.879-0.335C896.945,463.788,896.838,463.512,896.838,463.182z M898.903,483.608h-1.758v-15.85h1.758V483.608z"/>
	<path class="st1" d="M904.877,483.608h-1.758v-22.5h1.758V483.608z"/>
	<path class="st1" d="M910.851,483.608h-1.758v-22.5h1.758V483.608z"/>
	<path class="st1" d="M923.149,470.439c0.576-0.947,1.313-1.68,2.212-2.197s1.88-0.776,2.944-0.776c1.699,0,2.964,0.479,3.794,1.436
		s1.25,2.393,1.26,4.307v10.4h-1.743v-10.415c-0.01-1.416-0.311-2.471-0.901-3.164s-1.535-1.04-2.834-1.04
		c-1.084,0-2.043,0.34-2.879,1.019c-0.834,0.679-1.452,1.594-1.853,2.746v10.854h-1.743v-22.5h1.743L923.149,470.439
		L923.149,470.439z"/>
	<path class="st1" d="M947.126,483.608c-0.176-0.498-0.288-1.235-0.337-2.212c-0.615,0.801-1.398,1.419-2.352,1.854
		c-0.951,0.435-1.96,0.651-3.024,0.651c-1.523,0-2.757-0.425-3.698-1.274c-0.943-0.85-1.414-1.924-1.414-3.223
		c0-1.543,0.642-2.764,1.926-3.662s3.074-1.348,5.369-1.348h3.179v-1.802c0-1.133-0.35-2.023-1.048-2.673s-1.716-0.975-3.054-0.975
		c-1.221,0-2.231,0.312-3.032,0.938s-1.201,1.377-1.201,2.256l-1.758-0.015c0-1.26,0.586-2.351,1.758-3.273s2.612-1.385,4.321-1.385
		c1.768,0,3.161,0.442,4.183,1.326c1.02,0.884,1.545,2.116,1.574,3.698v7.5c0,1.533,0.161,2.681,0.483,3.442v0.176h-1.875V483.608z
		 M941.618,482.349c1.172,0,2.22-0.283,3.142-0.85c0.924-0.566,1.595-1.323,2.015-2.271v-3.486h-3.135
		c-1.748,0.02-3.115,0.34-4.102,0.96s-1.479,1.472-1.479,2.556c0,0.889,0.33,1.626,0.988,2.212
		C939.707,482.056,940.563,482.349,941.618,482.349z"/>
	<path class="st1" d="M957.157,481.191l4.819-13.433h1.802l-5.918,15.85h-1.421l-5.947-15.85h1.802L957.157,481.191z"/>
	<path class="st1" d="M971.847,483.901c-1.348,0-2.566-0.332-3.655-0.996s-1.936-1.589-2.541-2.775s-0.908-2.518-0.908-3.992v-0.63
		c0-1.523,0.295-2.896,0.887-4.116c0.59-1.221,1.413-2.18,2.468-2.878s2.197-1.048,3.428-1.048c1.924,0,3.45,0.657,4.577,1.971
		c1.129,1.313,1.692,3.107,1.692,5.383v0.981h-11.309v0.337c0,1.797,0.515,3.294,1.546,4.49c1.029,1.196,2.326,1.794,3.889,1.794
		c0.938,0,1.766-0.171,2.482-0.513c0.719-0.342,1.37-0.889,1.956-1.641l1.099,0.835
		C976.168,482.969,974.298,483.901,971.847,483.901z M971.524,468.96c-1.318,0-2.43,0.483-3.333,1.45s-1.452,2.266-1.647,3.896
		h9.507v-0.19c-0.049-1.523-0.483-2.764-1.304-3.721S972.853,468.96,971.524,468.96z"/>
	<path class="st1" d="M986.035,475.449c0-1.523,0.295-2.896,0.887-4.116c0.59-1.221,1.425-2.17,2.504-2.849s2.303-1.019,3.67-1.019
		c2.109,0,3.818,0.74,5.127,2.22s1.963,3.439,1.963,5.881v0.366c0,1.533-0.296,2.913-0.887,4.139s-1.423,2.17-2.497,2.834
		s-2.3,0.996-3.677,0.996c-2.1,0-3.807-0.739-5.119-2.219c-1.314-1.479-1.971-3.44-1.971-5.882V475.449z M987.793,475.933
		c0,1.895,0.49,3.45,1.473,4.666c0.98,1.216,2.268,1.823,3.859,1.823c1.582,0,2.863-0.607,3.846-1.823
		c0.98-1.216,1.472-2.82,1.472-4.812v-0.337c0-1.211-0.225-2.319-0.674-3.325s-1.079-1.784-1.89-2.336s-1.738-0.828-2.783-0.828
		c-1.562,0-2.837,0.613-3.823,1.839s-1.479,2.829-1.479,4.812L987.793,475.933L987.793,475.933z"/>
	<path class="st1" d="M1004.724,467.759l0.059,2.71c0.596-0.977,1.338-1.721,2.227-2.233s1.87-0.77,2.944-0.77
		c1.699,0,2.964,0.479,3.794,1.436s1.25,2.393,1.26,4.307v10.4h-1.743v-10.415c-0.01-1.416-0.311-2.471-0.901-3.164
		s-1.535-1.04-2.834-1.04c-1.084,0-2.043,0.34-2.879,1.019c-0.834,0.679-1.452,1.594-1.853,2.746v10.854h-1.743v-15.85H1004.724z"/>
	<path class="st1" d="M199.708,517.089l4.629-13.33h1.89l-6.768,18.545l-0.352,0.82c-0.869,1.924-2.212,2.886-4.028,2.886
		c-0.42,0-0.869-0.068-1.348-0.205l-0.015-1.45l0.908,0.088c0.859,0,1.555-0.212,2.087-0.637s0.984-1.155,1.355-2.19l0.776-2.139
		l-5.977-15.718h1.919L199.708,517.089z"/>
	<path class="st1" d="M207,511.449c0-1.523,0.295-2.896,0.886-4.116s1.426-2.17,2.505-2.849s2.302-1.019,3.669-1.019
		c2.109,0,3.818,0.74,5.127,2.22s1.963,3.439,1.963,5.881v0.366c0,1.533-0.295,2.913-0.886,4.139s-1.423,2.17-2.498,2.834
		s-2.3,0.996-3.677,0.996c-2.1,0-3.806-0.739-5.12-2.219s-1.97-3.44-1.97-5.882L207,511.449L207,511.449z M208.758,511.933
		c0,1.895,0.491,3.45,1.472,4.666s2.268,1.823,3.86,1.823c1.582,0,2.864-0.607,3.845-1.823s1.472-2.82,1.472-4.812v-0.337
		c0-1.211-0.225-2.319-0.674-3.325s-1.079-1.784-1.89-2.336s-1.738-0.828-2.783-0.828c-1.562,0-2.837,0.613-3.823,1.839
		s-1.479,2.829-1.479,4.812V511.933z"/>
	<path class="st1" d="M234.214,517.602c-1.055,1.533-2.739,2.3-5.054,2.3c-1.689,0-2.974-0.49-3.853-1.472s-1.328-2.435-1.348-4.358
		V503.76h1.743v10.093c0,3.018,1.221,4.526,3.662,4.526c2.539,0,4.146-1.05,4.819-3.149v-11.47h1.758v15.85h-1.699L234.214,517.602z
		"/>
	<path class="st1" d="M247.072,505.253c-0.371-0.068-0.767-0.103-1.187-0.103c-1.094,0-2.019,0.306-2.776,0.916
		s-1.296,1.496-1.619,2.658v10.884h-1.743v-15.85h1.714l0.029,2.52c0.928-1.875,2.417-2.812,4.468-2.812
		c0.488,0,0.874,0.063,1.157,0.19L247.072,505.253z"/>
	<path class="st1" d="M261.773,519.901c-1.348,0-2.566-0.332-3.655-0.996s-1.936-1.589-2.542-2.775s-0.908-2.518-0.908-3.992v-0.63
		c0-1.523,0.295-2.896,0.886-4.116c0.591-1.22,1.414-2.18,2.468-2.878s2.197-1.048,3.428-1.048c1.924,0,3.45,0.657,4.578,1.971
		s1.692,3.107,1.692,5.383v0.981h-11.309v0.337c0,1.797,0.515,3.294,1.545,4.49s2.327,1.794,3.889,1.794
		c0.938,0,1.765-0.171,2.483-0.513s1.37-0.889,1.956-1.641l1.099,0.835C266.095,518.969,264.225,519.901,261.773,519.901z
		 M261.451,504.96c-1.318,0-2.429,0.483-3.333,1.45s-1.453,2.266-1.648,3.896h9.507v-0.19c-0.049-1.523-0.483-2.764-1.304-3.721
		S262.779,504.96,261.451,504.96z"/>
	<path class="st1" d="M275.364,510.189l4.277-6.431h2.08l-5.376,7.778l5.61,8.071h-2.065l-4.512-6.709l-4.512,6.709h-2.065
		l5.596-8.071l-5.376-7.778h2.065L275.364,510.189z"/>
	<path class="st1" d="M284.121,499.182c0-0.33,0.107-0.609,0.322-0.837c0.215-0.229,0.508-0.343,0.879-0.343
		s0.667,0.114,0.886,0.343c0.22,0.228,0.33,0.507,0.33,0.837s-0.11,0.606-0.33,0.829c-0.22,0.224-0.515,0.335-0.886,0.335
		s-0.664-0.111-0.879-0.335C284.229,499.788,284.121,499.512,284.121,499.182z M286.187,519.608h-1.758v-15.85h1.758V519.608z"/>
	<path class="st1" d="M299.689,515.58c0-0.869-0.349-1.567-1.047-2.095s-1.75-0.939-3.157-1.237s-2.498-0.64-3.274-1.025
		s-1.353-0.857-1.729-1.414s-0.564-1.23-0.564-2.021c0-1.25,0.522-2.282,1.567-3.098s2.383-1.224,4.014-1.224
		c1.768,0,3.186,0.438,4.255,1.312s1.604,2.014,1.604,3.42H299.6c0-0.928-0.388-1.699-1.165-2.314s-1.755-0.923-2.937-0.923
		c-1.152,0-2.078,0.257-2.776,0.77s-1.047,1.179-1.047,1.999c0,0.791,0.291,1.404,0.872,1.839s1.641,0.832,3.179,1.193
		s2.69,0.747,3.457,1.157c0.767,0.41,1.335,0.903,1.707,1.479s0.557,1.274,0.557,2.095c0,1.338-0.54,2.407-1.619,3.208
		s-2.488,1.201-4.226,1.201c-1.846,0-3.342-0.446-4.49-1.34s-1.721-2.024-1.721-3.392h1.758c0.068,1.025,0.5,1.824,1.296,2.396
		s1.848,0.856,3.157,0.856c1.221,0,2.207-0.269,2.959-0.806S299.689,516.4,299.689,515.58z"/>
	<path class="st1" d="M307.362,499.701v4.058h3.281v1.436h-3.281v10.573c0,0.88,0.159,1.535,0.476,1.966
		c0.317,0.43,0.847,0.645,1.589,0.645c0.293,0,0.767-0.049,1.421-0.146l0.073,1.424c-0.459,0.164-1.084,0.246-1.875,0.246
		c-1.201,0-2.075-0.349-2.622-1.047s-0.82-1.727-0.82-3.084v-10.576h-2.915v-1.436h2.915v-4.058h1.758V499.701z"/>
	<path class="st1" d="M313.424,499.182c0-0.33,0.107-0.609,0.322-0.837c0.215-0.229,0.508-0.343,0.879-0.343
		s0.667,0.114,0.886,0.343c0.22,0.228,0.33,0.507,0.33,0.837s-0.11,0.606-0.33,0.829c-0.22,0.224-0.515,0.335-0.886,0.335
		s-0.664-0.111-0.879-0.335C313.531,499.788,313.424,499.512,313.424,499.182z M315.489,519.608h-1.758v-15.85h1.758V519.608z"/>
	<path class="st1" d="M321.17,503.759l0.059,2.71c0.596-0.977,1.338-1.721,2.227-2.233s1.87-0.77,2.944-0.77
		c1.699,0,2.964,0.479,3.794,1.436s1.25,2.393,1.26,4.307v10.4h-1.743v-10.415c-0.01-1.416-0.31-2.471-0.901-3.164
		s-1.536-1.04-2.834-1.04c-1.084,0-2.043,0.34-2.878,1.019s-1.453,1.594-1.853,2.746v10.854H319.5v-15.85H321.17z"/>
	<path class="st1" d="M334.526,511.537c0-2.48,0.549-4.445,1.648-5.896s2.59-2.176,4.475-2.176c2.158,0,3.799,0.859,4.922,2.578
		l0.088-2.285h1.641v15.527c0,2.041-0.571,3.657-1.714,4.849s-2.69,1.787-4.644,1.787c-1.104,0-2.156-0.246-3.157-0.739
		s-1.79-1.15-2.366-1.971l0.981-1.055c1.24,1.523,2.715,2.285,4.424,2.285c1.465,0,2.607-0.432,3.428-1.296s1.245-2.063,1.274-3.597
		v-1.992c-1.123,1.562-2.759,2.344-4.907,2.344c-1.836,0-3.311-0.732-4.424-2.197s-1.67-3.442-1.67-5.933v-0.233H334.526z
		 M336.299,511.845c0,2.021,0.405,3.616,1.216,4.783s1.953,1.75,3.428,1.75c2.158,0,3.687-0.967,4.585-2.9v-7.368
		c-0.41-1.016-1.001-1.789-1.772-2.321s-1.699-0.799-2.783-0.799c-1.475,0-2.622,0.579-3.442,1.736S336.299,509.589,336.299,511.845
		z"/>
	<path class="st1" d="M359.335,503.759l0.059,2.71c0.596-0.977,1.338-1.721,2.227-2.233s1.87-0.77,2.944-0.77
		c1.699,0,2.964,0.479,3.794,1.436s1.25,2.393,1.26,4.307v10.4h-1.743v-10.415c-0.01-1.416-0.31-2.471-0.901-3.164
		s-1.536-1.04-2.834-1.04c-1.084,0-2.043,0.34-2.878,1.019s-1.453,1.594-1.853,2.746v10.854h-1.743v-15.85H359.335z"/>
	<path class="st1" d="M379.532,519.901c-1.348,0-2.566-0.332-3.655-0.996s-1.936-1.589-2.542-2.775s-0.908-2.518-0.908-3.992v-0.63
		c0-1.523,0.295-2.896,0.886-4.116s1.414-2.18,2.468-2.878s2.197-1.048,3.428-1.048c1.924,0,3.45,0.657,4.578,1.971
		s1.692,3.107,1.692,5.383v0.981H374.17v0.337c0,1.797,0.515,3.294,1.545,4.49s2.327,1.794,3.889,1.794
		c0.938,0,1.765-0.171,2.483-0.513s1.37-0.889,1.956-1.641l1.099,0.835C383.854,518.969,381.983,519.901,379.532,519.901z
		 M379.21,504.96c-1.318,0-2.429,0.483-3.333,1.45s-1.453,2.266-1.648,3.896h9.507v-0.19c-0.049-1.523-0.483-2.764-1.304-3.721
		S380.538,504.96,379.21,504.96z"/>
	<path class="st1" d="M390.867,499.701v4.058h3.281v1.436h-3.281v10.573c0,0.88,0.159,1.535,0.476,1.966
		c0.317,0.43,0.847,0.645,1.589,0.645c0.293,0,0.767-0.049,1.421-0.146l0.073,1.424c-0.459,0.164-1.084,0.246-1.875,0.246
		c-1.201,0-2.075-0.349-2.622-1.047s-0.82-1.727-0.82-3.084v-10.576h-2.915v-1.436h2.915v-4.058h1.758V499.701z"/>
	<path class="st1" d="M400.825,515.961l0.264,1.362l0.352-1.436l3.809-12.129h1.494l3.765,12.026l0.41,1.67l0.337-1.538
		l3.252-12.158h1.816l-4.614,15.85h-1.494l-4.072-12.568l-0.19-0.864l-0.19,0.879l-3.999,12.554h-1.494l-4.6-15.85h1.802
		L400.825,515.961z"/>
	<path class="st1" d="M417.932,511.449c0-1.523,0.295-2.896,0.886-4.116s1.426-2.17,2.505-2.849s2.302-1.019,3.669-1.019
		c2.109,0,3.818,0.74,5.127,2.22s1.963,3.439,1.963,5.881v0.366c0,1.533-0.295,2.913-0.886,4.139s-1.423,2.17-2.498,2.834
		s-2.3,0.996-3.677,0.996c-2.1,0-3.806-0.739-5.12-2.219s-1.97-3.44-1.97-5.882L417.932,511.449L417.932,511.449z M419.689,511.933
		c0,1.895,0.491,3.45,1.472,4.666s2.268,1.823,3.86,1.823c1.582,0,2.864-0.607,3.845-1.823s1.472-2.82,1.472-4.812v-0.337
		c0-1.211-0.225-2.319-0.674-3.325s-1.079-1.784-1.89-2.336s-1.738-0.828-2.783-0.828c-1.562,0-2.837,0.613-3.823,1.839
		s-1.479,2.829-1.479,4.812L419.689,511.933L419.689,511.933z"/>
	<path class="st1" d="M442.274,505.253c-0.371-0.068-0.767-0.103-1.187-0.103c-1.094,0-2.019,0.306-2.776,0.916
		s-1.296,1.496-1.619,2.658v10.884h-1.743v-15.85h1.714l0.029,2.52c0.928-1.875,2.417-2.812,4.468-2.812
		c0.488,0,0.874,0.063,1.157,0.19L442.274,505.253z"/>
	<path class="st1" d="M448.058,511.625l-2.007,1.934v6.05h-1.758v-22.5h1.758v14.399l1.655-1.787l6.064-5.962h2.212l-6.724,6.68
		l7.31,9.17h-2.095L448.058,511.625z"/>
	<path class="st1" d="M464.678,499.182c0-0.33,0.107-0.609,0.322-0.837c0.215-0.229,0.508-0.343,0.879-0.343
		s0.667,0.114,0.886,0.343c0.22,0.228,0.33,0.507,0.33,0.837s-0.11,0.606-0.33,0.829c-0.22,0.224-0.515,0.335-0.886,0.335
		s-0.664-0.111-0.879-0.335C464.785,499.788,464.678,499.512,464.678,499.182z M466.743,519.608h-1.758v-15.85h1.758V519.608z"/>
	<path class="st1" d="M472.424,503.759l0.059,2.71c0.596-0.977,1.338-1.721,2.227-2.233s1.87-0.77,2.944-0.77
		c1.699,0,2.964,0.479,3.794,1.436s1.25,2.393,1.26,4.307v10.4h-1.743v-10.415c-0.01-1.416-0.31-2.471-0.901-3.164
		s-1.536-1.04-2.834-1.04c-1.084,0-2.043,0.34-2.878,1.019s-1.453,1.594-1.853,2.746v10.854h-1.743v-15.85H472.424z"/>
	<path class="st1" d="M487.743,519.608v-14.414h-2.622v-1.436h2.622v-1.919c0-1.621,0.413-2.866,1.238-3.735s1.975-1.304,3.45-1.304
		c0.664,0,1.284,0.083,1.86,0.247l-0.132,1.452c-0.488-0.117-1.021-0.176-1.597-0.176c-0.967,0-1.719,0.302-2.256,0.903
		c-0.537,0.603-0.806,1.457-0.806,2.563v1.968h3.779v1.436H489.5v14.414L487.743,519.608L487.743,519.608z"/>
	<path class="st1" d="M502.989,505.253c-0.371-0.068-0.767-0.103-1.187-0.103c-1.094,0-2.019,0.306-2.776,0.916
		s-1.296,1.496-1.619,2.658v10.884h-1.743v-15.85h1.714l0.029,2.52c0.928-1.875,2.417-2.812,4.468-2.812
		c0.488,0,0.874,0.063,1.157,0.19L502.989,505.253z"/>
	<path class="st1" d="M514.427,519.608c-0.176-0.498-0.288-1.235-0.337-2.212c-0.615,0.801-1.399,1.419-2.351,1.854
		s-1.96,0.651-3.025,0.651c-1.523,0-2.756-0.425-3.699-1.274s-1.414-1.924-1.414-3.223c0-1.543,0.642-2.764,1.926-3.662
		s3.074-1.348,5.369-1.348h3.179v-1.802c0-1.133-0.349-2.023-1.047-2.673s-1.716-0.975-3.054-0.975
		c-1.221,0-2.231,0.312-3.032,0.938s-1.201,1.377-1.201,2.256l-1.758-0.015c0-1.26,0.586-2.351,1.758-3.273s2.612-1.385,4.321-1.385
		c1.768,0,3.162,0.442,4.182,1.326s1.545,2.116,1.575,3.698v7.5c0,1.533,0.161,2.681,0.483,3.442v0.176L514.427,519.608
		L514.427,519.608z M508.919,518.349c1.172,0,2.219-0.283,3.142-0.85s1.594-1.323,2.014-2.271v-3.486h-3.135
		c-1.748,0.02-3.115,0.34-4.102,0.96s-1.479,1.472-1.479,2.556c0,0.889,0.33,1.626,0.989,2.212S507.864,518.349,508.919,518.349z"/>
	<path class="st1" d="M529.233,515.58c0-0.869-0.349-1.567-1.047-2.095s-1.75-0.939-3.157-1.237s-2.498-0.64-3.274-1.025
		s-1.353-0.857-1.729-1.414s-0.564-1.23-0.564-2.021c0-1.25,0.522-2.282,1.567-3.098s2.383-1.224,4.014-1.224
		c1.768,0,3.186,0.438,4.255,1.312s1.604,2.014,1.604,3.42h-1.758c0-0.928-0.388-1.699-1.165-2.314s-1.755-0.923-2.937-0.923
		c-1.152,0-2.078,0.257-2.776,0.77s-1.047,1.179-1.047,1.999c0,0.791,0.291,1.404,0.872,1.839s1.641,0.832,3.179,1.193
		s2.69,0.747,3.457,1.157c0.767,0.41,1.335,0.903,1.707,1.479s0.557,1.274,0.557,2.095c0,1.338-0.54,2.407-1.619,3.208
		s-2.488,1.201-4.226,1.201c-1.846,0-3.342-0.446-4.49-1.34s-1.721-2.024-1.721-3.392h1.758c0.068,1.025,0.5,1.824,1.296,2.396
		s1.848,0.856,3.157,0.856c1.221,0,2.207-0.269,2.959-0.806S529.233,516.4,529.233,515.58z"/>
	<path class="st1" d="M536.906,499.701v4.058h3.281v1.436h-3.281v10.573c0,0.88,0.159,1.535,0.476,1.966
		c0.317,0.43,0.847,0.645,1.589,0.645c0.293,0,0.767-0.049,1.421-0.146l0.073,1.424c-0.459,0.164-1.084,0.246-1.875,0.246
		c-1.201,0-2.075-0.349-2.622-1.047s-0.82-1.727-0.82-3.084v-10.576h-2.915v-1.436h2.915v-4.058h1.758V499.701z"/>
	<path class="st1" d="M550.395,505.253c-0.371-0.068-0.767-0.103-1.187-0.103c-1.094,0-2.019,0.306-2.776,0.916
		s-1.296,1.496-1.619,2.658v10.884h-1.743v-15.85h1.714l0.029,2.52c0.928-1.875,2.417-2.812,4.468-2.812
		c0.488,0,0.874,0.063,1.157,0.19L550.395,505.253z"/>
	<path class="st1" d="M562.608,517.602c-1.055,1.533-2.739,2.3-5.054,2.3c-1.689,0-2.974-0.49-3.853-1.472s-1.328-2.435-1.348-4.358
		V503.76h1.743v10.093c0,3.018,1.221,4.526,3.662,4.526c2.539,0,4.146-1.05,4.819-3.149v-11.47h1.758v15.85h-1.699L562.608,517.602z
		"/>
	<path class="st1" d="M574.002,518.422c1.221,0,2.244-0.344,3.069-1.032s1.272-1.58,1.34-2.674h1.685
		c-0.049,0.967-0.352,1.849-0.908,2.645s-1.296,1.418-2.219,1.867s-1.912,0.674-2.966,0.674c-2.08,0-3.728-0.723-4.944-2.168
		s-1.824-3.389-1.824-5.83v-0.527c0-1.562,0.273-2.944,0.82-4.146s1.331-2.129,2.351-2.783s2.214-0.981,3.582-0.981
		c1.738,0,3.171,0.518,4.299,1.553s1.731,2.397,1.809,4.087h-1.685c-0.078-1.24-0.525-2.241-1.34-3.003s-1.843-1.143-3.083-1.143
		c-1.582,0-2.81,0.571-3.684,1.714s-1.311,2.744-1.311,4.805v0.513c0,2.021,0.437,3.599,1.311,4.731S572.41,518.422,574.002,518.422
		z"/>
	<path class="st1" d="M585.571,499.701v4.058h3.281v1.436h-3.281v10.573c0,0.88,0.159,1.535,0.476,1.966
		c0.317,0.43,0.847,0.645,1.589,0.645c0.293,0,0.767-0.049,1.421-0.146l0.073,1.424c-0.459,0.164-1.084,0.246-1.875,0.246
		c-1.201,0-2.075-0.349-2.622-1.047s-0.82-1.727-0.82-3.084v-10.576h-2.915v-1.436h2.915v-4.058h1.758V499.701z"/>
	<path class="st1" d="M601.931,517.602c-1.055,1.533-2.739,2.3-5.054,2.3c-1.689,0-2.974-0.49-3.853-1.472s-1.328-2.435-1.348-4.358
		V503.76h1.743v10.093c0,3.018,1.221,4.526,3.662,4.526c2.539,0,4.146-1.05,4.819-3.149v-11.47h1.758v15.85h-1.699L601.931,517.602z
		"/>
	<path class="st1" d="M614.789,505.253c-0.371-0.068-0.767-0.103-1.187-0.103c-1.094,0-2.019,0.306-2.776,0.916
		s-1.296,1.496-1.619,2.658v10.884h-1.743v-15.85h1.714l0.029,2.52c0.928-1.875,2.417-2.812,4.468-2.812
		c0.488,0,0.874,0.063,1.157,0.19L614.789,505.253z"/>
	<path class="st1" d="M622.667,519.901c-1.348,0-2.566-0.332-3.655-0.996s-1.936-1.589-2.542-2.775s-0.908-2.518-0.908-3.992v-0.63
		c0-1.523,0.295-2.896,0.886-4.116s1.414-2.18,2.468-2.878s2.197-1.048,3.428-1.048c1.924,0,3.45,0.657,4.578,1.971
		s1.692,3.107,1.692,5.383v0.981h-11.309v0.337c0,1.797,0.515,3.294,1.545,4.49s2.327,1.794,3.889,1.794
		c0.938,0,1.765-0.171,2.483-0.513s1.37-0.889,1.956-1.641l1.099,0.835C626.988,518.969,625.118,519.901,622.667,519.901z
		 M622.345,504.96c-1.318,0-2.429,0.483-3.333,1.45s-1.453,2.266-1.648,3.896h9.507v-0.19c-0.049-1.523-0.483-2.764-1.304-3.721
		S623.673,504.96,622.345,504.96z"/>
	<path class="st1" d="M631.116,518.554c0-0.342,0.11-0.632,0.33-0.871s0.525-0.359,0.916-0.359s0.698,0.12,0.923,0.359
		s0.337,0.529,0.337,0.871s-0.112,0.623-0.337,0.843s-0.532,0.329-0.923,0.329s-0.696-0.109-0.916-0.329
		S631.116,518.896,631.116,518.554z"/>
</g>
</svg>
