<?xml version="1.0" encoding="utf-8"?>
<!-- Generator: Adobe Illustrator 22.0.1, SVG Export Plug-In . SVG Version: 6.00 Build 0)  -->
<svg version="1.1" id="Layer_1" xmlns="http://www.w3.org/2000/svg" xmlns:xlink="http://www.w3.org/1999/xlink" x="0px" y="0px"
	 viewBox="0 0 1600 650" style="enable-background:new 0 0 1600 650;" xml:space="preserve">
<style type="text/css">
	.st0{opacity:0.8;fill:#7BC35F;enable-background:new    ;}
	.st1{fill:#FFFFFF;}
</style>
<rect y="-0.4" class="st0" width="1600" height="721.5"/>
<g>
	<rect x="477.6" y="216" class="st1" width="16.7" height="69.7"/>
	<polygon class="st1" points="387.9,285.7 387.9,269.4 386.2,236.1 403.1,285.7 414.2,285.7 431.1,236.1 429.4,269.4 429.4,285.7 
		446.3,285.7 446.3,216 424.2,216 408.7,264.5 393.1,216 371.1,216 371.1,285.7 	"/>
	<polygon class="st1" points="366.7,285.7 366.7,272.8 335.5,272.8 335.5,256.1 361.9,256.1 361.9,243.7 335.5,243.7 335.5,229 
		366.8,229 366.8,216 318.7,216 318.7,285.7 	"/>
	<polygon class="st1" points="276.3,229 276.3,285.7 293.1,285.7 293.1,229 314,229 314,216 255.8,216 255.8,229 	"/>
	<path class="st1" d="M213.7,321c1.9-3,4.8-4.5,8.9-4.5c4,0,7,0.9,8.9,2.7c1.9,1.8,3,4.8,3.1,8.9h16.2c-0.7-7.5-3.5-13.5-8.5-17.8
		s-11.6-6.5-19.8-6.5c-5.7,0-10.7,1.4-15,4.1c-4.4,2.7-7.7,6.5-10,11.5s-3.5,10.8-3.5,17.4v3.3c0,10.6,2.6,18.7,7.7,24.5
		c5.1,5.8,12.1,8.7,21,8.7c5.4,0,10.2-1,14.4-3s7.5-4.8,9.8-8.4s3.6-7.8,3.8-12.5h-16.2c-0.2,3.8-1.2,6.6-3.2,8.4
		c-2,1.7-4.9,2.6-8.6,2.6c-4.4,0-7.5-1.5-9.3-4.6c-1.9-3.1-2.8-8.2-2.7-15.5v-4.8C210.8,328.9,211.8,324,213.7,321z"/>
	<path class="st1" d="M241.9,249c-3.1-1.8-7.1-3.5-11.9-5c-4.8-1.5-8.2-3-10.1-4.5c-1.9-1.5-2.9-3.1-2.9-4.9c0-2,0.9-3.7,2.6-5
		c1.7-1.3,4.1-2,7.1-2s5.3,0.8,7.1,2.3c1.7,1.6,2.6,3.8,2.6,6.6h16.7c0-4.2-1.1-8-3.3-11.3s-5.3-5.8-9.3-7.6s-8.5-2.7-13.5-2.7
		c-5.1,0-9.8,0.8-13.9,2.5c-4.1,1.6-7.3,3.9-9.5,6.9s-3.4,6.4-3.4,10.2c0,7.8,4.5,13.8,13.5,18.3c2.8,1.4,6.3,2.8,10.7,4.3
		s7.4,2.9,9.2,4.3c1.7,1.4,2.6,3.3,2.6,5.7c0.2,2.2-0.6,3.9-2.2,5.1c-1.6,1.2-3.8,1.8-6.6,1.8c-4.3,0-7.5-0.9-9.4-2.7
		c-1.9-1.8-2.9-4.5-2.9-8.3h-16.8c0,4.6,1.2,8.7,3.5,12.2s5.8,6.3,10.3,8.3c4.6,2,9.7,3,15.3,3c8,0,14.3-1.7,18.9-5.2
		c4.6-3.5,6.9-8.3,6.9-14.4C253.2,259.3,249.4,253.3,241.9,249z"/>
	<path class="st1" d="M277.5,321.2c-4.9,0-9.2,1.1-12.8,3.2c-3.7,2.1-6.5,5.1-8.4,9s-2.9,8.4-2.9,13.4v2.6c0.3,7.3,2.7,13.1,7,17.4
		s10.1,6.4,17.2,6.4c7.4,0,13.3-2.3,17.6-6.9c4.3-4.6,6.5-10.8,6.5-18.6l0.1-0.5c0-8-2.2-14.3-6.5-19
		C290.9,323.5,285,321.2,277.5,321.2z M286,348.2c-0.1,8.5-2.9,12.8-8.5,12.8c-2.8,0-4.9-1-6.4-3.2s-2.2-5.6-2.2-10.2v-2.8
		c0.4-7.7,3.3-11.6,8.5-11.6c5.8,0,8.7,4.5,8.6,13.4V348.2z"/>
	<path class="st1" d="M335.5,357.4c-1.6,2.5-4.1,3.8-7.7,3.8c-4.2,0-6.3-2.1-6.3-6.4v-32.6l-15.6-1v33.5c0,6,1.4,10.6,4.2,13.8
		c2.8,3.2,7,4.8,12.5,4.8c5.6,0,10.1-2.2,13.4-6.4l0.5,5.4h14.7v-50.1h-15.7V357.4z"/>
	<path class="st1" d="M372.8,328.4l-0.5-6.4h-14.7v50.2h15.6v-31.8c1.4-3.1,4.6-4.6,9.5-4.6l5.1,0.4l0.4-14.6
		c-1.3-0.4-2.7-0.6-4.4-0.6C379.1,321,375.4,323.5,372.8,328.4z"/>
	<path class="st1" d="M406.3,332.9c1.1-0.9,2.5-1.4,4.1-1.4c4.3,0,6.4,2,6.4,6h15.7c0-4.9-2-8.8-6-11.8c-4.1-3-9.4-4.5-16-4.5
		c-6.1,0-11.1,1.5-14.9,4.5s-5.7,6.8-5.7,11.4c0,2.6,0.7,4.9,2,6.9s3.3,3.7,5.8,5.1s5.7,2.5,9.6,3.4s6.5,1.7,7.9,2.5
		s2.1,1.9,2.1,3.2c0,1.4-0.5,2.5-1.6,3.4s-2.7,1.3-4.8,1.3c-2.3,0-4.2-0.5-5.7-1.6s-2.2-2.8-2.3-5.1h-14.6c0,2.9,0.9,5.7,2.8,8.4
		c1.9,2.7,4.5,4.8,7.9,6.3s7.2,2.3,11.5,2.3c6.5,0,11.7-1.4,15.8-4.3c4.1-2.9,6.1-6.6,6.1-11.2c0-6.7-3.8-11.4-11.3-14
		c-2.3-0.8-4.9-1.4-7.9-2c-3-0.5-5.1-1.2-6.5-2.1c-1.4-0.8-2.1-2-2.1-3.3C404.6,334.9,405.2,333.8,406.3,332.9z"/>
	<path class="st1" d="M460,321.1c-5,0-9.4,1.1-13,3.2s-6.4,5.2-8.3,9.1s-2.9,8.5-2.9,13.6v1.3c0,7.3,2.3,13.3,7.1,17.9
		c4.8,4.6,11,6.9,18.7,6.9c4.1,0,7.9-0.8,11.5-2.4s6.4-3.7,8.3-6.4l-7.1-8.4c-2.8,3.5-6.7,5.2-11.6,5.2c-3,0-5.4-0.8-7.3-2.4
		s-3.1-3.8-3.7-6.6h31.1V346c0-7.8-2-13.9-6.1-18.3C472.6,323.3,467.1,321.1,460,321.1z M467.4,341.1v1.2h-15.8
		c0.9-6.1,3.6-9.1,8.2-9.1c2.5,0,4.4,0.7,5.7,2.1S467.5,338.6,467.4,341.1z"/>
	<path class="st1" d="M501.9,332.9c1.1-0.9,2.5-1.4,4.1-1.4c4.3,0,6.4,2,6.4,6h15.7c0-4.9-2-8.8-6-11.8c-4.1-3-9.4-4.5-16-4.5
		c-6.1,0-11.1,1.5-14.9,4.5s-5.7,6.8-5.7,11.4c0,2.6,0.7,4.9,2,6.9s3.3,3.7,5.8,5.1s5.7,2.5,9.6,3.4s6.5,1.7,7.9,2.5
		s2.1,1.9,2.1,3.2c0,1.4-0.5,2.5-1.6,3.4s-2.7,1.3-4.8,1.3c-2.3,0-4.2-0.5-5.7-1.6s-2.2-2.8-2.3-5.1h-14.6c0,2.9,0.9,5.7,2.8,8.4
		c1.9,2.7,4.5,4.8,7.9,6.3s7.2,2.3,11.5,2.3c6.5,0,11.7-1.4,15.8-4.3c4.1-2.9,6.1-6.6,6.1-11.2c0-6.7-3.8-11.4-11.3-14
		c-2.3-0.8-4.9-1.4-7.9-2c-3-0.5-5.1-1.2-6.5-2.1c-1.3-0.8-2-2-2.1-3.3C500.2,334.9,500.8,333.8,501.9,332.9z"/>
	<path class="st1" d="M545.1,237.8c-2.7-3.2-6.7-4.8-12.1-4.8c-6.3,0-11.2,2.3-14.8,7l-0.5-6.1h-15.1v51.8h16.1v-36.6
		c1.5-2.5,3.9-3.7,7-3.7c2.8,0,4.7,0.6,5.7,1.8c1.1,1.2,1.6,3.2,1.6,5.8v32.7h16.2v-33.4C549.1,245.8,547.7,241,545.1,237.8z"/>
	<rect x="556.5" y="233.9" class="st1" width="16.2" height="51.8"/>
	<path class="st1" d="M571,214.8c-1.7-1.5-3.8-2.2-6.5-2.2c-2.6,0-4.8,0.7-6.5,2.2s-2.5,3.4-2.5,5.7s0.9,4.2,2.5,5.7
		c1.7,1.5,3.8,2.2,6.5,2.2s4.8-0.7,6.5-2.2s2.5-3.4,2.5-5.7S572.7,216.3,571,214.8z"/>
	<path class="st1" d="M600,272.9c-0.7-0.8-1.1-2.1-1.1-4.1v-23.7h8.5v-11.2h-8.5V221h-16.1v12.9h-6.6v11.2h6.6v25.7
		c0,5.3,1.3,9.3,4,11.9c2.6,2.6,6.7,3.9,12.3,3.9c3.2,0,6.2-0.5,9.1-1.4v-11.5c-1.1,0.2-2.4,0.3-4,0.3
		C602.1,274,600.7,273.6,600,272.9z"/>
	<rect x="612.2" y="233.9" class="st1" width="16.2" height="51.8"/>
	<path class="st1" d="M626.7,214.8c-1.7-1.5-3.8-2.2-6.5-2.2c-2.6,0-4.8,0.7-6.5,2.2s-2.5,3.4-2.5,5.7s0.9,4.2,2.5,5.7
		c1.7,1.5,3.8,2.2,6.5,2.2s4.8-0.7,6.5-2.2s2.5-3.4,2.5-5.7S628.4,216.3,626.7,214.8z"/>
	<path class="st1" d="M678.8,251c-0.1-5.6-2.1-10-5.9-13.3c-3.8-3.2-9-4.8-15.6-4.8s-12,1.6-16.3,4.7c-4.3,3.1-6.4,7.2-6.4,12.2
		h16.1c0-3.8,1.9-5.7,5.7-5.7c4.1,0,6.2,2.4,6.2,7.2v2.7h-4.8v0.1c-7.9,0-13.9,1.4-18.1,4.3c-4.1,2.9-6.2,7.1-6.2,12.7
		c0,4.5,1.7,8.2,5.1,11.1c3.4,3,7.6,4.4,12.4,4.4c5.3,0,9.5-1.9,12.4-5.6c0.4,2,1,3.6,1.5,4.6H681v-0.8c-1.4-2.5-2.1-6.2-2.2-10.9
		V251z M662.8,270.9c-0.6,1.1-1.5,2.1-2.8,2.9c-1.3,0.9-3,1.3-5,1.3c-1.5,0-2.8-0.5-3.8-1.4s-1.5-2.1-1.5-3.6c0-5,2.8-7.6,8.4-7.6
		h4.7L662.8,270.9L662.8,270.9z"/>
	<path class="st1" d="M705.3,272.9c-0.7-0.8-1.1-2.1-1.1-4.1v-23.7h8.5v-11.2h-8.5V221h-16.1v12.9h-6.6v11.2h6.6v25.7
		c0,5.3,1.3,9.3,4,11.9c2.6,2.6,6.7,3.9,12.3,3.9c3.2,0,6.2-0.5,9.1-1.4v-11.5c-1.1,0.2-2.4,0.3-4,0.3
		C707.4,274,706,273.6,705.3,272.9z"/>
	<rect x="717.4" y="233.9" class="st1" width="16.2" height="51.8"/>
	<path class="st1" d="M732,214.8c-1.7-1.5-3.8-2.2-6.5-2.2c-2.6,0-4.8,0.7-6.5,2.2s-2.5,3.4-2.5,5.7s0.8,4.2,2.5,5.7
		s3.8,2.2,6.5,2.2s4.8-0.7,6.5-2.2s2.5-3.4,2.5-5.7S733.7,216.3,732,214.8z"/>
	<polygon class="st1" points="761.7,266.5 753.7,233.9 736.7,233.9 753.5,285.7 770,285.7 786.9,233.9 769.9,233.9 	"/>
	<path class="st1" d="M811.9,232.9c-5.2,0-9.6,1.1-13.4,3.3s-6.6,5.4-8.6,9.4c-2,4.1-2.9,8.7-2.9,14v1.3c0,7.6,2.5,13.8,7.4,18.5
		c4.9,4.9,11.3,7.2,19.3,7.2c4.2,0,8.2-0.8,11.9-2.5s6.5-3.9,8.5-6.6l-7.4-8.7c-2.9,3.6-6.9,5.4-12,5.4c-3.1,0-5.6-0.8-7.6-2.5
		c-1.9-1.7-3.2-3.9-3.8-6.8h32.1v-6.3c0-8.1-2.1-14.4-6.3-18.9S819.1,232.9,811.9,232.9z M819.8,254.7h-16.3
		c0.8-6.2,3.6-9.3,8.4-9.3c2.6,0,4.5,0.7,5.9,2.1c1.4,1.4,2,3.4,2,6L819.8,254.7L819.8,254.7z"/>
	<path class="st1" d="M870.4,256.2c-2.3-0.8-5-1.5-8.1-2.1s-5.3-1.3-6.7-2.2s-2.1-2.1-2.1-3.5s0.6-2.6,1.7-3.5
		c1.1-0.9,2.6-1.4,4.3-1.4c4.4,0,6.6,2.1,6.6,6.2h16.2c0-5-2.1-9.1-6.2-12.2c-4.1-3.1-9.6-4.6-16.5-4.6c-6.3,0-11.5,1.5-15.4,4.6
		s-5.9,7-5.9,11.7c0,2.7,0.7,5.1,2.1,7.1c1.4,2.1,3.4,3.8,6,5.3s5.9,2.6,10,3.5c4,0.9,6.7,1.8,8.2,2.6c1.4,0.8,2.2,1.9,2.2,3.3
		c-0.2,1.6-0.7,2.7-1.8,3.6s-2.8,1.3-5,1.3c-2.4,0-4.4-0.5-5.9-1.7c-1.5-1.1-2.3-2.8-2.4-5.2h-15.1c0,3,1,5.9,2.9,8.7
		c1.9,2.7,4.7,4.9,8.1,6.5c3.5,1.6,7.4,2.4,11.9,2.4c6.7,0,12.1-1.5,16.3-4.5s6.3-6.8,6.3-11.5C882.1,263.7,878.2,258.9,870.4,256.2
		z"/>
</g>
<g>
	<path class="st1" d="M201.5,428.6l0.7,3.3l0.8-3.2l4.6-15.7h1.6l4.6,15.7l0.8,3.2l0.7-3.3l3.9-15.6h1.8l-5.5,21.3h-1.7l-4.8-16.7
		l-0.5-2.1l-0.5,2.1l-5,16.7h-1.7l-5.4-21.3h1.8L201.5,428.6z"/>
	<path class="st1" d="M225.1,421.1c0.6-0.9,1.3-1.7,2.2-2.2s1.9-0.8,2.9-0.8c1.7,0,3,0.5,3.8,1.4c0.8,1,1.2,2.4,1.3,4.3v10.4h-1.7
		v-10.4c0-1.4-0.3-2.5-0.9-3.2s-1.5-1-2.8-1c-1.1,0-2,0.3-2.9,1s-1.5,1.6-1.9,2.7v10.9h-1.7v-22.5h1.7L225.1,421.1L225.1,421.1z"/>
	<path class="st1" d="M238.9,413.9c0-0.3,0.1-0.6,0.3-0.8s0.5-0.3,0.9-0.3s0.7,0.1,0.9,0.3s0.3,0.5,0.3,0.8s-0.1,0.6-0.3,0.8
		c-0.2,0.2-0.5,0.3-0.9,0.3s-0.7-0.1-0.9-0.3S238.9,414.2,238.9,413.9z M241,434.3h-1.8v-15.9h1.8V434.3z"/>
	<path class="st1" d="M247,434.3h-1.8v-22.5h1.8V434.3z"/>
	<path class="st1" d="M257.1,434.6c-1.3,0-2.6-0.3-3.7-1s-1.9-1.6-2.5-2.8s-0.9-2.5-0.9-4v-0.6c0-1.5,0.3-2.9,0.9-4.1
		s1.4-2.2,2.5-2.9s2.2-1,3.4-1c1.9,0,3.4,0.7,4.6,2s1.7,3.1,1.7,5.4v1h-11.3v0.3c0,1.8,0.5,3.3,1.5,4.5s2.3,1.8,3.9,1.8
		c0.9,0,1.8-0.2,2.5-0.5s1.4-0.9,2-1.6l1.1,0.8C261.4,433.7,259.6,434.6,257.1,434.6z M256.8,419.7c-1.3,0-2.4,0.5-3.3,1.5
		s-1.5,2.3-1.6,3.9h9.5v-0.2c0-1.5-0.5-2.8-1.3-3.7S258.1,419.7,256.8,419.7z"/>
	<path class="st1" d="M281.8,430.3c0-0.9-0.3-1.6-1-2.1s-1.8-0.9-3.2-1.2s-2.5-0.6-3.3-1s-1.4-0.9-1.7-1.4s-0.6-1.2-0.6-2
		c0-1.2,0.5-2.3,1.6-3.1s2.4-1.2,4-1.2c1.8,0,3.2,0.4,4.3,1.3s1.6,2,1.6,3.4h-1.8c0-0.9-0.4-1.7-1.2-2.3s-1.8-0.9-2.9-0.9
		c-1.2,0-2.1,0.3-2.8,0.8s-1,1.2-1,2s0.3,1.4,0.9,1.8s1.6,0.8,3.2,1.2s2.7,0.7,3.5,1.2s1.3,0.9,1.7,1.5s0.6,1.3,0.6,2.1
		c0,1.3-0.5,2.4-1.6,3.2s-2.5,1.2-4.2,1.2c-1.8,0-3.3-0.4-4.5-1.3s-1.7-2-1.7-3.4h1.8c0.1,1,0.5,1.8,1.3,2.4s1.8,0.9,3.2,0.9
		c1.2,0,2.2-0.3,3-0.8S281.8,431.1,281.8,430.3z"/>
	<path class="st1" d="M285.8,426.1c0-1.5,0.3-2.9,0.9-4.1s1.4-2.2,2.5-2.8s2.3-1,3.7-1c2.1,0,3.8,0.7,5.1,2.2s2,3.4,2,5.9v0.4
		c0,1.5-0.3,2.9-0.9,4.1s-1.4,2.2-2.5,2.8s-2.3,1-3.7,1c-2.1,0-3.8-0.7-5.1-2.2s-2-3.4-2-5.9V426.1z M287.5,426.6
		c0,1.9,0.5,3.4,1.5,4.7s2.3,1.8,3.9,1.8s2.9-0.6,3.8-1.8s1.5-2.8,1.5-4.8v-0.3c0-1.2-0.2-2.3-0.7-3.3s-1.1-1.8-1.9-2.3
		s-1.7-0.8-2.8-0.8c-1.6,0-2.8,0.6-3.8,1.8s-1.5,2.8-1.5,4.8V426.6z"/>
	<path class="st1" d="M304.4,418.5l0.1,2.6c0.6-1,1.3-1.7,2.2-2.2s1.9-0.7,2.9-0.7c2.5,0,4.1,1,4.8,3.1c0.6-1,1.3-1.7,2.3-2.3
		s2-0.8,3.1-0.8c3.4,0,5.1,1.9,5.2,5.6v10.6h-1.8V424c0-1.4-0.3-2.5-0.9-3.1s-1.6-1-2.9-1s-2.3,0.4-3.2,1.2s-1.4,1.8-1.5,2.9v10.5
		h-1.8v-10.8c0-1.4-0.3-2.4-1-3s-1.6-1-2.9-1c-1.1,0-2.1,0.3-2.8,0.9s-1.4,1.6-1.8,2.8v10.9h-1.8v-15.9h1.8L304.4,418.5L304.4,418.5
		z"/>
	<path class="st1" d="M334.8,434.6c-1.3,0-2.6-0.3-3.7-1s-1.9-1.6-2.5-2.8s-0.9-2.5-0.9-4v-0.6c0-1.5,0.3-2.9,0.9-4.1
		s1.4-2.2,2.5-2.9s2.2-1,3.4-1c1.9,0,3.4,0.7,4.6,2s1.7,3.1,1.7,5.4v1h-11.3v0.3c0,1.8,0.5,3.3,1.5,4.5s2.3,1.8,3.9,1.8
		c0.9,0,1.8-0.2,2.5-0.5s1.4-0.9,2-1.6l1.1,0.8C339.1,433.7,337.2,434.6,334.8,434.6z M334.4,419.7c-1.3,0-2.4,0.5-3.3,1.5
		s-1.5,2.3-1.6,3.9h9.5v-0.2c0-1.5-0.5-2.8-1.3-3.7S335.8,419.7,334.4,419.7z"/>
	<path class="st1" d="M359.4,430.3c0-0.9-0.3-1.6-1-2.1s-1.8-0.9-3.2-1.2s-2.5-0.6-3.3-1s-1.4-0.9-1.7-1.4s-0.6-1.2-0.6-2
		c0-1.2,0.5-2.3,1.6-3.1s2.4-1.2,4-1.2c1.8,0,3.2,0.4,4.3,1.3s1.6,2,1.6,3.4h-1.8c0-0.9-0.4-1.7-1.2-2.3s-1.8-0.9-2.9-0.9
		c-1.2,0-2.1,0.3-2.8,0.8s-1,1.2-1,2s0.3,1.4,0.9,1.8s1.6,0.8,3.2,1.2s2.7,0.7,3.5,1.2s1.3,0.9,1.7,1.5s0.6,1.3,0.6,2.1
		c0,1.3-0.5,2.4-1.6,3.2s-2.5,1.2-4.2,1.2c-1.8,0-3.3-0.4-4.5-1.3s-1.7-2-1.7-3.4h1.8c0.1,1,0.5,1.8,1.3,2.4s1.8,0.9,3.2,0.9
		c1.2,0,2.2-0.3,3-0.8S359.4,431.1,359.4,430.3z"/>
	<path class="st1" d="M370.2,433.1c1.2,0,2.2-0.3,3.1-1s1.3-1.6,1.3-2.7h1.7c0,1-0.4,1.8-0.9,2.6s-1.3,1.4-2.2,1.9s-1.9,0.7-3,0.7
		c-2.1,0-3.7-0.7-4.9-2.2s-1.8-3.4-1.8-5.8v-0.5c0-1.6,0.3-2.9,0.8-4.1s1.3-2.1,2.4-2.8c1-0.7,2.2-1,3.6-1c1.7,0,3.2,0.5,4.3,1.6
		c1.1,1,1.7,2.4,1.8,4.1h-1.7c-0.1-1.2-0.5-2.2-1.3-3s-1.8-1.1-3.1-1.1c-1.6,0-2.8,0.6-3.7,1.7s-1.3,2.7-1.3,4.8v0.5
		c0,2,0.4,3.6,1.3,4.7S368.6,433.1,370.2,433.1z"/>
	<path class="st1" d="M380.8,421.1c0.6-0.9,1.3-1.7,2.2-2.2s1.9-0.8,2.9-0.8c1.7,0,3,0.5,3.8,1.4c0.8,1,1.2,2.4,1.3,4.3v10.4h-1.7
		v-10.4c0-1.4-0.3-2.5-0.9-3.2s-1.5-1-2.8-1c-1.1,0-2,0.3-2.9,1s-1.5,1.6-1.9,2.7v10.9H379v-22.5h1.7L380.8,421.1L380.8,421.1z"/>
	<path class="st1" d="M393.8,426.1c0-1.5,0.3-2.9,0.9-4.1s1.4-2.2,2.5-2.8s2.3-1,3.7-1c2.1,0,3.8,0.7,5.1,2.2s2,3.4,2,5.9v0.4
		c0,1.5-0.3,2.9-0.9,4.1s-1.4,2.2-2.5,2.8s-2.3,1-3.7,1c-2.1,0-3.8-0.7-5.1-2.2s-2-3.4-2-5.9V426.1z M395.6,426.6
		c0,1.9,0.5,3.4,1.5,4.7s2.3,1.8,3.9,1.8s2.9-0.6,3.8-1.8s1.5-2.8,1.5-4.8v-0.3c0-1.2-0.2-2.3-0.7-3.3s-1.1-1.8-1.9-2.3
		s-1.7-0.8-2.8-0.8c-1.6,0-2.8,0.6-3.8,1.8s-1.5,2.8-1.5,4.8V426.6z"/>
	<path class="st1" d="M409.8,426.1c0-1.5,0.3-2.9,0.9-4.1s1.4-2.2,2.5-2.8s2.3-1,3.7-1c2.1,0,3.8,0.7,5.1,2.2s2,3.4,2,5.9v0.4
		c0,1.5-0.3,2.9-0.9,4.1s-1.4,2.2-2.5,2.8s-2.3,1-3.7,1c-2.1,0-3.8-0.7-5.1-2.2s-2-3.4-2-5.9V426.1z M411.6,426.6
		c0,1.9,0.5,3.4,1.5,4.7s2.3,1.8,3.9,1.8s2.9-0.6,3.8-1.8s1.5-2.8,1.5-4.8v-0.3c0-1.2-0.2-2.3-0.7-3.3s-1.1-1.8-1.9-2.3
		s-1.7-0.8-2.8-0.8c-1.6,0-2.8,0.6-3.8,1.8s-1.5,2.8-1.5,4.8V426.6z"/>
	<path class="st1" d="M428.8,434.3H427v-22.5h1.8V434.3z"/>
	<path class="st1" d="M442.3,430.3c0-0.9-0.3-1.6-1-2.1s-1.8-0.9-3.2-1.2s-2.5-0.6-3.3-1s-1.4-0.9-1.7-1.4s-0.6-1.2-0.6-2
		c0-1.2,0.5-2.3,1.6-3.1s2.4-1.2,4-1.2c1.8,0,3.2,0.4,4.3,1.3s1.6,2,1.6,3.4h-1.8c0-0.9-0.4-1.7-1.2-2.3s-1.8-0.9-2.9-0.9
		c-1.2,0-2.1,0.3-2.8,0.8s-1,1.2-1,2s0.3,1.4,0.9,1.8s1.6,0.8,3.2,1.2s2.7,0.7,3.5,1.2s1.3,0.9,1.7,1.5s0.6,1.3,0.6,2.1
		c0,1.3-0.5,2.4-1.6,3.2s-2.5,1.2-4.2,1.2c-1.8,0-3.3-0.4-4.5-1.3s-1.7-2-1.7-3.4h1.8c0.1,1,0.5,1.8,1.3,2.4s1.8,0.9,3.2,0.9
		c1.2,0,2.2-0.3,3-0.8S442.3,431.1,442.3,430.3z"/>
	<path class="st1" d="M463.8,434.3c-0.2-0.5-0.3-1.2-0.3-2.2c-0.6,0.8-1.4,1.4-2.4,1.9s-2,0.7-3,0.7c-1.5,0-2.8-0.4-3.7-1.3
		s-1.4-1.9-1.4-3.2c0-1.5,0.6-2.8,1.9-3.7s3.1-1.3,5.4-1.3h3.2v-1.8c0-1.1-0.3-2-1-2.7s-1.7-1-3.1-1c-1.2,0-2.2,0.3-3,0.9
		s-1.2,1.4-1.2,2.3h-1.8c0-1.3,0.6-2.4,1.8-3.3s2.6-1.4,4.3-1.4c1.8,0,3.2,0.4,4.2,1.3s1.5,2.1,1.6,3.7v7.5c0,1.5,0.2,2.7,0.5,3.4
		v0.2H463.8z M458.3,433c1.2,0,2.2-0.3,3.1-0.8s1.6-1.3,2-2.3v-3.5h-3.1c-1.7,0-3.1,0.3-4.1,1s-1.5,1.5-1.5,2.6c0,0.9,0.3,1.6,1,2.2
		S457.3,433,458.3,433z"/>
	<path class="st1" d="M471.1,434.3h-1.8v-22.5h1.8V434.3z"/>
	<path class="st1" d="M482.4,420c-0.4-0.1-0.8-0.1-1.2-0.1c-1.1,0-2,0.3-2.8,0.9s-1.3,1.5-1.6,2.7v10.9h-1.7v-15.9h1.7v2.5
		c0.9-1.9,2.4-2.8,4.5-2.8c0.5,0,0.9,0.1,1.2,0.2L482.4,420z"/>
	<path class="st1" d="M490.3,434.6c-1.3,0-2.6-0.3-3.7-1s-1.9-1.6-2.5-2.8s-0.9-2.5-0.9-4v-0.6c0-1.5,0.3-2.9,0.9-4.1
		s1.4-2.2,2.5-2.9s2.2-1,3.4-1c1.9,0,3.4,0.7,4.6,2s1.7,3.1,1.7,5.4v1H485v0.3c0,1.8,0.5,3.3,1.5,4.5s2.3,1.8,3.9,1.8
		c0.9,0,1.8-0.2,2.5-0.5s1.4-0.9,2-1.6l1.1,0.8C494.6,433.7,492.8,434.6,490.3,434.6z M490,419.7c-1.3,0-2.4,0.5-3.3,1.5
		s-1.5,2.3-1.6,3.9h9.5v-0.2c0-1.5-0.5-2.8-1.3-3.7S491.3,419.7,490,419.7z"/>
	<path class="st1" d="M508.9,434.3c-0.2-0.5-0.3-1.2-0.3-2.2c-0.6,0.8-1.4,1.4-2.4,1.9s-2,0.7-3,0.7c-1.5,0-2.8-0.4-3.7-1.3
		s-1.4-1.9-1.4-3.2c0-1.5,0.6-2.8,1.9-3.7s3.1-1.3,5.4-1.3h3.2v-1.8c0-1.1-0.3-2-1-2.7s-1.7-1-3.1-1c-1.2,0-2.2,0.3-3,0.9
		s-1.2,1.4-1.2,2.3h-1.8c0-1.3,0.6-2.4,1.8-3.3s2.6-1.4,4.3-1.4c1.8,0,3.2,0.4,4.2,1.3s1.5,2.1,1.6,3.7v7.5c0,1.5,0.2,2.7,0.5,3.4
		v0.2H508.9z M503.4,433c1.2,0,2.2-0.3,3.1-0.8s1.6-1.3,2-2.3v-3.5h-3.1c-1.7,0-3.1,0.3-4.1,1s-1.5,1.5-1.5,2.6c0,0.9,0.3,1.6,1,2.2
		S502.4,433,503.4,433z"/>
	<path class="st1" d="M513.5,426.2c0-2.5,0.5-4.4,1.6-5.9s2.6-2.2,4.5-2.2c2.1,0,3.8,0.8,4.9,2.5v-8.9h1.7v22.5h-1.6l-0.1-2.1
		c-1.1,1.6-2.8,2.4-5,2.4c-1.8,0-3.3-0.7-4.4-2.2S513.4,428.8,513.5,426.2L513.5,426.2L513.5,426.2z M515.3,426.5
		c0,2,0.4,3.6,1.2,4.8s2,1.8,3.4,1.8c2.2,0,3.7-1,4.6-2.9v-7.4c-0.9-2.1-2.4-3.1-4.6-3.1c-1.5,0-2.6,0.6-3.4,1.7
		S515.3,424.3,515.3,426.5z"/>
	<path class="st1" d="M535.2,431.8l4.6-13.3h1.9l-6.8,18.5l-0.4,0.8c-0.9,1.9-2.2,2.9-4,2.9c-0.4,0-0.9-0.1-1.3-0.2V439l0.9,0.1
		c0.9,0,1.6-0.2,2.1-0.6s1-1.2,1.4-2.2l0.8-2.1l-6-15.7h1.9L535.2,431.8z"/>
	<path class="st1" d="M552,421.1c0.6-0.9,1.3-1.7,2.2-2.2s1.9-0.8,2.9-0.8c1.7,0,3,0.5,3.8,1.4c0.8,1,1.2,2.4,1.3,4.3v10.4h-1.7
		v-10.4c0-1.4-0.3-2.5-0.9-3.2s-1.5-1-2.8-1c-1.1,0-2,0.3-2.9,1s-1.5,1.6-1.9,2.7v10.9h-1.7v-22.5h1.7L552,421.1L552,421.1z"/>
	<path class="st1" d="M575.9,434.3c-0.2-0.5-0.3-1.2-0.3-2.2c-0.6,0.8-1.4,1.4-2.4,1.9s-2,0.7-3,0.7c-1.5,0-2.8-0.4-3.7-1.3
		s-1.4-1.9-1.4-3.2c0-1.5,0.6-2.8,1.9-3.7s3.1-1.3,5.4-1.3h3.2v-1.8c0-1.1-0.3-2-1-2.7s-1.7-1-3.1-1c-1.2,0-2.2,0.3-3,0.9
		s-1.2,1.4-1.2,2.3h-1.8c0-1.3,0.6-2.4,1.8-3.3s2.6-1.4,4.3-1.4c1.8,0,3.2,0.4,4.2,1.3s1.5,2.1,1.6,3.7v7.5c0,1.5,0.2,2.7,0.5,3.4
		v0.2H575.9z M570.4,433c1.2,0,2.2-0.3,3.1-0.8s1.6-1.3,2-2.3v-3.5h-3.1c-1.7,0-3.1,0.3-4.1,1s-1.5,1.5-1.5,2.6c0,0.9,0.3,1.6,1,2.2
		S569.4,433,570.4,433z"/>
	<path class="st1" d="M586,431.9l4.8-13.4h1.8l-5.9,15.9h-1.4l-5.9-15.9h1.8L586,431.9z"/>
	<path class="st1" d="M600.7,434.6c-1.3,0-2.6-0.3-3.7-1s-1.9-1.6-2.5-2.8s-0.9-2.5-0.9-4v-0.6c0-1.5,0.3-2.9,0.9-4.1
		s1.4-2.2,2.5-2.9s2.2-1,3.4-1c1.9,0,3.4,0.7,4.6,2s1.7,3.1,1.7,5.4v1h-11.3v0.3c0,1.8,0.5,3.3,1.5,4.5s2.3,1.8,3.9,1.8
		c0.9,0,1.8-0.2,2.5-0.5s1.4-0.9,2-1.6l1.1,0.8C605,433.7,603.1,434.6,600.7,434.6z M600.3,419.7c-1.3,0-2.4,0.5-3.3,1.5
		s-1.5,2.3-1.6,3.9h9.5v-0.2c0-1.5-0.5-2.8-1.3-3.7S601.7,419.7,600.3,419.7z"/>
	<path class="st1" d="M621.7,433.1c1.2,0,2.2-0.3,3.1-1s1.3-1.6,1.3-2.7h1.7c0,1-0.4,1.8-0.9,2.6s-1.3,1.4-2.2,1.9s-1.9,0.7-3,0.7
		c-2.1,0-3.7-0.7-4.9-2.2s-1.8-3.4-1.8-5.8v-0.5c0-1.6,0.3-2.9,0.8-4.1s1.3-2.1,2.4-2.8c1-0.7,2.2-1,3.6-1c1.7,0,3.2,0.5,4.3,1.6
		c1.1,1,1.7,2.4,1.8,4.1h-1.7c-0.1-1.2-0.5-2.2-1.3-3s-1.8-1.1-3.1-1.1c-1.6,0-2.8,0.6-3.7,1.7s-1.3,2.7-1.3,4.8v0.5
		c0,2,0.4,3.6,1.3,4.7S620.1,433.1,621.7,433.1z"/>
	<path class="st1" d="M632.5,434.3h-1.8v-22.5h1.8V434.3z"/>
	<path class="st1" d="M642.6,434.6c-1.3,0-2.6-0.3-3.7-1s-1.9-1.6-2.5-2.8s-0.9-2.5-0.9-4v-0.6c0-1.5,0.3-2.9,0.9-4.1
		s1.4-2.2,2.5-2.9s2.2-1,3.4-1c1.9,0,3.4,0.7,4.6,2s1.7,3.1,1.7,5.4v1h-11.3v0.3c0,1.8,0.5,3.3,1.5,4.5s2.3,1.8,3.9,1.8
		c0.9,0,1.8-0.2,2.5-0.5s1.4-0.9,2-1.6l1.1,0.8C647,433.7,645.1,434.6,642.6,434.6z M642.3,419.7c-1.3,0-2.4,0.5-3.3,1.5
		s-1.5,2.3-1.6,3.9h9.5v-0.2c0-1.5-0.5-2.8-1.3-3.7S643.6,419.7,642.3,419.7z"/>
	<path class="st1" d="M661.2,434.3c-0.2-0.5-0.3-1.2-0.3-2.2c-0.6,0.8-1.4,1.4-2.4,1.9s-2,0.7-3,0.7c-1.5,0-2.8-0.4-3.7-1.3
		s-1.4-1.9-1.4-3.2c0-1.5,0.6-2.8,1.9-3.7s3.1-1.3,5.4-1.3h3.2v-1.8c0-1.1-0.3-2-1-2.7s-1.7-1-3.1-1c-1.2,0-2.2,0.3-3,0.9
		s-1.2,1.4-1.2,2.3h-1.8c0-1.3,0.6-2.4,1.8-3.3s2.6-1.4,4.3-1.4c1.8,0,3.2,0.4,4.2,1.3s1.5,2.1,1.6,3.7v7.5c0,1.5,0.2,2.7,0.5,3.4
		v0.2H661.2z M655.7,433c1.2,0,2.2-0.3,3.1-0.8s1.6-1.3,2-2.3v-3.5h-3.1c-1.7,0-3.1,0.3-4.1,1s-1.5,1.5-1.5,2.6c0,0.9,0.3,1.6,1,2.2
		S654.7,433,655.7,433z"/>
	<path class="st1" d="M673.9,420c-0.4-0.1-0.8-0.1-1.2-0.1c-1.1,0-2,0.3-2.8,0.9s-1.3,1.5-1.6,2.7v10.9h-1.7v-15.9h1.7v2.5
		c0.9-1.9,2.4-2.8,4.5-2.8c0.5,0,0.9,0.1,1.2,0.2L673.9,420z"/>
	<path class="st1" d="M681.7,426.2c0-2.5,0.5-4.4,1.6-5.9s2.6-2.2,4.5-2.2c2.2,0,3.8,0.9,4.9,2.6l0.1-2.3h1.6v15.5
		c0,2-0.6,3.7-1.7,4.8s-2.7,1.8-4.6,1.8c-1.1,0-2.2-0.2-3.2-0.7s-1.8-1.1-2.4-2l1-1.1c1.2,1.5,2.7,2.3,4.4,2.3
		c1.5,0,2.6-0.4,3.4-1.3s1.2-2.1,1.3-3.6v-2c-1.1,1.6-2.8,2.3-4.9,2.3c-1.8,0-3.3-0.7-4.4-2.2s-1.7-3.4-1.7-5.9v-0.1L681.7,426.2
		L681.7,426.2z M683.5,426.5c0,2,0.4,3.6,1.2,4.8s2,1.8,3.4,1.8c2.2,0,3.7-1,4.6-2.9v-7.4c-0.4-1-1-1.8-1.8-2.3s-1.7-0.8-2.8-0.8
		c-1.5,0-2.6,0.6-3.4,1.7S683.5,424.3,683.5,426.5z"/>
	<path class="st1" d="M697.4,426.1c0-1.5,0.3-2.9,0.9-4.1s1.4-2.2,2.5-2.8s2.3-1,3.7-1c2.1,0,3.8,0.7,5.1,2.2s2,3.4,2,5.9v0.4
		c0,1.5-0.3,2.9-0.9,4.1s-1.4,2.2-2.5,2.8s-2.3,1-3.7,1c-2.1,0-3.8-0.7-5.1-2.2s-2-3.4-2-5.9V426.1z M699.1,426.6
		c0,1.9,0.5,3.4,1.5,4.7s2.3,1.8,3.9,1.8c1.6,0,2.9-0.6,3.8-1.8s1.5-2.8,1.5-4.8v-0.3c0-1.2-0.2-2.3-0.7-3.3s-1.1-1.8-1.9-2.3
		s-1.7-0.8-2.8-0.8c-1.6,0-2.8,0.6-3.8,1.8s-1.5,2.8-1.5,4.8V426.6z"/>
	<path class="st1" d="M724.4,434.3c-0.2-0.5-0.3-1.2-0.3-2.2c-0.6,0.8-1.4,1.4-2.4,1.9s-2,0.7-3,0.7c-1.5,0-2.8-0.4-3.7-1.3
		s-1.4-1.9-1.4-3.2c0-1.5,0.6-2.8,1.9-3.7s3.1-1.3,5.4-1.3h3.2v-1.8c0-1.1-0.3-2-1-2.7s-1.7-1-3.1-1c-1.2,0-2.2,0.3-3,0.9
		s-1.2,1.4-1.2,2.3H714c0-1.3,0.6-2.4,1.8-3.3s2.6-1.4,4.3-1.4c1.8,0,3.2,0.4,4.2,1.3s1.5,2.1,1.6,3.7v7.5c0,1.5,0.2,2.7,0.5,3.4
		v0.2H724.4z M718.9,433c1.2,0,2.2-0.3,3.1-0.8s1.6-1.3,2-2.3v-3.5h-3.1c-1.7,0-3.1,0.3-4.1,1s-1.5,1.5-1.5,2.6c0,0.9,0.3,1.6,1,2.2
		S717.8,433,718.9,433z"/>
	<path class="st1" d="M731.7,434.3h-1.8v-22.5h1.8V434.3z"/>
	<path class="st1" d="M745.2,430.3c0-0.9-0.3-1.6-1-2.1s-1.8-0.9-3.2-1.2s-2.5-0.6-3.3-1s-1.4-0.9-1.7-1.4s-0.6-1.2-0.6-2
		c0-1.2,0.5-2.3,1.6-3.1s2.4-1.2,4-1.2c1.8,0,3.2,0.4,4.3,1.3s1.6,2,1.6,3.4h-1.8c0-0.9-0.4-1.7-1.2-2.3s-1.8-0.9-2.9-0.9
		c-1.2,0-2.1,0.3-2.8,0.8s-1,1.2-1,2s0.3,1.4,0.9,1.8s1.6,0.8,3.2,1.2s2.7,0.7,3.5,1.2s1.3,0.9,1.7,1.5s0.6,1.3,0.6,2.1
		c0,1.3-0.5,2.4-1.6,3.2s-2.5,1.2-4.2,1.2c-1.8,0-3.3-0.4-4.5-1.3s-1.7-2-1.7-3.4h1.8c0.1,1,0.5,1.8,1.3,2.4s1.8,0.9,3.2,0.9
		c1.2,0,2.2-0.3,3-0.8S745.2,431.1,745.2,430.3z"/>
	<path class="st1" d="M757.9,434.3v-14.4h-2.6v-1.4h2.6v-1.9c0-1.6,0.4-2.9,1.2-3.7s2-1.3,3.4-1.3c0.7,0,1.3,0.1,1.9,0.2l-0.1,1.5
		c-0.5-0.1-1-0.2-1.6-0.2c-1,0-1.7,0.3-2.3,0.9s-0.8,1.5-0.8,2.6v2h3.8v1.4h-3.8v14.4h-1.7L757.9,434.3L757.9,434.3z"/>
	<path class="st1" d="M764.9,426.1c0-1.5,0.3-2.9,0.9-4.1s1.4-2.2,2.5-2.8s2.3-1,3.7-1c2.1,0,3.8,0.7,5.1,2.2s2,3.4,2,5.9v0.4
		c0,1.5-0.3,2.9-0.9,4.1s-1.4,2.2-2.5,2.8s-2.3,1-3.7,1c-2.1,0-3.8-0.7-5.1-2.2s-2-3.4-2-5.9V426.1z M766.6,426.6
		c0,1.9,0.5,3.4,1.5,4.7s2.3,1.8,3.9,1.8c1.6,0,2.9-0.6,3.8-1.8s1.5-2.8,1.5-4.8v-0.3c0-1.2-0.2-2.3-0.7-3.3s-1.1-1.8-1.9-2.3
		s-1.7-0.8-2.8-0.8c-1.6,0-2.8,0.6-3.8,1.8s-1.5,2.8-1.5,4.8V426.6z"/>
	<path class="st1" d="M789.2,420c-0.4-0.1-0.8-0.1-1.2-0.1c-1.1,0-2,0.3-2.8,0.9s-1.3,1.5-1.6,2.7v10.9h-1.7v-15.9h1.7v2.5
		c0.9-1.9,2.4-2.8,4.5-2.8c0.5,0,0.9,0.1,1.2,0.2L789.2,420z"/>
	<path class="st1" d="M800.5,414.4v4.1h3.3v1.4h-3.3v10.6c0,0.9,0.2,1.5,0.5,2c0.3,0.4,0.8,0.6,1.6,0.6c0.3,0,0.8,0,1.4-0.1l0.1,1.4
		c-0.5,0.2-1.1,0.2-1.9,0.2c-1.2,0-2.1-0.3-2.6-1s-0.8-1.7-0.8-3.1v-10.6h-2.9v-1.4h2.9v-4.1H800.5z"/>
	<path class="st1" d="M808.4,421.1c0.6-0.9,1.3-1.7,2.2-2.2s1.9-0.8,2.9-0.8c1.7,0,3,0.5,3.8,1.4c0.8,1,1.2,2.4,1.3,4.3v10.4h-1.7
		v-10.4c0-1.4-0.3-2.5-0.9-3.2s-1.5-1-2.8-1c-1.1,0-2,0.3-2.9,1s-1.5,1.6-1.9,2.7v10.9h-1.7v-22.5h1.7L808.4,421.1L808.4,421.1z"/>
	<path class="st1" d="M828.5,434.6c-1.3,0-2.6-0.3-3.7-1s-1.9-1.6-2.5-2.8s-0.9-2.5-0.9-4v-0.6c0-1.5,0.3-2.9,0.9-4.1
		s1.4-2.2,2.5-2.9s2.2-1,3.4-1c1.9,0,3.5,0.7,4.6,2s1.7,3.1,1.7,5.4v1h-11.3v0.3c0,1.8,0.5,3.3,1.5,4.5s2.3,1.8,3.9,1.8
		c0.9,0,1.8-0.2,2.5-0.5s1.4-0.9,2-1.6l1.1,0.8C832.9,433.7,831,434.6,828.5,434.6z M828.2,419.7c-1.3,0-2.4,0.5-3.3,1.5
		s-1.5,2.3-1.6,3.9h9.5v-0.2c0-1.5-0.5-2.8-1.3-3.7S829.5,419.7,828.2,419.7z"/>
	<path class="st1" d="M837,413.9c0-0.3,0.1-0.6,0.3-0.8s0.5-0.3,0.9-0.3s0.7,0.1,0.9,0.3c0.2,0.2,0.3,0.5,0.3,0.8s-0.1,0.6-0.3,0.8
		c-0.2,0.2-0.5,0.3-0.9,0.3s-0.7-0.1-0.9-0.3S837,414.2,837,413.9z M839.1,434.3h-1.8v-15.9h1.8V434.3z"/>
	<path class="st1" d="M850.4,420c-0.4-0.1-0.8-0.1-1.2-0.1c-1.1,0-2,0.3-2.8,0.9s-1.3,1.5-1.6,2.7v10.9h-1.7v-15.9h1.7v2.5
		c0.9-1.9,2.4-2.8,4.5-2.8c0.5,0,0.9,0.1,1.2,0.2L850.4,420z"/>
	<path class="st1" d="M871.5,429.1c0-1.2-0.4-2.1-1.2-2.8s-2.3-1.3-4.6-2s-3.8-1.3-4.8-2c-1.4-1-2.2-2.4-2.2-4.1c0-1.6,0.7-3,2-4
		s3.1-1.5,5.1-1.5c1.4,0,2.7,0.3,3.8,0.8s2,1.3,2.6,2.3s0.9,2.1,0.9,3.3h-1.8c0-1.5-0.5-2.6-1.5-3.5s-2.3-1.3-4-1.3
		c-1.6,0-2.9,0.4-3.9,1.1s-1.5,1.7-1.5,2.9c0,1.1,0.4,2,1.3,2.7s2.3,1.3,4.2,1.8s3.4,1.1,4.4,1.6s1.7,1.2,2.2,2s0.7,1.7,0.7,2.8
		c0,1.7-0.7,3-2,4s-3.1,1.5-5.3,1.5c-1.5,0-2.9-0.3-4.1-0.8s-2.2-1.3-2.9-2.3s-1-2.1-1-3.3h1.8c0,1.5,0.6,2.7,1.7,3.6
		s2.6,1.3,4.5,1.3c1.7,0,3-0.4,4-1.1S871.5,430.3,871.5,429.1z"/>
	<path class="st1" d="M890.9,414.5h-7.3v19.8h-1.8v-19.8h-7.3V413h16.4L890.9,414.5L890.9,414.5z"/>
	<path class="st1" d="M905.4,424.1h-10v8.7h11.5v1.5h-13.3V413h13.2v1.5h-11.4v8.1h10V424.1z"/>
	<path class="st1" d="M912.3,413l7.9,18.8l7.9-18.8h2.4v21.3h-1.8V425l0.1-9.5l-7.9,18.8h-1.4l-7.9-18.7l0.1,9.4v9.3h-1.8V413H912.3
		L912.3,413z"/>
	<path class="st1" d="M209.9,462.5c0,2.5-0.5,4.4-1.6,5.9s-2.6,2.2-4.4,2.2c-2.2,0-3.8-0.8-5-2.3v8.1h-1.7v-21.9h1.6l0.1,2.2
		c1.1-1.7,2.8-2.5,5-2.5c1.9,0,3.4,0.7,4.5,2.2s1.6,3.4,1.6,6v0.1L209.9,462.5L209.9,462.5z M208.2,462.2c0-2-0.4-3.6-1.2-4.8
		s-2-1.8-3.5-1.8c-1.1,0-2,0.3-2.8,0.8s-1.4,1.3-1.8,2.3v7.6c0.4,0.9,1,1.6,1.8,2.1s1.7,0.7,2.8,0.7c1.5,0,2.6-0.6,3.4-1.8
		S208.2,464.5,208.2,462.2z"/>
	<path class="st1" d="M220.4,456c-0.4-0.1-0.8-0.1-1.2-0.1c-1.1,0-2,0.3-2.8,0.9s-1.3,1.5-1.6,2.7v10.9h-1.7v-15.8h1.7v2.5
		c0.9-1.9,2.4-2.8,4.5-2.8c0.5,0,0.9,0.1,1.2,0.2L220.4,456z"/>
	<path class="st1" d="M221.1,462.1c0-1.5,0.3-2.9,0.9-4.1s1.4-2.2,2.5-2.8s2.3-1,3.7-1c2.1,0,3.8,0.7,5.1,2.2s2,3.4,2,5.9v0.4
		c0,1.5-0.3,2.9-0.9,4.1s-1.4,2.2-2.5,2.8s-2.3,1-3.7,1c-2.1,0-3.8-0.7-5.1-2.2s-2-3.4-2-5.9V462.1z M222.9,462.6
		c0,1.9,0.5,3.4,1.5,4.7s2.3,1.8,3.9,1.8c1.6,0,2.9-0.6,3.8-1.8s1.5-2.8,1.5-4.8v-0.3c0-1.2-0.2-2.3-0.7-3.3s-1.1-1.8-1.9-2.3
		s-1.7-0.8-2.8-0.8c-1.6,0-2.8,0.6-3.8,1.8s-1.5,2.8-1.5,4.8V462.6z"/>
	<path class="st1" d="M237.5,462.2c0-2.5,0.5-4.4,1.6-5.9s2.6-2.2,4.5-2.2c2.2,0,3.8,0.9,4.9,2.6l0.1-2.3h1.6v15.5
		c0,2-0.6,3.7-1.7,4.8s-2.7,1.8-4.6,1.8c-1.1,0-2.2-0.2-3.2-0.7s-1.8-1.1-2.4-2l1-1.1c1.2,1.5,2.7,2.3,4.4,2.3
		c1.5,0,2.6-0.4,3.4-1.3s1.2-2.1,1.3-3.6v-2c-1.1,1.6-2.8,2.3-4.9,2.3c-1.8,0-3.3-0.7-4.4-2.2S237.4,464.8,237.5,462.2L237.5,462.2
		L237.5,462.2z M239.2,462.5c0,2,0.4,3.6,1.2,4.8s2,1.8,3.4,1.8c2.2,0,3.7-1,4.6-2.9v-7.4c-0.4-1-1-1.8-1.8-2.3s-1.7-0.8-2.8-0.8
		c-1.5,0-2.6,0.6-3.4,1.7S239.2,460.3,239.2,462.5z"/>
	<path class="st1" d="M261.4,456c-0.4-0.1-0.8-0.1-1.2-0.1c-1.1,0-2,0.3-2.8,0.9s-1.3,1.5-1.6,2.7v10.9h-1.7v-15.8h1.7v2.5
		c0.9-1.9,2.4-2.8,4.5-2.8c0.5,0,0.9,0.1,1.2,0.2L261.4,456z"/>
	<path class="st1" d="M272.8,470.3c-0.2-0.5-0.3-1.2-0.3-2.2c-0.6,0.8-1.4,1.4-2.4,1.9s-2,0.7-3,0.7c-1.5,0-2.8-0.4-3.7-1.3
		s-1.4-1.9-1.4-3.2c0-1.5,0.6-2.8,1.9-3.7s3.1-1.3,5.4-1.3h3.2v-1.8c0-1.1-0.3-2-1-2.7s-1.7-1-3.1-1c-1.2,0-2.2,0.3-3,0.9
		s-1.2,1.4-1.2,2.3h-1.8c0-1.3,0.6-2.4,1.8-3.3s2.6-1.4,4.3-1.4c1.8,0,3.2,0.4,4.2,1.3s1.5,2.1,1.6,3.7v7.5c0,1.5,0.2,2.7,0.5,3.4
		v0.2H272.8z M267.3,469c1.2,0,2.2-0.3,3.1-0.8s1.6-1.3,2-2.3v-3.5h-3.1c-1.7,0-3.1,0.3-4.1,1s-1.5,1.5-1.5,2.6c0,0.9,0.3,1.6,1,2.2
		S266.3,469,267.3,469z"/>
	<path class="st1" d="M279.7,454.5l0.1,2.6c0.6-1,1.3-1.7,2.2-2.2s1.9-0.7,2.9-0.7c2.5,0,4.1,1,4.8,3.1c0.6-1,1.3-1.7,2.3-2.3
		s2-0.8,3.1-0.8c3.4,0,5.1,1.9,5.2,5.6v10.6h-1.8V460c0-1.4-0.3-2.5-0.9-3.1s-1.6-1-2.9-1s-2.3,0.4-3.2,1.2s-1.4,1.8-1.5,2.9v10.5
		h-1.8v-10.8c0-1.4-0.3-2.4-1-3s-1.6-1-2.9-1c-1.1,0-2.1,0.3-2.8,0.9s-1.4,1.6-1.8,2.8v10.9H278v-15.8H279.7z"/>
	<path class="st1" d="M313.5,466.3c0-0.9-0.3-1.6-1-2.1s-1.8-0.9-3.2-1.2s-2.5-0.6-3.3-1s-1.4-0.9-1.7-1.4s-0.6-1.2-0.6-2
		c0-1.2,0.5-2.3,1.6-3.1s2.4-1.2,4-1.2c1.8,0,3.2,0.4,4.3,1.3s1.6,2,1.6,3.4h-1.8c0-0.9-0.4-1.7-1.2-2.3s-1.8-0.9-2.9-0.9
		c-1.2,0-2.1,0.3-2.8,0.8s-1,1.2-1,2s0.3,1.4,0.9,1.8s1.6,0.8,3.2,1.2s2.7,0.7,3.5,1.2s1.3,0.9,1.7,1.5s0.6,1.3,0.6,2.1
		c0,1.3-0.5,2.4-1.6,3.2s-2.5,1.2-4.2,1.2c-1.8,0-3.3-0.4-4.5-1.3s-1.7-2-1.7-3.4h1.8c0.1,1,0.5,1.8,1.3,2.4s1.8,0.9,3.2,0.9
		c1.2,0,2.2-0.3,3-0.8S313.5,467.1,313.5,466.3z"/>
	<path class="st1" d="M318,474.3l-1-0.8c0.9-1.2,1.3-2.4,1.4-3.7v-2.3h1.7v1.8C320.1,471.4,319.4,473.1,318,474.3z"/>
	<path class="st1" d="M329,462.1c0-1.5,0.3-2.9,0.9-4.1s1.4-2.2,2.5-2.8s2.3-1,3.7-1c2.1,0,3.8,0.7,5.1,2.2s2,3.4,2,5.9v0.4
		c0,1.5-0.3,2.9-0.9,4.1s-1.4,2.2-2.5,2.8s-2.3,1-3.7,1c-2.1,0-3.8-0.7-5.1-2.2s-2-3.4-2-5.9V462.1z M330.7,462.6
		c0,1.9,0.5,3.4,1.5,4.7s2.3,1.8,3.9,1.8s2.9-0.6,3.8-1.8s1.5-2.8,1.5-4.8v-0.3c0-1.2-0.2-2.3-0.7-3.3s-1.1-1.8-1.9-2.3
		s-1.7-0.8-2.8-0.8c-1.6,0-2.8,0.6-3.8,1.8s-1.5,2.8-1.5,4.8V462.6z"/>
	<path class="st1" d="M348.7,450.4v4.1h3.3v1.4h-3.3v10.6c0,0.9,0.2,1.5,0.5,2c0.3,0.4,0.8,0.6,1.6,0.6c0.3,0,0.8,0,1.4-0.1l0.1,1.4
		c-0.5,0.2-1.1,0.2-1.9,0.2c-1.2,0-2.1-0.3-2.6-1s-0.8-1.7-0.8-3.1v-10.6h-3v-1.4h2.9v-4.1H348.7z"/>
	<path class="st1" d="M356.6,457.1c0.6-0.9,1.3-1.7,2.2-2.2s1.9-0.8,2.9-0.8c1.7,0,3,0.5,3.8,1.4s1.2,2.4,1.3,4.3v10.4h-1.7v-10.4
		c0-1.4-0.3-2.5-0.9-3.2s-1.5-1-2.8-1c-1.1,0-2,0.3-2.9,1s-1.5,1.6-1.9,2.7v10.9h-1.7v-22.5h1.7V457.1z"/>
	<path class="st1" d="M376.7,470.6c-1.3,0-2.6-0.3-3.7-1s-1.9-1.6-2.5-2.8s-0.9-2.5-0.9-4v-0.6c0-1.5,0.3-2.9,0.9-4.1
		s1.4-2.2,2.5-2.9s2.2-1,3.4-1c1.9,0,3.4,0.7,4.6,2s1.7,3.1,1.7,5.4v1h-11.3v0.3c0,1.8,0.5,3.3,1.5,4.5s2.3,1.8,3.9,1.8
		c0.9,0,1.8-0.2,2.5-0.5s1.4-0.9,2-1.6l1.1,0.8C381.1,469.7,379.2,470.6,376.7,470.6z M376.4,455.7c-1.3,0-2.4,0.5-3.3,1.5
		s-1.5,2.3-1.6,3.9h9.5v-0.2c0-1.5-0.5-2.8-1.3-3.7S377.7,455.7,376.4,455.7z"/>
	<path class="st1" d="M392.7,456c-0.4-0.1-0.8-0.1-1.2-0.1c-1.1,0-2,0.3-2.8,0.9s-1.3,1.5-1.6,2.7v10.9h-1.7v-15.8h1.7v2.5
		c0.9-1.9,2.4-2.8,4.5-2.8c0.5,0,0.9,0.1,1.2,0.2L392.7,456z"/>
	<path class="st1" d="M404.2,466.3c0-0.9-0.3-1.6-1-2.1s-1.8-0.9-3.2-1.2s-2.5-0.6-3.3-1s-1.4-0.9-1.7-1.4s-0.6-1.2-0.6-2
		c0-1.2,0.5-2.3,1.6-3.1s2.4-1.2,4-1.2c1.8,0,3.2,0.4,4.3,1.3s1.6,2,1.6,3.4h-1.8c0-0.9-0.4-1.7-1.2-2.3s-1.8-0.9-2.9-0.9
		c-1.2,0-2.1,0.3-2.8,0.8s-1,1.2-1,2s0.3,1.4,0.9,1.8s1.6,0.8,3.2,1.2s2.7,0.7,3.5,1.2s1.3,0.9,1.7,1.5s0.6,1.3,0.6,2.1
		c0,1.3-0.5,2.4-1.6,3.2s-2.5,1.2-4.2,1.2c-1.8,0-3.3-0.4-4.5-1.3s-1.7-2-1.7-3.4h1.8c0.1,1,0.5,1.8,1.3,2.4s1.8,0.9,3.2,0.9
		c1.2,0,2.2-0.3,3-0.8S404.2,467.1,404.2,466.3z"/>
	<path class="st1" d="M425.7,470.3c-0.2-0.5-0.3-1.2-0.3-2.2c-0.6,0.8-1.4,1.4-2.4,1.9s-2,0.7-3,0.7c-1.5,0-2.8-0.4-3.7-1.3
		s-1.4-1.9-1.4-3.2c0-1.5,0.6-2.8,1.9-3.7s3.1-1.3,5.4-1.3h3.2v-1.8c0-1.1-0.3-2-1-2.7s-1.7-1-3.1-1c-1.2,0-2.2,0.3-3,0.9
		s-1.2,1.4-1.2,2.3h-1.8c0-1.3,0.6-2.4,1.8-3.3s2.6-1.4,4.3-1.4c1.8,0,3.2,0.4,4.2,1.3s1.5,2.1,1.6,3.7v7.5c0,1.5,0.2,2.7,0.5,3.4
		v0.2H425.7z M420.2,469c1.2,0,2.2-0.3,3.1-0.8s1.6-1.3,2-2.3v-3.5h-3.1c-1.7,0-3.1,0.3-4.1,1s-1.5,1.5-1.5,2.6c0,0.9,0.3,1.6,1,2.2
		S419.1,469,420.2,469z"/>
	<path class="st1" d="M438.3,456c-0.4-0.1-0.8-0.1-1.2-0.1c-1.1,0-2,0.3-2.8,0.9s-1.3,1.5-1.6,2.7v10.9H431v-15.8h1.7v2.5
		c0.9-1.9,2.4-2.8,4.5-2.8c0.5,0,0.9,0.1,1.2,0.2L438.3,456z"/>
	<path class="st1" d="M446.2,470.6c-1.3,0-2.6-0.3-3.7-1s-1.9-1.6-2.5-2.8s-0.9-2.5-0.9-4v-0.6c0-1.5,0.3-2.9,0.9-4.1
		s1.4-2.2,2.5-2.9s2.2-1,3.4-1c1.9,0,3.4,0.7,4.6,2s1.7,3.1,1.7,5.4v1h-11.3v0.3c0,1.8,0.5,3.3,1.5,4.5s2.3,1.8,3.9,1.8
		c0.9,0,1.8-0.2,2.5-0.5s1.4-0.9,2-1.6l1.1,0.8C450.5,469.7,448.6,470.6,446.2,470.6z M445.9,455.7c-1.3,0-2.4,0.5-3.3,1.5
		s-1.5,2.3-1.6,3.9h9.5v-0.2c0-1.5-0.5-2.8-1.3-3.7S447.2,455.7,445.9,455.7z"/>
	<path class="st1" d="M470.8,466.3c0-0.9-0.3-1.6-1-2.1s-1.8-0.9-3.2-1.2s-2.5-0.6-3.3-1s-1.4-0.9-1.7-1.4s-0.6-1.2-0.6-2
		c0-1.2,0.5-2.3,1.6-3.1s2.4-1.2,4-1.2c1.8,0,3.2,0.4,4.3,1.3s1.6,2,1.6,3.4h-1.8c0-0.9-0.4-1.7-1.2-2.3s-1.8-0.9-2.9-0.9
		c-1.2,0-2.1,0.3-2.8,0.8s-1,1.2-1,2s0.3,1.4,0.9,1.8s1.6,0.8,3.2,1.2s2.7,0.7,3.5,1.2s1.3,0.9,1.7,1.5s0.6,1.3,0.6,2.1
		c0,1.3-0.5,2.4-1.6,3.2s-2.5,1.2-4.2,1.2c-1.8,0-3.3-0.4-4.5-1.3s-1.7-2-1.7-3.4h1.8c0.1,1,0.5,1.8,1.3,2.4s1.8,0.9,3.2,0.9
		c1.2,0,2.2-0.3,3-0.8S470.8,467.1,470.8,466.3z"/>
	<path class="st1" d="M478.5,450.4v4.1h3.3v1.4h-3.3v10.6c0,0.9,0.2,1.5,0.5,2c0.3,0.4,0.8,0.6,1.6,0.6c0.3,0,0.8,0,1.4-0.1l0.1,1.4
		c-0.5,0.2-1.1,0.2-1.9,0.2c-1.2,0-2.1-0.3-2.6-1s-0.8-1.7-0.8-3.1v-10.6h-2.9v-1.4h2.9v-4.1H478.5z"/>
	<path class="st1" d="M484.6,449.9c0-0.3,0.1-0.6,0.3-0.8c0.2-0.2,0.5-0.3,0.9-0.3s0.7,0.1,0.9,0.3c0.2,0.2,0.3,0.5,0.3,0.8
		s-0.1,0.6-0.3,0.8s-0.5,0.3-0.9,0.3s-0.7-0.1-0.9-0.3S484.6,450.2,484.6,449.9z M486.6,470.3h-1.8v-15.8h1.8V470.3z"/>
	<path class="st1" d="M492.6,470.3h-1.8v-22.5h1.8V470.3z"/>
	<path class="st1" d="M498.6,470.3h-1.8v-22.5h1.8V470.3z"/>
	<path class="st1" d="M515.3,470.6c-1.3,0-2.6-0.3-3.7-1s-1.9-1.6-2.5-2.8s-0.9-2.5-0.9-4v-0.6c0-1.5,0.3-2.9,0.9-4.1
		s1.4-2.2,2.5-2.9c1.1-0.7,2.2-1,3.4-1c1.9,0,3.4,0.7,4.6,2s1.7,3.1,1.7,5.4v1H510v0.3c0,1.8,0.5,3.3,1.5,4.5s2.3,1.8,3.9,1.8
		c0.9,0,1.8-0.2,2.5-0.5s1.4-0.9,2-1.6l1.1,0.8C519.6,469.7,517.7,470.6,515.3,470.6z M515,455.7c-1.3,0-2.4,0.5-3.3,1.5
		s-1.5,2.3-1.6,3.9h9.5v-0.2c0-1.5-0.5-2.8-1.3-3.7S516.3,455.7,515,455.7z"/>
	<path class="st1" d="M528.9,460.9l4.3-6.4h2.1l-5.4,7.8l5.6,8.1h-2.1l-4.5-6.7l-4.5,6.7h-2.1l5.6-8.1l-5.4-7.8h2.1L528.9,460.9z"/>
	<path class="st1" d="M550.5,462.5c0,2.5-0.5,4.4-1.6,5.9s-2.6,2.2-4.4,2.2c-2.2,0-3.8-0.8-5-2.3v8.1h-1.7v-21.9h1.6l0.1,2.2
		c1.1-1.7,2.8-2.5,5-2.5c1.9,0,3.4,0.7,4.5,2.2S550.6,459.8,550.5,462.5L550.5,462.5L550.5,462.5z M548.7,462.2c0-2-0.4-3.6-1.2-4.8
		s-2-1.8-3.5-1.8c-1.1,0-2,0.3-2.8,0.8s-1.4,1.3-1.8,2.3v7.6c0.4,0.9,1,1.6,1.8,2.1s1.7,0.7,2.8,0.7c1.5,0,2.6-0.6,3.4-1.8
		S548.7,464.5,548.7,462.2z"/>
	<path class="st1" d="M555.6,470.3h-1.8v-22.5h1.8V470.3z"/>
	<path class="st1" d="M558.6,462.1c0-1.5,0.3-2.9,0.9-4.1s1.4-2.2,2.5-2.8s2.3-1,3.7-1c2.1,0,3.8,0.7,5.1,2.2s2,3.4,2,5.9v0.4
		c0,1.5-0.3,2.9-0.9,4.1s-1.4,2.2-2.5,2.8s-2.3,1-3.7,1c-2.1,0-3.8-0.7-5.1-2.2s-2-3.4-2-5.9V462.1z M560.4,462.6
		c0,1.9,0.5,3.4,1.5,4.7s2.3,1.8,3.9,1.8c1.6,0,2.9-0.6,3.8-1.8s1.5-2.8,1.5-4.8v-0.3c0-1.2-0.2-2.3-0.7-3.3s-1.1-1.8-1.9-2.3
		s-1.7-0.8-2.8-0.8c-1.6,0-2.8,0.6-3.8,1.8s-1.5,2.8-1.5,4.8V462.6z"/>
	<path class="st1" d="M583,456c-0.4-0.1-0.8-0.1-1.2-0.1c-1.1,0-2,0.3-2.8,0.9s-1.3,1.5-1.6,2.7v10.9h-1.7v-15.8h1.7v2.5
		c0.9-1.9,2.4-2.8,4.5-2.8c0.5,0,0.9,0.1,1.2,0.2L583,456z"/>
	<path class="st1" d="M584.9,449.9c0-0.3,0.1-0.6,0.3-0.8c0.2-0.2,0.5-0.3,0.9-0.3s0.7,0.1,0.9,0.3c0.2,0.2,0.3,0.5,0.3,0.8
		s-0.1,0.6-0.3,0.8s-0.5,0.3-0.9,0.3s-0.7-0.1-0.9-0.3S584.9,450.2,584.9,449.9z M586.9,470.3h-1.8v-15.8h1.8V470.3z"/>
	<path class="st1" d="M592.6,454.5l0.1,2.7c0.6-1,1.3-1.7,2.2-2.2s1.9-0.8,2.9-0.8c1.7,0,3,0.5,3.8,1.4s1.2,2.4,1.3,4.3v10.4h-1.7
		v-10.4c0-1.4-0.3-2.5-0.9-3.2s-1.5-1-2.8-1c-1.1,0-2,0.3-2.9,1s-1.5,1.6-1.9,2.7v10.9H591v-15.8H592.6z"/>
	<path class="st1" d="M606,462.2c0-2.5,0.5-4.4,1.6-5.9s2.6-2.2,4.5-2.2c2.2,0,3.8,0.9,4.9,2.6l0.1-2.3h1.6v15.5
		c0,2-0.6,3.7-1.7,4.8s-2.7,1.8-4.6,1.8c-1.1,0-2.2-0.2-3.2-0.7s-1.8-1.1-2.4-2l1-1.1c1.2,1.5,2.7,2.3,4.4,2.3
		c1.5,0,2.6-0.4,3.4-1.3s1.2-2.1,1.3-3.6v-2c-1.1,1.6-2.8,2.3-4.9,2.3c-1.8,0-3.3-0.7-4.4-2.2s-1.7-3.4-1.7-5.9v-0.1L606,462.2
		L606,462.2z M607.8,462.5c0,2,0.4,3.6,1.2,4.8s2,1.8,3.4,1.8c2.2,0,3.7-1,4.6-2.9v-7.4c-0.4-1-1-1.8-1.8-2.3s-1.7-0.8-2.8-0.8
		c-1.5,0-2.6,0.6-3.4,1.7S607.8,460.3,607.8,462.5z"/>
	<path class="st1" d="M631.8,450.4v4.1h3.3v1.4h-3.3v10.6c0,0.9,0.2,1.5,0.5,2c0.3,0.4,0.8,0.6,1.6,0.6c0.3,0,0.8,0,1.4-0.1l0.1,1.4
		c-0.5,0.2-1.1,0.2-1.9,0.2c-1.2,0-2.1-0.3-2.6-1s-0.8-1.7-0.8-3.1v-10.6h-2.9v-1.4h2.9v-4.1H631.8z"/>
	<path class="st1" d="M639.7,457.1c0.6-0.9,1.3-1.7,2.2-2.2s1.9-0.8,2.9-0.8c1.7,0,3,0.5,3.8,1.4s1.2,2.4,1.3,4.3v10.4h-1.7v-10.4
		c0-1.4-0.3-2.5-0.9-3.2s-1.5-1-2.8-1c-1.1,0-2,0.3-2.9,1s-1.5,1.6-1.9,2.7v10.9H638v-22.5h1.7V457.1z"/>
	<path class="st1" d="M659.9,470.6c-1.3,0-2.6-0.3-3.7-1s-1.9-1.6-2.5-2.8s-0.9-2.5-0.9-4v-0.6c0-1.5,0.3-2.9,0.9-4.1
		s1.4-2.2,2.5-2.9s2.2-1,3.4-1c1.9,0,3.4,0.7,4.6,2s1.7,3.1,1.7,5.4v1h-11.3v0.3c0,1.8,0.5,3.3,1.5,4.5s2.3,1.8,3.9,1.8
		c0.9,0,1.8-0.2,2.5-0.5s1.4-0.9,2-1.6l1.1,0.8C664.2,469.7,662.3,470.6,659.9,470.6z M659.5,455.7c-1.3,0-2.4,0.5-3.3,1.5
		s-1.5,2.3-1.6,3.9h9.5v-0.2c0-1.5-0.5-2.8-1.3-3.7S660.9,455.7,659.5,455.7z"/>
	<path class="st1" d="M668.4,449.9c0-0.3,0.1-0.6,0.3-0.8c0.2-0.2,0.5-0.3,0.9-0.3s0.7,0.1,0.9,0.3c0.2,0.2,0.3,0.5,0.3,0.8
		s-0.1,0.6-0.3,0.8s-0.5,0.3-0.9,0.3s-0.7-0.1-0.9-0.3S668.4,450.2,668.4,449.9z M670.4,470.3h-1.8v-15.8h1.8V470.3z"/>
	<path class="st1" d="M681.8,456c-0.4-0.1-0.8-0.1-1.2-0.1c-1.1,0-2,0.3-2.8,0.9s-1.3,1.5-1.6,2.7v10.9h-1.7v-15.8h1.7v2.5
		c0.9-1.9,2.4-2.8,4.5-2.8c0.5,0,0.9,0.1,1.2,0.2L681.8,456z"/>
	<path class="st1" d="M689.4,462.1c0-1.5,0.3-2.9,0.9-4.1s1.4-2.2,2.5-2.8s2.3-1,3.7-1c2.1,0,3.8,0.7,5.1,2.2s2,3.4,2,5.9v0.4
		c0,1.5-0.3,2.9-0.9,4.1s-1.4,2.2-2.5,2.8s-2.3,1-3.7,1c-2.1,0-3.8-0.7-5.1-2.2s-2-3.4-2-5.9V462.1z M691.1,462.6
		c0,1.9,0.5,3.4,1.5,4.7s2.3,1.8,3.9,1.8c1.6,0,2.9-0.6,3.8-1.8s1.5-2.8,1.5-4.8v-0.3c0-1.2-0.2-2.3-0.7-3.3s-1.1-1.8-1.9-2.3
		s-1.7-0.8-2.8-0.8c-1.6,0-2.8,0.6-3.8,1.8s-1.5,2.8-1.5,4.8V462.6z"/>
	<path class="st1" d="M719.1,462.5c0,2.5-0.5,4.4-1.6,5.9s-2.6,2.2-4.4,2.2c-2.2,0-3.8-0.8-5-2.3v8.1h-1.7v-21.9h1.6l0.1,2.2
		c1.1-1.7,2.8-2.5,5-2.5c1.9,0,3.4,0.7,4.5,2.2S719.2,459.8,719.1,462.5L719.1,462.5L719.1,462.5z M717.4,462.2c0-2-0.4-3.6-1.2-4.8
		s-2-1.8-3.5-1.8c-1.1,0-2,0.3-2.8,0.8s-1.4,1.3-1.8,2.3v7.6c0.4,0.9,1,1.6,1.8,2.1s1.7,0.7,2.8,0.7c1.5,0,2.6-0.6,3.4-1.8
		S717.4,464.5,717.4,462.2z"/>
	<path class="st1" d="M725,450.4v4.1h3.3v1.4H725v10.6c0,0.9,0.2,1.5,0.5,2c0.3,0.4,0.8,0.6,1.6,0.6c0.3,0,0.8,0,1.4-0.1l0.1,1.4
		c-0.5,0.2-1.1,0.2-1.9,0.2c-1.2,0-2.1-0.3-2.6-1s-0.8-1.7-0.8-3.1v-10.6h-2.9v-1.4h2.9v-4.1H725z"/>
	<path class="st1" d="M731,449.9c0-0.3,0.1-0.6,0.3-0.8c0.2-0.2,0.5-0.3,0.9-0.3s0.7,0.1,0.9,0.3c0.2,0.2,0.3,0.5,0.3,0.8
		s-0.1,0.6-0.3,0.8s-0.5,0.3-0.9,0.3s-0.7-0.1-0.9-0.3S731,450.2,731,449.9z M733.1,470.3h-1.8v-15.8h1.8V470.3z"/>
	<path class="st1" d="M736.2,462.1c0-1.5,0.3-2.9,0.9-4.1s1.4-2.2,2.5-2.8s2.3-1,3.7-1c2.1,0,3.8,0.7,5.1,2.2s2,3.4,2,5.9v0.4
		c0,1.5-0.3,2.9-0.9,4.1s-1.4,2.2-2.5,2.8s-2.3,1-3.7,1c-2.1,0-3.8-0.7-5.1-2.2s-2-3.4-2-5.9V462.1z M737.9,462.6
		c0,1.9,0.5,3.4,1.5,4.7s2.3,1.8,3.9,1.8c1.6,0,2.9-0.6,3.8-1.8s1.5-2.8,1.5-4.8v-0.3c0-1.2-0.2-2.3-0.7-3.3s-1.1-1.8-1.9-2.3
		s-1.7-0.8-2.8-0.8c-1.6,0-2.8,0.6-3.8,1.8s-1.5,2.8-1.5,4.8V462.6z"/>
	<path class="st1" d="M754.8,454.5l0.1,2.7c0.6-1,1.3-1.7,2.2-2.2s1.9-0.8,2.9-0.8c1.7,0,3,0.5,3.8,1.4s1.2,2.4,1.3,4.3v10.4h-1.7
		v-10.4c0-1.4-0.3-2.5-0.9-3.2s-1.5-1-2.8-1c-1.1,0-2,0.3-2.9,1s-1.5,1.6-1.9,2.7v10.9h-1.7v-15.8H754.8z"/>
	<path class="st1" d="M778.4,466.3c0-0.9-0.3-1.6-1-2.1s-1.8-0.9-3.2-1.2s-2.5-0.6-3.3-1s-1.4-0.9-1.7-1.4s-0.6-1.2-0.6-2
		c0-1.2,0.5-2.3,1.6-3.1s2.4-1.2,4-1.2c1.8,0,3.2,0.4,4.3,1.3s1.6,2,1.6,3.4h-1.8c0-0.9-0.4-1.7-1.2-2.3s-1.8-0.9-2.9-0.9
		c-1.2,0-2.1,0.3-2.8,0.8s-1,1.2-1,2s0.3,1.4,0.9,1.8s1.6,0.8,3.2,1.2s2.7,0.7,3.5,1.2s1.3,0.9,1.7,1.5s0.6,1.3,0.6,2.1
		c0,1.3-0.5,2.4-1.6,3.2s-2.5,1.2-4.2,1.2c-1.8,0-3.3-0.4-4.5-1.3s-1.7-2-1.7-3.4h1.8c0.1,1,0.5,1.8,1.3,2.4s1.8,0.9,3.2,0.9
		c1.2,0,2.2-0.3,3-0.8S778.4,467.1,778.4,466.3z"/>
	<path class="st1" d="M783,474.3l-1-0.8c0.9-1.2,1.3-2.4,1.4-3.7v-2.3h1.7v1.8C785,471.4,784.3,473.1,783,474.3z"/>
	<path class="st1" d="M804.9,470.3c-0.2-0.5-0.3-1.2-0.3-2.2c-0.6,0.8-1.4,1.4-2.4,1.9s-2,0.7-3,0.7c-1.5,0-2.8-0.4-3.7-1.3
		s-1.4-1.9-1.4-3.2c0-1.5,0.6-2.8,1.9-3.7s3.1-1.3,5.4-1.3h3.2v-1.8c0-1.1-0.3-2-1-2.7s-1.7-1-3.1-1c-1.2,0-2.2,0.3-3,0.9
		s-1.2,1.4-1.2,2.3h-1.8c0-1.3,0.6-2.4,1.8-3.3s2.6-1.4,4.3-1.4c1.8,0,3.2,0.4,4.2,1.3s1.5,2.1,1.6,3.7v7.5c0,1.5,0.2,2.7,0.5,3.4
		v0.2H804.9z M799.4,469c1.2,0,2.2-0.3,3.1-0.8s1.6-1.3,2-2.3v-3.5h-3.1c-1.7,0-3.1,0.3-4.1,1s-1.5,1.5-1.5,2.6c0,0.9,0.3,1.6,1,2.2
		S798.3,469,799.4,469z"/>
	<path class="st1" d="M811.9,454.5l0.1,2.7c0.6-1,1.3-1.7,2.2-2.2s1.9-0.8,2.9-0.8c1.7,0,3,0.5,3.8,1.4s1.2,2.4,1.3,4.3v10.4h-1.7
		v-10.4c0-1.4-0.3-2.5-0.9-3.2s-1.5-1-2.8-1c-1.1,0-2,0.3-2.9,1s-1.5,1.6-1.9,2.7v10.9h-1.7v-15.8H811.9z"/>
	<path class="st1" d="M825.2,462.2c0-2.5,0.5-4.4,1.6-5.9s2.6-2.2,4.5-2.2c2.1,0,3.8,0.8,4.9,2.5v-8.9h1.7v22.5h-1.6l-0.1-2.1
		c-1.1,1.6-2.8,2.4-5,2.4c-1.8,0-3.3-0.7-4.4-2.2S825.1,464.8,825.2,462.2L825.2,462.2L825.2,462.2z M827,462.5c0,2,0.4,3.6,1.2,4.8
		s2,1.8,3.4,1.8c2.2,0,3.7-1,4.6-2.9v-7.4c-0.9-2.1-2.4-3.1-4.6-3.1c-1.5,0-2.6,0.6-3.4,1.7S827,460.3,827,462.5z"/>
	<path class="st1" d="M850,454.5l0.1,2.6c0.6-1,1.3-1.7,2.2-2.2s1.9-0.7,2.9-0.7c2.5,0,4.1,1,4.8,3.1c0.6-1,1.3-1.7,2.3-2.3
		s2-0.8,3.1-0.8c3.4,0,5.1,1.9,5.2,5.6v10.6h-1.8V460c0-1.4-0.3-2.5-0.9-3.1c-0.6-0.7-1.6-1-2.9-1c-1.3,0-2.3,0.4-3.2,1.2
		s-1.4,1.8-1.5,2.9v10.5h-1.8v-10.8c0-1.4-0.3-2.4-1-3c-0.6-0.7-1.6-1-2.9-1c-1.1,0-2.1,0.3-2.8,0.9s-1.4,1.6-1.8,2.8v10.9h-1.8
		v-15.8H850z"/>
	<path class="st1" d="M884.2,470.3c-0.2-0.5-0.3-1.2-0.3-2.2c-0.6,0.8-1.4,1.4-2.4,1.9c-1,0.4-2,0.7-3,0.7c-1.5,0-2.8-0.4-3.7-1.3
		c-0.9-0.8-1.4-1.9-1.4-3.2c0-1.5,0.6-2.8,1.9-3.7s3.1-1.3,5.4-1.3h3.2v-1.8c0-1.1-0.3-2-1-2.7s-1.7-1-3.1-1c-1.2,0-2.2,0.3-3,0.9
		s-1.2,1.4-1.2,2.3h-1.8c0-1.3,0.6-2.4,1.8-3.3s2.6-1.4,4.3-1.4c1.8,0,3.2,0.4,4.2,1.3s1.5,2.1,1.6,3.7v7.5c0,1.5,0.2,2.7,0.5,3.4
		v0.2H884.2z M878.7,469c1.2,0,2.2-0.3,3.1-0.8c0.9-0.6,1.6-1.3,2-2.3v-3.5h-3.1c-1.7,0-3.1,0.3-4.1,1s-1.5,1.5-1.5,2.6
		c0,0.9,0.3,1.6,1,2.2C876.8,468.8,877.7,469,878.7,469z"/>
	<path class="st1" d="M894.4,467.8l4.6-13.3h1.9l-6.8,18.5l-0.4,0.8c-0.9,1.9-2.2,2.9-4,2.9c-0.4,0-0.9-0.1-1.3-0.2V475l0.9,0.1
		c0.9,0,1.6-0.2,2.1-0.6s1-1.2,1.4-2.2l0.8-2.1l-6-15.7h1.9L894.4,467.8z"/>
	<path class="st1" d="M911,454.5l0.1,2.7c0.6-1,1.3-1.7,2.2-2.2s1.9-0.8,2.9-0.8c1.7,0,3,0.5,3.8,1.4s1.2,2.4,1.3,4.3v10.4h-1.7
		v-10.4c0-1.4-0.3-2.5-0.9-3.2s-1.5-1-2.8-1c-1.1,0-2,0.3-2.9,1c-0.8,0.7-1.5,1.6-1.9,2.7v10.9h-1.7v-15.8H911z"/>
	<path class="st1" d="M931.2,470.6c-1.3,0-2.6-0.3-3.7-1s-1.9-1.6-2.5-2.8s-0.9-2.5-0.9-4v-0.6c0-1.5,0.3-2.9,0.9-4.1
		c0.6-1.2,1.4-2.2,2.5-2.9s2.2-1,3.4-1c1.9,0,3.5,0.7,4.6,2s1.7,3.1,1.7,5.4v1h-11.3v0.3c0,1.8,0.5,3.3,1.5,4.5s2.3,1.8,3.9,1.8
		c0.9,0,1.8-0.2,2.5-0.5s1.4-0.9,2-1.6l1.1,0.8C935.6,469.7,933.7,470.6,931.2,470.6z M930.9,455.7c-1.3,0-2.4,0.5-3.3,1.5
		s-1.5,2.3-1.6,3.9h9.5v-0.2c0-1.5-0.5-2.8-1.3-3.7S932.2,455.7,930.9,455.7z"/>
	<path class="st1" d="M946,470.6c-1.3,0-2.6-0.3-3.7-1s-1.9-1.6-2.5-2.8s-0.9-2.5-0.9-4v-0.6c0-1.5,0.3-2.9,0.9-4.1
		c0.6-1.2,1.4-2.2,2.5-2.9s2.2-1,3.4-1c1.9,0,3.5,0.7,4.6,2s1.7,3.1,1.7,5.4v1h-11.3v0.3c0,1.8,0.5,3.3,1.5,4.5s2.3,1.8,3.9,1.8
		c0.9,0,1.8-0.2,2.5-0.5s1.4-0.9,2-1.6l1.1,0.8C950.3,469.7,948.4,470.6,946,470.6z M945.7,455.7c-1.3,0-2.4,0.5-3.3,1.5
		s-1.5,2.3-1.6,3.9h9.5v-0.2c0-1.5-0.5-2.8-1.3-3.7S947,455.7,945.7,455.7z"/>
	<path class="st1" d="M953.9,462.2c0-2.5,0.5-4.4,1.6-5.9s2.6-2.2,4.5-2.2c2.1,0,3.8,0.8,4.9,2.5v-8.9h1.7v22.5H965l-0.1-2.1
		c-1.1,1.6-2.8,2.4-5,2.4c-1.8,0-3.3-0.7-4.4-2.2c-1.1-1.5-1.7-3.5-1.7-6v-0.1L953.9,462.2L953.9,462.2z M955.7,462.5
		c0,2,0.4,3.6,1.2,4.8s2,1.8,3.4,1.8c2.2,0,3.7-1,4.6-2.9v-7.4c-0.9-2.1-2.4-3.1-4.6-3.1c-1.5,0-2.6,0.6-3.4,1.7
		S955.7,460.3,955.7,462.5z"/>
	<path class="st1" d="M196.5,498.2c0-2.5,0.5-4.4,1.6-5.9s2.6-2.2,4.5-2.2c2.2,0,3.8,0.9,4.9,2.6l0.1-2.3h1.6v15.5
		c0,2-0.6,3.7-1.7,4.8s-2.7,1.8-4.6,1.8c-1.1,0-2.2-0.2-3.2-0.7s-1.8-1.1-2.4-2l1-1.1c1.2,1.5,2.7,2.3,4.4,2.3
		c1.5,0,2.6-0.4,3.4-1.3s1.2-2.1,1.3-3.6v-2c-1.1,1.6-2.8,2.3-4.9,2.3c-1.8,0-3.3-0.7-4.4-2.2S196.4,500.8,196.5,498.2L196.5,498.2
		L196.5,498.2z M198.3,498.5c0,2,0.4,3.6,1.2,4.8s2,1.8,3.4,1.8c2.2,0,3.7-1,4.6-2.9v-7.4c-0.4-1-1-1.8-1.8-2.3s-1.7-0.8-2.8-0.8
		c-1.5,0-2.6,0.6-3.4,1.7S198.3,496.3,198.3,498.5z"/>
	<path class="st1" d="M223.3,504.3c-1.1,1.5-2.7,2.3-5.1,2.3c-1.7,0-3-0.5-3.9-1.5s-1.3-2.4-1.3-4.4v-10.3h1.7v10.1
		c0,3,1.2,4.5,3.7,4.5s4.1-1,4.8-3.1v-11.5h1.8v15.8h-1.7V504.3z"/>
	<path class="st1" d="M228.7,485.9c0-0.3,0.1-0.6,0.3-0.8c0.2-0.2,0.5-0.3,0.9-0.3s0.7,0.1,0.9,0.3c0.2,0.2,0.3,0.5,0.3,0.8
		s-0.1,0.6-0.3,0.8s-0.5,0.3-0.9,0.3s-0.7-0.1-0.9-0.3S228.7,486.2,228.7,485.9z M230.8,506.3H229v-15.8h1.8V506.3z"/>
	<path class="st1" d="M234.1,498.2c0-2.5,0.5-4.4,1.6-5.9s2.6-2.2,4.5-2.2c2.1,0,3.8,0.8,4.9,2.5v-8.9h1.7v22.5h-1.6l-0.1-2.1
		c-1.1,1.6-2.8,2.4-5,2.4c-1.8,0-3.3-0.7-4.4-2.2s-1.7-3.5-1.7-6v-0.1L234.1,498.2L234.1,498.2z M235.8,498.5c0,2,0.4,3.6,1.2,4.8
		s2,1.8,3.4,1.8c2.2,0,3.7-1,4.6-2.9v-7.4c-0.9-2.1-2.4-3.1-4.6-3.1c-1.5,0-2.6,0.6-3.4,1.7S235.8,496.3,235.8,498.5z"/>
	<path class="st1" d="M260.7,506.3c-0.2-0.5-0.3-1.2-0.3-2.2c-0.6,0.8-1.4,1.4-2.4,1.9s-2,0.7-3,0.7c-1.5,0-2.8-0.4-3.7-1.3
		s-1.4-1.9-1.4-3.2c0-1.5,0.6-2.8,1.9-3.7s3.1-1.3,5.4-1.3h3.2v-1.8c0-1.1-0.3-2-1-2.7s-1.7-1-3.1-1c-1.2,0-2.2,0.3-3,0.9
		s-1.2,1.4-1.2,2.3h-1.8c0-1.3,0.6-2.4,1.8-3.3s2.6-1.4,4.3-1.4c1.8,0,3.2,0.4,4.2,1.3s1.5,2.1,1.6,3.7v7.5c0,1.5,0.2,2.7,0.5,3.4
		v0.2H260.7z M255.2,505c1.2,0,2.2-0.3,3.1-0.8s1.6-1.3,2-2.3v-3.5h-3.1c-1.7,0-3.1,0.3-4.1,1s-1.5,1.5-1.5,2.6c0,0.9,0.3,1.6,1,2.2
		S254.1,505,255.2,505z"/>
	<path class="st1" d="M267.7,490.5l0.1,2.7c0.6-1,1.3-1.7,2.2-2.2s1.9-0.8,2.9-0.8c1.7,0,3,0.5,3.8,1.4s1.2,2.4,1.3,4.3v10.4h-1.7
		v-10.4c0-1.4-0.3-2.5-0.9-3.2s-1.5-1-2.8-1c-1.1,0-2,0.3-2.9,1s-1.5,1.6-1.9,2.7v10.9H266v-15.8H267.7z"/>
	<path class="st1" d="M287.6,505.1c1.2,0,2.2-0.3,3.1-1s1.3-1.6,1.3-2.7h1.7c0,1-0.4,1.8-0.9,2.6s-1.3,1.4-2.2,1.9s-1.9,0.7-3,0.7
		c-2.1,0-3.7-0.7-4.9-2.2s-1.8-3.4-1.8-5.8v-0.5c0-1.6,0.3-2.9,0.8-4.1s1.3-2.1,2.4-2.8s2.2-1,3.6-1c1.7,0,3.2,0.5,4.3,1.6
		s1.7,2.4,1.8,4.1H292c-0.1-1.2-0.5-2.2-1.3-3s-1.8-1.1-3.1-1.1c-1.6,0-2.8,0.6-3.7,1.7s-1.3,2.7-1.3,4.8v0.5c0,2,0.4,3.6,1.3,4.7
		S286,505.1,287.6,505.1z"/>
	<path class="st1" d="M302.6,506.6c-1.3,0-2.6-0.3-3.7-1s-1.9-1.6-2.5-2.8s-0.9-2.5-0.9-4v-0.6c0-1.5,0.3-2.9,0.9-4.1
		s1.4-2.2,2.5-2.9s2.2-1,3.4-1c1.9,0,3.4,0.7,4.6,2s1.7,3.1,1.7,5.4v1h-11.3v0.3c0,1.8,0.5,3.3,1.5,4.5s2.3,1.8,3.9,1.8
		c0.9,0,1.8-0.2,2.5-0.5s1.4-0.9,2-1.6l1.1,0.8C306.9,505.7,305,506.6,302.6,506.6z M302.3,491.7c-1.3,0-2.4,0.5-3.3,1.5
		s-1.5,2.3-1.6,3.9h9.5v-0.2c0-1.5-0.5-2.8-1.3-3.7S303.6,491.7,302.3,491.7z"/>
	<path class="st1" d="M317.6,485.9c0-0.3,0.1-0.6,0.3-0.8c0.2-0.2,0.5-0.3,0.9-0.3s0.7,0.1,0.9,0.3c0.2,0.2,0.3,0.5,0.3,0.8
		s-0.1,0.6-0.3,0.8s-0.5,0.3-0.9,0.3s-0.7-0.1-0.9-0.3S317.6,486.2,317.6,485.9z M319.7,506.3h-1.8v-15.8h1.8V506.3z"/>
	<path class="st1" d="M325.4,490.5l0.1,2.7c0.6-1,1.3-1.7,2.2-2.2s1.9-0.8,2.9-0.8c1.7,0,3,0.5,3.8,1.4s1.2,2.4,1.3,4.3v10.4H334
		v-10.4c0-1.4-0.3-2.5-0.9-3.2s-1.5-1-2.8-1c-1.1,0-2,0.3-2.9,1s-1.5,1.6-1.9,2.7v10.9h-1.7v-15.8H325.4z"/>
	<path class="st1" d="M347.7,493.1c0.6-0.9,1.3-1.7,2.2-2.2s1.9-0.8,2.9-0.8c1.7,0,3,0.5,3.8,1.4s1.2,2.4,1.3,4.3v10.4h-1.7v-10.4
		c0-1.4-0.3-2.5-0.9-3.2s-1.5-1-2.8-1c-1.1,0-2,0.3-2.9,1s-1.5,1.6-1.9,2.7v10.9H346v-22.5h1.7V493.1z"/>
	<path class="st1" d="M360.7,498.1c0-1.5,0.3-2.9,0.9-4.1s1.4-2.2,2.5-2.8s2.3-1,3.7-1c2.1,0,3.8,0.7,5.1,2.2s2,3.4,2,5.9v0.4
		c0,1.5-0.3,2.9-0.9,4.1s-1.4,2.2-2.5,2.8s-2.3,1-3.7,1c-2.1,0-3.8-0.7-5.1-2.2s-2-3.4-2-5.9V498.1z M362.5,498.6
		c0,1.9,0.5,3.4,1.5,4.7s2.3,1.8,3.9,1.8s2.9-0.6,3.8-1.8s1.5-2.8,1.5-4.8v-0.3c0-1.2-0.2-2.3-0.7-3.3s-1.1-1.8-1.9-2.3
		s-1.7-0.8-2.8-0.8c-1.6,0-2.8,0.6-3.8,1.8s-1.5,2.8-1.5,4.8V498.6z"/>
	<path class="st1" d="M381.6,502.7l0.3,1.4l0.4-1.4l3.8-12.1h1.5l3.8,12l0.4,1.7l0.3-1.5l3.3-12.2h1.8l-4.6,15.8h-1.5l-4.1-12.6
		l-0.2-0.9l-0.2,0.9l-4,12.6H381l-4.6-15.8h1.8L381.6,502.7z"/>
	<path class="st1" d="M408.9,486.4v4.1h3.3v1.4h-3.3v10.6c0,0.9,0.2,1.5,0.5,2c0.3,0.4,0.8,0.6,1.6,0.6c0.3,0,0.8,0,1.4-0.1l0.1,1.4
		c-0.5,0.2-1.1,0.2-1.9,0.2c-1.2,0-2.1-0.3-2.6-1s-0.8-1.7-0.8-3.1v-10.6h-2.9v-1.4h2.9v-4.1H408.9z"/>
	<path class="st1" d="M413.8,498.1c0-1.5,0.3-2.9,0.9-4.1s1.4-2.2,2.5-2.8s2.3-1,3.7-1c2.1,0,3.8,0.7,5.1,2.2s2,3.4,2,5.9v0.4
		c0,1.5-0.3,2.9-0.9,4.1s-1.4,2.2-2.5,2.8s-2.3,1-3.7,1c-2.1,0-3.8-0.7-5.1-2.2s-2-3.4-2-5.9V498.1z M415.6,498.6
		c0,1.9,0.5,3.4,1.5,4.7s2.3,1.8,3.9,1.8s2.9-0.6,3.8-1.8s1.5-2.8,1.5-4.8v-0.3c0-1.2-0.2-2.3-0.7-3.3s-1.1-1.8-1.9-2.3
		s-1.7-0.8-2.8-0.8c-1.6,0-2.8,0.6-3.8,1.8s-1.5,2.8-1.5,4.8V498.6z"/>
	<path class="st1" d="M436.7,498.2c0-2.5,0.5-4.4,1.6-5.9s2.6-2.2,4.5-2.2c2.1,0,3.8,0.8,4.9,2.5v-8.9h1.7v22.5h-1.6l-0.1-2.1
		c-1.1,1.6-2.8,2.4-5,2.4c-1.8,0-3.3-0.7-4.4-2.2s-1.7-3.5-1.7-6v-0.1L436.7,498.2L436.7,498.2z M438.4,498.5c0,2,0.4,3.6,1.2,4.8
		s2,1.8,3.4,1.8c2.2,0,3.7-1,4.6-2.9v-7.4c-0.9-2.1-2.4-3.1-4.6-3.1c-1.5,0-2.6,0.6-3.4,1.7S438.4,496.3,438.4,498.5z"/>
	<path class="st1" d="M459.4,506.6c-1.3,0-2.6-0.3-3.7-1s-1.9-1.6-2.5-2.8s-0.9-2.5-0.9-4v-0.6c0-1.5,0.3-2.9,0.9-4.1
		s1.4-2.2,2.5-2.9s2.2-1,3.4-1c1.9,0,3.4,0.7,4.6,2s1.7,3.1,1.7,5.4v1h-11.3v0.3c0,1.8,0.5,3.3,1.5,4.5s2.3,1.8,3.9,1.8
		c0.9,0,1.8-0.2,2.5-0.5s1.4-0.9,2-1.6l1.1,0.8C463.7,505.7,461.9,506.6,459.4,506.6z M459.1,491.7c-1.3,0-2.4,0.5-3.3,1.5
		s-1.5,2.3-1.6,3.9h9.5v-0.2c0-1.5-0.5-2.8-1.3-3.7S460.4,491.7,459.1,491.7z"/>
	<path class="st1" d="M477.5,502.3c0-0.9-0.3-1.6-1-2.1s-1.8-0.9-3.2-1.2s-2.5-0.6-3.3-1s-1.4-0.9-1.7-1.4s-0.6-1.2-0.6-2
		c0-1.2,0.5-2.3,1.6-3.1s2.4-1.2,4-1.2c1.8,0,3.2,0.4,4.3,1.3s1.6,2,1.6,3.4h-1.8c0-0.9-0.4-1.7-1.2-2.3s-1.8-0.9-2.9-0.9
		c-1.2,0-2.1,0.3-2.8,0.8s-1,1.2-1,2s0.3,1.4,0.9,1.8s1.6,0.8,3.2,1.2s2.7,0.7,3.5,1.2s1.3,0.9,1.7,1.5s0.6,1.3,0.6,2.1
		c0,1.3-0.5,2.4-1.6,3.2s-2.5,1.2-4.2,1.2c-1.8,0-3.3-0.4-4.5-1.3s-1.7-2-1.7-3.4h1.8c0.1,1,0.5,1.8,1.3,2.4s1.8,0.9,3.2,0.9
		c1.2,0,2.2-0.3,3-0.8S477.5,503.1,477.5,502.3z"/>
	<path class="st1" d="M482.4,485.9c0-0.3,0.1-0.6,0.3-0.8c0.2-0.2,0.5-0.3,0.9-0.3s0.7,0.1,0.9,0.3c0.2,0.2,0.3,0.5,0.3,0.8
		s-0.1,0.6-0.3,0.8s-0.5,0.3-0.9,0.3s-0.7-0.1-0.9-0.3S482.4,486.2,482.4,485.9z M484.4,506.3h-1.8v-15.8h1.8V506.3z"/>
	<path class="st1" d="M487.7,498.2c0-2.5,0.5-4.4,1.6-5.9s2.6-2.2,4.5-2.2c2.2,0,3.8,0.9,4.9,2.6l0.1-2.3h1.6v15.5
		c0,2-0.6,3.7-1.7,4.8s-2.7,1.8-4.6,1.8c-1.1,0-2.2-0.2-3.2-0.7s-1.8-1.1-2.4-2l1-1.1c1.2,1.5,2.7,2.3,4.4,2.3
		c1.5,0,2.6-0.4,3.4-1.3s1.2-2.1,1.3-3.6v-2c-1.1,1.6-2.8,2.3-4.9,2.3c-1.8,0-3.3-0.7-4.4-2.2s-1.7-3.4-1.7-5.9v-0.1L487.7,498.2
		L487.7,498.2z M489.5,498.5c0,2,0.4,3.6,1.2,4.8s2,1.8,3.4,1.8c2.2,0,3.7-1,4.6-2.9v-7.4c-0.4-1-1-1.8-1.8-2.3s-1.7-0.8-2.8-0.8
		c-1.5,0-2.6,0.6-3.4,1.7S489.5,496.3,489.5,498.5z"/>
	<path class="st1" d="M506,490.5l0.1,2.7c0.6-1,1.3-1.7,2.2-2.2s1.9-0.8,2.9-0.8c1.7,0,3,0.5,3.8,1.4s1.2,2.4,1.3,4.3v10.4h-1.7
		v-10.4c0-1.4-0.3-2.5-0.9-3.2s-1.5-1-2.8-1c-1.1,0-2,0.3-2.9,1s-1.5,1.6-1.9,2.7v10.9h-1.7v-15.8H506z"/>
	<path class="st1" d="M536.6,506.3c-0.2-0.5-0.3-1.2-0.3-2.2c-0.6,0.8-1.4,1.4-2.4,1.9s-2,0.7-3,0.7c-1.5,0-2.8-0.4-3.7-1.3
		s-1.4-1.9-1.4-3.2c0-1.5,0.6-2.8,1.9-3.7s3.1-1.3,5.4-1.3h3.2v-1.8c0-1.1-0.3-2-1-2.7s-1.7-1-3.1-1c-1.2,0-2.2,0.3-3,0.9
		s-1.2,1.4-1.2,2.3h-1.8c0-1.3,0.6-2.4,1.8-3.3s2.6-1.4,4.3-1.4c1.8,0,3.2,0.4,4.2,1.3s1.5,2.1,1.6,3.7v7.5c0,1.5,0.2,2.7,0.5,3.4
		v0.2H536.6z M531.1,505c1.2,0,2.2-0.3,3.1-0.8s1.6-1.3,2-2.3v-3.5h-3.1c-1.7,0-3.1,0.3-4.1,1s-1.5,1.5-1.5,2.6c0,0.9,0.3,1.6,1,2.2
		S530.1,505,531.1,505z"/>
	<path class="st1" d="M561.2,498.5c0,2.5-0.5,4.4-1.6,5.9s-2.6,2.2-4.4,2.2c-2.2,0-3.8-0.8-5-2.3v8.1h-1.7v-21.9h1.6l0.1,2.2
		c1.1-1.7,2.8-2.5,5-2.5c1.9,0,3.4,0.7,4.5,2.2S561.3,495.8,561.2,498.5L561.2,498.5L561.2,498.5z M559.5,498.2c0-2-0.4-3.6-1.2-4.8
		s-2-1.8-3.5-1.8c-1.1,0-2,0.3-2.8,0.8s-1.4,1.3-1.8,2.3v7.6c0.4,0.9,1,1.6,1.8,2.1s1.7,0.7,2.8,0.7c1.5,0,2.6-0.6,3.4-1.8
		S559.5,500.5,559.5,498.2z"/>
	<path class="st1" d="M571.7,492c-0.4-0.1-0.8-0.1-1.2-0.1c-1.1,0-2,0.3-2.8,0.9s-1.3,1.5-1.6,2.7v10.9h-1.7v-15.8h1.7v2.5
		c0.9-1.9,2.4-2.8,4.5-2.8c0.5,0,0.9,0.1,1.2,0.2L571.7,492z"/>
	<path class="st1" d="M572.4,498.1c0-1.5,0.3-2.9,0.9-4.1s1.4-2.2,2.5-2.8s2.3-1,3.7-1c2.1,0,3.8,0.7,5.1,2.2s2,3.4,2,5.9v0.4
		c0,1.5-0.3,2.9-0.9,4.1s-1.4,2.2-2.5,2.8s-2.3,1-3.7,1c-2.1,0-3.8-0.7-5.1-2.2s-2-3.4-2-5.9V498.1z M574.2,498.6
		c0,1.9,0.5,3.4,1.5,4.7s2.3,1.8,3.9,1.8c1.6,0,2.9-0.6,3.8-1.8s1.5-2.8,1.5-4.8v-0.3c0-1.2-0.2-2.3-0.7-3.3s-1.1-1.8-1.9-2.3
		s-1.7-0.8-2.8-0.8c-1.6,0-2.8,0.6-3.8,1.8s-1.5,2.8-1.5,4.8V498.6z"/>
	<path class="st1" d="M588.7,498.2c0-2.5,0.5-4.4,1.6-5.9s2.6-2.2,4.5-2.2c2.2,0,3.8,0.9,4.9,2.6l0.1-2.3h1.6v15.5
		c0,2-0.6,3.7-1.7,4.8s-2.7,1.8-4.6,1.8c-1.1,0-2.2-0.2-3.2-0.7s-1.8-1.1-2.4-2l1-1.1c1.2,1.5,2.7,2.3,4.4,2.3
		c1.5,0,2.6-0.4,3.4-1.3s1.2-2.1,1.3-3.6v-2c-1.1,1.6-2.8,2.3-4.9,2.3c-1.8,0-3.3-0.7-4.4-2.2s-1.7-3.4-1.7-5.9v-0.1L588.7,498.2
		L588.7,498.2z M590.5,498.5c0,2,0.4,3.6,1.2,4.8s2,1.8,3.4,1.8c2.2,0,3.7-1,4.6-2.9v-7.4c-0.4-1-1-1.8-1.8-2.3s-1.7-0.8-2.8-0.8
		c-1.5,0-2.6,0.6-3.4,1.7S590.5,496.3,590.5,498.5z"/>
	<path class="st1" d="M612.7,492c-0.4-0.1-0.8-0.1-1.2-0.1c-1.1,0-2,0.3-2.8,0.9s-1.3,1.5-1.6,2.7v10.9h-1.7v-15.8h1.7v2.5
		c0.9-1.9,2.4-2.8,4.5-2.8c0.5,0,0.9,0.1,1.2,0.2L612.7,492z"/>
	<path class="st1" d="M624.1,506.3c-0.2-0.5-0.3-1.2-0.3-2.2c-0.6,0.8-1.4,1.4-2.4,1.9s-2,0.7-3,0.7c-1.5,0-2.8-0.4-3.7-1.3
		s-1.4-1.9-1.4-3.2c0-1.5,0.6-2.8,1.9-3.7s3.1-1.3,5.4-1.3h3.2v-1.8c0-1.1-0.3-2-1-2.7s-1.7-1-3.1-1c-1.2,0-2.2,0.3-3,0.9
		s-1.2,1.4-1.2,2.3h-1.8c0-1.3,0.6-2.4,1.8-3.3s2.6-1.4,4.3-1.4c1.8,0,3.2,0.4,4.2,1.3s1.5,2.1,1.6,3.7v7.5c0,1.5,0.2,2.7,0.5,3.4
		v0.2H624.1z M618.6,505c1.2,0,2.2-0.3,3.1-0.8s1.6-1.3,2-2.3v-3.5h-3.1c-1.7,0-3.1,0.3-4.1,1s-1.5,1.5-1.5,2.6c0,0.9,0.3,1.6,1,2.2
		S617.5,505,618.6,505z"/>
	<path class="st1" d="M631,490.5l0.1,2.6c0.6-1,1.3-1.7,2.2-2.2s1.9-0.7,2.9-0.7c2.5,0,4.1,1,4.8,3.1c0.6-1,1.3-1.7,2.3-2.3
		s2-0.8,3.1-0.8c3.4,0,5.1,1.9,5.2,5.6v10.6h-1.8V496c0-1.4-0.3-2.5-0.9-3.1s-1.6-1-2.9-1c-1.3,0-2.3,0.4-3.2,1.2s-1.4,1.8-1.5,2.9
		v10.5h-1.8v-10.8c0-1.4-0.3-2.4-1-3s-1.6-1-2.9-1c-1.1,0-2.1,0.3-2.8,0.9s-1.4,1.6-1.8,2.8v10.9h-1.8v-15.8H631z"/>
	<path class="st1" d="M664.5,486.4v4.1h3.3v1.4h-3.3v10.6c0,0.9,0.2,1.5,0.5,2c0.3,0.4,0.8,0.6,1.6,0.6c0.3,0,0.8,0,1.4-0.1l0.1,1.4
		c-0.5,0.2-1.1,0.2-1.9,0.2c-1.2,0-2.1-0.3-2.6-1s-0.8-1.7-0.8-3.1v-10.6h-2.9v-1.4h2.9v-4.1H664.5z"/>
	<path class="st1" d="M672.4,493.1c0.6-0.9,1.3-1.7,2.2-2.2s1.9-0.8,2.9-0.8c1.7,0,3,0.5,3.8,1.4s1.2,2.4,1.3,4.3v10.4h-1.7v-10.4
		c0-1.4-0.3-2.5-0.9-3.2s-1.5-1-2.8-1c-1.1,0-2,0.3-2.9,1s-1.5,1.6-1.9,2.7v10.9h-1.7v-22.5h1.7L672.4,493.1L672.4,493.1z"/>
	<path class="st1" d="M696.4,506.3c-0.2-0.5-0.3-1.2-0.3-2.2c-0.6,0.8-1.4,1.4-2.4,1.9s-2,0.7-3,0.7c-1.5,0-2.8-0.4-3.7-1.3
		s-1.4-1.9-1.4-3.2c0-1.5,0.6-2.8,1.9-3.7s3.1-1.3,5.4-1.3h3.2v-1.8c0-1.1-0.3-2-1-2.7s-1.7-1-3.1-1c-1.2,0-2.2,0.3-3,0.9
		s-1.2,1.4-1.2,2.3H686c0-1.3,0.6-2.4,1.8-3.3s2.6-1.4,4.3-1.4c1.8,0,3.2,0.4,4.2,1.3s1.5,2.1,1.6,3.7v7.5c0,1.5,0.2,2.7,0.5,3.4
		v0.2H696.4z M690.9,505c1.2,0,2.2-0.3,3.1-0.8s1.6-1.3,2-2.3v-3.5h-3.1c-1.7,0-3.1,0.3-4.1,1s-1.5,1.5-1.5,2.6c0,0.9,0.3,1.6,1,2.2
		S689.8,505,690.9,505z"/>
	<path class="st1" d="M704.4,486.4v4.1h3.3v1.4h-3.3v10.6c0,0.9,0.2,1.5,0.5,2c0.3,0.4,0.8,0.6,1.6,0.6c0.3,0,0.8,0,1.4-0.1l0.1,1.4
		c-0.5,0.2-1.1,0.2-1.9,0.2c-1.2,0-2.1-0.3-2.6-1s-0.8-1.7-0.8-3.1v-10.6h-2.9v-1.4h2.9v-4.1H704.4z"/>
	<path class="st1" d="M721,502.7l0.3,1.4l0.4-1.4l3.8-12.1h1.5l3.8,12l0.4,1.7l0.3-1.5l3.3-12.2h1.8l-4.6,15.8h-1.5l-4.1-12.6
		l-0.2-0.9l-0.2,0.9l-4,12.6h-1.5l-4.6-15.8h1.8L721,502.7z"/>
	<path class="st1" d="M738.9,485.9c0-0.3,0.1-0.6,0.3-0.8c0.2-0.2,0.5-0.3,0.9-0.3s0.7,0.1,0.9,0.3c0.2,0.2,0.3,0.5,0.3,0.8
		s-0.1,0.6-0.3,0.8s-0.5,0.3-0.9,0.3s-0.7-0.1-0.9-0.3S738.9,486.2,738.9,485.9z M741,506.3h-1.8v-15.8h1.8V506.3z"/>
	<path class="st1" d="M747,506.3h-1.8v-22.5h1.8V506.3z"/>
	<path class="st1" d="M752.9,506.3h-1.8v-22.5h1.8V506.3z"/>
	<path class="st1" d="M776.2,498.5c0,2.5-0.5,4.4-1.6,5.9s-2.6,2.2-4.4,2.2c-2.2,0-3.8-0.8-5-2.3v8.1h-1.7v-21.9h1.6l0.1,2.2
		c1.1-1.7,2.8-2.5,5-2.5c1.9,0,3.4,0.7,4.5,2.2S776.3,495.8,776.2,498.5L776.2,498.5L776.2,498.5z M774.5,498.2c0-2-0.4-3.6-1.2-4.8
		s-2-1.8-3.5-1.8c-1.1,0-2,0.3-2.8,0.8s-1.4,1.3-1.8,2.3v7.6c0.4,0.9,1,1.6,1.8,2.1s1.7,0.7,2.8,0.7c1.5,0,2.6-0.6,3.4-1.8
		S774.5,500.5,774.5,498.2z"/>
	<path class="st1" d="M786.7,492c-0.4-0.1-0.8-0.1-1.2-0.1c-1.1,0-2,0.3-2.8,0.9s-1.3,1.5-1.6,2.7v10.9h-1.7v-15.8h1.7v2.5
		c0.9-1.9,2.4-2.8,4.5-2.8c0.5,0,0.9,0.1,1.2,0.2L786.7,492z"/>
	<path class="st1" d="M787.4,498.1c0-1.5,0.3-2.9,0.9-4.1s1.4-2.2,2.5-2.8s2.3-1,3.7-1c2.1,0,3.8,0.7,5.1,2.2s2,3.4,2,5.9v0.4
		c0,1.5-0.3,2.9-0.9,4.1s-1.4,2.2-2.5,2.8s-2.3,1-3.7,1c-2.1,0-3.8-0.7-5.1-2.2s-2-3.4-2-5.9V498.1z M789.2,498.6
		c0,1.9,0.5,3.4,1.5,4.7s2.3,1.8,3.9,1.8c1.6,0,2.9-0.6,3.8-1.8s1.5-2.8,1.5-4.8v-0.3c0-1.2-0.2-2.3-0.7-3.3s-1.1-1.8-1.9-2.3
		s-1.7-0.8-2.8-0.8c-1.6,0-2.8,0.6-3.8,1.8s-1.5,2.8-1.5,4.8V498.6z"/>
	<path class="st1" d="M809.2,503.9l4.8-13.4h1.8l-5.9,15.8h-1.4l-5.9-15.8h1.8L809.2,503.9z"/>
	<path class="st1" d="M817.8,485.9c0-0.3,0.1-0.6,0.3-0.8c0.2-0.2,0.5-0.3,0.9-0.3s0.7,0.1,0.9,0.3c0.2,0.2,0.3,0.5,0.3,0.8
		s-0.1,0.6-0.3,0.8s-0.5,0.3-0.9,0.3s-0.7-0.1-0.9-0.3S817.8,486.2,817.8,485.9z M819.9,506.3h-1.8v-15.8h1.8V506.3z"/>
	<path class="st1" d="M823.2,498.2c0-2.5,0.5-4.4,1.6-5.9s2.6-2.2,4.5-2.2c2.1,0,3.8,0.8,4.9,2.5v-8.9h1.7v22.5h-1.6l-0.1-2.1
		c-1.1,1.6-2.8,2.4-5,2.4c-1.8,0-3.3-0.7-4.4-2.2S823.1,500.8,823.2,498.2L823.2,498.2L823.2,498.2z M825,498.5c0,2,0.4,3.6,1.2,4.8
		s2,1.8,3.4,1.8c2.2,0,3.7-1,4.6-2.9v-7.4c-0.9-2.1-2.4-3.1-4.6-3.1c-1.5,0-2.6,0.6-3.4,1.7S825,496.3,825,498.5z"/>
	<path class="st1" d="M846,506.6c-1.3,0-2.6-0.3-3.7-1s-1.9-1.6-2.5-2.8s-0.9-2.5-0.9-4v-0.6c0-1.5,0.3-2.9,0.9-4.1
		c0.6-1.2,1.4-2.2,2.5-2.9s2.2-1,3.4-1c1.9,0,3.5,0.7,4.6,2s1.7,3.1,1.7,5.4v1h-11.3v0.3c0,1.8,0.5,3.3,1.5,4.5s2.3,1.8,3.9,1.8
		c0.9,0,1.8-0.2,2.5-0.5s1.4-0.9,2-1.6l1.1,0.8C850.3,505.7,848.4,506.6,846,506.6z M845.6,491.7c-1.3,0-2.4,0.5-3.3,1.5
		s-1.5,2.3-1.6,3.9h9.5v-0.2c0-1.5-0.5-2.8-1.3-3.7S847,491.7,845.6,491.7z"/>
	<path class="st1" d="M863.8,486.4v4.1h3.3v1.4h-3.3v10.6c0,0.9,0.2,1.5,0.5,2c0.3,0.4,0.8,0.6,1.6,0.6c0.3,0,0.8,0,1.4-0.1l0.1,1.4
		c-0.5,0.2-1.1,0.2-1.9,0.2c-1.2,0-2.1-0.3-2.6-1s-0.8-1.7-0.8-3.1v-10.6h-2.9v-1.4h2.9v-4.1H863.8z"/>
	<path class="st1" d="M871.7,493.1c0.6-0.9,1.3-1.7,2.2-2.2s1.9-0.8,2.9-0.8c1.7,0,3,0.5,3.8,1.4s1.2,2.4,1.3,4.3v10.4h-1.7v-10.4
		c0-1.4-0.3-2.5-0.9-3.2s-1.5-1-2.8-1c-1.1,0-2,0.3-2.9,1c-0.8,0.7-1.5,1.6-1.9,2.7v10.9H870v-22.5h1.7V493.1z"/>
	<path class="st1" d="M891.9,506.6c-1.3,0-2.6-0.3-3.7-1s-1.9-1.6-2.5-2.8s-0.9-2.5-0.9-4v-0.6c0-1.5,0.3-2.9,0.9-4.1
		c0.6-1.2,1.4-2.2,2.5-2.9s2.2-1,3.4-1c1.9,0,3.5,0.7,4.6,2s1.7,3.1,1.7,5.4v1h-11.3v0.3c0,1.8,0.5,3.3,1.5,4.5s2.3,1.8,3.9,1.8
		c0.9,0,1.8-0.2,2.5-0.5s1.4-0.9,2-1.6l1.1,0.8C896.2,505.7,894.3,506.6,891.9,506.6z M891.5,491.7c-1.3,0-2.4,0.5-3.3,1.5
		s-1.5,2.3-1.6,3.9h9.5v-0.2c0-1.5-0.5-2.8-1.3-3.7S892.9,491.7,891.5,491.7z"/>
	<path class="st1" d="M900.4,485.9c0-0.3,0.1-0.6,0.3-0.8c0.2-0.2,0.5-0.3,0.9-0.3s0.7,0.1,0.9,0.3c0.2,0.2,0.3,0.5,0.3,0.8
		s-0.1,0.6-0.3,0.8c-0.2,0.2-0.5,0.3-0.9,0.3s-0.7-0.1-0.9-0.3S900.4,486.2,900.4,485.9z M902.4,506.3h-1.8v-15.8h1.8V506.3z"/>
	<path class="st1" d="M913.8,492c-0.4-0.1-0.8-0.1-1.2-0.1c-1.1,0-2,0.3-2.8,0.9s-1.3,1.5-1.6,2.7v10.9h-1.7v-15.8h1.7v2.5
		c0.9-1.9,2.4-2.8,4.5-2.8c0.5,0,0.9,0.1,1.2,0.2L913.8,492z"/>
	<path class="st1" d="M931.8,502.3c0-0.9-0.3-1.6-1-2.1s-1.8-0.9-3.2-1.2s-2.5-0.6-3.3-1s-1.4-0.9-1.7-1.4s-0.6-1.2-0.6-2
		c0-1.2,0.5-2.3,1.6-3.1s2.4-1.2,4-1.2c1.8,0,3.2,0.4,4.3,1.3s1.6,2,1.6,3.4h-1.8c0-0.9-0.4-1.7-1.2-2.3c-0.8-0.6-1.8-0.9-2.9-0.9
		c-1.2,0-2.1,0.3-2.8,0.8s-1,1.2-1,2s0.3,1.4,0.9,1.8c0.6,0.4,1.6,0.8,3.2,1.2c1.5,0.4,2.7,0.7,3.5,1.2s1.3,0.9,1.7,1.5
		s0.6,1.3,0.6,2.1c0,1.3-0.5,2.4-1.6,3.2s-2.5,1.2-4.2,1.2c-1.8,0-3.3-0.4-4.5-1.3c-1.1-0.9-1.7-2-1.7-3.4h1.8
		c0.1,1,0.5,1.8,1.3,2.4s1.8,0.9,3.2,0.9c1.2,0,2.2-0.3,3-0.8S931.8,503.1,931.8,502.3z"/>
	<path class="st1" d="M939.5,486.4v4.1h3.3v1.4h-3.3v10.6c0,0.9,0.2,1.5,0.5,2c0.3,0.4,0.8,0.6,1.6,0.6c0.3,0,0.8,0,1.4-0.1l0.1,1.4
		c-0.5,0.2-1.1,0.2-1.9,0.2c-1.2,0-2.1-0.3-2.6-1s-0.8-1.7-0.8-3.1v-10.6h-2.9v-1.4h2.9v-4.1H939.5z"/>
	<path class="st1" d="M955.8,504.3c-1.1,1.5-2.7,2.3-5.1,2.3c-1.7,0-3-0.5-3.9-1.5s-1.3-2.4-1.3-4.4v-10.3h1.7v10.1
		c0,3,1.2,4.5,3.7,4.5s4.1-1,4.8-3.1v-11.5h1.8v15.8h-1.7V504.3z"/>
	<path class="st1" d="M960.7,498.2c0-2.5,0.5-4.4,1.6-5.9s2.6-2.2,4.5-2.2c2.1,0,3.8,0.8,4.9,2.5v-8.9h1.7v22.5h-1.6l-0.1-2.1
		c-1.1,1.6-2.8,2.4-5,2.4c-1.8,0-3.3-0.7-4.4-2.2S960.6,500.8,960.7,498.2L960.7,498.2L960.7,498.2z M962.5,498.5
		c0,2,0.4,3.6,1.2,4.8s2,1.8,3.4,1.8c2.2,0,3.7-1,4.6-2.9v-7.4c-0.9-2.1-2.4-3.1-4.6-3.1c-1.5,0-2.6,0.6-3.4,1.7
		S962.5,496.3,962.5,498.5z"/>
	<path class="st1" d="M983.4,506.6c-1.3,0-2.6-0.3-3.7-1s-1.9-1.6-2.5-2.8s-0.9-2.5-0.9-4v-0.6c0-1.5,0.3-2.9,0.9-4.1
		c0.6-1.2,1.4-2.2,2.5-2.9s2.2-1,3.4-1c1.9,0,3.5,0.7,4.6,2s1.7,3.1,1.7,5.4v1h-11.3v0.3c0,1.8,0.5,3.3,1.5,4.5s2.3,1.8,3.9,1.8
		c0.9,0,1.8-0.2,2.5-0.5s1.4-0.9,2-1.6l1.1,0.8C987.8,505.7,985.9,506.6,983.4,506.6z M983.1,491.7c-1.3,0-2.4,0.5-3.3,1.5
		s-1.5,2.3-1.6,3.9h9.5v-0.2c0-1.5-0.5-2.8-1.3-3.7S984.4,491.7,983.1,491.7z"/>
	<path class="st1" d="M993.7,490.5l0.1,2.7c0.6-1,1.3-1.7,2.2-2.2s1.9-0.8,2.9-0.8c1.7,0,3,0.5,3.8,1.4s1.2,2.4,1.3,4.3v10.4h-1.7
		v-10.4c0-1.4-0.3-2.5-0.9-3.2s-1.5-1-2.8-1c-1.1,0-2,0.3-2.9,1c-0.8,0.7-1.5,1.6-1.9,2.7v10.9h-1.7v-15.8H993.7z"/>
	<path class="st1" d="M1010.5,486.4v4.1h3.3v1.4h-3.3v10.6c0,0.9,0.2,1.5,0.5,2c0.3,0.4,0.8,0.6,1.6,0.6c0.3,0,0.8,0,1.4-0.1
		l0.1,1.4c-0.5,0.2-1.1,0.2-1.9,0.2c-1.2,0-2.1-0.3-2.6-1s-0.8-1.7-0.8-3.1v-10.6h-2.9v-1.4h2.9v-4.1H1010.5z"/>
	<path class="st1" d="M1026.2,502.3c0-0.9-0.3-1.6-1-2.1s-1.8-0.9-3.2-1.2s-2.5-0.6-3.3-1s-1.4-0.9-1.7-1.4s-0.6-1.2-0.6-2
		c0-1.2,0.5-2.3,1.6-3.1s2.4-1.2,4-1.2c1.8,0,3.2,0.4,4.3,1.3s1.6,2,1.6,3.4h-1.8c0-0.9-0.4-1.7-1.2-2.3c-0.8-0.6-1.8-0.9-2.9-0.9
		c-1.2,0-2.1,0.3-2.8,0.8s-1,1.2-1,2s0.3,1.4,0.9,1.8c0.6,0.4,1.6,0.8,3.2,1.2c1.5,0.4,2.7,0.7,3.5,1.2s1.3,0.9,1.7,1.5
		s0.6,1.3,0.6,2.1c0,1.3-0.5,2.4-1.6,3.2s-2.5,1.2-4.2,1.2c-1.8,0-3.3-0.4-4.5-1.3c-1.1-0.9-1.7-2-1.7-3.4h1.8
		c0.1,1,0.5,1.8,1.3,2.4s1.8,0.9,3.2,0.9c1.2,0,2.2-0.3,3-0.8S1026.2,503.1,1026.2,502.3z"/>
	<path class="st1" d="M201,538.7l0.3,1.4l0.4-1.4l3.8-12.1h1.5l3.8,12l0.4,1.7l0.3-1.5l3.3-12.2h1.8l-4.6,15.8h-1.5l-4.1-12.6
		l-0.2-0.9l-0.2,0.9l-4,12.6h-1.5l-4.6-15.8h1.8L201,538.7z"/>
	<path class="st1" d="M218.9,521.9c0-0.3,0.1-0.6,0.3-0.8s0.5-0.3,0.9-0.3s0.7,0.1,0.9,0.3s0.3,0.5,0.3,0.8s-0.1,0.6-0.3,0.8
		s-0.5,0.3-0.9,0.3s-0.7-0.1-0.9-0.3S218.9,522.2,218.9,521.9z M221,542.3h-1.8v-15.8h1.8V542.3z"/>
	<path class="st1" d="M227.7,522.4v4.1h3.3v1.4h-3.3v10.6c0,0.9,0.2,1.5,0.5,2c0.3,0.4,0.8,0.6,1.6,0.6c0.3,0,0.8,0,1.4-0.1l0.1,1.4
		c-0.5,0.2-1.1,0.2-1.9,0.2c-1.2,0-2.1-0.3-2.6-1s-0.8-1.7-0.8-3.1v-10.6h-2.9v-1.4h2.9v-4.1L227.7,522.4L227.7,522.4z"/>
	<path class="st1" d="M235.7,529.1c0.6-0.9,1.3-1.7,2.2-2.2s1.9-0.8,2.9-0.8c1.7,0,3,0.5,3.8,1.4s1.2,2.4,1.3,4.3v10.4h-1.7v-10.4
		c0-1.4-0.3-2.5-0.9-3.2s-1.5-1-2.8-1c-1.1,0-2,0.3-2.9,1s-1.5,1.6-1.9,2.7v10.9H234v-22.5h1.7V529.1L235.7,529.1z"/>
	<path class="st1" d="M258.1,542.3h-1.8v-22.5h1.8V542.3z"/>
	<path class="st1" d="M261.2,534.1c0-1.5,0.3-2.9,0.9-4.1c0.6-1.2,1.4-2.2,2.5-2.8s2.3-1,3.7-1c2.1,0,3.8,0.7,5.1,2.2s2,3.4,2,5.9
		v0.4c0,1.5-0.3,2.9-0.9,4.1s-1.4,2.2-2.5,2.8s-2.3,1-3.7,1c-2.1,0-3.8-0.7-5.1-2.2s-2-3.4-2-5.9V534.1z M262.9,534.6
		c0,1.9,0.5,3.4,1.5,4.7s2.3,1.8,3.9,1.8s2.9-0.6,3.8-1.8s1.5-2.8,1.5-4.8v-0.3c0-1.2-0.2-2.3-0.7-3.3s-1.1-1.8-1.9-2.3
		s-1.7-0.8-2.8-0.8c-1.6,0-2.8,0.6-3.8,1.8s-1.5,2.8-1.5,4.8V534.6z"/>
	<path class="st1" d="M277.5,534.2c0-2.5,0.5-4.4,1.6-5.9s2.6-2.2,4.5-2.2c2.2,0,3.8,0.9,4.9,2.6l0.1-2.3h1.6v15.5
		c0,2-0.6,3.7-1.7,4.8s-2.7,1.8-4.6,1.8c-1.1,0-2.2-0.2-3.2-0.7s-1.8-1.1-2.4-2l1-1.1c1.2,1.5,2.7,2.3,4.4,2.3
		c1.5,0,2.6-0.4,3.4-1.3s1.2-2.1,1.3-3.6v-2c-1.1,1.6-2.8,2.3-4.9,2.3c-1.8,0-3.3-0.7-4.4-2.2s-1.7-3.4-1.7-5.9v-0.1L277.5,534.2
		L277.5,534.2z M279.3,534.5c0,2,0.4,3.6,1.2,4.8c0.8,1.2,2,1.8,3.4,1.8c2.2,0,3.7-1,4.6-2.9v-7.4c-0.4-1-1-1.8-1.8-2.3
		s-1.7-0.8-2.8-0.8c-1.5,0-2.6,0.6-3.4,1.7C279.7,530.5,279.3,532.3,279.3,534.5z"/>
	<path class="st1" d="M294,521.9c0-0.3,0.1-0.6,0.3-0.8c0.2-0.2,0.5-0.3,0.9-0.3s0.7,0.1,0.9,0.3c0.2,0.2,0.3,0.5,0.3,0.8
		s-0.1,0.6-0.3,0.8c-0.2,0.2-0.5,0.3-0.9,0.3s-0.7-0.1-0.9-0.3S294,522.2,294,521.9z M296.1,542.3h-1.8v-15.8h1.8V542.3z"/>
	<path class="st1" d="M305.9,541.1c1.2,0,2.2-0.3,3.1-1s1.3-1.6,1.3-2.7h1.7c0,1-0.4,1.8-0.9,2.6s-1.3,1.4-2.2,1.9s-1.9,0.7-3,0.7
		c-2.1,0-3.7-0.7-4.9-2.2s-1.8-3.4-1.8-5.8v-0.5c0-1.6,0.3-2.9,0.8-4.1c0.5-1.2,1.3-2.1,2.4-2.8s2.2-1,3.6-1c1.7,0,3.2,0.5,4.3,1.6
		s1.7,2.4,1.8,4.1h-1.7c-0.1-1.2-0.5-2.2-1.3-3s-1.8-1.1-3.1-1.1c-1.6,0-2.8,0.6-3.7,1.7c-0.9,1.1-1.3,2.7-1.3,4.8v0.5
		c0,2,0.4,3.6,1.3,4.7S304.3,541.1,305.9,541.1z"/>
	<path class="st1" d="M324.8,542.3c-0.2-0.5-0.3-1.2-0.3-2.2c-0.6,0.8-1.4,1.4-2.4,1.9s-2,0.7-3,0.7c-1.5,0-2.8-0.4-3.7-1.3
		c-0.9-0.9-1.4-1.9-1.4-3.2c0-1.5,0.6-2.8,1.9-3.7s3.1-1.3,5.4-1.3h3.2v-1.8c0-1.1-0.3-2-1-2.7s-1.7-1-3.1-1c-1.2,0-2.2,0.3-3,0.9
		c-0.8,0.6-1.2,1.4-1.2,2.3h-1.8c0-1.3,0.6-2.4,1.8-3.3c1.2-0.9,2.6-1.4,4.3-1.4c1.8,0,3.2,0.4,4.2,1.3s1.5,2.1,1.6,3.7v7.5
		c0,1.5,0.2,2.7,0.5,3.4v0.2L324.8,542.3L324.8,542.3z M319.3,541c1.2,0,2.2-0.3,3.1-0.8s1.6-1.3,2-2.3v-3.5h-3.1
		c-1.7,0-3.1,0.3-4.1,1s-1.5,1.5-1.5,2.6c0,0.9,0.3,1.6,1,2.2S318.2,541,319.3,541z"/>
	<path class="st1" d="M332,542.3h-1.8v-22.5h1.8V542.3z"/>
	<path class="st1" d="M355.1,537.1c0-1.2-0.4-2.1-1.2-2.8s-2.3-1.3-4.6-2s-3.8-1.3-4.8-2c-1.4-1-2.2-2.4-2.2-4.1c0-1.6,0.7-3,2-4
		s3.1-1.5,5.1-1.5c1.4,0,2.7,0.3,3.8,0.8s2,1.3,2.6,2.3s0.9,2.1,0.9,3.3H355c0-1.5-0.5-2.6-1.5-3.5s-2.3-1.3-4-1.3
		c-1.6,0-2.9,0.4-3.9,1.1s-1.5,1.7-1.5,2.9c0,1.1,0.4,2,1.3,2.7s2.3,1.3,4.2,1.8c1.9,0.5,3.4,1.1,4.4,1.6s1.7,1.2,2.2,2
		s0.7,1.7,0.7,2.8c0,1.7-0.7,3-2,4s-3.1,1.5-5.3,1.5c-1.5,0-2.9-0.3-4.1-0.8s-2.2-1.3-2.9-2.3s-1-2.1-1-3.3h1.8
		c0,1.5,0.6,2.7,1.7,3.6c1.1,0.9,2.6,1.3,4.5,1.3c1.7,0,3-0.4,4-1.1S355.1,538.3,355.1,537.1z"/>
	<path class="st1" d="M374.5,522.5h-7.3v19.8h-1.8v-19.8h-7.3V521h16.4L374.5,522.5L374.5,522.5z"/>
	<path class="st1" d="M389,532.1h-10v8.7h11.5v1.5h-13.3V521h13.2v1.5H379v8.1h10V532.1z"/>
	<path class="st1" d="M395.9,521l7.9,18.8l7.9-18.8h2.4v21.3h-1.8V533l0.1-9.5l-7.9,18.8h-1.4l-7.9-18.7l0.1,9.4v9.3h-1.8V521H395.9
		L395.9,521z"/>
	<path class="st1" d="M434.3,538.3c0-0.9-0.3-1.6-1-2.1s-1.8-0.9-3.2-1.2c-1.4-0.3-2.5-0.6-3.3-1s-1.4-0.9-1.7-1.4s-0.6-1.2-0.6-2
		c0-1.2,0.5-2.3,1.6-3.1s2.4-1.2,4-1.2c1.8,0,3.2,0.4,4.3,1.3c1.1,0.9,1.6,2,1.6,3.4h-1.8c0-0.9-0.4-1.7-1.2-2.3s-1.8-0.9-2.9-0.9
		c-1.2,0-2.1,0.3-2.8,0.8s-1,1.2-1,2s0.3,1.4,0.9,1.8s1.6,0.8,3.2,1.2s2.7,0.7,3.5,1.2s1.3,0.9,1.7,1.5c0.4,0.6,0.6,1.3,0.6,2.1
		c0,1.3-0.5,2.4-1.6,3.2s-2.5,1.2-4.2,1.2c-1.8,0-3.3-0.4-4.5-1.3s-1.7-2-1.7-3.4h1.8c0.1,1,0.5,1.8,1.3,2.4s1.8,0.9,3.2,0.9
		c1.2,0,2.2-0.3,3-0.8S434.3,539.1,434.3,538.3z"/>
	<path class="st1" d="M445.4,542.6c-1.3,0-2.6-0.3-3.7-1s-1.9-1.6-2.5-2.8s-0.9-2.5-0.9-4v-0.6c0-1.5,0.3-2.9,0.9-4.1
		c0.6-1.2,1.4-2.2,2.5-2.9s2.2-1,3.4-1c1.9,0,3.4,0.7,4.6,2s1.7,3.1,1.7,5.4v1h-11.3v0.3c0,1.8,0.5,3.3,1.5,4.5s2.3,1.8,3.9,1.8
		c0.9,0,1.8-0.2,2.5-0.5s1.4-0.9,2-1.6l1.1,0.8C449.8,541.7,447.9,542.6,445.4,542.6z M445.1,527.7c-1.3,0-2.4,0.5-3.3,1.5
		s-1.5,2.3-1.6,3.9h9.5v-0.2c0-1.5-0.5-2.8-1.3-3.7S446.4,527.7,445.1,527.7z"/>
	<path class="st1" d="M453.3,534.2c0-2.5,0.5-4.4,1.6-5.9s2.6-2.2,4.5-2.2c2.1,0,3.8,0.8,4.9,2.4l0.1-2.2h1.6v21.9h-1.8v-8.1
		c-1.2,1.5-2.8,2.3-4.9,2.3c-1.9,0-3.3-0.7-4.5-2.2s-1.7-3.4-1.7-5.9v-0.1H453.3L453.3,534.2z M455.1,534.5c0,2.1,0.4,3.7,1.2,4.8
		s2,1.8,3.4,1.8c2.1,0,3.6-0.9,4.6-2.7v-7.8c-0.4-0.9-1-1.7-1.8-2.2s-1.7-0.8-2.7-0.8c-1.5,0-2.6,0.6-3.5,1.8
		S455.1,532.3,455.1,534.5z"/>
	<path class="st1" d="M480.2,540.3c-1.1,1.5-2.7,2.3-5.1,2.3c-1.7,0-3-0.5-3.9-1.5s-1.3-2.4-1.3-4.4v-10.3h1.7v10.1
		c0,3,1.2,4.5,3.7,4.5s4.1-1,4.8-3.1v-11.5h1.8v15.8h-1.7V540.3z"/>
	<path class="st1" d="M491.9,542.6c-1.3,0-2.6-0.3-3.7-1s-1.9-1.6-2.5-2.8s-0.9-2.5-0.9-4v-0.6c0-1.5,0.3-2.9,0.9-4.1
		c0.6-1.2,1.4-2.2,2.5-2.9s2.2-1,3.4-1c1.9,0,3.4,0.7,4.6,2s1.7,3.1,1.7,5.4v1h-11.3v0.3c0,1.8,0.5,3.3,1.5,4.5s2.3,1.8,3.9,1.8
		c0.9,0,1.8-0.2,2.5-0.5s1.4-0.9,2-1.6l1.1,0.8C496.2,541.7,494.3,542.6,491.9,542.6z M491.6,527.7c-1.3,0-2.4,0.5-3.3,1.5
		s-1.5,2.3-1.6,3.9h9.5v-0.2c0-1.5-0.5-2.8-1.3-3.7S492.9,527.7,491.6,527.7z"/>
	<path class="st1" d="M502.2,526.5l0.1,2.7c0.6-1,1.3-1.7,2.2-2.2s1.9-0.8,2.9-0.8c1.7,0,3,0.5,3.8,1.4s1.2,2.4,1.3,4.3v10.4h-1.7
		v-10.4c0-1.4-0.3-2.5-0.9-3.2s-1.5-1-2.8-1c-1.1,0-2,0.3-2.9,1s-1.5,1.6-1.9,2.7v10.9h-1.7v-15.8L502.2,526.5L502.2,526.5z"/>
	<path class="st1" d="M522.1,541.1c1.2,0,2.2-0.3,3.1-1s1.3-1.6,1.3-2.7h1.7c0,1-0.4,1.8-0.9,2.6s-1.3,1.4-2.2,1.9s-1.9,0.7-3,0.7
		c-2.1,0-3.7-0.7-4.9-2.2s-1.8-3.4-1.8-5.8v-0.5c0-1.6,0.3-2.9,0.8-4.1c0.5-1.2,1.3-2.1,2.4-2.8c1.1-0.7,2.2-1,3.6-1
		c1.7,0,3.2,0.5,4.3,1.6s1.7,2.4,1.8,4.1h-1.7c-0.1-1.2-0.5-2.2-1.3-3s-1.8-1.1-3.1-1.1c-1.6,0-2.8,0.6-3.7,1.7
		c-0.9,1.1-1.3,2.7-1.3,4.8v0.5c0,2,0.4,3.6,1.3,4.7S520.5,541.1,522.1,541.1z"/>
	<path class="st1" d="M537.1,542.6c-1.3,0-2.6-0.3-3.7-1s-1.9-1.6-2.5-2.8s-0.9-2.5-0.9-4v-0.6c0-1.5,0.3-2.9,0.9-4.1
		c0.6-1.2,1.4-2.2,2.5-2.9s2.2-1,3.4-1c1.9,0,3.4,0.7,4.6,2s1.7,3.1,1.7,5.4v1h-11.3v0.3c0,1.8,0.5,3.3,1.5,4.5s2.3,1.8,3.9,1.8
		c0.9,0,1.8-0.2,2.5-0.5s1.4-0.9,2-1.6l1.1,0.8C541.4,541.7,539.5,542.6,537.1,542.6z M536.7,527.7c-1.3,0-2.4,0.5-3.3,1.5
		s-1.5,2.3-1.6,3.9h9.5v-0.2c0-1.5-0.5-2.8-1.3-3.7S538.1,527.7,536.7,527.7z"/>
	<path class="st1" d="M555.2,538.3c0-0.9-0.3-1.6-1-2.1s-1.8-0.9-3.2-1.2s-2.5-0.6-3.3-1s-1.4-0.9-1.7-1.4s-0.6-1.2-0.6-2
		c0-1.2,0.5-2.3,1.6-3.1s2.4-1.2,4-1.2c1.8,0,3.2,0.4,4.3,1.3c1.1,0.9,1.6,2,1.6,3.4h-1.8c0-0.9-0.4-1.7-1.2-2.3s-1.8-0.9-2.9-0.9
		c-1.2,0-2.1,0.3-2.8,0.8s-1,1.2-1,2s0.3,1.4,0.9,1.8c0.6,0.4,1.6,0.8,3.2,1.2s2.7,0.7,3.5,1.2s1.3,0.9,1.7,1.5s0.6,1.3,0.6,2.1
		c0,1.3-0.5,2.4-1.6,3.2s-2.5,1.2-4.2,1.2c-1.8,0-3.3-0.4-4.5-1.3s-1.7-2-1.7-3.4h1.8c0.1,1,0.5,1.8,1.3,2.4s1.8,0.9,3.2,0.9
		c1.2,0,2.2-0.3,3-0.8S555.2,539.1,555.2,538.3z"/>
	<path class="st1" d="M569.4,522.4v4.1h3.3v1.4h-3.3v10.6c0,0.9,0.2,1.5,0.5,2c0.3,0.4,0.8,0.6,1.6,0.6c0.3,0,0.8,0,1.4-0.1l0.1,1.4
		c-0.5,0.2-1.1,0.2-1.9,0.2c-1.2,0-2.1-0.3-2.6-1s-0.8-1.7-0.8-3.1v-10.6h-2.9v-1.4h2.9v-4.1L569.4,522.4L569.4,522.4z"/>
	<path class="st1" d="M577.3,529.1c0.6-0.9,1.3-1.7,2.2-2.2s1.9-0.8,2.9-0.8c1.7,0,3,0.5,3.8,1.4s1.2,2.4,1.3,4.3v10.4h-1.7v-10.4
		c0-1.4-0.3-2.5-0.9-3.2s-1.5-1-2.8-1c-1.1,0-2,0.3-2.9,1s-1.5,1.6-1.9,2.7v10.9h-1.7v-22.5h1.7L577.3,529.1L577.3,529.1z"/>
	<path class="st1" d="M601.3,542.3c-0.2-0.5-0.3-1.2-0.3-2.2c-0.6,0.8-1.4,1.4-2.4,1.9s-2,0.7-3,0.7c-1.5,0-2.8-0.4-3.7-1.3
		c-0.9-0.9-1.4-1.9-1.4-3.2c0-1.5,0.6-2.8,1.9-3.7s3.1-1.3,5.4-1.3h3.2v-1.8c0-1.1-0.3-2-1-2.7s-1.7-1-3.1-1c-1.2,0-2.2,0.3-3,0.9
		c-0.8,0.6-1.2,1.4-1.2,2.3h-1.8c0-1.3,0.6-2.4,1.8-3.3c1.2-0.9,2.6-1.4,4.3-1.4c1.8,0,3.2,0.4,4.2,1.3s1.5,2.1,1.6,3.7v7.5
		c0,1.5,0.2,2.7,0.5,3.4v0.2L601.3,542.3L601.3,542.3z M595.8,541c1.2,0,2.2-0.3,3.1-0.8s1.6-1.3,2-2.3v-3.5h-3.1
		c-1.7,0-3.1,0.3-4.1,1s-1.5,1.5-1.5,2.6c0,0.9,0.3,1.6,1,2.2S594.7,541,595.8,541z"/>
	<path class="st1" d="M609.3,522.4v4.1h3.3v1.4h-3.3v10.6c0,0.9,0.2,1.5,0.5,2c0.3,0.4,0.8,0.6,1.6,0.6c0.3,0,0.8,0,1.4-0.1l0.1,1.4
		c-0.5,0.2-1.1,0.2-1.9,0.2c-1.2,0-2.1-0.3-2.6-1s-0.8-1.7-0.8-3.1v-10.6h-2.9v-1.4h2.9v-4.1L609.3,522.4L609.3,522.4z"/>
	<path class="st1" d="M628.2,542.6c-1.3,0-2.6-0.3-3.7-1s-1.9-1.6-2.5-2.8s-0.9-2.5-0.9-4v-0.6c0-1.5,0.3-2.9,0.9-4.1
		c0.6-1.2,1.4-2.2,2.5-2.9s2.2-1,3.4-1c1.9,0,3.4,0.7,4.6,2s1.7,3.1,1.7,5.4v1h-11.3v0.3c0,1.8,0.5,3.3,1.5,4.5s2.3,1.8,3.9,1.8
		c0.9,0,1.8-0.2,2.5-0.5s1.4-0.9,2-1.6l1.1,0.8C632.5,541.7,630.6,542.6,628.2,542.6z M627.8,527.7c-1.3,0-2.4,0.5-3.3,1.5
		s-1.5,2.3-1.6,3.9h9.5v-0.2c0-1.5-0.5-2.8-1.3-3.7S629.2,527.7,627.8,527.7z"/>
	<path class="st1" d="M638,542.3v-14.4h-2.6v-1.4h2.6v-1.9c0-1.6,0.4-2.9,1.2-3.7s2-1.3,3.4-1.3c0.7,0,1.3,0.1,1.9,0.2l-0.1,1.5
		c-0.5-0.1-1-0.2-1.6-0.2c-1,0-1.7,0.3-2.3,0.9c-0.5,0.6-0.8,1.5-0.8,2.6v2h3.8v1.4h-3.8v14.4L638,542.3L638,542.3z"/>
	<path class="st1" d="M647.2,542.3v-14.4h-2.6v-1.4h2.6v-1.9c0-1.6,0.4-2.9,1.2-3.7s2-1.3,3.4-1.3c0.7,0,1.3,0.1,1.9,0.2l-0.1,1.5
		c-0.5-0.1-1-0.2-1.6-0.2c-1,0-1.7,0.3-2.3,0.9c-0.5,0.6-0.8,1.5-0.8,2.6v2h3.8v1.4H649v14.4L647.2,542.3L647.2,542.3z"/>
	<path class="st1" d="M660.9,542.6c-1.3,0-2.6-0.3-3.7-1s-1.9-1.6-2.5-2.8s-0.9-2.5-0.9-4v-0.6c0-1.5,0.3-2.9,0.9-4.1
		c0.6-1.2,1.4-2.2,2.5-2.9s2.2-1,3.4-1c1.9,0,3.4,0.7,4.6,2s1.7,3.1,1.7,5.4v1h-11.3v0.3c0,1.8,0.5,3.3,1.5,4.5s2.3,1.8,3.9,1.8
		c0.9,0,1.8-0.2,2.5-0.5s1.4-0.9,2-1.6l1.1,0.8C665.2,541.7,663.4,542.6,660.9,542.6z M660.6,527.7c-1.3,0-2.4,0.5-3.3,1.5
		s-1.5,2.3-1.6,3.9h9.5v-0.2c0-1.5-0.5-2.8-1.3-3.7S661.9,527.7,660.6,527.7z"/>
	<path class="st1" d="M675.4,541.1c1.2,0,2.2-0.3,3.1-1s1.3-1.6,1.3-2.7h1.7c0,1-0.4,1.8-0.9,2.6s-1.3,1.4-2.2,1.9s-1.9,0.7-3,0.7
		c-2.1,0-3.7-0.7-4.9-2.2s-1.8-3.4-1.8-5.8v-0.5c0-1.6,0.3-2.9,0.8-4.1c0.5-1.2,1.3-2.1,2.4-2.8c1.1-0.7,2.2-1,3.6-1
		c1.7,0,3.2,0.5,4.3,1.6s1.7,2.4,1.8,4.1h-1.7c-0.1-1.2-0.5-2.2-1.3-3s-1.8-1.1-3.1-1.1c-1.6,0-2.8,0.6-3.7,1.7
		c-0.9,1.1-1.3,2.7-1.3,4.8v0.5c0,2,0.4,3.6,1.3,4.7S673.8,541.1,675.4,541.1z"/>
	<path class="st1" d="M687,522.4v4.1h3.3v1.4H687v10.6c0,0.9,0.2,1.5,0.5,2c0.3,0.4,0.8,0.6,1.6,0.6c0.3,0,0.8,0,1.4-0.1l0.1,1.4
		c-0.5,0.2-1.1,0.2-1.9,0.2c-1.2,0-2.1-0.3-2.6-1s-0.8-1.7-0.8-3.1v-10.6h-2.9v-1.4h2.9v-4.1L687,522.4L687,522.4z"/>
	<path class="st1" d="M693,521.9c0-0.3,0.1-0.6,0.3-0.8s0.5-0.3,0.9-0.3s0.7,0.1,0.9,0.3s0.3,0.5,0.3,0.8s-0.1,0.6-0.3,0.8
		s-0.5,0.3-0.9,0.3s-0.7-0.1-0.9-0.3S693,522.2,693,521.9z M695.1,542.3h-1.8v-15.8h1.8V542.3z"/>
	<path class="st1" d="M704,539.9l4.8-13.4h1.8l-5.9,15.8h-1.4l-5.9-15.8h1.8L704,539.9z"/>
	<path class="st1" d="M718.7,542.6c-1.3,0-2.6-0.3-3.7-1s-1.9-1.6-2.5-2.8s-0.9-2.5-0.9-4v-0.6c0-1.5,0.3-2.9,0.9-4.1
		c0.6-1.2,1.4-2.2,2.5-2.9s2.2-1,3.4-1c1.9,0,3.4,0.7,4.6,2s1.7,3.1,1.7,5.4v1h-11.3v0.3c0,1.8,0.5,3.3,1.5,4.5s2.3,1.8,3.9,1.8
		c0.9,0,1.8-0.2,2.5-0.5s1.4-0.9,2-1.6l1.1,0.8C723,541.7,721.2,542.6,718.7,542.6z M718.4,527.7c-1.3,0-2.4,0.5-3.3,1.5
		s-1.5,2.3-1.6,3.9h9.5v-0.2c0-1.5-0.5-2.8-1.3-3.7S719.7,527.7,718.4,527.7z"/>
	<path class="st1" d="M729.3,542.3h-1.8v-22.5h1.8V542.3z"/>
	<path class="st1" d="M738.3,539.8l4.6-13.3h1.9L738,545l-0.4,0.8c-0.9,1.9-2.2,2.9-4,2.9c-0.4,0-0.9-0.1-1.3-0.2V547l0.9,0.1
		c0.9,0,1.6-0.2,2.1-0.6c0.5-0.4,1-1.2,1.4-2.2l0.8-2.1l-6-15.7h1.9L738.3,539.8z"/>
	<path class="st1" d="M762.8,538.3c0-0.9-0.3-1.6-1-2.1s-1.8-0.9-3.2-1.2s-2.5-0.6-3.3-1s-1.4-0.9-1.7-1.4s-0.6-1.2-0.6-2
		c0-1.2,0.5-2.3,1.6-3.1s2.4-1.2,4-1.2c1.8,0,3.2,0.4,4.3,1.3c1.1,0.9,1.6,2,1.6,3.4h-1.8c0-0.9-0.4-1.7-1.2-2.3s-1.8-0.9-2.9-0.9
		c-1.2,0-2.1,0.3-2.8,0.8s-1,1.2-1,2s0.3,1.4,0.9,1.8c0.6,0.4,1.6,0.8,3.2,1.2s2.7,0.7,3.5,1.2s1.3,0.9,1.7,1.5s0.6,1.3,0.6,2.1
		c0,1.3-0.5,2.4-1.6,3.2s-2.5,1.2-4.2,1.2c-1.8,0-3.3-0.4-4.5-1.3s-1.7-2-1.7-3.4h1.8c0.1,1,0.5,1.8,1.3,2.4s1.8,0.9,3.2,0.9
		c1.2,0,2.2-0.3,3-0.8S762.8,539.1,762.8,538.3z"/>
	<path class="st1" d="M773.7,541.1c1.2,0,2.2-0.3,3.1-1s1.3-1.6,1.3-2.7h1.7c0,1-0.4,1.8-0.9,2.6s-1.3,1.4-2.2,1.9s-1.9,0.7-3,0.7
		c-2.1,0-3.7-0.7-4.9-2.2s-1.8-3.4-1.8-5.8v-0.5c0-1.6,0.3-2.9,0.8-4.1c0.5-1.2,1.3-2.1,2.4-2.8c1.1-0.7,2.2-1,3.6-1
		c1.7,0,3.2,0.5,4.3,1.6s1.7,2.4,1.8,4.1h-1.7c-0.1-1.2-0.5-2.2-1.3-3s-1.8-1.1-3.1-1.1c-1.6,0-2.8,0.6-3.7,1.7
		c-0.9,1.1-1.3,2.7-1.3,4.8v0.5c0,2,0.4,3.6,1.3,4.7S772.1,541.1,773.7,541.1z"/>
	<path class="st1" d="M792.5,542.3c-0.2-0.5-0.3-1.2-0.3-2.2c-0.6,0.8-1.4,1.4-2.4,1.9s-2,0.7-3,0.7c-1.5,0-2.8-0.4-3.7-1.3
		c-0.9-0.9-1.4-1.9-1.4-3.2c0-1.5,0.6-2.8,1.9-3.7s3.1-1.3,5.4-1.3h3.2v-1.8c0-1.1-0.3-2-1-2.7s-1.7-1-3.1-1c-1.2,0-2.2,0.3-3,0.9
		c-0.8,0.6-1.2,1.4-1.2,2.3h-1.8c0-1.3,0.6-2.4,1.8-3.3c1.2-0.9,2.6-1.4,4.3-1.4c1.8,0,3.2,0.4,4.2,1.3s1.5,2.1,1.6,3.7v7.5
		c0,1.5,0.2,2.7,0.5,3.4v0.2L792.5,542.3L792.5,542.3z M787,541c1.2,0,2.2-0.3,3.1-0.8s1.6-1.3,2-2.3v-3.5H789c-1.7,0-3.1,0.3-4.1,1
		s-1.5,1.5-1.5,2.6c0,0.9,0.3,1.6,1,2.2S785.9,541,787,541z"/>
	<path class="st1" d="M799.1,542.3v-14.4h-2.6v-1.4h2.6v-1.9c0-1.6,0.4-2.9,1.2-3.7c0.8-0.9,2-1.3,3.5-1.3c0.7,0,1.3,0.1,1.9,0.2
		l-0.1,1.5c-0.5-0.1-1-0.2-1.6-0.2c-1,0-1.7,0.3-2.3,0.9c-0.5,0.6-0.8,1.5-0.8,2.6v2h3.8v1.4h-3.8v14.4L799.1,542.3L799.1,542.3
		L799.1,542.3z"/>
	<path class="st1" d="M808.3,542.3v-14.4h-2.6v-1.4h2.6v-1.9c0-1.6,0.4-2.9,1.2-3.7s2-1.3,3.4-1.3c0.7,0,1.3,0.1,1.9,0.2l-0.1,1.5
		c-0.5-0.1-1-0.2-1.6-0.2c-1,0-1.7,0.3-2.3,0.9c-0.5,0.6-0.8,1.5-0.8,2.6v2h3.8v1.4H810v14.4L808.3,542.3L808.3,542.3z"/>
	<path class="st1" d="M815.2,534.1c0-1.5,0.3-2.9,0.9-4.1c0.6-1.2,1.4-2.2,2.5-2.8s2.3-1,3.7-1c2.1,0,3.8,0.7,5.1,2.2s2,3.4,2,5.9
		v0.4c0,1.5-0.3,2.9-0.9,4.1s-1.4,2.2-2.5,2.8s-2.3,1-3.7,1c-2.1,0-3.8-0.7-5.1-2.2s-2-3.4-2-5.9V534.1z M817,534.6
		c0,1.9,0.5,3.4,1.5,4.7s2.3,1.8,3.9,1.8c1.6,0,2.9-0.6,3.8-1.8s1.5-2.8,1.5-4.8v-0.3c0-1.2-0.2-2.3-0.7-3.3s-1.1-1.8-1.9-2.3
		s-1.7-0.8-2.8-0.8c-1.6,0-2.8,0.6-3.8,1.8s-1.5,2.8-1.5,4.8V534.6z"/>
	<path class="st1" d="M834.2,542.3h-1.8v-22.5h1.8V542.3z"/>
	<path class="st1" d="M837.5,534.2c0-2.5,0.5-4.4,1.6-5.9s2.6-2.2,4.5-2.2c2.1,0,3.8,0.8,4.9,2.5v-8.9h1.7v22.5h-1.6l-0.1-2.1
		c-1.1,1.6-2.8,2.4-5,2.4c-1.8,0-3.3-0.7-4.4-2.2S837.4,536.8,837.5,534.2L837.5,534.2L837.5,534.2z M839.3,534.5
		c0,2,0.4,3.6,1.2,4.8s2,1.8,3.4,1.8c2.2,0,3.7-1,4.6-2.9v-7.4c-0.9-2.1-2.4-3.1-4.6-3.1c-1.5,0-2.6,0.6-3.4,1.7
		S839.3,532.3,839.3,534.5z"/>
	<path class="st1" d="M862.6,542.3h-1.8v-22.5h1.8V542.3z"/>
	<path class="st1" d="M872.8,542.6c-1.3,0-2.6-0.3-3.7-1s-1.9-1.6-2.5-2.8s-0.9-2.5-0.9-4v-0.6c0-1.5,0.3-2.9,0.9-4.1
		c0.6-1.2,1.4-2.2,2.5-2.9s2.2-1,3.4-1c1.9,0,3.5,0.7,4.6,2s1.7,3.1,1.7,5.4v1h-11.3v0.3c0,1.8,0.5,3.3,1.5,4.5s2.3,1.8,3.9,1.8
		c0.9,0,1.8-0.2,2.5-0.5s1.4-0.9,2-1.6l1.1,0.8C877.1,541.7,875.2,542.6,872.8,542.6z M872.5,527.7c-1.3,0-2.4,0.5-3.3,1.5
		s-1.5,2.3-1.6,3.9h9.5v-0.2c0-1.5-0.5-2.8-1.3-3.7S873.8,527.7,872.5,527.7z"/>
	<path class="st1" d="M891.4,542.3c-0.2-0.5-0.3-1.2-0.3-2.2c-0.6,0.8-1.4,1.4-2.4,1.9c-1,0.4-2,0.7-3,0.7c-1.5,0-2.8-0.4-3.7-1.3
		c-0.9-0.8-1.4-1.9-1.4-3.2c0-1.5,0.6-2.8,1.9-3.7s3.1-1.3,5.4-1.3h3.2v-1.8c0-1.1-0.3-2-1-2.7s-1.7-1-3.1-1c-1.2,0-2.2,0.3-3,0.9
		c-0.8,0.6-1.2,1.4-1.2,2.3H881c0-1.3,0.6-2.4,1.8-3.3c1.2-0.9,2.6-1.4,4.3-1.4c1.8,0,3.2,0.4,4.2,1.3s1.5,2.1,1.6,3.7v7.5
		c0,1.5,0.2,2.7,0.5,3.4v0.2L891.4,542.3L891.4,542.3z M885.9,541c1.2,0,2.2-0.3,3.1-0.8c0.9-0.6,1.6-1.3,2-2.3v-3.5h-3.1
		c-1.7,0-3.1,0.3-4.1,1s-1.5,1.5-1.5,2.6c0,0.9,0.3,1.6,1,2.2C884,540.8,884.8,541,885.9,541z"/>
	<path class="st1" d="M904,528c-0.4-0.1-0.8-0.1-1.2-0.1c-1.1,0-2,0.3-2.8,0.9s-1.3,1.5-1.6,2.7v10.9h-1.7v-15.8h1.7v2.5
		c0.9-1.9,2.4-2.8,4.5-2.8c0.5,0,0.9,0.1,1.2,0.2L904,528z"/>
	<path class="st1" d="M907.7,526.5l0.1,2.7c0.6-1,1.3-1.7,2.2-2.2s1.9-0.8,2.9-0.8c1.7,0,3,0.5,3.8,1.4s1.2,2.4,1.3,4.3v10.4h-1.7
		v-10.4c0-1.4-0.3-2.5-0.9-3.2s-1.5-1-2.8-1c-1.1,0-2,0.3-2.9,1c-0.8,0.7-1.5,1.6-1.9,2.7v10.9h-1.7v-15.8L907.7,526.5L907.7,526.5z
		"/>
	<path class="st1" d="M921.7,521.9c0-0.3,0.1-0.6,0.3-0.8s0.5-0.3,0.9-0.3s0.7,0.1,0.9,0.3s0.3,0.5,0.3,0.8s-0.1,0.6-0.3,0.8
		s-0.5,0.3-0.9,0.3s-0.7-0.1-0.9-0.3S921.7,522.2,921.7,521.9z M923.7,542.3H922v-15.8h1.8L923.7,542.3L923.7,542.3z"/>
	<path class="st1" d="M929.4,526.5l0.1,2.7c0.6-1,1.3-1.7,2.2-2.2s1.9-0.8,2.9-0.8c1.7,0,3,0.5,3.8,1.4s1.2,2.4,1.3,4.3v10.4H938
		v-10.4c0-1.4-0.3-2.5-0.9-3.2s-1.5-1-2.8-1c-1.1,0-2,0.3-2.9,1c-0.8,0.7-1.5,1.6-1.9,2.7v10.9h-1.7v-15.8L929.4,526.5L929.4,526.5z
		"/>
	<path class="st1" d="M942.8,534.2c0-2.5,0.5-4.4,1.6-5.9s2.6-2.2,4.5-2.2c2.2,0,3.8,0.9,4.9,2.6l0.1-2.3h1.6v15.5
		c0,2-0.6,3.7-1.7,4.8s-2.7,1.8-4.6,1.8c-1.1,0-2.2-0.2-3.2-0.7s-1.8-1.1-2.4-2l1-1.1c1.2,1.5,2.7,2.3,4.4,2.3
		c1.5,0,2.6-0.4,3.4-1.3s1.2-2.1,1.3-3.6v-2c-1.1,1.6-2.8,2.3-4.9,2.3c-1.8,0-3.3-0.7-4.4-2.2s-1.7-3.4-1.7-5.9v-0.1L942.8,534.2
		L942.8,534.2z M944.6,534.5c0,2,0.4,3.6,1.2,4.8s2,1.8,3.4,1.8c2.2,0,3.7-1,4.6-2.9v-7.4c-0.4-1-1-1.8-1.8-2.3s-1.7-0.8-2.8-0.8
		c-1.5,0-2.6,0.6-3.4,1.7C945,530.5,944.6,532.3,944.6,534.5z"/>
	<path class="st1" d="M959.2,541.3c0-0.3,0.1-0.6,0.3-0.9c0.2-0.2,0.5-0.4,0.9-0.4s0.7,0.1,0.9,0.4c0.2,0.3,0.3,0.5,0.3,0.9
		s-0.1,0.6-0.3,0.8s-0.5,0.3-0.9,0.3s-0.7-0.1-0.9-0.3S959.2,541.6,959.2,541.3z"/>
</g>
</svg>
