<?xml version="1.0" encoding="utf-8"?>
<!-- Generator: Adobe Illustrator 22.0.1, SVG Export Plug-In . SVG Version: 6.00 Build 0)  -->
<svg version="1.1" id="Layer_1" xmlns="http://www.w3.org/2000/svg" xmlns:xlink="http://www.w3.org/1999/xlink" x="0px" y="0px"
	 viewBox="0 0 1600 650" style="enable-background:new 0 0 1600 650;" xml:space="preserve">
<style type="text/css">
	.st0{opacity:0.85;fill:#4EA8B5;}
	.st1{fill:#FFFFFF;}
</style>
<path class="st0" d="M1600,721.071H0V-0.392h1600V721.071z M241.85,342.97l-25.146-44.238h-17.139v71.094h17.139v-44.238
	l25.195,44.238h17.041v-71.094h-17.09V342.97z M292.084,370.802c4.329,0,8.374-0.839,12.134-2.515
	c3.76-1.677,6.665-3.931,8.716-6.763l-7.52-8.887c-2.93,3.646-6.999,5.469-12.207,5.469c-3.158,0-5.729-0.847-7.715-2.539
	c-1.986-1.692-3.271-4.021-3.857-6.982h32.715v-6.396c0-8.235-2.148-14.656-6.445-19.263c-4.297-4.606-10.156-6.909-17.578-6.909
	c-5.273,0-9.831,1.131-13.672,3.394c-3.841,2.263-6.763,5.461-8.765,9.595s-3.003,8.903-3.003,14.307v1.367
	c0,7.747,2.506,14.038,7.52,18.872C277.419,368.385,283.979,370.802,292.084,370.802z M290.229,328.712
	c2.604,0,4.606,0.725,6.006,2.173c1.399,1.448,2.067,3.491,2.002,6.128v1.27h-16.602
	C282.546,331.902,285.411,328.712,290.229,328.712z M321.176,354.64c0,5.437,1.351,9.489,4.053,12.158
	c2.702,2.669,6.885,4.004,12.549,4.004c3.223,0,6.315-0.473,9.277-1.416v-11.768c-1.107,0.195-2.474,0.293-4.102,0.293
	c-2.116,0-3.532-0.391-4.248-1.172c-0.716-0.781-1.074-2.165-1.074-4.15v-24.17h8.691v-11.426h-8.691v-13.135h-16.455v13.135h-6.738
	v11.426h6.738V354.64z M404.564,369.825l12.451-52.832h-15.771l-5.322,31.152l-8.301-31.152h-11.475l-8.398,31.885l-5.225-31.885
	h-15.771l12.451,52.832h13.916l8.789-31.348l8.74,31.348H404.564z M425.746,364.039c4.557,4.509,10.596,6.763,18.115,6.763
	c7.812,0,14.005-2.417,18.579-7.251c4.573-4.834,6.86-11.369,6.86-19.604v-0.586c0-8.431-2.279-15.096-6.836-19.995
	c-4.558-4.899-10.791-7.349-18.701-7.349c-5.176,0-9.685,1.107-13.525,3.32c-3.841,2.214-6.787,5.379-8.838,9.497
	c-2.051,4.118-3.076,8.813-3.076,14.087l0.049,2.783C418.731,353.419,421.188,359.53,425.746,364.039z M434.828,340.968
	c0.456-8.171,3.434-12.256,8.936-12.256c6.055,0,9.082,4.736,9.082,14.209v1.66c-0.13,9.017-3.125,13.525-8.984,13.525
	c-2.995,0-5.257-1.14-6.787-3.418c-1.53-2.278-2.295-5.859-2.295-10.742L434.828,340.968z M490.141,323.78l-0.537-6.787h-15.43
	v52.832h16.455v-33.447c1.465-3.255,4.785-4.883,9.961-4.883l5.42,0.391l0.293-15.283c-1.302-0.391-2.832-0.586-4.59-0.586
	C496.765,316.017,492.907,318.604,490.141,323.78z M526.02,354.786l4.639-4.639l11.523,19.678h18.848l-19.727-31.104l18.506-21.729
	h-19.727l-12.402,15.43l-1.66,2.197v-39.844h-16.455v75.049h16.455V354.786z M593.783,332.813h-29.346v12.695h29.346V332.813z
	 M653.832,356.642h-31.836v-16.992h26.953v-12.695h-26.953v-14.99h31.934v-13.232h-49.072v71.094h48.975V356.642z M673.695,332.521
	c1.562-2.539,3.955-3.809,7.178-3.809c2.832,0,4.785,0.627,5.859,1.88s1.611,3.215,1.611,5.884v33.35h16.504v-34.033
	c-0.098-6.608-1.506-11.556-4.224-14.844c-2.718-3.288-6.828-4.932-12.329-4.932c-6.413,0-11.442,2.393-15.088,7.178l-0.537-6.201
	h-15.43v52.832h16.455V332.521z M733.842,337.55c-8.073,0-14.226,1.465-18.457,4.395c-4.232,2.93-6.348,7.259-6.348,12.988
	c0,4.558,1.741,8.342,5.225,11.353c3.483,3.011,7.715,4.517,12.695,4.517c5.436,0,9.668-1.904,12.695-5.713
	c0.456,2.083,0.977,3.662,1.562,4.736h16.455v-0.83c-1.433-2.571-2.181-6.282-2.246-11.133v-23.389
	c-0.098-5.729-2.1-10.237-6.006-13.525c-3.906-3.288-9.229-4.932-15.967-4.932s-12.28,1.594-16.626,4.78s-6.519,7.332-6.519,12.436
	h16.455c0-3.86,1.953-5.79,5.859-5.79c4.199,0,6.299,2.437,6.299,7.311v2.797H733.842z M738.92,354.786
	c-0.586,1.106-1.555,2.1-2.905,2.979c-1.351,0.879-3.052,1.318-5.103,1.318c-1.562,0-2.849-0.464-3.857-1.392
	c-1.009-0.928-1.514-2.141-1.514-3.638c0-5.144,2.864-7.715,8.594-7.715h4.785V354.786z M777.582,364.405
	c3.288,4.265,7.617,6.396,12.988,6.396c6.51,0,11.556-2.327,15.137-6.982c3.58-4.655,5.371-11.312,5.371-19.971v-0.83
	c0-8.562-1.791-15.202-5.371-19.922c-3.581-4.72-8.659-7.08-15.234-7.08c-4.851,0-8.806,1.742-11.865,5.225v-26.416h-16.455v75
	h14.746L777.582,364.405z M778.607,332.953c1.432-2.828,4.004-4.241,7.715-4.241c2.799,0,4.875,1.081,6.226,3.241
	c1.351,2.162,2.026,5.777,2.026,10.847c0,4.582-0.261,7.799-0.781,9.651c-1.042,3.771-3.5,5.655-7.373,5.655
	c-3.809,0-6.413-1.397-7.812-4.192V332.953z M833.188,294.825h-16.504v75h16.504V294.825z M866.381,370.802
	c4.329,0,8.374-0.839,12.134-2.515c3.76-1.677,6.665-3.931,8.716-6.763l-7.52-8.887c-2.93,3.646-6.999,5.469-12.207,5.469
	c-3.158,0-5.729-0.847-7.715-2.539c-1.986-1.692-3.271-4.021-3.857-6.982h32.715v-6.396c0-8.235-2.148-14.656-6.445-19.263
	c-4.297-4.606-10.156-6.909-17.578-6.909c-5.273,0-9.831,1.131-13.672,3.394c-3.842,2.263-6.763,5.461-8.765,9.595
	s-3.003,8.903-3.003,14.307v1.367c0,7.747,2.506,14.038,7.52,18.872C851.716,368.385,858.275,370.802,866.381,370.802z
	 M864.525,328.712c2.604,0,4.605,0.725,6.006,2.173c1.399,1.448,2.066,3.491,2.002,6.128v1.27h-16.602
	C856.843,331.902,859.707,328.712,864.525,328.712z M911.146,370.802c5.208,0,9.505-2.214,12.891-6.641l0.83,5.664h14.795v-75
	h-16.504v26.758c-3.223-3.711-7.194-5.566-11.914-5.566c-6.479,0-11.523,2.409-15.137,7.227s-5.42,11.409-5.42,19.775
	c0,8.887,1.839,15.739,5.518,20.557C899.883,368.393,904.863,370.802,911.146,370.802z M907.191,341.017
	c0.423-8.203,3.174-12.305,8.252-12.305c3.646,0,6.217,1.562,7.715,4.688v20.117c-1.562,3.06-4.167,4.59-7.812,4.59
	c-5.469,0-8.203-4.688-8.203-14.062L907.191,341.017z M239.408,390.004c-5.013-2.849-10.661-4.272-16.943-4.272h-22.9v71.094h23.389
	c6.152-0.032,11.727-1.506,16.724-4.419c4.997-2.913,8.87-6.95,11.621-12.109c2.75-5.159,4.126-10.994,4.126-17.505v-3.271
	c-0.033-6.445-1.457-12.264-4.272-17.456C248.335,396.872,244.421,392.853,239.408,390.004z M237.943,422.792
	c0,6.901-1.318,12.102-3.955,15.601s-6.413,5.249-11.328,5.249h-5.957v-44.678h5.762c5.045,0,8.887,1.741,11.523,5.225
	s3.955,8.659,3.955,15.527V422.792z M284.76,403.017c-5.273,0-9.831,1.131-13.672,3.394c-3.841,2.263-6.763,5.461-8.765,9.595
	s-3.003,8.903-3.003,14.307v1.367c0,7.747,2.506,14.038,7.52,18.872c5.013,4.834,11.572,7.251,19.678,7.251
	c4.329,0,8.374-0.839,12.134-2.515c3.76-1.677,6.665-3.931,8.716-6.763l-7.52-8.887c-2.93,3.646-6.999,5.469-12.207,5.469
	c-3.158,0-5.729-0.847-7.715-2.539c-1.986-1.692-3.271-4.021-3.857-6.982h32.715v-6.396c0-8.235-2.148-14.656-6.445-19.263
	S292.182,403.017,284.76,403.017z M292.67,425.282h-16.602c0.911-6.38,3.776-9.57,8.594-9.57c2.604,0,4.606,0.725,6.006,2.173
	c1.399,1.448,2.067,3.491,2.002,6.128V425.282z M333.334,437.245l-8.203-33.252h-17.383l17.236,52.832h16.797l17.236-52.832h-17.334
	L333.334,437.245z M362.279,456.825h16.504v-52.832h-16.504V456.825z M377.025,384.524c-1.693-1.506-3.89-2.26-6.592-2.26
	c-2.702,0-4.899,0.754-6.592,2.26c-1.693,1.507-2.539,3.439-2.539,5.797c0,2.358,0.846,4.291,2.539,5.797
	c1.692,1.507,3.89,2.26,6.592,2.26c2.702,0,4.899-0.753,6.592-2.26c1.692-1.506,2.539-3.438,2.539-5.797
	C379.564,387.964,378.718,386.031,377.025,384.524z M408.607,415.712c2.246,0,4.036,0.732,5.371,2.197
	c1.334,1.465,2.002,3.564,2.002,6.299h15.43c0-6.511-2.019-11.67-6.055-15.479c-4.037-3.809-9.489-5.713-16.357-5.713
	c-5.078,0-9.473,1.099-13.184,3.296s-6.551,5.339-8.521,9.424c-1.97,4.085-2.954,8.797-2.954,14.136v0.684
	c0,8.528,2.213,15.202,6.641,20.02c4.427,4.817,10.481,7.227,18.164,7.227c6.543,0,11.89-1.855,16.04-5.566
	s6.226-8.464,6.226-14.258h-15.43c0.032,2.246-0.586,3.996-1.855,5.249s-3.06,1.88-5.371,1.88c-2.767,0-4.785-1.025-6.055-3.076
	s-1.904-5.729-1.904-11.035c0-3.027,0.114-5.403,0.342-7.129C401.853,418.43,404.343,415.712,408.607,415.712z M459.672,403.017
	c-5.273,0-9.831,1.131-13.672,3.394c-3.841,2.263-6.763,5.461-8.765,9.595s-3.003,8.903-3.003,14.307v1.367
	c0,7.747,2.506,14.038,7.52,18.872c5.013,4.834,11.572,7.251,19.678,7.251c4.329,0,8.374-0.839,12.134-2.515
	c3.76-1.677,6.665-3.931,8.716-6.763l-7.52-8.887c-2.93,3.646-6.999,5.469-12.207,5.469c-3.158,0-5.729-0.847-7.715-2.539
	c-1.986-1.692-3.271-4.021-3.857-6.982h32.715v-6.396c0-8.235-2.148-14.656-6.445-19.263S467.094,403.017,459.672,403.017z
	 M467.582,425.282H450.98c0.911-6.38,3.776-9.57,8.594-9.57c2.604,0,4.606,0.725,6.006,2.173c1.399,1.448,2.067,3.491,2.002,6.128
	V425.282z M549.35,435.194l-15.869-49.463h-22.51v71.094h17.139v-16.602l-1.66-34.033l17.236,50.635h11.328l17.188-50.586
	l-1.66,33.984v16.602h17.188v-71.094H565.17L549.35,435.194z M639.33,421.474c-0.098-5.729-2.1-10.237-6.006-13.525
	s-9.229-4.932-15.967-4.932s-12.28,1.594-16.626,4.779c-4.346,3.187-6.519,7.332-6.519,12.437h16.455c0-3.86,1.953-5.79,5.859-5.79
	c4.199,0,6.299,2.437,6.299,7.311v2.797h-5.078c-8.073,0-14.226,1.465-18.457,4.395c-4.232,2.93-6.348,7.259-6.348,12.988
	c0,4.558,1.741,8.342,5.225,11.353c3.483,3.011,7.715,4.517,12.695,4.517c5.436,0,9.668-1.904,12.695-5.713
	c0.456,2.083,0.977,3.662,1.562,4.736h16.455v-0.83c-1.433-2.571-2.181-6.282-2.246-11.133V421.474z M622.826,441.786
	c-0.586,1.106-1.555,2.1-2.905,2.979c-1.351,0.879-3.052,1.318-5.103,1.318c-1.562,0-2.849-0.464-3.857-1.392
	c-1.009-0.928-1.514-2.141-1.514-3.638c0-5.144,2.864-7.715,8.594-7.715h4.785V441.786z M676.674,403.017
	c-6.413,0-11.442,2.393-15.088,7.178l-0.537-6.201h-15.43v52.832h16.455v-37.305c1.562-2.539,3.955-3.809,7.178-3.809
	c2.832,0,4.785,0.627,5.859,1.88s1.611,3.215,1.611,5.884v33.35h16.504v-34.033c-0.098-6.608-1.506-11.556-4.224-14.844
	C686.285,404.66,682.175,403.017,676.674,403.017z M743.803,421.474c-0.098-5.729-2.1-10.237-6.006-13.525
	s-9.229-4.932-15.967-4.932s-12.28,1.594-16.626,4.779c-4.346,3.187-6.519,7.332-6.519,12.437h16.455c0-3.86,1.953-5.79,5.859-5.79
	c4.199,0,6.299,2.437,6.299,7.311v2.797h-5.078c-8.073,0-14.226,1.465-18.457,4.395c-4.232,2.93-6.348,7.259-6.348,12.988
	c0,4.558,1.741,8.342,5.225,11.353c3.483,3.011,7.715,4.517,12.695,4.517c5.436,0,9.668-1.904,12.695-5.713
	c0.456,2.083,0.977,3.662,1.562,4.736h16.455v-0.83c-1.433-2.571-2.181-6.282-2.246-11.133V421.474z M727.299,441.786
	c-0.586,1.106-1.555,2.1-2.905,2.979c-1.351,0.879-3.052,1.318-5.103,1.318c-1.562,0-2.849-0.464-3.857-1.392
	c-1.009-0.928-1.514-2.141-1.514-3.638c0-5.144,2.864-7.715,8.594-7.715h4.785V441.786z M783.051,408.583
	c-3.093-3.711-7.39-5.566-12.891-5.566c-4.362,0-8.187,1.115-11.475,3.345c-3.288,2.229-5.811,5.396-7.568,9.497
	s-2.637,8.821-2.637,14.16v0.586c0,8.269,1.985,14.868,5.957,19.8c3.971,4.932,9.18,7.397,15.625,7.397
	c4.817,0,8.805-1.741,11.963-5.225v1.66c0,7.486-3.646,11.23-10.938,11.23c-5.013,0-9.05-1.807-12.109-5.42l-6.885,9.668
	c1.92,2.344,4.695,4.248,8.325,5.713c3.629,1.465,7.381,2.197,11.255,2.197c5.403,0,10.156-0.92,14.258-2.759
	c4.102-1.84,7.234-4.477,9.399-7.91c2.165-3.435,3.247-7.479,3.247-12.134v-50.83h-14.941L783.051,408.583z M782.025,441.542
	c-1.628,2.376-4.216,3.564-7.764,3.564c-2.93,0-5.208-1.262-6.836-3.784c-1.628-2.522-2.441-5.949-2.441-10.278
	c0-4.98,0.83-8.781,2.49-11.401s3.955-3.931,6.885-3.931c3.516,0,6.071,1.204,7.666,3.613V441.542z M829.232,403.017
	c-5.273,0-9.831,1.131-13.672,3.394c-3.842,2.263-6.763,5.461-8.765,9.595s-3.003,8.903-3.003,14.307v1.367
	c0,7.747,2.506,14.038,7.52,18.872c5.013,4.834,11.572,7.251,19.678,7.251c4.329,0,8.373-0.839,12.133-2.515
	c3.76-1.677,6.666-3.931,8.717-6.763l-7.52-8.887c-2.93,3.646-6.999,5.469-12.207,5.469c-3.158,0-5.729-0.847-7.715-2.539
	c-1.986-1.692-3.271-4.021-3.857-6.982h32.715v-6.396c0-8.235-2.148-14.656-6.445-19.263S836.654,403.017,829.232,403.017z
	 M837.143,425.282h-16.602c0.911-6.38,3.775-9.57,8.594-9.57c2.604,0,4.605,0.725,6.006,2.173c1.399,1.448,2.066,3.491,2.002,6.128
	V425.282z M917.602,403.017c-6.771,0-11.947,2.653-15.527,7.959c-2.344-5.306-6.853-7.959-13.525-7.959
	c-6.315,0-11.345,2.393-15.088,7.178l-0.537-6.201h-15.43v52.832h16.455v-36.768c1.66-2.897,4.068-4.346,7.227-4.346
	c2.474,0,4.15,0.618,5.029,1.855s1.318,3.239,1.318,6.006v33.252h16.504v-36.084l-0.049-0.684c1.595-2.897,4.02-4.346,7.275-4.346
	c2.408,0,4.068,0.618,4.98,1.855c0.911,1.237,1.367,3.206,1.367,5.908v33.35h16.504V422.45
	C933.812,409.494,928.311,403.017,917.602,403.017z M964.809,403.017c-5.273,0-9.831,1.131-13.672,3.394
	c-3.842,2.263-6.763,5.461-8.765,9.595s-3.003,8.903-3.003,14.307v1.367c0,7.747,2.506,14.038,7.52,18.872
	c5.013,4.834,11.572,7.251,19.678,7.251c4.329,0,8.374-0.839,12.134-2.515c3.76-1.677,6.665-3.931,8.716-6.763l-7.52-8.887
	c-2.93,3.646-6.999,5.469-12.207,5.469c-3.158,0-5.729-0.847-7.715-2.539c-1.986-1.692-3.271-4.021-3.857-6.982h32.715v-6.396
	c0-8.235-2.148-14.656-6.445-19.263S972.23,403.017,964.809,403.017z M972.719,425.282h-16.602c0.911-6.38,3.775-9.57,8.594-9.57
	c2.604,0,4.605,0.725,6.006,2.173c1.399,1.448,2.066,3.491,2.002,6.128V425.282z M1023.686,403.017
	c-6.413,0-11.442,2.393-15.088,7.178l-0.537-6.201h-15.43v52.832h16.455v-37.305c1.562-2.539,3.955-3.809,7.178-3.809
	c2.832,0,4.785,0.627,5.859,1.88s1.611,3.215,1.611,5.884v33.35h16.504v-34.033c-0.098-6.608-1.506-11.556-4.224-14.844
	C1033.296,404.66,1029.187,403.017,1023.686,403.017z M1071.332,444.911c-2.116,0-3.532-0.391-4.248-1.172
	c-0.717-0.781-1.074-2.165-1.074-4.15v-24.17h8.691v-11.426h-8.691v-13.135h-16.455v13.135h-6.738v11.426h6.738v26.221
	c0,5.437,1.351,9.489,4.053,12.158c2.701,2.669,6.885,4.004,12.549,4.004c3.223,0,6.314-0.473,9.277-1.416v-11.768
	C1074.326,444.813,1072.959,444.911,1071.332,444.911z"/>
<g>
	<path class="st1" d="M209.786,501.28v14.561c-0.01,1.436-0.327,2.686-0.952,3.75s-1.506,1.882-2.644,2.453
		s-2.444,0.857-3.918,0.857c-2.246,0-4.045-0.613-5.398-1.839s-2.053-2.922-2.102-5.09V501.28h1.787v14.429
		c0,1.797,0.513,3.19,1.538,4.182s2.417,1.487,4.175,1.487s3.147-0.498,4.167-1.494s1.531-2.383,1.531-4.16V501.28H209.786z"/>
	<path class="st1" d="M215.32,506.759l0.059,2.71c0.596-0.977,1.338-1.722,2.227-2.234s1.87-0.769,2.944-0.769
		c1.699,0,2.964,0.479,3.794,1.436s1.25,2.393,1.26,4.307v10.4h-1.743v-10.415c-0.01-1.416-0.31-2.471-0.901-3.164
		s-1.536-1.04-2.834-1.04c-1.084,0-2.043,0.339-2.878,1.018s-1.453,1.595-1.853,2.747v10.854h-1.743v-15.85H215.32z"/>
	<path class="st1" d="M228.677,514.537c0-2.461,0.549-4.422,1.648-5.882s2.59-2.189,4.475-2.189c2.139,0,3.77,0.845,4.893,2.534
		v-8.892h1.743v22.5h-1.641l-0.073-2.109c-1.123,1.602-2.773,2.402-4.951,2.402c-1.826,0-3.298-0.735-4.417-2.205
		s-1.677-3.454-1.677-5.954V514.537z M230.449,514.845c0,2.021,0.405,3.615,1.216,4.782s1.953,1.751,3.428,1.751
		c2.158,0,3.691-0.952,4.6-2.856v-7.441c-0.908-2.061-2.432-3.091-4.57-3.091c-1.475,0-2.622,0.578-3.442,1.735
		S230.449,512.589,230.449,514.845z"/>
	<path class="st1" d="M251.438,522.901c-1.348,0-2.566-0.332-3.655-0.996s-1.936-1.59-2.542-2.776s-0.908-2.517-0.908-3.991v-0.63
		c0-1.523,0.295-2.896,0.886-4.116s1.414-2.181,2.468-2.879s2.197-1.047,3.428-1.047c1.924,0,3.45,0.656,4.578,1.97
		s1.692,3.108,1.692,5.384v0.981h-11.309v0.337c0,1.797,0.515,3.293,1.545,4.489s2.327,1.795,3.889,1.795
		c0.938,0,1.765-0.171,2.483-0.513s1.37-0.889,1.956-1.641l1.099,0.835C255.759,521.969,253.889,522.901,251.438,522.901z
		 M251.115,507.96c-1.318,0-2.429,0.483-3.333,1.45s-1.453,2.266-1.648,3.896h9.507v-0.19c-0.049-1.523-0.483-2.764-1.304-3.721
		S252.443,507.96,251.115,507.96z"/>
	<path class="st1" d="M267.372,508.253c-0.371-0.068-0.767-0.103-1.187-0.103c-1.094,0-2.019,0.305-2.776,0.915
		s-1.296,1.497-1.619,2.659v10.884h-1.743v-15.85h1.714l0.029,2.52c0.928-1.875,2.417-2.812,4.468-2.812
		c0.488,0,0.874,0.063,1.157,0.19L267.372,508.253z"/>
	<path class="st1" d="M278.883,518.58c0-0.869-0.349-1.567-1.047-2.095s-1.75-0.94-3.157-1.238s-2.498-0.64-3.274-1.025
		s-1.353-0.856-1.729-1.413s-0.564-1.23-0.564-2.021c0-1.25,0.522-2.283,1.567-3.099s2.383-1.223,4.014-1.223
		c1.768,0,3.186,0.437,4.255,1.311s1.604,2.015,1.604,3.421h-1.758c0-0.928-0.388-1.699-1.165-2.314s-1.755-0.923-2.937-0.923
		c-1.152,0-2.078,0.256-2.776,0.769s-1.047,1.18-1.047,2c0,0.791,0.291,1.403,0.872,1.838s1.641,0.833,3.179,1.194
		s2.69,0.747,3.457,1.157s1.335,0.903,1.707,1.479s0.557,1.274,0.557,2.095c0,1.338-0.54,2.407-1.619,3.208
		s-2.488,1.201-4.226,1.201c-1.846,0-3.342-0.447-4.49-1.341s-1.721-2.023-1.721-3.391h1.758c0.068,1.025,0.5,1.823,1.296,2.395
		s1.848,0.857,3.157,0.857c1.221,0,2.207-0.269,2.959-0.806S278.883,519.4,278.883,518.58z"/>
	<path class="st1" d="M286.556,502.701v4.058h3.281v1.436h-3.281v10.573c0,0.88,0.159,1.535,0.476,1.965
		c0.317,0.431,0.847,0.646,1.589,0.646c0.293,0,0.767-0.049,1.421-0.146l0.073,1.423c-0.459,0.164-1.084,0.247-1.875,0.247
		c-1.201,0-2.075-0.35-2.622-1.048s-0.82-1.726-0.82-3.083v-10.576h-2.915v-1.436h2.915v-4.058H286.556z"/>
	<path class="st1" d="M302.725,522.608c-0.176-0.498-0.288-1.235-0.337-2.212c-0.615,0.801-1.399,1.418-2.351,1.853
		s-1.96,0.652-3.025,0.652c-1.523,0-2.756-0.425-3.699-1.274s-1.414-1.924-1.414-3.223c0-1.543,0.642-2.764,1.926-3.662
		s3.074-1.348,5.369-1.348h3.179v-1.802c0-1.133-0.349-2.024-1.047-2.674s-1.716-0.974-3.054-0.974
		c-1.221,0-2.231,0.312-3.032,0.938s-1.201,1.377-1.201,2.256l-1.758-0.015c0-1.26,0.586-2.352,1.758-3.274s2.612-1.384,4.321-1.384
		c1.768,0,3.162,0.441,4.182,1.325s1.545,2.117,1.575,3.699v7.5c0,1.533,0.161,2.681,0.483,3.442v0.176H302.725z M297.217,521.349
		c1.172,0,2.219-0.283,3.142-0.85s1.594-1.323,2.014-2.271v-3.486h-3.135c-1.748,0.02-3.115,0.339-4.102,0.959
		s-1.479,1.473-1.479,2.557c0,0.889,0.33,1.626,0.989,2.212S296.162,521.349,297.217,521.349z"/>
	<path class="st1" d="M309.709,506.759l0.059,2.71c0.596-0.977,1.338-1.722,2.227-2.234s1.87-0.769,2.944-0.769
		c1.699,0,2.964,0.479,3.794,1.436s1.25,2.393,1.26,4.307v10.4h-1.743v-10.415c-0.01-1.416-0.31-2.471-0.901-3.164
		s-1.536-1.04-2.834-1.04c-1.084,0-2.043,0.339-2.878,1.018s-1.453,1.595-1.853,2.747v10.854h-1.743v-15.85H309.709z"/>
	<path class="st1" d="M323.065,514.537c0-2.461,0.549-4.422,1.648-5.882s2.59-2.189,4.475-2.189c2.139,0,3.77,0.845,4.893,2.534
		v-8.892h1.743v22.5h-1.641l-0.073-2.109c-1.123,1.602-2.773,2.402-4.951,2.402c-1.826,0-3.298-0.735-4.417-2.205
		s-1.677-3.454-1.677-5.954V514.537z M324.838,514.845c0,2.021,0.405,3.615,1.216,4.782s1.953,1.751,3.428,1.751
		c2.158,0,3.691-0.952,4.6-2.856v-7.441c-0.908-2.061-2.432-3.091-4.57-3.091c-1.475,0-2.622,0.578-3.442,1.735
		S324.838,512.589,324.838,514.845z"/>
	<path class="st1" d="M348.958,502.701v4.058h3.281v1.436h-3.281v10.573c0,0.88,0.159,1.535,0.476,1.965
		c0.317,0.431,0.847,0.646,1.589,0.646c0.293,0,0.767-0.049,1.421-0.146l0.073,1.423c-0.459,0.164-1.084,0.247-1.875,0.247
		c-1.201,0-2.075-0.35-2.622-1.048s-0.82-1.726-0.82-3.083v-10.576h-2.915v-1.436h2.915v-4.058H348.958z"/>
	<path class="st1" d="M356.865,509.439c0.576-0.947,1.313-1.68,2.212-2.197s1.88-0.776,2.944-0.776c1.699,0,2.964,0.479,3.794,1.436
		s1.25,2.393,1.26,4.307v10.4h-1.743v-10.415c-0.01-1.416-0.31-2.471-0.901-3.164s-1.536-1.04-2.834-1.04
		c-1.084,0-2.043,0.339-2.878,1.018s-1.453,1.595-1.853,2.747v10.854h-1.743v-22.5h1.743V509.439z"/>
	<path class="st1" d="M376.975,522.901c-1.348,0-2.566-0.332-3.655-0.996s-1.936-1.59-2.542-2.776s-0.908-2.517-0.908-3.991v-0.63
		c0-1.523,0.295-2.896,0.886-4.116s1.414-2.181,2.468-2.879s2.197-1.047,3.428-1.047c1.924,0,3.45,0.656,4.578,1.97
		s1.692,3.108,1.692,5.384v0.981h-11.309v0.337c0,1.797,0.515,3.293,1.545,4.489s2.327,1.795,3.889,1.795
		c0.938,0,1.765-0.171,2.483-0.513s1.37-0.889,1.956-1.641l1.099,0.835C381.296,521.969,379.426,522.901,376.975,522.901z
		 M376.652,507.96c-1.318,0-2.429,0.483-3.333,1.45s-1.453,2.266-1.648,3.896h9.507v-0.19c-0.049-1.523-0.483-2.764-1.304-3.721
		S377.98,507.96,376.652,507.96z"/>
	<path class="st1" d="M392.027,502.181c0-0.33,0.107-0.608,0.322-0.837c0.215-0.228,0.508-0.342,0.879-0.342
		s0.667,0.114,0.886,0.342c0.22,0.229,0.33,0.507,0.33,0.837s-0.11,0.606-0.33,0.83s-0.515,0.335-0.886,0.335
		s-0.664-0.111-0.879-0.335S392.027,502.511,392.027,502.181z M394.093,522.608h-1.758v-15.85h1.758V522.608z"/>
	<path class="st1" d="M399.7,506.759l0.059,2.578c0.586-0.957,1.318-1.675,2.197-2.153s1.855-0.718,2.93-0.718
		c2.5,0,4.087,1.025,4.761,3.076c0.566-0.986,1.323-1.746,2.271-2.278s1.992-0.798,3.135-0.798c3.398,0,5.132,1.855,5.2,5.566
		v10.576h-1.758v-10.444c-0.01-1.416-0.315-2.466-0.916-3.149s-1.58-1.025-2.937-1.025c-1.26,0.02-2.324,0.427-3.193,1.223
		s-1.353,1.766-1.45,2.908v10.488h-1.758v-10.576c-0.01-1.357-0.33-2.371-0.959-3.04s-1.599-1.003-2.908-1.003
		c-1.104,0-2.051,0.314-2.842,0.944s-1.377,1.565-1.758,2.806v10.869h-1.758v-15.85H399.7z"/>
	<path class="st1" d="M436.685,514.845c0,2.471-0.547,4.431-1.641,5.881s-2.559,2.176-4.395,2.176c-2.168,0-3.828-0.762-4.98-2.285
		v8.086h-1.743v-21.943h1.626L425.64,509c1.143-1.689,2.798-2.534,4.966-2.534c1.895,0,3.381,0.718,4.46,2.153
		s1.619,3.428,1.619,5.977V514.845z M434.927,514.537c0-2.021-0.415-3.618-1.245-4.79s-1.987-1.758-3.472-1.758
		c-1.074,0-1.997,0.259-2.769,0.776s-1.362,1.27-1.772,2.256v7.603c0.42,0.908,1.021,1.602,1.802,2.08s1.704,0.718,2.769,0.718
		c1.475,0,2.625-0.589,3.45-1.766S434.927,516.773,434.927,514.537z"/>
	<path class="st1" d="M449.821,522.608c-0.176-0.498-0.288-1.235-0.337-2.212c-0.615,0.801-1.399,1.418-2.351,1.853
		s-1.96,0.652-3.025,0.652c-1.523,0-2.756-0.425-3.699-1.274s-1.414-1.924-1.414-3.223c0-1.543,0.642-2.764,1.926-3.662
		s3.074-1.348,5.369-1.348h3.179v-1.802c0-1.133-0.349-2.024-1.047-2.674s-1.716-0.974-3.054-0.974
		c-1.221,0-2.231,0.312-3.032,0.938s-1.201,1.377-1.201,2.256l-1.758-0.015c0-1.26,0.586-2.352,1.758-3.274s2.612-1.384,4.321-1.384
		c1.768,0,3.162,0.441,4.182,1.325s1.545,2.117,1.575,3.699v7.5c0,1.533,0.161,2.681,0.483,3.442v0.176H449.821z M444.313,521.349
		c1.172,0,2.219-0.283,3.142-0.85s1.594-1.323,2.014-2.271v-3.486h-3.135c-1.748,0.02-3.115,0.339-4.102,0.959
		s-1.479,1.473-1.479,2.557c0,0.889,0.33,1.626,0.989,2.212S443.259,521.349,444.313,521.349z"/>
	<path class="st1" d="M460.995,521.422c1.221,0,2.244-0.345,3.069-1.033s1.272-1.579,1.34-2.673h1.685
		c-0.049,0.967-0.352,1.848-0.908,2.644s-1.296,1.419-2.219,1.868s-1.912,0.674-2.966,0.674c-2.08,0-3.728-0.723-4.944-2.168
		s-1.824-3.389-1.824-5.83v-0.527c0-1.562,0.273-2.944,0.82-4.146s1.331-2.129,2.351-2.783s2.214-0.981,3.582-0.981
		c1.738,0,3.171,0.518,4.299,1.553s1.731,2.397,1.809,4.087h-1.685c-0.078-1.24-0.525-2.241-1.34-3.003s-1.843-1.143-3.083-1.143
		c-1.582,0-2.81,0.571-3.684,1.714s-1.311,2.744-1.311,4.805v0.513c0,2.021,0.437,3.599,1.311,4.731
		S459.403,521.422,460.995,521.422z"/>
	<path class="st1" d="M472.564,502.701v4.058h3.281v1.436h-3.281v10.573c0,0.88,0.159,1.535,0.476,1.965
		c0.317,0.431,0.847,0.646,1.589,0.646c0.293,0,0.767-0.049,1.421-0.146l0.073,1.423c-0.459,0.164-1.084,0.247-1.875,0.247
		c-1.201,0-2.075-0.35-2.622-1.048s-0.82-1.726-0.82-3.083v-10.576h-2.915v-1.436h2.915v-4.058H472.564z"/>
	<path class="st1" d="M487.998,502.701v4.058h3.281v1.436h-3.281v10.573c0,0.88,0.159,1.535,0.476,1.965
		c0.317,0.431,0.847,0.646,1.589,0.646c0.293,0,0.767-0.049,1.421-0.146l0.073,1.423c-0.459,0.164-1.084,0.247-1.875,0.247
		c-1.201,0-2.075-0.35-2.622-1.048s-0.82-1.726-0.82-3.083v-10.576h-2.915v-1.436h2.915v-4.058H487.998z"/>
	<path class="st1" d="M495.905,509.439c0.576-0.947,1.313-1.68,2.212-2.197s1.88-0.776,2.944-0.776c1.699,0,2.964,0.479,3.794,1.436
		s1.25,2.393,1.26,4.307v10.4h-1.743v-10.415c-0.01-1.416-0.31-2.471-0.901-3.164s-1.536-1.04-2.834-1.04
		c-1.084,0-2.043,0.339-2.878,1.018s-1.453,1.595-1.853,2.747v10.854h-1.743v-22.5h1.743V509.439z"/>
	<path class="st1" d="M519.882,522.608c-0.176-0.498-0.288-1.235-0.337-2.212c-0.615,0.801-1.399,1.418-2.351,1.853
		s-1.96,0.652-3.025,0.652c-1.523,0-2.756-0.425-3.699-1.274s-1.414-1.924-1.414-3.223c0-1.543,0.642-2.764,1.926-3.662
		s3.074-1.348,5.369-1.348h3.179v-1.802c0-1.133-0.349-2.024-1.047-2.674s-1.716-0.974-3.054-0.974
		c-1.221,0-2.231,0.312-3.032,0.938s-1.201,1.377-1.201,2.256l-1.758-0.015c0-1.26,0.586-2.352,1.758-3.274s2.612-1.384,4.321-1.384
		c1.768,0,3.162,0.441,4.182,1.325s1.545,2.117,1.575,3.699v7.5c0,1.533,0.161,2.681,0.483,3.442v0.176H519.882z M514.374,521.349
		c1.172,0,2.219-0.283,3.142-0.85s1.594-1.323,2.014-2.271v-3.486h-3.135c-1.748,0.02-3.115,0.339-4.102,0.959
		s-1.479,1.473-1.479,2.557c0,0.889,0.33,1.626,0.989,2.212S513.319,521.349,514.374,521.349z"/>
	<path class="st1" d="M527.921,502.701v4.058h3.281v1.436h-3.281v10.573c0,0.88,0.159,1.535,0.476,1.965
		c0.317,0.431,0.847,0.646,1.589,0.646c0.293,0,0.767-0.049,1.421-0.146l0.073,1.423c-0.459,0.164-1.084,0.247-1.875,0.247
		c-1.201,0-2.075-0.35-2.622-1.048s-0.82-1.726-0.82-3.083v-10.576h-2.915v-1.436h2.915v-4.058H527.921z"/>
	<path class="st1" d="M550.635,522.608c-0.176-0.498-0.288-1.235-0.337-2.212c-0.615,0.801-1.399,1.418-2.351,1.853
		s-1.96,0.652-3.025,0.652c-1.523,0-2.756-0.425-3.699-1.274s-1.414-1.924-1.414-3.223c0-1.543,0.642-2.764,1.926-3.662
		s3.074-1.348,5.369-1.348h3.179v-1.802c0-1.133-0.349-2.024-1.047-2.674s-1.716-0.974-3.054-0.974
		c-1.221,0-2.231,0.312-3.032,0.938s-1.201,1.377-1.201,2.256l-1.758-0.015c0-1.26,0.586-2.352,1.758-3.274s2.612-1.384,4.321-1.384
		c1.768,0,3.162,0.441,4.182,1.325s1.545,2.117,1.575,3.699v7.5c0,1.533,0.161,2.681,0.483,3.442v0.176H550.635z M545.127,521.349
		c1.172,0,2.219-0.283,3.142-0.85s1.594-1.323,2.014-2.271v-3.486h-3.135c-1.748,0.02-3.115,0.339-4.102,0.959
		s-1.479,1.473-1.479,2.557c0,0.889,0.33,1.626,0.989,2.212S544.072,521.349,545.127,521.349z"/>
	<path class="st1" d="M555.246,514.537c0-2.461,0.549-4.422,1.648-5.882s2.59-2.189,4.475-2.189c2.139,0,3.77,0.845,4.893,2.534
		v-8.892h1.743v22.5h-1.641l-0.073-2.109c-1.123,1.602-2.773,2.402-4.951,2.402c-1.826,0-3.298-0.735-4.417-2.205
		s-1.677-3.454-1.677-5.954V514.537z M557.019,514.845c0,2.021,0.405,3.615,1.216,4.782s1.953,1.751,3.428,1.751
		c2.158,0,3.691-0.952,4.6-2.856v-7.441c-0.908-2.061-2.432-3.091-4.57-3.091c-1.475,0-2.622,0.578-3.442,1.735
		S557.019,512.589,557.019,514.845z"/>
	<path class="st1" d="M571.166,514.537c0-2.461,0.549-4.422,1.648-5.882s2.59-2.189,4.475-2.189c2.139,0,3.77,0.845,4.893,2.534
		v-8.892h1.743v22.5h-1.641l-0.073-2.109c-1.123,1.602-2.773,2.402-4.951,2.402c-1.826,0-3.298-0.735-4.417-2.205
		s-1.677-3.454-1.677-5.954V514.537z M572.938,514.845c0,2.021,0.405,3.615,1.216,4.782s1.953,1.751,3.428,1.751
		c2.158,0,3.691-0.952,4.6-2.856v-7.441c-0.908-2.061-2.432-3.091-4.57-3.091c-1.475,0-2.622,0.578-3.442,1.735
		S572.938,512.589,572.938,514.845z"/>
	<path class="st1" d="M587.687,502.181c0-0.33,0.107-0.608,0.322-0.837c0.215-0.228,0.508-0.342,0.879-0.342
		s0.667,0.114,0.886,0.342c0.22,0.229,0.33,0.507,0.33,0.837s-0.11,0.606-0.33,0.83s-0.515,0.335-0.886,0.335
		s-0.664-0.111-0.879-0.335S587.687,502.511,587.687,502.181z M589.752,522.608h-1.758v-15.85h1.758V522.608z"/>
	<path class="st1" d="M595.433,506.759l0.059,2.71c0.596-0.977,1.338-1.722,2.227-2.234s1.87-0.769,2.944-0.769
		c1.699,0,2.964,0.479,3.794,1.436s1.25,2.393,1.26,4.307v10.4h-1.743v-10.415c-0.01-1.416-0.31-2.471-0.901-3.164
		s-1.536-1.04-2.834-1.04c-1.084,0-2.043,0.339-2.878,1.018s-1.453,1.595-1.853,2.747v10.854h-1.743v-15.85H595.433z"/>
	<path class="st1" d="M608.789,514.537c0-2.48,0.549-4.446,1.648-5.896s2.59-2.175,4.475-2.175c2.158,0,3.799,0.859,4.922,2.578
		l0.088-2.285h1.641v15.527c0,2.041-0.571,3.657-1.714,4.849s-2.69,1.787-4.644,1.787c-1.104,0-2.156-0.247-3.157-0.74
		s-1.79-1.149-2.366-1.97l0.981-1.055c1.24,1.523,2.715,2.285,4.424,2.285c1.465,0,2.607-0.433,3.428-1.297s1.245-2.062,1.274-3.596
		v-1.992c-1.123,1.562-2.759,2.344-4.907,2.344c-1.836,0-3.311-0.732-4.424-2.197s-1.67-3.442-1.67-5.933V514.537z M610.562,514.845
		c0,2.021,0.405,3.615,1.216,4.782s1.953,1.751,3.428,1.751c2.158,0,3.687-0.967,4.585-2.9v-7.368
		c-0.41-1.016-1.001-1.79-1.772-2.322s-1.699-0.798-2.783-0.798c-1.475,0-2.622,0.578-3.442,1.735S610.562,512.589,610.562,514.845z
		"/>
	<path class="st1" d="M633.671,509.439c0.576-0.947,1.313-1.68,2.212-2.197s1.88-0.776,2.944-0.776c1.699,0,2.964,0.479,3.794,1.436
		s1.25,2.393,1.26,4.307v10.4h-1.743v-10.415c-0.01-1.416-0.31-2.471-0.901-3.164s-1.536-1.04-2.834-1.04
		c-1.084,0-2.043,0.339-2.878,1.018s-1.453,1.595-1.853,2.747v10.854h-1.743v-22.5h1.743V509.439z"/>
	<path class="st1" d="M657.838,520.602c-1.055,1.533-2.739,2.3-5.054,2.3c-1.689,0-2.974-0.491-3.853-1.473
		s-1.328-2.434-1.348-4.357v-10.312h1.743v10.093c0,3.018,1.221,4.526,3.662,4.526c2.539,0,4.146-1.05,4.819-3.149v-11.47h1.758
		v15.85h-1.699L657.838,520.602z"/>
	<path class="st1" d="M665.042,506.759l0.059,2.71c0.596-0.977,1.338-1.722,2.227-2.234s1.87-0.769,2.944-0.769
		c1.699,0,2.964,0.479,3.794,1.436s1.25,2.393,1.26,4.307v10.4h-1.743v-10.415c-0.01-1.416-0.31-2.471-0.901-3.164
		s-1.536-1.04-2.834-1.04c-1.084,0-2.043,0.339-2.878,1.018s-1.453,1.595-1.853,2.747v10.854h-1.743v-15.85H665.042z"/>
	<path class="st1" d="M678.398,514.537c0-2.461,0.549-4.422,1.648-5.882s2.59-2.189,4.475-2.189c2.139,0,3.77,0.845,4.893,2.534
		v-8.892h1.743v22.5h-1.641l-0.073-2.109c-1.123,1.602-2.773,2.402-4.951,2.402c-1.826,0-3.298-0.735-4.417-2.205
		s-1.677-3.454-1.677-5.954V514.537z M680.171,514.845c0,2.021,0.405,3.615,1.216,4.782s1.953,1.751,3.428,1.751
		c2.158,0,3.691-0.952,4.6-2.856v-7.441c-0.908-2.061-2.432-3.091-4.57-3.091c-1.475,0-2.622,0.578-3.442,1.735
		S680.171,512.589,680.171,514.845z"/>
	<path class="st1" d="M702.346,508.253c-0.371-0.068-0.767-0.103-1.187-0.103c-1.094,0-2.019,0.305-2.776,0.915
		s-1.296,1.497-1.619,2.659v10.884h-1.743v-15.85h1.714l0.029,2.52c0.928-1.875,2.417-2.812,4.468-2.812
		c0.488,0,0.874,0.063,1.157,0.19L702.346,508.253z"/>
	<path class="st1" d="M710.224,522.901c-1.348,0-2.566-0.332-3.655-0.996s-1.936-1.59-2.542-2.776s-0.908-2.517-0.908-3.991v-0.63
		c0-1.523,0.295-2.896,0.886-4.116s1.414-2.181,2.468-2.879s2.197-1.047,3.428-1.047c1.924,0,3.45,0.656,4.578,1.97
		s1.692,3.108,1.692,5.384v0.981h-11.309v0.337c0,1.797,0.515,3.293,1.545,4.489s2.327,1.795,3.889,1.795
		c0.938,0,1.765-0.171,2.483-0.513s1.37-0.889,1.956-1.641l1.099,0.835C714.545,521.969,712.675,522.901,710.224,522.901z
		 M709.901,507.96c-1.318,0-2.429,0.483-3.333,1.45s-1.453,2.266-1.648,3.896h9.507v-0.19c-0.049-1.523-0.483-2.764-1.304-3.721
		S711.229,507.96,709.901,507.96z"/>
	<path class="st1" d="M718.131,514.537c0-2.461,0.549-4.422,1.648-5.882s2.59-2.189,4.475-2.189c2.139,0,3.77,0.845,4.893,2.534
		v-8.892h1.743v22.5h-1.641l-0.073-2.109c-1.123,1.602-2.773,2.402-4.951,2.402c-1.826,0-3.298-0.735-4.417-2.205
		s-1.677-3.454-1.677-5.954V514.537z M719.903,514.845c0,2.021,0.405,3.615,1.216,4.782s1.953,1.751,3.428,1.751
		c2.158,0,3.691-0.952,4.6-2.856v-7.441c-0.908-2.061-2.432-3.091-4.57-3.091c-1.475,0-2.622,0.578-3.442,1.735
		S719.903,512.589,719.903,514.845z"/>
	<path class="st1" d="M744.246,518.58c0-0.869-0.349-1.567-1.047-2.095s-1.75-0.94-3.157-1.238s-2.498-0.64-3.274-1.025
		s-1.353-0.856-1.729-1.413s-0.564-1.23-0.564-2.021c0-1.25,0.522-2.283,1.567-3.099s2.383-1.223,4.014-1.223
		c1.768,0,3.186,0.437,4.255,1.311s1.604,2.015,1.604,3.421h-1.758c0-0.928-0.388-1.699-1.165-2.314s-1.755-0.923-2.937-0.923
		c-1.152,0-2.078,0.256-2.776,0.769s-1.047,1.18-1.047,2c0,0.791,0.291,1.403,0.872,1.838s1.641,0.833,3.179,1.194
		s2.69,0.747,3.457,1.157s1.335,0.903,1.707,1.479s0.557,1.274,0.557,2.095c0,1.338-0.54,2.407-1.619,3.208
		s-2.488,1.201-4.226,1.201c-1.846,0-3.342-0.447-4.49-1.341s-1.721-2.023-1.721-3.391h1.758c0.068,1.025,0.5,1.823,1.296,2.395
		s1.848,0.857,3.157,0.857c1.221,0,2.207-0.269,2.959-0.806S744.246,519.4,744.246,518.58z"/>
	<path class="st1" d="M754.772,514.449c0-1.523,0.295-2.896,0.886-4.116s1.426-2.171,2.505-2.85s2.302-1.018,3.669-1.018
		c2.109,0,3.818,0.739,5.127,2.219s1.963,3.44,1.963,5.882v0.366c0,1.533-0.295,2.912-0.886,4.138s-1.423,2.171-2.498,2.835
		s-2.3,0.996-3.677,0.996c-2.1,0-3.806-0.74-5.12-2.22s-1.97-3.439-1.97-5.881V514.449z M756.53,514.933
		c0,1.895,0.491,3.449,1.472,4.665s2.268,1.824,3.86,1.824c1.582,0,2.864-0.608,3.845-1.824s1.472-2.819,1.472-4.812v-0.337
		c0-1.211-0.225-2.319-0.674-3.325s-1.079-1.785-1.89-2.337s-1.738-0.827-2.783-0.827c-1.562,0-2.837,0.612-3.823,1.838
		s-1.479,2.83-1.479,4.812V514.933z"/>
	<path class="st1" d="M773.051,522.608v-14.414h-2.622v-1.436h2.622v-1.919c0-1.621,0.413-2.866,1.238-3.735s1.975-1.304,3.45-1.304
		c0.664,0,1.284,0.082,1.86,0.246l-0.132,1.453c-0.488-0.117-1.021-0.176-1.597-0.176c-0.967,0-1.719,0.301-2.256,0.903
		c-0.537,0.602-0.806,1.456-0.806,2.562v1.969h3.779v1.436h-3.779v14.414H773.051z"/>
	<path class="st1" d="M786.814,514.537c0-2.461,0.549-4.422,1.648-5.882s2.59-2.189,4.475-2.189c2.139,0,3.77,0.845,4.893,2.534
		v-8.892h1.743v22.5h-1.641l-0.073-2.109c-1.123,1.602-2.773,2.402-4.951,2.402c-1.826,0-3.298-0.735-4.417-2.205
		s-1.677-3.454-1.677-5.954V514.537z M788.587,514.845c0,2.021,0.405,3.615,1.216,4.782s1.953,1.751,3.428,1.751
		c2.158,0,3.691-0.952,4.6-2.856v-7.441c-0.908-2.061-2.432-3.091-4.57-3.091c-1.475,0-2.622,0.578-3.442,1.735
		S788.587,512.589,788.587,514.845z"/>
	<path class="st1" d="M809.575,522.901c-1.348,0-2.566-0.332-3.655-0.996s-1.936-1.59-2.541-2.776s-0.908-2.517-0.908-3.991v-0.63
		c0-1.523,0.295-2.896,0.886-4.116s1.414-2.181,2.469-2.879s2.197-1.047,3.428-1.047c1.924,0,3.449,0.656,4.577,1.97
		s1.692,3.108,1.692,5.384v0.981h-11.309v0.337c0,1.797,0.515,3.293,1.545,4.489s2.327,1.795,3.89,1.795
		c0.938,0,1.765-0.171,2.482-0.513s1.37-0.889,1.956-1.641l1.099,0.835C813.896,521.969,812.026,522.901,809.575,522.901z
		 M809.253,507.96c-1.318,0-2.43,0.483-3.333,1.45s-1.452,2.266-1.647,3.896h9.507v-0.19c-0.049-1.523-0.483-2.764-1.304-3.721
		S810.581,507.96,809.253,507.96z"/>
	<path class="st1" d="M822.931,520.191l4.819-13.433h1.802l-5.918,15.85h-1.421l-5.947-15.85h1.802L822.931,520.191z"/>
	<path class="st1" d="M831.57,502.181c0-0.33,0.107-0.608,0.322-0.837c0.215-0.228,0.508-0.342,0.879-0.342s0.667,0.114,0.887,0.342
		c0.22,0.229,0.329,0.507,0.329,0.837s-0.109,0.606-0.329,0.83s-0.516,0.335-0.887,0.335s-0.664-0.111-0.879-0.335
		S831.57,502.511,831.57,502.181z M833.636,522.608h-1.758v-15.85h1.758V522.608z"/>
	<path class="st1" d="M843.506,521.422c1.221,0,2.243-0.345,3.068-1.033s1.272-1.579,1.341-2.673h1.685
		c-0.049,0.967-0.352,1.848-0.908,2.644s-1.297,1.419-2.219,1.868c-0.924,0.449-1.912,0.674-2.967,0.674
		c-2.08,0-3.729-0.723-4.943-2.168c-1.217-1.445-1.824-3.389-1.824-5.83v-0.527c0-1.562,0.273-2.944,0.82-4.146
		s1.33-2.129,2.352-2.783c1.02-0.654,2.214-0.981,3.581-0.981c1.738,0,3.171,0.518,4.3,1.553c1.127,1.035,1.73,2.397,1.809,4.087
		h-1.685c-0.078-1.24-0.525-2.241-1.341-3.003s-1.843-1.143-3.083-1.143c-1.582,0-2.811,0.571-3.685,1.714s-1.311,2.744-1.311,4.805
		v0.513c0,2.021,0.437,3.599,1.311,4.731S841.914,521.422,843.506,521.422z"/>
	<path class="st1" d="M858.488,522.901c-1.348,0-2.566-0.332-3.655-0.996s-1.936-1.59-2.541-2.776s-0.908-2.517-0.908-3.991v-0.63
		c0-1.523,0.295-2.896,0.887-4.116c0.59-1.221,1.413-2.181,2.468-2.879s2.197-1.047,3.428-1.047c1.924,0,3.45,0.656,4.577,1.97
		c1.129,1.313,1.692,3.108,1.692,5.384v0.981h-11.309v0.337c0,1.797,0.515,3.293,1.546,4.489c1.029,1.196,2.326,1.795,3.889,1.795
		c0.938,0,1.766-0.171,2.482-0.513c0.719-0.342,1.37-0.889,1.956-1.641l1.099,0.835C862.81,521.969,860.939,522.901,858.488,522.901
		z M858.166,507.96c-1.318,0-2.43,0.483-3.333,1.45s-1.452,2.266-1.647,3.896h9.507v-0.19c-0.049-1.523-0.483-2.764-1.304-3.721
		S859.494,507.96,858.166,507.96z"/>
	<path class="st1" d="M876.591,518.58c0-0.869-0.35-1.567-1.047-2.095c-0.699-0.527-1.751-0.94-3.157-1.238s-2.497-0.64-3.274-1.025
		c-0.775-0.386-1.353-0.856-1.729-1.413s-0.563-1.23-0.563-2.021c0-1.25,0.522-2.283,1.567-3.099s2.383-1.223,4.014-1.223
		c1.768,0,3.186,0.437,4.256,1.311c1.068,0.874,1.604,2.015,1.604,3.421h-1.758c0-0.928-0.389-1.699-1.164-2.314
		c-0.777-0.615-1.756-0.923-2.938-0.923c-1.152,0-2.078,0.256-2.775,0.769c-0.699,0.513-1.048,1.18-1.048,2
		c0,0.791,0.29,1.403,0.872,1.838c0.58,0.435,1.641,0.833,3.178,1.194c1.539,0.361,2.69,0.747,3.457,1.157s1.336,0.903,1.707,1.479
		s0.557,1.274,0.557,2.095c0,1.338-0.54,2.407-1.619,3.208s-2.487,1.201-4.226,1.201c-1.846,0-3.343-0.447-4.489-1.341
		c-1.148-0.894-1.722-2.023-1.722-3.391h1.758c0.068,1.025,0.5,1.823,1.296,2.395s1.849,0.857,3.157,0.857
		c1.221,0,2.207-0.269,2.959-0.806S876.591,519.4,876.591,518.58z"/>
	<path class="st1" d="M881.173,526.593l-1.04-0.762c0.889-1.191,1.348-2.427,1.377-3.706v-2.271h1.714v1.831
		C883.224,523.717,882.54,525.353,881.173,526.593z"/>
	<path class="st1" d="M895.039,522.608h-1.758v-22.5h1.758V522.608z"/>
	<path class="st1" d="M898.947,502.181c0-0.33,0.107-0.608,0.322-0.837c0.215-0.228,0.508-0.342,0.879-0.342
		s0.667,0.114,0.886,0.342c0.221,0.229,0.33,0.507,0.33,0.837s-0.109,0.606-0.33,0.83c-0.219,0.224-0.515,0.335-0.886,0.335
		s-0.664-0.111-0.879-0.335S898.947,502.511,898.947,502.181z M901.013,522.608h-1.758v-15.85h1.758V522.608z"/>
	<path class="st1" d="M908.788,514.625l-2.007,1.934v6.05h-1.758v-22.5h1.758v14.399l1.655-1.787l6.064-5.962h2.212l-6.724,6.68
		l7.31,9.17h-2.095L908.788,514.625z"/>
	<path class="st1" d="M924.811,522.901c-1.348,0-2.566-0.332-3.655-0.996s-1.936-1.59-2.541-2.776s-0.908-2.517-0.908-3.991v-0.63
		c0-1.523,0.295-2.896,0.887-4.116c0.59-1.221,1.413-2.181,2.468-2.879s2.197-1.047,3.428-1.047c1.924,0,3.45,0.656,4.577,1.97
		c1.129,1.313,1.692,3.108,1.692,5.384v0.981h-11.309v0.337c0,1.797,0.515,3.293,1.546,4.489c1.029,1.196,2.326,1.795,3.889,1.795
		c0.938,0,1.766-0.171,2.482-0.513c0.719-0.342,1.37-0.889,1.956-1.641l1.099,0.835
		C929.132,521.969,927.262,522.901,924.811,522.901z M924.488,507.96c-1.318,0-2.43,0.483-3.333,1.45s-1.452,2.266-1.647,3.896
		h9.507v-0.19c-0.049-1.523-0.483-2.764-1.304-3.721S925.816,507.96,924.488,507.96z"/>
	<path class="st1" d="M955.479,515.958c-0.244,2.246-1.048,3.965-2.409,5.156c-1.363,1.191-3.177,1.787-5.442,1.787
		c-1.582,0-2.981-0.396-4.196-1.187c-1.217-0.791-2.156-1.912-2.82-3.362s-1.001-3.107-1.011-4.973v-2.769
		c0-1.895,0.332-3.574,0.996-5.039s1.618-2.596,2.864-3.392c1.244-0.796,2.678-1.193,4.299-1.193c2.285,0,4.089,0.615,5.412,1.846
		s2.093,2.935,2.308,5.112h-1.816c-0.449-3.623-2.417-5.435-5.903-5.435c-1.934,0-3.475,0.723-4.621,2.17
		c-1.148,1.446-1.722,3.444-1.722,5.995v2.609c0,2.463,0.559,4.428,1.677,5.894s2.63,2.199,4.534,2.199
		c1.885,0,3.306-0.452,4.263-1.355s1.548-2.258,1.772-4.064H955.479z"/>
	<path class="st1" d="M960.441,509.439c0.576-0.947,1.313-1.68,2.212-2.197s1.88-0.776,2.944-0.776c1.699,0,2.964,0.479,3.794,1.436
		s1.25,2.393,1.26,4.307v10.4h-1.743v-10.415c-0.01-1.416-0.311-2.471-0.901-3.164s-1.535-1.04-2.834-1.04
		c-1.084,0-2.043,0.339-2.879,1.018c-0.834,0.679-1.452,1.595-1.853,2.747v10.854h-1.743v-22.5h1.743V509.439z"/>
	<path class="st1" d="M981.737,508.253c-0.371-0.068-0.767-0.103-1.187-0.103c-1.094,0-2.02,0.305-2.776,0.915
		s-1.296,1.497-1.618,2.659v10.884h-1.743v-15.85h1.714l0.029,2.52c0.928-1.875,2.417-2.812,4.468-2.812
		c0.488,0,0.874,0.063,1.157,0.19L981.737,508.253z"/>
	<path class="st1" d="M982.496,514.449c0-1.523,0.295-2.896,0.887-4.116c0.59-1.221,1.425-2.171,2.504-2.85s2.303-1.018,3.67-1.018
		c2.109,0,3.818,0.739,5.127,2.219s1.963,3.44,1.963,5.882v0.366c0,1.533-0.296,2.912-0.887,4.138s-1.423,2.171-2.497,2.835
		s-2.3,0.996-3.677,0.996c-2.1,0-3.807-0.74-5.119-2.22c-1.314-1.479-1.971-3.439-1.971-5.881V514.449z M984.254,514.933
		c0,1.895,0.49,3.449,1.473,4.665c0.98,1.216,2.268,1.824,3.859,1.824c1.582,0,2.863-0.608,3.846-1.824
		c0.98-1.216,1.472-2.819,1.472-4.812v-0.337c0-1.211-0.225-2.319-0.674-3.325s-1.079-1.785-1.89-2.337s-1.738-0.827-2.783-0.827
		c-1.562,0-2.837,0.612-3.823,1.838s-1.479,2.83-1.479,4.812V514.933z"/>
	<path class="st1" d="M1001.111,506.759l0.059,2.578c0.586-0.957,1.318-1.675,2.197-2.153s1.855-0.718,2.93-0.718
		c2.5,0,4.087,1.025,4.761,3.076c0.566-0.986,1.323-1.746,2.271-2.278s1.992-0.798,3.135-0.798c3.398,0,5.132,1.855,5.2,5.566
		v10.576h-1.758v-10.444c-0.01-1.416-0.314-2.466-0.916-3.149c-0.6-0.684-1.579-1.025-2.937-1.025
		c-1.26,0.02-2.324,0.427-3.193,1.223s-1.353,1.766-1.45,2.908v10.488h-1.758v-10.576c-0.01-1.357-0.33-2.371-0.959-3.04
		c-0.631-0.669-1.6-1.003-2.908-1.003c-1.104,0-2.051,0.314-2.842,0.944s-1.377,1.565-1.758,2.806v10.869h-1.758v-15.85H1001.111z"
		/>
	<path class="st1" d="M1031.489,522.901c-1.348,0-2.566-0.332-3.655-0.996s-1.936-1.59-2.541-2.776s-0.908-2.517-0.908-3.991v-0.63
		c0-1.523,0.295-2.896,0.887-4.116c0.59-1.221,1.413-2.181,2.468-2.879s2.197-1.047,3.428-1.047c1.924,0,3.45,0.656,4.577,1.97
		c1.129,1.313,1.692,3.108,1.692,5.384v0.981h-11.309v0.337c0,1.797,0.515,3.293,1.546,4.489c1.029,1.196,2.326,1.795,3.889,1.795
		c0.938,0,1.766-0.171,2.482-0.513c0.719-0.342,1.37-0.889,1.956-1.641l1.099,0.835
		C1035.811,521.969,1033.94,522.901,1031.489,522.901z M1031.167,507.96c-1.318,0-2.43,0.483-3.333,1.45s-1.452,2.266-1.647,3.896
		h9.507v-0.19c-0.049-1.523-0.483-2.764-1.304-3.721S1032.495,507.96,1031.167,507.96z"/>
	<path class="st1" d="M1052.858,514.845c0,2.471-0.547,4.431-1.641,5.881s-2.563,2.176-4.409,2.176c-2.207,0-3.877-0.82-5.01-2.461
		l-0.073,2.168h-1.641v-22.5h1.743v8.95c1.113-1.729,2.764-2.593,4.951-2.593c1.875,0,3.356,0.715,4.445,2.146
		s1.634,3.421,1.634,5.97V514.845z M1051.101,514.537c0-2.09-0.405-3.704-1.216-4.842s-1.953-1.706-3.428-1.706
		c-1.123,0-2.075,0.275-2.856,0.827s-1.372,1.36-1.772,2.425v7.148c0.879,1.992,2.432,2.988,4.658,2.988
		c1.445,0,2.575-0.571,3.391-1.714S1051.101,516.812,1051.101,514.537z"/>
	<path class="st1" d="M1055.009,514.449c0-1.523,0.295-2.896,0.887-4.116c0.59-1.221,1.425-2.171,2.504-2.85s2.303-1.018,3.67-1.018
		c2.109,0,3.818,0.739,5.127,2.219s1.963,3.44,1.963,5.882v0.366c0,1.533-0.296,2.912-0.887,4.138s-1.423,2.171-2.497,2.835
		s-2.3,0.996-3.677,0.996c-2.1,0-3.807-0.74-5.119-2.22c-1.314-1.479-1.971-3.439-1.971-5.881V514.449z M1056.767,514.933
		c0,1.895,0.49,3.449,1.473,4.665c0.98,1.216,2.268,1.824,3.859,1.824c1.582,0,2.863-0.608,3.846-1.824
		c0.98-1.216,1.472-2.819,1.472-4.812v-0.337c0-1.211-0.225-2.319-0.674-3.325s-1.079-1.785-1.89-2.337s-1.738-0.827-2.783-0.827
		c-1.562,0-2.837,0.612-3.823,1.838s-1.479,2.83-1.479,4.812V514.933z"/>
	<path class="st1" d="M1071.061,514.449c0-1.523,0.295-2.896,0.887-4.116c0.59-1.221,1.425-2.171,2.504-2.85s2.303-1.018,3.67-1.018
		c2.109,0,3.818,0.739,5.127,2.219s1.963,3.44,1.963,5.882v0.366c0,1.533-0.296,2.912-0.887,4.138s-1.423,2.171-2.497,2.835
		s-2.3,0.996-3.677,0.996c-2.1,0-3.807-0.74-5.119-2.22c-1.314-1.479-1.971-3.439-1.971-5.881V514.449z M1072.818,514.933
		c0,1.895,0.49,3.449,1.473,4.665c0.98,1.216,2.268,1.824,3.859,1.824c1.582,0,2.863-0.608,3.846-1.824
		c0.98-1.216,1.472-2.819,1.472-4.812v-0.337c0-1.211-0.225-2.319-0.674-3.325s-1.079-1.785-1.89-2.337s-1.738-0.827-2.783-0.827
		c-1.562,0-2.837,0.612-3.823,1.838s-1.479,2.83-1.479,4.812V514.933z"/>
	<path class="st1" d="M1091.844,514.625l-2.007,1.934v6.05h-1.758v-22.5h1.758v14.399l1.655-1.787l6.064-5.962h2.212l-6.724,6.68
		l7.31,9.17h-2.095L1091.844,514.625z"/>
	<path class="st1" d="M1111.514,518.58c0-0.869-0.35-1.567-1.047-2.095c-0.699-0.527-1.751-0.94-3.157-1.238
		s-2.497-0.64-3.274-1.025c-0.775-0.386-1.353-0.856-1.729-1.413s-0.563-1.23-0.563-2.021c0-1.25,0.522-2.283,1.567-3.099
		s2.383-1.223,4.014-1.223c1.768,0,3.186,0.437,4.256,1.311c1.068,0.874,1.604,2.015,1.604,3.421h-1.758
		c0-0.928-0.389-1.699-1.164-2.314c-0.777-0.615-1.756-0.923-2.938-0.923c-1.152,0-2.078,0.256-2.775,0.769
		c-0.699,0.513-1.048,1.18-1.048,2c0,0.791,0.29,1.403,0.872,1.838c0.58,0.435,1.641,0.833,3.178,1.194
		c1.539,0.361,2.69,0.747,3.457,1.157s1.336,0.903,1.707,1.479s0.557,1.274,0.557,2.095c0,1.338-0.54,2.407-1.619,3.208
		s-2.487,1.201-4.226,1.201c-1.846,0-3.343-0.447-4.489-1.341c-1.148-0.894-1.722-2.023-1.722-3.391h1.758
		c0.068,1.025,0.5,1.823,1.296,2.395s1.849,0.857,3.157,0.857c1.221,0,2.207-0.269,2.959-0.806S1111.514,519.4,1111.514,518.58z"/>
	<path class="st1" d="M1116.096,526.593l-1.04-0.762c0.889-1.191,1.348-2.427,1.377-3.706v-2.271h1.714v1.831
		C1118.146,523.717,1117.463,525.353,1116.096,526.593z"/>
	<path class="st1" d="M1127.896,502.181c0-0.33,0.107-0.608,0.322-0.837c0.215-0.228,0.508-0.342,0.879-0.342
		s0.667,0.114,0.886,0.342c0.221,0.229,0.33,0.507,0.33,0.837s-0.109,0.606-0.33,0.83c-0.219,0.224-0.515,0.335-0.886,0.335
		s-0.664-0.111-0.879-0.335S1127.896,502.511,1127.896,502.181z M1129.962,522.608h-1.758v-15.85h1.758V522.608z"/>
	<path class="st1" d="M1136.185,513.922v8.687h-1.802V501.28h7.266c2.217,0,3.967,0.566,5.252,1.699
		c1.283,1.133,1.926,2.69,1.926,4.673c0,2.002-0.618,3.547-1.854,4.636s-3.024,1.634-5.368,1.634H1136.185z M1136.185,512.398h5.464
		c1.748,0,3.081-0.416,3.999-1.247s1.377-1.99,1.377-3.478c0-1.477-0.457-2.652-1.37-3.528c-0.913-0.875-2.209-1.322-3.889-1.342
		h-5.581V512.398z"/>
	<path class="st1" d="M1161.538,522.608c-0.176-0.498-0.288-1.235-0.337-2.212c-0.615,0.801-1.398,1.418-2.352,1.853
		c-0.951,0.435-1.96,0.652-3.024,0.652c-1.523,0-2.757-0.425-3.698-1.274c-0.943-0.85-1.414-1.924-1.414-3.223
		c0-1.543,0.642-2.764,1.926-3.662s3.074-1.348,5.369-1.348h3.179v-1.802c0-1.133-0.35-2.024-1.048-2.674s-1.716-0.974-3.054-0.974
		c-1.221,0-2.231,0.312-3.032,0.938s-1.201,1.377-1.201,2.256l-1.758-0.015c0-1.26,0.586-2.352,1.758-3.274s2.612-1.384,4.321-1.384
		c1.768,0,3.161,0.441,4.183,1.325c1.02,0.884,1.545,2.117,1.574,3.699v7.5c0,1.533,0.161,2.681,0.483,3.442v0.176H1161.538z
		 M1156.03,521.349c1.172,0,2.22-0.283,3.142-0.85c0.924-0.566,1.595-1.323,2.015-2.271v-3.486h-3.135
		c-1.748,0.02-3.115,0.339-4.102,0.959s-1.479,1.473-1.479,2.557c0,0.889,0.33,1.626,0.988,2.212
		C1154.119,521.056,1154.976,521.349,1156.03,521.349z"/>
	<path class="st1" d="M1166.149,514.537c0-2.461,0.549-4.422,1.648-5.882c1.098-1.46,2.59-2.189,4.475-2.189
		c2.139,0,3.77,0.845,4.893,2.534v-8.892h1.743v22.5h-1.641l-0.073-2.109c-1.123,1.602-2.773,2.402-4.951,2.402
		c-1.826,0-3.299-0.735-4.416-2.205c-1.119-1.47-1.678-3.454-1.678-5.954V514.537z M1167.922,514.845
		c0,2.021,0.405,3.615,1.216,4.782s1.953,1.751,3.428,1.751c2.158,0,3.691-0.952,4.6-2.856v-7.441
		c-0.908-2.061-2.432-3.091-4.57-3.091c-1.475,0-2.622,0.578-3.442,1.735S1167.922,512.589,1167.922,514.845z"/>
	<path class="st1" d="M1192.265,518.58c0-0.869-0.35-1.567-1.047-2.095c-0.699-0.527-1.751-0.94-3.157-1.238
		s-2.497-0.64-3.274-1.025c-0.775-0.386-1.353-0.856-1.729-1.413s-0.563-1.23-0.563-2.021c0-1.25,0.522-2.283,1.567-3.099
		s2.383-1.223,4.014-1.223c1.768,0,3.186,0.437,4.256,1.311c1.068,0.874,1.604,2.015,1.604,3.421h-1.758
		c0-0.928-0.389-1.699-1.164-2.314c-0.777-0.615-1.756-0.923-2.938-0.923c-1.152,0-2.078,0.256-2.775,0.769
		c-0.699,0.513-1.048,1.18-1.048,2c0,0.791,0.29,1.403,0.872,1.838c0.58,0.435,1.641,0.833,3.178,1.194
		c1.539,0.361,2.69,0.747,3.457,1.157s1.336,0.903,1.707,1.479s0.557,1.274,0.557,2.095c0,1.338-0.54,2.407-1.619,3.208
		s-2.487,1.201-4.226,1.201c-1.846,0-3.343-0.447-4.489-1.341c-1.148-0.894-1.722-2.023-1.722-3.391h1.758
		c0.068,1.025,0.5,1.823,1.296,2.395s1.849,0.857,3.157,0.857c1.221,0,2.207-0.269,2.959-0.806S1192.265,519.4,1192.265,518.58z"/>
	<path class="st1" d="M1196.847,526.593l-1.04-0.762c0.889-1.191,1.348-2.427,1.377-3.706v-2.271h1.714v1.831
		C1198.897,523.717,1198.214,525.353,1196.847,526.593z"/>
	<path class="st1" d="M1218.755,522.608c-0.176-0.498-0.288-1.235-0.337-2.212c-0.615,0.801-1.398,1.418-2.352,1.853
		c-0.951,0.435-1.96,0.652-3.024,0.652c-1.523,0-2.757-0.425-3.698-1.274c-0.943-0.85-1.414-1.924-1.414-3.223
		c0-1.543,0.642-2.764,1.926-3.662s3.074-1.348,5.369-1.348h3.179v-1.802c0-1.133-0.35-2.024-1.048-2.674s-1.716-0.974-3.054-0.974
		c-1.221,0-2.231,0.312-3.032,0.938s-1.201,1.377-1.201,2.256l-1.758-0.015c0-1.26,0.586-2.352,1.758-3.274s2.612-1.384,4.321-1.384
		c1.768,0,3.161,0.441,4.183,1.325c1.02,0.884,1.545,2.117,1.574,3.699v7.5c0,1.533,0.161,2.681,0.483,3.442v0.176H1218.755z
		 M1213.247,521.349c1.172,0,2.22-0.283,3.142-0.85c0.924-0.566,1.595-1.323,2.015-2.271v-3.486h-3.135
		c-1.748,0.02-3.115,0.339-4.102,0.959s-1.479,1.473-1.479,2.557c0,0.889,0.33,1.626,0.988,2.212
		C1211.336,521.056,1212.192,521.349,1213.247,521.349z"/>
	<path class="st1" d="M1225.739,506.759l0.059,2.71c0.596-0.977,1.338-1.722,2.227-2.234s1.87-0.769,2.944-0.769
		c1.699,0,2.964,0.479,3.794,1.436s1.25,2.393,1.26,4.307v10.4h-1.743v-10.415c-0.01-1.416-0.311-2.471-0.901-3.164
		s-1.535-1.04-2.834-1.04c-1.084,0-2.043,0.339-2.879,1.018c-0.834,0.679-1.452,1.595-1.853,2.747v10.854h-1.743v-15.85H1225.739z"
		/>
	<path class="st1" d="M1239.096,514.537c0-2.461,0.549-4.422,1.648-5.882c1.098-1.46,2.59-2.189,4.475-2.189
		c2.139,0,3.77,0.845,4.893,2.534v-8.892h1.743v22.5h-1.641l-0.073-2.109c-1.123,1.602-2.773,2.402-4.951,2.402
		c-1.826,0-3.299-0.735-4.416-2.205c-1.119-1.47-1.678-3.454-1.678-5.954V514.537z M1240.868,514.845
		c0,2.021,0.405,3.615,1.216,4.782s1.953,1.751,3.428,1.751c2.158,0,3.691-0.952,4.6-2.856v-7.441
		c-0.908-2.061-2.432-3.091-4.57-3.091c-1.475,0-2.622,0.578-3.442,1.735S1240.868,512.589,1240.868,514.845z"/>
	<path class="st1" d="M1264.871,522.608h-1.802V501.28h1.802V522.608z"/>
	<path class="st1" d="M1281.655,512.633h-9.946v9.976h-1.802V501.28h13.213v1.523h-11.411v8.306h9.946V512.633z"/>
	<path class="st1" d="M1287.834,513.922v8.687h-1.802V501.28h7.266c2.217,0,3.967,0.566,5.252,1.699
		c1.283,1.133,1.926,2.69,1.926,4.673c0,2.002-0.618,3.547-1.854,4.636s-3.024,1.634-5.368,1.634H1287.834z M1287.834,512.398h5.464
		c1.748,0,3.081-0.416,3.999-1.247s1.377-1.99,1.377-3.478c0-1.477-0.457-2.652-1.37-3.528c-0.913-0.875-2.209-1.322-3.889-1.342
		h-5.581V512.398z"/>
	<path class="st1" d="M1312.836,518.58c0-0.869-0.35-1.567-1.047-2.095c-0.699-0.527-1.751-0.94-3.157-1.238
		s-2.497-0.64-3.274-1.025c-0.775-0.386-1.353-0.856-1.729-1.413s-0.563-1.23-0.563-2.021c0-1.25,0.522-2.283,1.567-3.099
		s2.383-1.223,4.014-1.223c1.768,0,3.186,0.437,4.256,1.311c1.068,0.874,1.604,2.015,1.604,3.421h-1.758
		c0-0.928-0.389-1.699-1.164-2.314c-0.777-0.615-1.756-0.923-2.938-0.923c-1.152,0-2.078,0.256-2.775,0.769
		c-0.699,0.513-1.048,1.18-1.048,2c0,0.791,0.29,1.403,0.872,1.838c0.58,0.435,1.641,0.833,3.178,1.194
		c1.539,0.361,2.69,0.747,3.457,1.157s1.336,0.903,1.707,1.479s0.557,1.274,0.557,2.095c0,1.338-0.54,2.407-1.619,3.208
		s-2.487,1.201-4.226,1.201c-1.846,0-3.343-0.447-4.489-1.341c-1.148-0.894-1.722-2.023-1.722-3.391h1.758
		c0.068,1.025,0.5,1.823,1.296,2.395s1.849,0.857,3.157,0.857c1.221,0,2.207-0.269,2.959-0.806S1312.836,519.4,1312.836,518.58z"/>
	<path class="st1" d="M1324.095,513.995c0-2.129,0.273-4.197,0.82-6.204s1.348-3.843,2.402-5.508s2.188-2.858,3.398-3.581
		l0.425,1.187c-0.645,0.459-1.284,1.128-1.919,2.007s-1.201,1.924-1.699,3.135s-0.9,2.57-1.209,4.079
		c-0.307,1.509-0.461,3.221-0.461,5.135c0,2.041,0.231,4.004,0.695,5.889s1.102,3.547,1.912,4.987s1.704,2.522,2.681,3.245
		l-0.425,1.128c-1.24-0.742-2.388-1.941-3.442-3.597s-1.849-3.477-2.38-5.464C1324.36,518.445,1324.095,516.3,1324.095,513.995z"/>
	<path class="st1" d="M1335.752,522.608h-1.802V501.28h1.802V522.608z"/>
	<path class="st1" d="M1342.048,506.759l0.059,2.71c0.596-0.977,1.338-1.722,2.227-2.234s1.87-0.769,2.944-0.769
		c1.699,0,2.964,0.479,3.794,1.436s1.25,2.393,1.26,4.307v10.4h-1.743v-10.415c-0.01-1.416-0.311-2.471-0.901-3.164
		s-1.535-1.04-2.834-1.04c-1.084,0-2.043,0.339-2.879,1.018c-0.834,0.679-1.452,1.595-1.853,2.747v10.854h-1.743v-15.85H1342.048z"
		/>
	<path class="st1" d="M1358.832,502.701v4.058h3.281v1.436h-3.281v10.573c0,0.88,0.158,1.535,0.477,1.965
		c0.316,0.431,0.847,0.646,1.589,0.646c0.293,0,0.767-0.049,1.421-0.146l0.073,1.423c-0.459,0.164-1.084,0.247-1.875,0.247
		c-1.201,0-2.075-0.35-2.622-1.048s-0.82-1.726-0.82-3.083v-10.576h-2.915v-1.436h2.915v-4.058H1358.832z"/>
	<path class="st1" d="M1371.134,522.901c-1.348,0-2.566-0.332-3.655-0.996s-1.936-1.59-2.541-2.776s-0.908-2.517-0.908-3.991v-0.63
		c0-1.523,0.295-2.896,0.887-4.116c0.59-1.221,1.413-2.181,2.468-2.879s2.197-1.047,3.428-1.047c1.924,0,3.45,0.656,4.577,1.97
		c1.129,1.313,1.692,3.108,1.692,5.384v0.981h-11.309v0.337c0,1.797,0.515,3.293,1.546,4.489c1.029,1.196,2.326,1.795,3.889,1.795
		c0.938,0,1.766-0.171,2.482-0.513c0.719-0.342,1.37-0.889,1.956-1.641l1.099,0.835
		C1375.455,521.969,1373.585,522.901,1371.134,522.901z M1370.812,507.96c-1.318,0-2.43,0.483-3.333,1.45s-1.452,2.266-1.647,3.896
		h9.507v-0.19c-0.049-1.523-0.483-2.764-1.304-3.721S1372.14,507.96,1370.812,507.96z"/>
	<path class="st1" d="M1387.068,508.253c-0.371-0.068-0.767-0.103-1.187-0.103c-1.094,0-2.02,0.305-2.776,0.915
		s-1.296,1.497-1.618,2.659v10.884h-1.743v-15.85h1.714l0.029,2.52c0.928-1.875,2.417-2.812,4.468-2.812
		c0.488,0,0.874,0.063,1.157,0.19L1387.068,508.253z"/>
	<path class="st1" d="M1398.506,522.608c-0.176-0.498-0.288-1.235-0.337-2.212c-0.615,0.801-1.398,1.418-2.352,1.853
		c-0.951,0.435-1.96,0.652-3.024,0.652c-1.523,0-2.757-0.425-3.698-1.274c-0.943-0.85-1.414-1.924-1.414-3.223
		c0-1.543,0.642-2.764,1.926-3.662s3.074-1.348,5.369-1.348h3.179v-1.802c0-1.133-0.35-2.024-1.048-2.674s-1.716-0.974-3.054-0.974
		c-1.221,0-2.231,0.312-3.032,0.938s-1.201,1.377-1.201,2.256l-1.758-0.015c0-1.26,0.586-2.352,1.758-3.274s2.612-1.384,4.321-1.384
		c1.768,0,3.161,0.441,4.183,1.325c1.02,0.884,1.545,2.117,1.574,3.699v7.5c0,1.533,0.161,2.681,0.483,3.442v0.176H1398.506z
		 M1392.998,521.349c1.172,0,2.22-0.283,3.142-0.85c0.924-0.566,1.595-1.323,2.015-2.271v-3.486h-3.135
		c-1.748,0.02-3.115,0.339-4.102,0.959s-1.479,1.473-1.479,2.557c0,0.889,0.33,1.626,0.988,2.212
		C1391.087,521.056,1391.943,521.349,1392.998,521.349z"/>
	<path class="st1" d="M1409.68,521.422c1.221,0,2.243-0.345,3.068-1.033s1.272-1.579,1.341-2.673h1.685
		c-0.049,0.967-0.352,1.848-0.908,2.644s-1.297,1.419-2.219,1.868c-0.924,0.449-1.912,0.674-2.967,0.674
		c-2.08,0-3.729-0.723-4.943-2.168c-1.217-1.445-1.824-3.389-1.824-5.83v-0.527c0-1.562,0.273-2.944,0.82-4.146
		s1.33-2.129,2.352-2.783c1.02-0.654,2.214-0.981,3.581-0.981c1.738,0,3.171,0.518,4.3,1.553c1.127,1.035,1.73,2.397,1.809,4.087
		h-1.685c-0.078-1.24-0.525-2.241-1.341-3.003s-1.843-1.143-3.083-1.143c-1.582,0-2.811,0.571-3.685,1.714s-1.311,2.744-1.311,4.805
		v0.513c0,2.021,0.437,3.599,1.311,4.731S1408.088,521.422,1409.68,521.422z"/>
	<path class="st1" d="M1421.249,502.701v4.058h3.281v1.436h-3.281v10.573c0,0.88,0.158,1.535,0.477,1.965
		c0.316,0.431,0.847,0.646,1.589,0.646c0.293,0,0.767-0.049,1.421-0.146l0.073,1.423c-0.459,0.164-1.084,0.247-1.875,0.247
		c-1.201,0-2.075-0.35-2.622-1.048s-0.82-1.726-0.82-3.083v-10.576h-2.915v-1.436h2.915v-4.058H1421.249z"/>
	<path class="st1" d="M1427.311,502.181c0-0.33,0.107-0.608,0.322-0.837c0.215-0.228,0.508-0.342,0.879-0.342
		s0.667,0.114,0.886,0.342c0.221,0.229,0.33,0.507,0.33,0.837s-0.109,0.606-0.33,0.83c-0.219,0.224-0.515,0.335-0.886,0.335
		s-0.664-0.111-0.879-0.335S1427.311,502.511,1427.311,502.181z M1429.376,522.608h-1.758v-15.85h1.758V522.608z"/>
	<path class="st1" d="M1438.323,520.191l4.819-13.433h1.802l-5.918,15.85h-1.421l-5.947-15.85h1.802L1438.323,520.191z"/>
	<path class="st1" d="M1453.013,522.901c-1.348,0-2.566-0.332-3.655-0.996s-1.936-1.59-2.541-2.776s-0.908-2.517-0.908-3.991v-0.63
		c0-1.523,0.295-2.896,0.887-4.116c0.59-1.221,1.413-2.181,2.468-2.879s2.197-1.047,3.428-1.047c1.924,0,3.45,0.656,4.577,1.97
		c1.129,1.313,1.692,3.108,1.692,5.384v0.981h-11.309v0.337c0,1.797,0.515,3.293,1.546,4.489c1.029,1.196,2.326,1.795,3.889,1.795
		c0.938,0,1.766-0.171,2.482-0.513c0.719-0.342,1.37-0.889,1.956-1.641l1.099,0.835
		C1457.334,521.969,1455.464,522.901,1453.013,522.901z M1452.69,507.96c-1.318,0-2.43,0.483-3.333,1.45s-1.452,2.266-1.647,3.896
		h9.507v-0.19c-0.049-1.523-0.483-2.764-1.304-3.721S1454.019,507.96,1452.69,507.96z"/>
	<path class="st1" d="M1480.326,512.633h-9.946v9.976h-1.802V501.28h13.213v1.523h-11.411v8.306h9.946V512.633z"/>
	<path class="st1" d="M1486.256,522.608h-1.758v-22.5h1.758V522.608z"/>
	<path class="st1" d="M1500.271,522.608c-0.176-0.498-0.288-1.235-0.337-2.212c-0.615,0.801-1.398,1.418-2.352,1.853
		c-0.951,0.435-1.96,0.652-3.024,0.652c-1.523,0-2.757-0.425-3.698-1.274c-0.943-0.85-1.414-1.924-1.414-3.223
		c0-1.543,0.642-2.764,1.926-3.662s3.074-1.348,5.369-1.348h3.179v-1.802c0-1.133-0.35-2.024-1.048-2.674s-1.716-0.974-3.054-0.974
		c-1.221,0-2.231,0.312-3.032,0.938s-1.201,1.377-1.201,2.256l-1.758-0.015c0-1.26,0.586-2.352,1.758-3.274s2.612-1.384,4.321-1.384
		c1.768,0,3.161,0.441,4.183,1.325c1.02,0.884,1.545,2.117,1.574,3.699v7.5c0,1.533,0.161,2.681,0.483,3.442v0.176H1500.271z
		 M1494.764,521.349c1.172,0,2.22-0.283,3.142-0.85c0.924-0.566,1.595-1.323,2.015-2.271v-3.486h-3.135
		c-1.748,0.02-3.115,0.339-4.102,0.959s-1.479,1.473-1.479,2.557c0,0.889,0.33,1.626,0.988,2.212
		C1492.853,521.056,1493.709,521.349,1494.764,521.349z"/>
	<path class="st1" d="M1508.311,502.701v4.058h3.281v1.436h-3.281v10.573c0,0.88,0.158,1.535,0.477,1.965
		c0.316,0.431,0.847,0.646,1.589,0.646c0.293,0,0.767-0.049,1.421-0.146l0.073,1.423c-0.459,0.164-1.084,0.247-1.875,0.247
		c-1.201,0-2.075-0.35-2.622-1.048s-0.82-1.726-0.82-3.083v-10.576h-2.915v-1.436h2.915v-4.058H1508.311z"/>
	<path class="st1" d="M196.896,549.922v8.687h-1.802V537.28h7.266c2.217,0,3.967,0.566,5.251,1.699s1.926,2.69,1.926,4.673
		c0,2.002-0.618,3.547-1.853,4.636s-3.025,1.634-5.369,1.634H196.896z M196.896,548.398h5.464c1.748,0,3.081-0.416,3.999-1.247
		s1.377-1.99,1.377-3.478c0-1.477-0.457-2.652-1.37-3.528c-0.913-0.875-2.209-1.322-3.889-1.342h-5.581V548.398z"/>
	<path class="st1" d="M222.249,558.608c-0.176-0.498-0.288-1.235-0.337-2.212c-0.615,0.801-1.399,1.418-2.351,1.853
		s-1.96,0.652-3.025,0.652c-1.523,0-2.756-0.425-3.699-1.274s-1.414-1.924-1.414-3.223c0-1.543,0.642-2.764,1.926-3.662
		s3.074-1.348,5.369-1.348h3.179v-1.802c0-1.133-0.349-2.024-1.047-2.674s-1.716-0.974-3.054-0.974
		c-1.221,0-2.231,0.312-3.032,0.938s-1.201,1.377-1.201,2.256l-1.758-0.015c0-1.26,0.586-2.352,1.758-3.274s2.612-1.384,4.321-1.384
		c1.768,0,3.162,0.441,4.182,1.325s1.545,2.117,1.575,3.699v7.5c0,1.533,0.161,2.681,0.483,3.442v0.176H222.249z M216.741,557.349
		c1.172,0,2.219-0.283,3.142-0.85s1.594-1.323,2.014-2.271v-3.486h-3.135c-1.748,0.02-3.115,0.339-4.102,0.959
		s-1.479,1.473-1.479,2.557c0,0.889,0.33,1.626,0.989,2.212S215.687,557.349,216.741,557.349z"/>
	<path class="st1" d="M229.233,542.759l0.059,2.71c0.596-0.977,1.338-1.722,2.227-2.234s1.87-0.769,2.944-0.769
		c1.699,0,2.964,0.479,3.794,1.436s1.25,2.393,1.26,4.307v10.4h-1.743v-10.415c-0.01-1.416-0.31-2.471-0.901-3.164
		s-1.536-1.04-2.834-1.04c-1.084,0-2.043,0.339-2.878,1.018s-1.453,1.595-1.853,2.747v10.854h-1.743v-15.85H229.233z"/>
	<path class="st1" d="M249.431,558.901c-1.348,0-2.566-0.332-3.655-0.996s-1.936-1.59-2.542-2.776s-0.908-2.517-0.908-3.991v-0.63
		c0-1.523,0.295-2.896,0.886-4.116s1.414-2.181,2.468-2.879s2.197-1.047,3.428-1.047c1.924,0,3.45,0.656,4.578,1.97
		s1.692,3.108,1.692,5.384v0.981h-11.309v0.337c0,1.797,0.515,3.293,1.545,4.489s2.327,1.795,3.889,1.795
		c0.938,0,1.765-0.171,2.483-0.513s1.37-0.889,1.956-1.641l1.099,0.835C253.752,557.969,251.882,558.901,249.431,558.901z
		 M249.108,543.96c-1.318,0-2.429,0.483-3.333,1.45s-1.453,2.266-1.648,3.896h9.507v-0.19c-0.049-1.523-0.483-2.764-1.304-3.721
		S250.437,543.96,249.108,543.96z"/>
	<path class="st1" d="M260.004,558.608h-1.758v-22.5h1.758V558.608z"/>
	<path class="st1" d="M273.507,554.58c0-0.869-0.349-1.567-1.047-2.095s-1.75-0.94-3.157-1.238s-2.498-0.64-3.274-1.025
		s-1.353-0.856-1.729-1.413s-0.564-1.23-0.564-2.021c0-1.25,0.522-2.283,1.567-3.099s2.383-1.223,4.014-1.223
		c1.768,0,3.186,0.437,4.255,1.311s1.604,2.015,1.604,3.421h-1.758c0-0.928-0.388-1.699-1.165-2.314s-1.755-0.923-2.937-0.923
		c-1.152,0-2.078,0.256-2.776,0.769s-1.047,1.18-1.047,2c0,0.791,0.291,1.403,0.872,1.838s1.641,0.833,3.179,1.194
		s2.69,0.747,3.457,1.157s1.335,0.903,1.707,1.479s0.557,1.274,0.557,2.095c0,1.338-0.54,2.407-1.619,3.208
		s-2.488,1.201-4.226,1.201c-1.846,0-3.342-0.447-4.49-1.341s-1.721-2.023-1.721-3.391h1.758c0.068,1.025,0.5,1.823,1.296,2.395
		s1.848,0.857,3.157,0.857c1.221,0,2.207-0.269,2.959-0.806S273.507,555.4,273.507,554.58z"/>
	<path class="st1" d="M283.699,550.215c0,2.148-0.266,4.216-0.798,6.203s-1.321,3.807-2.366,5.457s-2.197,2.856-3.457,3.618
		l-0.425-1.128c0.957-0.684,1.843-1.743,2.659-3.179s1.458-3.108,1.926-5.018s0.703-3.981,0.703-6.218
		c0-2.021-0.234-3.973-0.703-5.853s-1.116-3.56-1.941-5.039s-1.707-2.556-2.644-3.229l0.425-1.128
		c1.23,0.752,2.368,1.953,3.413,3.604s1.841,3.481,2.388,5.493S283.699,547.949,283.699,550.215z"/>
	<path class="st1" d="M297.814,554.961l0.264,1.362l0.352-1.436l3.809-12.129h1.494l3.765,12.026l0.41,1.67l0.337-1.538
		l3.252-12.158h1.816l-4.614,15.85h-1.494l-4.072-12.568l-0.19-0.864l-0.19,0.879l-3.999,12.554h-1.494l-4.6-15.85h1.802
		L297.814,554.961z"/>
	<path class="st1" d="M315.785,538.181c0-0.33,0.107-0.608,0.322-0.837c0.215-0.228,0.508-0.342,0.879-0.342
		s0.667,0.114,0.886,0.342c0.22,0.229,0.33,0.507,0.33,0.837s-0.11,0.606-0.33,0.83s-0.515,0.335-0.886,0.335
		s-0.664-0.111-0.879-0.335S315.785,538.511,315.785,538.181z M317.851,558.608h-1.758v-15.85h1.758V558.608z"/>
	<path class="st1" d="M323.824,558.608h-1.758v-22.5h1.758V558.608z"/>
	<path class="st1" d="M329.798,558.608h-1.758v-22.5h1.758V558.608z"/>
	<path class="st1" d="M342.097,545.439c0.576-0.947,1.313-1.68,2.212-2.197s1.88-0.776,2.944-0.776c1.699,0,2.964,0.479,3.794,1.436
		s1.25,2.393,1.26,4.307v10.4h-1.743v-10.415c-0.01-1.416-0.31-2.471-0.901-3.164s-1.536-1.04-2.834-1.04
		c-1.084,0-2.043,0.339-2.878,1.018s-1.453,1.595-1.853,2.747v10.854h-1.743v-22.5h1.743V545.439z"/>
	<path class="st1" d="M366.073,558.608c-0.176-0.498-0.288-1.235-0.337-2.212c-0.615,0.801-1.399,1.418-2.351,1.853
		s-1.96,0.652-3.025,0.652c-1.523,0-2.756-0.425-3.699-1.274s-1.414-1.924-1.414-3.223c0-1.543,0.642-2.764,1.926-3.662
		s3.074-1.348,5.369-1.348h3.179v-1.802c0-1.133-0.349-2.024-1.047-2.674s-1.716-0.974-3.054-0.974
		c-1.221,0-2.231,0.312-3.032,0.938s-1.201,1.377-1.201,2.256l-1.758-0.015c0-1.26,0.586-2.352,1.758-3.274s2.612-1.384,4.321-1.384
		c1.768,0,3.162,0.441,4.182,1.325s1.545,2.117,1.575,3.699v7.5c0,1.533,0.161,2.681,0.483,3.442v0.176H366.073z M360.565,557.349
		c1.172,0,2.219-0.283,3.142-0.85s1.594-1.323,2.014-2.271v-3.486h-3.135c-1.748,0.02-3.115,0.339-4.102,0.959
		s-1.479,1.473-1.479,2.557c0,0.889,0.33,1.626,0.989,2.212S359.511,557.349,360.565,557.349z"/>
	<path class="st1" d="M376.104,556.191l4.819-13.433h1.802l-5.918,15.85h-1.421l-5.947-15.85h1.802L376.104,556.191z"/>
	<path class="st1" d="M390.794,558.901c-1.348,0-2.566-0.332-3.655-0.996s-1.936-1.59-2.542-2.776s-0.908-2.517-0.908-3.991v-0.63
		c0-1.523,0.295-2.896,0.886-4.116s1.414-2.181,2.468-2.879s2.197-1.047,3.428-1.047c1.924,0,3.45,0.656,4.578,1.97
		s1.692,3.108,1.692,5.384v0.981h-11.309v0.337c0,1.797,0.515,3.293,1.545,4.489s2.327,1.795,3.889,1.795
		c0.938,0,1.765-0.171,2.483-0.513s1.37-0.889,1.956-1.641l1.099,0.835C395.115,557.969,393.245,558.901,390.794,558.901z
		 M390.472,543.96c-1.318,0-2.429,0.483-3.333,1.45s-1.453,2.266-1.648,3.896h9.507v-0.19c-0.049-1.523-0.483-2.764-1.304-3.721
		S391.8,543.96,390.472,543.96z"/>
	<path class="st1" d="M404.982,550.449c0-1.523,0.295-2.896,0.886-4.116s1.426-2.171,2.505-2.85s2.302-1.018,3.669-1.018
		c2.109,0,3.818,0.739,5.127,2.219s1.963,3.44,1.963,5.882v0.366c0,1.533-0.295,2.912-0.886,4.138s-1.423,2.171-2.498,2.835
		s-2.3,0.996-3.677,0.996c-2.1,0-3.806-0.74-5.12-2.22s-1.97-3.439-1.97-5.881V550.449z M406.74,550.933
		c0,1.895,0.491,3.449,1.472,4.665s2.268,1.824,3.86,1.824c1.582,0,2.864-0.608,3.845-1.824s1.472-2.819,1.472-4.812v-0.337
		c0-1.211-0.225-2.319-0.674-3.325s-1.079-1.785-1.89-2.337s-1.738-0.827-2.783-0.827c-1.562,0-2.837,0.612-3.823,1.838
		s-1.479,2.83-1.479,4.812V550.933z"/>
	<path class="st1" d="M423.671,542.759l0.059,2.71c0.596-0.977,1.338-1.722,2.227-2.234s1.87-0.769,2.944-0.769
		c1.699,0,2.964,0.479,3.794,1.436s1.25,2.393,1.26,4.307v10.4h-1.743v-10.415c-0.01-1.416-0.31-2.471-0.901-3.164
		s-1.536-1.04-2.834-1.04c-1.084,0-2.043,0.339-2.878,1.018s-1.453,1.595-1.853,2.747v10.854h-1.743v-15.85H423.671z"/>
	<path class="st1" d="M449.3,556.089l4.629-13.33h1.89l-6.768,18.545l-0.352,0.82c-0.869,1.924-2.212,2.886-4.028,2.886
		c-0.42,0-0.869-0.068-1.348-0.205l-0.015-1.45l0.908,0.088c0.859,0,1.555-0.213,2.087-0.638s0.984-1.154,1.355-2.189l0.776-2.139
		l-5.977-15.718h1.919L449.3,556.089z"/>
	<path class="st1" d="M456.592,550.449c0-1.523,0.295-2.896,0.886-4.116s1.426-2.171,2.505-2.85s2.302-1.018,3.669-1.018
		c2.109,0,3.818,0.739,5.127,2.219s1.963,3.44,1.963,5.882v0.366c0,1.533-0.295,2.912-0.886,4.138s-1.423,2.171-2.498,2.835
		s-2.3,0.996-3.677,0.996c-2.1,0-3.806-0.74-5.12-2.22s-1.97-3.439-1.97-5.881V550.449z M458.35,550.933
		c0,1.895,0.491,3.449,1.472,4.665s2.268,1.824,3.86,1.824c1.582,0,2.864-0.608,3.845-1.824s1.472-2.819,1.472-4.812v-0.337
		c0-1.211-0.225-2.319-0.674-3.325s-1.079-1.785-1.89-2.337s-1.738-0.827-2.783-0.827c-1.562,0-2.837,0.612-3.823,1.838
		s-1.479,2.83-1.479,4.812V550.933z"/>
	<path class="st1" d="M483.806,556.602c-1.055,1.533-2.739,2.3-5.054,2.3c-1.689,0-2.974-0.491-3.853-1.473
		s-1.328-2.434-1.348-4.357v-10.312h1.743v10.093c0,3.018,1.221,4.526,3.662,4.526c2.539,0,4.146-1.05,4.819-3.149v-11.47h1.758
		v15.85h-1.699L483.806,556.602z"/>
	<path class="st1" d="M496.664,544.253c-0.371-0.068-0.767-0.103-1.187-0.103c-1.094,0-2.019,0.305-2.776,0.915
		s-1.296,1.497-1.619,2.659v10.884h-1.743v-15.85h1.714l0.029,2.52c0.928-1.875,2.417-2.812,4.468-2.812
		c0.488,0,0.874,0.063,1.157,0.19L496.664,544.253z"/>
	<path class="st1" d="M511.365,558.901c-1.348,0-2.566-0.332-3.655-0.996s-1.936-1.59-2.542-2.776s-0.908-2.517-0.908-3.991v-0.63
		c0-1.523,0.295-2.896,0.886-4.116s1.414-2.181,2.468-2.879s2.197-1.047,3.428-1.047c1.924,0,3.45,0.656,4.578,1.97
		s1.692,3.108,1.692,5.384v0.981h-11.309v0.337c0,1.797,0.515,3.293,1.545,4.489s2.327,1.795,3.889,1.795
		c0.938,0,1.765-0.171,2.483-0.513s1.37-0.889,1.956-1.641l1.099,0.835C515.687,557.969,513.816,558.901,511.365,558.901z
		 M511.043,543.96c-1.318,0-2.429,0.483-3.333,1.45s-1.453,2.266-1.648,3.896h9.507v-0.19c-0.049-1.523-0.483-2.764-1.304-3.721
		S512.371,543.96,511.043,543.96z"/>
	<path class="st1" d="M524.956,549.189l4.277-6.431h2.08l-5.376,7.778l5.61,8.071h-2.065l-4.512-6.709l-4.512,6.709h-2.065
		l5.596-8.071l-5.376-7.778h2.065L524.956,549.189z"/>
	<path class="st1" d="M533.713,538.181c0-0.33,0.107-0.608,0.322-0.837c0.215-0.228,0.508-0.342,0.879-0.342
		s0.667,0.114,0.886,0.342c0.22,0.229,0.33,0.507,0.33,0.837s-0.11,0.606-0.33,0.83s-0.515,0.335-0.886,0.335
		s-0.664-0.111-0.879-0.335S533.713,538.511,533.713,538.181z M535.778,558.608h-1.758v-15.85h1.758V558.608z"/>
	<path class="st1" d="M549.281,554.58c0-0.869-0.349-1.567-1.047-2.095s-1.75-0.94-3.157-1.238s-2.498-0.64-3.274-1.025
		s-1.353-0.856-1.729-1.413s-0.564-1.23-0.564-2.021c0-1.25,0.522-2.283,1.567-3.099s2.383-1.223,4.014-1.223
		c1.768,0,3.186,0.437,4.255,1.311s1.604,2.015,1.604,3.421h-1.758c0-0.928-0.388-1.699-1.165-2.314s-1.755-0.923-2.937-0.923
		c-1.152,0-2.078,0.256-2.776,0.769s-1.047,1.18-1.047,2c0,0.791,0.291,1.403,0.872,1.838s1.641,0.833,3.179,1.194
		s2.69,0.747,3.457,1.157s1.335,0.903,1.707,1.479s0.557,1.274,0.557,2.095c0,1.338-0.54,2.407-1.619,3.208
		s-2.488,1.201-4.226,1.201c-1.846,0-3.342-0.447-4.49-1.341s-1.721-2.023-1.721-3.391h1.758c0.068,1.025,0.5,1.823,1.296,2.395
		s1.848,0.857,3.157,0.857c1.221,0,2.207-0.269,2.959-0.806S549.281,555.4,549.281,554.58z"/>
	<path class="st1" d="M556.954,538.701v4.058h3.281v1.436h-3.281v10.573c0,0.88,0.159,1.535,0.476,1.965
		c0.317,0.431,0.847,0.646,1.589,0.646c0.293,0,0.767-0.049,1.421-0.146l0.073,1.423c-0.459,0.164-1.084,0.247-1.875,0.247
		c-1.201,0-2.075-0.35-2.622-1.048s-0.82-1.726-0.82-3.083v-10.576h-2.915v-1.436h2.915v-4.058H556.954z"/>
	<path class="st1" d="M563.016,538.181c0-0.33,0.107-0.608,0.322-0.837c0.215-0.228,0.508-0.342,0.879-0.342
		s0.667,0.114,0.886,0.342c0.22,0.229,0.33,0.507,0.33,0.837s-0.11,0.606-0.33,0.83s-0.515,0.335-0.886,0.335
		s-0.664-0.111-0.879-0.335S563.016,538.511,563.016,538.181z M565.081,558.608h-1.758v-15.85h1.758V558.608z"/>
	<path class="st1" d="M570.762,542.759l0.059,2.71c0.596-0.977,1.338-1.722,2.227-2.234s1.87-0.769,2.944-0.769
		c1.699,0,2.964,0.479,3.794,1.436s1.25,2.393,1.26,4.307v10.4h-1.743v-10.415c-0.01-1.416-0.31-2.471-0.901-3.164
		s-1.536-1.04-2.834-1.04c-1.084,0-2.043,0.339-2.878,1.018s-1.453,1.595-1.853,2.747v10.854h-1.743v-15.85H570.762z"/>
	<path class="st1" d="M584.118,550.537c0-2.48,0.549-4.446,1.648-5.896s2.59-2.175,4.475-2.175c2.158,0,3.799,0.859,4.922,2.578
		l0.088-2.285h1.641v15.527c0,2.041-0.571,3.657-1.714,4.849s-2.69,1.787-4.644,1.787c-1.104,0-2.156-0.247-3.157-0.74
		s-1.79-1.149-2.366-1.97l0.981-1.055c1.24,1.523,2.715,2.285,4.424,2.285c1.465,0,2.607-0.433,3.428-1.297s1.245-2.062,1.274-3.596
		v-1.992c-1.123,1.562-2.759,2.344-4.907,2.344c-1.836,0-3.311-0.732-4.424-2.197s-1.67-3.442-1.67-5.933V550.537z M585.891,550.845
		c0,2.021,0.405,3.615,1.216,4.782s1.953,1.751,3.428,1.751c2.158,0,3.687-0.967,4.585-2.9v-7.368
		c-0.41-1.016-1.001-1.79-1.772-2.322s-1.699-0.798-2.783-0.798c-1.475,0-2.622,0.578-3.442,1.735S585.891,548.589,585.891,550.845z
		"/>
	<path class="st1" d="M608.927,542.759l0.059,2.71c0.596-0.977,1.338-1.722,2.227-2.234s1.87-0.769,2.944-0.769
		c1.699,0,2.964,0.479,3.794,1.436s1.25,2.393,1.26,4.307v10.4h-1.743v-10.415c-0.01-1.416-0.31-2.471-0.901-3.164
		s-1.536-1.04-2.834-1.04c-1.084,0-2.043,0.339-2.878,1.018s-1.453,1.595-1.853,2.747v10.854h-1.743v-15.85H608.927z"/>
	<path class="st1" d="M629.124,558.901c-1.348,0-2.566-0.332-3.655-0.996s-1.936-1.59-2.542-2.776s-0.908-2.517-0.908-3.991v-0.63
		c0-1.523,0.295-2.896,0.886-4.116s1.414-2.181,2.468-2.879s2.197-1.047,3.428-1.047c1.924,0,3.45,0.656,4.578,1.97
		s1.692,3.108,1.692,5.384v0.981h-11.309v0.337c0,1.797,0.515,3.293,1.545,4.489s2.327,1.795,3.889,1.795
		c0.938,0,1.765-0.171,2.483-0.513s1.37-0.889,1.956-1.641l1.099,0.835C633.445,557.969,631.575,558.901,629.124,558.901z
		 M628.802,543.96c-1.318,0-2.429,0.483-3.333,1.45s-1.453,2.266-1.648,3.896h9.507v-0.19c-0.049-1.523-0.483-2.764-1.304-3.721
		S630.13,543.96,628.802,543.96z"/>
	<path class="st1" d="M640.459,538.701v4.058h3.281v1.436h-3.281v10.573c0,0.88,0.159,1.535,0.476,1.965
		c0.317,0.431,0.847,0.646,1.589,0.646c0.293,0,0.767-0.049,1.421-0.146l0.073,1.423c-0.459,0.164-1.084,0.247-1.875,0.247
		c-1.201,0-2.075-0.35-2.622-1.048s-0.82-1.726-0.82-3.083v-10.576h-2.915v-1.436h2.915v-4.058H640.459z"/>
	<path class="st1" d="M650.417,554.961l0.264,1.362l0.352-1.436l3.809-12.129h1.494l3.765,12.026l0.41,1.67l0.337-1.538
		l3.252-12.158h1.816l-4.614,15.85h-1.494l-4.072-12.568l-0.19-0.864l-0.19,0.879l-3.999,12.554h-1.494l-4.6-15.85h1.802
		L650.417,554.961z"/>
	<path class="st1" d="M667.523,550.449c0-1.523,0.295-2.896,0.886-4.116s1.426-2.171,2.505-2.85s2.302-1.018,3.669-1.018
		c2.109,0,3.818,0.739,5.127,2.219s1.963,3.44,1.963,5.882v0.366c0,1.533-0.295,2.912-0.886,4.138s-1.423,2.171-2.498,2.835
		s-2.3,0.996-3.677,0.996c-2.1,0-3.806-0.74-5.12-2.22s-1.97-3.439-1.97-5.881V550.449z M669.281,550.933
		c0,1.895,0.491,3.449,1.472,4.665s2.268,1.824,3.86,1.824c1.582,0,2.864-0.608,3.845-1.824s1.472-2.819,1.472-4.812v-0.337
		c0-1.211-0.225-2.319-0.674-3.325s-1.079-1.785-1.89-2.337s-1.738-0.827-2.783-0.827c-1.562,0-2.837,0.612-3.823,1.838
		s-1.479,2.83-1.479,4.812V550.933z"/>
	<path class="st1" d="M691.866,544.253c-0.371-0.068-0.767-0.103-1.187-0.103c-1.094,0-2.019,0.305-2.776,0.915
		s-1.296,1.497-1.619,2.659v10.884h-1.743v-15.85h1.714l0.029,2.52c0.928-1.875,2.417-2.812,4.468-2.812
		c0.488,0,0.874,0.063,1.157,0.19L691.866,544.253z"/>
	<path class="st1" d="M697.649,550.625l-2.007,1.934v6.05h-1.758v-22.5h1.758v14.399l1.655-1.787l6.064-5.962h2.212l-6.724,6.68
		l7.31,9.17h-2.095L697.649,550.625z"/>
	<path class="st1" d="M714.27,538.181c0-0.33,0.107-0.608,0.322-0.837c0.215-0.228,0.508-0.342,0.879-0.342s0.667,0.114,0.886,0.342
		c0.22,0.229,0.33,0.507,0.33,0.837s-0.11,0.606-0.33,0.83s-0.515,0.335-0.886,0.335s-0.664-0.111-0.879-0.335
		S714.27,538.511,714.27,538.181z M716.335,558.608h-1.758v-15.85h1.758V558.608z"/>
	<path class="st1" d="M722.016,542.759l0.059,2.71c0.596-0.977,1.338-1.722,2.227-2.234s1.87-0.769,2.944-0.769
		c1.699,0,2.964,0.479,3.794,1.436s1.25,2.393,1.26,4.307v10.4h-1.743v-10.415c-0.01-1.416-0.31-2.471-0.901-3.164
		s-1.536-1.04-2.834-1.04c-1.084,0-2.043,0.339-2.878,1.018s-1.453,1.595-1.853,2.747v10.854h-1.743v-15.85H722.016z"/>
	<path class="st1" d="M737.335,558.608v-14.414h-2.622v-1.436h2.622v-1.919c0-1.621,0.413-2.866,1.238-3.735s1.975-1.304,3.45-1.304
		c0.664,0,1.284,0.082,1.86,0.246l-0.132,1.453c-0.488-0.117-1.021-0.176-1.597-0.176c-0.967,0-1.719,0.301-2.256,0.903
		c-0.537,0.602-0.806,1.456-0.806,2.562v1.969h3.779v1.436h-3.779v14.414H737.335z"/>
	<path class="st1" d="M752.581,544.253c-0.371-0.068-0.767-0.103-1.187-0.103c-1.094,0-2.019,0.305-2.776,0.915
		s-1.296,1.497-1.619,2.659v10.884h-1.743v-15.85h1.714l0.029,2.52c0.928-1.875,2.417-2.812,4.468-2.812
		c0.488,0,0.874,0.063,1.157,0.19L752.581,544.253z"/>
	<path class="st1" d="M764.019,558.608c-0.176-0.498-0.288-1.235-0.337-2.212c-0.615,0.801-1.399,1.418-2.351,1.853
		s-1.96,0.652-3.025,0.652c-1.523,0-2.756-0.425-3.699-1.274s-1.414-1.924-1.414-3.223c0-1.543,0.642-2.764,1.926-3.662
		s3.074-1.348,5.369-1.348h3.179v-1.802c0-1.133-0.349-2.024-1.047-2.674s-1.716-0.974-3.054-0.974
		c-1.221,0-2.231,0.312-3.032,0.938s-1.201,1.377-1.201,2.256l-1.758-0.015c0-1.26,0.586-2.352,1.758-3.274s2.612-1.384,4.321-1.384
		c1.768,0,3.162,0.441,4.182,1.325s1.545,2.117,1.575,3.699v7.5c0,1.533,0.161,2.681,0.483,3.442v0.176H764.019z M758.511,557.349
		c1.172,0,2.219-0.283,3.142-0.85s1.594-1.323,2.014-2.271v-3.486h-3.135c-1.748,0.02-3.115,0.339-4.102,0.959
		s-1.479,1.473-1.479,2.557c0,0.889,0.33,1.626,0.989,2.212S757.456,557.349,758.511,557.349z"/>
	<path class="st1" d="M778.825,554.58c0-0.869-0.349-1.567-1.047-2.095s-1.75-0.94-3.157-1.238s-2.498-0.64-3.274-1.025
		s-1.353-0.856-1.729-1.413s-0.564-1.23-0.564-2.021c0-1.25,0.522-2.283,1.567-3.099s2.383-1.223,4.014-1.223
		c1.768,0,3.186,0.437,4.255,1.311s1.604,2.015,1.604,3.421h-1.758c0-0.928-0.388-1.699-1.165-2.314s-1.755-0.923-2.937-0.923
		c-1.152,0-2.078,0.256-2.776,0.769s-1.047,1.18-1.047,2c0,0.791,0.291,1.403,0.872,1.838s1.641,0.833,3.179,1.194
		s2.69,0.747,3.457,1.157s1.335,0.903,1.707,1.479s0.557,1.274,0.557,2.095c0,1.338-0.54,2.407-1.619,3.208
		s-2.488,1.201-4.226,1.201c-1.846,0-3.342-0.447-4.49-1.341s-1.721-2.023-1.721-3.391h1.758c0.068,1.025,0.5,1.823,1.296,2.395
		s1.848,0.857,3.157,0.857c1.221,0,2.207-0.269,2.959-0.806S778.825,555.4,778.825,554.58z"/>
	<path class="st1" d="M786.498,538.701v4.058h3.281v1.436h-3.281v10.573c0,0.88,0.159,1.535,0.476,1.965
		c0.317,0.431,0.847,0.646,1.589,0.646c0.293,0,0.767-0.049,1.421-0.146l0.073,1.423c-0.459,0.164-1.084,0.247-1.875,0.247
		c-1.201,0-2.075-0.35-2.622-1.048s-0.82-1.726-0.82-3.083v-10.576h-2.915v-1.436h2.915v-4.058H786.498z"/>
	<path class="st1" d="M799.986,544.253c-0.371-0.068-0.767-0.103-1.187-0.103c-1.094,0-2.019,0.305-2.776,0.915
		s-1.296,1.497-1.619,2.659v10.884h-1.743v-15.85h1.714l0.029,2.52c0.928-1.875,2.417-2.812,4.468-2.812
		c0.488,0,0.874,0.063,1.157,0.19L799.986,544.253z"/>
	<path class="st1" d="M812.199,556.602c-1.055,1.533-2.739,2.3-5.054,2.3c-1.689,0-2.974-0.491-3.853-1.473
		s-1.328-2.434-1.348-4.357v-10.312h1.743v10.093c0,3.018,1.221,4.526,3.662,4.526c2.539,0,4.146-1.05,4.819-3.149v-11.47h1.758
		v15.85h-1.699L812.199,556.602z"/>
	<path class="st1" d="M823.593,557.422c1.221,0,2.244-0.345,3.069-1.033s1.271-1.579,1.34-2.673h1.685
		c-0.049,0.967-0.352,1.848-0.908,2.644s-1.296,1.419-2.219,1.868s-1.912,0.674-2.967,0.674c-2.08,0-3.728-0.723-4.943-2.168
		s-1.824-3.389-1.824-5.83v-0.527c0-1.562,0.273-2.944,0.82-4.146s1.331-2.129,2.352-2.783s2.214-0.981,3.581-0.981
		c1.738,0,3.172,0.518,4.3,1.553s1.73,2.397,1.809,4.087h-1.685c-0.078-1.24-0.524-2.241-1.34-3.003s-1.844-1.143-3.084-1.143
		c-1.582,0-2.81,0.571-3.684,1.714s-1.312,2.744-1.312,4.805v0.513c0,2.021,0.438,3.599,1.312,4.731
		S822.001,557.422,823.593,557.422z"/>
	<path class="st1" d="M835.162,538.701v4.058h3.281v1.436h-3.281v10.573c0,0.88,0.159,1.535,0.477,1.965
		c0.317,0.431,0.847,0.646,1.589,0.646c0.293,0,0.767-0.049,1.421-0.146l0.073,1.423c-0.459,0.164-1.084,0.247-1.875,0.247
		c-1.201,0-2.075-0.35-2.622-1.048s-0.82-1.726-0.82-3.083v-10.576h-2.915v-1.436h2.915v-4.058H835.162z"/>
	<path class="st1" d="M851.521,556.602c-1.055,1.533-2.739,2.3-5.054,2.3c-1.689,0-2.974-0.491-3.853-1.473
		s-1.328-2.434-1.348-4.357v-10.312h1.743v10.093c0,3.018,1.221,4.526,3.662,4.526c2.539,0,4.146-1.05,4.819-3.149v-11.47h1.758
		v15.85h-1.699L851.521,556.602z"/>
	<path class="st1" d="M864.38,544.253c-0.371-0.068-0.767-0.103-1.187-0.103c-1.094,0-2.02,0.305-2.776,0.915
		s-1.296,1.497-1.618,2.659v10.884h-1.743v-15.85h1.714l0.029,2.52c0.928-1.875,2.417-2.812,4.468-2.812
		c0.488,0,0.874,0.063,1.157,0.19L864.38,544.253z"/>
	<path class="st1" d="M872.258,558.901c-1.348,0-2.566-0.332-3.655-0.996s-1.936-1.59-2.541-2.776s-0.908-2.517-0.908-3.991v-0.63
		c0-1.523,0.295-2.896,0.887-4.116c0.59-1.221,1.413-2.181,2.468-2.879s2.197-1.047,3.428-1.047c1.924,0,3.45,0.656,4.577,1.97
		c1.129,1.313,1.692,3.108,1.692,5.384v0.981h-11.309v0.337c0,1.797,0.515,3.293,1.546,4.489c1.029,1.196,2.326,1.795,3.889,1.795
		c0.938,0,1.766-0.171,2.482-0.513c0.719-0.342,1.37-0.889,1.956-1.641l1.099,0.835
		C876.579,557.969,874.709,558.901,872.258,558.901z M871.936,543.96c-1.318,0-2.43,0.483-3.333,1.45s-1.452,2.266-1.647,3.896
		h9.507v-0.19c-0.049-1.523-0.483-2.764-1.304-3.721S873.264,543.96,871.936,543.96z"/>
	<path class="st1" d="M880.707,557.554c0-0.342,0.11-0.633,0.329-0.872c0.221-0.239,0.525-0.358,0.916-0.358
		s0.698,0.119,0.923,0.358s0.337,0.53,0.337,0.872s-0.112,0.622-0.337,0.842s-0.532,0.33-0.923,0.33s-0.695-0.11-0.916-0.33
		C880.817,558.176,880.707,557.896,880.707,557.554z"/>
</g>
</svg>
