<?xml version="1.0" encoding="utf-8"?>
<!-- Generator: Adobe Illustrator 22.0.1, SVG Export Plug-In . SVG Version: 6.00 Build 0)  -->
<svg version="1.1" id="Layer_1" xmlns="http://www.w3.org/2000/svg" xmlns:xlink="http://www.w3.org/1999/xlink" x="0px" y="0px"
	 viewBox="0 0 1600 650" style="enable-background:new 0 0 1600 650;" xml:space="preserve">
<style type="text/css">
	.st0{opacity:0.85;fill:#9A95C9;}
	.st1{fill:#FFFFFF;}
</style>
<path class="st0" d="M1600,721.071H0V-0.392h1600V721.071z M248.452,272.765h-31.199v-16.652h26.414v-12.441h-26.414v-14.69h31.295
	v-12.968h-48.091v69.672h47.995V272.765z M244.844,245.106h7.513v40.578h16.174v-40.578h6.919h3.177h4.335v40.578h16.174v-40.578
	h10.097v-11.197h-10.097v-3.972c0-4.211,2.44-6.316,7.321-6.316c1.658,0,2.982,0.144,3.972,0.431l-0.048-11.867
	c-2.744-0.67-5.264-1.005-7.561-1.005c-6.285,0-11.166,1.627-14.643,4.881c-3.478,3.254-5.216,7.832-5.216,13.733v4.115h-4.335
	h-3.177h-6.919v-3.972c0-4.211,2.44-6.316,7.321-6.316c1.658,0,2.982,0.144,3.972,0.431l-0.048-11.867
	c-2.744-0.67-5.264-1.005-7.561-1.005c-6.285,0-11.166,1.627-14.643,4.881c-3.478,3.254-5.216,7.832-5.216,13.733v4.115h-7.513
	V245.106z M307.252,259.701v1.34c0,7.593,2.456,13.757,7.369,18.495c4.912,4.737,11.341,7.106,19.284,7.106
	c4.242,0,8.207-0.822,11.891-2.464s6.532-3.852,8.542-6.627l-7.369-8.709c-2.871,3.573-6.859,5.359-11.963,5.359
	c-3.095,0-5.615-0.829-7.561-2.488c-1.946-1.658-3.206-3.939-3.78-6.843h31.912c0.711,6.035,2.765,10.945,6.207,14.69
	c4.338,4.722,10.271,7.082,17.801,7.082c6.412,0,11.652-1.818,15.719-5.455s6.101-8.294,6.101-13.973h-15.121
	c0.031,2.201-0.574,3.917-1.818,5.144c-1.244,1.229-2.999,1.842-5.264,1.842c-2.712,0-4.689-1.005-5.934-3.015
	s-1.866-5.614-1.866-10.814c0-2.967,0.111-5.295,0.335-6.986c0.701-5.327,3.142-7.991,7.321-7.991c2.201,0,3.955,0.718,5.264,2.153
	c1.308,1.436,1.962,3.493,1.962,6.173h15.121c0-3.206-0.501-6.076-1.5-8.613h6.075v25.696c0,5.328,1.323,9.3,3.972,11.915
	c2.647,2.616,6.747,3.924,12.298,3.924c3.158,0,6.188-0.463,9.092-1.388v-11.532c-1.085,0.191-2.425,0.287-4.02,0.287
	c-2.074,0-3.462-0.383-4.163-1.148c-0.702-0.766-1.053-2.121-1.053-4.067v-23.687h8.518v-11.197h-8.518v-12.872h-16.126v12.872
	h-6.604v10.035c-0.963-2.025-2.25-3.832-3.905-5.393c-3.956-3.732-9.3-5.599-16.03-5.599c-4.977,0-9.283,1.077-12.92,3.23
	s-6.42,5.232-8.35,9.235c-1.362,2.825-2.233,5.962-2.634,9.398c-0.574-6.271-2.603-11.313-6.128-15.092
	c-4.211-4.514-9.953-6.771-17.227-6.771c-5.168,0-9.635,1.109-13.398,3.326c-3.765,2.218-6.627,5.352-8.589,9.403
	C308.233,249.732,307.252,254.406,307.252,259.701z M332.087,245.394c2.552,0,4.514,0.71,5.886,2.129
	c1.371,1.42,2.025,3.421,1.962,6.005v1.244h-16.27C324.558,248.521,327.365,245.394,332.087,245.394z M449.075,233.909h-16.174
	v51.775h16.174V233.909z M434.432,226.191c1.658,1.477,3.812,2.215,6.46,2.215c2.647,0,4.801-0.738,6.46-2.215
	c1.658-1.476,2.488-3.37,2.488-5.681c0-2.311-0.83-4.204-2.488-5.681c-1.659-1.476-3.812-2.215-6.46-2.215
	c-2.648,0-4.802,0.739-6.46,2.215c-1.659,1.477-2.488,3.37-2.488,5.681C431.944,222.822,432.773,224.716,434.432,226.191z
	 M466.569,285.685h16.461l16.892-51.775h-16.987l-8.183,32.587l-8.039-32.587h-17.035L466.569,285.685z M497.605,261.041
	c0,7.593,2.456,13.757,7.369,18.495c4.912,4.737,11.341,7.106,19.284,7.106c4.242,0,8.207-0.822,11.891-2.464
	s6.532-3.852,8.542-6.627l-7.369-8.709c-2.871,3.573-6.859,5.359-11.963,5.359c-3.095,0-5.615-0.829-7.561-2.488
	c-1.946-1.658-3.206-3.939-3.78-6.843h32.061v-6.269c0-8.07-2.105-14.363-6.316-18.877c-4.211-4.514-9.953-6.771-17.227-6.771
	c-5.168,0-9.635,1.109-13.398,3.326c-3.765,2.218-6.627,5.352-8.589,9.403c-1.962,4.052-2.943,8.726-2.943,14.021V261.041z
	 M522.44,245.394c2.552,0,4.514,0.71,5.886,2.129c1.371,1.42,2.025,3.421,1.962,6.005v1.244h-16.27
	C514.911,248.521,517.719,245.394,522.44,245.394z M585.806,216.013h-16.748v69.672h16.748V216.013z M607.655,249.126
	c1.531-2.488,3.876-3.732,7.034-3.732c2.775,0,4.689,0.615,5.742,1.842c1.053,1.229,1.579,3.151,1.579,5.766v32.683h16.174v-33.353
	c-0.096-6.476-1.476-11.324-4.139-14.547c-2.664-3.222-6.692-4.833-12.083-4.833c-6.285,0-11.214,2.345-14.786,7.034l-0.526-6.077
	h-15.121v51.775h16.126V249.126z M667.666,274.631c-1.101,0.894-2.751,1.34-4.953,1.34c-2.393,0-4.354-0.55-5.886-1.651
	s-2.329-2.847-2.393-5.24h-15.073c0,3.031,0.973,5.918,2.919,8.661c1.945,2.744,4.657,4.913,8.135,6.508
	c3.477,1.595,7.433,2.393,11.867,2.393c6.667,0,12.098-1.483,16.293-4.45c4.194-2.967,6.292-6.811,6.292-11.532
	c0-6.922-3.893-11.724-11.676-14.403c-2.329-0.797-5.033-1.483-8.111-2.058c-3.079-0.574-5.32-1.308-6.723-2.201
	c-1.404-0.893-2.105-2.058-2.105-3.493c0-1.403,0.574-2.576,1.723-3.517c1.148-0.94,2.567-1.412,4.259-1.412
	c4.37,0,6.556,2.074,6.556,6.221h16.174c0-1.674-0.251-3.23-0.708-4.689h5.904v25.696c0,5.328,1.323,9.3,3.972,11.915
	c2.647,2.616,6.747,3.924,12.298,3.924c3.158,0,6.188-0.463,9.092-1.388v-11.532c-1.085,0.191-2.425,0.287-4.02,0.287
	c-2.074,0-3.462-0.383-4.163-1.148c-0.702-0.766-1.053-2.121-1.053-4.067v-23.687h8.518v-11.197h-8.518v-12.872H690.16v12.872
	h-6.604v9.398c-1.034-2.172-2.627-4.082-4.813-5.714c-4.147-3.094-9.635-4.642-16.461-4.642c-6.349,0-11.484,1.54-15.408,4.618
	c-3.924,3.079-5.886,6.995-5.886,11.748c0,2.68,0.686,5.057,2.058,7.13c1.371,2.074,3.365,3.836,5.981,5.288
	c2.615,1.452,5.934,2.625,9.953,3.517c4.02,0.894,6.747,1.755,8.183,2.584c1.436,0.83,2.153,1.931,2.153,3.302
	C669.316,272.573,668.766,273.738,667.666,274.631z M732.011,240.561l-0.526-6.651h-15.121v51.775h16.126v-32.778
	c1.436-3.189,4.689-4.785,9.762-4.785l5.312,0.383l0.287-14.978c-1.276-0.383-2.775-0.574-4.498-0.574
	C738.502,232.952,734.722,235.488,732.011,240.561z M778.695,270.229c-1.563,2.648-4.195,3.972-7.896,3.972
	c-4.307,0-6.46-2.217-6.46-6.651v-33.64h-16.126v33.544c0,6.189,1.459,10.934,4.378,14.236s7.217,4.953,12.896,4.953
	c5.806,0,10.415-2.185,13.829-6.556l0.479,5.599h15.121v-51.775h-16.222V270.229z M864.694,272.86
	c-0.702-0.766-1.053-2.121-1.053-4.067v-23.687h8.518v-11.197h-8.518v-12.872h-16.126v12.872h-6.604v10.034
	c-0.963-2.024-2.25-3.831-3.904-5.392c-3.956-3.732-9.3-5.599-16.03-5.599c-4.977,0-9.283,1.077-12.92,3.23s-6.421,5.232-8.35,9.235
	c-1.931,4.004-2.895,8.622-2.895,13.853v0.67c0,8.358,2.169,14.898,6.508,19.619c4.338,4.722,10.271,7.082,17.801,7.082
	c6.412,0,11.651-1.818,15.719-5.455c4.068-3.637,6.102-8.294,6.102-13.973H827.82c0.031,2.201-0.574,3.917-1.818,5.144
	c-1.244,1.229-2.999,1.842-5.264,1.842c-2.712,0-4.689-1.005-5.934-3.015s-1.866-5.614-1.866-10.814
	c0-2.967,0.111-5.295,0.335-6.986c0.701-5.327,3.142-7.991,7.321-7.991c2.201,0,3.955,0.718,5.264,2.153
	c1.308,1.436,1.962,3.493,1.962,6.173h15.121c0-3.206-0.501-6.076-1.5-8.613h6.074v25.696c0,5.328,1.323,9.3,3.972,11.915
	c2.647,2.616,6.747,3.924,12.298,3.924c3.158,0,6.188-0.463,9.092-1.388v-11.532c-1.085,0.191-2.425,0.287-4.02,0.287
	C866.783,274.009,865.396,273.626,864.694,272.86z M874.437,285.685h16.174v-51.775h-16.174V285.685z M888.888,214.83
	c-1.659-1.476-3.812-2.215-6.46-2.215c-2.648,0-4.802,0.739-6.46,2.215c-1.659,1.477-2.488,3.37-2.488,5.681
	c0,2.311,0.829,4.205,2.488,5.681c1.658,1.477,3.812,2.215,6.46,2.215c2.647,0,4.801-0.738,6.46-2.215
	c1.658-1.476,2.488-3.37,2.488-5.681C891.376,218.2,890.546,216.307,888.888,214.83z M918.537,232.952
	c-5.072,0-9.491,1.085-13.255,3.254c-3.765,2.17-6.651,5.272-8.661,9.307c-2.01,4.036-3.015,8.637-3.015,13.805l0.048,2.728
	c0.351,7.561,2.759,13.55,7.226,17.968c4.466,4.419,10.384,6.627,17.753,6.627c7.656,0,13.726-2.369,18.208-7.106
	c4.481-4.737,6.723-11.141,6.723-19.212v-0.574c0-8.262-2.233-14.793-6.699-19.595C932.397,235.353,926.289,232.952,918.537,232.952
	z M927.438,260.945c-0.128,8.837-3.062,13.255-8.805,13.255c-2.936,0-5.152-1.116-6.651-3.35c-1.5-2.232-2.249-5.742-2.249-10.527
	l0.048-2.919c0.446-8.007,3.365-12.011,8.757-12.011c5.934,0,8.9,4.642,8.9,13.925V260.945z M975.892,232.952
	c-6.285,0-11.214,2.345-14.786,7.034l-0.526-6.077h-15.121v51.775h16.126v-36.559c1.531-2.488,3.876-3.732,7.034-3.732
	c2.775,0,4.689,0.615,5.742,1.842c1.053,1.229,1.579,3.151,1.579,5.766v32.683h16.174v-33.353
	c-0.096-6.476-1.476-11.324-4.14-14.547C985.311,234.563,981.282,232.952,975.892,232.952z M1039.228,251.04
	c-0.096-5.614-2.058-10.032-5.886-13.255c-3.828-3.222-9.044-4.833-15.647-4.833s-12.034,1.562-16.294,4.684
	c-4.258,3.123-6.388,7.186-6.388,12.188h16.126c0-3.783,1.914-5.674,5.742-5.674c4.115,0,6.173,2.388,6.173,7.164v2.741h-4.977
	c-7.912,0-13.941,1.436-18.088,4.307c-4.147,2.871-6.221,7.114-6.221,12.729c0,4.467,1.706,8.175,5.12,11.125
	c3.413,2.951,7.561,4.426,12.441,4.426c5.327,0,9.475-1.866,12.441-5.599c0.446,2.042,0.957,3.589,1.531,4.642h16.126v-0.813
	c-1.404-2.52-2.138-6.156-2.201-10.91V251.04z M1023.054,270.946c-0.574,1.085-1.523,2.058-2.847,2.919
	c-1.324,0.861-2.991,1.292-5.001,1.292c-1.531,0-2.792-0.455-3.78-1.364c-0.989-0.909-1.483-2.097-1.483-3.565
	c0-5.04,2.807-7.561,8.422-7.561h4.689V270.946z M1044.09,212.185v73.5h16.174v-73.5H1044.09z M246.49,356.765h-29.237v-56.752
	h-16.796v69.672h46.033V356.765z M284.872,368.177c3.685-1.643,6.532-3.852,8.542-6.627l-7.369-8.709
	c-2.871,3.573-6.859,5.359-11.963,5.359c-3.095,0-5.615-0.829-7.561-2.488c-1.946-1.658-3.206-3.939-3.78-6.843h32.061v-6.269
	c0-8.07-2.105-14.363-6.316-18.877c-4.211-4.514-9.953-6.771-17.227-6.771c-5.168,0-9.635,1.109-13.398,3.326
	c-3.765,2.218-6.627,5.352-8.589,9.403c-1.962,4.052-2.943,8.726-2.943,14.021v1.34c0,7.593,2.456,13.757,7.369,18.494
	c4.912,4.737,11.341,7.106,19.284,7.106C277.223,370.642,281.188,369.819,284.872,368.177z M271.163,329.394
	c2.552,0,4.514,0.71,5.886,2.129c1.371,1.42,2.025,3.422,1.962,6.006v1.244h-16.27C263.633,332.521,266.441,329.394,271.163,329.394
	z M318.325,338.055c-7.912,0-13.941,1.436-18.088,4.307c-4.147,2.871-6.221,7.114-6.221,12.729c0,4.467,1.706,8.175,5.12,11.125
	c3.413,2.951,7.561,4.427,12.441,4.427c5.327,0,9.475-1.866,12.441-5.599c0.446,2.042,0.957,3.589,1.531,4.642h16.126v-0.813
	c-1.404-2.52-2.138-6.156-2.201-10.91V335.04c-0.096-5.614-2.058-10.032-5.886-13.255c-3.828-3.222-9.044-4.833-15.647-4.833
	s-12.035,1.562-16.293,4.684c-4.259,3.123-6.388,7.185-6.388,12.187h16.126c0-3.782,1.914-5.674,5.742-5.674
	c4.115,0,6.173,2.388,6.173,7.164v2.741H318.325z M323.302,354.946c-0.574,1.085-1.524,2.058-2.847,2.919
	c-1.324,0.861-2.991,1.292-5,1.292c-1.531,0-2.792-0.455-3.78-1.364c-0.989-0.909-1.483-2.097-1.483-3.564
	c0-5.04,2.807-7.561,8.422-7.561h4.689V354.946z M361.516,370.642c5.104,0,9.314-2.169,12.633-6.508l0.813,5.551h14.499v-73.5
	h-16.174v26.223c-3.158-3.637-7.051-5.455-11.676-5.455c-6.349,0-11.293,2.361-14.834,7.082c-3.541,4.722-5.312,11.182-5.312,19.38
	c0,8.709,1.802,15.425,5.407,20.146C350.478,368.281,355.358,370.642,361.516,370.642z M357.64,341.452
	c0.414-8.039,3.11-12.059,8.087-12.059c3.572,0,6.093,1.531,7.561,4.594v19.715c-1.531,2.999-4.084,4.498-7.656,4.498
	c-5.359,0-8.039-4.594-8.039-13.781L357.64,341.452z M440.595,342.601c0-8.07-2.105-14.363-6.316-18.877
	c-4.211-4.514-9.953-6.771-17.227-6.771c-5.168,0-9.635,1.109-13.398,3.326c-3.765,2.218-6.627,5.352-8.589,9.403
	c-1.962,4.052-2.943,8.726-2.943,14.021v1.34c0,7.593,2.456,13.757,7.369,18.494c4.912,4.737,11.341,7.106,19.284,7.106
	c4.242,0,8.207-0.822,11.891-2.465s6.532-3.852,8.542-6.627l-7.369-8.709c-2.871,3.573-6.859,5.359-11.963,5.359
	c-3.095,0-5.615-0.829-7.561-2.488c-1.946-1.658-3.206-3.939-3.78-6.843h32.061V342.601z M424.804,338.772h-16.27
	c0.893-6.252,3.7-9.379,8.422-9.379c2.552,0,4.514,0.71,5.886,2.129c1.371,1.42,2.025,3.422,1.962,6.006V338.772z M490.179,328.986
	c1.148-0.94,2.567-1.411,4.259-1.411c4.37,0,6.556,2.074,6.556,6.221h16.174c0-5.04-2.074-9.107-6.221-12.202
	c-4.147-3.094-9.635-4.642-16.461-4.642c-6.349,0-11.484,1.54-15.408,4.618c-2.967,2.328-4.808,5.136-5.531,8.422l0.239-12.465
	c-1.276-0.383-2.775-0.574-4.498-0.574c-4.85,0-8.63,2.536-11.341,7.608l-0.526-6.651h-15.121v51.775h16.126v-32.778
	c1.436-3.189,4.689-4.785,9.762-4.785l5.049,0.364c-0.014,0.278-0.044,0.549-0.044,0.832c0,2.68,0.686,5.057,2.058,7.13
	c1.371,2.074,3.365,3.836,5.981,5.287c2.615,1.452,5.934,2.625,9.953,3.518c4.02,0.894,6.747,1.755,8.183,2.584
	c1.436,0.83,2.153,1.931,2.153,3.302c0,1.436-0.55,2.601-1.651,3.493c-1.101,0.894-2.751,1.34-4.953,1.34
	c-2.393,0-4.354-0.551-5.886-1.651s-2.329-2.847-2.393-5.239h-15.073c0,3.031,0.973,5.918,2.919,8.661
	c1.945,2.744,4.657,4.913,8.135,6.508c3.477,1.595,7.433,2.393,11.867,2.393c6.667,0,12.098-1.483,16.293-4.45
	c4.194-2.967,6.292-6.811,6.292-11.532c0-6.922-3.893-11.724-11.676-14.403c-2.329-0.797-5.033-1.483-8.111-2.058
	c-3.079-0.574-5.32-1.308-6.723-2.201c-1.404-0.893-2.105-2.058-2.105-3.493C488.457,331.101,489.031,329.928,490.179,328.986z
	 M566.053,369.685v-32.683c-0.064-6.604-1.548-11.596-4.45-14.978c-2.903-3.381-7.21-5.072-12.92-5.072
	c-5.359,0-9.762,2.17-13.207,6.508v-27.275H519.35v73.5h16.126v-37.133c1.371-2.105,3.716-3.158,7.034-3.158
	c2.68,0,4.577,0.646,5.694,1.938c1.116,1.292,1.675,3.311,1.675,6.054v32.3H566.053z M572.493,310.191
	c1.658,1.477,3.812,2.215,6.46,2.215c2.647,0,4.801-0.738,6.46-2.215c1.658-1.476,2.488-3.37,2.488-5.681
	c0-2.311-0.83-4.204-2.488-5.681c-1.659-1.476-3.812-2.215-6.46-2.215c-2.648,0-4.802,0.739-6.46,2.215
	c-1.659,1.477-2.488,3.37-2.488,5.681C570.005,306.822,570.834,308.716,572.493,310.191z M587.136,317.909h-16.174v51.775h16.174
	V317.909z M620.039,316.952c-5.041,0-9.108,1.914-12.202,5.742l-0.479-4.785h-15.073v71.682h16.126v-24.165
	c3.062,3.478,6.97,5.216,11.724,5.216c6.156,0,11.045-2.4,14.667-7.202c3.62-4.801,5.431-11.221,5.431-19.26v-0.766
	c0-8.23-1.771-14.698-5.312-19.404C631.379,319.305,626.418,316.952,620.039,316.952z M624.106,344.897
	c-0.16,8.869-2.808,13.303-7.943,13.303c-3.765,0-6.349-1.436-7.752-4.307v-20.385c1.275-2.743,3.828-4.115,7.656-4.115
	c5.359,0,8.039,4.594,8.039,13.781V344.897z M717.666,334.849h-13.542c0,4.18-0.878,8.023-2.632,11.532l-10.719-12.298l3.637-2.536
	c6.539-4.594,9.81-9.857,9.81-15.791c0-4.753-1.723-8.733-5.168-11.939s-7.8-4.809-13.063-4.809c-5.87,0-10.623,1.731-14.26,5.192
	c-3.637,3.462-5.455,8-5.455,13.614c0,2.584,0.534,5.089,1.603,7.513c1.068,2.425,2.543,4.977,4.426,7.656l-0.144,0.096
	c-4.754,3.478-7.952,6.524-9.594,9.14c-1.644,2.616-2.464,5.535-2.464,8.757c0,5.902,2.073,10.663,6.221,14.283
	c4.146,3.621,9.666,5.432,16.557,5.432c3.509,0,6.659-0.383,9.451-1.148c2.791-0.766,5.527-1.945,8.207-3.541l3.254,3.685h17.992
	l-10.623-12.202C715.496,351.805,717.666,344.26,717.666,334.849z M681.729,313.148c1.021-1.132,2.424-1.699,4.211-1.699
	c1.499,0,2.759,0.543,3.78,1.627c1.021,1.085,1.531,2.361,1.531,3.828c0,1.563-0.335,2.855-1.005,3.876
	c-0.67,1.021-1.739,2.01-3.206,2.967l-3.206,2.01c-2.425-3.189-3.637-5.901-3.637-8.135
	C680.198,315.772,680.708,314.281,681.729,313.148z M683.93,358.248c-2.17,0-3.988-0.813-5.455-2.44
	c-1.468-1.627-2.201-3.604-2.201-5.934c0-2.807,0.909-5.327,2.728-7.561l0.431-0.287l12.537,14.26
	C689.417,357.595,686.737,358.248,683.93,358.248z M219.669,397.722c1.738-1.323,4.107-1.985,7.106-1.985
	c2.967,0,5.319,0.782,7.058,2.345c1.738,1.563,2.608,3.765,2.608,6.604h16.748c0-4.242-1.101-8.016-3.302-11.317
	s-5.288-5.845-9.259-7.632c-3.972-1.786-8.462-2.68-13.47-2.68c-5.137,0-9.762,0.821-13.877,2.464
	c-4.115,1.644-7.297,3.94-9.546,6.891c-2.249,2.951-3.374,6.357-3.374,10.217c0,7.752,4.514,13.846,13.542,18.279
	c2.775,1.372,6.348,2.792,10.719,4.259c4.37,1.468,7.424,2.888,9.164,4.259c1.738,1.372,2.608,3.286,2.608,5.742
	c0,2.17-0.806,3.852-2.417,5.048c-1.611,1.196-3.804,1.795-6.58,1.795c-4.339,0-7.473-0.886-9.403-2.656
	c-1.931-1.771-2.895-4.521-2.895-8.254h-16.844c0,4.594,1.156,8.653,3.469,12.178c2.312,3.525,5.758,6.301,10.336,8.326
	c4.577,2.026,9.69,3.039,15.336,3.039c8.007,0,14.308-1.738,18.901-5.216c4.594-3.477,6.891-8.262,6.891-14.355
	c0-7.624-3.765-13.605-11.293-17.944c-3.095-1.786-7.051-3.453-11.867-5.001c-4.817-1.547-8.183-3.046-10.097-4.498
	c-1.914-1.451-2.871-3.069-2.871-4.856C217.062,400.729,217.93,399.046,219.669,397.722z M286.379,438.229
	c-1.563,2.648-4.195,3.972-7.896,3.972c-4.307,0-6.46-2.217-6.46-6.651v-33.64h-16.126v33.544c0,6.189,1.459,10.934,4.378,14.235
	s7.217,4.953,12.896,4.953c5.806,0,10.415-2.185,13.829-6.556l0.479,5.599h15.121v-51.775h-16.222V438.229z M334.403,400.952
	c-5.041,0-9.108,1.914-12.202,5.742l-0.479-4.785h-15.073v71.682h16.126v-24.165c3.062,3.478,6.97,5.216,11.724,5.216
	c6.156,0,11.045-2.4,14.667-7.202c3.62-4.801,5.431-11.221,5.431-19.26v-0.766c0-8.23-1.771-14.698-5.312-19.404
	C345.744,403.305,340.783,400.952,334.403,400.952z M338.471,428.897c-0.16,8.869-2.808,13.303-7.943,13.303
	c-3.765,0-6.349-1.436-7.752-4.307v-20.385c1.275-2.743,3.828-4.115,7.656-4.115c5.359,0,8.039,4.594,8.039,13.781V428.897z
	 M380.13,400.952c-5.168,0-9.635,1.108-13.398,3.325c-3.765,2.218-6.627,5.353-8.589,9.403c-1.962,4.052-2.943,8.726-2.943,14.021
	v1.34c0,7.593,2.456,13.757,7.369,18.494c4.912,4.737,11.341,7.106,19.284,7.106c4.242,0,8.207-0.822,11.891-2.465
	s6.532-3.852,8.542-6.627l-7.369-8.709c-2.871,3.573-6.859,5.359-11.963,5.359c-3.095,0-5.615-0.829-7.561-2.488
	c-1.946-1.658-3.206-3.939-3.78-6.843h32.061v-6.269c0-8.07-2.105-14.363-6.316-18.878
	C393.146,403.209,387.403,400.952,380.13,400.952z M387.882,422.772h-16.27c0.893-6.252,3.7-9.379,8.422-9.379
	c2.552,0,4.514,0.71,5.886,2.129c1.371,1.42,2.025,3.422,1.962,6.006V422.772z M458.999,434.496l-8.039-32.587h-14.104l0.007-0.383
	c-1.276-0.383-2.775-0.574-4.498-0.574c-4.85,0-8.63,2.536-11.341,7.608l-0.526-6.651h-15.121v51.775h16.126v-32.778
	c1.436-3.189,4.689-4.785,9.762-4.785l5.312,0.383l0.117-6.11l14.124,43.291h16.461l16.892-51.775h-16.987L458.999,434.496z
	 M484.916,453.685h16.174v-51.775h-16.174V453.685z M499.367,382.83c-1.659-1.477-3.812-2.215-6.46-2.215
	c-2.648,0-4.802,0.738-6.46,2.215c-1.659,1.477-2.488,3.37-2.488,5.681s0.829,4.205,2.488,5.681c1.658,1.477,3.812,2.215,6.46,2.215
	c2.647,0,4.801-0.738,6.46-2.215c1.658-1.476,2.488-3.37,2.488-5.681S501.025,384.307,499.367,382.83z M521.886,412.986
	c1.148-0.94,2.567-1.411,4.259-1.411c4.37,0,6.556,2.074,6.556,6.221h16.174c0-5.04-2.074-9.107-6.221-12.202
	c-4.147-3.094-9.635-4.642-16.461-4.642c-6.349,0-11.484,1.539-15.408,4.617c-3.924,3.079-5.886,6.995-5.886,11.748
	c0,2.68,0.686,5.057,2.058,7.13c1.371,2.074,3.365,3.836,5.981,5.287c2.615,1.452,5.934,2.625,9.953,3.518
	c4.02,0.894,6.747,1.755,8.183,2.584c1.436,0.83,2.153,1.931,2.153,3.302c0,1.436-0.55,2.601-1.651,3.493
	c-1.101,0.894-2.751,1.34-4.953,1.34c-2.393,0-4.354-0.551-5.886-1.651s-2.329-2.847-2.393-5.239h-15.073
	c0,3.031,0.973,5.918,2.919,8.661c1.945,2.744,4.657,4.913,8.135,6.508c3.477,1.595,7.433,2.393,11.867,2.393
	c6.667,0,12.098-1.483,16.293-4.45c4.194-2.967,6.292-6.811,6.292-11.532c0-6.922-3.893-11.724-11.676-14.403
	c-2.329-0.797-5.033-1.483-8.111-2.058c-3.079-0.574-5.32-1.308-6.723-2.201c-1.404-0.893-2.105-2.058-2.105-3.493
	C520.163,415.101,520.737,413.928,521.886,412.986z M566.703,382.83c-1.659-1.477-3.812-2.215-6.46-2.215
	c-2.648,0-4.802,0.738-6.46,2.215c-1.659,1.477-2.488,3.37-2.488,5.681s0.829,4.205,2.488,5.681c1.658,1.477,3.812,2.215,6.46,2.215
	c2.647,0,4.801-0.738,6.46-2.215c1.658-1.476,2.488-3.37,2.488-5.681S568.361,384.307,566.703,382.83z M552.252,453.685h16.174
	v-51.775h-16.174V453.685z M596.352,400.952c-5.072,0-9.491,1.085-13.255,3.254c-3.765,2.17-6.651,5.271-8.661,9.307
	c-2.01,4.036-3.015,8.638-3.015,13.806l0.048,2.728c0.351,7.561,2.759,13.55,7.226,17.968c4.466,4.419,10.384,6.628,17.753,6.628
	c7.656,0,13.725-2.369,18.208-7.106c4.481-4.737,6.723-11.141,6.723-19.212v-0.574c0-8.262-2.233-14.794-6.699-19.596
	C610.212,403.353,604.104,400.952,596.352,400.952z M605.252,428.945c-0.128,8.837-3.062,13.255-8.805,13.255
	c-2.936,0-5.152-1.116-6.651-3.35c-1.5-2.232-2.249-5.742-2.249-10.527l0.048-2.919c0.446-8.007,3.365-12.011,8.757-12.011
	c5.934,0,8.9,4.642,8.9,13.925V428.945z M653.707,400.952c-6.285,0-11.214,2.345-14.786,7.034l-0.526-6.077h-15.121v51.775h16.126
	v-36.559c1.531-2.488,3.876-3.732,7.034-3.732c2.775,0,4.689,0.614,5.742,1.842c1.053,1.229,1.579,3.151,1.579,5.767v32.683h16.174
	v-33.353c-0.096-6.476-1.476-11.324-4.139-14.547C663.125,402.563,659.098,400.952,653.707,400.952z"/>
<g>
	<path class="st1" d="M206.871,510.773h-9.976v8.701h11.47v1.523h-13.271V499.67h13.198v1.523h-11.396v8.057h9.976V510.773z"/>
	<path class="st1" d="M215.979,511.579l4.277-6.431h2.08l-5.376,7.778l5.61,8.071h-2.065l-4.512-6.709l-4.512,6.709h-2.065
		l5.596-8.071l-5.376-7.778h2.065L215.979,511.579z"/>
	<path class="st1" d="M227.563,501.091v4.058h3.281v1.436h-3.281v10.573c0,0.88,0.159,1.535,0.476,1.965
		c0.317,0.431,0.847,0.646,1.589,0.646c0.293,0,0.767-0.049,1.421-0.146l0.073,1.423c-0.459,0.164-1.084,0.247-1.875,0.247
		c-1.201,0-2.075-0.35-2.622-1.048s-0.82-1.726-0.82-3.083v-10.576h-2.915v-1.436h2.915v-4.058H227.563z"/>
	<path class="st1" d="M239.865,521.291c-1.348,0-2.566-0.332-3.655-0.996s-1.936-1.59-2.542-2.776s-0.908-2.517-0.908-3.991v-0.63
		c0-1.523,0.295-2.896,0.886-4.116s1.414-2.181,2.468-2.879s2.197-1.047,3.428-1.047c1.924,0,3.45,0.656,4.578,1.97
		s1.692,3.108,1.692,5.384v0.981h-11.309v0.337c0,1.797,0.515,3.293,1.545,4.489s2.327,1.795,3.889,1.795
		c0.938,0,1.765-0.171,2.483-0.513s1.37-0.889,1.956-1.641l1.099,0.835C244.187,520.358,242.316,521.291,239.865,521.291z
		 M239.543,506.35c-1.318,0-2.429,0.483-3.333,1.45s-1.453,2.266-1.648,3.896h9.507v-0.19c-0.049-1.523-0.483-2.764-1.304-3.721
		S240.871,506.35,239.543,506.35z"/>
	<path class="st1" d="M255.8,506.643c-0.371-0.068-0.767-0.103-1.187-0.103c-1.094,0-2.019,0.305-2.776,0.915
		s-1.296,1.497-1.619,2.659v10.884h-1.743v-15.85h1.714l0.029,2.52c0.928-1.875,2.417-2.812,4.468-2.812
		c0.488,0,0.874,0.063,1.157,0.19L255.8,506.643z"/>
	<path class="st1" d="M259.488,505.148l0.059,2.71c0.596-0.977,1.338-1.722,2.227-2.234s1.87-0.769,2.944-0.769
		c1.699,0,2.964,0.479,3.794,1.436s1.25,2.393,1.26,4.307v10.4h-1.743v-10.415c-0.01-1.416-0.31-2.471-0.901-3.164
		s-1.536-1.04-2.834-1.04c-1.084,0-2.043,0.339-2.878,1.018s-1.453,1.595-1.853,2.747v10.854h-1.743v-15.85H259.488z"/>
	<path class="st1" d="M283.553,520.998c-0.176-0.498-0.288-1.235-0.337-2.212c-0.615,0.801-1.399,1.418-2.351,1.853
		s-1.96,0.652-3.025,0.652c-1.523,0-2.756-0.425-3.699-1.274s-1.414-1.924-1.414-3.223c0-1.543,0.642-2.764,1.926-3.662
		s3.074-1.348,5.369-1.348h3.179v-1.802c0-1.133-0.349-2.024-1.047-2.674s-1.716-0.974-3.054-0.974
		c-1.221,0-2.231,0.312-3.032,0.938s-1.201,1.377-1.201,2.256l-1.758-0.015c0-1.26,0.586-2.352,1.758-3.274s2.612-1.384,4.321-1.384
		c1.768,0,3.162,0.441,4.182,1.325s1.545,2.117,1.575,3.699v7.5c0,1.533,0.161,2.681,0.483,3.442v0.176H283.553z M278.045,519.738
		c1.172,0,2.219-0.283,3.142-0.85s1.594-1.323,2.014-2.271v-3.486h-3.135c-1.748,0.02-3.115,0.339-4.102,0.959
		s-1.479,1.473-1.479,2.557c0,0.889,0.33,1.626,0.989,2.212S276.99,519.738,278.045,519.738z"/>
	<path class="st1" d="M290.83,520.998h-1.758v-22.5h1.758V520.998z"/>
	<path class="st1" d="M311.391,520.998c-0.176-0.498-0.288-1.235-0.337-2.212c-0.615,0.801-1.399,1.418-2.351,1.853
		s-1.96,0.652-3.025,0.652c-1.523,0-2.756-0.425-3.699-1.274s-1.414-1.924-1.414-3.223c0-1.543,0.642-2.764,1.926-3.662
		s3.074-1.348,5.369-1.348h3.179v-1.802c0-1.133-0.349-2.024-1.047-2.674s-1.716-0.974-3.054-0.974
		c-1.221,0-2.231,0.312-3.032,0.938s-1.201,1.377-1.201,2.256l-1.758-0.015c0-1.26,0.586-2.352,1.758-3.274s2.612-1.384,4.321-1.384
		c1.768,0,3.162,0.441,4.182,1.325s1.545,2.117,1.575,3.699v7.5c0,1.533,0.161,2.681,0.483,3.442v0.176H311.391z M305.883,519.738
		c1.172,0,2.219-0.283,3.142-0.85s1.594-1.323,2.014-2.271v-3.486h-3.135c-1.748,0.02-3.115,0.339-4.102,0.959
		s-1.479,1.473-1.479,2.557c0,0.889,0.33,1.626,0.989,2.212S304.828,519.738,305.883,519.738z"/>
	<path class="st1" d="M322.564,519.812c1.221,0,2.244-0.345,3.069-1.033s1.272-1.579,1.34-2.673h1.685
		c-0.049,0.967-0.352,1.848-0.908,2.644s-1.296,1.419-2.219,1.868s-1.912,0.674-2.966,0.674c-2.08,0-3.728-0.723-4.944-2.168
		s-1.824-3.389-1.824-5.83v-0.527c0-1.562,0.273-2.944,0.82-4.146s1.331-2.129,2.351-2.783s2.214-0.981,3.582-0.981
		c1.738,0,3.171,0.518,4.299,1.553s1.731,2.397,1.809,4.087h-1.685c-0.078-1.24-0.525-2.241-1.34-3.003s-1.843-1.143-3.083-1.143
		c-1.582,0-2.81,0.571-3.684,1.714s-1.311,2.744-1.311,4.805v0.513c0,2.021,0.437,3.599,1.311,4.731
		S320.973,519.812,322.564,519.812z"/>
	<path class="st1" d="M337.269,519.812c1.221,0,2.244-0.345,3.069-1.033s1.272-1.579,1.34-2.673h1.685
		c-0.049,0.967-0.352,1.848-0.908,2.644s-1.296,1.419-2.219,1.868s-1.912,0.674-2.966,0.674c-2.08,0-3.728-0.723-4.944-2.168
		s-1.824-3.389-1.824-5.83v-0.527c0-1.562,0.273-2.944,0.82-4.146s1.331-2.129,2.351-2.783s2.214-0.981,3.582-0.981
		c1.738,0,3.171,0.518,4.299,1.553s1.731,2.397,1.809,4.087h-1.685c-0.078-1.24-0.525-2.241-1.34-3.003s-1.843-1.143-3.083-1.143
		c-1.582,0-2.81,0.571-3.684,1.714s-1.311,2.744-1.311,4.805v0.513c0,2.021,0.437,3.599,1.311,4.731
		S335.677,519.812,337.269,519.812z"/>
	<path class="st1" d="M345.146,512.839c0-1.523,0.295-2.896,0.886-4.116s1.426-2.171,2.505-2.85s2.302-1.018,3.669-1.018
		c2.109,0,3.818,0.739,5.127,2.219s1.963,3.44,1.963,5.882v0.366c0,1.533-0.295,2.912-0.886,4.138s-1.423,2.171-2.498,2.835
		s-2.3,0.996-3.677,0.996c-2.1,0-3.806-0.74-5.12-2.22s-1.97-3.439-1.97-5.881V512.839z M346.904,513.322
		c0,1.895,0.491,3.449,1.472,4.665s2.268,1.824,3.86,1.824c1.582,0,2.864-0.608,3.845-1.824s1.472-2.819,1.472-4.812v-0.337
		c0-1.211-0.225-2.319-0.674-3.325s-1.079-1.785-1.89-2.337s-1.738-0.827-2.783-0.827c-1.562,0-2.837,0.612-3.823,1.838
		s-1.479,2.83-1.479,4.812V513.322z"/>
	<path class="st1" d="M372.36,518.991c-1.055,1.533-2.739,2.3-5.054,2.3c-1.689,0-2.974-0.491-3.853-1.473s-1.328-2.434-1.348-4.357
		v-10.312h1.743v10.093c0,3.018,1.221,4.526,3.662,4.526c2.539,0,4.146-1.05,4.819-3.149v-11.47h1.758v15.85h-1.699L372.36,518.991z
		"/>
	<path class="st1" d="M379.564,505.148l0.059,2.71c0.596-0.977,1.338-1.722,2.227-2.234s1.87-0.769,2.944-0.769
		c1.699,0,2.964,0.479,3.794,1.436s1.25,2.393,1.26,4.307v10.4h-1.743v-10.415c-0.01-1.416-0.31-2.471-0.901-3.164
		s-1.536-1.04-2.834-1.04c-1.084,0-2.043,0.339-2.878,1.018s-1.453,1.595-1.853,2.747v10.854h-1.743v-15.85H379.564z"/>
	<path class="st1" d="M396.349,501.091v4.058h3.281v1.436h-3.281v10.573c0,0.88,0.159,1.535,0.476,1.965
		c0.317,0.431,0.847,0.646,1.589,0.646c0.293,0,0.767-0.049,1.421-0.146l0.073,1.423c-0.459,0.164-1.084,0.247-1.875,0.247
		c-1.201,0-2.075-0.35-2.622-1.048s-0.82-1.726-0.82-3.083v-10.576h-2.915v-1.436h2.915v-4.058H396.349z"/>
	<path class="st1" d="M412.518,520.998c-0.176-0.498-0.288-1.235-0.337-2.212c-0.615,0.801-1.399,1.418-2.351,1.853
		s-1.96,0.652-3.025,0.652c-1.523,0-2.756-0.425-3.699-1.274s-1.414-1.924-1.414-3.223c0-1.543,0.642-2.764,1.926-3.662
		s3.074-1.348,5.369-1.348h3.179v-1.802c0-1.133-0.349-2.024-1.047-2.674s-1.716-0.974-3.054-0.974
		c-1.221,0-2.231,0.312-3.032,0.938s-1.201,1.377-1.201,2.256l-1.758-0.015c0-1.26,0.586-2.352,1.758-3.274s2.612-1.384,4.321-1.384
		c1.768,0,3.162,0.441,4.182,1.325s1.545,2.117,1.575,3.699v7.5c0,1.533,0.161,2.681,0.483,3.442v0.176H412.518z M407.01,519.738
		c1.172,0,2.219-0.283,3.142-0.85s1.594-1.323,2.014-2.271v-3.486h-3.135c-1.748,0.02-3.115,0.339-4.102,0.959
		s-1.479,1.473-1.479,2.557c0,0.889,0.33,1.626,0.989,2.212S405.955,519.738,407.01,519.738z"/>
	<path class="st1" d="M430.591,513.234c0,2.471-0.547,4.431-1.641,5.881s-2.563,2.176-4.409,2.176c-2.207,0-3.877-0.82-5.01-2.461
		l-0.073,2.168h-1.641v-22.5h1.743v8.95c1.113-1.729,2.764-2.593,4.951-2.593c1.875,0,3.357,0.715,4.446,2.146
		s1.633,3.421,1.633,5.97V513.234z M428.833,512.927c0-2.09-0.405-3.704-1.216-4.842s-1.953-1.706-3.428-1.706
		c-1.123,0-2.075,0.275-2.856,0.827s-1.372,1.36-1.772,2.425v7.148c0.879,1.992,2.432,2.988,4.658,2.988
		c1.445,0,2.576-0.571,3.391-1.714S428.833,515.202,428.833,512.927z"/>
	<path class="st1" d="M433.605,500.57c0-0.33,0.107-0.608,0.322-0.837c0.215-0.228,0.508-0.342,0.879-0.342s0.667,0.114,0.886,0.342
		c0.22,0.229,0.33,0.507,0.33,0.837s-0.11,0.606-0.33,0.83s-0.515,0.335-0.886,0.335s-0.664-0.111-0.879-0.335
		S433.605,500.9,433.605,500.57z M435.671,520.998h-1.758v-15.85h1.758V520.998z"/>
	<path class="st1" d="M441.645,520.998h-1.758v-22.5h1.758V520.998z"/>
	<path class="st1" d="M445.553,500.57c0-0.33,0.107-0.608,0.322-0.837c0.215-0.228,0.508-0.342,0.879-0.342s0.667,0.114,0.886,0.342
		c0.22,0.229,0.33,0.507,0.33,0.837s-0.11,0.606-0.33,0.83s-0.515,0.335-0.886,0.335s-0.664-0.111-0.879-0.335
		S445.553,500.9,445.553,500.57z M447.618,520.998h-1.758v-15.85h1.758V520.998z"/>
	<path class="st1" d="M454.354,501.091v4.058h3.281v1.436h-3.281v10.573c0,0.88,0.159,1.535,0.476,1.965
		c0.317,0.431,0.847,0.646,1.589,0.646c0.293,0,0.767-0.049,1.421-0.146l0.073,1.423c-0.459,0.164-1.084,0.247-1.875,0.247
		c-1.201,0-2.075-0.35-2.622-1.048s-0.82-1.726-0.82-3.083v-10.576h-2.915v-1.436h2.915v-4.058H454.354z"/>
	<path class="st1" d="M465.542,518.479l4.629-13.33h1.89l-6.768,18.545l-0.352,0.82c-0.869,1.924-2.212,2.886-4.028,2.886
		c-0.42,0-0.869-0.068-1.348-0.205l-0.015-1.45l0.908,0.088c0.859,0,1.555-0.213,2.087-0.638s0.984-1.154,1.355-2.189l0.776-2.139
		l-5.977-15.718h1.919L465.542,518.479z"/>
	<path class="st1" d="M472.087,524.982l-1.04-0.762c0.889-1.191,1.348-2.427,1.377-3.706v-2.271h1.714v1.831
		C474.138,522.106,473.454,523.742,472.087,524.982z"/>
	<path class="st1" d="M485.953,520.998h-1.758v-22.5h1.758V520.998z"/>
	<path class="st1" d="M496.102,521.291c-1.348,0-2.566-0.332-3.655-0.996s-1.936-1.59-2.542-2.776s-0.908-2.517-0.908-3.991v-0.63
		c0-1.523,0.295-2.896,0.886-4.116s1.414-2.181,2.468-2.879s2.197-1.047,3.428-1.047c1.924,0,3.45,0.656,4.578,1.97
		s1.692,3.108,1.692,5.384v0.981H490.74v0.337c0,1.797,0.515,3.293,1.545,4.489s2.327,1.795,3.889,1.795
		c0.938,0,1.765-0.171,2.483-0.513s1.37-0.889,1.956-1.641l1.099,0.835C500.423,520.358,498.553,521.291,496.102,521.291z
		 M495.779,506.35c-1.318,0-2.429,0.483-3.333,1.45s-1.453,2.266-1.648,3.896h9.507v-0.19c-0.049-1.523-0.483-2.764-1.304-3.721
		S497.107,506.35,495.779,506.35z"/>
	<path class="st1" d="M504.009,512.927c0-2.48,0.549-4.446,1.648-5.896s2.59-2.175,4.475-2.175c2.158,0,3.799,0.859,4.922,2.578
		l0.088-2.285h1.641v15.527c0,2.041-0.571,3.657-1.714,4.849s-2.69,1.787-4.644,1.787c-1.104,0-2.156-0.247-3.157-0.74
		s-1.79-1.149-2.366-1.97l0.981-1.055c1.24,1.523,2.715,2.285,4.424,2.285c1.465,0,2.607-0.433,3.428-1.297s1.245-2.062,1.274-3.596
		v-1.992c-1.123,1.562-2.759,2.344-4.907,2.344c-1.836,0-3.311-0.732-4.424-2.197s-1.67-3.442-1.67-5.933V512.927z M505.781,513.234
		c0,2.021,0.405,3.615,1.216,4.782s1.953,1.751,3.428,1.751c2.158,0,3.687-0.967,4.585-2.9v-7.368
		c-0.41-1.016-1.001-1.79-1.772-2.322s-1.699-0.798-2.783-0.798c-1.475,0-2.622,0.578-3.442,1.735S505.781,510.979,505.781,513.234z
		"/>
	<path class="st1" d="M520.5,500.57c0-0.33,0.107-0.608,0.322-0.837c0.215-0.228,0.508-0.342,0.879-0.342s0.667,0.114,0.886,0.342
		c0.22,0.229,0.33,0.507,0.33,0.837s-0.11,0.606-0.33,0.83s-0.515,0.335-0.886,0.335s-0.664-0.111-0.879-0.335
		S520.5,500.9,520.5,500.57z M522.565,520.998h-1.758v-15.85h1.758V520.998z"/>
	<path class="st1" d="M536.068,516.97c0-0.869-0.349-1.567-1.047-2.095s-1.75-0.94-3.157-1.238s-2.498-0.64-3.274-1.025
		s-1.353-0.856-1.729-1.413s-0.564-1.23-0.564-2.021c0-1.25,0.522-2.283,1.567-3.099s2.383-1.223,4.014-1.223
		c1.768,0,3.186,0.437,4.255,1.311s1.604,2.015,1.604,3.421h-1.758c0-0.928-0.388-1.699-1.165-2.314s-1.755-0.923-2.937-0.923
		c-1.152,0-2.078,0.256-2.776,0.769s-1.047,1.18-1.047,2c0,0.791,0.291,1.403,0.872,1.838s1.641,0.833,3.179,1.194
		s2.69,0.747,3.457,1.157s1.335,0.903,1.707,1.479s0.557,1.274,0.557,2.095c0,1.338-0.54,2.407-1.619,3.208
		s-2.488,1.201-4.226,1.201c-1.846,0-3.342-0.447-4.49-1.341s-1.721-2.023-1.721-3.391h1.758c0.068,1.025,0.5,1.823,1.296,2.395
		s1.848,0.857,3.157,0.857c1.221,0,2.207-0.269,2.959-0.806S536.068,517.79,536.068,516.97z"/>
	<path class="st1" d="M542.979,520.998h-1.758v-22.5h1.758V520.998z"/>
	<path class="st1" d="M556.995,520.998c-0.176-0.498-0.288-1.235-0.337-2.212c-0.615,0.801-1.399,1.418-2.351,1.853
		s-1.96,0.652-3.025,0.652c-1.523,0-2.756-0.425-3.699-1.274s-1.414-1.924-1.414-3.223c0-1.543,0.642-2.764,1.926-3.662
		s3.074-1.348,5.369-1.348h3.179v-1.802c0-1.133-0.349-2.024-1.047-2.674s-1.716-0.974-3.054-0.974
		c-1.221,0-2.231,0.312-3.032,0.938s-1.201,1.377-1.201,2.256l-1.758-0.015c0-1.26,0.586-2.352,1.758-3.274s2.612-1.384,4.321-1.384
		c1.768,0,3.162,0.441,4.182,1.325s1.545,2.117,1.575,3.699v7.5c0,1.533,0.161,2.681,0.483,3.442v0.176H556.995z M551.487,519.738
		c1.172,0,2.219-0.283,3.142-0.85s1.594-1.323,2.014-2.271v-3.486h-3.135c-1.748,0.02-3.115,0.339-4.102,0.959
		s-1.479,1.473-1.479,2.557c0,0.889,0.33,1.626,0.989,2.212S550.433,519.738,551.487,519.738z"/>
	<path class="st1" d="M565.034,501.091v4.058h3.281v1.436h-3.281v10.573c0,0.88,0.159,1.535,0.476,1.965
		c0.317,0.431,0.847,0.646,1.589,0.646c0.293,0,0.767-0.049,1.421-0.146l0.073,1.423c-0.459,0.164-1.084,0.247-1.875,0.247
		c-1.201,0-2.075-0.35-2.622-1.048s-0.82-1.726-0.82-3.083v-10.576h-2.915v-1.436h2.915v-4.058H565.034z"/>
	<path class="st1" d="M571.096,500.57c0-0.33,0.107-0.608,0.322-0.837c0.215-0.228,0.508-0.342,0.879-0.342s0.667,0.114,0.886,0.342
		c0.22,0.229,0.33,0.507,0.33,0.837s-0.11,0.606-0.33,0.83s-0.515,0.335-0.886,0.335s-0.664-0.111-0.879-0.335
		S571.096,500.9,571.096,500.57z M573.161,520.998h-1.758v-15.85h1.758V520.998z"/>
	<path class="st1" d="M582.108,518.581l4.819-13.433h1.802l-5.918,15.85h-1.421l-5.947-15.85h1.802L582.108,518.581z"/>
	<path class="st1" d="M596.798,521.291c-1.348,0-2.566-0.332-3.655-0.996s-1.936-1.59-2.542-2.776s-0.908-2.517-0.908-3.991v-0.63
		c0-1.523,0.295-2.896,0.886-4.116s1.414-2.181,2.468-2.879s2.197-1.047,3.428-1.047c1.924,0,3.45,0.656,4.578,1.97
		s1.692,3.108,1.692,5.384v0.981h-11.309v0.337c0,1.797,0.515,3.293,1.545,4.489s2.327,1.795,3.889,1.795
		c0.938,0,1.765-0.171,2.483-0.513s1.37-0.889,1.956-1.641l1.099,0.835C601.119,520.358,599.249,521.291,596.798,521.291z
		 M596.476,506.35c-1.318,0-2.429,0.483-3.333,1.45s-1.453,2.266-1.648,3.896h9.507v-0.19c-0.049-1.523-0.483-2.764-1.304-3.721
		S597.804,506.35,596.476,506.35z"/>
	<path class="st1" d="M619.277,506.643c-0.371-0.068-0.767-0.103-1.187-0.103c-1.094,0-2.019,0.305-2.776,0.915
		s-1.296,1.497-1.619,2.659v10.884h-1.743v-15.85h1.714l0.029,2.52c0.928-1.875,2.417-2.812,4.468-2.812
		c0.488,0,0.874,0.063,1.157,0.19L619.277,506.643z"/>
	<path class="st1" d="M627.155,521.291c-1.348,0-2.566-0.332-3.655-0.996s-1.936-1.59-2.542-2.776s-0.908-2.517-0.908-3.991v-0.63
		c0-1.523,0.295-2.896,0.886-4.116s1.414-2.181,2.468-2.879s2.197-1.047,3.428-1.047c1.924,0,3.45,0.656,4.578,1.97
		s1.692,3.108,1.692,5.384v0.981h-11.309v0.337c0,1.797,0.515,3.293,1.545,4.489s2.327,1.795,3.889,1.795
		c0.938,0,1.765-0.171,2.483-0.513s1.37-0.889,1.956-1.641l1.099,0.835C631.477,520.358,629.606,521.291,627.155,521.291z
		 M626.833,506.35c-1.318,0-2.429,0.483-3.333,1.45s-1.453,2.266-1.648,3.896h9.507v-0.19c-0.049-1.523-0.483-2.764-1.304-3.721
		S628.161,506.35,626.833,506.35z"/>
	<path class="st1" d="M637.025,520.998v-14.414h-2.622v-1.436h2.622v-1.919c0-1.621,0.413-2.866,1.238-3.735s1.975-1.304,3.45-1.304
		c0.664,0,1.284,0.082,1.86,0.246l-0.132,1.453c-0.488-0.117-1.021-0.176-1.597-0.176c-0.967,0-1.719,0.301-2.256,0.903
		c-0.537,0.602-0.806,1.456-0.806,2.562v1.969h3.779v1.436h-3.779v14.414H637.025z"/>
	<path class="st1" d="M643.98,512.839c0-1.523,0.295-2.896,0.886-4.116s1.426-2.171,2.505-2.85s2.302-1.018,3.669-1.018
		c2.109,0,3.818,0.739,5.127,2.219s1.963,3.44,1.963,5.882v0.366c0,1.533-0.295,2.912-0.886,4.138s-1.423,2.171-2.498,2.835
		s-2.3,0.996-3.677,0.996c-2.1,0-3.806-0.74-5.12-2.22s-1.97-3.439-1.97-5.881V512.839z M645.738,513.322
		c0,1.895,0.491,3.449,1.472,4.665s2.268,1.824,3.86,1.824c1.582,0,2.864-0.608,3.845-1.824s1.472-2.819,1.472-4.812v-0.337
		c0-1.211-0.225-2.319-0.674-3.325s-1.079-1.785-1.89-2.337s-1.738-0.827-2.783-0.827c-1.562,0-2.837,0.612-3.823,1.838
		s-1.479,2.83-1.479,4.812V513.322z"/>
	<path class="st1" d="M668.323,506.643c-0.371-0.068-0.767-0.103-1.187-0.103c-1.094,0-2.019,0.305-2.776,0.915
		s-1.296,1.497-1.619,2.659v10.884h-1.743v-15.85h1.714l0.029,2.52c0.928-1.875,2.417-2.812,4.468-2.812
		c0.488,0,0.874,0.063,1.157,0.19L668.323,506.643z"/>
	<path class="st1" d="M671.938,505.148l0.059,2.578c0.586-0.957,1.318-1.675,2.197-2.153s1.855-0.718,2.93-0.718
		c2.5,0,4.087,1.025,4.761,3.076c0.566-0.986,1.323-1.746,2.271-2.278s1.992-0.798,3.135-0.798c3.398,0,5.132,1.855,5.2,5.566
		v10.576h-1.758v-10.444c-0.01-1.416-0.315-2.466-0.916-3.149s-1.58-1.025-2.937-1.025c-1.26,0.02-2.324,0.427-3.193,1.223
		s-1.353,1.766-1.45,2.908v10.488h-1.758v-10.576c-0.01-1.357-0.33-2.371-0.959-3.04s-1.599-1.003-2.908-1.003
		c-1.104,0-2.051,0.314-2.842,0.944s-1.377,1.565-1.758,2.806v10.869h-1.758v-15.85H671.938z"/>
	<path class="st1" d="M695.812,524.982l-1.04-0.762c0.889-1.191,1.348-2.427,1.377-3.706v-2.271h1.714v1.831
		C697.863,522.106,697.18,523.742,695.812,524.982z"/>
	<path class="st1" d="M709.679,520.998h-1.758v-22.5h1.758V520.998z"/>
	<path class="st1" d="M712.723,512.839c0-1.523,0.295-2.896,0.886-4.116s1.426-2.171,2.505-2.85s2.302-1.018,3.669-1.018
		c2.109,0,3.818,0.739,5.127,2.219s1.963,3.44,1.963,5.882v0.366c0,1.533-0.295,2.912-0.886,4.138s-1.423,2.171-2.498,2.835
		s-2.3,0.996-3.677,0.996c-2.1,0-3.806-0.74-5.12-2.22s-1.97-3.439-1.97-5.881V512.839z M714.48,513.322
		c0,1.895,0.491,3.449,1.472,4.665s2.268,1.824,3.86,1.824c1.582,0,2.864-0.608,3.845-1.824s1.472-2.819,1.472-4.812v-0.337
		c0-1.211-0.225-2.319-0.674-3.325s-1.079-1.785-1.89-2.337s-1.738-0.827-2.783-0.827c-1.562,0-2.837,0.612-3.823,1.838
		s-1.479,2.83-1.479,4.812V513.322z"/>
	<path class="st1" d="M735.601,519.812c1.221,0,2.244-0.345,3.069-1.033s1.272-1.579,1.34-2.673h1.685
		c-0.049,0.967-0.352,1.848-0.908,2.644s-1.296,1.419-2.219,1.868s-1.912,0.674-2.966,0.674c-2.08,0-3.728-0.723-4.944-2.168
		s-1.824-3.389-1.824-5.83v-0.527c0-1.562,0.273-2.944,0.82-4.146s1.331-2.129,2.351-2.783s2.214-0.981,3.582-0.981
		c1.738,0,3.171,0.518,4.299,1.553s1.731,2.397,1.809,4.087h-1.685c-0.078-1.24-0.525-2.241-1.34-3.003s-1.843-1.143-3.083-1.143
		c-1.582,0-2.81,0.571-3.684,1.714s-1.311,2.744-1.311,4.805v0.513c0,2.021,0.437,3.599,1.311,4.731
		S734.009,519.812,735.601,519.812z"/>
	<path class="st1" d="M754.45,520.998c-0.176-0.498-0.288-1.235-0.337-2.212c-0.615,0.801-1.399,1.418-2.351,1.853
		s-1.96,0.652-3.025,0.652c-1.523,0-2.756-0.425-3.699-1.274s-1.414-1.924-1.414-3.223c0-1.543,0.642-2.764,1.926-3.662
		s3.074-1.348,5.369-1.348h3.179v-1.802c0-1.133-0.349-2.024-1.047-2.674s-1.716-0.974-3.054-0.974
		c-1.221,0-2.231,0.312-3.032,0.938s-1.201,1.377-1.201,2.256l-1.758-0.015c0-1.26,0.586-2.352,1.758-3.274s2.612-1.384,4.321-1.384
		c1.768,0,3.162,0.441,4.182,1.325s1.545,2.117,1.575,3.699v7.5c0,1.533,0.161,2.681,0.483,3.442v0.176H754.45z M748.942,519.738
		c1.172,0,2.219-0.283,3.142-0.85s1.594-1.323,2.014-2.271v-3.486h-3.135c-1.748,0.02-3.115,0.339-4.102,0.959
		s-1.479,1.473-1.479,2.557c0,0.889,0.33,1.626,0.989,2.212S747.888,519.738,748.942,519.738z"/>
	<path class="st1" d="M761.728,520.998h-1.758v-22.5h1.758V520.998z"/>
	<path class="st1" d="M773.88,505.148l0.059,2.578c0.586-0.957,1.318-1.675,2.197-2.153s1.855-0.718,2.93-0.718
		c2.5,0,4.087,1.025,4.761,3.076c0.566-0.986,1.323-1.746,2.271-2.278s1.992-0.798,3.135-0.798c3.398,0,5.132,1.855,5.2,5.566
		v10.576h-1.758v-10.444c-0.01-1.416-0.315-2.466-0.916-3.149s-1.58-1.025-2.937-1.025c-1.26,0.02-2.324,0.427-3.193,1.223
		s-1.353,1.766-1.45,2.908v10.488h-1.758v-10.576c-0.01-1.357-0.33-2.371-0.959-3.04s-1.599-1.003-2.908-1.003
		c-1.104,0-2.051,0.314-2.842,0.944s-1.377,1.565-1.758,2.806v10.869h-1.758v-15.85H773.88z"/>
	<path class="st1" d="M808.125,520.998c-0.176-0.498-0.288-1.235-0.337-2.212c-0.615,0.801-1.398,1.418-2.351,1.853
		s-1.961,0.652-3.025,0.652c-1.523,0-2.756-0.425-3.698-1.274s-1.414-1.924-1.414-3.223c0-1.543,0.642-2.764,1.926-3.662
		s3.073-1.348,5.368-1.348h3.179v-1.802c0-1.133-0.349-2.024-1.047-2.674s-1.717-0.974-3.055-0.974
		c-1.221,0-2.231,0.312-3.032,0.938c-0.801,0.625-1.201,1.377-1.201,2.256l-1.758-0.015c0-1.26,0.586-2.352,1.758-3.274
		s2.612-1.384,4.321-1.384c1.768,0,3.162,0.441,4.183,1.325s1.545,2.117,1.574,3.699v7.5c0,1.533,0.161,2.681,0.483,3.442v0.176
		H808.125z M802.617,519.738c1.172,0,2.22-0.283,3.143-0.85s1.594-1.323,2.014-2.271v-3.486h-3.135
		c-1.748,0.02-3.115,0.339-4.101,0.959c-0.986,0.62-1.479,1.473-1.479,2.557c0,0.889,0.33,1.626,0.989,2.212
		S801.562,519.738,802.617,519.738z"/>
	<path class="st1" d="M815.109,505.148l0.059,2.71c0.596-0.977,1.338-1.722,2.227-2.234s1.87-0.769,2.944-0.769
		c1.699,0,2.964,0.479,3.794,1.436s1.25,2.393,1.26,4.307v10.4h-1.743v-10.415c-0.01-1.416-0.31-2.471-0.9-3.164
		s-1.536-1.04-2.835-1.04c-1.084,0-2.043,0.339-2.878,1.018s-1.453,1.595-1.854,2.747v10.854h-1.743v-15.85H815.109z"/>
	<path class="st1" d="M828.466,512.927c0-2.461,0.55-4.422,1.648-5.882s2.59-2.189,4.475-2.189c2.139,0,3.77,0.845,4.893,2.534
		v-8.892h1.743v22.5h-1.641l-0.073-2.109c-1.123,1.602-2.773,2.402-4.951,2.402c-1.826,0-3.298-0.735-4.416-2.205
		s-1.678-3.454-1.678-5.954V512.927z M830.238,513.234c0,2.021,0.405,3.615,1.216,4.782s1.953,1.751,3.428,1.751
		c2.158,0,3.691-0.952,4.6-2.856v-7.441c-0.908-2.061-2.432-3.091-4.57-3.091c-1.475,0-2.622,0.578-3.442,1.735
		S830.238,510.979,830.238,513.234z"/>
	<path class="st1" d="M855.094,520.998c-0.176-0.498-0.288-1.235-0.337-2.212c-0.615,0.801-1.398,1.418-2.352,1.853
		c-0.951,0.435-1.96,0.652-3.024,0.652c-1.523,0-2.757-0.425-3.698-1.274c-0.943-0.85-1.414-1.924-1.414-3.223
		c0-1.543,0.642-2.764,1.926-3.662s3.074-1.348,5.369-1.348h3.179v-1.802c0-1.133-0.35-2.024-1.048-2.674s-1.716-0.974-3.054-0.974
		c-1.221,0-2.231,0.312-3.032,0.938s-1.201,1.377-1.201,2.256l-1.758-0.015c0-1.26,0.586-2.352,1.758-3.274s2.612-1.384,4.321-1.384
		c1.768,0,3.161,0.441,4.183,1.325c1.02,0.884,1.545,2.117,1.574,3.699v7.5c0,1.533,0.161,2.681,0.483,3.442v0.176H855.094z
		 M849.586,519.738c1.172,0,2.22-0.283,3.142-0.85c0.924-0.566,1.595-1.323,2.015-2.271v-3.486h-3.135
		c-1.748,0.02-3.115,0.339-4.102,0.959s-1.479,1.473-1.479,2.557c0,0.889,0.33,1.626,0.988,2.212
		C847.675,519.445,848.531,519.738,849.586,519.738z"/>
	<path class="st1" d="M863.133,501.091v4.058h3.281v1.436h-3.281v10.573c0,0.88,0.158,1.535,0.477,1.965
		c0.316,0.431,0.847,0.646,1.589,0.646c0.293,0,0.767-0.049,1.421-0.146l0.073,1.423c-0.459,0.164-1.084,0.247-1.875,0.247
		c-1.201,0-2.075-0.35-2.622-1.048s-0.82-1.726-0.82-3.083v-10.576h-2.915v-1.436h2.915v-4.058H863.133z"/>
	<path class="st1" d="M875.435,521.291c-1.348,0-2.566-0.332-3.655-0.996s-1.936-1.59-2.541-2.776s-0.908-2.517-0.908-3.991v-0.63
		c0-1.523,0.295-2.896,0.887-4.116c0.59-1.221,1.413-2.181,2.468-2.879s2.197-1.047,3.428-1.047c1.924,0,3.45,0.656,4.577,1.97
		c1.129,1.313,1.692,3.108,1.692,5.384v0.981h-11.309v0.337c0,1.797,0.515,3.293,1.546,4.489c1.029,1.196,2.326,1.795,3.889,1.795
		c0.938,0,1.766-0.171,2.482-0.513c0.719-0.342,1.37-0.889,1.956-1.641l1.099,0.835
		C879.756,520.358,877.886,521.291,875.435,521.291z M875.112,506.35c-1.318,0-2.43,0.483-3.333,1.45s-1.452,2.266-1.647,3.896
		h9.507v-0.19c-0.049-1.523-0.483-2.764-1.304-3.721S876.44,506.35,875.112,506.35z"/>
	<path class="st1" d="M893.537,516.97c0-0.869-0.35-1.567-1.047-2.095c-0.699-0.527-1.751-0.94-3.157-1.238s-2.497-0.64-3.274-1.025
		c-0.775-0.386-1.353-0.856-1.729-1.413s-0.563-1.23-0.563-2.021c0-1.25,0.522-2.283,1.567-3.099s2.383-1.223,4.014-1.223
		c1.768,0,3.186,0.437,4.256,1.311c1.068,0.874,1.604,2.015,1.604,3.421h-1.758c0-0.928-0.389-1.699-1.164-2.314
		c-0.777-0.615-1.756-0.923-2.938-0.923c-1.152,0-2.078,0.256-2.775,0.769c-0.699,0.513-1.048,1.18-1.048,2
		c0,0.791,0.29,1.403,0.872,1.838c0.58,0.435,1.641,0.833,3.178,1.194c1.539,0.361,2.69,0.747,3.457,1.157s1.336,0.903,1.707,1.479
		s0.557,1.274,0.557,2.095c0,1.338-0.54,2.407-1.619,3.208s-2.487,1.201-4.226,1.201c-1.846,0-3.343-0.447-4.489-1.341
		c-1.148-0.894-1.722-2.023-1.722-3.391h1.758c0.068,1.025,0.5,1.823,1.296,2.395s1.849,0.857,3.157,0.857
		c1.221,0,2.207-0.269,2.959-0.806S893.537,517.79,893.537,516.97z"/>
	<path class="st1" d="M898.119,524.982l-1.04-0.762c0.889-1.191,1.348-2.427,1.377-3.706v-2.271h1.714v1.831
		C900.17,522.106,899.486,523.742,898.119,524.982z"/>
	<path class="st1" d="M920.027,520.998c-0.176-0.498-0.288-1.235-0.337-2.212c-0.615,0.801-1.398,1.418-2.352,1.853
		c-0.951,0.435-1.96,0.652-3.024,0.652c-1.523,0-2.757-0.425-3.698-1.274c-0.943-0.85-1.414-1.924-1.414-3.223
		c0-1.543,0.642-2.764,1.926-3.662s3.074-1.348,5.369-1.348h3.179v-1.802c0-1.133-0.35-2.024-1.048-2.674s-1.716-0.974-3.054-0.974
		c-1.221,0-2.231,0.312-3.032,0.938s-1.201,1.377-1.201,2.256l-1.758-0.015c0-1.26,0.586-2.352,1.758-3.274s2.612-1.384,4.321-1.384
		c1.768,0,3.161,0.441,4.183,1.325c1.02,0.884,1.545,2.117,1.574,3.699v7.5c0,1.533,0.161,2.681,0.483,3.442v0.176H920.027z
		 M914.52,519.738c1.172,0,2.22-0.283,3.142-0.85c0.924-0.566,1.595-1.323,2.015-2.271v-3.486h-3.135
		c-1.748,0.02-3.115,0.339-4.102,0.959s-1.479,1.473-1.479,2.557c0,0.889,0.33,1.626,0.988,2.212
		C912.608,519.445,913.465,519.738,914.52,519.738z"/>
	<path class="st1" d="M927.012,505.148l0.059,2.71c0.596-0.977,1.338-1.722,2.227-2.234s1.87-0.769,2.944-0.769
		c1.699,0,2.964,0.479,3.794,1.436s1.25,2.393,1.26,4.307v10.4h-1.743v-10.415c-0.01-1.416-0.311-2.471-0.901-3.164
		s-1.535-1.04-2.834-1.04c-1.084,0-2.043,0.339-2.879,1.018c-0.834,0.679-1.452,1.595-1.853,2.747v10.854h-1.743v-15.85H927.012z"/>
	<path class="st1" d="M940.368,512.927c0-2.461,0.549-4.422,1.648-5.882c1.098-1.46,2.59-2.189,4.475-2.189
		c2.139,0,3.77,0.845,4.893,2.534v-8.892h1.743v22.5h-1.641l-0.073-2.109c-1.123,1.602-2.773,2.402-4.951,2.402
		c-1.826,0-3.299-0.735-4.416-2.205c-1.119-1.47-1.678-3.454-1.678-5.954V512.927z M942.141,513.234
		c0,2.021,0.405,3.615,1.216,4.782s1.953,1.751,3.428,1.751c2.158,0,3.691-0.952,4.6-2.856v-7.441
		c-0.908-2.061-2.432-3.091-4.57-3.091c-1.475,0-2.622,0.578-3.442,1.735S942.141,510.979,942.141,513.234z"/>
	<path class="st1" d="M966.261,501.091v4.058h3.281v1.436h-3.281v10.573c0,0.88,0.158,1.535,0.477,1.965
		c0.316,0.431,0.847,0.646,1.589,0.646c0.293,0,0.767-0.049,1.421-0.146l0.073,1.423c-0.459,0.164-1.084,0.247-1.875,0.247
		c-1.201,0-2.075-0.35-2.622-1.048s-0.82-1.726-0.82-3.083v-10.576h-2.915v-1.436h2.915v-4.058H966.261z"/>
	<path class="st1" d="M974.168,507.829c0.576-0.947,1.313-1.68,2.212-2.197s1.88-0.776,2.944-0.776c1.699,0,2.964,0.479,3.794,1.436
		s1.25,2.393,1.26,4.307v10.4h-1.743v-10.415c-0.01-1.416-0.311-2.471-0.901-3.164s-1.535-1.04-2.834-1.04
		c-1.084,0-2.043,0.339-2.879,1.018c-0.834,0.679-1.452,1.595-1.853,2.747v10.854h-1.743v-22.5h1.743V507.829z"/>
	<path class="st1" d="M994.277,521.291c-1.348,0-2.566-0.332-3.655-0.996s-1.936-1.59-2.541-2.776s-0.908-2.517-0.908-3.991v-0.63
		c0-1.523,0.295-2.896,0.887-4.116c0.59-1.221,1.413-2.181,2.468-2.879s2.197-1.047,3.428-1.047c1.924,0,3.45,0.656,4.577,1.97
		c1.129,1.313,1.692,3.108,1.692,5.384v0.981h-11.309v0.337c0,1.797,0.515,3.293,1.546,4.489c1.029,1.196,2.326,1.795,3.889,1.795
		c0.938,0,1.766-0.171,2.482-0.513c0.719-0.342,1.37-0.889,1.956-1.641l1.099,0.835
		C998.599,520.358,996.729,521.291,994.277,521.291z M993.955,506.35c-1.318,0-2.43,0.483-3.333,1.45s-1.452,2.266-1.647,3.896
		h9.507v-0.19c-0.049-1.523-0.483-2.764-1.304-3.721S995.283,506.35,993.955,506.35z"/>
	<path class="st1" d="M193.98,548.927c0-2.461,0.549-4.422,1.648-5.882s2.59-2.189,4.475-2.189c2.139,0,3.77,0.845,4.893,2.534
		v-8.892h1.743v22.5h-1.641l-0.073-2.109c-1.123,1.602-2.773,2.402-4.951,2.402c-1.826,0-3.298-0.735-4.417-2.205
		s-1.677-3.454-1.677-5.954V548.927z M195.753,549.234c0,2.021,0.405,3.615,1.216,4.782s1.953,1.751,3.428,1.751
		c2.158,0,3.691-0.952,4.6-2.856v-7.441c-0.908-2.061-2.432-3.091-4.57-3.091c-1.475,0-2.622,0.578-3.442,1.735
		S195.753,546.979,195.753,549.234z"/>
	<path class="st1" d="M220.608,556.998c-0.176-0.498-0.288-1.235-0.337-2.212c-0.615,0.801-1.399,1.418-2.351,1.853
		s-1.96,0.652-3.025,0.652c-1.523,0-2.756-0.425-3.699-1.274s-1.414-1.924-1.414-3.223c0-1.543,0.642-2.764,1.926-3.662
		s3.074-1.348,5.369-1.348h3.179v-1.802c0-1.133-0.349-2.024-1.047-2.674s-1.716-0.974-3.054-0.974
		c-1.221,0-2.231,0.312-3.032,0.938s-1.201,1.377-1.201,2.256l-1.758-0.015c0-1.26,0.586-2.352,1.758-3.274s2.612-1.384,4.321-1.384
		c1.768,0,3.162,0.441,4.182,1.325s1.545,2.117,1.575,3.699v7.5c0,1.533,0.161,2.681,0.483,3.442v0.176H220.608z M215.101,555.738
		c1.172,0,2.219-0.283,3.142-0.85s1.594-1.323,2.014-2.271v-3.486h-3.135c-1.748,0.02-3.115,0.339-4.102,0.959
		s-1.479,1.473-1.479,2.557c0,0.889,0.33,1.626,0.989,2.212S214.046,555.738,215.101,555.738z"/>
	<path class="st1" d="M230.728,554.479l4.629-13.33h1.89l-6.768,18.545l-0.352,0.82c-0.869,1.924-2.212,2.886-4.028,2.886
		c-0.42,0-0.869-0.068-1.348-0.205l-0.015-1.45l0.908,0.088c0.859,0,1.555-0.213,2.087-0.638s0.984-1.154,1.355-2.189l0.776-2.139
		l-5.977-15.718h1.919L230.728,554.479z"/>
	<path class="st1" d="M244.655,548.326h-7.017v-1.479h7.017V548.326z"/>
	<path class="st1" d="M249.765,537.091v4.058h3.281v1.436h-3.281v10.573c0,0.88,0.159,1.535,0.476,1.965
		c0.317,0.431,0.847,0.646,1.589,0.646c0.293,0,0.767-0.049,1.421-0.146l0.073,1.423c-0.459,0.164-1.084,0.247-1.875,0.247
		c-1.201,0-2.075-0.35-2.622-1.048s-0.82-1.726-0.82-3.083v-10.576h-2.915v-1.436h2.915v-4.058H249.765z"/>
	<path class="st1" d="M254.669,548.839c0-1.523,0.295-2.896,0.886-4.116s1.426-2.171,2.505-2.85s2.302-1.018,3.669-1.018
		c2.109,0,3.818,0.739,5.127,2.219s1.963,3.44,1.963,5.882v0.366c0,1.533-0.295,2.912-0.886,4.138s-1.423,2.171-2.498,2.835
		s-2.3,0.996-3.677,0.996c-2.1,0-3.806-0.74-5.12-2.22s-1.97-3.439-1.97-5.881V548.839z M256.427,549.322
		c0,1.895,0.491,3.449,1.472,4.665s2.268,1.824,3.86,1.824c1.582,0,2.864-0.608,3.845-1.824s1.472-2.819,1.472-4.812v-0.337
		c0-1.211-0.225-2.319-0.674-3.325s-1.079-1.785-1.89-2.337s-1.738-0.827-2.783-0.827c-1.562,0-2.837,0.612-3.823,1.838
		s-1.479,2.83-1.479,4.812V549.322z"/>
	<path class="st1" d="M277.137,548.326h-7.017v-1.479h7.017V548.326z"/>
	<path class="st1" d="M278.818,548.927c0-2.461,0.549-4.422,1.648-5.882s2.59-2.189,4.475-2.189c2.139,0,3.77,0.845,4.893,2.534
		v-8.892h1.743v22.5h-1.641l-0.073-2.109c-1.123,1.602-2.773,2.402-4.951,2.402c-1.826,0-3.298-0.735-4.417-2.205
		s-1.677-3.454-1.677-5.954V548.927z M280.591,549.234c0,2.021,0.405,3.615,1.216,4.782s1.953,1.751,3.428,1.751
		c2.158,0,3.691-0.952,4.6-2.856v-7.441c-0.908-2.061-2.432-3.091-4.57-3.091c-1.475,0-2.622,0.578-3.442,1.735
		S280.591,546.979,280.591,549.234z"/>
	<path class="st1" d="M305.446,556.998c-0.176-0.498-0.288-1.235-0.337-2.212c-0.615,0.801-1.399,1.418-2.351,1.853
		s-1.96,0.652-3.025,0.652c-1.523,0-2.756-0.425-3.699-1.274s-1.414-1.924-1.414-3.223c0-1.543,0.642-2.764,1.926-3.662
		s3.074-1.348,5.369-1.348h3.179v-1.802c0-1.133-0.349-2.024-1.047-2.674s-1.716-0.974-3.054-0.974
		c-1.221,0-2.231,0.312-3.032,0.938s-1.201,1.377-1.201,2.256l-1.758-0.015c0-1.26,0.586-2.352,1.758-3.274s2.612-1.384,4.321-1.384
		c1.768,0,3.162,0.441,4.182,1.325s1.545,2.117,1.575,3.699v7.5c0,1.533,0.161,2.681,0.483,3.442v0.176H305.446z M299.938,555.738
		c1.172,0,2.219-0.283,3.142-0.85s1.594-1.323,2.014-2.271v-3.486h-3.135c-1.748,0.02-3.115,0.339-4.102,0.959
		s-1.479,1.473-1.479,2.557c0,0.889,0.33,1.626,0.989,2.212S298.884,555.738,299.938,555.738z"/>
	<path class="st1" d="M315.565,554.479l4.629-13.33h1.89l-6.768,18.545l-0.352,0.82c-0.869,1.924-2.212,2.886-4.028,2.886
		c-0.42,0-0.869-0.068-1.348-0.205l-0.015-1.45l0.908,0.088c0.859,0,1.555-0.213,2.087-0.638s0.984-1.154,1.355-2.189l0.776-2.139
		l-5.977-15.718h1.919L315.565,554.479z"/>
	<path class="st1" d="M336.448,555.812c1.221,0,2.244-0.345,3.069-1.033s1.272-1.579,1.34-2.673h1.685
		c-0.049,0.967-0.352,1.848-0.908,2.644s-1.296,1.419-2.219,1.868s-1.912,0.674-2.966,0.674c-2.08,0-3.728-0.723-4.944-2.168
		s-1.824-3.389-1.824-5.83v-0.527c0-1.562,0.273-2.944,0.82-4.146s1.331-2.129,2.351-2.783s2.214-0.981,3.582-0.981
		c1.738,0,3.171,0.518,4.299,1.553s1.731,2.397,1.809,4.087h-1.685c-0.078-1.24-0.525-2.241-1.34-3.003s-1.843-1.143-3.083-1.143
		c-1.582,0-2.81,0.571-3.684,1.714s-1.311,2.744-1.311,4.805v0.513c0,2.021,0.437,3.599,1.311,4.731
		S334.856,555.812,336.448,555.812z"/>
	<path class="st1" d="M347.036,543.829c0.576-0.947,1.313-1.68,2.212-2.197s1.88-0.776,2.944-0.776c1.699,0,2.964,0.479,3.794,1.436
		s1.25,2.393,1.26,4.307v10.4h-1.743v-10.415c-0.01-1.416-0.31-2.471-0.901-3.164s-1.536-1.04-2.834-1.04
		c-1.084,0-2.043,0.339-2.878,1.018s-1.453,1.595-1.853,2.747v10.854h-1.743v-22.5h1.743V543.829z"/>
	<path class="st1" d="M371.013,556.998c-0.176-0.498-0.288-1.235-0.337-2.212c-0.615,0.801-1.399,1.418-2.351,1.853
		s-1.96,0.652-3.025,0.652c-1.523,0-2.756-0.425-3.699-1.274s-1.414-1.924-1.414-3.223c0-1.543,0.642-2.764,1.926-3.662
		s3.074-1.348,5.369-1.348h3.179v-1.802c0-1.133-0.349-2.024-1.047-2.674s-1.716-0.974-3.054-0.974
		c-1.221,0-2.231,0.312-3.032,0.938s-1.201,1.377-1.201,2.256l-1.758-0.015c0-1.26,0.586-2.352,1.758-3.274s2.612-1.384,4.321-1.384
		c1.768,0,3.162,0.441,4.182,1.325s1.545,2.117,1.575,3.699v7.5c0,1.533,0.161,2.681,0.483,3.442v0.176H371.013z M365.505,555.738
		c1.172,0,2.219-0.283,3.142-0.85s1.594-1.323,2.014-2.271v-3.486h-3.135c-1.748,0.02-3.115,0.339-4.102,0.959
		s-1.479,1.473-1.479,2.557c0,0.889,0.33,1.626,0.989,2.212S364.45,555.738,365.505,555.738z"/>
	<path class="st1" d="M378.29,556.998h-1.758v-22.5h1.758V556.998z"/>
	<path class="st1" d="M384.264,556.998h-1.758v-22.5h1.758V556.998z"/>
	<path class="st1" d="M394.412,557.291c-1.348,0-2.566-0.332-3.655-0.996s-1.936-1.59-2.542-2.776s-0.908-2.517-0.908-3.991v-0.63
		c0-1.523,0.295-2.896,0.886-4.116s1.414-2.181,2.468-2.879s2.197-1.047,3.428-1.047c1.924,0,3.45,0.656,4.578,1.97
		s1.692,3.108,1.692,5.384v0.981h-11.309v0.337c0,1.797,0.515,3.293,1.545,4.489s2.327,1.795,3.889,1.795
		c0.938,0,1.765-0.171,2.483-0.513s1.37-0.889,1.956-1.641l1.099,0.835C398.733,556.358,396.863,557.291,394.412,557.291z
		 M394.09,542.35c-1.318,0-2.429,0.483-3.333,1.45s-1.453,2.266-1.648,3.896h9.507v-0.19c-0.049-1.523-0.483-2.764-1.304-3.721
		S395.418,542.35,394.09,542.35z"/>
	<path class="st1" d="M404.692,541.148l0.059,2.71c0.596-0.977,1.338-1.722,2.227-2.234s1.87-0.769,2.944-0.769
		c1.699,0,2.964,0.479,3.794,1.436s1.25,2.393,1.26,4.307v10.4h-1.743v-10.415c-0.01-1.416-0.31-2.471-0.901-3.164
		s-1.536-1.04-2.834-1.04c-1.084,0-2.043,0.339-2.878,1.018s-1.453,1.595-1.853,2.747v10.854h-1.743v-15.85H404.692z"/>
	<path class="st1" d="M418.049,548.927c0-2.48,0.549-4.446,1.648-5.896s2.59-2.175,4.475-2.175c2.158,0,3.799,0.859,4.922,2.578
		l0.088-2.285h1.641v15.527c0,2.041-0.571,3.657-1.714,4.849s-2.69,1.787-4.644,1.787c-1.104,0-2.156-0.247-3.157-0.74
		s-1.79-1.149-2.366-1.97l0.981-1.055c1.24,1.523,2.715,2.285,4.424,2.285c1.465,0,2.607-0.433,3.428-1.297s1.245-2.062,1.274-3.596
		v-1.992c-1.123,1.562-2.759,2.344-4.907,2.344c-1.836,0-3.311-0.732-4.424-2.197s-1.67-3.442-1.67-5.933V548.927z M419.821,549.234
		c0,2.021,0.405,3.615,1.216,4.782s1.953,1.751,3.428,1.751c2.158,0,3.687-0.967,4.585-2.9v-7.368
		c-0.41-1.016-1.001-1.79-1.772-2.322s-1.699-0.798-2.783-0.798c-1.475,0-2.622,0.578-3.442,1.735S419.821,546.979,419.821,549.234z
		"/>
	<path class="st1" d="M440.78,557.291c-1.348,0-2.566-0.332-3.655-0.996s-1.936-1.59-2.542-2.776s-0.908-2.517-0.908-3.991v-0.63
		c0-1.523,0.295-2.896,0.886-4.116s1.414-2.181,2.468-2.879s2.197-1.047,3.428-1.047c1.924,0,3.45,0.656,4.578,1.97
		s1.692,3.108,1.692,5.384v0.981h-11.309v0.337c0,1.797,0.515,3.293,1.545,4.489s2.327,1.795,3.889,1.795
		c0.938,0,1.765-0.171,2.483-0.513s1.37-0.889,1.956-1.641l1.099,0.835C445.102,556.358,443.231,557.291,440.78,557.291z
		 M440.458,542.35c-1.318,0-2.429,0.483-3.333,1.45s-1.453,2.266-1.648,3.896h9.507v-0.19c-0.049-1.523-0.483-2.764-1.304-3.721
		S441.786,542.35,440.458,542.35z"/>
	<path class="st1" d="M458.883,552.97c0-0.869-0.349-1.567-1.047-2.095s-1.75-0.94-3.157-1.238s-2.498-0.64-3.274-1.025
		s-1.353-0.856-1.729-1.413s-0.564-1.23-0.564-2.021c0-1.25,0.522-2.283,1.567-3.099s2.383-1.223,4.014-1.223
		c1.768,0,3.186,0.437,4.255,1.311s1.604,2.015,1.604,3.421h-1.758c0-0.928-0.388-1.699-1.165-2.314s-1.755-0.923-2.937-0.923
		c-1.152,0-2.078,0.256-2.776,0.769s-1.047,1.18-1.047,2c0,0.791,0.291,1.403,0.872,1.838s1.641,0.833,3.179,1.194
		s2.69,0.747,3.457,1.157s1.335,0.903,1.707,1.479s0.557,1.274,0.557,2.095c0,1.338-0.54,2.407-1.619,3.208
		s-2.488,1.201-4.226,1.201c-1.846,0-3.342-0.447-4.49-1.341s-1.721-2.023-1.721-3.391h1.758c0.068,1.025,0.5,1.823,1.296,2.395
		s1.848,0.857,3.157,0.857c1.221,0,2.207-0.269,2.959-0.806S458.883,553.79,458.883,552.97z"/>
	<path class="st1" d="M469.409,548.839c0-1.523,0.295-2.896,0.886-4.116s1.426-2.171,2.505-2.85s2.302-1.018,3.669-1.018
		c2.109,0,3.818,0.739,5.127,2.219s1.963,3.44,1.963,5.882v0.366c0,1.533-0.295,2.912-0.886,4.138s-1.423,2.171-2.498,2.835
		s-2.3,0.996-3.677,0.996c-2.1,0-3.806-0.74-5.12-2.22s-1.97-3.439-1.97-5.881V548.839z M471.167,549.322
		c0,1.895,0.491,3.449,1.472,4.665s2.268,1.824,3.86,1.824c1.582,0,2.864-0.608,3.845-1.824s1.472-2.819,1.472-4.812v-0.337
		c0-1.211-0.225-2.319-0.674-3.325s-1.079-1.785-1.89-2.337s-1.738-0.827-2.783-0.827c-1.562,0-2.837,0.612-3.823,1.838
		s-1.479,2.83-1.479,4.812V549.322z"/>
	<path class="st1" d="M487.688,556.998v-14.414h-2.622v-1.436h2.622v-1.919c0-1.621,0.413-2.866,1.238-3.735s1.975-1.304,3.45-1.304
		c0.664,0,1.284,0.082,1.86,0.246l-0.132,1.453c-0.488-0.117-1.021-0.176-1.597-0.176c-0.967,0-1.719,0.301-2.256,0.903
		c-0.537,0.602-0.806,1.456-0.806,2.562v1.969h3.779v1.436h-3.779v14.414H487.688z"/>
	<path class="st1" d="M509.479,542.643c-0.371-0.068-0.767-0.103-1.187-0.103c-1.094,0-2.019,0.305-2.776,0.915
		s-1.296,1.497-1.619,2.659v10.884h-1.743v-15.85h1.714l0.029,2.52c0.928-1.875,2.417-2.812,4.468-2.812
		c0.488,0,0.874,0.063,1.157,0.19L509.479,542.643z"/>
	<path class="st1" d="M521.692,554.991c-1.055,1.533-2.739,2.3-5.054,2.3c-1.689,0-2.974-0.491-3.853-1.473
		s-1.328-2.434-1.348-4.357v-10.312h1.743v10.093c0,3.018,1.221,4.526,3.662,4.526c2.539,0,4.146-1.05,4.819-3.149v-11.47h1.758
		v15.85h-1.699L521.692,554.991z"/>
	<path class="st1" d="M528.896,541.148l0.059,2.71c0.596-0.977,1.338-1.722,2.227-2.234s1.87-0.769,2.944-0.769
		c1.699,0,2.964,0.479,3.794,1.436s1.25,2.393,1.26,4.307v10.4h-1.743v-10.415c-0.01-1.416-0.31-2.471-0.901-3.164
		s-1.536-1.04-2.834-1.04c-1.084,0-2.043,0.339-2.878,1.018s-1.453,1.595-1.853,2.747v10.854h-1.743v-15.85H528.896z"/>
	<path class="st1" d="M544.626,541.148l0.059,2.71c0.596-0.977,1.338-1.722,2.227-2.234s1.87-0.769,2.944-0.769
		c1.699,0,2.964,0.479,3.794,1.436s1.25,2.393,1.26,4.307v10.4h-1.743v-10.415c-0.01-1.416-0.31-2.471-0.901-3.164
		s-1.536-1.04-2.834-1.04c-1.084,0-2.043,0.339-2.878,1.018s-1.453,1.595-1.853,2.747v10.854h-1.743v-15.85H544.626z"/>
	<path class="st1" d="M558.583,536.57c0-0.33,0.107-0.608,0.322-0.837c0.215-0.228,0.508-0.342,0.879-0.342s0.667,0.114,0.886,0.342
		c0.22,0.229,0.33,0.507,0.33,0.837s-0.11,0.606-0.33,0.83s-0.515,0.335-0.886,0.335s-0.664-0.111-0.879-0.335
		S558.583,536.9,558.583,536.57z M560.648,556.998h-1.758v-15.85h1.758V556.998z"/>
	<path class="st1" d="M566.329,541.148l0.059,2.71c0.596-0.977,1.338-1.722,2.227-2.234s1.87-0.769,2.944-0.769
		c1.699,0,2.964,0.479,3.794,1.436s1.25,2.393,1.26,4.307v10.4h-1.743v-10.415c-0.01-1.416-0.31-2.471-0.901-3.164
		s-1.536-1.04-2.834-1.04c-1.084,0-2.043,0.339-2.878,1.018s-1.453,1.595-1.853,2.747v10.854h-1.743v-15.85H566.329z"/>
	<path class="st1" d="M579.686,548.927c0-2.48,0.549-4.446,1.648-5.896s2.59-2.175,4.475-2.175c2.158,0,3.799,0.859,4.922,2.578
		l0.088-2.285h1.641v15.527c0,2.041-0.571,3.657-1.714,4.849s-2.69,1.787-4.644,1.787c-1.104,0-2.156-0.247-3.157-0.74
		s-1.79-1.149-2.366-1.97l0.981-1.055c1.24,1.523,2.715,2.285,4.424,2.285c1.465,0,2.607-0.433,3.428-1.297s1.245-2.062,1.274-3.596
		v-1.992c-1.123,1.562-2.759,2.344-4.907,2.344c-1.836,0-3.311-0.732-4.424-2.197s-1.67-3.442-1.67-5.933V548.927z M581.458,549.234
		c0,2.021,0.405,3.615,1.216,4.782s1.953,1.751,3.428,1.751c2.158,0,3.687-0.967,4.585-2.9v-7.368
		c-0.41-1.016-1.001-1.79-1.772-2.322s-1.699-0.798-2.783-0.798c-1.475,0-2.622,0.578-3.442,1.735S581.458,546.979,581.458,549.234z
		"/>
	<path class="st1" d="M612.829,556.998c-0.176-0.498-0.288-1.235-0.337-2.212c-0.615,0.801-1.399,1.418-2.351,1.853
		s-1.96,0.652-3.025,0.652c-1.523,0-2.756-0.425-3.699-1.274s-1.414-1.924-1.414-3.223c0-1.543,0.642-2.764,1.926-3.662
		s3.074-1.348,5.369-1.348h3.179v-1.802c0-1.133-0.349-2.024-1.047-2.674s-1.716-0.974-3.054-0.974
		c-1.221,0-2.231,0.312-3.032,0.938s-1.201,1.377-1.201,2.256l-1.758-0.015c0-1.26,0.586-2.352,1.758-3.274s2.612-1.384,4.321-1.384
		c1.768,0,3.162,0.441,4.182,1.325s1.545,2.117,1.575,3.699v7.5c0,1.533,0.161,2.681,0.483,3.442v0.176H612.829z M607.321,555.738
		c1.172,0,2.219-0.283,3.142-0.85s1.594-1.323,2.014-2.271v-3.486h-3.135c-1.748,0.02-3.115,0.339-4.102,0.959
		s-1.479,1.473-1.479,2.557c0,0.889,0.33,1.626,0.989,2.212S606.267,555.738,607.321,555.738z"/>
	<path class="st1" d="M634.181,552.97c0-0.869-0.349-1.567-1.047-2.095s-1.75-0.94-3.157-1.238s-2.498-0.64-3.274-1.025
		s-1.353-0.856-1.729-1.413s-0.564-1.23-0.564-2.021c0-1.25,0.522-2.283,1.567-3.099s2.383-1.223,4.014-1.223
		c1.768,0,3.186,0.437,4.255,1.311s1.604,2.015,1.604,3.421h-1.758c0-0.928-0.388-1.699-1.165-2.314s-1.755-0.923-2.937-0.923
		c-1.152,0-2.078,0.256-2.776,0.769s-1.047,1.18-1.047,2c0,0.791,0.291,1.403,0.872,1.838s1.641,0.833,3.179,1.194
		s2.69,0.747,3.457,1.157s1.335,0.903,1.707,1.479s0.557,1.274,0.557,2.095c0,1.338-0.54,2.407-1.619,3.208
		s-2.488,1.201-4.226,1.201c-1.846,0-3.342-0.447-4.49-1.341s-1.721-2.023-1.721-3.391h1.758c0.068,1.025,0.5,1.823,1.296,2.395
		s1.848,0.857,3.157,0.857c1.221,0,2.207-0.269,2.959-0.806S634.181,553.79,634.181,552.97z"/>
	<path class="st1" d="M644.988,555.812c1.221,0,2.244-0.345,3.069-1.033s1.272-1.579,1.34-2.673h1.685
		c-0.049,0.967-0.352,1.848-0.908,2.644s-1.296,1.419-2.219,1.868s-1.912,0.674-2.966,0.674c-2.08,0-3.728-0.723-4.944-2.168
		s-1.824-3.389-1.824-5.83v-0.527c0-1.562,0.273-2.944,0.82-4.146s1.331-2.129,2.351-2.783s2.214-0.981,3.582-0.981
		c1.738,0,3.171,0.518,4.299,1.553s1.731,2.397,1.809,4.087h-1.685c-0.078-1.24-0.525-2.241-1.34-3.003s-1.843-1.143-3.083-1.143
		c-1.582,0-2.81,0.571-3.684,1.714s-1.311,2.744-1.311,4.805v0.513c0,2.021,0.437,3.599,1.311,4.731
		S643.396,555.812,644.988,555.812z"/>
	<path class="st1" d="M655.576,543.829c0.576-0.947,1.313-1.68,2.212-2.197s1.88-0.776,2.944-0.776c1.699,0,2.964,0.479,3.794,1.436
		s1.25,2.393,1.26,4.307v10.4h-1.743v-10.415c-0.01-1.416-0.31-2.471-0.901-3.164s-1.536-1.04-2.834-1.04
		c-1.084,0-2.043,0.339-2.878,1.018s-1.453,1.595-1.853,2.747v10.854h-1.743v-22.5h1.743V543.829z"/>
	<path class="st1" d="M668.581,548.839c0-1.523,0.295-2.896,0.886-4.116s1.426-2.171,2.505-2.85s2.302-1.018,3.669-1.018
		c2.109,0,3.818,0.739,5.127,2.219s1.963,3.44,1.963,5.882v0.366c0,1.533-0.295,2.912-0.886,4.138s-1.423,2.171-2.498,2.835
		s-2.3,0.996-3.677,0.996c-2.1,0-3.806-0.74-5.12-2.22s-1.97-3.439-1.97-5.881V548.839z M670.339,549.322
		c0,1.895,0.491,3.449,1.472,4.665s2.268,1.824,3.86,1.824c1.582,0,2.864-0.608,3.845-1.824s1.472-2.819,1.472-4.812v-0.337
		c0-1.211-0.225-2.319-0.674-3.325s-1.079-1.785-1.89-2.337s-1.738-0.827-2.783-0.827c-1.562,0-2.837,0.612-3.823,1.838
		s-1.479,2.83-1.479,4.812V549.322z"/>
	<path class="st1" d="M684.633,548.839c0-1.523,0.295-2.896,0.886-4.116s1.426-2.171,2.505-2.85s2.302-1.018,3.669-1.018
		c2.109,0,3.818,0.739,5.127,2.219s1.963,3.44,1.963,5.882v0.366c0,1.533-0.295,2.912-0.886,4.138s-1.423,2.171-2.498,2.835
		s-2.3,0.996-3.677,0.996c-2.1,0-3.806-0.74-5.12-2.22s-1.97-3.439-1.97-5.881V548.839z M686.391,549.322
		c0,1.895,0.491,3.449,1.472,4.665s2.268,1.824,3.86,1.824c1.582,0,2.864-0.608,3.845-1.824s1.472-2.819,1.472-4.812v-0.337
		c0-1.211-0.225-2.319-0.674-3.325s-1.079-1.785-1.89-2.337s-1.738-0.827-2.783-0.827c-1.562,0-2.837,0.612-3.823,1.838
		s-1.479,2.83-1.479,4.812V549.322z"/>
	<path class="st1" d="M703.614,556.998h-1.758v-22.5h1.758V556.998z"/>
	<path class="st1" d="M720.029,555.812c1.221,0,2.244-0.345,3.069-1.033s1.272-1.579,1.34-2.673h1.685
		c-0.049,0.967-0.352,1.848-0.908,2.644s-1.296,1.419-2.219,1.868s-1.912,0.674-2.966,0.674c-2.08,0-3.728-0.723-4.944-2.168
		s-1.824-3.389-1.824-5.83v-0.527c0-1.562,0.273-2.944,0.82-4.146s1.331-2.129,2.351-2.783s2.214-0.981,3.582-0.981
		c1.738,0,3.171,0.518,4.299,1.553s1.731,2.397,1.809,4.087h-1.685c-0.078-1.24-0.525-2.241-1.34-3.003s-1.843-1.143-3.083-1.143
		c-1.582,0-2.81,0.571-3.684,1.714s-1.311,2.744-1.311,4.805v0.513c0,2.021,0.437,3.599,1.311,4.731
		S718.438,555.812,720.029,555.812z"/>
	<path class="st1" d="M727.907,548.839c0-1.523,0.295-2.896,0.886-4.116s1.426-2.171,2.505-2.85s2.302-1.018,3.669-1.018
		c2.109,0,3.818,0.739,5.127,2.219s1.963,3.44,1.963,5.882v0.366c0,1.533-0.295,2.912-0.886,4.138s-1.423,2.171-2.498,2.835
		s-2.3,0.996-3.677,0.996c-2.1,0-3.806-0.74-5.12-2.22s-1.97-3.439-1.97-5.881V548.839z M729.665,549.322
		c0,1.895,0.491,3.449,1.472,4.665s2.268,1.824,3.86,1.824c1.582,0,2.864-0.608,3.845-1.824s1.472-2.819,1.472-4.812v-0.337
		c0-1.211-0.225-2.319-0.674-3.325s-1.079-1.785-1.89-2.337s-1.738-0.827-2.783-0.827c-1.562,0-2.837,0.612-3.823,1.838
		s-1.479,2.83-1.479,4.812V549.322z"/>
	<path class="st1" d="M746.596,541.148l0.059,2.71c0.596-0.977,1.338-1.722,2.227-2.234s1.87-0.769,2.944-0.769
		c1.699,0,2.964,0.479,3.794,1.436s1.25,2.393,1.26,4.307v10.4h-1.743v-10.415c-0.01-1.416-0.31-2.471-0.901-3.164
		s-1.536-1.04-2.834-1.04c-1.084,0-2.043,0.339-2.878,1.018s-1.453,1.595-1.853,2.747v10.854h-1.743v-15.85H746.596z"/>
	<path class="st1" d="M770.147,552.97c0-0.869-0.349-1.567-1.047-2.095s-1.75-0.94-3.157-1.238s-2.498-0.64-3.274-1.025
		s-1.353-0.856-1.729-1.413s-0.564-1.23-0.564-2.021c0-1.25,0.522-2.283,1.567-3.099s2.383-1.223,4.014-1.223
		c1.768,0,3.186,0.437,4.255,1.311s1.604,2.015,1.604,3.421h-1.758c0-0.928-0.388-1.699-1.165-2.314s-1.755-0.923-2.937-0.923
		c-1.152,0-2.078,0.256-2.776,0.769s-1.047,1.18-1.047,2c0,0.791,0.291,1.403,0.872,1.838s1.641,0.833,3.179,1.194
		s2.69,0.747,3.457,1.157s1.335,0.903,1.707,1.479s0.557,1.274,0.557,2.095c0,1.338-0.54,2.407-1.619,3.208
		s-2.488,1.201-4.226,1.201c-1.846,0-3.342-0.447-4.49-1.341s-1.721-2.023-1.721-3.391h1.758c0.068,1.025,0.5,1.823,1.296,2.395
		s1.848,0.857,3.157,0.857c1.221,0,2.207-0.269,2.959-0.806S770.147,553.79,770.147,552.97z"/>
	<path class="st1" d="M777.82,537.091v4.058h3.281v1.436h-3.281v10.573c0,0.88,0.159,1.535,0.476,1.965
		c0.317,0.431,0.847,0.646,1.589,0.646c0.293,0,0.767-0.049,1.421-0.146l0.073,1.423c-0.459,0.164-1.084,0.247-1.875,0.247
		c-1.201,0-2.075-0.35-2.622-1.048s-0.82-1.726-0.82-3.083v-10.576h-2.915v-1.436h2.915v-4.058H777.82z"/>
	<path class="st1" d="M793.989,556.998c-0.176-0.498-0.288-1.235-0.337-2.212c-0.615,0.801-1.399,1.418-2.351,1.853
		s-1.96,0.652-3.025,0.652c-1.523,0-2.756-0.425-3.699-1.274s-1.414-1.924-1.414-3.223c0-1.543,0.642-2.764,1.926-3.662
		s3.074-1.348,5.369-1.348h3.179v-1.802c0-1.133-0.349-2.024-1.047-2.674s-1.716-0.974-3.054-0.974
		c-1.221,0-2.231,0.312-3.032,0.938s-1.201,1.377-1.201,2.256l-1.758-0.015c0-1.26,0.586-2.352,1.758-3.274s2.612-1.384,4.321-1.384
		c1.768,0,3.162,0.441,4.182,1.325s1.545,2.117,1.575,3.699v7.5c0,1.533,0.161,2.681,0.483,3.442v0.176H793.989z M788.481,555.738
		c1.172,0,2.219-0.283,3.142-0.85s1.594-1.323,2.014-2.271v-3.486h-3.135c-1.748,0.02-3.115,0.339-4.102,0.959
		s-1.479,1.473-1.479,2.557c0,0.889,0.33,1.626,0.989,2.212S787.427,555.738,788.481,555.738z"/>
	<path class="st1" d="M800.974,541.148l0.059,2.71c0.596-0.977,1.338-1.722,2.227-2.234s1.87-0.769,2.944-0.769
		c1.699,0,2.964,0.479,3.794,1.436s1.25,2.393,1.26,4.307v10.4h-1.743v-10.415c-0.01-1.416-0.311-2.471-0.901-3.164
		s-1.535-1.04-2.834-1.04c-1.084,0-2.044,0.339-2.879,1.018s-1.452,1.595-1.853,2.747v10.854h-1.743v-15.85H800.974z"/>
	<path class="st1" d="M817.758,537.091v4.058h3.281v1.436h-3.281v10.573c0,0.88,0.159,1.535,0.477,1.965
		c0.317,0.431,0.847,0.646,1.589,0.646c0.293,0,0.767-0.049,1.421-0.146l0.073,1.423c-0.459,0.164-1.084,0.247-1.875,0.247
		c-1.201,0-2.075-0.35-2.622-1.048s-0.82-1.726-0.82-3.083v-10.576h-2.915v-1.436H816v-4.058H817.758z"/>
	<path class="st1" d="M825.885,556.998h-1.758v-22.5h1.758V556.998z"/>
	<path class="st1" d="M834.92,554.479l4.629-13.33h1.89l-6.768,18.545l-0.352,0.82c-0.869,1.924-2.212,2.886-4.028,2.886
		c-0.42,0-0.869-0.068-1.348-0.205l-0.015-1.45l0.908,0.088c0.859,0,1.556-0.213,2.088-0.638s0.983-1.154,1.354-2.189l0.776-2.139
		l-5.977-15.718h1.919L834.92,554.479z"/>
	<path class="st1" d="M849.841,536.57c0-0.33,0.107-0.608,0.322-0.837c0.215-0.228,0.508-0.342,0.879-0.342s0.667,0.114,0.886,0.342
		c0.221,0.229,0.33,0.507,0.33,0.837s-0.109,0.606-0.33,0.83c-0.219,0.224-0.515,0.335-0.886,0.335s-0.664-0.111-0.879-0.335
		S849.841,536.9,849.841,536.57z M851.906,556.998h-1.758v-15.85h1.758V556.998z"/>
	<path class="st1" d="M857.587,541.148l0.059,2.71c0.596-0.977,1.338-1.722,2.227-2.234s1.87-0.769,2.944-0.769
		c1.699,0,2.964,0.479,3.794,1.436s1.25,2.393,1.26,4.307v10.4h-1.743v-10.415c-0.01-1.416-0.311-2.471-0.901-3.164
		s-1.535-1.04-2.834-1.04c-1.084,0-2.043,0.339-2.879,1.018c-0.834,0.679-1.452,1.595-1.853,2.747v10.854h-1.743v-15.85H857.587z"/>
	<path class="st1" d="M872.906,556.998v-14.414h-2.622v-1.436h2.622v-1.919c0-1.621,0.412-2.866,1.238-3.735
		c0.824-0.869,1.975-1.304,3.449-1.304c0.664,0,1.284,0.082,1.86,0.246l-0.132,1.453c-0.488-0.117-1.021-0.176-1.597-0.176
		c-0.967,0-1.719,0.301-2.256,0.903c-0.537,0.602-0.806,1.456-0.806,2.562v1.969h3.779v1.436h-3.779v14.414H872.906z"/>
	<path class="st1" d="M882.791,556.998h-1.758v-22.5h1.758V556.998z"/>
	<path class="st1" d="M896.997,554.991c-1.055,1.533-2.739,2.3-5.054,2.3c-1.689,0-2.974-0.491-3.853-1.473
		s-1.328-2.434-1.348-4.357v-10.312h1.743v10.093c0,3.018,1.221,4.526,3.662,4.526c2.539,0,4.146-1.05,4.819-3.149v-11.47h1.758
		v15.85h-1.699L896.997,554.991z"/>
	<path class="st1" d="M908.669,557.291c-1.348,0-2.566-0.332-3.655-0.996s-1.936-1.59-2.541-2.776s-0.908-2.517-0.908-3.991v-0.63
		c0-1.523,0.295-2.896,0.887-4.116c0.59-1.221,1.413-2.181,2.468-2.879s2.197-1.047,3.428-1.047c1.924,0,3.45,0.656,4.577,1.97
		c1.129,1.313,1.692,3.108,1.692,5.384v0.981h-11.309v0.337c0,1.797,0.515,3.293,1.546,4.489c1.029,1.196,2.326,1.795,3.889,1.795
		c0.938,0,1.766-0.171,2.482-0.513c0.719-0.342,1.37-0.889,1.956-1.641l1.099,0.835C912.99,556.358,911.12,557.291,908.669,557.291z
		 M908.347,542.35c-1.318,0-2.43,0.483-3.333,1.45s-1.452,2.266-1.647,3.896h9.507v-0.19c-0.049-1.523-0.483-2.764-1.304-3.721
		S909.675,542.35,908.347,542.35z"/>
	<path class="st1" d="M918.949,541.148l0.059,2.71c0.596-0.977,1.338-1.722,2.227-2.234s1.87-0.769,2.944-0.769
		c1.699,0,2.964,0.479,3.794,1.436s1.25,2.393,1.26,4.307v10.4h-1.743v-10.415c-0.01-1.416-0.311-2.471-0.901-3.164
		s-1.535-1.04-2.834-1.04c-1.084,0-2.043,0.339-2.879,1.018c-0.834,0.679-1.452,1.595-1.853,2.747v10.854h-1.743v-15.85H918.949z"/>
	<path class="st1" d="M938.868,555.812c1.221,0,2.243-0.345,3.068-1.033s1.272-1.579,1.341-2.673h1.685
		c-0.049,0.967-0.352,1.848-0.908,2.644s-1.297,1.419-2.219,1.868c-0.924,0.449-1.912,0.674-2.967,0.674
		c-2.08,0-3.729-0.723-4.943-2.168c-1.217-1.445-1.824-3.389-1.824-5.83v-0.527c0-1.562,0.273-2.944,0.82-4.146
		s1.33-2.129,2.352-2.783c1.02-0.654,2.214-0.981,3.581-0.981c1.738,0,3.171,0.518,4.3,1.553c1.127,1.035,1.73,2.397,1.809,4.087
		h-1.685c-0.078-1.24-0.525-2.241-1.341-3.003s-1.843-1.143-3.083-1.143c-1.582,0-2.811,0.571-3.685,1.714s-1.311,2.744-1.311,4.805
		v0.513c0,2.021,0.437,3.599,1.311,4.731S937.276,555.812,938.868,555.812z"/>
	<path class="st1" d="M953.851,557.291c-1.348,0-2.566-0.332-3.655-0.996s-1.936-1.59-2.541-2.776s-0.908-2.517-0.908-3.991v-0.63
		c0-1.523,0.295-2.896,0.887-4.116c0.59-1.221,1.413-2.181,2.468-2.879s2.197-1.047,3.428-1.047c1.924,0,3.45,0.656,4.577,1.97
		c1.129,1.313,1.692,3.108,1.692,5.384v0.981h-11.309v0.337c0,1.797,0.515,3.293,1.546,4.489c1.029,1.196,2.326,1.795,3.889,1.795
		c0.938,0,1.766-0.171,2.482-0.513c0.719-0.342,1.37-0.889,1.956-1.641l1.099,0.835
		C958.172,556.358,956.302,557.291,953.851,557.291z M953.528,542.35c-1.318,0-2.43,0.483-3.333,1.45s-1.452,2.266-1.647,3.896
		h9.507v-0.19c-0.049-1.523-0.483-2.764-1.304-3.721S954.856,542.35,953.528,542.35z"/>
	<path class="st1" d="M971.73,537.091v4.058h3.281v1.436h-3.281v10.573c0,0.88,0.158,1.535,0.477,1.965
		c0.316,0.431,0.847,0.646,1.589,0.646c0.293,0,0.767-0.049,1.421-0.146l0.073,1.423c-0.459,0.164-1.084,0.247-1.875,0.247
		c-1.201,0-2.075-0.35-2.622-1.048s-0.82-1.726-0.82-3.083v-10.576h-2.915v-1.436h2.915v-4.058H971.73z"/>
	<path class="st1" d="M979.638,543.829c0.576-0.947,1.313-1.68,2.212-2.197s1.88-0.776,2.944-0.776c1.699,0,2.964,0.479,3.794,1.436
		s1.25,2.393,1.26,4.307v10.4h-1.743v-10.415c-0.01-1.416-0.311-2.471-0.901-3.164s-1.535-1.04-2.834-1.04
		c-1.084,0-2.043,0.339-2.879,1.018c-0.834,0.679-1.452,1.595-1.853,2.747v10.854h-1.743v-22.5h1.743V543.829z"/>
	<path class="st1" d="M999.747,557.291c-1.348,0-2.566-0.332-3.655-0.996s-1.936-1.59-2.541-2.776s-0.908-2.517-0.908-3.991v-0.63
		c0-1.523,0.295-2.896,0.887-4.116c0.59-1.221,1.413-2.181,2.468-2.879s2.197-1.047,3.428-1.047c1.924,0,3.45,0.656,4.577,1.97
		c1.129,1.313,1.692,3.108,1.692,5.384v0.981h-11.309v0.337c0,1.797,0.515,3.293,1.546,4.489c1.029,1.196,2.326,1.795,3.889,1.795
		c0.938,0,1.766-0.171,2.482-0.513c0.719-0.342,1.37-0.889,1.956-1.641l1.099,0.835
		C1004.068,556.358,1002.198,557.291,999.747,557.291z M999.425,542.35c-1.318,0-2.43,0.483-3.333,1.45s-1.452,2.266-1.647,3.896
		h9.507v-0.19c-0.049-1.523-0.483-2.764-1.304-3.721S1000.753,542.35,999.425,542.35z"/>
	<path class="st1" d="M195.943,592.998v-14.414h-2.622v-1.436h2.622v-1.919c0-1.621,0.413-2.866,1.238-3.735s1.975-1.304,3.45-1.304
		c0.664,0,1.284,0.082,1.86,0.246l-0.132,1.453c-0.488-0.117-1.021-0.176-1.597-0.176c-0.967,0-1.719,0.301-2.256,0.903
		c-0.537,0.602-0.806,1.456-0.806,2.562v1.969h3.779v1.436h-3.779v14.414H195.943z"/>
	<path class="st1" d="M202.898,584.839c0-1.523,0.295-2.896,0.886-4.116s1.426-2.171,2.505-2.85s2.302-1.018,3.669-1.018
		c2.109,0,3.818,0.739,5.127,2.219s1.963,3.44,1.963,5.882v0.366c0,1.533-0.295,2.912-0.886,4.138s-1.423,2.171-2.498,2.835
		s-2.3,0.996-3.677,0.996c-2.1,0-3.806-0.74-5.12-2.22s-1.97-3.439-1.97-5.881V584.839z M204.656,585.322
		c0,1.895,0.491,3.449,1.472,4.665s2.268,1.824,3.86,1.824c1.582,0,2.864-0.608,3.845-1.824s1.472-2.819,1.472-4.812v-0.337
		c0-1.211-0.225-2.319-0.674-3.325s-1.079-1.785-1.89-2.337s-1.738-0.827-2.783-0.827c-1.562,0-2.837,0.612-3.823,1.838
		s-1.479,2.83-1.479,4.812V585.322z"/>
	<path class="st1" d="M225.776,591.812c1.221,0,2.244-0.345,3.069-1.033s1.272-1.579,1.34-2.673h1.685
		c-0.049,0.967-0.352,1.848-0.908,2.644s-1.296,1.419-2.219,1.868s-1.912,0.674-2.966,0.674c-2.08,0-3.728-0.723-4.944-2.168
		s-1.824-3.389-1.824-5.83v-0.527c0-1.562,0.273-2.944,0.82-4.146s1.331-2.129,2.351-2.783s2.214-0.981,3.582-0.981
		c1.738,0,3.171,0.518,4.299,1.553s1.731,2.397,1.809,4.087h-1.685c-0.078-1.24-0.525-2.241-1.34-3.003s-1.843-1.143-3.083-1.143
		c-1.582,0-2.81,0.571-3.684,1.714s-1.311,2.744-1.311,4.805v0.513c0,2.021,0.437,3.599,1.311,4.731
		S224.185,591.812,225.776,591.812z"/>
	<path class="st1" d="M244.816,590.991c-1.055,1.533-2.739,2.3-5.054,2.3c-1.689,0-2.974-0.491-3.853-1.473
		s-1.328-2.434-1.348-4.357v-10.312h1.743v10.093c0,3.018,1.221,4.526,3.662,4.526c2.539,0,4.146-1.05,4.819-3.149v-11.47h1.758
		v15.85h-1.699L244.816,590.991z"/>
	<path class="st1" d="M259.843,588.97c0-0.869-0.349-1.567-1.047-2.095s-1.75-0.94-3.157-1.238s-2.498-0.64-3.274-1.025
		s-1.353-0.856-1.729-1.413s-0.564-1.23-0.564-2.021c0-1.25,0.522-2.283,1.567-3.099s2.383-1.223,4.014-1.223
		c1.768,0,3.186,0.437,4.255,1.311s1.604,2.015,1.604,3.421h-1.758c0-0.928-0.388-1.699-1.165-2.314s-1.755-0.923-2.937-0.923
		c-1.152,0-2.078,0.256-2.776,0.769s-1.047,1.18-1.047,2c0,0.791,0.291,1.403,0.872,1.838s1.641,0.833,3.179,1.194
		s2.69,0.747,3.457,1.157s1.335,0.903,1.707,1.479s0.557,1.274,0.557,2.095c0,1.338-0.54,2.407-1.619,3.208
		s-2.488,1.201-4.226,1.201c-1.846,0-3.342-0.447-4.49-1.341s-1.721-2.023-1.721-3.391h1.758c0.068,1.025,0.5,1.823,1.296,2.395
		s1.848,0.857,3.157,0.857c1.221,0,2.207-0.269,2.959-0.806S259.843,589.79,259.843,588.97z"/>
	<path class="st1" d="M270.369,584.839c0-1.523,0.295-2.896,0.886-4.116s1.426-2.171,2.505-2.85s2.302-1.018,3.669-1.018
		c2.109,0,3.818,0.739,5.127,2.219s1.963,3.44,1.963,5.882v0.366c0,1.533-0.295,2.912-0.886,4.138s-1.423,2.171-2.498,2.835
		s-2.3,0.996-3.677,0.996c-2.1,0-3.806-0.74-5.12-2.22s-1.97-3.439-1.97-5.881V584.839z M272.127,585.322
		c0,1.895,0.491,3.449,1.472,4.665s2.268,1.824,3.86,1.824c1.582,0,2.864-0.608,3.845-1.824s1.472-2.819,1.472-4.812v-0.337
		c0-1.211-0.225-2.319-0.674-3.325s-1.079-1.785-1.89-2.337s-1.738-0.827-2.783-0.827c-1.562,0-2.837,0.612-3.823,1.838
		s-1.479,2.83-1.479,4.812V585.322z"/>
	<path class="st1" d="M288.647,592.998v-14.414h-2.622v-1.436h2.622v-1.919c0-1.621,0.413-2.866,1.238-3.735s1.975-1.304,3.45-1.304
		c0.664,0,1.284,0.082,1.86,0.246l-0.132,1.453c-0.488-0.117-1.021-0.176-1.597-0.176c-0.967,0-1.719,0.301-2.256,0.903
		c-0.537,0.602-0.806,1.456-0.806,2.562v1.969h3.779v1.436h-3.779v14.414H288.647z"/>
	<path class="st1" d="M315.302,582.773h-9.976v8.701h11.47v1.523h-13.271V571.67h13.198v1.523h-11.396v8.057h9.976V582.773z"/>
	<path class="st1" d="M318.448,584.927c0-2.461,0.549-4.422,1.648-5.882s2.59-2.189,4.475-2.189c2.139,0,3.77,0.845,4.893,2.534
		v-8.892h1.743v22.5h-1.641l-0.073-2.109c-1.123,1.602-2.773,2.402-4.951,2.402c-1.826,0-3.298-0.735-4.417-2.205
		s-1.677-3.454-1.677-5.954V584.927z M320.221,585.234c0,2.021,0.405,3.615,1.216,4.782s1.953,1.751,3.428,1.751
		c2.158,0,3.691-0.952,4.6-2.856v-7.441c-0.908-2.061-2.432-3.091-4.57-3.091c-1.475,0-2.622,0.578-3.442,1.735
		S320.221,582.979,320.221,585.234z"/>
	<path class="st1" d="M345.267,590.991c-1.055,1.533-2.739,2.3-5.054,2.3c-1.689,0-2.974-0.491-3.853-1.473
		s-1.328-2.434-1.348-4.357v-10.312h1.743v10.093c0,3.018,1.221,4.526,3.662,4.526c2.539,0,4.146-1.05,4.819-3.149v-11.47h1.758
		v15.85h-1.699L345.267,590.991z"/>
	<path class="st1" d="M356.66,591.812c1.221,0,2.244-0.345,3.069-1.033s1.272-1.579,1.34-2.673h1.685
		c-0.049,0.967-0.352,1.848-0.908,2.644s-1.296,1.419-2.219,1.868s-1.912,0.674-2.966,0.674c-2.08,0-3.728-0.723-4.944-2.168
		s-1.824-3.389-1.824-5.83v-0.527c0-1.562,0.273-2.944,0.82-4.146s1.331-2.129,2.351-2.783s2.214-0.981,3.582-0.981
		c1.738,0,3.171,0.518,4.299,1.553s1.731,2.397,1.809,4.087h-1.685c-0.078-1.24-0.525-2.241-1.34-3.003s-1.843-1.143-3.083-1.143
		c-1.582,0-2.81,0.571-3.684,1.714s-1.311,2.744-1.311,4.805v0.513c0,2.021,0.437,3.599,1.311,4.731S355.068,591.812,356.66,591.812
		z"/>
	<path class="st1" d="M375.51,592.998c-0.176-0.498-0.288-1.235-0.337-2.212c-0.615,0.801-1.399,1.418-2.351,1.853
		s-1.96,0.652-3.025,0.652c-1.523,0-2.756-0.425-3.699-1.274s-1.414-1.924-1.414-3.223c0-1.543,0.642-2.764,1.926-3.662
		s3.074-1.348,5.369-1.348h3.179v-1.802c0-1.133-0.349-2.024-1.047-2.674s-1.716-0.974-3.054-0.974
		c-1.221,0-2.231,0.312-3.032,0.938s-1.201,1.377-1.201,2.256l-1.758-0.015c0-1.26,0.586-2.352,1.758-3.274s2.612-1.384,4.321-1.384
		c1.768,0,3.162,0.441,4.182,1.325s1.545,2.117,1.575,3.699v7.5c0,1.533,0.161,2.681,0.483,3.442v0.176H375.51z M370.002,591.738
		c1.172,0,2.219-0.283,3.142-0.85s1.594-1.323,2.014-2.271v-3.486h-3.135c-1.748,0.02-3.115,0.339-4.102,0.959
		s-1.479,1.473-1.479,2.557c0,0.889,0.33,1.626,0.989,2.212S368.947,591.738,370.002,591.738z"/>
	<path class="st1" d="M383.549,573.091v4.058h3.281v1.436h-3.281v10.573c0,0.88,0.159,1.535,0.476,1.965
		c0.317,0.431,0.847,0.646,1.589,0.646c0.293,0,0.767-0.049,1.421-0.146l0.073,1.423c-0.459,0.164-1.084,0.247-1.875,0.247
		c-1.201,0-2.075-0.35-2.622-1.048s-0.82-1.726-0.82-3.083v-10.576h-2.915v-1.436h2.915v-4.058H383.549z"/>
	<path class="st1" d="M389.61,572.57c0-0.33,0.107-0.608,0.322-0.837c0.215-0.228,0.508-0.342,0.879-0.342s0.667,0.114,0.886,0.342
		c0.22,0.229,0.33,0.507,0.33,0.837s-0.11,0.606-0.33,0.83s-0.515,0.335-0.886,0.335s-0.664-0.111-0.879-0.335
		S389.61,572.9,389.61,572.57z M391.676,592.998h-1.758v-15.85h1.758V592.998z"/>
	<path class="st1" d="M394.72,584.839c0-1.523,0.295-2.896,0.886-4.116s1.426-2.171,2.505-2.85s2.302-1.018,3.669-1.018
		c2.109,0,3.818,0.739,5.127,2.219s1.963,3.44,1.963,5.882v0.366c0,1.533-0.295,2.912-0.886,4.138s-1.423,2.171-2.498,2.835
		s-2.3,0.996-3.677,0.996c-2.1,0-3.806-0.74-5.12-2.22s-1.97-3.439-1.97-5.881V584.839z M396.478,585.322
		c0,1.895,0.491,3.449,1.472,4.665s2.268,1.824,3.86,1.824c1.582,0,2.864-0.608,3.845-1.824s1.472-2.819,1.472-4.812v-0.337
		c0-1.211-0.225-2.319-0.674-3.325s-1.079-1.785-1.89-2.337s-1.738-0.827-2.783-0.827c-1.562,0-2.837,0.612-3.823,1.838
		s-1.479,2.83-1.479,4.812V585.322z"/>
	<path class="st1" d="M413.408,577.148l0.059,2.71c0.596-0.977,1.338-1.722,2.227-2.234s1.87-0.769,2.944-0.769
		c1.699,0,2.964,0.479,3.794,1.436s1.25,2.393,1.26,4.307v10.4h-1.743v-10.415c-0.01-1.416-0.31-2.471-0.901-3.164
		s-1.536-1.04-2.834-1.04c-1.084,0-2.043,0.339-2.878,1.018s-1.453,1.595-1.853,2.747v10.854h-1.743v-15.85H413.408z"/>
	<path class="st1" d="M437.473,592.998c-0.176-0.498-0.288-1.235-0.337-2.212c-0.615,0.801-1.399,1.418-2.351,1.853
		s-1.96,0.652-3.025,0.652c-1.523,0-2.756-0.425-3.699-1.274s-1.414-1.924-1.414-3.223c0-1.543,0.642-2.764,1.926-3.662
		s3.074-1.348,5.369-1.348h3.179v-1.802c0-1.133-0.349-2.024-1.047-2.674s-1.716-0.974-3.054-0.974
		c-1.221,0-2.231,0.312-3.032,0.938s-1.201,1.377-1.201,2.256l-1.758-0.015c0-1.26,0.586-2.352,1.758-3.274s2.612-1.384,4.321-1.384
		c1.768,0,3.162,0.441,4.182,1.325s1.545,2.117,1.575,3.699v7.5c0,1.533,0.161,2.681,0.483,3.442v0.176H437.473z M431.965,591.738
		c1.172,0,2.219-0.283,3.142-0.85s1.594-1.323,2.014-2.271v-3.486h-3.135c-1.748,0.02-3.115,0.339-4.102,0.959
		s-1.479,1.473-1.479,2.557c0,0.889,0.33,1.626,0.989,2.212S430.91,591.738,431.965,591.738z"/>
	<path class="st1" d="M444.75,592.998h-1.758v-22.5h1.758V592.998z"/>
	<path class="st1" d="M457.532,591.475h10.532v1.523h-12.349V571.67h1.816V591.475z"/>
	<path class="st1" d="M476.499,593.291c-1.348,0-2.566-0.332-3.655-0.996s-1.936-1.59-2.542-2.776s-0.908-2.517-0.908-3.991v-0.63
		c0-1.523,0.295-2.896,0.886-4.116s1.414-2.181,2.468-2.879s2.197-1.047,3.428-1.047c1.924,0,3.45,0.656,4.578,1.97
		s1.692,3.108,1.692,5.384v0.981h-11.309v0.337c0,1.797,0.515,3.293,1.545,4.489s2.327,1.795,3.889,1.795
		c0.938,0,1.765-0.171,2.483-0.513s1.37-0.889,1.956-1.641l1.099,0.835C480.82,592.358,478.95,593.291,476.499,593.291z
		 M476.177,578.35c-1.318,0-2.429,0.483-3.333,1.45s-1.453,2.266-1.648,3.896h9.507v-0.19c-0.049-1.523-0.483-2.764-1.304-3.721
		S477.505,578.35,476.177,578.35z"/>
	<path class="st1" d="M495.114,592.998c-0.176-0.498-0.288-1.235-0.337-2.212c-0.615,0.801-1.399,1.418-2.351,1.853
		s-1.96,0.652-3.025,0.652c-1.523,0-2.756-0.425-3.699-1.274s-1.414-1.924-1.414-3.223c0-1.543,0.642-2.764,1.926-3.662
		s3.074-1.348,5.369-1.348h3.179v-1.802c0-1.133-0.349-2.024-1.047-2.674s-1.716-0.974-3.054-0.974
		c-1.221,0-2.231,0.312-3.032,0.938s-1.201,1.377-1.201,2.256l-1.758-0.015c0-1.26,0.586-2.352,1.758-3.274s2.612-1.384,4.321-1.384
		c1.768,0,3.162,0.441,4.182,1.325s1.545,2.117,1.575,3.699v7.5c0,1.533,0.161,2.681,0.483,3.442v0.176H495.114z M489.606,591.738
		c1.172,0,2.219-0.283,3.142-0.85s1.594-1.323,2.014-2.271v-3.486h-3.135c-1.748,0.02-3.115,0.339-4.102,0.959
		s-1.479,1.473-1.479,2.557c0,0.889,0.33,1.626,0.989,2.212S488.552,591.738,489.606,591.738z"/>
	<path class="st1" d="M499.726,584.927c0-2.461,0.549-4.422,1.648-5.882s2.59-2.189,4.475-2.189c2.139,0,3.77,0.845,4.893,2.534
		v-8.892h1.743v22.5h-1.641l-0.073-2.109c-1.123,1.602-2.773,2.402-4.951,2.402c-1.826,0-3.298-0.735-4.417-2.205
		s-1.677-3.454-1.677-5.954V584.927z M501.498,585.234c0,2.021,0.405,3.615,1.216,4.782s1.953,1.751,3.428,1.751
		c2.158,0,3.691-0.952,4.6-2.856v-7.441c-0.908-2.061-2.432-3.091-4.57-3.091c-1.475,0-2.622,0.578-3.442,1.735
		S501.498,582.979,501.498,585.234z"/>
	<path class="st1" d="M522.486,593.291c-1.348,0-2.566-0.332-3.655-0.996s-1.936-1.59-2.542-2.776s-0.908-2.517-0.908-3.991v-0.63
		c0-1.523,0.295-2.896,0.886-4.116s1.414-2.181,2.468-2.879s2.197-1.047,3.428-1.047c1.924,0,3.45,0.656,4.578,1.97
		s1.692,3.108,1.692,5.384v0.981h-11.309v0.337c0,1.797,0.515,3.293,1.545,4.489s2.327,1.795,3.889,1.795
		c0.938,0,1.765-0.171,2.483-0.513s1.37-0.889,1.956-1.641l1.099,0.835C526.808,592.358,524.938,593.291,522.486,593.291z
		 M522.164,578.35c-1.318,0-2.429,0.483-3.333,1.45s-1.453,2.266-1.648,3.896h9.507v-0.19c-0.049-1.523-0.483-2.764-1.304-3.721
		S523.492,578.35,522.164,578.35z"/>
	<path class="st1" d="M538.421,578.643c-0.371-0.068-0.767-0.103-1.187-0.103c-1.094,0-2.019,0.305-2.776,0.915
		s-1.296,1.497-1.619,2.659v10.884h-1.743v-15.85h1.714l0.029,2.52c0.928-1.875,2.417-2.812,4.468-2.812
		c0.488,0,0.874,0.063,1.157,0.19L538.421,578.643z"/>
	<path class="st1" d="M549.932,588.97c0-0.869-0.349-1.567-1.047-2.095s-1.75-0.94-3.157-1.238s-2.498-0.64-3.274-1.025
		s-1.353-0.856-1.729-1.413s-0.564-1.23-0.564-2.021c0-1.25,0.522-2.283,1.567-3.099s2.383-1.223,4.014-1.223
		c1.768,0,3.186,0.437,4.255,1.311s1.604,2.015,1.604,3.421h-1.758c0-0.928-0.388-1.699-1.165-2.314s-1.755-0.923-2.937-0.923
		c-1.152,0-2.078,0.256-2.776,0.769s-1.047,1.18-1.047,2c0,0.791,0.291,1.403,0.872,1.838s1.641,0.833,3.179,1.194
		s2.69,0.747,3.457,1.157s1.335,0.903,1.707,1.479s0.557,1.274,0.557,2.095c0,1.338-0.54,2.407-1.619,3.208
		s-2.488,1.201-4.226,1.201c-1.846,0-3.342-0.447-4.49-1.341s-1.721-2.023-1.721-3.391h1.758c0.068,1.025,0.5,1.823,1.296,2.395
		s1.848,0.857,3.157,0.857c1.221,0,2.207-0.269,2.959-0.806S549.932,589.79,549.932,588.97z"/>
	<path class="st1" d="M556.623,579.829c0.576-0.947,1.313-1.68,2.212-2.197s1.88-0.776,2.944-0.776c1.699,0,2.964,0.479,3.794,1.436
		s1.25,2.393,1.26,4.307v10.4h-1.743v-10.415c-0.01-1.416-0.31-2.471-0.901-3.164s-1.536-1.04-2.834-1.04
		c-1.084,0-2.043,0.339-2.878,1.018s-1.453,1.595-1.853,2.747v10.854h-1.743v-22.5h1.743V579.829z"/>
	<path class="st1" d="M570.492,572.57c0-0.33,0.107-0.608,0.322-0.837c0.215-0.228,0.508-0.342,0.879-0.342s0.667,0.114,0.886,0.342
		c0.22,0.229,0.33,0.507,0.33,0.837s-0.11,0.606-0.33,0.83s-0.515,0.335-0.886,0.335s-0.664-0.111-0.879-0.335
		S570.492,572.9,570.492,572.57z M572.558,592.998H570.8v-15.85h1.758V592.998z"/>
	<path class="st1" d="M589.312,585.234c0,2.471-0.547,4.431-1.641,5.881s-2.559,2.176-4.395,2.176c-2.168,0-3.828-0.762-4.98-2.285
		v8.086h-1.743v-21.943h1.626l0.088,2.241c1.143-1.689,2.798-2.534,4.966-2.534c1.895,0,3.381,0.718,4.46,2.153
		s1.619,3.428,1.619,5.977V585.234z M587.555,584.927c0-2.021-0.415-3.618-1.245-4.79s-1.987-1.758-3.472-1.758
		c-1.074,0-1.997,0.259-2.769,0.776s-1.362,1.27-1.772,2.256v7.603c0.42,0.908,1.021,1.602,1.802,2.08s1.704,0.718,2.769,0.718
		c1.475,0,2.625-0.589,3.45-1.766S587.555,587.163,587.555,584.927z"/>
	<path class="st1" d="M592.283,591.943c0-0.342,0.11-0.633,0.33-0.872s0.525-0.358,0.916-0.358s0.698,0.119,0.923,0.358
		s0.337,0.53,0.337,0.872s-0.112,0.622-0.337,0.842s-0.532,0.33-0.923,0.33s-0.696-0.11-0.916-0.33S592.283,592.285,592.283,591.943
		z"/>
</g>
</svg>
