<?xml version="1.0" encoding="utf-8"?>
<!-- Generator: Adobe Illustrator 22.0.1, SVG Export Plug-In . SVG Version: 6.00 Build 0)  -->
<svg version="1.1" id="Layer_1" xmlns="http://www.w3.org/2000/svg" xmlns:xlink="http://www.w3.org/1999/xlink" x="0px" y="0px"
	 viewBox="0 0 1600 650" style="enable-background:new 0 0 1600 650;" xml:space="preserve">
<style type="text/css">
	.st0{opacity:0.66;fill:#9A95C9;enable-background:new    ;}
	.st1{fill:#FFFFFF;}
</style>
<path class="st0" d="M1600,721.1H0V-0.4h1600V721.1z M248.5,272.8h-31.2v-16.7h26.4v-12.4h-26.4V229h31.2v-13h-48v69.7h48V272.8z
	 M245,245.1h7.3v40.6h16.2v-40.6h6.9h3.2h4.3v40.6h16.2v-40.6h10.1v-11.2h-10.1v-4c0-4.2,2.4-6.3,7.3-6.3c1.7,0,3,0.1,4,0.4v-11.9
	c-2.7-0.7-5.3-1-7.6-1c-6.3,0-11.2,1.6-14.6,4.9c-3.5,3.3-5.2,7.8-5.2,13.7v4.1h-4.3h-3.2h-6.9v-4c0-4.2,2.4-6.3,7.3-6.3
	c1.7,0,3,0.1,4,0.4V212c-2.7-0.7-5.3-1-7.6-1c-6.3,0-11.2,1.6-14.6,4.9c-3.5,3.3-5.2,7.8-5.2,13.7v4.1H245V245.1z M307.3,259.7v1.3
	c0,7.6,2.5,13.8,7.4,18.5c4.9,4.7,11.3,7.1,19.3,7.1c4.2,0,8.2-0.8,11.9-2.5c3.7-1.6,6.5-3.9,8.5-6.6l-7.4-8.7
	c-2.9,3.6-6.9,5.4-12,5.4c-3.1,0-5.6-0.8-7.6-2.5c-1.9-1.7-3.2-3.9-3.8-6.8h31.9c0.7,6,2.8,10.9,6.2,14.7c4.3,4.7,10.3,7.1,17.8,7.1
	c6.4,0,11.7-1.8,15.7-5.5c4.1-3.6,6.1-8.3,6.1-14h-15.1c0,2.2-0.6,3.9-1.8,5.1c-1.2,1.2-3,1.8-5.3,1.8c-2.7,0-4.7-1-5.9-3
	s-1.9-5.6-1.9-10.8c0-3,0.1-5.3,0.3-7c0.7-5.3,3.1-8,7.3-8c2.2,0,4,0.7,5.3,2.2c1.3,1.4,2,3.5,2,6.2h15.1c0-3.2-0.5-6.1-1.5-8.6h6.1
	v25.7c0,5.3,1.3,9.3,4,11.9c2.6,2.6,6.7,3.9,12.3,3.9c3.2,0,6.2-0.5,9.1-1.4v-11.5c-1.1,0.2-2.4,0.3-4,0.3c-2.1,0-3.5-0.4-4.2-1.1
	c-0.7-0.8-1.1-2.1-1.1-4.1v-23.7h8.5v-11.2H422V221h-16v12.9h-6.6v10c-1-2-2.2-3.8-3.9-5.4c-4-3.7-9.3-5.6-16-5.6
	c-5,0-9.3,1.1-12.9,3.2c-3.6,2.1-6.4,5.2-8.3,9.2c-1.4,2.8-2.2,6-2.6,9.4c-0.6-6.3-2.6-11.3-6.1-15.1c-4.2-4.5-10-6.8-17.2-6.8
	c-5.2,0-9.6,1.1-13.4,3.3s-6.6,5.4-8.6,9.4C308.2,249.7,307.3,254.4,307.3,259.7z M332.1,245.4c2.6,0,4.5,0.7,5.9,2.1
	c1.4,1.4,2,3.4,2,6v1.2h-16.3C324.6,248.5,327.4,245.4,332.1,245.4z M449.1,233.9h-16.2v51.8h16.2V233.9z M440.9,228.4
	c2.6,0,4.8-0.7,6.5-2.2s2.5-3.4,2.5-5.7s-0.8-4.2-2.5-5.7s-3.8-2.2-6.5-2.2c-2.6,0-4.8,0.7-6.5,2.2s-2.5,3.4-2.5,5.7
	s0.9,4.2,2.5,5.7C436.1,227.7,438.2,228.4,440.9,228.4z M466.6,285.7H483l16.9-51.8h-17l-8.1,32.6l-8.1-32.6h-17L466.6,285.7z
	 M497.6,261c0,7.6,2.5,13.8,7.4,18.5c4.9,4.7,11.3,7.1,19.3,7.1c4.2,0,8.2-0.8,11.9-2.5c3.7-1.6,6.5-3.9,8.5-6.6l-7.4-8.7
	c-2.9,3.6-6.9,5.4-12,5.4c-3.1,0-5.6-0.8-7.6-2.5c-1.9-1.7-3.2-3.9-3.8-6.8H546v-6.3c0-8.1-2.1-14.4-6.3-18.9s-10-6.8-17.2-6.8
	c-5.2,0-9.6,1.1-13.4,3.3s-6.6,5.4-8.6,9.4c-2,4.1-2.9,8.7-2.9,14V261z M522.4,245.4c2.6,0,4.5,0.7,5.9,2.1s2,3.4,2,6v1.2H514
	C514.9,248.5,517.7,245.4,522.4,245.4z M585.8,216h-16.7v69.7h16.7V216z M607.7,249.1c1.5-2.5,3.9-3.7,7-3.7c2.8,0,4.7,0.6,5.7,1.8
	c1.1,1.2,1.6,3.2,1.6,5.8v32.7h16.2v-33.4c-0.1-6.5-1.5-11.3-4.1-14.5c-2.7-3.2-6.7-4.8-12.1-4.8c-6.3,0-11.2,2.3-14.8,7l-0.5-6.1
	h-15.1v51.8h16.1L607.7,249.1z M667.7,274.6c-1.1,0.9-2.8,1.3-5,1.3c-2.4,0-4.4-0.5-5.9-1.7s-2.3-2.8-2.4-5.2h-15.1
	c0,3,1,5.9,2.9,8.7c1.9,2.7,4.7,4.9,8.1,6.5c3.5,1.6,7.4,2.4,11.9,2.4c6.7,0,12.1-1.5,16.3-4.5s6.3-6.8,6.3-11.5
	c0-6.9-3.9-11.7-11.7-14.4c-2.3-0.8-5-1.5-8.1-2.1c-3.1-0.6-5.3-1.3-6.7-2.2c-1.4-0.9-2.1-2.1-2.1-3.5c0-1.4,0.6-2.6,1.7-3.5
	c1.1-0.9,2.6-1.4,4.3-1.4c4.4,0,6.6,2.1,6.6,6.2H685c0-1.7-0.3-3.2-0.7-4.7h5.9v25.7c0,5.3,1.3,9.3,4,11.9c2.6,2.6,6.7,3.9,12.3,3.9
	c3.2,0,6.2-0.5,9.1-1.4v-11.5c-1.1,0.2-2.4,0.3-4,0.3c-2.1,0-3.5-0.4-4.2-1.1c-0.7-0.8-1.1-2.1-1.1-4.1V245h8.5v-11.2h-8.5V221
	h-16.1v12.9h-6.6v9.4c-1-2.2-2.6-4.1-4.8-5.7c-4.1-3.1-9.6-4.6-16.5-4.6c-6.3,0-11.5,1.5-15.4,4.6c-3.9,3.1-5.9,7-5.9,11.7
	c0,2.7,0.7,5.1,2.1,7.1c1.4,2.1,3.4,3.8,6,5.3s5.9,2.6,10,3.5c4,0.9,6.7,1.8,8.2,2.6c1.4,0.8,2.2,1.9,2.2,3.3
	C669.3,272.6,668.8,273.7,667.7,274.6z M732,240.6l-0.5-6.7h-15.1v51.8h16.1v-32.8c1.4-3.2,4.7-4.8,9.8-4.8l5.3,0.4l0.3-15
	c-1.3-0.4-2.8-0.6-4.5-0.6C738.5,233,734.7,235.5,732,240.6z M778.7,270.2c-1.6,2.6-4.2,4-7.9,4c-4.3,0-6.5-2.2-6.5-6.7v-33.6h-16.1
	v33.5c0,6.2,1.5,10.9,4.4,14.2s7.2,5,12.9,5c5.8,0,10.4-2.2,13.8-6.6l0.5,5.6h15.1v-51.8h-16.2V270.2z M864.7,272.9
	c-0.7-0.8-1.1-2.1-1.1-4.1v-23.7h8.5v-11.2h-8.5V221h-16.1v12.9h-6.6v10c-1-2-2.2-3.8-3.9-5.4c-4-3.7-9.3-5.6-16-5.6
	c-5,0-9.3,1.1-12.9,3.2c-3.6,2.2-6.4,5.2-8.3,9.2c-1.9,4-2.9,8.6-2.9,13.9v0.7c0,8.4,2.2,14.9,6.5,19.6s10.3,7.1,17.8,7.1
	c6.4,0,11.7-1.8,15.7-5.5c4.1-3.6,6.1-8.3,6.1-14h-15.1c0,2.2-0.6,3.9-1.8,5.1s-3,1.8-5.3,1.8c-2.7,0-4.7-1-5.9-3s-1.9-5.6-1.9-10.8
	c0-3,0.1-5.3,0.3-7c0.7-5.3,3.1-8,7.3-8c2.2,0,4,0.7,5.3,2.2c1.3,1.4,2,3.5,2,6.2H843c0-3.2-0.5-6.1-1.5-8.6h6.1v25.7
	c0,5.3,1.3,9.3,4,11.9c2.6,2.6,6.7,3.9,12.3,3.9c3.2,0,6.2-0.5,9.1-1.4v-11.5c-1.1,0.2-2.4,0.3-4,0.3
	C866.8,274,865.4,273.6,864.7,272.9z M874.4,285.7h16.2v-51.8h-16.2V285.7z M882.4,212.6c-2.7,0-4.8,0.7-6.5,2.2s-2.5,3.4-2.5,5.7
	s0.8,4.2,2.5,5.7s3.8,2.2,6.5,2.2c2.6,0,4.8-0.7,6.5-2.2s2.5-3.4,2.5-5.7s-0.9-4.2-2.5-5.7C887.2,213.3,885.1,212.6,882.4,212.6z
	 M918.5,233c-5.1,0-9.5,1.1-13.3,3.3s-6.7,5.3-8.7,9.3s-3,8.6-3,13.8v2.7c0.4,7.6,2.8,13.5,7.2,18c4.5,4.4,10.4,6.6,17.8,6.6
	c7.7,0,13.7-2.4,18.2-7.1s6.7-11.1,6.7-19.2v-0.6c0-8.3-2.2-14.8-6.7-19.6C932.4,235.4,926.3,233,918.5,233z M927.4,260.9
	c-0.1,8.8-3.1,13.3-8.8,13.3c-2.9,0-5.2-1.1-6.7-3.4c-1.5-2.2-2.2-5.7-2.2-10.5v-2.9c0.4-8,3.4-12,8.8-12c5.9,0,8.9,4.6,8.9,13.9
	V260.9z M975.9,233c-6.3,0-11.2,2.3-14.8,7l-0.5-6.1h-15.1v51.8h16.1v-36.6c1.5-2.5,3.9-3.7,7-3.7c2.8,0,4.7,0.6,5.7,1.8
	c1.1,1.2,1.6,3.2,1.6,5.8v32.7h16.2v-33.4c-0.1-6.5-1.5-11.3-4.1-14.5C985.3,234.6,981.3,233,975.9,233z M1039,251h0.2
	c-0.1-5.6-2.1-10-5.9-13.3c-3.8-3.2-9-4.8-15.6-4.8s-12,1.6-16.3,4.7c-4.3,3.1-6.4,7.2-6.4,12.2h16.1c0-3.8,1.9-5.7,5.7-5.7
	c4.1,0,6.2,2.4,6.2,7.2v2.7h-5c-7.9,0-13.9,1.4-18.1,4.3c-4.1,2.9-6.2,7.1-6.2,12.7c0,4.5,1.7,8.2,5.1,11.1c3.4,3,7.6,4.4,12.4,4.4
	c5.3,0,9.5-1.9,12.4-5.6c0.4,2,1,3.6,1.5,4.6h16.1v-0.8c-1.4-2.5-2.1-6.2-2.2-10.9V251z M1023.1,270.9c-0.6,1.1-1.5,2.1-2.8,2.9
	c-1.3,0.9-3,1.3-5,1.3c-1.5,0-2.8-0.5-3.8-1.4c-1-0.9-1.5-2.1-1.5-3.6c0-5,2.8-7.6,8.4-7.6h4.7L1023.1,270.9z M1044.1,212.2v73.5
	h16.2v-73.5H1044.1z M246.5,356.8h-29.2V300h-16.8v69.7h46V356.8z M284.9,368.2c3.7-1.6,6.5-3.9,8.5-6.6l-7.4-8.7
	c-2.9,3.6-6.9,5.4-12,5.4c-3.1,0-5.6-0.8-7.6-2.5c-1.9-1.7-3.2-3.9-3.8-6.8h32.1v-6.3c0-8.1-2.1-14.4-6.3-18.9
	c-4.2-4.5-10-6.8-17.2-6.8c-5.2,0-9.6,1.1-13.4,3.3c-3.8,2.2-6.6,5.4-8.6,9.4c-2,4.1-2.9,8.7-2.9,14v1.3c0,7.6,2.5,13.8,7.4,18.5
	c4.9,4.7,11.3,7.1,19.3,7.1C277.2,370.6,281.2,369.8,284.9,368.2z M271.2,329.4c2.6,0,4.5,0.7,5.9,2.1c1.4,1.4,2,3.4,2,6v1.2h-16.3
	C263.6,332.5,266.4,329.4,271.2,329.4z M318.3,338c-7.9,0.1-13.9,1.5-18.1,4.4c-4.1,2.9-6.2,7.1-6.2,12.7c0,4.5,1.7,8.2,5.1,11.1
	c3.4,3,7.6,4.4,12.4,4.4c5.3,0,9.5-1.9,12.4-5.6c0.4,2,1,3.6,1.5,4.6h16.1v-0.8c-1.4-2.5-2.1-6.2-2.2-10.9V335
	c-0.1-5.6-2.1-10-5.9-13.3c-3.8-3.2-9-4.8-15.6-4.8c-6.6,0-12,1.6-16.3,4.7c-4.3,3.1-6.4,7.2-6.4,12.2h16.1c0-3.8,1.9-5.7,5.7-5.7
	c4.1,0,6.2,2.4,6.2,7.2v2.7L318.3,338z M323.3,346.6v0.1v8.3c-0.6,1.1-1.5,2.1-2.8,2.9c-1.3,0.9-3,1.3-5,1.3c-1.5,0-2.8-0.5-3.8-1.4
	c-1-0.9-1.5-2.1-1.5-3.6c0-5,2.8-7.6,8.4-7.6H323.3z M361.5,370.6c5.1,0,9.3-2.2,12.6-6.5l0.8,5.6h14.5v-73.5h-16.2v26.2
	c-3.2-3.6-7.1-5.5-11.7-5.5c-6.3,0-11.3,2.4-14.8,7.1s-5.3,11.2-5.3,19.4c0,8.7,1.8,15.4,5.4,20.1
	C350.5,368.3,355.4,370.6,361.5,370.6z M357.6,341.5c0.4-8,3.1-12.1,8.1-12.1c3.6,0,6.1,1.5,7.6,4.6v19.7c-1.5,3-4.1,4.5-7.7,4.5
	c-5.4,0-8-4.6-8-13.8V341.5z M440.6,342.6c0-8.1-2.1-14.4-6.3-18.9c-4.2-4.5-10-6.8-17.2-6.8c-5.2,0-9.6,1.1-13.4,3.3
	s-6.6,5.4-8.6,9.4c-2,4.1-2.9,8.7-2.9,14v1.3c0,7.6,2.5,13.8,7.4,18.5c4.9,4.7,11.3,7.1,19.3,7.1c4.2,0,8.2-0.8,11.9-2.5
	c3.7-1.6,6.5-3.9,8.5-6.6l-7.4-8.7c-2.9,3.6-6.9,5.4-12,5.4c-3.1,0-5.6-0.8-7.6-2.5c-1.9-1.7-3.2-3.9-3.8-6.8h32.1V342.6z
	 M424.8,338.8h-16.3c0.9-6.3,3.7-9.4,8.4-9.4c2.6,0,4.5,0.7,5.9,2.1c1.4,1.4,2,3.4,2,6V338.8z M500.2,358.5c-1.1,0.9-2.8,1.3-5,1.3
	c-2.4,0-4.4-0.6-5.9-1.7c-1.5-1.1-2.3-2.8-2.4-5.2h-15.1c0,3,1,5.9,2.9,8.7c1.9,2.7,4.7,4.9,8.1,6.5c3.5,1.6,7.4,2.4,11.9,2.4
	c6.7,0,12.1-1.5,16.3-4.5c4.2-3,6.3-6.8,6.3-11.5c0-6.9-3.9-11.7-11.7-14.4c-2.3-0.8-5-1.5-8.1-2.1c-3.1-0.6-5.3-1.3-6.7-2.2
	s-2.1-2.1-2.1-3.5c-0.2-1.2,0.3-2.4,1.5-3.3c1.1-0.9,2.6-1.4,4.3-1.4c4.4,0,6.6,2.1,6.6,6.2h16.2c0-5-2.1-9.1-6.2-12.2
	c-4.1-3.1-9.6-4.6-16.5-4.6c-6.3,0-11.5,1.5-15.4,4.6c-3,2.3-4.8,5.1-5.5,8.4l0.2-12.5c-1.3-0.4-2.8-0.6-4.5-0.6
	c-4.9,0-8.6,2.5-11.3,7.6l-0.5-6.7h-15.1v51.8h16.1v-32.8c1.4-3.2,4.7-4.8,9.8-4.8l5,0.4c0,0.3,0,0.5,0,0.8c0,2.7,0.7,5.1,2.1,7.1
	c1.4,2.1,3.4,3.8,6,5.3c2.6,1.5,5.9,2.6,10,3.5c4,0.9,6.7,1.8,8.2,2.6c1.4,0.8,2.2,1.9,2.2,3.3C501.9,356.4,501.4,357.6,500.2,358.5
	z M566.1,369.6V337c-0.1-6.6-1.5-11.6-4.5-15c-2.9-3.4-7.2-5.1-12.9-5.1c-5.4,0-9.8,2.2-13.2,6.5v-27.3h-16.1v73.5h16.1v-37.1
	c1.4-2.1,3.7-3.2,7-3.2c2.7,0,4.6,0.6,5.7,1.9c1.1,1.3,1.7,3.3,1.7,6.1v32.3H566.1z M572.5,310.2c1.7,1.5,3.8,2.2,6.5,2.2
	c2.6,0,4.8-0.7,6.5-2.2s2.5-3.4,2.5-5.7c0-2.3-0.8-4.2-2.5-5.7s-3.8-2.2-6.5-2.2s-4.8,0.7-6.5,2.2s-2.5,3.4-2.5,5.7
	S570.8,308.7,572.5,310.2z M587.2,317.9H571v51.8h16.2V317.9z M620,317c-5,0-9.1,1.9-12.2,5.7l-0.5-4.8h-15.1v71.7h16.1v-24.2
	c3.1,3.5,7,5.2,11.7,5.2c6.2,0,11-2.4,14.7-7.2c3.6-4.8,5.4-11.2,5.4-19.3v-0.8c0-8.2-1.8-14.7-5.3-19.4
	C631.4,319.3,626.4,317,620,317z M624.1,344.9c-0.2,8.9-2.8,13.3-7.9,13.3c-3.8,0-6.3-1.4-7.8-4.3v-20.4c1.3-2.7,3.8-4.1,7.7-4.1
	c5.4,0,8,4.6,8,13.8V344.9z M717.7,334.8h-13.5c0,4.2-0.9,8-2.6,11.5L690.9,334l3.6-2.5c6.5-4.6,9.8-9.9,9.8-15.8
	c0-4.8-1.7-8.7-5.2-11.9s-7.8-4.8-13.1-4.8c-5.9,0-10.6,1.7-14.3,5.2c-3.6,3.5-5.5,8-5.5,13.6c0,2.6,0.5,5.1,1.6,7.5
	c1.1,2.4,2.5,5,4.4,7.7l-0.1,0.1c-4.8,3.5-8,6.5-9.6,9.1c-1.6,2.6-2.5,5.5-2.5,8.8c0,5.9,2.1,10.7,6.2,14.3
	c4.1,3.6,9.7,5.4,16.6,5.4c3.5,0,6.7-0.4,9.5-1.1c2.8-0.8,5.5-1.9,8.2-3.5l3.3,3.7h18l-10.6-12.2
	C715.5,351.8,717.7,344.3,717.7,334.8z M681.7,313.1c1-1.1,2.4-1.7,4.2-1.7c1.5,0,2.8,0.5,3.8,1.6c1,1.1,1.5,2.4,1.5,3.8
	c0,1.6-0.3,2.9-1,3.9s-1.7,2-3.2,3l-3.2,2c-2.4-3.2-3.6-5.9-3.6-8.1C680.2,315.8,680.7,314.3,681.7,313.1z M683.9,358.2
	c-2.2,0-4-0.8-5.5-2.4c-1.5-1.6-2.2-3.6-2.2-5.9c0-2.8,0.9-5.3,2.7-7.6l0.4-0.3l12.5,14.3C689.4,357.6,686.7,358.2,683.9,358.2z
	 M219.7,397.7c1.7-1.3,4.1-2,7.1-2s5.3,0.8,7.1,2.3c1.7,1.6,2.6,3.8,2.6,6.6h16.7c0-4.2-1.1-8-3.3-11.3s-5.3-5.8-9.3-7.6
	c-4-1.8-8.5-2.7-13.5-2.7c-5.1,0-9.8,0.8-13.9,2.5c-4.1,1.6-7.3,3.9-9.5,6.9s-3.4,6.4-3.4,10.2c0,7.8,4.5,13.8,13.5,18.3
	c2.8,1.4,6.3,2.8,10.7,4.3c4.4,1.5,7.4,2.9,9.2,4.3c1.7,1.4,2.6,3.3,2.6,5.7c0,2.2-0.8,3.9-2.4,5c-1.6,1.2-3.8,1.8-6.6,1.8
	c-4.3,0-7.5-0.9-9.4-2.7c-1.9-1.8-2.9-4.5-2.9-8.3h-16.8c0,4.6,1.2,8.7,3.5,12.2s5.8,6.3,10.3,8.3c4.6,2,9.7,3,15.3,3
	c8,0,14.3-1.7,18.9-5.2s6.9-8.3,6.9-14.4c0-7.6-3.8-13.6-11.3-17.9c-3.1-1.8-7.1-3.5-11.9-5s-8.2-3-10.1-4.5
	c-1.9-1.5-2.9-3.1-2.9-4.9C217.1,400.7,217.9,399,219.7,397.7z M286.4,438.2c-1.6,2.6-4.2,4-7.9,4c-4.3,0-6.5-2.2-6.5-6.7v-33.6
	h-16.1v33.5c0,6.2,1.5,10.9,4.4,14.2c2.9,3.3,7.2,5,12.9,5c5.8,0,10.4-2.2,13.8-6.6l0.5,5.6h15.1l0-51.8h-16.2V438.2z M334.4,401
	c-5,0-9.1,1.9-12.2,5.7l-0.5-4.8h-15.1v71.7h16.1v-24.2c3.1,3.5,7,5.2,11.7,5.2c6.2,0,11-2.4,14.7-7.2c3.6-4.8,5.4-11.2,5.4-19.3
	v-0.8c0-8.2-1.8-14.7-5.3-19.4C345.7,403.3,340.8,401,334.4,401z M338.5,428.9c-0.2,8.9-2.8,13.3-7.9,13.3c-3.8,0-6.3-1.4-7.8-4.3
	v-20.4c1.3-2.7,3.8-4.1,7.7-4.1c5.4,0,8,4.6,8,13.8L338.5,428.9z M380.1,401c-5.2,0-9.6,1.1-13.4,3.3c-3.8,2.2-6.6,5.4-8.6,9.4
	c-2,4.1-2.9,8.7-2.9,14v1.3c0,7.6,2.5,13.8,7.4,18.5c4.9,4.7,11.3,7.1,19.3,7.1c4.2,0,8.2-0.8,11.9-2.5c3.7-1.6,6.5-3.9,8.5-6.6
	l-7.4-8.7c-2.9,3.6-6.9,5.4-12,5.4c-3.1,0-5.6-0.8-7.6-2.5c-1.9-1.7-3.2-3.9-3.8-6.8h32.1v-6.3c0-8.1-2.1-14.4-6.3-18.9
	C393.1,403.2,387.4,401,380.1,401z M387.9,422.8h-16.3c0.9-6.3,3.7-9.4,8.4-9.4c2.6,0,4.5,0.7,5.9,2.1c1.4,1.4,2,3.4,2,6V422.8z
	 M459,434.5l-8-32.6h-14.1v-0.4c-1.3-0.4-2.8-0.6-4.5-0.6c-4.8,0-8.6,2.5-11.3,7.6l-0.5-6.7h-15.1v51.8h16.1v-32.8
	c1.4-3.2,4.7-4.8,9.8-4.8l5.3,0.4l0.1-6.1l14.1,43.3h16.5l16.9-51.8h-17L459,434.5z M484.9,453.7h16.2v-51.8h-16.2V453.7z
	 M492.9,380.6c-2.6,0-4.8,0.7-6.5,2.2s-2.5,3.4-2.5,5.7c0,2.3,0.8,4.2,2.5,5.7s3.8,2.2,6.5,2.2c2.6,0,4.8-0.7,6.5-2.2
	s2.5-3.4,2.5-5.7c0-2.3-0.9-4.2-2.5-5.7C497.7,381.3,495.6,380.6,492.9,380.6z M521.9,413c1.1-0.9,2.6-1.4,4.3-1.4
	c4.4,0,6.6,2.1,6.6,6.2H549c0-5-2.1-9.1-6.2-12.2c-4.1-3.1-9.6-4.6-16.5-4.6c-6.3,0-11.5,1.5-15.4,4.6c-3.9,3.1-5.9,7-5.9,11.7
	c0,2.7,0.7,5.1,2.1,7.1c1.4,2.1,3.4,3.8,6,5.3s5.9,2.6,10,3.5c4,0.9,6.7,1.8,8.2,2.6c1.4,0.8,2.2,1.9,2.2,3.3c0,1.4-0.5,2.6-1.7,3.5
	c-1.1,0.9-2.8,1.3-5,1.3c-2.4,0-4.4-0.6-5.9-1.7c-1.5-1.1-2.3-2.8-2.4-5.2h-15.1c0,3,1,5.9,2.9,8.7c1.9,2.7,4.7,4.9,8.1,6.5
	c3.5,1.6,7.4,2.4,11.9,2.4c6.7,0,12.1-1.5,16.3-4.5s6.3-6.8,6.3-11.5c0-6.9-3.9-11.7-11.7-14.4c-2.3-0.8-5-1.5-8.1-2.1
	c-3.1-0.6-5.3-1.3-6.7-2.2s-2.1-2.1-2.1-3.5C520.2,415.1,520.7,413.9,521.9,413z M566.7,382.8c-1.7-1.5-3.8-2.2-6.5-2.2
	s-4.8,0.7-6.5,2.2s-2.5,3.4-2.5,5.7c0,2.3,0.8,4.2,2.5,5.7s3.8,2.2,6.5,2.2c2.6,0,4.8-0.7,6.5-2.2s2.5-3.4,2.5-5.7
	C569.2,386.2,568.4,384.3,566.7,382.8z M552.3,453.7h16.2v-51.8h-16.2V453.7z M596.4,401c-5.1,0-9.5,1.1-13.3,3.3
	c-3.8,2.2-6.7,5.3-8.7,9.3s-3,8.6-3,13.8v2.7c0.4,7.6,2.8,13.5,7.2,18c4.5,4.4,10.4,6.6,17.8,6.6c7.7,0,13.7-2.4,18.2-7.1
	s6.7-11.1,6.7-19.2v-0.6c0-8.3-2.2-14.8-6.7-19.6C610.2,403.4,604.1,401,596.4,401z M605.3,428.9c-0.1,8.8-3.1,13.3-8.8,13.3
	c-2.9,0-5.2-1.1-6.7-3.4c-1.5-2.2-2.2-5.7-2.2-10.5v-2.9c0.4-8,3.4-12,8.8-12c5.9,0,8.9,4.6,8.9,13.9V428.9z M665.8,405.8
	c-2.7-3.2-6.7-4.8-12.1-4.8c-6.3,0-11.2,2.3-14.8,7l-0.5-6.1h-15.1v51.8h16.1v-36.6c1.5-2.5,3.9-3.7,7-3.7c2.8,0,4.7,0.6,5.7,1.8
	c1.1,1.2,1.6,3.2,1.6,5.8v32.7h16.2l0-33.4C669.8,413.8,668.4,409,665.8,405.8z"/>
<path class="st1" d="M436,484.6c0-0.3-0.1-0.6-0.3-0.8c-0.2-0.2-0.5-0.3-0.9-0.3s-0.7,0.1-0.9,0.3s-0.3,0.5-0.3,0.8s0.1,0.6,0.3,0.8
	c0.2,0.2,0.5,0.3,0.9,0.3s0.7-0.1,0.9-0.3S436,484.9,436,484.6z"/>
<path class="st1" d="M446.8,483.5c-0.4,0-0.7,0.1-0.9,0.3s-0.3,0.5-0.3,0.8s0.1,0.6,0.3,0.8c0.2,0.2,0.5,0.3,0.9,0.3
	s0.7-0.1,0.9-0.3c0.2-0.2,0.3-0.5,0.3-0.8s-0.1-0.6-0.3-0.8S447.2,483.5,446.8,483.5z"/>
<path class="st1" d="M522.9,484.6c0-0.3-0.1-0.6-0.3-0.8c-0.2-0.2-0.5-0.3-0.9-0.3s-0.7,0.1-0.9,0.3s-0.3,0.5-0.3,0.8
	s0.1,0.6,0.3,0.8c0.2,0.2,0.5,0.3,0.9,0.3s0.7-0.1,0.9-0.3C522.8,485.2,522.9,484.9,522.9,484.6z"/>
<path class="st1" d="M573.5,484.6c0-0.3-0.1-0.6-0.3-0.8c-0.2-0.2-0.5-0.3-0.9-0.3s-0.7,0.1-0.9,0.3s-0.3,0.5-0.3,0.8
	s0.1,0.6,0.3,0.8c0.2,0.2,0.5,0.3,0.9,0.3s0.7-0.1,0.9-0.3S573.5,484.9,573.5,484.6z"/>
<g>
	<polygon class="st1" points="208.4,503.5 196.9,503.5 196.9,494.8 206.9,494.8 206.9,493.3 196.9,493.3 196.9,485.2 208.3,485.2 
		208.3,483.7 195.1,483.7 195.1,505 208.4,505 	"/>
	<polygon class="st1" points="211.5,505.1 216,498.4 220.5,505.1 222.6,505.1 217,497 222.4,489.2 220.3,489.2 216,495.6 
		211.7,489.2 209.6,489.2 215,497 209.4,505.1 	"/>
	<path class="st1" d="M225.9,501.2c0,1.4,0.3,2.5,0.8,3.1c0.5,0.6,1.4,1,2.6,1c0.8,0,1.4,0,1.9-0.2l-0.1-1.4
		c-0.6,0.1-1.1,0.1-1.4,0.1c-0.8,0-1.3-0.2-1.6-0.6c-0.3-0.5-0.5-1.1-0.5-2v-10.6h3.3v-1.4h-3.3v-4.1h-1.7v4.1H223v1.4h2.9V501.2z"
		/>
	<path class="st1" d="M236.2,504.3c1.1,0.7,2.4,1,3.7,1c2.4,0,4.3-0.9,5.7-2.7l-1.1-0.8c-0.6,0.7-1.3,1.3-2,1.6
		c-0.7,0.3-1.6,0.5-2.5,0.5c-1.6,0-2.9-0.6-3.9-1.8c-1-1.2-1.5-2.7-1.5-4.5v-0.3h11.3v-1c0-2.3-0.5-4.1-1.7-5.4s-2.7-2-4.6-2
		c-1.2,0-2.3,0.3-3.4,1c-1.1,0.7-1.9,1.7-2.5,2.9c-0.6,1.2-0.9,2.6-0.9,4.1v0.6c0,1.5,0.3,2.8,0.9,4S235.1,503.6,236.2,504.3z
		 M236.2,491.9c0.9-1,2-1.5,3.3-1.5c1.4,0,2.5,0.6,3.3,1.5c0.8,0.9,1.3,2.2,1.3,3.7v0.2h-9.5C234.7,494.2,235.3,492.9,236.2,491.9z"
		/>
	<path class="st1" d="M250.2,494.1c0.3-1.2,0.8-2.1,1.6-2.7c0.8-0.6,1.7-0.9,2.8-0.9c0.4,0,0.8,0,1.2,0.1l0.1-1.6
		c-0.3-0.1-0.7-0.2-1.2-0.2c-2.1,0-3.6,0.9-4.5,2.8v-2.5h-1.7V505h1.7V494.1z"/>
	<path class="st1" d="M264.7,488.8c-1,0-2,0.3-2.9,0.8c-0.9,0.5-1.6,1.2-2.2,2.2l-0.1-2.7h-1.7V505h1.7v-10.9c0.4-1.1,1-2,1.9-2.7
		c0.9-0.7,1.8-1,2.9-1c1.3,0,2.2,0.3,2.8,1c0.6,0.7,0.9,1.8,0.9,3.2V505h1.8v-10.5c-0.1-1.9-0.5-3.4-1.3-4.3
		C267.7,489.3,266.4,488.8,264.7,488.8z"/>
	<path class="st1" d="M280.1,495.9c-2.3,0-4.1,0.4-5.4,1.3c-1.3,0.9-1.9,2.2-1.9,3.7c0,1.3,0.5,2.3,1.4,3.2c0.9,0.9,2.2,1.3,3.7,1.3
		c1,0,2-0.2,3-0.7s1.8-1.1,2.4-1.9c0,1,0.1,1.7,0.3,2.2l2-0.1v-0.2c-0.3-0.7-0.5-1.9-0.5-3.4v-7.5c-0.1-1.6-0.6-2.8-1.6-3.7
		s-2.4-1.3-4.2-1.3c-1.7,0-3.1,0.5-4.3,1.4c-1.2,0.9-1.8,2-1.8,3.3h1.8c0-0.9,0.4-1.7,1.2-2.3s1.8-0.9,3-0.9c1.4,0,2.4,0.3,3.1,1
		s1,1.6,1,2.7v1.9H280.1z M283.1,500.5c-0.4,1-1.1,1.7-2,2.3c-0.9,0.6-1.9,0.9-3.1,0.9c-1,0-1.9-0.3-2.6-0.9c-0.7-0.6-1-1.3-1-2.2
		c0-1.1,0.5-1.9,1.5-2.6s2.4-1,4.1-1h3.1V500.5z"/>
	<rect x="289" y="482.5" class="st1" width="1.8" height="22.5"/>
	<path class="st1" d="M307.9,495.9c-2.3,0-4.1,0.4-5.4,1.3c-1.3,0.9-1.9,2.2-1.9,3.7c0,1.3,0.5,2.3,1.4,3.2c0.9,0.9,2.2,1.3,3.7,1.3
		c1,0,2-0.2,3-0.7s1.8-1.1,2.4-1.9c0,1,0.1,1.7,0.3,2.2l2-0.1v-0.2c-0.3-0.7-0.5-1.9-0.5-3.4v-7.5c-0.1-1.6-0.6-2.8-1.6-3.7
		s-2.4-1.3-4.2-1.3c-1.7,0-3.1,0.5-4.3,1.4c-1.2,0.9-1.8,2-1.8,3.3h1.8c0-0.9,0.4-1.7,1.2-2.3s1.8-0.9,3-0.9c1.4,0,2.4,0.3,3.1,1
		s1,1.6,1,2.7v1.9H307.9z M311,500.5c-0.4,1-1.1,1.7-2,2.3c-0.9,0.6-1.9,0.9-3.1,0.9c-1.1,0-1.9-0.3-2.6-0.9c-0.7-0.6-1-1.3-1-2.2
		c0-1.1,0.5-1.9,1.5-2.6s2.4-1,4.1-1h3.1V500.5z"/>
	<path class="st1" d="M322.6,505.3c1.1,0,2.1-0.2,3-0.7c0.9-0.5,1.7-1.1,2.2-1.9s0.9-1.6,0.9-2.6H327c0,1.1-0.4,2-1.3,2.7
		c-0.9,0.7-1.9,1-3.1,1c-1.6,0-2.8-0.5-3.7-1.6c-0.9-1.1-1.3-2.7-1.3-4.7V497c0-2.1,0.4-3.7,1.3-4.8c0.9-1.1,2.1-1.7,3.7-1.7
		c1.3,0,2.3,0.3,3.1,1.1c0.8,0.8,1.2,1.8,1.3,3h1.8c-0.1-1.7-0.7-3-1.8-4.1c-1.1-1.1-2.6-1.6-4.3-1.6c-1.4,0-2.5,0.3-3.6,1
		c-1.1,0.7-1.9,1.6-2.4,2.8c-0.5,1.2-0.8,2.5-0.8,4.1v0.5c0,2.4,0.6,4.3,1.8,5.8C318.9,504.6,320.5,505.3,322.6,505.3z"/>
	<path class="st1" d="M337.3,505.3c1.1,0,2.1-0.2,3-0.7c0.9-0.5,1.7-1.1,2.2-1.9s0.9-1.6,0.9-2.6h-1.7c0,1.1-0.4,2-1.3,2.7
		c-0.9,0.7-1.9,1-3.1,1c-1.6,0-2.7-0.5-3.6-1.6c-0.9-1.1-1.3-2.7-1.3-4.7V497c0-2.1,0.4-3.7,1.3-4.8c0.9-1.1,2.1-1.7,3.7-1.7
		c1.3,0,2.3,0.3,3.1,1.1c0.8,0.8,1.2,1.8,1.3,3h1.7c-0.1-1.7-0.7-3-1.8-4.1c-1.1-1.1-2.6-1.6-4.3-1.6c-1.4,0-2.5,0.3-3.6,1
		c-1.1,0.7-1.9,1.6-2.4,2.8c-0.5,1.2-0.8,2.5-0.8,4.1v0.5c0,2.4,0.6,4.3,1.8,5.8S335.2,505.3,337.3,505.3z"/>
	<path class="st1" d="M352.2,505.2c1.4,0,2.6-0.4,3.7-1c1.1-0.6,1.9-1.6,2.5-2.8c0.6-1.2,0.9-2.6,0.9-4.1v-0.4c0-2.5-0.7-4.4-2-5.9
		s-3-2.2-5.1-2.2c-1.4,0-2.6,0.3-3.7,1c-1.1,0.7-1.9,1.7-2.5,2.9c-0.6,1.2-0.9,2.6-0.9,4.1v0.3c0,2.5,0.7,4.4,2,5.9
		S350.1,505.2,352.2,505.2z M346.9,497.1c0-2,0.5-3.6,1.5-4.8s2.2-1.8,3.8-1.8c1.1,0,2,0.3,2.8,0.8s1.4,1.3,1.9,2.3s0.7,2.1,0.7,3.3
		v0.3c0,2-0.6,3.6-1.5,4.8c-0.9,1.2-2.2,1.8-3.8,1.8s-2.9-0.5-3.9-1.8s-1.5-2.8-1.5-4.7V497.1z"/>
	<path class="st1" d="M367.3,505.3c2.4,0,4-0.8,5.1-2.3v2h1.7v-15.9h-1.8v11.5c-0.7,2.1-2.3,3.1-4.8,3.1s-3.7-1.5-3.7-4.5v-10.1
		h-1.7v10.3c0,2,0.4,3.4,1.3,4.4C364.3,504.8,365.6,505.3,367.3,505.3z"/>
	<path class="st1" d="M379.7,494.1c0.4-1.1,1-2,1.9-2.7c0.9-0.7,1.8-1,2.9-1c1.3,0,2.2,0.3,2.8,1c0.6,0.7,0.9,1.8,0.9,3.2V505h1.7
		v-10.5c-0.1-1.9-0.5-3.4-1.3-4.3c-0.8-0.9-2.1-1.4-3.8-1.4c-1,0-2,0.3-2.9,0.8c-0.9,0.5-1.6,1.2-2.2,2.2l-0.1-2.7H378V505h1.7
		V494.1z"/>
	<path class="st1" d="M394.6,501.2c0,1.4,0.3,2.5,0.8,3.1s1.4,1,2.6,1c0.8,0,1.4,0,1.9-0.2l-0.1-1.4c-0.6,0.1-1.1,0.1-1.4,0.1
		c-0.8,0-1.3-0.2-1.6-0.6c-0.3-0.5-0.5-1.1-0.5-2v-10.6h3.3v-1.4h-3.3v-4.1h-1.7v4.1h-2.9v1.4h2.9V501.2z"/>
	<path class="st1" d="M409,495.9c-2.3,0-4.1,0.4-5.4,1.3c-1.3,0.9-1.9,2.2-1.9,3.7c0,1.3,0.5,2.3,1.4,3.2c0.9,0.9,2.2,1.3,3.7,1.3
		c1,0,2-0.2,3-0.7s1.8-1.1,2.4-1.9c0,1,0.1,1.7,0.3,2.2l2-0.1v-0.2c-0.3-0.7-0.5-1.9-0.5-3.4v-7.5c-0.1-1.6-0.6-2.8-1.6-3.7
		s-2.4-1.3-4.2-1.3c-1.7,0-3.1,0.5-4.3,1.4c-1.2,0.9-1.8,2-1.8,3.3h1.8c0-0.9,0.4-1.7,1.2-2.3c0.8-0.6,1.8-0.9,3-0.9
		c1.4,0,2.4,0.3,3.1,1s1,1.6,1,2.7v1.9H409z M412.1,500.5c-0.4,1-1.1,1.7-2,2.3c-0.9,0.6-1.9,0.9-3.1,0.9c-1,0-1.9-0.3-2.6-0.9
		c-0.7-0.6-1-1.3-1-2.2c0-1.1,0.5-1.9,1.5-2.6s2.4-1,4.1-1h3.1V500.5z"/>
	<path class="st1" d="M419.6,502.8c1.1,1.7,2.8,2.5,5,2.5c1.8,0,3.3-0.7,4.4-2.2c1.1-1.5,1.6-3.4,1.6-5.9V497c0-2.6-0.6-4.6-1.6-6
		c-1-1.4-2.5-2.1-4.4-2.1c-2.2,0-3.9,0.9-5,2.6v-9h-1.7V505h1.6L419.6,502.8z M419.5,493.6c0.4-1,1-1.9,1.8-2.4s1.8-0.8,2.9-0.8
		c1.4,0,2.6,0.6,3.4,1.7c0.8,1.1,1.2,2.7,1.2,4.8c0,2.3-0.4,4-1.2,5.1c-0.8,1.1-2,1.7-3.4,1.7c-2.3,0-3.8-1-4.7-3V493.6z"/>
	<rect x="433.9" y="489.1" class="st1" width="1.8" height="15.9"/>
	<rect x="439.8" y="482.5" class="st1" width="1.8" height="22.5"/>
	<rect x="445.8" y="489.1" class="st1" width="1.8" height="15.9"/>
	<path class="st1" d="M452.7,501.2c0,1.4,0.3,2.5,0.8,3.1s1.4,1,2.6,1c0.8,0,1.4,0,1.9-0.2l-0.1-1.4c-0.6,0.1-1.1,0.1-1.4,0.1
		c-0.8,0-1.3-0.2-1.6-0.6c-0.3-0.5-0.5-1.1-0.5-2v-10.6h3.3v-1.4h-3.3v-4.1h-1.7v4.1h-2.9v1.4h2.9V501.2z"/>
	<path class="st1" d="M463.9,507c-0.4,1-0.9,1.8-1.4,2.2c-0.5,0.4-1.2,0.6-2.1,0.6l-0.9-0.1v1.5c0.4,0.1,0.9,0.2,1.3,0.2
		c1.8,0,3.1-1,4-2.9l0.4-0.8l6.8-18.5h-1.9l-4.6,13.3l-4.9-13.3h-1.9l6,15.7L463.9,507z"/>
	<path class="st1" d="M472.1,509c1.4-1.3,2-2.9,2.1-5v-1.8h-1.7v2.3c-0.1,1.3-0.5,2.5-1.4,3.7L472.1,509z"/>
	<rect x="484.2" y="482.5" class="st1" width="1.8" height="22.5"/>
	<path class="st1" d="M492.4,504.3c1.1,0.7,2.4,1,3.7,1c2.5,0,4.3-0.9,5.7-2.7l-1.1-0.8c-0.6,0.7-1.3,1.3-2,1.6
		c-0.7,0.3-1.6,0.5-2.5,0.5c-1.6,0-2.9-0.6-3.9-1.8c-1-1.2-1.5-2.7-1.5-4.5v-0.3h11.3v-1c0-2.3-0.6-4.1-1.7-5.4
		c-1.1-1.3-2.7-2-4.6-2c-1.2,0-2.3,0.3-3.4,1c-1.1,0.7-1.9,1.7-2.5,2.9c-0.6,1.2-0.9,2.6-0.9,4.1v0.6c0,1.5,0.3,2.8,0.9,4
		C490.5,502.7,491.3,503.6,492.4,504.3z M492.5,491.9c0.9-1,2-1.5,3.3-1.5s2.5,0.6,3.3,1.5c0.8,0.9,1.3,2.2,1.3,3.7v0.2h-9.5
		C491,494.2,491.6,492.9,492.5,491.9z"/>
	<path class="st1" d="M510,505.1c2.1,0,3.8-0.7,4.9-2.3v2c-0.1,1.5-0.5,2.7-1.3,3.6c-0.8,0.9-1.9,1.3-3.4,1.3
		c-1.7,0-3.2-0.8-4.4-2.3l-1,1.1c0.6,0.9,1.4,1.5,2.4,2s2.1,0.7,3.2,0.7c1.9,0,3.5-0.7,4.6-1.8c1.1-1.1,1.7-2.8,1.7-4.8v-15.5h-1.6
		l-0.1,2.3c-1.1-1.7-2.7-2.6-4.9-2.6c-1.9,0-3.4,0.7-4.5,2.2c-1.1,1.5-1.6,3.4-1.6,5.9l-0.1,0.1c0,2.5,0.6,4.4,1.7,5.9
		C506.7,504.4,508.2,505.1,510,505.1z M507,492.1c0.8-1.1,1.9-1.7,3.4-1.7c1.1,0,2,0.3,2.8,0.8s1.4,1.3,1.8,2.3v7.4
		c-0.9,1.9-2.4,2.9-4.6,2.9c-1.4,0-2.6-0.6-3.4-1.8c-0.8-1.2-1.2-2.8-1.2-4.8C505.8,495,506.2,493.2,507,492.1z"/>
	<rect x="520.8" y="489.1" class="st1" width="1.8" height="15.9"/>
	<path class="st1" d="M535.3,503.3c-0.8,0.5-1.8,0.8-3,0.8c-1.4,0-2.4-0.3-3.2-0.9c-0.8-0.6-1.2-1.4-1.3-2.4H526
		c0,1.4,0.5,2.5,1.7,3.4c1.2,0.9,2.7,1.3,4.5,1.3c1.7,0,3.1-0.4,4.2-1.2c1.1-0.8,1.6-1.9,1.6-3.2c0-0.8-0.2-1.5-0.6-2.1
		c-0.4-0.6-0.9-1-1.7-1.5s-1.9-0.8-3.5-1.2s-2.6-0.8-3.2-1.2c-0.6-0.4-0.9-1-0.9-1.8s0.3-1.5,1-2s1.6-0.8,2.8-0.8
		c1.1,0,2.1,0.3,2.9,0.9c0.8,0.6,1.2,1.4,1.2,2.3h1.8c0-1.4-0.5-2.5-1.6-3.4c-1.1-0.9-2.5-1.3-4.3-1.3c-1.6,0-2.9,0.4-4,1.2
		c-1.1,0.8-1.6,1.9-1.6,3.1c0,0.8,0.3,1.5,0.6,2s0.9,1,1.7,1.4c0.8,0.4,1.9,0.7,3.3,1c1.4,0.3,2.5,0.7,3.2,1.2s1,1.2,1,2.1
		C536.1,501.8,536.1,502.8,535.3,503.3z"/>
	<rect x="541.2" y="482.5" class="st1" width="1.8" height="22.5"/>
	<path class="st1" d="M553.5,495.9c-2.3,0-4.1,0.4-5.4,1.3c-1.3,0.9-1.9,2.2-1.9,3.7c0,1.3,0.5,2.3,1.4,3.2s2.2,1.3,3.7,1.3
		c1,0,2-0.2,3-0.7s1.8-1.1,2.4-1.9c0,1,0.1,1.7,0.3,2.2l2-0.1v-0.2c-0.3-0.7-0.5-1.9-0.5-3.4v-7.5c-0.1-1.6-0.6-2.8-1.6-3.7
		s-2.4-1.3-4.2-1.3c-1.7,0-3.1,0.5-4.3,1.4c-1.2,0.9-1.8,2-1.8,3.3h1.8c0-0.9,0.4-1.7,1.2-2.3s1.8-0.9,3-0.9c1.4,0,2.4,0.3,3.1,1
		s1,1.6,1,2.7v1.9H553.5z M556.6,500.5c-0.4,1-1.1,1.7-2,2.3s-1.9,0.9-3.1,0.9c-1.1,0-1.9-0.3-2.6-0.9c-0.7-0.6-1-1.3-1-2.2
		c0-1.1,0.5-1.9,1.5-2.6s2.4-1,4.1-1h3.1V500.5z"/>
	<path class="st1" d="M563.3,501.2c0,1.4,0.3,2.5,0.8,3.1s1.4,1,2.6,1c0.8,0,1.4,0,1.9-0.2l-0.1-1.4c-0.6,0.1-1.1,0.1-1.4,0.1
		c-0.8,0-1.3-0.2-1.6-0.6c-0.3-0.5-0.5-1.1-0.5-2v-10.6h3.3v-1.4H565v-4.1h-1.7v4.1h-2.9v1.4h2.9V501.2z"/>
	<rect x="571.4" y="489.1" class="st1" width="1.8" height="15.9"/>
	<polygon class="st1" points="582.8,505.1 588.7,489.2 586.9,489.2 582.1,502.6 577.3,489.2 575.5,489.2 581.4,505.1 	"/>
	<path class="st1" d="M601.4,501.8c-0.6,0.7-1.3,1.3-2,1.6c-0.7,0.3-1.6,0.5-2.5,0.5c-1.6,0-2.9-0.6-3.9-1.8c-1-1.2-1.5-2.7-1.5-4.5
		v-0.3h11.3v-1c0-2.3-0.6-4.1-1.7-5.4s-2.7-2-4.6-2c-1.2,0-2.3,0.3-3.4,1c-1.1,0.7-1.9,1.7-2.5,2.9c-0.6,1.2-0.9,2.6-0.9,4.1v0.6
		c0,1.5,0.3,2.8,0.9,4c0.6,1.2,1.4,2.1,2.5,2.8c1.1,0.7,2.4,1,3.7,1c2.4,0,4.3-0.9,5.7-2.7L601.4,501.8z M593.2,491.9
		c0.9-1,2-1.5,3.3-1.5s2.5,0.6,3.3,1.5c0.8,0.9,1.3,2.2,1.3,3.7v0.2h-9.5C591.7,494.2,592.3,492.9,593.2,491.9z"/>
	<path class="st1" d="M613.7,491.6v-2.5H612V505h1.7v-10.9c0.3-1.2,0.8-2.1,1.6-2.7c0.8-0.6,1.7-0.9,2.8-0.9c0.4,0,0.8,0,1.2,0.1
		l0.1-1.6c-0.3-0.1-0.7-0.2-1.2-0.2C616.1,488.8,614.6,489.7,613.7,491.6z"/>
	<path class="st1" d="M632.9,502.6l-1.1-0.8c-0.6,0.7-1.3,1.3-2,1.6c-0.7,0.3-1.6,0.5-2.5,0.5c-1.6,0-2.9-0.6-3.9-1.8
		c-1-1.2-1.5-2.7-1.5-4.5v-0.3h11.3v-1c0-2.3-0.6-4.1-1.7-5.4s-2.7-2-4.6-2c-1.2,0-2.3,0.3-3.4,1c-1.1,0.7-1.9,1.7-2.5,2.9
		c-0.6,1.2-0.9,2.6-0.9,4.1v0.6c0,1.5,0.3,2.8,0.9,4c0.6,1.2,1.4,2.1,2.5,2.8c1.1,0.7,2.4,1,3.7,1
		C629.6,505.3,631.5,504.4,632.9,502.6z M623.5,491.9c0.9-1,2-1.5,3.3-1.5c1.4,0,2.5,0.6,3.3,1.5c0.8,0.9,1.3,2.2,1.3,3.7v0.2h-9.5
		C622,494.2,622.6,492.9,623.5,491.9z"/>
	<path class="st1" d="M638.8,505v-14.3h3.8v-1.4h-3.8v-2c0-1.1,0.3-2,0.8-2.6c0.6-0.6,1.3-0.9,2.3-0.9c0.6,0,1.1,0.1,1.6,0.2
		l0.1-1.5c-0.6-0.1-1.2-0.2-1.9-0.2c-1.5,0-2.7,0.5-3.5,1.3s-1.2,2.1-1.2,3.7v1.9h-2.6v1.4h2.6V505H638.8z"/>
	<path class="st1" d="M651.1,505.2c1.4,0,2.6-0.4,3.7-1c1.1-0.6,1.9-1.6,2.5-2.8c0.6-1.2,0.9-2.6,0.9-4.1v-0.4c0-2.5-0.7-4.4-2-5.9
		s-3-2.2-5.1-2.2c-1.4,0-2.6,0.3-3.7,1c-1.1,0.7-1.9,1.7-2.5,2.9c-0.6,1.2-0.9,2.6-0.9,4.1v0.3c0,2.5,0.7,4.4,2,5.9
		S649,505.2,651.1,505.2z M645.7,497.1c0-2,0.5-3.6,1.5-4.8s2.2-1.8,3.8-1.8c1.1,0,2,0.3,2.8,0.8s1.4,1.3,1.9,2.3s0.7,2.1,0.7,3.3
		v0.3c0,2-0.6,3.6-1.5,4.8c-0.9,1.2-2.2,1.8-3.8,1.8s-2.9-0.5-3.9-1.8s-1.5-2.8-1.5-4.7V497.1z"/>
	<path class="st1" d="M662.7,491.6v-2.5H661V505h1.7v-10.9c0.3-1.2,0.8-2.1,1.6-2.7c0.8-0.6,1.7-0.9,2.8-0.9c0.4,0,0.8,0,1.2,0.1
		l0.1-1.6c-0.3-0.1-0.7-0.2-1.2-0.2C665.1,488.8,663.6,489.7,662.7,491.6z"/>
	<path class="st1" d="M689.8,491.5c0.6,0.6,0.9,1.7,0.9,3.1V505h1.8v-10.6c-0.1-3.7-1.8-5.6-5.2-5.6c-1.1,0-2.1,0.2-3.1,0.8
		s-1.7,1.3-2.3,2.3c-0.7-2.1-2.3-3.1-4.8-3.1c-1,0-2,0.2-2.9,0.7s-1.6,1.2-2.2,2.2l-0.1-2.6h-1.8V505h1.8v-10.9
		c0.4-1.2,1.1-2.2,1.8-2.8s1.7-0.9,2.8-0.9c1.3,0,2.2,0.4,2.9,1c0.7,0.6,1,1.6,1,3V505h1.8v-10.4c0.1-1.1,0.6-2.1,1.5-2.9
		s1.9-1.2,3.2-1.2S689.2,490.9,689.8,491.5z"/>
	<path class="st1" d="M697.9,504l0-1.8h-1.7v2.3c-0.1,1.3-0.5,2.5-1.4,3.7l1,0.8C697.2,507.7,697.9,506.1,697.9,504z"/>
	<rect x="707.9" y="482.5" class="st1" width="1.8" height="22.5"/>
	<path class="st1" d="M719.8,488.8c-1.4,0-2.6,0.3-3.7,1c-1.1,0.7-1.9,1.7-2.5,2.9c-0.6,1.2-0.9,2.6-0.9,4.1v0.3
		c0,2.5,0.7,4.4,2,5.9s3,2.2,5.1,2.2c1.4,0,2.6-0.4,3.7-1c1.1-0.6,1.9-1.6,2.5-2.8c0.6-1.2,0.9-2.6,0.9-4.1v-0.4
		c0-2.5-0.7-4.4-2-5.9S721.9,488.8,719.8,488.8z M725.2,497.2c0,2-0.6,3.6-1.5,4.8s-2.2,1.8-3.8,1.8s-2.9-0.5-3.9-1.8
		s-1.5-2.8-1.5-4.7v-0.2c0-2,0.5-3.6,1.5-4.8c1-1.2,2.2-1.8,3.8-1.8c1.1,0,2,0.3,2.8,0.8s1.4,1.3,1.9,2.3s0.7,2.1,0.7,3.3V497.2z"/>
	<path class="st1" d="M735.6,505.3c1.1,0,2.1-0.2,3-0.7s1.7-1.1,2.2-1.9s0.9-1.6,0.9-2.6H740c0,1.1-0.4,2-1.3,2.7s-1.9,1-3.1,1
		c-1.6,0-2.8-0.5-3.7-1.6c-0.9-1.1-1.3-2.7-1.3-4.7V497c0-2.1,0.4-3.7,1.3-4.8c0.9-1.1,2.1-1.7,3.7-1.7c1.3,0,2.3,0.3,3.1,1.1
		c0.8,0.8,1.2,1.8,1.3,3h1.8c-0.1-1.7-0.7-3-1.8-4.1c-1.1-1.1-2.6-1.6-4.3-1.6c-1.4,0-2.5,0.3-3.6,1s-1.9,1.6-2.4,2.8
		c-0.5,1.2-0.8,2.5-0.8,4.1v0.5c0,2.4,0.6,4.3,1.8,5.8S733.5,505.3,735.6,505.3z"/>
	<path class="st1" d="M751,495.9c-2.3,0-4.1,0.4-5.4,1.3c-1.3,0.9-1.9,2.2-1.9,3.7c0,1.3,0.5,2.3,1.4,3.2s2.2,1.3,3.7,1.3
		c1,0,2-0.2,3-0.7s1.8-1.1,2.4-1.9c0,1,0.1,1.7,0.3,2.2l2-0.1v-0.2c-0.3-0.7-0.5-1.9-0.5-3.4v-7.5c-0.1-1.6-0.6-2.8-1.6-3.7
		s-2.4-1.3-4.2-1.3c-1.7,0-3.1,0.5-4.3,1.4c-1.2,0.9-1.8,2-1.8,3.3h1.8c0-0.9,0.4-1.7,1.2-2.3s1.8-0.9,3-0.9c1.4,0,2.4,0.3,3.1,1
		s1,1.6,1,2.7v1.9H751z M754,500.5c-0.4,1-1.1,1.7-2,2.3s-1.9,0.9-3.1,0.9c-1,0-1.8-0.3-2.5-0.9c-0.7-0.6-1-1.3-1-2.2
		c0-1.1,0.5-1.9,1.5-2.6s2.4-1,4.1-1h3V500.5z"/>
	<polygon class="st1" points="761.8,505 761.8,482.5 760,482.5 760,505 761.7,505 	"/>
	<path class="st1" d="M784.2,505v-10.4c0.1-1.1,0.6-2.1,1.5-2.9s1.9-1.2,3.2-1.2s2.3,0.4,2.9,1c0.6,0.6,0.9,1.7,0.9,3.1V505h1.8
		v-10.6c-0.1-3.7-1.8-5.6-5.2-5.6c-1.1,0-2.1,0.2-3.1,0.8s-1.7,1.3-2.3,2.3c-0.7-2.1-2.3-3.1-4.8-3.1c-1,0-2,0.2-2.9,0.7
		s-1.6,1.2-2.2,2.2l-0.1-2.6h-1.8V505h1.8v-10.9c0.4-1.2,1.1-2.2,1.8-2.8s1.7-0.9,2.8-0.9c1.3,0,2.2,0.4,2.9,1c0.7,0.6,1,1.6,1,3
		V505H784.2z"/>
	<path class="st1" d="M805.4,504.7c1-0.5,1.8-1.1,2.4-1.9c0,1,0.1,1.7,0.3,2.2l2-0.1v-0.2c-0.3-0.7-0.5-1.9-0.5-3.4v-7.5
		c-0.1-1.6-0.6-2.8-1.6-3.7c-1-0.9-2.4-1.3-4.2-1.3c-1.7,0-3.1,0.5-4.3,1.4c-1.2,0.9-1.8,2-1.8,3.3h1.8c0-0.9,0.4-1.7,1.2-2.3
		c0.8-0.6,1.8-0.9,3-0.9c1.4,0,2.4,0.3,3.1,1s1,1.6,1,2.7v1.9h-3.2c-2.3,0-4.1,0.4-5.4,1.3c-1.3,0.9-1.9,2.2-1.9,3.7
		c0,1.3,0.5,2.3,1.4,3.2c0.9,0.9,2.2,1.3,3.7,1.3C803.4,505.4,804.4,505.2,805.4,504.7z M799,500.6c0-1.1,0.5-1.9,1.5-2.6
		s2.4-1,4.1-1h3.1v3.5c-0.4,1-1.1,1.7-2,2.3s-1.9,0.9-3.1,0.9c-1,0-1.9-0.3-2.6-0.9C799.3,502.2,799,501.5,799,500.6z"/>
	<path class="st1" d="M825.4,505v-10.5c-0.1-1.9-0.5-3.4-1.3-4.3c-0.8-0.9-2.1-1.4-3.8-1.4c-1,0-2,0.3-2.9,0.8s-1.6,1.2-2.2,2.2
		l-0.1-2.7h-1.6V505h1.7v-10.9c0.4-1.1,1-2,1.9-2.7s1.8-1,2.9-1c1.3,0,2.2,0.3,2.8,1s0.9,1.8,0.9,3.2V505H825.4z"/>
	<path class="st1" d="M834.5,505.3c2.2,0,3.9-0.8,5-2.4l0.1,2.1h1.6v-22.6h-1.7v8.9c-1.1-1.7-2.8-2.5-4.9-2.5
		c-1.9,0-3.4,0.7-4.5,2.2s-1.6,3.4-1.6,5.9h-0.1v0.2c0,2.5,0.6,4.5,1.7,6S832.7,505.3,834.5,505.3z M831.4,492.1
		c0.8-1.1,1.9-1.7,3.4-1.7c2.2,0,3.7,1,4.6,3.1v7.4c-0.9,1.9-2.4,2.9-4.6,2.9c-1.4,0-2.6-0.6-3.4-1.8c-0.8-1.2-1.2-2.8-1.2-4.8
		C830.2,495,830.6,493.2,831.4,492.1z"/>
	<path class="st1" d="M857.1,504.7c-0.3-0.7-0.5-1.9-0.5-3.4v-7.5c-0.1-1.6-0.6-2.8-1.6-3.7c-1-0.9-2.4-1.3-4.2-1.3
		c-1.7,0-3.1,0.5-4.3,1.4c-1.2,0.9-1.8,2-1.8,3.3h1.8c0-0.9,0.4-1.7,1.2-2.3c0.8-0.6,1.8-0.9,3-0.9c1.4,0,2.4,0.3,3.1,1s1,1.6,1,2.7
		v1.9h-3.2c-2.3,0-4.1,0.4-5.4,1.3c-1.3,0.9-1.9,2.2-1.9,3.7c0,1.3,0.5,2.3,1.4,3.2c0.9,0.9,2.2,1.3,3.7,1.3c1,0,2-0.3,3-0.7
		c1-0.5,1.8-1.1,2.4-1.9c0,1,0.1,1.7,0.3,2.2l2-0.1V504.7z M854.7,500.5c-0.4,1-1.1,1.7-2,2.3s-1.9,0.9-3.1,0.9
		c-1.1,0-1.9-0.3-2.6-0.9c-0.7-0.6-1-1.3-1-2.2c0-1.1,0.5-1.9,1.5-2.6s2.4-1,4.1-1h3.1V500.5z"/>
	<path class="st1" d="M861.4,501.2c0,1.4,0.3,2.5,0.8,3.1s1.4,1,2.6,1c0.8,0,1.4,0,1.9-0.2l-0.1-1.4c-0.6,0.1-1.1,0.1-1.4,0.1
		c-0.8,0-1.3-0.2-1.6-0.6c-0.3-0.5-0.5-1.1-0.5-2v-10.6h3.3v-1.4h-3.3v-4.1h-1.7v4.1h-2.9v1.4h2.9V501.2z"/>
	<path class="st1" d="M880,501.8c-0.6,0.7-1.3,1.3-2,1.6c-0.7,0.3-1.6,0.5-2.5,0.5c-1.6,0-2.9-0.6-3.9-1.8c-1-1.2-1.5-2.7-1.5-4.5
		v-0.3h11.3v-1c0-2.3-0.6-4.1-1.7-5.4s-2.7-2-4.6-2c-1.2,0-2.3,0.3-3.4,1c-1.1,0.7-1.9,1.7-2.5,2.9c-0.6,1.2-0.9,2.6-0.9,4.1v0.6
		c0,1.5,0.3,2.8,0.9,4c0.6,1.2,1.4,2.1,2.5,2.8c1.1,0.7,2.4,1,3.7,1c2.5,0,4.4-0.9,5.7-2.7L880,501.8z M871.8,491.9
		c0.9-1,2-1.5,3.3-1.5s2.5,0.6,3.3,1.5c0.8,0.9,1.3,2.2,1.3,3.7v0.2h-9.5C870.3,494.2,870.9,492.9,871.8,491.9z"/>
	<path class="st1" d="M893.8,504.3c1.1-0.8,1.6-1.9,1.6-3.2c0-0.8-0.2-1.5-0.6-2.1c-0.4-0.6-0.9-1-1.7-1.5s-2-0.8-3.5-1.2
		c-1.6-0.4-2.6-0.8-3.2-1.2c-0.6-0.4-0.9-1-0.9-1.8s0.3-1.5,1-2s1.6-0.8,2.8-0.8c1.1,0,2.1,0.3,2.9,0.9c0.8,0.6,1.2,1.4,1.2,2.3h1.8
		c0-1.4-0.5-2.5-1.6-3.4c-1.1-0.9-2.5-1.3-4.3-1.3c-1.6,0-2.9,0.4-4,1.2s-1.6,1.9-1.6,3.1c0,0.8,0.3,1.5,0.6,2s0.9,1,1.7,1.4
		c0.8,0.4,1.9,0.7,3.3,1c1.4,0.3,2.5,0.7,3.2,1.2s1,1.2,1,2.1c0,0.8,0,1.8-0.8,2.3s-1.8,0.8-3,0.8c-1.4,0-2.4-0.3-3.2-0.9
		c-0.8-0.6-1.2-1.4-1.3-2.4h-1.8c0,1.4,0.6,2.5,1.7,3.4c1.2,0.9,2.7,1.3,4.5,1.3C891.3,505.5,892.7,505.1,893.8,504.3z"/>
	<path class="st1" d="M898.5,504.5c-0.1,1.3-0.5,2.5-1.4,3.7l1,0.8c1.4-1.3,2.1-2.9,2.1-5v-1.8h-1.7L898.5,504.5z"/>
	<path class="st1" d="M916.5,495.9c-2.3,0-4.1,0.4-5.4,1.3c-1.3,0.9-1.9,2.2-1.9,3.7c0,1.3,0.5,2.3,1.4,3.2s2.2,1.3,3.7,1.3
		c1,0,2-0.3,3-0.7c1-0.5,1.8-1.1,2.4-1.9c0,1,0.1,1.7,0.3,2.2l2-0.1v-0.2c-0.3-0.7-0.5-1.9-0.5-3.4v-7.5c-0.1-1.6-0.6-2.8-1.6-3.7
		s-2.4-1.3-4.2-1.3c-1.7,0-3.1,0.5-4.3,1.4c-1.2,0.9-1.8,2-1.8,3.3h1.8c0-0.9,0.4-1.7,1.2-2.3s1.8-0.9,3-0.9c1.4,0,2.4,0.3,3.1,1
		s1,1.6,1,2.7v1.9H916.5z M919.6,500.5c-0.4,1-1.1,1.7-2,2.3s-1.9,0.9-3.1,0.9c-1,0-1.9-0.3-2.6-0.9c-0.7-0.6-1-1.3-1-2.2
		c0-1.1,0.5-1.9,1.5-2.6s2.4-1,4.1-1h3.1V500.5z"/>
	<path class="st1" d="M935.6,494.6V505h1.7v-10.5c-0.1-1.9-0.5-3.4-1.3-4.3c-0.8-0.9-2.1-1.4-3.8-1.4c-1,0-2,0.3-2.9,0.8
		s-1.6,1.2-2.2,2.2l-0.1-2.7h-1.6V505h1.7v-10.9c0.4-1.1,1.1-2,1.9-2.7c0.9-0.7,1.8-1,2.9-1c1.3,0,2.2,0.3,2.8,1
		S935.6,493.2,935.6,494.6z"/>
	<path class="st1" d="M951.4,502.9l0.1,2.1h1.6v-22.6h-1.7v8.9c-1.1-1.7-2.8-2.5-4.9-2.5c-1.9,0-3.4,0.7-4.5,2.2s-1.6,3.4-1.6,5.9
		h-0.1v0.2c0,2.5,0.6,4.5,1.7,6c1.1,1.5,2.6,2.2,4.4,2.2C948.6,505.3,950.3,504.5,951.4,502.9z M946.7,503.8c-1.4,0-2.6-0.6-3.4-1.8
		c-0.8-1.2-1.2-2.8-1.2-4.8c0-2.2,0.4-4,1.2-5.1c0.8-1.1,1.9-1.7,3.4-1.7c2.2,0,3.7,1,4.6,3.1v7.4
		C950.4,502.8,948.9,503.8,946.7,503.8z"/>
	<path class="st1" d="M969.9,505.1l-0.1-1.4c-0.6,0.1-1.1,0.1-1.4,0.1c-0.8,0-1.3-0.2-1.6-0.6c-0.3-0.5-0.5-1.1-0.5-2v-10.6h3.3
		v-1.4h-3.3v-4.1h-1.7v4.1h-2.9v1.4h2.9v10.6c0,1.4,0.3,2.5,0.8,3.1c0.5,0.6,1.4,1,2.6,1C968.8,505.3,969.4,505.3,969.9,505.1z"/>
	<path class="st1" d="M981.8,491.4c0.6,0.7,0.9,1.8,0.9,3.2V505h1.7v-10.5c-0.1-1.9-0.5-3.4-1.3-4.3c-0.8-0.9-2.1-1.4-3.8-1.4
		c-1,0-2,0.3-2.9,0.8s-1.6,1.3-2.2,2.2v-9.3h-1.7V505h1.7v-10.9c0.4-1.1,1.1-2,1.9-2.7c0.9-0.7,1.8-1,2.9-1
		C980.3,490.4,981.2,490.7,981.8,491.4z"/>
	<path class="st1" d="M1000,502.6l-1.1-0.8c-0.6,0.7-1.3,1.3-2,1.6c-0.7,0.3-1.6,0.5-2.5,0.5c-1.6,0-2.9-0.6-3.9-1.8
		c-1-1.2-1.5-2.7-1.5-4.5v-0.3h11.3v-1c0-2.3-0.6-4.1-1.7-5.4s-2.7-2-4.6-2c-1.2,0-2.3,0.3-3.4,1c-1.1,0.7-1.9,1.7-2.5,2.9
		s-0.9,2.6-0.9,4.1v0.6c0,1.5,0.3,2.8,0.9,4c0.6,1.2,1.4,2.1,2.5,2.8c1.1,0.7,2.4,1,3.7,1C996.7,505.3,998.6,504.4,1000,502.6z
		 M990.7,491.9c0.9-1,2-1.5,3.3-1.5s2.5,0.6,3.3,1.5c0.8,0.9,1.3,2.2,1.3,3.7v0.2h-9.5C989.2,494.2,989.8,492.9,990.7,491.9z"/>
	<path class="st1" d="M200,541.3c2.2,0,3.9-0.8,5-2.4l0.1,2.1h1.6v-22.6H205v8.9c-1.1-1.7-2.8-2.5-4.9-2.5c-1.9,0-3.4,0.7-4.5,2.2
		c-1.1,1.5-1.6,3.4-1.6,5.9l-0.1,0.2c0,2.5,0.6,4.5,1.7,6C196.7,540.6,198.2,541.3,200,541.3z M197,528.1c0.8-1.1,1.9-1.7,3.4-1.7
		c2.2,0,3.7,1,4.6,3.1v7.4c-0.9,1.9-2.4,2.9-4.6,2.9c-1.4,0-2.6-0.6-3.4-1.8s-1.2-2.8-1.2-4.8C195.8,531,196.2,529.2,197,528.1z"/>
	<path class="st1" d="M220.3,538.8c0,1,0.1,1.7,0.3,2.2l2-0.1v-0.2c-0.3-0.7-0.5-1.9-0.5-3.4v-7.5c-0.1-1.6-0.6-2.8-1.6-3.7
		s-2.4-1.3-4.2-1.3c-1.7,0-3.1,0.5-4.3,1.4s-1.8,2-1.8,3.3h1.8c0-0.9,0.4-1.7,1.2-2.3s1.8-0.9,3-0.9c1.4,0,2.4,0.3,3.1,1
		s1,1.6,1,2.7v1.9h-3.2c-2.3,0-4.1,0.4-5.4,1.3s-1.9,2.2-1.9,3.7c0,1.3,0.5,2.3,1.4,3.2c0.9,0.9,2.2,1.3,3.7,1.3c1,0,2-0.2,3-0.7
		S219.7,539.6,220.3,538.8z M218.2,538.9c-0.9,0.5-1.9,0.8-3.1,0.8c-1.1,0-1.9-0.2-2.6-0.8s-1-1.3-1-2.2c0-1.1,0.5-1.9,1.5-2.6
		s2.4-1,4.1-1h3.1v3.5C219.8,537.6,219.1,538.4,218.2,538.9z"/>
	<path class="st1" d="M227.7,545.2c-0.5,0.4-1.2,0.6-2.1,0.6l-0.9-0.1v1.5c0.4,0.1,0.9,0.2,1.3,0.2c1.8,0,3.1-1,4-2.9l0.4-0.8
		l6.8-18.5h-1.9l-4.6,13.3l-4.9-13.3h-1.9l6,15.7l-0.8,2.1C228.7,544,228.2,544.8,227.7,545.2z"/>
	<rect x="237.7" y="530.8" class="st1" width="7" height="1.5"/>
	<path class="st1" d="M253.4,541.1l-0.1-1.4c-0.6,0.1-1.1,0.1-1.4,0.1c-0.8,0-1.3-0.2-1.6-0.6c-0.3-0.5-0.5-1.1-0.5-2v-10.6h3.3
		v-1.4h-3.3v-4.1h-1.7v4.1h-2.9v1.4h2.9v10.6c0,1.4,0.3,2.4,0.8,3.1s1.4,1,2.6,1C252.3,541.3,252.9,541.3,253.4,541.1z"/>
	<path class="st1" d="M261.8,524.9c-1.4,0-2.6,0.4-3.7,1c-1.1,0.6-1.9,1.6-2.5,2.8c-0.6,1.2-0.9,2.6-0.9,4.1v0.4
		c0,2.5,0.7,4.4,2,5.9c1.3,1.5,3,2.2,5.1,2.2c1.4,0,2.6-0.4,3.7-1c1.1-0.6,1.9-1.6,2.5-2.8c0.6-1.2,0.9-2.6,0.9-4.1V533
		c0-2.5-0.7-4.4-2-5.9S263.9,524.9,261.8,524.9z M267.1,533.2c0,2-0.6,3.6-1.5,4.8c-0.9,1.2-2.2,1.8-3.8,1.8c-1.6,0-2.9-0.5-3.9-1.8
		s-1.5-2.8-1.5-4.7v-0.2c0-2,0.5-3.6,1.5-4.8s2.2-1.8,3.8-1.8c1.1,0,2,0.3,2.8,0.8s1.4,1.3,1.9,2.3s0.7,2.1,0.7,3.3V533.2z"/>
	<rect x="270.1" y="530.8" class="st1" width="7" height="1.5"/>
	<path class="st1" d="M289.8,538.9l0.1,2.1h1.6v-22.6h-1.7v8.9c-1.1-1.7-2.8-2.5-4.9-2.5c-1.9,0-3.4,0.7-4.5,2.2
		c-1.1,1.5-1.6,3.4-1.6,5.9l-0.1,0.2c0,2.5,0.6,4.5,1.7,6c1.1,1.5,2.6,2.2,4.4,2.2C287,541.3,288.7,540.5,289.8,538.9z M285.2,539.8
		c-1.4,0-2.6-0.6-3.4-1.8s-1.2-2.8-1.2-4.8c0-2.2,0.4-4,1.2-5.1c0.8-1.1,1.9-1.7,3.4-1.7c2.2,0,3.7,1,4.6,3.1v7.4
		C288.9,538.8,287.4,539.8,285.2,539.8z"/>
	<path class="st1" d="M305.1,538.8c0,1,0.1,1.7,0.3,2.2l2-0.1v-0.2c-0.3-0.7-0.5-1.9-0.5-3.4v-7.5c-0.1-1.6-0.6-2.8-1.6-3.7
		s-2.4-1.3-4.2-1.3c-1.7,0-3.1,0.5-4.3,1.4s-1.8,2-1.8,3.3h1.8c0-0.9,0.4-1.7,1.2-2.3c0.8-0.6,1.8-0.9,3-0.9c1.4,0,2.4,0.3,3.1,1
		s1,1.6,1,2.7v1.9h-3.2c-2.3,0-4.1,0.4-5.4,1.3s-1.9,2.2-1.9,3.7c0,1.3,0.5,2.3,1.4,3.2c0.9,0.9,2.2,1.3,3.7,1.3c1,0,2-0.2,3-0.7
		S304.5,539.6,305.1,538.8z M303,538.9c-0.9,0.5-1.9,0.8-3.1,0.8c-1,0-1.8-0.2-2.5-0.8s-1-1.3-1-2.2c0-1.1,0.5-1.9,1.5-2.6
		s2.4-1,4.1-1h3v3.5C304.6,537.6,303.9,538.4,303,538.9z"/>
	<path class="st1" d="M308.8,525.2l6,15.7L314,543c-0.4,1-0.9,1.8-1.4,2.2s-1.2,0.6-2.1,0.6l-0.9-0.1v1.5c0.4,0.1,0.9,0.2,1.3,0.2
		c1.8,0,3.1-1,4-2.9l0.4-0.8l6.8-18.5h-1.9l-4.6,13.3l-4.9-13.3H308.8z"/>
	<path class="st1" d="M339.4,540.6c0.9-0.5,1.7-1.1,2.2-1.9s0.9-1.6,0.9-2.6h-1.7c0,1.1-0.4,2-1.3,2.7c-0.9,0.7-1.9,1-3.1,1
		c-1.5,0-2.7-0.5-3.6-1.6c-0.9-1.1-1.3-2.7-1.3-4.7V533c0-2.1,0.4-3.7,1.3-4.8c0.9-1.1,2.1-1.7,3.7-1.7c1.3,0,2.3,0.3,3.1,1.1
		c0.8,0.8,1.2,1.8,1.3,3h1.7c-0.1-1.7-0.7-3-1.8-4.1s-2.6-1.6-4.3-1.6c-1.4,0-2.5,0.3-3.6,1c-1.1,0.7-1.9,1.6-2.4,2.8
		s-0.8,2.5-0.8,4.1v0.5c0,2.4,0.6,4.3,1.8,5.8s2.8,2.2,4.9,2.2C337.5,541.3,338.5,541.1,339.4,540.6z"/>
	<path class="st1" d="M354.6,527.4c0.6,0.7,0.9,1.8,0.9,3.2V541h1.7v-10.5c-0.1-1.9-0.5-3.4-1.3-4.3s-2.1-1.4-3.8-1.4
		c-1,0-2,0.3-2.9,0.8c-0.9,0.5-1.6,1.3-2.2,2.2v-9.3h-1.7V541h1.7v-10.9c0.4-1.1,1-2,1.9-2.7c0.9-0.7,1.8-1,2.9-1
		C353.1,526.4,354,526.7,354.6,527.4z"/>
	<path class="st1" d="M367.5,531.9c-2.3,0-4.1,0.4-5.4,1.3s-1.9,2.2-1.9,3.7c0,1.3,0.5,2.3,1.4,3.2c0.9,0.9,2.2,1.3,3.7,1.3
		c1,0,2-0.2,3-0.7s1.8-1.1,2.4-1.9c0,1,0.1,1.7,0.3,2.2l2-0.1v-0.2c-0.3-0.7-0.5-1.9-0.5-3.4v-7.5c-0.1-1.6-0.6-2.8-1.6-3.7
		s-2.4-1.3-4.2-1.3c-1.7,0-3.1,0.5-4.3,1.4c-1.2,0.9-1.8,2-1.8,3.3h1.8c0-0.9,0.4-1.7,1.2-2.3c0.8-0.6,1.8-0.9,3-0.9
		c1.4,0,2.4,0.3,3.1,1s1,1.6,1,2.7v1.9H367.5z M370.6,536.6c-0.4,1-1.1,1.8-2,2.3c-0.9,0.5-1.9,0.8-3.1,0.8c-1,0-1.9-0.2-2.6-0.8
		s-1-1.3-1-2.2c0-1.1,0.5-1.9,1.5-2.6s2.4-1,4.1-1h3.1V536.6z"/>
	<rect x="376.5" y="518.5" class="st1" width="1.8" height="22.5"/>
	<rect x="382.5" y="518.5" class="st1" width="1.8" height="22.5"/>
	<path class="st1" d="M400,538.6l-1.1-0.8c-0.6,0.7-1.3,1.3-2,1.6s-1.6,0.5-2.5,0.5c-1.6,0-2.9-0.6-3.9-1.8s-1.5-2.7-1.5-4.5v-0.3
		h11.4v-1c0-2.3-0.6-4.1-1.7-5.4c-1.1-1.3-2.7-2-4.6-2c-1.2,0-2.3,0.3-3.4,1c-1.1,0.7-1.9,1.7-2.5,2.9c-0.6,1.2-0.9,2.6-0.9,4.1v0.6
		c0,1.5,0.3,2.8,0.9,4c0.6,1.2,1.4,2.1,2.5,2.8c1.1,0.7,2.4,1,3.7,1C396.9,541.3,398.7,540.4,400,538.6z M390.8,527.8
		c0.9-1,2-1.5,3.3-1.5s2.5,0.6,3.3,1.5s1.3,2.2,1.3,3.7v0.2h-9.5C389.3,530.1,389.9,528.8,390.8,527.8z"/>
	<path class="st1" d="M413.3,530.6V541h1.7v-10.5c-0.1-1.9-0.5-3.4-1.3-4.3s-2.1-1.4-3.8-1.4c-1,0-2,0.3-2.9,0.8
		c-0.9,0.5-1.6,1.2-2.2,2.2l-0.1-2.7l-1.7,0.1V541h1.8v-10.9c0.4-1.1,1-2,1.9-2.7c0.9-0.7,1.8-1,2.9-1c1.3,0,2.2,0.3,2.8,1
		C413,528.1,413.3,529.2,413.3,530.6z"/>
	<path class="st1" d="M430.7,540.6v-15.5h-1.6l-0.1,2.3c-1.1-1.7-2.7-2.6-4.9-2.6c-1.9,0-3.4,0.7-4.5,2.2c-1.1,1.5-1.6,3.4-1.6,5.9
		l-0.1,0.1c0,2.5,0.6,4.4,1.7,5.9c1.1,1.5,2.6,2.2,4.4,2.2c2.1,0,3.8-0.7,4.9-2.3v2c-0.1,1.5-0.5,2.7-1.3,3.6s-1.9,1.3-3.4,1.3
		c-1.7,0-3.2-0.8-4.4-2.3l-1,1.1c0.6,0.9,1.4,1.5,2.4,2s2.1,0.7,3.2,0.7c1.9,0,3.5-0.7,4.6-1.8C430.1,544.3,430.7,542.6,430.7,540.6
		z M429,536.9c-0.9,1.9-2.4,2.9-4.6,2.9c-1.4,0-2.6-0.6-3.4-1.8s-1.2-2.8-1.2-4.8c0-2.2,0.4-4,1.2-5.1c0.8-1.1,1.9-1.7,3.4-1.7
		c1.1,0,2,0.3,2.8,0.8s1.4,1.3,1.8,2.3V536.9z"/>
	<path class="st1" d="M440.5,524.9c-1.2,0-2.3,0.3-3.4,1c-1.1,0.7-1.9,1.7-2.5,2.9c-0.6,1.2-0.9,2.6-0.9,4.1v0.6
		c0,1.5,0.3,2.8,0.9,4c0.6,1.2,1.4,2.1,2.5,2.8c1.1,0.7,2.4,1,3.7,1c2.4,0,4.3-0.9,5.7-2.7l-1.1-0.8c-0.6,0.7-1.3,1.3-2,1.6
		s-1.6,0.5-2.5,0.5c-1.6,0-2.9-0.6-3.9-1.8s-1.5-2.7-1.5-4.5v-0.3h11.3v-1c0-2.3-0.6-4.1-1.7-5.4C444,525.6,442.4,524.9,440.5,524.9
		z M435.6,531.7c0.1-1.6,0.7-2.9,1.6-3.9c0.9-1,2-1.5,3.3-1.5s2.5,0.6,3.3,1.5s1.3,2.2,1.3,3.7l0,0.2H435.6z"/>
	<path class="st1" d="M460.8,537.1c0-0.8-0.2-1.5-0.6-2.1c-0.4-0.6-0.9-1-1.7-1.5c-0.8-0.5-1.9-0.8-3.5-1.2
		c-1.6-0.4-2.6-0.8-3.2-1.2c-0.6-0.4-0.9-1-0.9-1.8s0.3-1.5,1-2s1.6-0.8,2.8-0.8c1.1,0,2.1,0.3,2.9,0.9c0.8,0.6,1.2,1.4,1.2,2.3h1.8
		c0-1.4-0.5-2.5-1.6-3.4c-1.1-0.9-2.5-1.3-4.3-1.3c-1.6,0-2.9,0.4-4,1.2c-1.1,0.8-1.6,1.9-1.6,3.1c0,0.8,0.3,1.5,0.6,2
		s0.9,1,1.7,1.4c0.8,0.4,1.9,0.7,3.3,1c1.4,0.3,2.5,0.7,3.2,1.2s1,1.2,1,2.1c0,0.8,0,1.8-0.8,2.3s-1.8,0.8-3,0.8
		c-1.4,0-2.4-0.3-3.2-0.9c-0.8-0.6-1.2-1.4-1.3-2.4h-1.8c0,1.4,0.5,2.5,1.7,3.4s2.7,1.3,4.5,1.3c1.7,0,3.1-0.4,4.2-1.2
		C460.3,539.5,460.8,538.4,460.8,537.1z"/>
	<path class="st1" d="M476.5,524.9c-1.4,0-2.6,0.4-3.7,1c-1.1,0.6-1.9,1.6-2.5,2.8c-0.6,1.2-0.9,2.6-0.9,4.1v0.4
		c0,2.5,0.7,4.4,2,5.9s3,2.2,5.1,2.2c1.4,0,2.6-0.4,3.7-1c1.1-0.6,1.9-1.6,2.5-2.8c0.6-1.2,0.9-2.6,0.9-4.1V533c0-2.5-0.7-4.4-2-5.9
		C480.3,525.6,478.6,524.9,476.5,524.9z M481.9,533.2c0,2-0.6,3.6-1.5,4.8c-0.9,1.2-2.2,1.8-3.8,1.8c-1.6,0-2.9-0.5-3.9-1.8
		s-1.5-2.8-1.5-4.7v-0.2c0-2,0.5-3.6,1.5-4.8s2.2-1.8,3.8-1.8c1.1,0,2,0.3,2.8,0.8s1.4,1.3,1.9,2.3s0.7,2.1,0.7,3.3V533.2z"/>
	<path class="st1" d="M485.1,526.6h2.6V541h1.8v-14.3h3.8v-1.4h-3.8v-2c0-1.1,0.3-2,0.8-2.6c0.6-0.6,1.3-0.9,2.3-0.9
		c0.6,0,1.1,0.1,1.6,0.2l0.1-1.5c-0.6-0.1-1.2-0.2-1.9-0.2c-1.5,0-2.7,0.5-3.5,1.3s-1.2,2.1-1.2,3.7v1.9h-2.6V526.6z"/>
	<path class="st1" d="M503.9,530.1c0.3-1.2,0.8-2.1,1.6-2.7c0.8-0.6,1.7-0.9,2.8-0.9c0.4,0,0.8,0,1.2,0.1l0.1-1.5
		c-0.3-0.1-0.7-0.2-1.2-0.2c-2.1,0-3.6,0.9-4.5,2.8v-2.5h-1.7V541h1.7V530.1z"/>
	<path class="st1" d="M521.7,539v2h1.7v-15.9h-1.8v11.5c-0.7,2.1-2.3,3.1-4.8,3.1s-3.7-1.5-3.7-4.5v-10.1h-1.7v10.3
		c0,2,0.4,3.4,1.3,4.4c0.9,1,2.2,1.5,3.9,1.5C519,541.3,520.6,540.5,521.7,539z"/>
	<path class="st1" d="M534.1,524.8c-1,0-2,0.3-2.9,0.8s-1.6,1.2-2.2,2.2l-0.1-2.7l-1.6,0.1V541h1.7v-10.9c0.4-1.1,1-2,1.9-2.7
		s1.8-1,2.9-1c1.3,0,2.2,0.3,2.8,1s0.9,1.8,0.9,3.2V541h1.7v-10.5c-0.1-1.9-0.5-3.4-1.3-4.3S535.8,524.8,534.1,524.8z"/>
	<path class="st1" d="M554.9,541v-10.5c-0.1-1.9-0.5-3.4-1.3-4.3s-2.1-1.4-3.8-1.4c-1,0-2,0.3-2.9,0.8s-1.6,1.2-2.2,2.2l-0.1-2.7
		l-1.6,0.1V541h1.7v-10.9c0.4-1.1,1-2,1.9-2.7s1.8-1,2.9-1c1.3,0,2.2,0.3,2.8,1s0.9,1.8,0.9,3.2V541H554.9z"/>
	<rect x="558.8" y="525.2" class="st1" width="1.8" height="15.8"/>
	<path class="st1" d="M558.6,520.6c0,0.3,0.1,0.6,0.3,0.8s0.5,0.3,0.9,0.3s0.7-0.1,0.9-0.3s0.3-0.5,0.3-0.8c0-0.3-0.1-0.6-0.3-0.8
		s-0.5-0.3-0.9-0.3s-0.7,0.1-0.9,0.3S558.6,520.3,558.6,520.6z"/>
	<path class="st1" d="M571.5,524.8c-1,0-2,0.3-2.9,0.8s-1.6,1.2-2.2,2.2l-0.1-2.7l-1.6,0.1V541h1.7v-10.9c0.4-1.1,1-2,1.9-2.7
		s1.8-1,2.9-1c1.3,0,2.2,0.3,2.8,1s0.9,1.8,0.9,3.2V541h1.7v-10.5c-0.1-1.9-0.5-3.4-1.3-4.3S573.2,524.8,571.5,524.8z"/>
	<path class="st1" d="M592.4,525.1h-1.6l-0.1,2.3c-1.1-1.7-2.7-2.6-4.9-2.6c-1.9,0-3.4,0.7-4.5,2.2s-1.6,3.4-1.6,5.9l-0.1,0.1
		c0,2.5,0.6,4.4,1.7,5.9s2.6,2.2,4.4,2.2c2.1,0,3.8-0.7,4.9-2.3v2c-0.1,1.5-0.5,2.7-1.3,3.6s-1.9,1.3-3.4,1.3
		c-1.7,0-3.2-0.8-4.4-2.3l-1,1.1c0.6,0.9,1.4,1.5,2.4,2s2.1,0.7,3.2,0.7c1.9,0,3.5-0.7,4.6-1.8s1.7-2.8,1.7-4.8L592.4,525.1z
		 M590.7,536.9c-0.9,1.9-2.4,2.9-4.6,2.9c-1.4,0-2.6-0.6-3.4-1.8s-1.2-2.8-1.2-4.8c0-2.2,0.4-4,1.2-5.1s1.9-1.7,3.4-1.7
		c1.1,0,2,0.3,2.8,0.8s1.4,1.3,1.8,2.3V536.9z"/>
	<path class="st1" d="M614.3,529.8c-0.1-1.6-0.6-2.8-1.6-3.7s-2.4-1.3-4.2-1.3c-1.7,0-3.1,0.5-4.3,1.4s-1.8,2-1.8,3.3h1.8
		c0-0.9,0.4-1.7,1.2-2.3s1.8-0.9,3-0.9c1.4,0,2.4,0.3,3.1,1s1,1.6,1,2.7v1.9h-3.2c-2.3,0-4.1,0.4-5.4,1.3s-1.9,2.2-1.9,3.7
		c0,1.3,0.5,2.3,1.4,3.2s2.2,1.3,3.7,1.3c1,0,2-0.2,3-0.7s1.8-1.1,2.4-1.9c0,1,0.1,1.7,0.3,2.2l2-0.1v-0.2c-0.3-0.7-0.5-1.9-0.5-3.4
		V529.8z M612.4,536.6c-0.4,1-1.1,1.8-2,2.3s-1.9,0.8-3.1,0.8c-1,0-1.9-0.2-2.6-0.8s-1-1.3-1-2.2c0-1.1,0.5-1.9,1.5-2.6s2.4-1,4.1-1
		h3.1V536.6z"/>
	<path class="st1" d="M633.8,533.5c-0.8-0.5-1.9-0.8-3.5-1.2s-2.6-0.8-3.2-1.2s-0.9-1-0.9-1.8s0.3-1.5,1-2s1.6-0.8,2.8-0.8
		c1.1,0,2.1,0.3,2.9,0.9s1.2,1.4,1.2,2.3h1.8c0-1.4-0.5-2.5-1.6-3.4s-2.5-1.3-4.3-1.3c-1.6,0-2.9,0.4-4,1.2s-1.6,1.9-1.6,3.1
		c0,0.8,0.3,1.5,0.6,2s0.9,1,1.7,1.4s1.9,0.7,3.3,1s2.5,0.7,3.2,1.2s1,1.2,1,2.1c0,0.8,0,1.8-0.8,2.3s-1.8,0.8-3,0.8
		c-1.4,0-2.4-0.3-3.2-0.9s-1.2-1.4-1.3-2.4h-1.8c0,1.4,0.5,2.5,1.7,3.4s2.7,1.3,4.5,1.3c1.7,0,3.1-0.4,4.2-1.2s1.6-1.9,1.6-3.2
		c0-0.8-0.2-1.5-0.6-2.1S634.6,534,633.8,533.5z"/>
	<path class="st1" d="M641.4,528.2c0.9-1.1,2.1-1.7,3.7-1.7c1.3,0,2.3,0.3,3.1,1.1s1.2,1.8,1.3,3h1.7c-0.1-1.7-0.7-3-1.8-4.1
		s-2.6-1.6-4.3-1.6c-1.4,0-2.5,0.3-3.6,1s-1.9,1.6-2.4,2.8s-0.8,2.5-0.8,4.1v0.5c0,2.4,0.6,4.3,1.8,5.8s2.8,2.2,4.9,2.2
		c1.1,0,2.1-0.2,3-0.7s1.7-1.1,2.2-1.9s0.9-1.6,0.9-2.6h-1.7c0,1.1-0.4,2-1.3,2.7s-1.9,1-3.1,1c-1.6,0-2.7-0.5-3.6-1.6
		s-1.3-2.7-1.3-4.7V533C640.1,530.9,640.5,529.3,641.4,528.2z"/>
	<path class="st1" d="M660.7,524.8c-1,0-2,0.3-2.9,0.8s-1.6,1.3-2.2,2.2l-0.1-9.3h-1.7V541h1.7v-10.9c0.4-1.1,1-2,1.9-2.7
		s1.8-1,2.9-1c1.3,0,2.2,0.3,2.8,1s0.9,1.8,0.9,3.2V541h1.8v-10.5c-0.1-1.9-0.5-3.4-1.3-4.3S662.4,524.8,660.7,524.8z"/>
	<path class="st1" d="M675.7,524.9c-1.4,0-2.6,0.4-3.7,1s-1.9,1.6-2.5,2.8s-0.9,2.6-0.9,4.1v0.4c0,2.5,0.7,4.4,2,5.9s3,2.2,5.1,2.2
		c1.4,0,2.6-0.4,3.7-1s1.9-1.6,2.5-2.8s0.9-2.6,0.9-4.1V533c0-2.5-0.7-4.4-2-5.9S677.8,524.9,675.7,524.9z M681,533.2
		c0,2-0.6,3.6-1.5,4.8s-2.2,1.8-3.8,1.8s-2.9-0.5-3.9-1.8s-1.5-2.8-1.5-4.7v-0.2c0-2,0.5-3.6,1.5-4.8s2.2-1.8,3.8-1.8
		c1.1,0,2,0.3,2.8,0.8s1.4,1.3,1.9,2.3s0.7,2.1,0.7,3.3V533.2z"/>
	<path class="st1" d="M691.7,524.9c-1.4,0-2.6,0.4-3.7,1s-1.9,1.6-2.5,2.8s-0.9,2.6-0.9,4.1v0.4c0,2.5,0.7,4.4,2,5.9s3,2.2,5.1,2.2
		c1.4,0,2.6-0.4,3.7-1s1.9-1.6,2.5-2.8s0.9-2.6,0.9-4.1V533c0-2.5-0.7-4.4-2-5.9S693.8,524.9,691.7,524.9z M697.1,533.2
		c0,2-0.6,3.6-1.5,4.8s-2.2,1.8-3.8,1.8s-2.9-0.5-3.9-1.8s-1.5-2.8-1.5-4.7v-0.2c0-2,0.5-3.6,1.5-4.8s2.2-1.8,3.8-1.8
		c1.1,0,2,0.3,2.8,0.8s1.4,1.3,1.9,2.3s0.7,2.1,0.7,3.3V533.2z"/>
	<rect x="701.8" y="518.5" class="st1" width="1.8" height="22.5"/>
	<path class="st1" d="M716.4,528.2c0.9-1.1,2.1-1.7,3.7-1.7c1.3,0,2.3,0.3,3.1,1.1s1.2,1.8,1.3,3h1.7c-0.1-1.7-0.7-3-1.8-4.1
		s-2.6-1.6-4.3-1.6c-1.4,0-2.5,0.3-3.6,1s-1.9,1.6-2.4,2.8s-0.8,2.5-0.8,4.1v0.5c0,2.4,0.6,4.3,1.8,5.8s2.8,2.2,4.9,2.2
		c1.1,0,2.1-0.2,3-0.7s1.7-1.1,2.2-1.9s0.9-1.6,0.9-2.6h-1.7c0,1.1-0.4,2-1.3,2.7s-1.9,1-3.1,1c-1.6,0-2.7-0.5-3.6-1.6
		s-1.3-2.7-1.3-4.7V533C715.1,530.9,715.5,529.3,716.4,528.2z"/>
	<path class="st1" d="M735,524.9c-1.4,0-2.6,0.4-3.7,1s-1.9,1.6-2.5,2.8s-0.9,2.6-0.9,4.1v0.4c0,2.5,0.7,4.4,2,5.9s3,2.2,5.1,2.2
		c1.4,0,2.6-0.4,3.7-1s1.9-1.6,2.5-2.8s0.9-2.6,0.9-4.1V533c0-2.5-0.7-4.4-2-5.9S737.1,524.9,735,524.9z M740.4,533.2
		c0,2-0.6,3.6-1.5,4.8s-2.2,1.8-3.8,1.8s-2.9-0.5-3.9-1.8s-1.5-2.8-1.5-4.7v-0.2c0-2,0.5-3.6,1.5-4.8s2.2-1.8,3.8-1.8
		c1.1,0,2,0.3,2.8,0.8s1.4,1.3,1.9,2.3s0.7,2.1,0.7,3.3V533.2z"/>
	<path class="st1" d="M751.8,524.8c-1,0-2,0.3-2.9,0.8s-1.6,1.2-2.2,2.2l-0.1-2.7l-1.6,0.1V541h1.7v-10.9c0.4-1.1,1-2,1.9-2.7
		s1.8-1,2.9-1c1.3,0,2.2,0.3,2.8,1s0.9,1.8,0.9,3.2V541h1.7v-10.5c-0.1-1.9-0.5-3.4-1.3-4.3S753.5,524.8,751.8,524.8z"/>
	<path class="st1" d="M769.7,533.5c-0.8-0.5-1.9-0.8-3.5-1.2s-2.6-0.8-3.2-1.2s-0.9-1-0.9-1.8s0.3-1.5,1-2s1.6-0.8,2.8-0.8
		c1.1,0,2.1,0.3,2.9,0.9s1.2,1.4,1.2,2.3h1.8c0-1.4-0.5-2.5-1.6-3.4s-2.5-1.3-4.3-1.3c-1.6,0-2.9,0.4-4,1.2s-1.6,1.9-1.6,3.1
		c0,0.8,0.3,1.5,0.6,2s0.9,1,1.7,1.4s1.9,0.7,3.3,1s2.5,0.7,3.2,1.2s1,1.2,1,2.1c0,0.8,0,1.8-0.8,2.3s-1.8,0.8-3,0.8
		c-1.4,0-2.4-0.3-3.2-0.9s-1.2-1.4-1.3-2.4H760c0,1.4,0.5,2.5,1.7,3.4s2.7,1.3,4.5,1.3c1.7,0,3.1-0.4,4.2-1.2s1.6-1.9,1.6-3.2
		c0-0.8-0.2-1.5-0.6-2.1S770.5,534,769.7,533.5z"/>
	<path class="st1" d="M779.9,539.8c-0.8,0-1.3-0.2-1.6-0.6c-0.3-0.5-0.5-1.1-0.5-2v-10.6h3.3v-1.4h-3.3v-4.1h-1.7v4.1h-2.9v1.4h2.9
		v10.6c0,1.4,0.3,2.4,0.8,3.1s1.4,1,2.6,1c0.8,0,1.4,0,1.9-0.2l-0.1-1.4C780.7,539.8,780.2,539.8,779.9,539.8z"/>
	<path class="st1" d="M795.5,529.8c-0.1-1.6-0.6-2.8-1.6-3.7s-2.4-1.3-4.2-1.3c-1.7,0-3.1,0.5-4.3,1.4s-1.8,2-1.8,3.3h1.8
		c0-0.9,0.4-1.7,1.2-2.3s1.8-0.9,3-0.9c1.4,0,2.4,0.3,3.1,1s1,1.6,1,2.7v1.9h-3.2c-2.3,0-4.1,0.4-5.4,1.3s-1.9,2.2-1.9,3.7
		c0,1.3,0.5,2.3,1.4,3.2s2.2,1.3,3.7,1.3c1,0,2-0.2,3-0.7s1.8-1.1,2.4-1.9c0,1,0.1,1.7,0.3,2.2l2-0.1v-0.2c-0.3-0.7-0.5-1.9-0.5-3.4
		V529.8z M793.6,536.6c-0.4,1-1.1,1.8-2,2.3s-1.9,0.8-3.1,0.8c-1.1,0-1.9-0.2-2.6-0.8s-1-1.3-1-2.2c0-1.1,0.5-1.9,1.5-2.6
		s2.4-1,4.1-1h3.1V536.6z"/>
	<path class="st1" d="M806.2,524.8c-1,0-2,0.3-2.9,0.8s-1.6,1.2-2.2,2.2l-0.1-2.7l-1.6,0.1V541h1.7v-10.9c0.4-1.1,1-2,1.9-2.7
		s1.8-1,2.9-1c1.3,0,2.2,0.3,2.8,1s0.9,1.8,0.9,3.2V541h1.7v-10.5c-0.1-1.9-0.5-3.4-1.3-4.3S807.9,524.8,806.2,524.8z"/>
	<path class="st1" d="M819.9,539.8c-0.8,0-1.3-0.2-1.6-0.6c-0.3-0.5-0.5-1.1-0.5-2v-10.6h3.3v-1.4h-3.3v-4.1h-1.7v4.1h-2.9v1.4h2.9
		v10.6c0,1.4,0.3,2.4,0.8,3.1s1.4,1,2.6,1c0.8,0,1.4,0,1.9-0.2l-0.1-1.4C820.7,539.8,820.2,539.8,819.9,539.8z"/>
	<rect x="824.1" y="518.5" class="st1" width="1.8" height="22.5"/>
	<path class="st1" d="M834.9,538.5l-4.9-13.3h-1.9l6,15.7l-0.8,2.1c-0.4,1-0.9,1.8-1.4,2.2s-1.2,0.6-2.1,0.6l-0.9-0.1v1.5
		c0.4,0.1,0.9,0.2,1.3,0.2c1.8,0,3.1-1,4-2.9l0.4-0.8l6.8-18.5h-1.9L834.9,538.5z"/>
	<path class="st1" d="M851,519.5c-0.4,0-0.7,0.1-0.9,0.3s-0.3,0.5-0.3,0.8s0.1,0.6,0.3,0.8s0.5,0.3,0.9,0.3s0.7-0.1,0.9-0.3
		s0.3-0.5,0.3-0.8s-0.1-0.6-0.3-0.8S851.4,519.5,851,519.5z"/>
	<rect x="850.1" y="525.2" class="st1" width="1.8" height="15.8"/>
	<path class="st1" d="M862.8,524.8c-1,0-2,0.3-2.9,0.8s-1.6,1.2-2.2,2.2l-0.1-2.7l-1.6,0.1V541h1.7v-10.9c0.4-1.1,1.1-2,1.9-2.7
		c0.9-0.7,1.8-1,2.9-1c1.3,0,2.2,0.3,2.8,1s0.9,1.8,0.9,3.2V541h1.7v-10.5c-0.1-1.9-0.5-3.4-1.3-4.3S864.5,524.8,862.8,524.8z"/>
	<path class="st1" d="M874.1,519.6c-0.8,0.8-1.2,2.1-1.2,3.7v1.9h-2.6v1.4h2.6V541h1.7v-14.3h3.8v-1.4h-3.8v-2c0-1.1,0.2-2,0.8-2.6
		s1.3-0.9,2.3-0.9c0.6,0,1.1,0.1,1.6,0.2l0.1-1.5c-0.6-0.1-1.2-0.2-1.9-0.2C876.1,518.3,874.9,518.7,874.1,519.6z"/>
	<rect x="881" y="518.5" class="st1" width="1.8" height="22.5"/>
	<path class="st1" d="M896.9,536.6c-0.7,2.1-2.3,3.1-4.8,3.1s-3.7-1.5-3.7-4.5v-10.1h-1.7v10.3c0,2,0.4,3.4,1.3,4.4s2.2,1.5,3.9,1.5
		c2.4,0,4-0.8,5.1-2.3v2h1.7v-15.9h-1.8V536.6z"/>
	<path class="st1" d="M908.4,524.9c-1.2,0-2.3,0.3-3.4,1s-1.9,1.7-2.5,2.9s-0.9,2.6-0.9,4.1v0.6c0,1.5,0.3,2.8,0.9,4
		s1.4,2.1,2.5,2.8s2.4,1,3.7,1c2.4,0,4.3-0.9,5.7-2.7l-1.1-0.8c-0.6,0.7-1.3,1.3-2,1.6s-1.6,0.5-2.5,0.5c-1.6,0-2.9-0.6-3.9-1.8
		s-1.5-2.7-1.5-4.5v-0.3h11.3v-1c0-2.3-0.6-4.1-1.7-5.4S910.3,524.9,908.4,524.9z M903.4,531.7c0.1-1.6,0.7-2.9,1.6-3.9
		s2-1.5,3.3-1.5c1.4,0,2.5,0.6,3.3,1.5s1.3,2.2,1.3,3.7l0,0.2H903.4z"/>
	<path class="st1" d="M924.1,524.8c-1,0-2,0.3-2.9,0.8s-1.6,1.2-2.2,2.2l-0.1-2.7l-1.6,0.1V541h1.7v-10.9c0.4-1.1,1.1-2,1.9-2.7
		c0.9-0.7,1.8-1,2.9-1c1.3,0,2.2,0.3,2.8,1s0.9,1.8,0.9,3.2V541h1.7v-10.5c-0.1-1.9-0.5-3.4-1.3-4.3S925.8,524.8,924.1,524.8z"/>
	<path class="st1" d="M935.3,528.2c0.9-1.1,2.1-1.7,3.7-1.7c1.3,0,2.3,0.3,3.1,1.1s1.2,1.8,1.3,3h1.7c-0.1-1.7-0.7-3.1-1.8-4.1
		c-1.1-1.1-2.6-1.6-4.3-1.6c-1.4,0-2.6,0.3-3.6,1c-1.1,0.7-1.9,1.6-2.4,2.8s-0.8,2.5-0.8,4.1v0.5c0,2.4,0.6,4.4,1.8,5.8
		c1.2,1.5,2.8,2.2,4.9,2.2c1.1,0,2.1-0.3,3-0.7c0.9-0.5,1.7-1.1,2.2-1.9s0.9-1.6,0.9-2.6h-1.7c0,1.1-0.4,2-1.3,2.7s-1.9,1-3.1,1
		c-1.6,0-2.7-0.5-3.6-1.6s-1.3-2.7-1.3-4.7V533C934,530.9,934.4,529.3,935.3,528.2z"/>
	<path class="st1" d="M953.6,524.9c-1.2,0-2.3,0.3-3.4,1s-1.9,1.7-2.5,2.9s-0.9,2.6-0.9,4.1v0.6c0,1.5,0.3,2.8,0.9,4
		s1.4,2.1,2.5,2.8s2.4,1,3.7,1c2.4,0,4.3-0.9,5.7-2.7l-1.1-0.8c-0.6,0.7-1.3,1.3-2,1.6s-1.6,0.5-2.5,0.5c-1.6,0-2.9-0.6-3.9-1.8
		s-1.5-2.7-1.5-4.5v-0.3h11.3v-1c0-2.3-0.6-4.1-1.7-5.4S955.5,524.9,953.6,524.9z M948.6,531.7c0.1-1.6,0.7-2.9,1.6-3.9
		s2-1.5,3.3-1.5c1.4,0,2.5,0.6,3.3,1.5s1.3,2.2,1.3,3.7l0,0.2H948.6z"/>
	<path class="st1" d="M973.8,539.8c-0.8,0-1.3-0.2-1.6-0.6c-0.3-0.5-0.5-1.1-0.5-2v-10.6h3.3v-1.4h-3.3v-4.1H970v4.1h-2.9v1.4h2.9
		v10.6c0,1.4,0.3,2.4,0.8,3.1s1.4,1,2.6,1c0.8,0,1.4,0,1.9-0.2l-0.1-1.4C974.6,539.8,974.1,539.8,973.8,539.8z"/>
	<path class="st1" d="M984.7,524.8c-1,0-2,0.3-2.9,0.8s-1.6,1.3-2.2,2.2v-9.3h-1.7V541h1.7v-10.9c0.4-1.1,1.1-2,1.9-2.7
		c0.9-0.7,1.8-1,2.9-1c1.3,0,2.2,0.3,2.8,1s0.9,1.8,0.9,3.2V541h1.7v-10.5c-0.1-1.9-0.5-3.4-1.3-4.3S986.4,524.8,984.7,524.8z"/>
	<path class="st1" d="M1005.7,533.3v-1c0-2.3-0.6-4.1-1.7-5.4s-2.7-2-4.6-2c-1.2,0-2.3,0.3-3.4,1s-1.9,1.7-2.5,2.9s-0.9,2.6-0.9,4.1
		v0.6c0,1.5,0.3,2.8,0.9,4s1.4,2.1,2.5,2.8s2.4,1,3.7,1c2.5,0,4.4-0.9,5.7-2.7l-1.1-0.8c-0.6,0.7-1.3,1.3-2,1.6s-1.6,0.5-2.5,0.5
		c-1.6,0-2.9-0.6-3.9-1.8s-1.5-2.7-1.5-4.5v-0.3H1005.7z M996.1,527.8c0.9-1,2-1.5,3.3-1.5c1.4,0,2.5,0.6,3.3,1.5s1.3,2.2,1.3,3.7
		l0,0.2h-9.5C994.6,530.1,995.2,528.8,996.1,527.8z"/>
	<path class="st1" d="M197.1,555.6c-0.8,0.8-1.2,2.1-1.2,3.7v1.9h-2.6v1.4h2.6V577h1.7v-14.3h3.8v-1.4h-3.8v-2c0-1.1,0.2-2,0.8-2.6
		c0.6-0.6,1.3-0.9,2.3-0.9c0.6,0,1.1,0.1,1.6,0.2l0.1-1.5c-0.6-0.1-1.2-0.2-1.9-0.2C199.1,554.3,197.9,554.8,197.1,555.6z"/>
	<path class="st1" d="M210,560.9c-1.4,0-2.6,0.4-3.7,1c-1.1,0.6-1.9,1.6-2.5,2.8c-0.6,1.2-0.9,2.6-0.9,4.1v0.4c0,2.5,0.7,4.4,2,5.9
		s3,2.2,5.1,2.2c1.4,0,2.6-0.4,3.7-1c1.1-0.6,1.9-1.6,2.5-2.8c0.6-1.2,0.9-2.6,0.9-4.1V569c0-2.5-0.7-4.4-2-5.9
		C213.8,561.6,212.1,560.9,210,560.9z M215.4,569.2c0,2-0.6,3.6-1.5,4.8c-0.9,1.2-2.2,1.8-3.8,1.8c-1.6,0-2.9-0.5-3.9-1.8
		s-1.5-2.8-1.5-4.7v-0.2c0-2,0.5-3.6,1.5-4.8s2.2-1.8,3.8-1.8c1.1,0,2,0.3,2.8,0.8c0.8,0.5,1.4,1.3,1.9,2.3s0.7,2.1,0.7,3.3V569.2z"
		/>
	<path class="st1" d="M222.2,564.2c0.9-1.1,2.1-1.7,3.7-1.7c1.3,0,2.3,0.3,3.1,1.1s1.2,1.8,1.3,3h1.7c-0.1-1.7-0.7-3-1.8-4.1
		c-1.1-1.1-2.6-1.6-4.3-1.6c-1.4,0-2.5,0.3-3.6,1c-1.1,0.7-1.9,1.6-2.4,2.8s-0.8,2.5-0.8,4.1v0.5c0,2.4,0.6,4.3,1.8,5.8
		c1.2,1.5,2.8,2.2,4.9,2.2c1.1,0,2.1-0.2,3-0.7c0.9-0.5,1.7-1.1,2.2-1.9s0.9-1.6,0.9-2.6h-1.7c0,1.1-0.4,2-1.3,2.7
		c-0.9,0.7-1.9,1-3.1,1c-1.6,0-2.7-0.5-3.6-1.6c-0.9-1.1-1.3-2.7-1.3-4.7V569C220.9,566.9,221.3,565.3,222.2,564.2z"/>
	<path class="st1" d="M244.7,572.6c-0.7,2.1-2.3,3.1-4.8,3.1s-3.7-1.5-3.7-4.5v-10.1h-1.7v10.3c0,2,0.4,3.4,1.3,4.4
		c0.9,1,2.2,1.5,3.9,1.5c2.4,0,4-0.8,5.1-2.3v2h1.7v-15.9h-1.8V572.6z"/>
	<path class="st1" d="M259.4,569.5c-0.8-0.5-2-0.8-3.5-1.2c-1.6-0.4-2.6-0.8-3.2-1.2s-0.9-1-0.9-1.8s0.3-1.5,1-2
		c0.7-0.5,1.6-0.8,2.8-0.8c1.1,0,2.1,0.3,2.9,0.9c0.8,0.6,1.2,1.4,1.2,2.3h1.8c0-1.4-0.5-2.5-1.6-3.4c-1.1-0.9-2.5-1.3-4.3-1.3
		c-1.6,0-2.9,0.4-4,1.2c-1.1,0.8-1.6,1.9-1.6,3.1c0,0.8,0.3,1.5,0.6,2c0.3,0.5,0.9,1,1.7,1.4s1.9,0.7,3.3,1c1.4,0.3,2.5,0.7,3.2,1.2
		s1,1.2,1,2.1c0,0.8,0,1.8-0.8,2.3s-1.8,0.8-3,0.8c-1.4,0-2.4-0.3-3.2-0.9c-0.8-0.6-1.2-1.4-1.3-2.4h-1.8c0,1.4,0.5,2.5,1.7,3.4
		c1.2,0.9,2.7,1.3,4.5,1.3c1.7,0,3.1-0.4,4.2-1.2c1.1-0.8,1.6-1.9,1.6-3.2c0-0.8-0.2-1.5-0.6-2.1C260.7,570.4,260.2,570,259.4,569.5
		z"/>
	<path class="st1" d="M277.5,560.9c-1.4,0-2.6,0.4-3.7,1c-1.1,0.6-1.9,1.6-2.5,2.8c-0.6,1.2-0.9,2.6-0.9,4.1v0.4
		c0,2.5,0.7,4.4,2,5.9s3,2.2,5.1,2.2c1.4,0,2.6-0.4,3.7-1c1.1-0.6,1.9-1.6,2.5-2.8c0.6-1.2,0.9-2.6,0.9-4.1V569c0-2.5-0.7-4.4-2-5.9
		C281.3,561.6,279.6,560.9,277.5,560.9z M282.8,569.2c0,2-0.6,3.6-1.5,4.8c-0.9,1.2-2.2,1.8-3.8,1.8s-2.9-0.5-3.9-1.8
		s-1.5-2.8-1.5-4.7v-0.2c0-2,0.5-3.6,1.5-4.8s2.2-1.8,3.8-1.8c1.1,0,2,0.3,2.8,0.8s1.4,1.3,1.9,2.3s0.7,2.1,0.7,3.3V569.2z"/>
	<path class="st1" d="M289.8,555.6c-0.8,0.8-1.2,2.1-1.2,3.7v1.9H286v1.4h2.6V577h1.8v-14.3h3.8v-1.4h-3.8v-2c0-1.1,0.3-2,0.8-2.6
		c0.6-0.6,1.3-0.9,2.3-0.9c0.6,0,1.1,0.1,1.6,0.2l0.1-1.5c-0.6-0.1-1.2-0.2-1.9-0.2C291.8,554.3,290.6,554.8,289.8,555.6z"/>
	<polygon class="st1" points="305.3,566.8 315.3,566.8 315.3,565.3 305.3,565.3 305.3,557.2 316.7,557.2 316.7,555.7 303.5,555.7 
		303.5,577 316.8,577 316.8,575.5 305.3,575.5 	"/>
	<path class="st1" d="M329.4,563.3c-1.1-1.7-2.8-2.5-4.9-2.5c-1.9,0-3.4,0.7-4.5,2.2c-1.1,1.5-1.6,3.4-1.6,5.9l-0.1,0.2
		c0,2.5,0.6,4.5,1.7,6c1.1,1.5,2.6,2.2,4.4,2.2c2.2,0,3.9-0.8,5-2.4l0.1,2.1h1.6v-22.6h-1.7V563.3z M329.4,572.9
		c-0.9,1.9-2.4,2.9-4.6,2.9c-1.4,0-2.6-0.6-3.4-1.8s-1.2-2.8-1.2-4.8c0-2.2,0.4-4,1.2-5.1c0.8-1.1,1.9-1.7,3.4-1.7
		c2.2,0,3.7,1,4.6,3.1V572.9z"/>
	<path class="st1" d="M345.2,572.6c-0.7,2.1-2.3,3.1-4.8,3.1s-3.7-1.5-3.7-4.5v-10.1H335v10.3c0,2,0.4,3.4,1.3,4.4
		c0.9,1,2.2,1.5,3.9,1.5c2.4,0,4-0.8,5.1-2.3v2h1.7v-15.9h-1.8V572.6z"/>
	<path class="st1" d="M353.1,564.2c0.9-1.1,2.1-1.7,3.7-1.7c1.3,0,2.3,0.3,3.1,1.1c0.8,0.8,1.2,1.8,1.3,3h1.7
		c-0.1-1.7-0.7-3-1.8-4.1s-2.6-1.6-4.3-1.6c-1.4,0-2.5,0.3-3.6,1c-1.1,0.7-1.9,1.6-2.4,2.8s-0.8,2.5-0.8,4.1v0.5
		c0,2.4,0.6,4.3,1.8,5.8c1.2,1.5,2.8,2.2,4.9,2.2c1.1,0,2.1-0.2,3-0.7c0.9-0.5,1.7-1.1,2.2-1.9s0.9-1.6,0.9-2.6h-1.7
		c0,1.1-0.4,2-1.3,2.7c-0.9,0.7-1.9,1-3.1,1c-1.6,0-2.7-0.5-3.6-1.6c-0.9-1.1-1.3-2.7-1.3-4.7V569
		C351.8,566.9,352.2,565.3,353.1,564.2z"/>
	<path class="st1" d="M377,565.8c-0.1-1.6-0.6-2.8-1.6-3.7s-2.4-1.3-4.2-1.3c-1.7,0-3.1,0.5-4.3,1.4c-1.2,0.9-1.8,2-1.8,3.3h1.8
		c0-0.9,0.4-1.7,1.2-2.3c0.8-0.6,1.8-0.9,3-0.9c1.4,0,2.4,0.3,3.1,1s1,1.6,1,2.7v1.9H372c-2.3,0-4.1,0.4-5.4,1.3s-1.9,2.2-1.9,3.7
		c0,1.3,0.5,2.3,1.4,3.2c0.9,0.9,2.2,1.3,3.7,1.3c1,0,2-0.2,3-0.7s1.8-1.1,2.4-1.9c0,1,0.1,1.7,0.3,2.2l2-0.1v-0.2
		c-0.3-0.7-0.5-1.9-0.5-3.4V565.8z M375.1,572.6c-0.4,1-1.1,1.8-2,2.3c-0.9,0.5-1.9,0.8-3.1,0.8c-1.1,0-1.9-0.2-2.6-0.8
		s-1-1.3-1-2.2c0-1.1,0.5-1.9,1.5-2.6s2.4-1,4.1-1h3.1V572.6z"/>
	<path class="st1" d="M385.6,575.8c-0.8,0-1.3-0.2-1.6-0.6c-0.3-0.5-0.5-1.1-0.5-2v-10.6h3.3v-1.4h-3.3v-4.1h-1.7v4.1h-2.9v1.4h2.9
		v10.6c0,1.4,0.3,2.4,0.8,3.1s1.4,1,2.6,1c0.8,0,1.4,0,1.9-0.2l-0.1-1.4C386.4,575.8,385.9,575.8,385.6,575.8z"/>
	<rect x="389.9" y="561.2" class="st1" width="1.8" height="15.8"/>
	<path class="st1" d="M390.8,555.5c-0.4,0-0.7,0.1-0.9,0.3c-0.2,0.2-0.3,0.5-0.3,0.8s0.1,0.6,0.3,0.8s0.5,0.3,0.9,0.3
		c0.4,0,0.7-0.1,0.9-0.3s0.3-0.5,0.3-0.8s-0.1-0.6-0.3-0.8C391.5,555.6,391.2,555.5,390.8,555.5z"/>
	<path class="st1" d="M401.8,560.9c-1.4,0-2.6,0.4-3.7,1c-1.1,0.6-1.9,1.6-2.5,2.8c-0.6,1.2-0.9,2.6-0.9,4.1v0.4
		c0,2.5,0.7,4.4,2,5.9s3,2.2,5.1,2.2c1.4,0,2.6-0.4,3.7-1c1.1-0.6,1.9-1.6,2.5-2.8c0.6-1.2,0.9-2.6,0.9-4.1V569c0-2.5-0.7-4.4-2-5.9
		S403.9,560.9,401.8,560.9z M407.2,569.2c0,2-0.6,3.6-1.5,4.8c-0.9,1.2-2.2,1.8-3.8,1.8s-2.9-0.5-3.9-1.8s-1.5-2.8-1.5-4.7v-0.2
		c0-2,0.5-3.6,1.5-4.8s2.2-1.8,3.8-1.8c1.1,0,2,0.3,2.8,0.8s1.4,1.3,1.9,2.3s0.7,2.1,0.7,3.3V569.2z"/>
	<path class="st1" d="M418.6,560.8c-1,0-2,0.3-2.9,0.8c-0.9,0.5-1.6,1.2-2.2,2.2l-0.1-2.7l-1.6,0.1V577h1.7v-10.9
		c0.4-1.1,1-2,1.9-2.7c0.9-0.7,1.8-1,2.9-1c1.3,0,2.2,0.3,2.8,1c0.6,0.7,0.9,1.8,0.9,3.2V577h1.7v-10.5c-0.1-1.9-0.5-3.4-1.3-4.3
		S420.3,560.8,418.6,560.8z"/>
	<path class="st1" d="M439,565.8c-0.1-1.6-0.6-2.8-1.6-3.7s-2.4-1.3-4.2-1.3c-1.7,0-3.1,0.5-4.3,1.4c-1.2,0.9-1.8,2-1.8,3.3h1.8
		c0-0.9,0.4-1.7,1.2-2.3c0.8-0.6,1.8-0.9,3-0.9c1.4,0,2.4,0.3,3.1,1s1,1.6,1,2.7v1.9H434c-2.3,0-4.1,0.4-5.4,1.3s-1.9,2.2-1.9,3.7
		c0,1.3,0.5,2.3,1.4,3.2c0.9,0.9,2.2,1.3,3.7,1.3c1,0,2-0.2,3-0.7s1.8-1.1,2.4-1.9c0,1,0.1,1.7,0.3,2.2l2-0.1v-0.2
		c-0.3-0.7-0.5-1.9-0.5-3.4V565.8z M437.1,572.6c-0.4,1-1.1,1.8-2,2.3c-0.9,0.5-1.9,0.8-3.1,0.8c-1.1,0-1.9-0.2-2.6-0.8
		s-1-1.3-1-2.2c0-1.1,0.5-1.9,1.5-2.6s2.4-1,4.1-1h3.1V572.6z"/>
	<rect x="443" y="554.5" class="st1" width="1.8" height="22.5"/>
	<polygon class="st1" points="457.5,555.7 455.7,555.7 455.7,577 468,577 468,575.5 457.5,575.5 	"/>
	<path class="st1" d="M476.2,560.9c-1.2,0-2.3,0.3-3.4,1c-1.1,0.7-1.9,1.7-2.5,2.9c-0.6,1.2-0.9,2.6-0.9,4.1v0.6
		c0,1.5,0.3,2.8,0.9,4c0.6,1.2,1.4,2.1,2.5,2.8c1.1,0.7,2.4,1,3.7,1c2.5,0,4.3-0.9,5.7-2.7l-1.1-0.8c-0.6,0.7-1.3,1.3-2,1.6
		s-1.6,0.5-2.5,0.5c-1.6,0-2.9-0.6-3.9-1.8s-1.5-2.7-1.5-4.5v-0.3h11.3v-1c0-2.3-0.6-4.1-1.7-5.4
		C479.7,561.6,478.1,560.9,476.2,560.9z M480.8,567.7h-9.5c0.1-1.6,0.7-2.9,1.6-3.9c0.9-1,2-1.5,3.3-1.5s2.5,0.6,3.3,1.5
		s1.3,2.2,1.3,3.7V567.7z"/>
	<path class="st1" d="M496.6,565.8c-0.1-1.6-0.6-2.8-1.6-3.7s-2.4-1.3-4.2-1.3c-1.7,0-3.1,0.5-4.3,1.4s-1.8,2-1.8,3.3h1.8
		c0-0.9,0.4-1.7,1.2-2.3c0.8-0.6,1.8-0.9,3-0.9c1.4,0,2.4,0.3,3.1,1s1,1.6,1,2.7v1.9h-3.2c-2.3,0-4.1,0.4-5.4,1.3s-1.9,2.2-1.9,3.7
		c0,1.3,0.5,2.3,1.4,3.2c0.9,0.9,2.2,1.3,3.7,1.3c1,0,2-0.2,3-0.7s1.8-1.1,2.4-1.9c0,1,0.1,1.7,0.3,2.2l2-0.1v-0.2
		c-0.3-0.7-0.5-1.9-0.5-3.4V565.8z M494.7,572.6c-0.4,1-1.1,1.8-2,2.3c-0.9,0.5-1.9,0.8-3.1,0.8c-1,0-1.9-0.2-2.6-0.8s-1-1.3-1-2.2
		c0-1.1,0.5-1.9,1.5-2.6s2.4-1,4.1-1h3.1V572.6z"/>
	<path class="st1" d="M510.7,563.3c-1.1-1.7-2.8-2.5-4.9-2.5c-1.9,0-3.4,0.7-4.5,2.2c-1.1,1.5-1.6,3.4-1.6,5.9l-0.1,0.2
		c0,2.5,0.6,4.5,1.7,6c1.1,1.5,2.6,2.2,4.4,2.2c2.2,0,3.9-0.8,5-2.4l0.1,2.1h1.6v-22.6h-1.7V563.3z M510.7,572.9
		c-0.9,1.9-2.4,2.9-4.6,2.9c-1.4,0-2.6-0.6-3.4-1.8s-1.2-2.8-1.2-4.8c0-2.2,0.4-4,1.2-5.1c0.8-1.1,1.9-1.7,3.4-1.7
		c2.2,0,3.7,1,4.6,3.1V572.9z"/>
	<path class="st1" d="M522.2,560.9c-1.2,0-2.3,0.3-3.4,1s-1.9,1.7-2.5,2.9s-0.9,2.6-0.9,4.1v0.6c0,1.5,0.3,2.8,0.9,4
		s1.4,2.1,2.5,2.8s2.4,1,3.7,1c2.4,0,4.3-0.9,5.7-2.7l-1.1-0.8c-0.6,0.7-1.3,1.3-2,1.6s-1.6,0.5-2.5,0.5c-1.6,0-2.9-0.6-3.9-1.8
		s-1.5-2.7-1.5-4.5v-0.3h11.3v-1c0-2.3-0.6-4.1-1.7-5.4S524.1,560.9,522.2,560.9z M517.3,567.7c0.1-1.6,0.7-2.9,1.6-3.9
		s2-1.5,3.3-1.5s2.5,0.6,3.3,1.5s1.3,2.2,1.3,3.7l0,0.2H517.3z"/>
	<path class="st1" d="M532.8,563.7v-2.5h-1.7V577h1.7v-10.9c0.3-1.2,0.8-2.1,1.6-2.7s1.7-0.9,2.8-0.9c0.4,0,0.8,0,1.2,0.1l0.1-1.5
		c-0.3-0.1-0.7-0.2-1.2-0.2C535.2,560.9,533.7,561.8,532.8,563.7z"/>
	<path class="st1" d="M549.5,569.5c-0.8-0.5-1.9-0.8-3.5-1.2s-2.6-0.8-3.2-1.2s-0.9-1-0.9-1.8s0.3-1.5,1-2s1.6-0.8,2.8-0.8
		c1.1,0,2.1,0.3,2.9,0.9s1.2,1.4,1.2,2.3h1.8c0-1.4-0.5-2.5-1.6-3.4s-2.5-1.3-4.3-1.3c-1.6,0-2.9,0.4-4,1.2s-1.6,1.9-1.6,3.1
		c0,0.8,0.3,1.5,0.6,2s0.9,1,1.7,1.4s1.9,0.7,3.3,1s2.5,0.7,3.2,1.2s1,1.2,1,2.1c0,0.8,0,1.8-0.8,2.3s-1.8,0.8-3,0.8
		c-1.4,0-2.4-0.3-3.2-0.9s-1.2-1.4-1.3-2.4h-1.8c0,1.4,0.5,2.5,1.7,3.4s2.7,1.3,4.5,1.3c1.7,0,3.1-0.4,4.2-1.2s1.6-1.9,1.6-3.2
		c0-0.8-0.2-1.5-0.6-2.1S550.3,570,549.5,569.5z"/>
	<path class="st1" d="M561.7,560.8c-1,0-2,0.3-2.9,0.8s-1.6,1.3-2.2,2.2v-9.3h-1.7V577h1.7v-10.9c0.4-1.1,1-2,1.9-2.7s1.8-1,2.9-1
		c1.3,0,2.2,0.3,2.8,1s0.9,1.8,0.9,3.2V577h1.7v-10.5c-0.1-1.9-0.5-3.4-1.3-4.3S563.4,560.8,561.7,560.8z"/>
	<path class="st1" d="M571.7,555.5c-0.4,0-0.7,0.1-0.9,0.3s-0.3,0.5-0.3,0.8s0.1,0.6,0.3,0.8s0.5,0.3,0.9,0.3s0.7-0.1,0.9-0.3
		s0.3-0.5,0.3-0.8s-0.1-0.6-0.3-0.8S572.1,555.5,571.7,555.5z"/>
	<rect x="570.8" y="561.2" class="st1" width="1.8" height="15.8"/>
	<path class="st1" d="M583.3,560.9c-2.2,0-3.9,0.8-5,2.5l-0.1-2.2h-1.6v21.9h1.7V575c1.2,1.5,2.8,2.3,5,2.3c1.8,0,3.3-0.7,4.4-2.2
		s1.6-3.4,1.6-5.9l0.1-0.1c0-2.6-0.5-4.5-1.6-6S585.2,560.9,583.3,560.9z M586.4,574c-0.9,1.2-2,1.8-3.5,1.8c-1.1,0-2-0.2-2.8-0.7
		s-1.4-1.2-1.8-2.1v-7.6c0.4-1,1-1.8,1.8-2.3s1.7-0.8,2.8-0.8c1.5,0,2.7,0.6,3.5,1.8s1.2,2.8,1.2,4.8
		C587.6,571.2,587.3,572.8,586.4,574z"/>
	<path class="st1" d="M593.5,574.6c-0.4,0-0.7,0.1-0.9,0.4s-0.3,0.6-0.3,0.9c0,0.4,0.1,0.6,0.3,0.8s0.5,0.3,0.9,0.3s0.7-0.1,0.9-0.3
		s0.3-0.4,0.3-0.8s-0.1-0.6-0.3-0.9S593.9,574.6,593.5,574.6z"/>
</g>
</svg>
